<svg width="24" height="24" viewBox="0 0 24 24" fill="none" xmlns="http://www.w3.org/2000/svg">
<path d="M11.0304 9.96967C11.3233 10.2626 11.3233 10.7374 11.0304 11.0303C10.7375 11.3232 10.2626 11.3232 9.96971 11.0303L11.0304 9.96967ZM2.46971 3.53033C2.17681 3.23744 2.17681 2.76256 2.46971 2.46967C2.7626 2.17678 3.23748 2.17678 3.53037 2.46967L2.46971 3.53033ZM3.53037 2.46967L11.0304 9.96967L9.96971 11.0303L2.46971 3.53033L3.53037 2.46967Z" fill="#01252C"/>
<path d="M12.9697 14.0303C12.6768 13.7374 12.6768 13.2626 12.9697 12.9697C13.2626 12.6768 13.7375 12.6768 14.0304 12.9697L12.9697 14.0303ZM21.5304 20.4697C21.8233 20.7626 21.8233 21.2374 21.5304 21.5303C21.2375 21.8232 20.7626 21.8232 20.4697 21.5303L21.5304 20.4697ZM14.0304 12.9697L21.5304 20.4697L20.4697 21.5303L12.9697 14.0303L14.0304 12.9697Z" fill="#01252C"/>
<path d="M6.50004 10.7338C7.34445 10.7458 10.1409 11.3267 10.7338 10.7338C11.3268 10.1409 10.7458 7.34441 10.7338 6.5" stroke="#01252C" stroke-width="1.5" stroke-linecap="round" stroke-linejoin="round"/>
<path d="M13.2662 17.5C13.2542 16.6556 12.6733 13.8591 13.2662 13.2662C13.8592 12.6733 16.6556 13.2542 17.5 13.2662" stroke="#01252C" stroke-width="1.5" stroke-linecap="round" stroke-linejoin="round"/>
</svg>
