<svg width="24" height="24" viewBox="0 0 24 24" fill="none" xmlns="http://www.w3.org/2000/svg">
<path d="M21.0304 4.03033C21.3233 3.73744 21.3233 3.26256 21.0304 2.96967C20.7375 2.67678 20.2626 2.67678 19.9697 2.96967L21.0304 4.03033ZM12.9697 9.96967C12.6768 10.2626 12.6768 10.7374 12.9697 11.0303C13.2626 11.3232 13.7375 11.3232 14.0304 11.0303L12.9697 9.96967ZM14.0304 11.0303L21.0304 4.03033L19.9697 2.96967L12.9697 9.96967L14.0304 11.0303Z" fill="white"/>
<path d="M2.96973 19.9697C2.67684 20.2626 2.67684 20.7374 2.96973 21.0303C3.26262 21.3232 3.7375 21.3232 4.03039 21.0303L2.96973 19.9697ZM11.0304 14.0303C11.3233 13.7374 11.3233 13.2626 11.0304 12.9697C10.7375 12.6768 10.2626 12.6768 9.96973 12.9697L11.0304 14.0303ZM4.03039 21.0303L11.0304 14.0303L9.96973 12.9697L2.96973 19.9697L4.03039 21.0303Z" fill="white"/>
<path d="M16.5001 3.26621C17.3445 3.25421 20.1409 2.67328 20.7339 3.26621C21.3268 3.85913 20.7459 6.65559 20.7339 7.5" stroke="white" stroke-width="1.5" stroke-linecap="round" stroke-linejoin="round"/>
<path d="M3.26627 16.5C3.25427 17.3444 2.67335 20.1409 3.26627 20.7338C3.85919 21.3267 6.65565 20.7458 7.50006 20.7338" stroke="white" stroke-width="1.5" stroke-linecap="round" stroke-linejoin="round"/>
</svg>
