<svg width="96" height="96" viewBox="0 0 96 96" fill="none" xmlns="http://www.w3.org/2000/svg">
<path d="M92 48C92 72.3005 72.3005 92 48 92C23.6995 92 4 72.3005 4 48C4 23.6995 23.6995 4 48 4C72.3005 4 92 23.6995 92 48Z" fill="#7AFF84"/>
<path fill-rule="evenodd" clip-rule="evenodd" d="M95.2597 48C95.2597 74.1006 74.101 95.2592 48.0005 95.2592C21.8999 95.2592 0.741211 74.1006 0.741211 48C0.741211 21.8994 21.8999 0.740723 48.0005 0.740723C74.101 0.740723 95.2597 21.8994 95.2597 48ZM48.0005 92C72.301 92 92.0005 72.3005 92.0005 48C92.0005 23.6995 72.301 3.99998 48.0005 3.99998C23.6999 3.99998 4.00047 23.6995 4.00047 48C4.00047 72.3005 23.6999 92 48.0005 92Z" fill="#4CAF50"/>
<path fill-rule="evenodd" clip-rule="evenodd" d="M7.25854 49.6296C6.35852 49.6296 5.62891 48.9 5.62891 48C5.62891 24.5995 24.5988 5.62963 47.9993 5.62963C48.8993 5.62963 49.6289 6.35925 49.6289 7.25927C49.6289 8.15928 48.8993 8.8889 47.9993 8.8889C26.3988 8.88889 8.88817 26.3995 8.88816 48C8.88816 48.9 8.15855 49.6296 7.25854 49.6296Z" fill="#A6FDAA"/>
<path fill-rule="evenodd" clip-rule="evenodd" d="M88.7405 46.3704C89.6405 46.3704 90.3701 47.1 90.3701 48C90.3701 71.4005 71.4003 90.3704 47.9997 90.3704C47.0997 90.3704 46.3701 89.6408 46.3701 88.7407C46.3701 87.8407 47.0997 87.1111 47.9997 87.1111C69.6002 87.1111 87.1109 69.6005 87.1109 48C87.1109 47.1 87.8405 46.3704 88.7405 46.3704Z" fill="#61D366"/>
<path d="M80.5924 48C80.5924 66.0004 66.0002 80.5926 47.9998 80.5926C29.9994 80.5926 15.4072 66.0004 15.4072 48C15.4072 29.9996 29.9994 15.4074 47.9998 15.4074C66.0002 15.4074 80.5924 29.9996 80.5924 48Z" fill="#7AFF84"/>
<path fill-rule="evenodd" clip-rule="evenodd" d="M83.8521 48C83.8521 67.8004 67.8007 83.8518 48.0003 83.8518C28.1999 83.8518 12.1484 67.8004 12.1484 48C12.1484 28.1996 28.1999 12.1481 48.0003 12.1481C67.8007 12.1481 83.8521 28.1996 83.8521 48ZM48.0003 80.5926C66.0007 80.5926 80.5929 66.0004 80.5929 48C80.5929 29.9996 66.0007 15.4074 48.0003 15.4074C29.9999 15.4074 15.4077 29.9996 15.4077 48C15.4077 66.0004 29.9999 80.5926 48.0003 80.5926Z" fill="#4CAF50"/>
<path fill-rule="evenodd" clip-rule="evenodd" d="M47.9989 75.7037C63.2993 75.7037 75.7027 63.3003 75.7027 48C75.7027 47.1 76.4323 46.3704 77.3323 46.3704C78.2323 46.3704 78.9619 47.1 78.9619 48C78.9619 65.1004 65.0993 78.963 47.9989 78.9629C47.0989 78.9629 46.3693 78.2333 46.3693 77.3333C46.3693 76.4333 47.0989 75.7037 47.9989 75.7037Z" fill="#61D366"/>
<path fill-rule="evenodd" clip-rule="evenodd" d="M48.0001 20.2963C32.6997 20.2963 20.2964 32.6997 20.2964 48C20.2964 48.9 19.5668 49.6296 18.6667 49.6296C17.7667 49.6296 17.0371 48.9 17.0371 48C17.0371 30.8996 30.8997 17.037 48.0001 17.037C48.9001 17.037 49.6297 17.7667 49.6297 18.6667C49.6297 19.5667 48.9001 20.2963 48.0001 20.2963Z" fill="#BBFFBE"/>
<mask id="path-9-outside-1_1117_12179" maskUnits="userSpaceOnUse" x="13.4004" y="39" width="70" height="21" fill="black">
<rect fill="white" x="13.4004" y="39" width="70" height="21"/>
<path d="M16.4004 53V42.7143H20.4432C21.0956 42.7143 21.6432 42.8476 22.0861 43.1143C22.529 43.381 22.8623 43.7262 23.0861 44.15C23.3099 44.569 23.4218 45.0119 23.4218 45.4786C23.4218 46.0452 23.2813 46.531 23.0004 46.9357C22.7242 47.3405 22.3504 47.6167 21.879 47.7643L21.8647 47.4143C22.5218 47.5762 23.0266 47.8929 23.379 48.3643C23.7313 48.831 23.9075 49.3762 23.9075 50C23.9075 50.6048 23.7861 51.131 23.5432 51.5786C23.3052 52.0262 22.9552 52.3762 22.4932 52.6286C22.0361 52.8762 21.4813 53 20.829 53H16.4004ZM17.9147 51.5786H20.6004C20.9385 51.5786 21.2409 51.5143 21.5075 51.3857C21.779 51.2571 21.9909 51.0738 22.1432 50.8357C22.3004 50.5929 22.379 50.3048 22.379 49.9714C22.379 49.6619 22.3099 49.3833 22.1718 49.1357C22.0385 48.8833 21.8432 48.6857 21.5861 48.5429C21.3337 48.3952 21.0361 48.3214 20.6932 48.3214H17.9147V51.5786ZM17.9147 46.9143H20.4218C20.698 46.9143 20.9456 46.8595 21.1647 46.75C21.3885 46.6357 21.5647 46.4738 21.6932 46.2643C21.8266 46.05 21.8932 45.7929 21.8932 45.4929C21.8932 45.0929 21.7599 44.7643 21.4932 44.5071C21.2266 44.25 20.8694 44.1214 20.4218 44.1214H17.9147V46.9143ZM29.3218 53.2143C28.5552 53.2143 27.8813 53.0476 27.3004 52.7143C26.7242 52.3762 26.2742 51.9071 25.9504 51.3071C25.6313 50.7024 25.4718 50.0024 25.4718 49.2071C25.4718 48.3643 25.629 47.6333 25.9432 47.0143C26.2623 46.3952 26.7052 45.9167 27.2718 45.5786C27.8385 45.2405 28.498 45.0714 29.2504 45.0714C30.0361 45.0714 30.7052 45.2548 31.2575 45.6214C31.8099 45.9833 32.2218 46.5 32.4932 47.1714C32.7694 47.8429 32.879 48.6405 32.8218 49.5643H31.329V49.0214C31.3194 48.1262 31.148 47.4643 30.8147 47.0357C30.4861 46.6071 29.9837 46.3929 29.3075 46.3929C28.5599 46.3929 27.998 46.6286 27.6218 47.1C27.2456 47.5714 27.0575 48.2524 27.0575 49.1429C27.0575 49.9905 27.2456 50.6476 27.6218 51.1143C27.998 51.5762 28.5409 51.8071 29.2504 51.8071C29.7171 51.8071 30.1194 51.7024 30.4575 51.4929C30.8004 51.2786 31.0671 50.9738 31.2575 50.5786L32.7218 51.0429C32.4218 51.7333 31.9671 52.269 31.3575 52.65C30.748 53.0262 30.0694 53.2143 29.3218 53.2143ZM26.5718 49.5643V48.4H32.079V49.5643H26.5718ZM38.1744 56.6429C37.7601 56.6429 37.3577 56.5786 36.9672 56.45C36.5815 56.3214 36.2291 56.131 35.9101 55.8786C35.5911 55.631 35.3268 55.3238 35.1172 54.9571L36.4958 54.2571C36.6625 54.5857 36.9006 54.8262 37.2101 54.9786C37.5196 55.131 37.8458 55.2071 38.1887 55.2071C38.6125 55.2071 38.9744 55.131 39.2744 54.9786C39.5744 54.831 39.8006 54.6071 39.953 54.3071C40.1101 54.0071 40.1863 53.6357 40.1815 53.1929V51.0357H40.3601V45.2857H41.6815V53.2071C41.6815 53.4119 41.6744 53.6071 41.6601 53.7929C41.6458 53.9786 41.6196 54.1643 41.5815 54.35C41.472 54.869 41.2625 55.2976 40.953 55.6357C40.6482 55.9738 40.2577 56.2262 39.7815 56.3929C39.3101 56.5595 38.7744 56.6429 38.1744 56.6429ZM38.0601 53.2143C37.3411 53.2143 36.7196 53.0357 36.1958 52.6786C35.6768 52.3214 35.2744 51.8357 34.9887 51.2214C34.7077 50.6024 34.5672 49.9071 34.5672 49.1357C34.5672 48.3595 34.7101 47.6667 34.9958 47.0571C35.2815 46.4429 35.6863 45.9595 36.2101 45.6071C36.7387 45.25 37.3649 45.0714 38.0887 45.0714C38.8172 45.0714 39.4291 45.25 39.9244 45.6071C40.4244 45.9595 40.8006 46.4429 41.053 47.0571C41.3101 47.6714 41.4387 48.3643 41.4387 49.1357C41.4387 49.9071 41.3101 50.6 41.053 51.2143C40.7958 51.8286 40.4172 52.3167 39.9172 52.6786C39.4172 53.0357 38.7982 53.2143 38.0601 53.2143ZM38.2672 51.8643C38.7577 51.8643 39.1577 51.7476 39.4672 51.5143C39.7768 51.281 40.003 50.9595 40.1458 50.55C40.2887 50.1405 40.3601 49.669 40.3601 49.1357C40.3601 48.6024 40.2863 48.131 40.1387 47.7214C39.9958 47.3119 39.772 46.9929 39.4672 46.7643C39.1672 46.5357 38.7839 46.4214 38.3172 46.4214C37.822 46.4214 37.4149 46.5429 37.0958 46.7857C36.7768 47.0286 36.5387 47.3548 36.3815 47.7643C36.2291 48.1738 36.153 48.631 36.153 49.1357C36.153 49.6452 36.2291 50.1071 36.3815 50.5214C36.5387 50.931 36.772 51.2571 37.0815 51.5C37.3958 51.7429 37.7911 51.8643 38.2672 51.8643ZM44.4015 44.0214V42.5714H45.8944V44.0214H44.4015ZM44.4015 53V45.2857H45.8944V53H44.4015ZM54.0251 53V49.2071C54.0251 48.9071 53.9989 48.6 53.9465 48.2857C53.8989 47.9667 53.8036 47.6714 53.6608 47.4C53.5227 47.1286 53.3251 46.9095 53.0679 46.7429C52.8155 46.5762 52.4846 46.4929 52.0751 46.4929C51.8084 46.4929 51.556 46.5381 51.3179 46.6286C51.0798 46.7143 50.8703 46.8548 50.6893 47.05C50.5132 47.2452 50.3727 47.5024 50.2679 47.8214C50.1679 48.1405 50.1179 48.5286 50.1179 48.9857L49.1893 48.6357C49.1893 47.9357 49.3203 47.319 49.5822 46.7857C49.8441 46.2476 50.2203 45.8286 50.7108 45.5286C51.2012 45.2286 51.7941 45.0786 52.4893 45.0786C53.0227 45.0786 53.4703 45.1643 53.8322 45.3357C54.1941 45.5071 54.487 45.7333 54.7108 46.0143C54.9393 46.2905 55.1132 46.5929 55.2322 46.9214C55.3512 47.25 55.4322 47.5714 55.4751 47.8857C55.5179 48.2 55.5393 48.4762 55.5393 48.7143V53H54.0251ZM48.6036 53V45.2857H49.9393V47.5143H50.1179V53H48.6036ZM63.3856 53V49.2071C63.3856 48.9071 63.3594 48.6 63.307 48.2857C63.2594 47.9667 63.1641 47.6714 63.0213 47.4C62.8832 47.1286 62.6856 46.9095 62.4284 46.7429C62.176 46.5762 61.8451 46.4929 61.4355 46.4929C61.1689 46.4929 60.9165 46.5381 60.6784 46.6286C60.4403 46.7143 60.2308 46.8548 60.0498 47.05C59.8736 47.2452 59.7332 47.5024 59.6284 47.8214C59.5284 48.1405 59.4784 48.5286 59.4784 48.9857L58.5498 48.6357C58.5498 47.9357 58.6808 47.319 58.9427 46.7857C59.2046 46.2476 59.5808 45.8286 60.0713 45.5286C60.5617 45.2286 61.1546 45.0786 61.8498 45.0786C62.3832 45.0786 62.8308 45.1643 63.1927 45.3357C63.5546 45.5071 63.8475 45.7333 64.0713 46.0143C64.2998 46.2905 64.4736 46.5929 64.5927 46.9214C64.7117 47.25 64.7927 47.5714 64.8356 47.8857C64.8784 48.2 64.8998 48.4762 64.8998 48.7143V53H63.3856ZM57.9641 53V45.2857H59.2998V47.5143H59.4784V53H57.9641ZM70.6555 53.2143C69.8889 53.2143 69.2151 53.0476 68.6341 52.7143C68.0579 52.3762 67.6079 51.9071 67.2841 51.3071C66.9651 50.7024 66.8055 50.0024 66.8055 49.2071C66.8055 48.3643 66.9627 47.6333 67.277 47.0143C67.596 46.3952 68.0389 45.9167 68.6055 45.5786C69.1722 45.2405 69.8317 45.0714 70.5841 45.0714C71.3698 45.0714 72.0389 45.2548 72.5912 45.6214C73.1436 45.9833 73.5555 46.5 73.827 47.1714C74.1031 47.8429 74.2127 48.6405 74.1555 49.5643H72.6627V49.0214C72.6531 48.1262 72.4817 47.4643 72.1484 47.0357C71.8198 46.6071 71.3174 46.3929 70.6412 46.3929C69.8936 46.3929 69.3317 46.6286 68.9555 47.1C68.5793 47.5714 68.3912 48.2524 68.3912 49.1429C68.3912 49.9905 68.5793 50.6476 68.9555 51.1143C69.3317 51.5762 69.8746 51.8071 70.5841 51.8071C71.0508 51.8071 71.4531 51.7024 71.7912 51.4929C72.1341 51.2786 72.4008 50.9738 72.5912 50.5786L74.0555 51.0429C73.7555 51.7333 73.3008 52.269 72.6912 52.65C72.0817 53.0262 71.4031 53.2143 70.6555 53.2143ZM67.9055 49.5643V48.4H73.4127V49.5643H67.9055ZM76.3295 53V45.2857H77.6581V47.1571L77.4724 46.9143C77.5676 46.6667 77.6914 46.4405 77.8438 46.2357C77.9962 46.0262 78.1724 45.8548 78.3724 45.7214C78.5676 45.5786 78.7843 45.469 79.0224 45.3929C79.2652 45.3119 79.5129 45.2643 79.7652 45.25C80.0176 45.231 80.2605 45.2429 80.4938 45.2857V46.6857C80.2414 46.619 79.9605 46.6 79.651 46.6286C79.3462 46.6571 79.0652 46.7548 78.8081 46.9214C78.5652 47.0786 78.3724 47.269 78.2295 47.4929C78.0914 47.7167 77.9914 47.9667 77.9295 48.2429C77.8676 48.5143 77.8367 48.8024 77.8367 49.1071V53H76.3295Z"/>
</mask>
<g filter="url(#filter0_ii_1117_12179)">
<path d="M16.4004 53V42.7143H20.4432C21.0956 42.7143 21.6432 42.8476 22.0861 43.1143C22.529 43.381 22.8623 43.7262 23.0861 44.15C23.3099 44.569 23.4218 45.0119 23.4218 45.4786C23.4218 46.0452 23.2813 46.531 23.0004 46.9357C22.7242 47.3405 22.3504 47.6167 21.879 47.7643L21.8647 47.4143C22.5218 47.5762 23.0266 47.8929 23.379 48.3643C23.7313 48.831 23.9075 49.3762 23.9075 50C23.9075 50.6048 23.7861 51.131 23.5432 51.5786C23.3052 52.0262 22.9552 52.3762 22.4932 52.6286C22.0361 52.8762 21.4813 53 20.829 53H16.4004ZM17.9147 51.5786H20.6004C20.9385 51.5786 21.2409 51.5143 21.5075 51.3857C21.779 51.2571 21.9909 51.0738 22.1432 50.8357C22.3004 50.5929 22.379 50.3048 22.379 49.9714C22.379 49.6619 22.3099 49.3833 22.1718 49.1357C22.0385 48.8833 21.8432 48.6857 21.5861 48.5429C21.3337 48.3952 21.0361 48.3214 20.6932 48.3214H17.9147V51.5786ZM17.9147 46.9143H20.4218C20.698 46.9143 20.9456 46.8595 21.1647 46.75C21.3885 46.6357 21.5647 46.4738 21.6932 46.2643C21.8266 46.05 21.8932 45.7929 21.8932 45.4929C21.8932 45.0929 21.7599 44.7643 21.4932 44.5071C21.2266 44.25 20.8694 44.1214 20.4218 44.1214H17.9147V46.9143ZM29.3218 53.2143C28.5552 53.2143 27.8813 53.0476 27.3004 52.7143C26.7242 52.3762 26.2742 51.9071 25.9504 51.3071C25.6313 50.7024 25.4718 50.0024 25.4718 49.2071C25.4718 48.3643 25.629 47.6333 25.9432 47.0143C26.2623 46.3952 26.7052 45.9167 27.2718 45.5786C27.8385 45.2405 28.498 45.0714 29.2504 45.0714C30.0361 45.0714 30.7052 45.2548 31.2575 45.6214C31.8099 45.9833 32.2218 46.5 32.4932 47.1714C32.7694 47.8429 32.879 48.6405 32.8218 49.5643H31.329V49.0214C31.3194 48.1262 31.148 47.4643 30.8147 47.0357C30.4861 46.6071 29.9837 46.3929 29.3075 46.3929C28.5599 46.3929 27.998 46.6286 27.6218 47.1C27.2456 47.5714 27.0575 48.2524 27.0575 49.1429C27.0575 49.9905 27.2456 50.6476 27.6218 51.1143C27.998 51.5762 28.5409 51.8071 29.2504 51.8071C29.7171 51.8071 30.1194 51.7024 30.4575 51.4929C30.8004 51.2786 31.0671 50.9738 31.2575 50.5786L32.7218 51.0429C32.4218 51.7333 31.9671 52.269 31.3575 52.65C30.748 53.0262 30.0694 53.2143 29.3218 53.2143ZM26.5718 49.5643V48.4H32.079V49.5643H26.5718ZM38.1744 56.6429C37.7601 56.6429 37.3577 56.5786 36.9672 56.45C36.5815 56.3214 36.2291 56.131 35.9101 55.8786C35.5911 55.631 35.3268 55.3238 35.1172 54.9571L36.4958 54.2571C36.6625 54.5857 36.9006 54.8262 37.2101 54.9786C37.5196 55.131 37.8458 55.2071 38.1887 55.2071C38.6125 55.2071 38.9744 55.131 39.2744 54.9786C39.5744 54.831 39.8006 54.6071 39.953 54.3071C40.1101 54.0071 40.1863 53.6357 40.1815 53.1929V51.0357H40.3601V45.2857H41.6815V53.2071C41.6815 53.4119 41.6744 53.6071 41.6601 53.7929C41.6458 53.9786 41.6196 54.1643 41.5815 54.35C41.472 54.869 41.2625 55.2976 40.953 55.6357C40.6482 55.9738 40.2577 56.2262 39.7815 56.3929C39.3101 56.5595 38.7744 56.6429 38.1744 56.6429ZM38.0601 53.2143C37.3411 53.2143 36.7196 53.0357 36.1958 52.6786C35.6768 52.3214 35.2744 51.8357 34.9887 51.2214C34.7077 50.6024 34.5672 49.9071 34.5672 49.1357C34.5672 48.3595 34.7101 47.6667 34.9958 47.0571C35.2815 46.4429 35.6863 45.9595 36.2101 45.6071C36.7387 45.25 37.3649 45.0714 38.0887 45.0714C38.8172 45.0714 39.4291 45.25 39.9244 45.6071C40.4244 45.9595 40.8006 46.4429 41.053 47.0571C41.3101 47.6714 41.4387 48.3643 41.4387 49.1357C41.4387 49.9071 41.3101 50.6 41.053 51.2143C40.7958 51.8286 40.4172 52.3167 39.9172 52.6786C39.4172 53.0357 38.7982 53.2143 38.0601 53.2143ZM38.2672 51.8643C38.7577 51.8643 39.1577 51.7476 39.4672 51.5143C39.7768 51.281 40.003 50.9595 40.1458 50.55C40.2887 50.1405 40.3601 49.669 40.3601 49.1357C40.3601 48.6024 40.2863 48.131 40.1387 47.7214C39.9958 47.3119 39.772 46.9929 39.4672 46.7643C39.1672 46.5357 38.7839 46.4214 38.3172 46.4214C37.822 46.4214 37.4149 46.5429 37.0958 46.7857C36.7768 47.0286 36.5387 47.3548 36.3815 47.7643C36.2291 48.1738 36.153 48.631 36.153 49.1357C36.153 49.6452 36.2291 50.1071 36.3815 50.5214C36.5387 50.931 36.772 51.2571 37.0815 51.5C37.3958 51.7429 37.7911 51.8643 38.2672 51.8643ZM44.4015 44.0214V42.5714H45.8944V44.0214H44.4015ZM44.4015 53V45.2857H45.8944V53H44.4015ZM54.0251 53V49.2071C54.0251 48.9071 53.9989 48.6 53.9465 48.2857C53.8989 47.9667 53.8036 47.6714 53.6608 47.4C53.5227 47.1286 53.3251 46.9095 53.0679 46.7429C52.8155 46.5762 52.4846 46.4929 52.0751 46.4929C51.8084 46.4929 51.556 46.5381 51.3179 46.6286C51.0798 46.7143 50.8703 46.8548 50.6893 47.05C50.5132 47.2452 50.3727 47.5024 50.2679 47.8214C50.1679 48.1405 50.1179 48.5286 50.1179 48.9857L49.1893 48.6357C49.1893 47.9357 49.3203 47.319 49.5822 46.7857C49.8441 46.2476 50.2203 45.8286 50.7108 45.5286C51.2012 45.2286 51.7941 45.0786 52.4893 45.0786C53.0227 45.0786 53.4703 45.1643 53.8322 45.3357C54.1941 45.5071 54.487 45.7333 54.7108 46.0143C54.9393 46.2905 55.1132 46.5929 55.2322 46.9214C55.3512 47.25 55.4322 47.5714 55.4751 47.8857C55.5179 48.2 55.5393 48.4762 55.5393 48.7143V53H54.0251ZM48.6036 53V45.2857H49.9393V47.5143H50.1179V53H48.6036ZM63.3856 53V49.2071C63.3856 48.9071 63.3594 48.6 63.307 48.2857C63.2594 47.9667 63.1641 47.6714 63.0213 47.4C62.8832 47.1286 62.6856 46.9095 62.4284 46.7429C62.176 46.5762 61.8451 46.4929 61.4355 46.4929C61.1689 46.4929 60.9165 46.5381 60.6784 46.6286C60.4403 46.7143 60.2308 46.8548 60.0498 47.05C59.8736 47.2452 59.7332 47.5024 59.6284 47.8214C59.5284 48.1405 59.4784 48.5286 59.4784 48.9857L58.5498 48.6357C58.5498 47.9357 58.6808 47.319 58.9427 46.7857C59.2046 46.2476 59.5808 45.8286 60.0713 45.5286C60.5617 45.2286 61.1546 45.0786 61.8498 45.0786C62.3832 45.0786 62.8308 45.1643 63.1927 45.3357C63.5546 45.5071 63.8475 45.7333 64.0713 46.0143C64.2998 46.2905 64.4736 46.5929 64.5927 46.9214C64.7117 47.25 64.7927 47.5714 64.8356 47.8857C64.8784 48.2 64.8998 48.4762 64.8998 48.7143V53H63.3856ZM57.9641 53V45.2857H59.2998V47.5143H59.4784V53H57.9641ZM70.6555 53.2143C69.8889 53.2143 69.2151 53.0476 68.6341 52.7143C68.0579 52.3762 67.6079 51.9071 67.2841 51.3071C66.9651 50.7024 66.8055 50.0024 66.8055 49.2071C66.8055 48.3643 66.9627 47.6333 67.277 47.0143C67.596 46.3952 68.0389 45.9167 68.6055 45.5786C69.1722 45.2405 69.8317 45.0714 70.5841 45.0714C71.3698 45.0714 72.0389 45.2548 72.5912 45.6214C73.1436 45.9833 73.5555 46.5 73.827 47.1714C74.1031 47.8429 74.2127 48.6405 74.1555 49.5643H72.6627V49.0214C72.6531 48.1262 72.4817 47.4643 72.1484 47.0357C71.8198 46.6071 71.3174 46.3929 70.6412 46.3929C69.8936 46.3929 69.3317 46.6286 68.9555 47.1C68.5793 47.5714 68.3912 48.2524 68.3912 49.1429C68.3912 49.9905 68.5793 50.6476 68.9555 51.1143C69.3317 51.5762 69.8746 51.8071 70.5841 51.8071C71.0508 51.8071 71.4531 51.7024 71.7912 51.4929C72.1341 51.2786 72.4008 50.9738 72.5912 50.5786L74.0555 51.0429C73.7555 51.7333 73.3008 52.269 72.6912 52.65C72.0817 53.0262 71.4031 53.2143 70.6555 53.2143ZM67.9055 49.5643V48.4H73.4127V49.5643H67.9055ZM76.3295 53V45.2857H77.6581V47.1571L77.4724 46.9143C77.5676 46.6667 77.6914 46.4405 77.8438 46.2357C77.9962 46.0262 78.1724 45.8548 78.3724 45.7214C78.5676 45.5786 78.7843 45.469 79.0224 45.3929C79.2652 45.3119 79.5129 45.2643 79.7652 45.25C80.0176 45.231 80.2605 45.2429 80.4938 45.2857V46.6857C80.2414 46.619 79.9605 46.6 79.651 46.6286C79.3462 46.6571 79.0652 46.7548 78.8081 46.9214C78.5652 47.0786 78.3724 47.269 78.2295 47.4929C78.0914 47.7167 77.9914 47.9667 77.9295 48.2429C77.8676 48.5143 77.8367 48.8024 77.8367 49.1071V53H76.3295Z" fill="#7AFF84"/>
</g>
<path d="M16.4004 53H13.5432C13.5432 54.578 14.8224 55.8571 16.4004 55.8571V53ZM16.4004 42.7143V39.8571C14.8224 39.8571 13.5432 41.1363 13.5432 42.7143H16.4004ZM23.0861 44.15L20.5596 45.4842L20.5659 45.496L23.0861 44.15ZM23.0004 46.9357L20.6533 45.3065C20.6489 45.3128 20.6446 45.319 20.6403 45.3253L23.0004 46.9357ZM21.879 47.7643L19.0242 47.8808C19.0604 48.7688 19.5078 49.5893 20.2345 50.1008C20.9613 50.6123 21.8847 50.7564 22.7327 50.4909L21.879 47.7643ZM21.8647 47.4143L22.5482 44.6401C21.6757 44.4251 20.7529 44.6332 20.057 45.2017C19.3611 45.7702 18.9733 46.633 19.0099 47.5308L21.8647 47.4143ZM23.379 48.3643L21.0905 50.0749L21.0988 50.086L23.379 48.3643ZM23.5432 51.5786L21.0319 50.216C21.0282 50.223 21.0244 50.2299 21.0208 50.2368L23.5432 51.5786ZM22.4932 52.6286L23.8541 55.1409L23.8632 55.1359L22.4932 52.6286ZM17.9147 51.5786H15.0575C15.0575 53.1565 16.3367 54.4357 17.9147 54.4357V51.5786ZM21.5075 51.3857L20.2844 48.8036C20.2785 48.8064 20.2726 48.8092 20.2667 48.8121L21.5075 51.3857ZM22.1432 50.8357L19.7445 49.2836C19.7419 49.2876 19.7393 49.2916 19.7368 49.2956L22.1432 50.8357ZM22.1718 49.1357L19.6456 50.4703C19.6557 50.4895 19.666 50.5085 19.6765 50.5273L22.1718 49.1357ZM21.5861 48.5429L20.1436 51.0091C20.1618 51.0198 20.1801 51.0302 20.1986 51.0404L21.5861 48.5429ZM17.9147 48.3214V45.4643C16.3367 45.4643 15.0575 46.7435 15.0575 48.3214H17.9147ZM17.9147 46.9143H15.0575C15.0575 48.4922 16.3367 49.7714 17.9147 49.7714V46.9143ZM21.1647 46.75L22.4424 49.3055C22.4496 49.3019 22.4569 49.2983 22.464 49.2946L21.1647 46.75ZM21.6932 46.2643L19.2674 44.7549C19.2642 44.7599 19.2611 44.7649 19.258 44.77L21.6932 46.2643ZM21.4932 44.5071L19.51 46.5638L19.51 46.5638L21.4932 44.5071ZM17.9147 44.1214V41.2643C16.3367 41.2643 15.0575 42.5435 15.0575 44.1214H17.9147ZM19.2575 53V42.7143H13.5432V53H19.2575ZM16.4004 45.5714H20.4432V39.8571H16.4004V45.5714ZM20.4432 45.5714C20.5765 45.5714 20.6463 45.5852 20.6673 45.5903C20.6853 45.5947 20.66 45.5907 20.6122 45.5619L23.56 40.6666C22.5695 40.0702 21.4805 39.8571 20.4432 39.8571V45.5714ZM20.6122 45.5619C20.6368 45.5767 20.6318 45.5774 20.6128 45.5578C20.6039 45.5485 20.5939 45.5368 20.5839 45.5231C20.574 45.5094 20.5658 45.496 20.5596 45.4842L25.6126 42.8158C25.1268 41.8958 24.4122 41.1798 23.56 40.6666L20.6122 45.5619ZM20.5659 45.496C20.5698 45.5034 20.571 45.5066 20.5707 45.5057C20.5703 45.5048 20.5691 45.5016 20.5678 45.4964C20.5665 45.4912 20.5656 45.4862 20.5651 45.4819C20.5646 45.4778 20.5647 45.4764 20.5647 45.4786H26.279C26.279 44.5336 26.0472 43.6294 25.6063 42.804L20.5659 45.496ZM20.5647 45.4786C20.5647 45.5253 20.559 45.5182 20.5718 45.4741C20.5855 45.4266 20.6121 45.3658 20.6533 45.3065L25.3475 48.5649C26.0085 47.6126 26.279 46.5373 26.279 45.4786H20.5647ZM20.6403 45.3253C20.673 45.2775 20.7305 45.211 20.815 45.1485C20.8994 45.0862 20.9768 45.0528 21.0252 45.0377L22.7327 50.4909C23.8121 50.1529 24.7188 49.4864 25.3605 48.5461L20.6403 45.3253ZM24.7337 47.6478L24.7194 47.2978L19.0099 47.5308L19.0242 47.8808L24.7337 47.6478ZM21.1812 50.1885C21.2539 50.2064 21.2554 50.2171 21.2177 50.1935C21.1995 50.1821 21.1766 50.1654 21.1523 50.143C21.1279 50.1205 21.107 50.097 21.0905 50.0749L25.6674 46.6537C24.8609 45.5747 23.7458 44.9352 22.5482 44.6401L21.1812 50.1885ZM21.0988 50.086C21.0943 50.08 21.0864 50.0684 21.0778 50.0519C21.0691 50.0352 21.0619 50.0179 21.0567 50.0018C21.0453 49.9665 21.0504 49.96 21.0504 50H26.7647C26.7647 48.799 26.4117 47.6393 25.6591 46.6426L21.0988 50.086ZM21.0504 50C21.0504 50.1115 21.0392 50.1767 21.0325 50.2058C21.0263 50.2328 21.0232 50.2321 21.0319 50.216L26.0546 52.9411C26.5634 52.0033 26.7647 50.9915 26.7647 50H21.0504ZM21.0208 50.2368C21.0313 50.217 21.0519 50.1864 21.0819 50.1565C21.1112 50.1272 21.1305 50.1173 21.1233 50.1213L23.8632 55.1359C24.7951 54.6267 25.5552 53.8802 26.0657 52.9203L21.0208 50.2368ZM21.1324 50.1163C21.1865 50.087 21.125 50.1429 20.829 50.1429V55.8571C21.8377 55.8571 22.8857 55.6654 23.8541 55.1408L21.1324 50.1163ZM20.829 50.1429H16.4004V55.8571H20.829V50.1429ZM17.9147 54.4357H20.6004V48.7214H17.9147V54.4357ZM20.6004 54.4357C21.307 54.4357 22.0431 54.2994 22.7484 53.9593L20.2667 48.8121C20.4386 48.7292 20.57 48.7214 20.6004 48.7214V54.4357ZM22.7306 53.9678C23.4548 53.6248 24.0901 53.094 24.5497 52.3759L19.7368 49.2956C19.8075 49.1851 19.8968 49.0809 20.0007 48.9911C20.1036 48.902 20.2034 48.842 20.2844 48.8036L22.7306 53.9678ZM24.542 52.3879C25.0419 51.6154 25.2361 50.7696 25.2361 49.9714H19.5218C19.5218 49.84 19.5589 49.5703 19.7445 49.2836L24.542 52.3879ZM25.2361 49.9714C25.2361 49.2206 25.0639 48.4555 24.6671 47.7441L19.6765 50.5273C19.5559 50.3112 19.5218 50.1032 19.5218 49.9714H25.2361ZM24.6981 47.8011C24.2977 47.0432 23.6994 46.4485 22.9737 46.0453L20.1986 51.0404C20.104 50.9879 19.9968 50.9115 19.8929 50.8062C19.7884 50.7005 19.706 50.5847 19.6456 50.4703L24.6981 47.8011ZM23.0286 46.0766C22.2682 45.6318 21.4548 45.4643 20.6932 45.4643V51.1786C20.6174 51.1786 20.3993 51.1587 20.1436 51.0091L23.0286 46.0766ZM20.6932 45.4643H17.9147V51.1786H20.6932V45.4643ZM15.0575 48.3214V51.5786H20.7718V48.3214H15.0575ZM17.9147 49.7714H20.4218V44.0571H17.9147V49.7714ZM20.4218 49.7714C21.0844 49.7714 21.7785 49.6375 22.4424 49.3055L19.8869 44.1945C20.1127 44.0816 20.3116 44.0571 20.4218 44.0571V49.7714ZM22.464 49.2946C23.1449 48.9469 23.7187 48.4264 24.1285 47.7586L19.258 44.77C19.4107 44.5212 19.6321 44.3245 19.8653 44.2054L22.464 49.2946ZM24.1191 47.7737C24.5836 47.0272 24.7504 46.2246 24.7504 45.4929H19.0361C19.0361 45.3611 19.0695 45.0728 19.2674 44.7549L24.1191 47.7737ZM24.7504 45.4929C24.7504 44.3858 24.3492 43.292 23.4765 42.4504L19.51 46.5638C19.3688 46.4277 19.2361 46.2433 19.1458 46.0208C19.0573 45.8028 19.0361 45.6142 19.0361 45.4929H24.7504ZM23.4765 42.4504C22.5701 41.5764 21.4456 41.2643 20.4218 41.2643V46.9786C20.3735 46.9786 20.2395 46.9716 20.0576 46.9061C19.8665 46.8373 19.6741 46.7221 19.51 46.5638L23.4765 42.4504ZM20.4218 41.2643H17.9147V46.9786H20.4218V41.2643ZM15.0575 44.1214V46.9143H20.7718V44.1214H15.0575ZM27.3004 52.7143L25.8544 55.1785C25.8624 55.1832 25.8704 55.1879 25.8785 55.1925L27.3004 52.7143ZM25.9504 51.3071L23.4233 52.6403C23.4275 52.6483 23.4318 52.6562 23.436 52.6641L25.9504 51.3071ZM25.9432 47.0143L23.4036 45.7054C23.4009 45.7105 23.3983 45.7157 23.3956 45.7209L25.9432 47.0143ZM27.2718 45.5786L25.8079 43.125L27.2718 45.5786ZM31.2575 45.6214L29.6774 48.0019C29.6822 48.005 29.687 48.0082 29.6917 48.0113L31.2575 45.6214ZM32.4932 47.1714L29.8444 48.2423C29.8465 48.2476 29.8487 48.253 29.8509 48.2583L32.4932 47.1714ZM32.8218 49.5643V52.4214C34.3313 52.4214 35.5803 51.2473 35.6735 49.7407L32.8218 49.5643ZM31.329 49.5643H28.4718C28.4718 51.1422 29.751 52.4214 31.329 52.4214V49.5643ZM31.329 49.0214H34.1861C34.1861 49.0113 34.1861 49.0012 34.1859 48.991L31.329 49.0214ZM30.8147 47.0357L28.5472 48.7741C28.5513 48.7794 28.5553 48.7846 28.5594 48.7898L30.8147 47.0357ZM27.6218 47.1L29.8551 48.8821L29.8551 48.8821L27.6218 47.1ZM27.6218 51.1143L25.3974 52.9074C25.4004 52.9111 25.4034 52.9149 25.4064 52.9186L27.6218 51.1143ZM30.4575 51.4929L31.9626 53.9215L31.9718 53.9157L30.4575 51.4929ZM31.2575 50.5786L32.1211 47.8551C30.7659 47.4254 29.3009 48.0574 28.6837 49.3382L31.2575 50.5786ZM32.7218 51.0429L35.3423 52.1814C35.6646 51.4396 35.6574 50.596 35.3225 49.8598C34.9876 49.1236 34.3563 48.5638 33.5854 48.3193L32.7218 51.0429ZM31.3575 52.65L32.8581 55.0814C32.8627 55.0785 32.8673 55.0757 32.8718 55.0729L31.3575 52.65ZM26.5718 49.5643H23.7147C23.7147 51.1422 24.9939 52.4214 26.5718 52.4214V49.5643ZM26.5718 48.4V45.5429C24.9939 45.5429 23.7147 46.822 23.7147 48.4H26.5718ZM32.079 48.4H34.9361C34.9361 46.822 33.6569 45.5429 32.079 45.5429V48.4ZM32.079 49.5643V52.4214C33.6569 52.4214 34.9361 51.1422 34.9361 49.5643H32.079ZM29.3218 50.3571C28.9808 50.3571 28.8111 50.2871 28.7223 50.2361L25.8785 55.1925C26.9516 55.8082 28.1295 56.0714 29.3218 56.0714V50.3571ZM28.7463 50.25C28.6305 50.1821 28.5458 50.1003 28.4647 49.9502L23.436 52.6641C24.0027 53.714 24.8179 54.5703 25.8544 55.1785L28.7463 50.25ZM28.4774 49.974C28.4081 49.8425 28.329 49.6138 28.329 49.2071H22.6147C22.6147 50.391 22.8546 51.5623 23.4233 52.6403L28.4774 49.974ZM28.329 49.2071C28.329 48.7188 28.4191 48.4491 28.4909 48.3077L23.3956 45.7209C22.8388 46.8176 22.6147 48.0098 22.6147 49.2071H28.329ZM28.4829 48.3232C28.5716 48.1512 28.6534 48.0813 28.7357 48.0322L25.8079 43.125C24.7569 43.752 23.953 44.6393 23.4036 45.7054L28.4829 48.3232ZM28.7357 48.0322C28.8005 47.9935 28.9398 47.9286 29.2504 47.9286V42.2143C28.0563 42.2143 26.8765 42.4874 25.8079 43.125L28.7357 48.0322ZM29.2504 47.9286C29.5799 47.9286 29.6745 47.9999 29.6774 48.0019L32.8377 43.241C31.7358 42.5096 30.4923 42.2143 29.2504 42.2143V47.9286ZM29.6917 48.0113C29.7101 48.0233 29.7691 48.056 29.8444 48.2423L35.1421 46.1006C34.6746 44.944 33.9098 43.9433 32.8233 43.2315L29.6917 48.0113ZM29.8509 48.2583C29.9238 48.4356 30.0077 48.7807 29.9701 49.3879L35.6735 49.7407C35.7502 48.5003 35.615 47.2501 35.1356 46.0845L29.8509 48.2583ZM32.8218 46.7071H31.329V52.4214H32.8218V46.7071ZM34.1861 49.5643V49.0214H28.4718V49.5643H34.1861ZM34.1859 48.991C34.1737 47.8423 33.9653 46.4328 33.07 45.2816L28.5594 48.7898C28.4335 48.628 28.4149 48.5216 28.4274 48.5699C28.4404 48.6201 28.469 48.7688 28.472 49.0518L34.1859 48.991ZM33.0821 45.2973C32.0783 43.988 30.625 43.5357 29.3075 43.5357V49.25C29.3493 49.25 29.2473 49.257 29.0705 49.1816C28.8747 49.0981 28.6857 48.9547 28.5472 48.7741L33.0821 45.2973ZM29.3075 43.5357C27.9198 43.5357 26.4353 44.0062 25.3886 45.3179L29.8551 48.8821C29.7413 49.0246 29.5864 49.139 29.4306 49.2044C29.2919 49.2626 29.2295 49.25 29.3075 49.25V43.5357ZM25.3886 45.3179C24.4555 46.4871 24.2004 47.9021 24.2004 49.1429H29.9147C29.9147 48.8912 29.9421 48.7632 29.9526 48.725C29.9613 48.6937 29.9454 48.7689 29.8551 48.8821L25.3886 45.3179ZM24.2004 49.1429C24.2004 50.3779 24.4717 51.7591 25.3974 52.9074L29.8462 49.3212C29.9291 49.424 29.9491 49.4978 29.9454 49.4852C29.9396 49.4649 29.9147 49.3617 29.9147 49.1429H24.2004ZM25.4064 52.9186C26.4307 54.1762 27.8639 54.6643 29.2504 54.6643V48.95C29.2037 48.95 29.2833 48.9426 29.4296 49.0048C29.5897 49.0729 29.7351 49.1847 29.8372 49.31L25.4064 52.9186ZM29.2504 54.6643C30.1554 54.6643 31.0991 54.4566 31.9626 53.9215L28.9525 49.0643C29.0377 49.0115 29.119 48.9801 29.1823 48.9636C29.2428 48.9478 29.27 48.95 29.2504 48.95V54.6643ZM31.9718 53.9157C32.8114 53.391 33.4273 52.6575 33.8314 51.819L28.6837 49.3382C28.6909 49.3232 28.7149 49.2788 28.7645 49.2221C28.8151 49.1642 28.8769 49.1114 28.9433 49.07L31.9718 53.9157ZM30.394 53.3021L31.8583 53.7664L33.5854 48.3193L32.1211 47.8551L30.394 53.3021ZM30.1013 49.9043C30.0201 50.0912 29.9386 50.1676 29.8433 50.2271L32.8718 55.0729C33.9955 54.3705 34.8235 53.3754 35.3423 52.1814L30.1013 49.9043ZM29.8569 50.2186C29.7187 50.304 29.5637 50.3571 29.3218 50.3571V56.0714C30.5751 56.0714 31.7773 55.7484 32.8581 55.0814L29.8569 50.2186ZM29.429 49.5643V48.4H23.7147V49.5643H29.429ZM26.5718 51.2571H32.079V45.5429H26.5718V51.2571ZM29.2218 48.4V49.5643H34.9361V48.4H29.2218ZM32.079 46.7071H26.5718V52.4214H32.079V46.7071ZM36.9672 56.45L36.0637 59.1605L36.0737 59.1638L36.9672 56.45ZM35.9101 55.8786L37.6827 53.6378C37.6758 53.6323 37.6688 53.6269 37.6619 53.6215L35.9101 55.8786ZM35.1172 54.9571L33.8237 52.4096C33.1262 52.7637 32.6045 53.3883 32.3801 54.1377C32.1558 54.887 32.2485 55.6955 32.6365 56.3747L35.1172 54.9571ZM36.4958 54.2571L39.0439 52.9646C38.701 52.2887 38.1036 51.7766 37.3831 51.5413C36.6626 51.3059 35.8781 51.3664 35.2022 51.7096L36.4958 54.2571ZM37.2101 54.9786L35.9481 57.5419L37.2101 54.9786ZM39.2744 54.9786L38.0129 52.415C38.0021 52.4203 37.9913 52.4257 37.9805 52.4312L39.2744 54.9786ZM39.953 54.3071L37.422 52.9814C37.4165 52.992 37.411 53.0026 37.4056 53.0132L39.953 54.3071ZM40.1815 53.1929H37.3244C37.3244 53.2031 37.3244 53.2133 37.3246 53.2236L40.1815 53.1929ZM40.1815 51.0357V48.1786C38.6036 48.1786 37.3244 49.4578 37.3244 51.0357H40.1815ZM40.3601 51.0357V53.8929C41.9381 53.8929 43.2172 52.6137 43.2172 51.0357H40.3601ZM40.3601 45.2857V42.4286C38.7821 42.4286 37.503 43.7078 37.503 45.2857H40.3601ZM41.6815 45.2857H44.5387C44.5387 43.7078 43.2595 42.4286 41.6815 42.4286V45.2857ZM41.6601 53.7929L44.5088 54.012L41.6601 53.7929ZM41.5815 54.35L44.3771 54.9399C44.3782 54.9346 44.3793 54.9294 44.3804 54.9241L41.5815 54.35ZM40.953 55.6357L38.8456 53.7064C38.8406 53.7118 38.8357 53.7173 38.8307 53.7227L40.953 55.6357ZM39.7815 56.3929L38.8377 53.6961L38.8292 53.6991L39.7815 56.3929ZM36.1958 52.6786L34.5762 55.0324L34.5863 55.0392L36.1958 52.6786ZM34.9887 51.2214L32.3869 52.4022C32.3906 52.4103 32.3943 52.4183 32.398 52.4264L34.9887 51.2214ZM34.9958 47.0571L37.5829 48.2698L37.5864 48.2621L34.9958 47.0571ZM36.2101 45.6071L37.8049 47.9778L37.8097 47.9745L36.2101 45.6071ZM39.9244 45.6071L38.2532 47.9245C38.2616 47.9306 38.27 47.9366 38.2785 47.9426L39.9244 45.6071ZM41.053 47.0571L38.4102 48.1429C38.4126 48.1488 38.415 48.1546 38.4174 48.1604L41.053 47.0571ZM41.053 51.2143L43.6885 52.3175L41.053 51.2143ZM39.9172 52.6786L41.5779 55.0035C41.5828 55 41.5876 54.9966 41.5925 54.9931L39.9172 52.6786ZM40.1458 50.55L42.8435 51.4911V51.4911L40.1458 50.55ZM40.1387 47.7214L37.441 48.6625C37.4442 48.6718 37.4475 48.6811 37.4508 48.6903L40.1387 47.7214ZM39.4672 46.7643L37.7357 49.0369C37.7414 49.0413 37.7472 49.0457 37.753 49.05L39.4672 46.7643ZM37.0958 46.7857L35.3653 44.5123V44.5123L37.0958 46.7857ZM36.3815 47.7643L33.714 46.7407C33.7106 46.7498 33.7071 46.7588 33.7038 46.7679L36.3815 47.7643ZM36.3815 50.5214L33.7 51.5077C33.7046 51.5202 33.7093 51.5326 33.714 51.545L36.3815 50.5214ZM37.0815 51.5L35.3179 53.7478C35.3234 53.7522 35.329 53.7565 35.3345 53.7608L37.0815 51.5ZM38.1744 53.7857C38.0613 53.7857 37.9607 53.7691 37.8608 53.7362L36.0737 59.1638C36.7548 59.3881 37.4589 59.5 38.1744 59.5V53.7857ZM37.8708 53.7395C37.8 53.7159 37.7417 53.6844 37.6827 53.6378L34.1375 58.1194C34.7166 58.5775 35.3631 58.927 36.0637 59.1605L37.8708 53.7395ZM37.6619 53.6215C37.6519 53.6137 37.6304 53.5965 37.5979 53.5396L32.6365 56.3747C33.0231 57.0511 33.5302 57.6482 34.1583 58.1357L37.6619 53.6215ZM36.4108 57.5047L37.7894 56.8047L35.2022 51.7096L33.8237 52.4096L36.4108 57.5047ZM33.9477 55.5496C34.374 56.39 35.0448 57.0972 35.9481 57.5419L38.4721 52.4152C38.5968 52.4766 38.7208 52.5637 38.8297 52.6737C38.9372 52.7822 39.0048 52.8876 39.0439 52.9646L33.9477 55.5496ZM35.9481 57.5419C36.6477 57.8863 37.4054 58.0643 38.1887 58.0643V52.35C38.2308 52.35 38.2818 52.3549 38.3368 52.3677C38.3916 52.3806 38.4376 52.3983 38.4721 52.4152L35.9481 57.5419ZM38.1887 58.0643C38.9483 58.0643 39.7769 57.9279 40.5683 57.5259L37.9805 52.4312C38.1719 52.334 38.2767 52.35 38.1887 52.35V58.0643ZM40.5358 57.5422C41.3944 57.1197 42.0699 56.4485 42.5003 55.601L37.4056 53.0132C37.46 52.9061 37.5427 52.7845 37.6594 52.669C37.7763 52.5534 37.9006 52.4703 38.0129 52.415L40.5358 57.5422ZM42.4839 55.6329C42.9172 54.8056 43.0468 53.9366 43.0385 53.1621L37.3246 53.2236C37.3257 53.3349 37.303 53.2087 37.422 52.9814L42.4839 55.6329ZM43.0387 53.1929V51.0357H37.3244V53.1929H43.0387ZM40.1815 53.8929H40.3601V48.1786H40.1815V53.8929ZM43.2172 51.0357V45.2857H37.503V51.0357H43.2172ZM40.3601 48.1429H41.6815V42.4286H40.3601V48.1429ZM38.8244 45.2857V53.2071H44.5387V45.2857H38.8244ZM38.8244 53.2071C38.8244 53.3459 38.8195 53.4677 38.8114 53.5737L44.5088 54.012C44.5292 53.7466 44.5387 53.4779 44.5387 53.2071H38.8244ZM38.8114 53.5737C38.8064 53.6381 38.7972 53.7052 38.7827 53.7759L44.3804 54.9241C44.4421 54.6233 44.4852 54.3191 44.5088 54.012L38.8114 53.5737ZM38.7859 53.7601C38.7744 53.8147 38.7661 53.825 38.7754 53.8058C38.78 53.7964 38.7881 53.7817 38.8004 53.7634C38.8129 53.7451 38.828 53.7256 38.8456 53.7064L43.0603 57.565C43.7661 56.7941 44.1789 55.8792 44.3771 54.9399L38.7859 53.7601ZM38.8307 53.7227C38.8396 53.7129 38.8492 53.7036 38.8588 53.6955C38.8683 53.6874 38.876 53.682 38.8806 53.679C38.8851 53.6761 38.8851 53.6766 38.8789 53.6795C38.8726 53.6826 38.8594 53.6885 38.8377 53.6961L40.7254 59.0896C41.6039 58.7821 42.4159 58.2801 43.0752 57.5487L38.8307 53.7227ZM38.8292 53.6991C38.7179 53.7385 38.513 53.7857 38.1744 53.7857V59.5C39.0358 59.5 39.9023 59.3806 40.7339 59.0866L38.8292 53.6991ZM38.0601 50.3571C37.938 50.3571 37.8711 50.3422 37.8438 50.3343C37.8195 50.3273 37.811 50.3218 37.8053 50.3179L34.5863 55.0392C35.6464 55.762 36.8466 56.0714 38.0601 56.0714V50.3571ZM37.8154 50.3248C37.7484 50.2787 37.6665 50.204 37.5793 50.0165L32.398 52.4264C32.8822 53.4674 33.6051 54.3641 34.5762 55.0323L37.8154 50.3248ZM37.5904 50.0406C37.4991 49.8394 37.4244 49.5547 37.4244 49.1357H31.7101C31.7101 50.2596 31.9164 51.3653 32.3869 52.4022L37.5904 50.0406ZM37.4244 49.1357C37.4244 48.7147 37.5003 48.4459 37.5828 48.2698L32.4088 45.8445C31.9199 46.8875 31.7101 48.0044 31.7101 49.1357H37.4244ZM37.5864 48.2621C37.6693 48.084 37.7447 48.0183 37.8049 47.9778L34.6153 43.2365C33.6279 43.9008 32.8938 44.8017 32.4052 45.8522L37.5864 48.2621ZM37.8097 47.9745C37.8186 47.9686 37.8309 47.9612 37.8597 47.953C37.8914 47.9439 37.9626 47.9286 38.0887 47.9286V42.2143C36.8741 42.2143 35.6732 42.5217 34.6105 43.2397L37.8097 47.9745ZM38.0887 47.9286C38.22 47.9286 38.2818 47.9446 38.2936 47.9481C38.2996 47.9498 38.2964 47.9494 38.2866 47.9447C38.2767 47.9399 38.2649 47.933 38.2532 47.9245L41.5956 43.2897C40.5255 42.518 39.2983 42.2143 38.0887 42.2143V47.9286ZM38.2785 47.9426C38.296 47.9549 38.346 47.9867 38.4102 48.1429L43.6957 45.9713C43.2552 44.899 42.5528 43.9641 41.5703 43.2717L38.2785 47.9426ZM38.4174 48.1604C38.507 48.3744 38.5815 48.6837 38.5815 49.1357H44.2958C44.2958 48.0449 44.1132 46.9685 43.6885 45.9539L38.4174 48.1604ZM38.5815 49.1357C38.5815 49.5877 38.507 49.8971 38.4174 50.111L43.6885 52.3175C44.1132 51.3029 44.2958 50.2266 44.2958 49.1357H38.5815ZM38.4174 50.111C38.3464 50.2807 38.2832 50.3343 38.242 50.3641L41.5925 54.9931C42.5513 54.299 43.2452 53.3765 43.6885 52.3175L38.4174 50.111ZM38.2566 50.3536C38.2829 50.3348 38.2995 50.3313 38.2861 50.3351C38.2682 50.3403 38.1994 50.3571 38.0601 50.3571V56.0714C39.2712 56.0714 40.5024 55.7718 41.5779 55.0035L38.2566 50.3536ZM38.2672 54.7214C39.2117 54.7214 40.2637 54.4919 41.1871 53.7958L37.7473 49.2328C37.8888 49.1261 38.0281 49.0651 38.1351 49.0339C38.2362 49.0044 38.2883 49.0071 38.2672 49.0071V54.7214ZM41.1871 53.7958C42.0006 53.1825 42.5375 52.3685 42.8435 51.4911L37.4481 49.6089C37.455 49.5893 37.4783 49.5309 37.5324 49.4539C37.5881 49.3749 37.6613 49.2977 37.7473 49.2328L41.1871 53.7958ZM42.8435 51.4911C43.113 50.7186 43.2172 49.9186 43.2172 49.1357H37.503C37.503 49.4195 37.4644 49.5623 37.4481 49.6089L42.8435 51.4911ZM43.2172 49.1357C43.2172 48.3439 43.1082 47.5339 42.8265 46.7526L37.4508 48.6903C37.4644 48.728 37.503 48.8609 37.503 49.1357H43.2172ZM42.8364 46.7804C42.5333 45.9115 42.0012 45.0934 41.1815 44.4786L37.753 49.05C37.6589 48.9794 37.5817 48.8971 37.5247 48.8158C37.4694 48.737 37.4466 48.6787 37.441 48.6625L42.8364 46.7804ZM41.1988 44.4916C40.2928 43.8013 39.258 43.5643 38.3172 43.5643V49.2786C38.319 49.2786 38.2515 49.2789 38.1384 49.2452C38.0196 49.2098 37.8765 49.1442 37.7357 49.0369L41.1988 44.4916ZM38.3172 43.5643C37.3469 43.5643 36.2893 43.809 35.3653 44.5123L38.8263 49.0592C38.6957 49.1586 38.5638 49.2186 38.457 49.2505C38.356 49.2806 38.3015 49.2786 38.3172 49.2786V43.5643ZM35.3653 44.5123C34.5846 45.1065 34.0428 45.8838 33.714 46.7407L39.049 48.7879C39.0451 48.7982 39.0274 48.8399 38.9857 48.897C38.943 48.9555 38.8883 49.012 38.8263 49.0592L35.3653 44.5123ZM33.7038 46.7679C33.4159 47.5416 33.2958 48.3428 33.2958 49.1357H39.0101C39.0101 48.9191 39.0424 48.8061 39.0593 48.7607L33.7038 46.7679ZM33.2958 49.1357C33.2958 49.9307 33.415 50.7329 33.7 51.5077L39.063 49.5351C39.0433 49.4813 39.0101 49.3598 39.0101 49.1357H33.2958ZM33.714 51.545C34.0344 52.3799 34.5565 53.1505 35.3179 53.7478L38.8452 49.2522C38.9082 49.3016 38.96 49.3576 38.9982 49.4109C39.0163 49.4363 39.0291 49.4578 39.0374 49.4735C39.0415 49.4812 39.0444 49.4873 39.0463 49.4915C39.0482 49.4957 39.049 49.4979 39.049 49.4979L33.714 51.545ZM35.3345 53.7608C36.243 54.4628 37.2886 54.7214 38.2672 54.7214V49.0071C38.2713 49.0071 38.3409 49.0077 38.4528 49.0421C38.5699 49.0781 38.7027 49.142 38.8285 49.2392L35.3345 53.7608ZM44.4015 44.0214H41.5444C41.5444 45.5994 42.8236 46.8786 44.4015 46.8786V44.0214ZM44.4015 42.5714V39.7143C42.8236 39.7143 41.5444 40.9935 41.5444 42.5714H44.4015ZM45.8944 42.5714H48.7515C48.7515 40.9935 47.4723 39.7143 45.8944 39.7143V42.5714ZM45.8944 44.0214V46.8786C47.4723 46.8786 48.7515 45.5994 48.7515 44.0214H45.8944ZM44.4015 53H41.5444C41.5444 54.578 42.8236 55.8571 44.4015 55.8571V53ZM44.4015 45.2857V42.4286C42.8236 42.4286 41.5444 43.7078 41.5444 45.2857H44.4015ZM45.8944 45.2857H48.7515C48.7515 43.7078 47.4723 42.4286 45.8944 42.4286V45.2857ZM45.8944 53V55.8571C47.4723 55.8571 48.7515 54.578 48.7515 53H45.8944ZM47.2587 44.0214V42.5714H41.5444V44.0214H47.2587ZM44.4015 45.4286H45.8944V39.7143H44.4015V45.4286ZM43.0372 42.5714V44.0214H48.7515V42.5714H43.0372ZM45.8944 41.1643H44.4015V46.8786H45.8944V41.1643ZM47.2587 53V45.2857H41.5444V53H47.2587ZM44.4015 48.1429H45.8944V42.4286H44.4015V48.1429ZM43.0372 45.2857V53H48.7515V45.2857H43.0372ZM45.8944 50.1429H44.4015V55.8571H45.8944V50.1429ZM54.0251 53H51.1679C51.1679 54.578 52.4471 55.8571 54.0251 55.8571V53ZM53.9465 48.2857L51.1206 48.7075C51.123 48.7235 51.1256 48.7395 51.1282 48.7554L53.9465 48.2857ZM53.6608 47.4L51.1143 48.6956C51.1202 48.7073 51.1263 48.719 51.1324 48.7307L53.6608 47.4ZM53.0679 46.7429L51.4935 49.127C51.5003 49.1315 51.5071 49.136 51.5139 49.1404L53.0679 46.7429ZM51.3179 46.6286L52.2857 49.3168C52.3014 49.3111 52.3172 49.3053 52.3328 49.2994L51.3179 46.6286ZM50.6893 47.05L48.5938 45.1078C48.5852 45.1171 48.5767 45.1264 48.5682 45.1358L50.6893 47.05ZM50.2679 47.8214L47.5534 46.9301C47.5493 46.9423 47.5454 46.9546 47.5416 46.9669L50.2679 47.8214ZM50.1179 48.9857L49.1102 51.6592C49.9879 51.9901 50.972 51.869 51.7434 51.3354C52.5147 50.8018 52.9751 49.9236 52.9751 48.9857H50.1179ZM49.1893 48.6357H46.3322C46.3322 49.8249 47.0688 50.8898 48.1816 51.3092L49.1893 48.6357ZM49.5822 46.7857L52.1468 48.0451L52.1512 48.0361L49.5822 46.7857ZM50.7108 45.5286L52.2016 47.9659L52.2016 47.9659L50.7108 45.5286ZM53.8322 45.3357L55.0553 42.7536V42.7536L53.8322 45.3357ZM54.7108 46.0143L52.476 47.7945C52.4871 47.8084 52.4983 47.8222 52.5096 47.8359L54.7108 46.0143ZM55.2322 46.9214L52.5459 47.8947V47.8947L55.2322 46.9214ZM55.4751 47.8857L58.306 47.4997V47.4997L55.4751 47.8857ZM55.5393 53V55.8571C57.1173 55.8571 58.3965 54.578 58.3965 53H55.5393ZM48.6036 53H45.7465C45.7465 54.578 47.0257 55.8571 48.6036 55.8571V53ZM48.6036 45.2857V42.4286C47.0257 42.4286 45.7465 43.7078 45.7465 45.2857H48.6036ZM49.9393 45.2857H52.7965C52.7965 43.7078 51.5173 42.4286 49.9393 42.4286V45.2857ZM49.9393 47.5143H47.0822C47.0822 49.0922 48.3614 50.3714 49.9393 50.3714V47.5143ZM50.1179 47.5143H52.9751C52.9751 45.9363 51.6959 44.6571 50.1179 44.6571V47.5143ZM50.1179 53V55.8571C51.6959 55.8571 52.9751 54.578 52.9751 53H50.1179ZM56.8822 53V49.2071H51.1679V53H56.8822ZM56.8822 49.2071C56.8822 48.7404 56.8414 48.276 56.7648 47.816L51.1282 48.7554C51.1563 48.924 51.1679 49.0739 51.1679 49.2071H56.8822ZM56.7723 47.8639C56.6798 47.2439 56.4891 46.6393 56.1891 46.0693L51.1324 48.7307C51.1265 48.7194 51.1224 48.7091 51.1202 48.7021C51.118 48.6954 51.119 48.6963 51.1206 48.7075L56.7723 47.8639ZM56.2073 46.1044C55.8396 45.3818 55.2984 44.7837 54.6219 44.3453L51.5139 49.1404C51.4412 49.0933 51.3623 49.0289 51.2876 48.946C51.2128 48.8631 51.1554 48.7765 51.1143 48.6956L56.2073 46.1044ZM54.6424 44.3587C53.7843 43.792 52.8514 43.6357 52.0751 43.6357V49.35C52.1178 49.35 51.8468 49.3604 51.4935 49.127L54.6424 44.3587ZM52.0751 43.6357C51.4781 43.6357 50.8804 43.7384 50.303 43.9578L52.3328 49.2994C52.2317 49.3378 52.1387 49.35 52.0751 49.35V43.6357ZM50.3501 43.9403C49.6594 44.189 49.0689 44.5952 48.5938 45.1078L52.7849 48.9922C52.6716 49.1143 52.5002 49.2396 52.2857 49.3168L50.3501 43.9403ZM48.5682 45.1358C48.062 45.6967 47.7493 46.3334 47.5534 46.9301L52.9825 48.7128C52.996 48.6714 52.9643 48.7938 52.8105 48.9642L48.5682 45.1358ZM47.5416 46.9669C47.3296 47.643 47.2608 48.3373 47.2608 48.9857H52.9751C52.9751 48.8595 52.9821 48.7717 52.9891 48.7169C52.9963 48.6616 53.0019 48.6516 52.9943 48.676L47.5416 46.9669ZM51.1256 46.3122L50.1971 45.9622L48.1816 51.3092L49.1102 51.6592L51.1256 46.3122ZM52.0465 48.6357C52.0465 48.295 52.1088 48.1226 52.1468 48.0451L47.0176 45.5263C46.5318 46.5155 46.3322 47.5764 46.3322 48.6357H52.0465ZM52.1512 48.0361C52.1626 48.0126 52.1718 47.9977 52.1773 47.9893C52.1829 47.9811 52.1861 47.9773 52.1869 47.9765C52.1876 47.9757 52.1879 47.9754 52.1887 47.9748C52.1895 47.9741 52.1932 47.971 52.2016 47.9659L49.22 43.0912C48.2445 43.6878 47.5036 44.5279 47.0132 45.5353L52.1512 48.0361ZM52.2016 47.9659C52.1866 47.9751 52.1885 47.9699 52.2241 47.9609C52.2627 47.9512 52.3464 47.9357 52.4893 47.9357V42.2214C51.3785 42.2214 50.245 42.4643 49.22 43.0912L52.2016 47.9659ZM52.4893 47.9357C52.6053 47.9357 52.6679 47.9452 52.6877 47.949C52.7064 47.9526 52.674 47.9485 52.6091 47.9178L55.0553 42.7536C54.2063 42.3514 53.3119 42.2214 52.4893 42.2214V47.9357ZM52.6091 47.9178C52.6196 47.9228 52.6055 47.9173 52.5768 47.8951C52.5473 47.8723 52.5112 47.8387 52.476 47.7945L56.9455 44.2341C56.4202 43.5747 55.7655 43.09 55.0553 42.7536L52.6091 47.9178ZM52.5096 47.8359C52.5345 47.8659 52.5416 47.8827 52.5459 47.8947L57.9185 45.9481C57.6847 45.303 57.3442 44.715 56.9119 44.1927L52.5096 47.8359ZM52.5459 47.8947C52.603 48.0522 52.6312 48.1769 52.6441 48.2718L58.306 47.4997C58.2332 46.966 58.0995 46.4478 57.9185 45.9481L52.5459 47.8947ZM52.6441 48.2717C52.6749 48.4973 52.6822 48.6396 52.6822 48.7143H58.3965C58.3965 48.3128 58.361 47.9027 58.306 47.4997L52.6441 48.2717ZM52.6822 48.7143V53H58.3965V48.7143H52.6822ZM55.5393 50.1429H54.0251V55.8571H55.5393V50.1429ZM51.4608 53V45.2857H45.7465V53H51.4608ZM48.6036 48.1429H49.9393V42.4286H48.6036V48.1429ZM47.0822 45.2857V47.5143H52.7965V45.2857H47.0822ZM49.9393 50.3714H50.1179V44.6571H49.9393V50.3714ZM47.2608 47.5143V53H52.9751V47.5143H47.2608ZM50.1179 50.1429H48.6036V55.8571H50.1179V50.1429ZM63.3856 53H60.5284C60.5284 54.578 61.8076 55.8571 63.3856 55.8571V53ZM63.307 48.2857L60.4811 48.7075C60.4835 48.7235 60.486 48.7395 60.4887 48.7554L63.307 48.2857ZM63.0213 47.4L60.4748 48.6956C60.4807 48.7073 60.4868 48.719 60.4929 48.7307L63.0213 47.4ZM62.4284 46.7429L60.8539 49.127C60.8608 49.1315 60.8676 49.136 60.8744 49.1404L62.4284 46.7429ZM60.6784 46.6286L61.6462 49.3168C61.6619 49.3111 61.6777 49.3053 61.6933 49.2994L60.6784 46.6286ZM60.0498 47.05L57.9543 45.1078C57.9457 45.1171 57.9372 45.1264 57.9287 45.1358L60.0498 47.05ZM59.6284 47.8214L56.9139 46.9301C56.9098 46.9423 56.9059 46.9546 56.902 46.9669L59.6284 47.8214ZM59.4784 48.9857L58.4707 51.6592C59.3484 51.9901 60.3325 51.869 61.1038 51.3354C61.8752 50.8018 62.3355 49.9236 62.3355 48.9857H59.4784ZM58.5498 48.6357H55.6927C55.6927 49.8249 56.4293 50.8898 57.5421 51.3092L58.5498 48.6357ZM58.9427 46.7857L61.5073 48.0451L61.5117 48.0361L58.9427 46.7857ZM60.0713 45.5286L61.5621 47.9659L61.5621 47.9659L60.0713 45.5286ZM63.1927 45.3357L64.4158 42.7536V42.7536L63.1927 45.3357ZM64.0713 46.0143L61.8365 47.7945C61.8476 47.8084 61.8588 47.8222 61.8701 47.8359L64.0713 46.0143ZM64.5927 46.9214L61.9064 47.8947V47.8947L64.5927 46.9214ZM64.8356 47.8857L67.6665 47.4997V47.4997L64.8356 47.8857ZM64.8998 53V55.8571C66.4778 55.8571 67.757 54.578 67.757 53H64.8998ZM57.9641 53H55.107C55.107 54.578 56.3862 55.8571 57.9641 55.8571V53ZM57.9641 45.2857V42.4286C56.3862 42.4286 55.107 43.7078 55.107 45.2857H57.9641ZM59.2998 45.2857H62.157C62.157 43.7078 60.8778 42.4286 59.2998 42.4286V45.2857ZM59.2998 47.5143H56.4427C56.4427 49.0922 57.7219 50.3714 59.2998 50.3714V47.5143ZM59.4784 47.5143H62.3355C62.3355 45.9363 61.0564 44.6571 59.4784 44.6571V47.5143ZM59.4784 53V55.8571C61.0564 55.8571 62.3355 54.578 62.3355 53H59.4784ZM66.2427 53V49.2071H60.5284V53H66.2427ZM66.2427 49.2071C66.2427 48.7404 66.2019 48.276 66.1252 47.816L60.4887 48.7554C60.5168 48.924 60.5284 49.0739 60.5284 49.2071H66.2427ZM66.1328 47.8639C66.0403 47.2439 65.8496 46.6393 65.5496 46.0693L60.4929 48.7307C60.487 48.7194 60.4829 48.7091 60.4807 48.7021C60.4785 48.6954 60.4795 48.6963 60.4811 48.7075L66.1328 47.8639ZM65.5678 46.1044C65.2001 45.3818 64.6588 44.7837 63.9824 44.3453L60.8744 49.1404C60.8017 49.0933 60.7228 49.0289 60.6481 48.946C60.5732 48.8631 60.5159 48.7765 60.4748 48.6956L65.5678 46.1044ZM64.0029 44.3587C63.1448 43.792 62.2119 43.6357 61.4356 43.6357V49.35C61.4783 49.35 61.2073 49.3604 60.8539 49.127L64.0029 44.3587ZM61.4356 43.6357C60.8386 43.6357 60.2409 43.7384 59.6635 43.9578L61.6933 49.2994C61.5921 49.3378 61.4992 49.35 61.4356 49.35V43.6357ZM59.7106 43.9403C59.0199 44.189 58.4294 44.5952 57.9543 45.1078L62.1454 48.9922C62.0321 49.1143 61.8607 49.2396 61.6462 49.3168L59.7106 43.9403ZM57.9287 45.1358C57.4225 45.6967 57.1098 46.3334 56.9139 46.9301L62.343 48.7128C62.3565 48.6714 62.3247 48.7938 62.171 48.9642L57.9287 45.1358ZM56.902 46.9669C56.6901 47.643 56.6213 48.3373 56.6213 48.9857H62.3355C62.3355 48.8595 62.3426 48.7717 62.3496 48.7169C62.3568 48.6616 62.3624 48.6516 62.3548 48.676L56.902 46.9669ZM60.4861 46.3122L59.5576 45.9622L57.5421 51.3092L58.4707 51.6592L60.4861 46.3122ZM61.407 48.6357C61.407 48.295 61.4693 48.1226 61.5073 48.0451L56.3781 45.5263C55.8923 46.5155 55.6927 47.5764 55.6927 48.6357H61.407ZM61.5117 48.0361C61.5231 48.0126 61.5322 47.9977 61.5378 47.9893C61.5433 47.9811 61.5466 47.9773 61.5474 47.9765C61.5481 47.9757 61.5484 47.9754 61.5492 47.9748C61.55 47.9741 61.5537 47.971 61.5621 47.9659L58.5805 43.0912C57.605 43.6878 56.864 44.5279 56.3737 45.5353L61.5117 48.0361ZM61.5621 47.9659C61.5471 47.9751 61.549 47.9699 61.5846 47.9609C61.6232 47.9512 61.7069 47.9357 61.8498 47.9357V42.2214C60.739 42.2214 59.6055 42.4643 58.5804 43.0912L61.5621 47.9659ZM61.8498 47.9357C61.9658 47.9357 62.0284 47.9452 62.0482 47.949C62.0669 47.9526 62.0344 47.9485 61.9696 47.9178L64.4158 42.7536C63.5667 42.3514 62.6724 42.2214 61.8498 42.2214V47.9357ZM61.9696 47.9178C61.9801 47.9228 61.966 47.9173 61.9373 47.8951C61.9077 47.8723 61.8717 47.8387 61.8365 47.7945L66.306 44.2341C65.7807 43.5747 65.126 43.09 64.4158 42.7536L61.9696 47.9178ZM61.8701 47.8359C61.895 47.8659 61.9021 47.8827 61.9064 47.8947L67.279 45.9481C67.0452 45.303 66.7047 44.715 66.2724 44.1927L61.8701 47.8359ZM61.9064 47.8947C61.9635 48.0522 61.9917 48.1769 62.0046 48.2718L67.6665 47.4997C67.5937 46.966 67.46 46.4478 67.279 45.9481L61.9064 47.8947ZM62.0046 48.2717C62.0354 48.4973 62.0427 48.6396 62.0427 48.7143H67.757C67.757 48.3128 67.7215 47.9027 67.6665 47.4997L62.0046 48.2717ZM62.0427 48.7143V53H67.757V48.7143H62.0427ZM64.8998 50.1429H63.3856V55.8571H64.8998V50.1429ZM60.8213 53V45.2857H55.107V53H60.8213ZM57.9641 48.1429H59.2998V42.4286H57.9641V48.1429ZM56.4427 45.2857V47.5143H62.157V45.2857H56.4427ZM59.2998 50.3714H59.4784V44.6571H59.2998V50.3714ZM56.6213 47.5143V53H62.3355V47.5143H56.6213ZM59.4784 50.1429H57.9641V55.8571H59.4784V50.1429ZM68.6341 52.7143L67.1881 55.1785C67.1961 55.1832 67.2042 55.1879 67.2122 55.1925L68.6341 52.7143ZM67.2841 51.3071L64.7571 52.6403C64.7613 52.6483 64.7655 52.6562 64.7698 52.6641L67.2841 51.3071ZM67.277 47.0143L64.7373 45.7054C64.7346 45.7105 64.732 45.7157 64.7293 45.7209L67.277 47.0143ZM68.6055 45.5786L67.1416 43.125L68.6055 45.5786ZM72.5912 45.6214L71.0111 48.0019C71.0159 48.005 71.0207 48.0082 71.0255 48.0113L72.5912 45.6214ZM73.827 47.1714L71.1781 48.2423C71.1802 48.2476 71.1824 48.253 71.1846 48.2583L73.827 47.1714ZM74.1555 49.5643V52.4214C75.665 52.4214 76.914 51.2473 77.0072 49.7407L74.1555 49.5643ZM72.6627 49.5643H69.8055C69.8055 51.1422 71.0847 52.4214 72.6627 52.4214V49.5643ZM72.6627 49.0214H75.5198C75.5198 49.0113 75.5198 49.0012 75.5197 48.991L72.6627 49.0214ZM72.1484 47.0357L69.8809 48.7741C69.885 48.7794 69.889 48.7846 69.8931 48.7898L72.1484 47.0357ZM68.9555 47.1L71.1888 48.8821V48.8821L68.9555 47.1ZM68.9555 51.1143L66.7311 52.9074C66.7341 52.9111 66.7371 52.9149 66.7402 52.9186L68.9555 51.1143ZM71.7912 51.4929L73.2963 53.9215L73.3055 53.9157L71.7912 51.4929ZM72.5912 50.5786L73.4548 47.8551C72.0996 47.4254 70.6346 48.0574 70.0174 49.3382L72.5912 50.5786ZM74.0555 51.0429L76.676 52.1814C76.9983 51.4396 76.9911 50.596 76.6562 49.8598C76.3213 49.1236 75.6901 48.5638 74.9191 48.3193L74.0555 51.0429ZM72.6912 52.65L74.1918 55.0814C74.1964 55.0785 74.201 55.0757 74.2055 55.0729L72.6912 52.65ZM67.9055 49.5643H65.0484C65.0484 51.1422 66.3276 52.4214 67.9055 52.4214V49.5643ZM67.9055 48.4V45.5429C66.3276 45.5429 65.0484 46.822 65.0484 48.4H67.9055ZM73.4127 48.4H76.2698C76.2698 46.822 74.9906 45.5429 73.4127 45.5429V48.4ZM73.4127 49.5643V52.4214C74.9906 52.4214 76.2698 51.1422 76.2698 49.5643H73.4127ZM70.6555 50.3571C70.3146 50.3571 70.1448 50.2871 70.056 50.2361L67.2122 55.1925C68.2853 55.8082 69.4632 56.0714 70.6555 56.0714V50.3571ZM70.0801 50.25C69.9642 50.1821 69.8795 50.1003 69.7985 49.9502L64.7698 52.6641C65.3364 53.714 66.1516 54.5703 67.1881 55.1785L70.0801 50.25ZM69.8111 49.974C69.7418 49.8425 69.6627 49.6138 69.6627 49.2071H63.9484C63.9484 50.391 64.1883 51.5623 64.7571 52.6403L69.8111 49.974ZM69.6627 49.2071C69.6627 48.7188 69.7528 48.4491 69.8246 48.3077L64.7293 45.7209C64.1725 46.8176 63.9484 48.0098 63.9484 49.2071H69.6627ZM69.8166 48.3232C69.9053 48.1512 69.9872 48.0813 70.0694 48.0322L67.1416 43.125C66.0906 43.752 65.2867 44.6393 64.7373 45.7054L69.8166 48.3232ZM70.0694 48.0322C70.1342 47.9935 70.2735 47.9286 70.5841 47.9286V42.2143C69.39 42.2143 68.2102 42.4874 67.1416 43.125L70.0694 48.0322ZM70.5841 47.9286C70.9136 47.9286 71.0082 47.9999 71.0111 48.0019L74.1714 43.241C73.0695 42.5096 71.826 42.2143 70.5841 42.2143V47.9286ZM71.0255 48.0113C71.0438 48.0233 71.1028 48.056 71.1781 48.2423L76.4758 46.1006C76.0083 44.944 75.2435 43.9433 74.157 43.2315L71.0255 48.0113ZM71.1846 48.2583C71.2575 48.4356 71.3414 48.7807 71.3038 49.3879L77.0072 49.7407C77.084 48.5003 76.9487 47.2501 76.4693 46.0845L71.1846 48.2583ZM74.1555 46.7071H72.6627V52.4214H74.1555V46.7071ZM75.5198 49.5643V49.0214H69.8055V49.5643H75.5198ZM75.5197 48.991C75.5074 47.8423 75.299 46.4328 74.4037 45.2816L69.8931 48.7898C69.7672 48.628 69.7486 48.5216 69.7611 48.5699C69.7741 48.6201 69.8027 48.7688 69.8057 49.0518L75.5197 48.991ZM74.4158 45.2973C73.412 43.988 71.9587 43.5357 70.6412 43.5357V49.25C70.6831 49.25 70.581 49.257 70.4042 49.1816C70.2084 49.0981 70.0194 48.9547 69.8809 48.7741L74.4158 45.2973ZM70.6412 43.5357C69.2535 43.5357 67.769 44.0062 66.7223 45.3179L71.1888 48.8821C71.075 49.0246 70.9201 49.139 70.7643 49.2044C70.6256 49.2626 70.5632 49.25 70.6412 49.25V43.5357ZM66.7223 45.3179C65.7893 46.4871 65.5341 47.9021 65.5341 49.1429H71.2484C71.2484 48.8912 71.2758 48.7632 71.2863 48.725C71.295 48.6937 71.2791 48.7689 71.1888 48.8821L66.7223 45.3179ZM65.5341 49.1429C65.5341 50.3779 65.8054 51.7591 66.7311 52.9074L71.1799 49.3212C71.2629 49.424 71.2828 49.4978 71.2792 49.4852C71.2733 49.4649 71.2484 49.3617 71.2484 49.1429H65.5341ZM66.7402 52.9186C67.7644 54.1762 69.1976 54.6643 70.5841 54.6643V48.95C70.5374 48.95 70.617 48.9426 70.7633 49.0048C70.9234 49.0729 71.0688 49.1847 71.1709 49.31L66.7402 52.9186ZM70.5841 54.6643C71.4891 54.6643 72.4328 54.4566 73.2963 53.9215L70.2862 49.0643C70.3714 49.0115 70.4527 48.9801 70.516 48.9636C70.5765 48.9478 70.6037 48.95 70.5841 48.95V54.6643ZM73.3055 53.9157C74.1451 53.391 74.761 52.6575 75.1651 51.819L70.0174 49.3382C70.0246 49.3232 70.0486 49.2788 70.0982 49.2221C70.1488 49.1642 70.2107 49.1114 70.277 49.07L73.3055 53.9157ZM71.7277 53.3021L73.192 53.7664L74.9191 48.3193L73.4548 47.8551L71.7277 53.3021ZM71.435 49.9043C71.3538 50.0912 71.2723 50.1676 71.177 50.2271L74.2055 55.0729C75.3292 54.3705 76.1572 53.3754 76.676 52.1814L71.435 49.9043ZM71.1906 50.2186C71.0524 50.304 70.8975 50.3571 70.6555 50.3571V56.0714C71.9088 56.0714 73.111 55.7484 74.1918 55.0814L71.1906 50.2186ZM70.7627 49.5643V48.4H65.0484V49.5643H70.7627ZM67.9055 51.2571H73.4127V45.5429H67.9055V51.2571ZM70.5555 48.4V49.5643H76.2698V48.4H70.5555ZM73.4127 46.7071H67.9055V52.4214H73.4127V46.7071ZM76.3295 53H73.4724C73.4724 54.578 74.7516 55.8571 76.3295 55.8571V53ZM76.3295 45.2857V42.4286C74.7516 42.4286 73.4724 43.7078 73.4724 45.2857H76.3295ZM77.6581 45.2857H80.5152C80.5152 43.7078 79.2361 42.4286 77.6581 42.4286V45.2857ZM77.6581 47.1571L75.3885 48.8927C76.1326 49.8657 77.4141 50.2562 78.5743 49.8634C79.7345 49.4706 80.5152 48.382 80.5152 47.1571H77.6581ZM77.4724 46.9143L74.8057 45.8886C74.4492 46.8155 74.5995 47.861 75.2028 48.6499L77.4724 46.9143ZM77.8438 46.2357L80.1359 47.9415C80.1421 47.9331 80.1483 47.9247 80.1545 47.9162L77.8438 46.2357ZM78.3724 45.7214L79.9572 48.0987C79.9919 48.0756 80.026 48.0518 80.0596 48.0272L78.3724 45.7214ZM79.0224 45.3929L79.8932 48.1141C79.9041 48.1106 79.915 48.107 79.9259 48.1034L79.0224 45.3929ZM79.7652 45.25L79.9267 48.1026C79.9446 48.1016 79.9624 48.1004 79.9803 48.099L79.7652 45.25ZM80.4938 45.2857H83.351C83.351 43.9068 82.3662 42.7247 81.01 42.4756L80.4938 45.2857ZM80.4938 46.6857L79.7641 49.4481C80.6212 49.6745 81.5348 49.4902 82.2371 48.9493C82.9395 48.4085 83.351 47.5722 83.351 46.6857H80.4938ZM79.651 46.6286L79.3883 43.7835L79.3843 43.7839L79.651 46.6286ZM78.8081 46.9214L80.3602 49.3202L80.3621 49.319L78.8081 46.9214ZM78.2295 47.4929L75.8212 45.9556C75.8134 45.9679 75.8056 45.9802 75.798 45.9925L78.2295 47.4929ZM77.9295 48.2429L80.7152 48.8782L80.7175 48.8677L77.9295 48.2429ZM77.8367 53V55.8571C79.4146 55.8571 80.6938 54.578 80.6938 53H77.8367ZM79.1867 53V45.2857H73.4724V53H79.1867ZM76.3295 48.1429H77.6581V42.4286H76.3295V48.1429ZM74.801 45.2857V47.1571H80.5152V45.2857H74.801ZM79.9277 45.4216L79.742 45.1787L75.2028 48.6499L75.3885 48.8927L79.9277 45.4216ZM80.1391 47.9399C80.1423 47.9316 80.1439 47.929 80.1429 47.9308C80.1419 47.9326 80.1396 47.9366 80.1359 47.9415L75.5517 44.53C75.2381 44.9514 74.9906 45.4079 74.8057 45.8886L80.1391 47.9399ZM80.1545 47.9162C80.1236 47.9587 80.0597 48.0304 79.9572 48.0987L76.7875 43.3441C76.2851 43.6791 75.8688 44.0937 75.5331 44.5552L80.1545 47.9162ZM80.0596 48.0272C79.9986 48.0719 79.9379 48.0998 79.8932 48.1141L78.1516 42.6716C77.6307 42.8383 77.1367 43.0853 76.6852 43.4156L80.0596 48.0272ZM79.9259 48.1034C79.93 48.102 79.9311 48.1019 79.9298 48.1022C79.9285 48.1024 79.9271 48.1026 79.9267 48.1026L79.6038 42.3974C79.0956 42.4262 78.5986 42.5224 78.1189 42.6823L79.9259 48.1034ZM79.9803 48.099C79.9932 48.0981 79.9984 48.0984 79.9968 48.0984C79.9951 48.0983 79.9884 48.0978 79.9777 48.0958L81.01 42.4756C80.52 42.3856 80.0307 42.3647 79.5502 42.401L79.9803 48.099ZM77.6367 45.2857V46.6857H83.351V45.2857H77.6367ZM81.2235 43.9233C80.5926 43.7567 79.969 43.7299 79.3883 43.7835L79.9136 49.4736C79.952 49.4701 79.8903 49.4814 79.7641 49.4481L81.2235 43.9233ZM79.3843 43.7839C78.6201 43.8555 77.8976 44.1068 77.2541 44.5238L80.3621 49.319C80.3039 49.3567 80.2322 49.3933 80.1494 49.4221C80.0666 49.4509 79.9873 49.4667 79.9176 49.4732L79.3843 43.7839ZM77.256 44.5227C76.7004 44.8821 76.2035 45.3566 75.8212 45.9556L80.6379 49.0301C80.5413 49.1815 80.4301 49.275 80.3602 49.3202L77.256 44.5227ZM75.798 45.9925C75.481 46.5062 75.2675 47.0559 75.1416 47.618L80.7175 48.8677C80.7153 48.8775 80.7018 48.9271 80.6611 48.9932L75.798 45.9925ZM75.1439 47.6075C75.0302 48.106 74.9795 48.6086 74.9795 49.1071H80.6938C80.6938 48.9962 80.705 48.9226 80.7151 48.8782L75.1439 47.6075ZM74.9795 49.1071V53H80.6938V49.1071H74.9795ZM77.8367 50.1429H76.3295V55.8571H77.8367V50.1429Z" fill="#4CAF50" mask="url(#path-9-outside-1_1117_12179)"/>
<defs>
<filter id="filter0_ii_1117_12179" x="10.6861" y="36.8571" width="75.5223" height="25.5" filterUnits="userSpaceOnUse" color-interpolation-filters="sRGB">
<feFlood flood-opacity="0" result="BackgroundImageFix"/>
<feBlend mode="normal" in="SourceGraphic" in2="BackgroundImageFix" result="shape"/>
<feColorMatrix in="SourceAlpha" type="matrix" values="0 0 0 0 0 0 0 0 0 0 0 0 0 0 0 0 0 0 127 0" result="hardAlpha"/>
<feOffset dx="5.71429" dy="5.71429"/>
<feGaussianBlur stdDeviation="2.85714"/>
<feComposite in2="hardAlpha" operator="arithmetic" k2="-1" k3="1"/>
<feColorMatrix type="matrix" values="0 0 0 0 0 0 0 0 0 0 0 0 0 0 0 0 0 0 0.25 0"/>
<feBlend mode="normal" in2="shape" result="effect1_innerShadow_1117_12179"/>
<feColorMatrix in="SourceAlpha" type="matrix" values="0 0 0 0 0 0 0 0 0 0 0 0 0 0 0 0 0 0 127 0" result="hardAlpha"/>
<feOffset dx="-5.71429" dy="-5.71429"/>
<feGaussianBlur stdDeviation="5.71429"/>
<feComposite in2="hardAlpha" operator="arithmetic" k2="-1" k3="1"/>
<feColorMatrix type="matrix" values="0 0 0 0 0.983333 0 0 0 0 0.954653 0 0 0 0 0.954653 0 0 0 0.25 0"/>
<feBlend mode="normal" in2="effect1_innerShadow_1117_12179" result="effect2_innerShadow_1117_12179"/>
</filter>
</defs>
</svg>
