<svg width="24" height="24" viewBox="0 0 24 24" fill="none" xmlns="http://www.w3.org/2000/svg">
<path fill-rule="evenodd" clip-rule="evenodd" d="M15.4183 5.6435C15.2804 5.42314 15.0772 5.25125 14.837 5.15178C14.5968 5.0523 14.3316 5.03018 14.0783 5.0885L12.2803 5.5015C12.096 5.54385 11.9046 5.54385 11.7203 5.5015L9.9223 5.0885C9.66896 5.03018 9.40375 5.0523 9.16357 5.15178C8.9234 5.25125 8.72021 5.42314 8.5823 5.6435L7.6023 7.2075C7.5023 7.3675 7.3673 7.5025 7.2073 7.6035L5.6433 8.5835C5.42331 8.72129 5.25169 8.92415 5.15223 9.16391C5.05278 9.40368 5.03043 9.66846 5.0883 9.9215L5.5013 11.7215C5.5435 11.9054 5.5435 12.0966 5.5013 12.2805L5.0883 14.0795C5.03021 14.3327 5.05244 14.5977 5.1519 14.8377C5.25137 15.0776 5.42312 15.2806 5.6433 15.4185L7.2073 16.3985C7.3673 16.4985 7.5023 16.6335 7.6033 16.7935L8.5833 18.3575C8.8653 18.8085 9.4033 19.0315 9.9223 18.9125L11.7203 18.4995C11.9046 18.4571 12.096 18.4571 12.2803 18.4995L14.0793 18.9125C14.3325 18.9706 14.5975 18.9484 14.8375 18.8489C15.0774 18.7494 15.2804 18.5777 15.4183 18.3575L16.3983 16.7935C16.4983 16.6335 16.6333 16.4985 16.7933 16.3985L18.3583 15.4185C18.5785 15.2804 18.7502 15.0772 18.8494 14.837C18.9487 14.5969 18.9707 14.3317 18.9123 14.0785L18.5003 12.2805C18.4579 12.0962 18.4579 11.9048 18.5003 11.7205L18.9133 9.9215C18.9715 9.66841 18.9494 9.40349 18.8501 9.16353C18.7508 8.92357 18.5793 8.72049 18.3593 8.5825L16.7943 7.6025C16.6345 7.50231 16.4995 7.36728 16.3993 7.2075L15.4183 5.6435ZM14.9153 9.7705C14.9771 9.65676 14.9925 9.52347 14.958 9.39867C14.9236 9.27387 14.8421 9.16728 14.7307 9.10134C14.6193 9.0354 14.4867 9.01525 14.3607 9.04512C14.2347 9.07499 14.1252 9.15255 14.0553 9.2615L11.4403 13.6875L9.8613 12.1755C9.81445 12.1274 9.7584 12.0892 9.69649 12.0633C9.63457 12.0373 9.56806 12.0241 9.50092 12.0244C9.43378 12.0246 9.36739 12.0385 9.3057 12.065C9.24402 12.0915 9.1883 12.1301 9.14188 12.1786C9.09546 12.2271 9.05928 12.2845 9.0355 12.3473C9.01173 12.4101 9.00084 12.477 9.00349 12.5441C9.00614 12.6112 9.02228 12.6771 9.05094 12.7378C9.0796 12.7985 9.12019 12.8528 9.1703 12.8975L11.2043 14.8465C11.2587 14.8986 11.3242 14.9376 11.3959 14.9608C11.4676 14.984 11.5435 14.9907 11.6181 14.9804C11.6928 14.9701 11.7641 14.9431 11.8268 14.9014C11.8895 14.8597 11.942 14.8043 11.9803 14.7395L14.9153 9.7705Z" fill="#6E6E71"/>
</svg>
