<svg width="16" height="16" viewBox="0 0 16 16" fill="none" xmlns="http://www.w3.org/2000/svg">
<path d="M8 4L8 13.3333" stroke="#9E9EA2" stroke-width="1.5" stroke-linecap="round"/>
<path d="M3.9872 2.19029C6.21466 2.6144 7.54224 3.50154 8.00016 4.01086C8.45809 3.50154 9.78566 2.6144 12.0131 2.19029C13.1416 1.97544 13.7058 1.86801 14.1863 2.27976C14.6668 2.69152 14.6668 3.36015 14.6668 4.69741V9.50331C14.6668 10.726 14.6668 11.3374 14.3584 11.7191C14.05 12.1008 13.3711 12.2301 12.0131 12.4886C10.8026 12.7191 9.85787 13.0864 9.17404 13.4554C8.50124 13.8185 8.16483 14 8.00016 14C7.8355 14 7.49908 13.8185 6.82628 13.4554C6.14246 13.0864 5.19772 12.7191 3.9872 12.4886C2.62926 12.2301 1.95029 12.1008 1.64189 11.7191C1.3335 11.3374 1.3335 10.726 1.3335 9.50331V4.69741C1.3335 3.36015 1.3335 2.69152 1.81402 2.27976C2.29454 1.86801 2.85876 1.97544 3.9872 2.19029Z" stroke="#9E9EA2" stroke-width="1.5" stroke-linecap="round" stroke-linejoin="round"/>
</svg>
