<svg width="86" height="86" viewBox="0 0 86 86" fill="none" xmlns="http://www.w3.org/2000/svg">
<path d="M83 43C83 65.0914 65.0914 83 43 83C20.9086 83 3 65.0914 3 43C3 20.9086 20.9086 3 43 3C65.0914 3 83 20.9086 83 43Z" fill="#DCA16A"/>
<path fill-rule="evenodd" clip-rule="evenodd" d="M85.9625 43C85.9625 66.7277 66.7274 85.9629 42.9996 85.9629C19.2718 85.9629 0.0366211 66.7277 0.0366211 43C0.0366211 19.2722 19.2718 0.0369873 42.9996 0.0369873C66.7274 0.0369873 85.9625 19.2722 85.9625 43ZM42.9996 82.9999C65.091 82.9999 82.9996 65.0913 82.9996 43C82.9996 20.9086 65.091 2.99995 42.9996 2.99995C20.9082 2.99995 2.99958 20.9086 2.99958 43C2.99958 65.0913 20.9082 82.9999 42.9996 82.9999Z" fill="#C38144"/>
<path fill-rule="evenodd" clip-rule="evenodd" d="M5.96293 44.4815C5.14473 44.4815 4.48145 43.8182 4.48145 43C4.48145 21.7268 21.7268 4.4815 43 4.48151C43.8182 4.48151 44.4814 5.14479 44.4814 5.96299C44.4814 6.78119 43.8182 7.44447 43 7.44447C23.3632 7.44447 7.44441 23.3632 7.44441 43C7.44441 43.8182 6.78113 44.4815 5.96293 44.4815Z" fill="#F0B57F"/>
<path fill-rule="evenodd" clip-rule="evenodd" d="M80.0371 41.5185C80.8553 41.5185 81.5186 42.1818 81.5186 43C81.5186 64.2732 64.2732 81.5185 43 81.5185C42.1818 81.5185 41.5186 80.8552 41.5186 80.037C41.5186 79.2188 42.1818 78.5555 43 78.5555C62.6368 78.5555 78.5556 62.6368 78.5556 43C78.5556 42.1818 79.2189 41.5185 80.0371 41.5185Z" fill="#CF945D"/>
<path d="M72.6299 43.0001C72.6299 59.364 59.3642 72.6297 43.0002 72.6297C26.6362 72.6297 13.3706 59.364 13.3706 43.0001C13.3706 26.6361 26.6362 13.3704 43.0002 13.3704C59.3642 13.3704 72.6299 26.6361 72.6299 43.0001Z" fill="#F7BA82"/>
<path fill-rule="evenodd" clip-rule="evenodd" d="M75.5924 43C75.5924 61.0004 61.0002 75.5926 42.9998 75.5926C24.9994 75.5926 10.4072 61.0004 10.4072 43C10.4072 24.9996 24.9994 10.4074 42.9998 10.4074C61.0002 10.4074 75.5924 24.9996 75.5924 43ZM42.9998 72.6296C59.3638 72.6296 72.6295 59.364 72.6295 43C72.6295 26.636 59.3638 13.3704 42.9998 13.3704C26.6358 13.3704 13.3702 26.636 13.3702 43C13.3702 59.364 26.6358 72.6296 42.9998 72.6296Z" fill="#C38144"/>
<path fill-rule="evenodd" clip-rule="evenodd" d="M42.9998 68.1852C56.9092 68.1852 68.185 56.9094 68.185 43C68.185 42.1818 68.8483 41.5186 69.6665 41.5186C70.4847 41.5186 71.148 42.1818 71.148 43C71.148 58.5458 58.5456 71.1482 42.9998 71.1482C42.1816 71.1482 41.5183 70.4849 41.5183 69.6667C41.5183 68.8485 42.1816 68.1852 42.9998 68.1852Z" fill="#E6A66C"/>
<path fill-rule="evenodd" clip-rule="evenodd" d="M43.0002 17.8148C29.0908 17.8148 17.815 29.0906 17.815 43C17.815 43.8182 17.1517 44.4815 16.3335 44.4815C15.5153 44.4815 14.8521 43.8182 14.8521 43C14.8521 27.4542 27.4544 14.8519 43.0002 14.8519C43.8184 14.8519 44.4817 15.5151 44.4817 16.3333C44.4817 17.1515 43.8184 17.8148 43.0002 17.8148Z" fill="#FFD5AE"/>
<mask id="path-9-outside-1_108_19603" maskUnits="userSpaceOnUse" x="16" y="34" width="55" height="18" fill="black">
<rect fill="white" x="16" y="34" width="55" height="18"/>
<path d="M19 48V37.7143H23.0429C23.6952 37.7143 24.2429 37.8476 24.6857 38.1143C25.1286 38.381 25.4619 38.7262 25.6857 39.15C25.9095 39.569 26.0214 40.0119 26.0214 40.4786C26.0214 41.0452 25.881 41.531 25.6 41.9357C25.3238 42.3405 24.95 42.6167 24.4786 42.7643L24.4643 42.4143C25.1214 42.5762 25.6262 42.8929 25.9786 43.3643C26.331 43.831 26.5071 44.3762 26.5071 45C26.5071 45.6048 26.3857 46.131 26.1429 46.5786C25.9048 47.0262 25.5548 47.3762 25.0929 47.6286C24.6357 47.8762 24.081 48 23.4286 48H19ZM20.5143 46.5786H23.2C23.5381 46.5786 23.8405 46.5143 24.1071 46.3857C24.3786 46.2571 24.5905 46.0738 24.7429 45.8357C24.9 45.5929 24.9786 45.3048 24.9786 44.9714C24.9786 44.6619 24.9095 44.3833 24.7714 44.1357C24.6381 43.8833 24.4429 43.6857 24.1857 43.5429C23.9333 43.3952 23.6357 43.3214 23.2929 43.3214H20.5143V46.5786ZM20.5143 41.9143H23.0214C23.2976 41.9143 23.5452 41.8595 23.7643 41.75C23.9881 41.6357 24.1643 41.4738 24.2929 41.2643C24.4262 41.05 24.4929 40.7929 24.4929 40.4929C24.4929 40.0929 24.3595 39.7643 24.0929 39.5071C23.8262 39.25 23.469 39.1214 23.0214 39.1214H20.5143V41.9143ZM28.5 48V40.2857H29.8286V42.1571L29.6429 41.9143C29.7381 41.6667 29.8619 41.4405 30.0143 41.2357C30.1667 41.0262 30.3429 40.8548 30.5429 40.7214C30.7381 40.5786 30.9548 40.469 31.1929 40.3929C31.4357 40.3119 31.6833 40.2643 31.9357 40.25C32.1881 40.231 32.431 40.2429 32.6643 40.2857V41.6857C32.4119 41.619 32.131 41.6 31.8214 41.6286C31.5167 41.6571 31.2357 41.7548 30.9786 41.9214C30.7357 42.0786 30.5429 42.269 30.4 42.4929C30.2619 42.7167 30.1619 42.9667 30.1 43.2429C30.0381 43.5143 30.0071 43.8024 30.0071 44.1071V48H28.5ZM37.8065 48.2143C37.035 48.2143 36.366 48.0405 35.7993 47.6929C35.2327 47.3452 34.7946 46.8667 34.485 46.2571C34.1803 45.6429 34.0279 44.9357 34.0279 44.1357C34.0279 43.331 34.185 42.6238 34.4993 42.0143C34.8136 41.4 35.2541 40.9238 35.8208 40.5857C36.3874 40.2429 37.0493 40.0714 37.8065 40.0714C38.5779 40.0714 39.247 40.2452 39.8136 40.5929C40.3803 40.9405 40.8184 41.419 41.1279 42.0286C41.4374 42.6381 41.5922 43.3405 41.5922 44.1357C41.5922 44.9405 41.435 45.65 41.1208 46.2643C40.8112 46.8738 40.3731 47.3524 39.8065 47.7C39.2398 48.0429 38.5731 48.2143 37.8065 48.2143ZM37.8065 46.8071C38.5446 46.8071 39.0946 46.5595 39.4565 46.0643C39.8231 45.5643 40.0065 44.9214 40.0065 44.1357C40.0065 43.331 39.8208 42.6881 39.4493 42.2071C39.0827 41.7214 38.535 41.4786 37.8065 41.4786C37.3065 41.4786 36.8946 41.5929 36.5708 41.8214C36.247 42.0452 36.0065 42.3571 35.8493 42.7571C35.6922 43.1524 35.6136 43.6119 35.6136 44.1357C35.6136 44.9452 35.7993 45.5929 36.1708 46.0786C36.5422 46.5643 37.0874 46.8071 37.8065 46.8071ZM49.1475 48V44.2071C49.1475 43.9071 49.1214 43.6 49.069 43.2857C49.0214 42.9667 48.9261 42.6714 48.7833 42.4C48.6452 42.1286 48.4475 41.9095 48.1904 41.7429C47.938 41.5762 47.6071 41.4929 47.1975 41.4929C46.9309 41.4929 46.6785 41.5381 46.4404 41.6286C46.2023 41.7143 45.9928 41.8548 45.8118 42.05C45.6356 42.2452 45.4952 42.5024 45.3904 42.8214C45.2904 43.1405 45.2404 43.5286 45.2404 43.9857L44.3118 43.6357C44.3118 42.9357 44.4428 42.319 44.7047 41.7857C44.9666 41.2476 45.3428 40.8286 45.8333 40.5286C46.3237 40.2286 46.9166 40.0786 47.6118 40.0786C48.1452 40.0786 48.5928 40.1643 48.9547 40.3357C49.3166 40.5071 49.6095 40.7333 49.8333 41.0143C50.0618 41.2905 50.2356 41.5929 50.3547 41.9214C50.4737 42.25 50.5547 42.5714 50.5975 42.8857C50.6404 43.2 50.6618 43.4762 50.6618 43.7143V48H49.1475ZM43.7261 48V40.2857H45.0618V42.5143H45.2404V48H43.7261ZM52.3795 48V47.7643L56.758 41.6214H52.7795V40.2857H59.1295V40.5286L54.758 46.6643H58.9152V48H52.3795ZM64.1179 48.2143C63.3512 48.2143 62.6774 48.0476 62.0964 47.7143C61.5202 47.3762 61.0702 46.9071 60.7464 46.3071C60.4274 45.7024 60.2679 45.0024 60.2679 44.2071C60.2679 43.3643 60.425 42.6333 60.7393 42.0143C61.0583 41.3952 61.5012 40.9167 62.0679 40.5786C62.6345 40.2405 63.294 40.0714 64.0464 40.0714C64.8321 40.0714 65.5012 40.2548 66.0536 40.6214C66.606 40.9833 67.0179 41.5 67.2893 42.1714C67.5655 42.8429 67.675 43.6405 67.6179 44.5643H66.125V44.0214C66.1155 43.1262 65.9441 42.4643 65.6107 42.0357C65.2821 41.6071 64.7798 41.3929 64.1036 41.3929C63.356 41.3929 62.794 41.6286 62.4179 42.1C62.0417 42.5714 61.8536 43.2524 61.8536 44.1429C61.8536 44.9905 62.0417 45.6476 62.4179 46.1143C62.794 46.5762 63.3369 46.8071 64.0464 46.8071C64.5131 46.8071 64.9155 46.7024 65.2536 46.4929C65.5964 46.2786 65.8631 45.9738 66.0536 45.5786L67.5179 46.0429C67.2179 46.7333 66.7631 47.269 66.1536 47.65C65.544 48.0262 64.8655 48.2143 64.1179 48.2143ZM61.3679 44.5643V43.4H66.875V44.5643H61.3679Z"/>
</mask>
<g filter="url(#filter0_ii_108_19603)">
<path d="M19 48V37.7143H23.0429C23.6952 37.7143 24.2429 37.8476 24.6857 38.1143C25.1286 38.381 25.4619 38.7262 25.6857 39.15C25.9095 39.569 26.0214 40.0119 26.0214 40.4786C26.0214 41.0452 25.881 41.531 25.6 41.9357C25.3238 42.3405 24.95 42.6167 24.4786 42.7643L24.4643 42.4143C25.1214 42.5762 25.6262 42.8929 25.9786 43.3643C26.331 43.831 26.5071 44.3762 26.5071 45C26.5071 45.6048 26.3857 46.131 26.1429 46.5786C25.9048 47.0262 25.5548 47.3762 25.0929 47.6286C24.6357 47.8762 24.081 48 23.4286 48H19ZM20.5143 46.5786H23.2C23.5381 46.5786 23.8405 46.5143 24.1071 46.3857C24.3786 46.2571 24.5905 46.0738 24.7429 45.8357C24.9 45.5929 24.9786 45.3048 24.9786 44.9714C24.9786 44.6619 24.9095 44.3833 24.7714 44.1357C24.6381 43.8833 24.4429 43.6857 24.1857 43.5429C23.9333 43.3952 23.6357 43.3214 23.2929 43.3214H20.5143V46.5786ZM20.5143 41.9143H23.0214C23.2976 41.9143 23.5452 41.8595 23.7643 41.75C23.9881 41.6357 24.1643 41.4738 24.2929 41.2643C24.4262 41.05 24.4929 40.7929 24.4929 40.4929C24.4929 40.0929 24.3595 39.7643 24.0929 39.5071C23.8262 39.25 23.469 39.1214 23.0214 39.1214H20.5143V41.9143ZM28.5 48V40.2857H29.8286V42.1571L29.6429 41.9143C29.7381 41.6667 29.8619 41.4405 30.0143 41.2357C30.1667 41.0262 30.3429 40.8548 30.5429 40.7214C30.7381 40.5786 30.9548 40.469 31.1929 40.3929C31.4357 40.3119 31.6833 40.2643 31.9357 40.25C32.1881 40.231 32.431 40.2429 32.6643 40.2857V41.6857C32.4119 41.619 32.131 41.6 31.8214 41.6286C31.5167 41.6571 31.2357 41.7548 30.9786 41.9214C30.7357 42.0786 30.5429 42.269 30.4 42.4929C30.2619 42.7167 30.1619 42.9667 30.1 43.2429C30.0381 43.5143 30.0071 43.8024 30.0071 44.1071V48H28.5ZM37.8065 48.2143C37.035 48.2143 36.366 48.0405 35.7993 47.6929C35.2327 47.3452 34.7946 46.8667 34.485 46.2571C34.1803 45.6429 34.0279 44.9357 34.0279 44.1357C34.0279 43.331 34.185 42.6238 34.4993 42.0143C34.8136 41.4 35.2541 40.9238 35.8208 40.5857C36.3874 40.2429 37.0493 40.0714 37.8065 40.0714C38.5779 40.0714 39.247 40.2452 39.8136 40.5929C40.3803 40.9405 40.8184 41.419 41.1279 42.0286C41.4374 42.6381 41.5922 43.3405 41.5922 44.1357C41.5922 44.9405 41.435 45.65 41.1208 46.2643C40.8112 46.8738 40.3731 47.3524 39.8065 47.7C39.2398 48.0429 38.5731 48.2143 37.8065 48.2143ZM37.8065 46.8071C38.5446 46.8071 39.0946 46.5595 39.4565 46.0643C39.8231 45.5643 40.0065 44.9214 40.0065 44.1357C40.0065 43.331 39.8208 42.6881 39.4493 42.2071C39.0827 41.7214 38.535 41.4786 37.8065 41.4786C37.3065 41.4786 36.8946 41.5929 36.5708 41.8214C36.247 42.0452 36.0065 42.3571 35.8493 42.7571C35.6922 43.1524 35.6136 43.6119 35.6136 44.1357C35.6136 44.9452 35.7993 45.5929 36.1708 46.0786C36.5422 46.5643 37.0874 46.8071 37.8065 46.8071ZM49.1475 48V44.2071C49.1475 43.9071 49.1214 43.6 49.069 43.2857C49.0214 42.9667 48.9261 42.6714 48.7833 42.4C48.6452 42.1286 48.4475 41.9095 48.1904 41.7429C47.938 41.5762 47.6071 41.4929 47.1975 41.4929C46.9309 41.4929 46.6785 41.5381 46.4404 41.6286C46.2023 41.7143 45.9928 41.8548 45.8118 42.05C45.6356 42.2452 45.4952 42.5024 45.3904 42.8214C45.2904 43.1405 45.2404 43.5286 45.2404 43.9857L44.3118 43.6357C44.3118 42.9357 44.4428 42.319 44.7047 41.7857C44.9666 41.2476 45.3428 40.8286 45.8333 40.5286C46.3237 40.2286 46.9166 40.0786 47.6118 40.0786C48.1452 40.0786 48.5928 40.1643 48.9547 40.3357C49.3166 40.5071 49.6095 40.7333 49.8333 41.0143C50.0618 41.2905 50.2356 41.5929 50.3547 41.9214C50.4737 42.25 50.5547 42.5714 50.5975 42.8857C50.6404 43.2 50.6618 43.4762 50.6618 43.7143V48H49.1475ZM43.7261 48V40.2857H45.0618V42.5143H45.2404V48H43.7261ZM52.3795 48V47.7643L56.758 41.6214H52.7795V40.2857H59.1295V40.5286L54.758 46.6643H58.9152V48H52.3795ZM64.1179 48.2143C63.3512 48.2143 62.6774 48.0476 62.0964 47.7143C61.5202 47.3762 61.0702 46.9071 60.7464 46.3071C60.4274 45.7024 60.2679 45.0024 60.2679 44.2071C60.2679 43.3643 60.425 42.6333 60.7393 42.0143C61.0583 41.3952 61.5012 40.9167 62.0679 40.5786C62.6345 40.2405 63.294 40.0714 64.0464 40.0714C64.8321 40.0714 65.5012 40.2548 66.0536 40.6214C66.606 40.9833 67.0179 41.5 67.2893 42.1714C67.5655 42.8429 67.675 43.6405 67.6179 44.5643H66.125V44.0214C66.1155 43.1262 65.9441 42.4643 65.6107 42.0357C65.2821 41.6071 64.7798 41.3929 64.1036 41.3929C63.356 41.3929 62.794 41.6286 62.4179 42.1C62.0417 42.5714 61.8536 43.2524 61.8536 44.1429C61.8536 44.9905 62.0417 45.6476 62.4179 46.1143C62.794 46.5762 63.3369 46.8071 64.0464 46.8071C64.5131 46.8071 64.9155 46.7024 65.2536 46.4929C65.5964 46.2786 65.8631 45.9738 66.0536 45.5786L67.5179 46.0429C67.2179 46.7333 66.7631 47.269 66.1536 47.65C65.544 48.0262 64.8655 48.2143 64.1179 48.2143ZM61.3679 44.5643V43.4H66.875V44.5643H61.3679Z" fill="#FFD5AE"/>
</g>
<path d="M19 48H16.1429C16.1429 49.578 17.422 50.8571 19 50.8571V48ZM19 37.7143V34.8571C17.422 34.8571 16.1429 36.1363 16.1429 37.7143H19ZM25.6857 39.15L23.1592 40.4842L23.1655 40.496L25.6857 39.15ZM25.6 41.9357L23.2529 40.3065C23.2485 40.3128 23.2442 40.319 23.2399 40.3253L25.6 41.9357ZM24.4786 42.7643L21.6238 42.8808C21.66 43.7688 22.1074 44.5893 22.8342 45.1008C23.5609 45.6123 24.4843 45.7564 25.3324 45.4909L24.4786 42.7643ZM24.4643 42.4143L25.1478 39.6401C24.2753 39.4251 23.3525 39.6332 22.6566 40.2017C21.9607 40.7702 21.5729 41.633 21.6095 42.5308L24.4643 42.4143ZM25.9786 43.3643L23.6901 45.0749L23.6985 45.086L25.9786 43.3643ZM26.1429 46.5786L23.6315 45.216C23.6278 45.223 23.6241 45.2299 23.6204 45.2368L26.1429 46.5786ZM25.0929 47.6286L26.4537 50.1409L26.4628 50.1359L25.0929 47.6286ZM20.5143 46.5786H17.6571C17.6571 48.1565 18.9363 49.4357 20.5143 49.4357V46.5786ZM24.1071 46.3857L22.884 43.8036C22.8781 43.8064 22.8722 43.8092 22.8663 43.8121L24.1071 46.3857ZM24.7429 45.8357L22.3441 44.2836C22.3415 44.2876 22.3389 44.2916 22.3364 44.2956L24.7429 45.8357ZM24.7714 44.1357L22.2452 45.4703C22.2553 45.4895 22.2656 45.5085 22.2761 45.5273L24.7714 44.1357ZM24.1857 43.5429L22.7432 46.0091C22.7614 46.0198 22.7797 46.0302 22.7982 46.0404L24.1857 43.5429ZM20.5143 43.3214V40.4643C18.9363 40.4643 17.6571 41.7435 17.6571 43.3214H20.5143ZM20.5143 41.9143H17.6571C17.6571 43.4922 18.9363 44.7714 20.5143 44.7714V41.9143ZM23.7643 41.75L25.042 44.3055C25.0493 44.3019 25.0565 44.2983 25.0636 44.2946L23.7643 41.75ZM24.2929 41.2643L21.867 39.7549C21.8639 39.7599 21.8607 39.7649 21.8577 39.77L24.2929 41.2643ZM24.0929 39.5071L22.1096 41.5638L22.1096 41.5638L24.0929 39.5071ZM20.5143 39.1214V36.2643C18.9363 36.2643 17.6571 37.5435 17.6571 39.1214H20.5143ZM21.8571 48V37.7143H16.1429V48H21.8571ZM19 40.5714H23.0429V34.8571H19V40.5714ZM23.0429 40.5714C23.1761 40.5714 23.2459 40.5852 23.267 40.5903C23.2849 40.5947 23.2596 40.5907 23.2119 40.5619L26.1596 35.6666C25.1691 35.0702 24.0801 34.8571 23.0429 34.8571V40.5714ZM23.2119 40.5619C23.2364 40.5767 23.2314 40.5774 23.2124 40.5578C23.2035 40.5485 23.1935 40.5368 23.1836 40.5231C23.1736 40.5094 23.1655 40.496 23.1592 40.4842L28.2122 37.8158C27.7264 36.8958 27.0118 36.1798 26.1596 35.6666L23.2119 40.5619ZM23.1655 40.496C23.1694 40.5034 23.1706 40.5066 23.1703 40.5057C23.1699 40.5048 23.1687 40.5016 23.1674 40.4964C23.1661 40.4912 23.1652 40.4862 23.1647 40.4819C23.1642 40.4778 23.1643 40.4764 23.1643 40.4786H28.8786C28.8786 39.5336 28.6468 38.6294 28.2059 37.804L23.1655 40.496ZM23.1643 40.4786C23.1643 40.5253 23.1587 40.5182 23.1714 40.4741C23.1851 40.4266 23.2117 40.3658 23.2529 40.3065L27.9471 43.5649C28.6081 42.6126 28.8786 41.5373 28.8786 40.4786H23.1643ZM23.2399 40.3253C23.2726 40.2775 23.3301 40.211 23.4147 40.1485C23.499 40.0862 23.5764 40.0528 23.6248 40.0377L25.3324 45.4909C26.4117 45.1529 27.3184 44.4864 27.9601 43.5461L23.2399 40.3253ZM27.3333 42.6478L27.3191 42.2978L21.6095 42.5308L21.6238 42.8808L27.3333 42.6478ZM23.7808 45.1885C23.8535 45.2064 23.855 45.2171 23.8173 45.1935C23.7991 45.1821 23.7762 45.1654 23.7519 45.143C23.7275 45.1205 23.7067 45.097 23.6901 45.0749L28.2671 41.6537C27.4605 40.5747 26.3455 39.9352 25.1478 39.6401L23.7808 45.1885ZM23.6985 45.086C23.6939 45.08 23.686 45.0684 23.6774 45.0519C23.6687 45.0352 23.6615 45.0179 23.6563 45.0018C23.6449 44.9665 23.65 44.96 23.65 45H29.3643C29.3643 43.799 29.0113 42.6393 28.2587 41.6426L23.6985 45.086ZM23.65 45C23.65 45.1115 23.6388 45.1767 23.6321 45.2058C23.6259 45.2328 23.6228 45.2321 23.6315 45.216L28.6542 47.9411C29.163 47.0033 29.3643 45.9915 29.3643 45H23.65ZM23.6204 45.2368C23.6309 45.217 23.6516 45.1864 23.6815 45.1565C23.7108 45.1272 23.7301 45.1173 23.7229 45.1213L26.4628 50.1359C27.3947 49.6267 28.1548 48.8802 28.6653 47.9203L23.6204 45.2368ZM23.732 45.1163C23.7861 45.087 23.7246 45.1429 23.4286 45.1429V50.8571C24.4373 50.8571 25.4853 50.6654 26.4537 50.1408L23.732 45.1163ZM23.4286 45.1429H19V50.8571H23.4286V45.1429ZM20.5143 49.4357H23.2V43.7214H20.5143V49.4357ZM23.2 49.4357C23.9066 49.4357 24.6427 49.2994 25.348 48.9593L22.8663 43.8121C23.0382 43.7292 23.1696 43.7214 23.2 43.7214V49.4357ZM25.3302 48.9678C26.0544 48.6248 26.6898 48.094 27.1493 47.3759L22.3364 44.2956C22.4071 44.1851 22.4964 44.0809 22.6003 43.9911C22.7032 43.902 22.803 43.842 22.884 43.8036L25.3302 48.9678ZM27.1416 47.3879C27.6415 46.6154 27.8357 45.7696 27.8357 44.9714H22.1214C22.1214 44.84 22.1585 44.5703 22.3441 44.2836L27.1416 47.3879ZM27.8357 44.9714C27.8357 44.2206 27.6635 43.4555 27.2668 42.7441L22.2761 45.5273C22.1556 45.3112 22.1214 45.1032 22.1214 44.9714H27.8357ZM27.2977 42.8011C26.8973 42.0432 26.2991 41.4485 25.5733 41.0453L22.7982 46.0404C22.7036 45.9879 22.5964 45.9115 22.4925 45.8062C22.388 45.7005 22.3056 45.5847 22.2452 45.4703L27.2977 42.8011ZM25.6282 41.0766C24.8678 40.6318 24.0544 40.4643 23.2929 40.4643V46.1786C23.217 46.1786 22.9989 46.1587 22.7432 46.0091L25.6282 41.0766ZM23.2929 40.4643H20.5143V46.1786H23.2929V40.4643ZM17.6571 43.3214V46.5786H23.3714V43.3214H17.6571ZM20.5143 44.7714H23.0214V39.0571H20.5143V44.7714ZM23.0214 44.7714C23.684 44.7714 24.3781 44.6375 25.042 44.3055L22.4865 39.1945C22.7123 39.0816 22.9112 39.0571 23.0214 39.0571V44.7714ZM25.0636 44.2946C25.7445 43.9469 26.3183 43.4264 26.7281 42.7586L21.8577 39.77C22.0103 39.5212 22.2317 39.3245 22.4649 39.2054L25.0636 44.2946ZM26.7187 42.7737C27.1833 42.0272 27.35 41.2246 27.35 40.4929H21.6357C21.6357 40.3611 21.6691 40.0728 21.867 39.7549L26.7187 42.7737ZM27.35 40.4929C27.35 39.3858 26.9488 38.292 26.0761 37.4504L22.1096 41.5638C21.9684 41.4277 21.8357 41.2433 21.7454 41.0208C21.657 40.8028 21.6357 40.6142 21.6357 40.4929H27.35ZM26.0761 37.4504C25.1697 36.5764 24.0452 36.2643 23.0214 36.2643V41.9786C22.9731 41.9786 22.8392 41.9716 22.6572 41.9061C22.4662 41.8373 22.2737 41.7221 22.1096 41.5638L26.0761 37.4504ZM23.0214 36.2643H20.5143V41.9786H23.0214V36.2643ZM17.6571 39.1214V41.9143H23.3714V39.1214H17.6571ZM28.5 48H25.6429C25.6429 49.578 26.922 50.8571 28.5 50.8571V48ZM28.5 40.2857V37.4286C26.922 37.4286 25.6429 38.7078 25.6429 40.2857H28.5ZM29.8286 40.2857H32.6857C32.6857 38.7078 31.4065 37.4286 29.8286 37.4286V40.2857ZM29.8286 42.1571L27.559 43.8927C28.303 44.8657 29.5845 45.2562 30.7447 44.8634C31.9049 44.4706 32.6857 43.382 32.6857 42.1571H29.8286ZM29.6429 41.9143L26.9762 40.8886C26.6197 41.8155 26.77 42.861 27.3733 43.6499L29.6429 41.9143ZM30.0143 41.2357L32.3064 42.9415C32.3126 42.9331 32.3188 42.9247 32.325 42.9162L30.0143 41.2357ZM30.5429 40.7214L32.1277 43.0987C32.1623 43.0756 32.1964 43.0518 32.23 43.0272L30.5429 40.7214ZM31.1929 40.3929L32.0636 43.1141C32.0746 43.1106 32.0855 43.107 32.0964 43.1034L31.1929 40.3929ZM31.9357 40.25L32.0972 43.1026C32.115 43.1016 32.1329 43.1004 32.1507 43.099L31.9357 40.25ZM32.6643 40.2857H35.5214C35.5214 38.9068 34.5366 37.7247 33.1804 37.4756L32.6643 40.2857ZM32.6643 41.6857L31.9346 44.4481C32.7917 44.6745 33.7053 44.4902 34.4076 43.9493C35.11 43.4085 35.5214 42.5722 35.5214 41.6857H32.6643ZM31.8214 41.6286L31.5588 38.7835L31.5547 38.7839L31.8214 41.6286ZM30.9786 41.9214L32.5307 44.3202L32.5326 44.319L30.9786 41.9214ZM30.4 42.4929L27.9917 40.9556C27.9838 40.9679 27.9761 40.9802 27.9685 40.9925L30.4 42.4929ZM30.1 43.2429L32.8856 43.8782L32.888 43.8677L30.1 43.2429ZM30.0071 48V50.8571C31.5851 50.8571 32.8643 49.578 32.8643 48H30.0071ZM31.3571 48V40.2857H25.6429V48H31.3571ZM28.5 43.1429H29.8286V37.4286H28.5V43.1429ZM26.9714 40.2857V42.1571H32.6857V40.2857H26.9714ZM32.0982 40.4216L31.9125 40.1787L27.3733 43.6499L27.559 43.8927L32.0982 40.4216ZM32.3096 42.9399C32.3128 42.9316 32.3144 42.929 32.3134 42.9308C32.3124 42.9326 32.31 42.9366 32.3064 42.9415L27.7222 39.53C27.4085 39.9514 27.161 40.4079 26.9762 40.8886L32.3096 42.9399ZM32.325 42.9162C32.2941 42.9587 32.2301 43.0304 32.1277 43.0987L28.958 38.3441C28.4556 38.6791 28.0393 39.0937 27.7036 39.5552L32.325 42.9162ZM32.23 43.0272C32.169 43.0719 32.1084 43.0998 32.0636 43.1141L30.3221 37.6716C29.8011 37.8383 29.3072 38.0853 28.8557 38.4156L32.23 43.0272ZM32.0964 43.1034C32.1005 43.102 32.1016 43.1019 32.1003 43.1022C32.0989 43.1024 32.0976 43.1026 32.0972 43.1026L31.7742 37.3974C31.2661 37.4262 30.7691 37.5224 30.2894 37.6823L32.0964 43.1034ZM32.1507 43.099C32.1636 43.0981 32.1688 43.0984 32.1673 43.0984C32.1656 43.0983 32.1588 43.0978 32.1481 43.0958L33.1804 37.4756C32.6905 37.3856 32.2012 37.3647 31.7207 37.401L32.1507 43.099ZM29.8071 40.2857V41.6857H35.5214V40.2857H29.8071ZM33.394 38.9233C32.7631 38.7567 32.1394 38.7299 31.5588 38.7835L32.0841 44.4736C32.1225 44.4701 32.0607 44.4814 31.9346 44.4481L33.394 38.9233ZM31.5547 38.7839C30.7906 38.8555 30.068 39.1068 29.4246 39.5238L32.5326 44.319C32.4744 44.3567 32.4027 44.3933 32.3199 44.4221C32.2371 44.4509 32.1578 44.4667 32.0881 44.4732L31.5547 38.7839ZM29.4264 39.5227C28.8708 39.8821 28.374 40.3566 27.9917 40.9556L32.8083 44.0301C32.7117 44.1815 32.6006 44.275 32.5307 44.3202L29.4264 39.5227ZM27.9685 40.9925C27.6515 41.5062 27.438 42.0559 27.312 42.618L32.888 43.8677C32.8858 43.8775 32.8723 43.9271 32.8315 43.9932L27.9685 40.9925ZM27.3144 42.6075C27.2007 43.106 27.15 43.6086 27.15 44.1071H32.8643C32.8643 43.9962 32.8755 43.9226 32.8856 43.8782L27.3144 42.6075ZM27.15 44.1071V48H32.8643V44.1071H27.15ZM30.0071 45.1429H28.5V50.8571H30.0071V45.1429ZM35.7993 47.6929L34.3053 50.1283L35.7993 47.6929ZM34.485 46.2571L31.9256 47.527C31.9295 47.5349 31.9335 47.5429 31.9375 47.5508L34.485 46.2571ZM34.4993 42.0143L37.0388 43.3237L37.0429 43.3156L34.4993 42.0143ZM35.8208 40.5857L37.2847 43.0393C37.2897 43.0363 37.2948 43.0333 37.2998 43.0302L35.8208 40.5857ZM39.8136 40.5929L41.3076 38.1574V38.1574L39.8136 40.5929ZM41.1279 42.0286L38.5804 43.3222L38.5804 43.3222L41.1279 42.0286ZM41.1208 46.2643L38.5772 44.9629L38.5733 44.9706L41.1208 46.2643ZM39.8065 47.7L41.2855 50.1445C41.2905 50.1415 41.2955 50.1385 41.3005 50.1354L39.8065 47.7ZM39.4565 46.0643L37.1525 44.3747L37.1496 44.3785L39.4565 46.0643ZM39.4493 42.2071L37.169 43.9286C37.1753 43.9369 37.1816 43.9452 37.188 43.9535L39.4493 42.2071ZM36.5708 41.8214L38.1953 44.1718C38.203 44.1664 38.2107 44.161 38.2184 44.1556L36.5708 41.8214ZM35.8493 42.7571L38.5043 43.8127L38.5086 43.8019L35.8493 42.7571ZM36.1708 46.0786L38.4404 44.343L36.1708 46.0786ZM37.8065 45.3571C37.4764 45.3571 37.3424 45.2875 37.2933 45.2574L34.3053 50.1283C35.3896 50.7934 36.5937 51.0714 37.8065 51.0714V45.3571ZM37.2933 45.2574C37.1898 45.1939 37.1102 45.1164 37.0325 44.9635L31.9375 47.5508C32.4789 48.6169 33.2756 49.4966 34.3053 50.1283L37.2933 45.2574ZM37.0445 44.9873C36.9657 44.8285 36.885 44.5684 36.885 44.1357H31.1708C31.1708 45.303 31.3949 46.4573 31.9256 47.527L37.0445 44.9873ZM36.885 44.1357C36.885 43.7076 36.9667 43.4635 37.0388 43.3237L31.9599 40.7049C31.4034 41.7841 31.1708 42.9543 31.1708 44.1357H36.885ZM37.0429 43.3156C37.1244 43.1563 37.2006 43.0895 37.2847 43.0393L34.3568 38.1321C33.3076 38.7581 32.5028 39.6437 31.9558 40.7129L37.0429 43.3156ZM37.2998 43.0302C37.3594 42.9942 37.4946 42.9286 37.8065 42.9286V37.2143C36.6041 37.2143 35.4155 37.4915 34.3417 38.1412L37.2998 43.0302ZM37.8065 42.9286C38.1366 42.9286 38.2706 42.9982 38.3196 43.0283L41.3076 38.1574C40.2233 37.4923 39.0193 37.2143 37.8065 37.2143V42.9286ZM38.3196 43.0283C38.4232 43.0918 38.5027 43.1693 38.5804 43.3222L43.6754 40.7349C43.134 39.6688 42.3374 38.7891 41.3076 38.1574L38.3196 43.0283ZM38.5804 43.3222C38.6555 43.4702 38.735 43.7166 38.735 44.1357H44.4493C44.4493 42.9643 44.2193 41.806 43.6754 40.7349L38.5804 43.3222ZM38.735 44.1357C38.735 44.5632 38.6536 44.8135 38.5772 44.9629L43.6643 47.5656C44.2165 46.4865 44.4493 45.3177 44.4493 44.1357H38.735ZM38.5733 44.9706C38.4956 45.1236 38.4161 45.201 38.3125 45.2646L41.3005 50.1354C42.3302 49.5037 43.1269 48.624 43.6683 47.5579L38.5733 44.9706ZM38.3274 45.2555C38.2733 45.2882 38.1352 45.3571 37.8065 45.3571V51.0714C39.0111 51.0714 40.2063 50.7975 41.2855 50.1445L38.3274 45.2555ZM37.8065 49.6643C39.2472 49.6643 40.7509 49.1355 41.7633 47.75L37.1496 44.3785C37.2555 44.2337 37.4155 44.0991 37.5996 44.0161C37.7662 43.9411 37.8595 43.95 37.8065 43.95V49.6643ZM41.7605 47.7539C42.5725 46.6466 42.8636 45.3655 42.8636 44.1357H37.1493C37.1493 44.3087 37.129 44.397 37.1214 44.4236C37.1154 44.4446 37.1202 44.4186 37.1525 44.3747L41.7605 47.7539ZM42.8636 44.1357C42.8636 42.9037 42.5772 41.5829 41.7106 40.4608L37.188 43.9535C37.1328 43.882 37.1191 43.832 37.1223 43.843C37.1274 43.8607 37.1493 43.9492 37.1493 44.1357H42.8636ZM41.7297 40.4857C40.7137 39.1399 39.2327 38.6214 37.8065 38.6214V44.3357C37.8561 44.3357 37.7662 44.3439 37.6053 44.2725C37.4283 44.194 37.2731 44.0665 37.169 43.9286L41.7297 40.4857ZM37.8065 38.6214C36.8715 38.6214 35.8418 38.8387 34.9231 39.4872L38.2184 44.1556C38.0917 44.2451 37.9721 44.2937 37.8864 44.3174C37.8057 44.3398 37.7721 44.3357 37.8065 44.3357V38.6214ZM34.9462 39.4711C34.1126 40.0472 33.5348 40.8347 33.19 41.7124L38.5086 43.8019C38.4976 43.83 38.4688 43.8918 38.4103 43.9677C38.3504 44.0454 38.2762 44.1158 38.1953 44.1718L34.9462 39.4711ZM33.1943 41.7015C32.8767 42.5006 32.7565 43.3315 32.7565 44.1357H38.4708C38.4708 43.8923 38.5077 43.8042 38.5043 43.8127L33.1943 41.7015ZM32.7565 44.1357C32.7565 45.3698 33.0415 46.69 33.9012 47.8141L38.4404 44.343C38.4924 44.4111 38.5039 44.4567 38.4994 44.441C38.493 44.4187 38.4708 44.3258 38.4708 44.1357H32.7565ZM33.9012 47.8141C34.9121 49.1361 36.374 49.6643 37.8065 49.6643V43.95C37.7671 43.95 37.8605 43.9437 38.0208 44.0151C38.1954 44.0928 38.3433 44.2161 38.4404 44.343L33.9012 47.8141ZM49.1475 48H46.2904C46.2904 49.578 47.5696 50.8571 49.1475 50.8571V48ZM49.069 43.2857L46.2431 43.7075C46.2455 43.7235 46.248 43.7395 46.2507 43.7554L49.069 43.2857ZM48.7833 42.4L46.2368 43.6956C46.2427 43.7073 46.2488 43.719 46.2549 43.7307L48.7833 42.4ZM48.1904 41.7429L46.6159 44.127C46.6227 44.1315 46.6296 44.136 46.6364 44.1404L48.1904 41.7429ZM46.4404 41.6286L47.4082 44.3168C47.4239 44.3111 47.4397 44.3053 47.4553 44.2994L46.4404 41.6286ZM45.8118 42.05L43.7163 40.1078C43.7077 40.1171 43.6992 40.1264 43.6907 40.1358L45.8118 42.05ZM45.3904 42.8214L42.6759 41.9301C42.6718 41.9423 42.6679 41.9546 42.664 41.9669L45.3904 42.8214ZM45.2404 43.9857L44.2327 46.6592C45.1103 46.9901 46.0945 46.869 46.8658 46.3354C47.6372 45.8018 48.0975 44.9236 48.0975 43.9857H45.2404ZM44.3118 43.6357H41.4547C41.4547 44.8249 42.1913 45.8898 43.3041 46.3092L44.3118 43.6357ZM44.7047 41.7857L47.2693 43.0451L47.2737 43.0361L44.7047 41.7857ZM45.8333 40.5286L47.3241 42.9659L47.3241 42.9659L45.8333 40.5286ZM48.9547 40.3357L50.1778 37.7536V37.7536L48.9547 40.3357ZM49.8333 41.0143L47.5985 42.7945C47.6096 42.8084 47.6208 42.8222 47.6321 42.8359L49.8333 41.0143ZM50.3547 41.9214L47.6684 42.8947L47.6684 42.8947L50.3547 41.9214ZM50.5975 42.8857L53.4285 42.4997V42.4997L50.5975 42.8857ZM50.6618 48V50.8571C52.2398 50.8571 53.519 49.578 53.519 48H50.6618ZM43.7261 48H40.869C40.869 49.578 42.1482 50.8571 43.7261 50.8571V48ZM43.7261 40.2857V37.4286C42.1482 37.4286 40.869 38.7078 40.869 40.2857H43.7261ZM45.0618 40.2857H47.919C47.919 38.7078 46.6398 37.4286 45.0618 37.4286V40.2857ZM45.0618 42.5143H42.2047C42.2047 44.0922 43.4839 45.3714 45.0618 45.3714V42.5143ZM45.2404 42.5143H48.0975C48.0975 40.9363 46.8184 39.6571 45.2404 39.6571V42.5143ZM45.2404 48V50.8571C46.8184 50.8571 48.0975 49.578 48.0975 48H45.2404ZM52.0047 48V44.2071H46.2904V48H52.0047ZM52.0047 44.2071C52.0047 43.7404 51.9639 43.276 51.8872 42.816L46.2507 43.7554C46.2788 43.924 46.2904 44.0739 46.2904 44.2071H52.0047ZM51.8948 42.8639C51.8023 42.2439 51.6116 41.6393 51.3116 41.0693L46.2549 43.7307C46.2489 43.7194 46.2449 43.7091 46.2427 43.7021C46.2405 43.6954 46.2415 43.6963 46.2431 43.7075L51.8948 42.8639ZM51.3298 41.1044C50.9621 40.3818 50.4208 39.7837 49.7444 39.3453L46.6364 44.1404C46.5637 44.0933 46.4848 44.0289 46.4101 43.946C46.3352 43.8631 46.2779 43.7765 46.2368 43.6956L51.3298 41.1044ZM49.7649 39.3587C48.9068 38.792 47.9739 38.6357 47.1975 38.6357V44.35C47.2403 44.35 46.9693 44.3604 46.6159 44.127L49.7649 39.3587ZM47.1975 38.6357C46.6006 38.6357 46.0029 38.7384 45.4255 38.9578L47.4553 44.2994C47.3541 44.3378 47.2612 44.35 47.1975 44.35V38.6357ZM45.4726 38.9403C44.7819 39.189 44.1914 39.5952 43.7163 40.1078L47.9073 43.9922C47.7941 44.1143 47.6227 44.2396 47.4082 44.3168L45.4726 38.9403ZM43.6907 40.1358C43.1845 40.6967 42.8718 41.3334 42.6759 41.9301L48.1049 43.7128C48.1185 43.6714 48.0867 43.7938 47.933 43.9642L43.6907 40.1358ZM42.664 41.9669C42.4521 42.643 42.3833 43.3373 42.3833 43.9857H48.0975C48.0975 43.8595 48.1046 43.7717 48.1116 43.7169C48.1187 43.6616 48.1244 43.6516 48.1168 43.676L42.664 41.9669ZM46.2481 41.3122L45.3195 40.9622L43.3041 46.3092L44.2327 46.6592L46.2481 41.3122ZM47.169 43.6357C47.169 43.295 47.2313 43.1226 47.2693 43.0451L42.1401 40.5263C41.6543 41.5155 41.4547 42.5764 41.4547 43.6357H47.169ZM47.2737 43.0361C47.2851 43.0126 47.2942 42.9977 47.2998 42.9893C47.3053 42.9811 47.3086 42.9773 47.3094 42.9765C47.3101 42.9757 47.3104 42.9754 47.3112 42.9748C47.312 42.9741 47.3157 42.971 47.3241 42.9659L44.3424 38.0912C43.367 38.6878 42.626 39.5279 42.1357 40.5353L47.2737 43.0361ZM47.3241 42.9659C47.3091 42.9751 47.311 42.9699 47.3466 42.9609C47.3852 42.9512 47.4689 42.9357 47.6118 42.9357V37.2214C46.501 37.2214 45.3675 37.4643 44.3424 38.0912L47.3241 42.9659ZM47.6118 42.9357C47.7278 42.9357 47.7904 42.9452 47.8102 42.949C47.8289 42.9526 47.7964 42.9485 47.7316 42.9178L50.1778 37.7536C49.3287 37.3514 48.4344 37.2214 47.6118 37.2214V42.9357ZM47.7316 42.9178C47.7421 42.9228 47.728 42.9173 47.6993 42.8951C47.6697 42.8723 47.6337 42.8387 47.5985 42.7945L52.068 39.2341C51.5427 38.5747 50.888 38.09 50.1778 37.7536L47.7316 42.9178ZM47.6321 42.8359C47.657 42.8659 47.6641 42.8827 47.6684 42.8947L53.0409 40.9481C52.8072 40.303 52.4667 39.715 52.0344 39.1927L47.6321 42.8359ZM47.6684 42.8947C47.7255 43.0522 47.7537 43.1769 47.7666 43.2718L53.4285 42.4997C53.3557 41.966 53.222 41.4478 53.0409 40.9481L47.6684 42.8947ZM47.7666 43.2717C47.7974 43.4973 47.8047 43.6396 47.8047 43.7143H53.519C53.519 43.3128 53.4835 42.9027 53.4285 42.4997L47.7666 43.2717ZM47.8047 43.7143V48H53.519V43.7143H47.8047ZM50.6618 45.1429H49.1475V50.8571H50.6618V45.1429ZM46.5833 48V40.2857H40.869V48H46.5833ZM43.7261 43.1429H45.0618V37.4286H43.7261V43.1429ZM42.2047 40.2857V42.5143H47.919V40.2857H42.2047ZM45.0618 45.3714H45.2404V39.6571H45.0618V45.3714ZM42.3833 42.5143V48H48.0975V42.5143H42.3833ZM45.2404 45.1429H43.7261V50.8571H45.2404V45.1429ZM52.3795 48H49.5223C49.5223 49.578 50.8015 50.8571 52.3795 50.8571V48ZM52.3795 47.7643L50.0529 46.1059C49.7078 46.59 49.5223 47.1698 49.5223 47.7643H52.3795ZM56.758 41.6214L59.0846 43.2798C59.7055 42.4087 59.7878 41.2637 59.2979 40.3128C58.8079 39.3619 57.8278 38.7643 56.758 38.7643V41.6214ZM52.7795 41.6214H49.9223C49.9223 43.1994 51.2015 44.4786 52.7795 44.4786V41.6214ZM52.7795 40.2857V37.4286C51.2015 37.4286 49.9223 38.7078 49.9223 40.2857H52.7795ZM59.1295 40.2857H61.9866C61.9866 38.7078 60.7074 37.4286 59.1295 37.4286V40.2857ZM59.1295 40.5286L61.4564 42.1864C61.8013 41.7024 61.9866 41.1229 61.9866 40.5286H59.1295ZM54.758 46.6643L52.4311 45.0064C51.8104 45.8776 51.7283 47.0224 52.2184 47.9732C52.7084 48.924 53.6884 49.5214 54.758 49.5214V46.6643ZM58.9152 46.6643H61.7723C61.7723 45.0863 60.4931 43.8071 58.9152 43.8071V46.6643ZM58.9152 48V50.8571C60.4931 50.8571 61.7723 49.578 61.7723 48H58.9152ZM55.2366 48V47.7643H49.5223V48H55.2366ZM54.7061 49.4227L59.0846 43.2798L54.4314 39.9631L50.0529 46.1059L54.7061 49.4227ZM56.758 38.7643H52.7795V44.4786H56.758V38.7643ZM55.6366 41.6214V40.2857H49.9223V41.6214H55.6366ZM52.7795 43.1429H59.1295V37.4286H52.7795V43.1429ZM56.2723 40.2857V40.5286H61.9866V40.2857H56.2723ZM56.8025 38.8707L52.4311 45.0064L57.085 48.3221L61.4564 42.1864L56.8025 38.8707ZM54.758 49.5214H58.9152V43.8071H54.758V49.5214ZM56.058 46.6643V48H61.7723V46.6643H56.058ZM58.9152 45.1429H52.3795V50.8571H58.9152V45.1429ZM62.0964 47.7143L60.6505 50.1785C60.6585 50.1832 60.6665 50.1879 60.6745 50.1925L62.0964 47.7143ZM60.7464 46.3071L58.2194 47.6403C58.2236 47.6483 58.2278 47.6562 58.2321 47.6641L60.7464 46.3071ZM60.7393 42.0143L58.1996 40.7054C58.1969 40.7105 58.1943 40.7157 58.1917 40.7209L60.7393 42.0143ZM62.0679 40.5786L60.6039 38.125L62.0679 40.5786ZM66.0536 40.6214L64.4735 43.0019C64.4782 43.005 64.483 43.0082 64.4878 43.0113L66.0536 40.6214ZM67.2893 42.1714L64.6404 43.2423C64.6426 43.2476 64.6448 43.253 64.647 43.2583L67.2893 42.1714ZM67.6179 44.5643V47.4214C69.1273 47.4214 70.3764 46.2473 70.4696 44.7407L67.6179 44.5643ZM66.125 44.5643H63.2679C63.2679 46.1422 64.547 47.4214 66.125 47.4214V44.5643ZM66.125 44.0214H68.9821C68.9821 44.0113 68.9821 44.0012 68.982 43.991L66.125 44.0214ZM65.6107 42.0357L63.3433 43.7741C63.3473 43.7794 63.3514 43.7846 63.3554 43.7898L65.6107 42.0357ZM62.4179 42.1L64.6511 43.8821V43.8821L62.4179 42.1ZM62.4179 46.1143L60.1935 47.9074C60.1965 47.9111 60.1995 47.9149 60.2025 47.9186L62.4179 46.1143ZM65.2536 46.4929L66.7586 48.9215L66.7679 48.9157L65.2536 46.4929ZM66.0536 45.5786L66.9171 42.8551C65.5619 42.4254 64.097 43.0574 63.4797 44.3382L66.0536 45.5786ZM67.5179 46.0429L70.1383 47.1814C70.4606 46.4396 70.4535 45.596 70.1185 44.8598C69.7836 44.1236 69.1524 43.5638 68.3814 43.3193L67.5179 46.0429ZM66.1536 47.65L67.6542 50.0814C67.6587 50.0785 67.6633 50.0757 67.6679 50.0729L66.1536 47.65ZM61.3679 44.5643H58.5107C58.5107 46.1422 59.7899 47.4214 61.3679 47.4214V44.5643ZM61.3679 43.4V40.5429C59.7899 40.5429 58.5107 41.822 58.5107 43.4H61.3679ZM66.875 43.4H69.7321C69.7321 41.822 68.453 40.5429 66.875 40.5429V43.4ZM66.875 44.5643V47.4214C68.453 47.4214 69.7321 46.1422 69.7321 44.5643H66.875ZM64.1179 45.3571C63.7769 45.3571 63.6072 45.2871 63.5183 45.2361L60.6745 50.1925C61.7476 50.8082 62.9255 51.0714 64.1179 51.0714V45.3571ZM63.5424 45.25C63.4265 45.1821 63.3418 45.1003 63.2608 44.9502L58.2321 47.6641C58.7987 48.714 59.6139 49.5703 60.6505 50.1785L63.5424 45.25ZM63.2735 44.974C63.2041 44.8425 63.125 44.6138 63.125 44.2071H57.4107C57.4107 45.391 57.6507 46.5623 58.2194 47.6403L63.2735 44.974ZM63.125 44.2071C63.125 43.7188 63.2151 43.4491 63.2869 43.3077L58.1917 40.7209C57.6349 41.8176 57.4107 43.0098 57.4107 44.2071H63.125ZM63.279 43.3232C63.3676 43.1512 63.4495 43.0813 63.5318 43.0322L60.6039 38.125C59.5529 38.752 58.7491 39.6393 58.1996 40.7054L63.279 43.3232ZM63.5318 43.0322C63.5965 42.9935 63.7358 42.9286 64.0464 42.9286V37.2143C62.8523 37.2143 61.6725 37.4874 60.6039 38.125L63.5318 43.0322ZM64.0464 42.9286C64.376 42.9286 64.4705 42.9999 64.4735 43.0019L67.6337 38.241C66.5319 37.5096 65.2883 37.2143 64.0464 37.2143V42.9286ZM64.4878 43.0113C64.5061 43.0233 64.5651 43.056 64.6404 43.2423L69.9382 41.1006C69.4706 39.944 68.7058 38.9433 67.6194 38.2315L64.4878 43.0113ZM64.647 43.2583C64.7199 43.4356 64.8037 43.7807 64.7662 44.3879L70.4696 44.7407C70.5463 43.5003 70.4111 42.2501 69.9316 41.0845L64.647 43.2583ZM67.6179 41.7071H66.125V47.4214H67.6179V41.7071ZM68.9821 44.5643V44.0214H63.2679V44.5643H68.9821ZM68.982 43.991C68.9698 42.8423 68.7614 41.4328 67.866 40.2816L63.3554 43.7898C63.2295 43.628 63.2109 43.5216 63.2234 43.5699C63.2364 43.6201 63.265 43.7688 63.268 44.0518L68.982 43.991ZM67.8782 40.2973C66.8743 38.988 65.421 38.5357 64.1036 38.5357V44.25C64.1454 44.25 64.0433 44.257 63.8665 44.1816C63.6708 44.0981 63.4818 43.9547 63.3433 43.7741L67.8782 40.2973ZM64.1036 38.5357C62.7158 38.5357 61.2313 39.0062 60.1846 40.3179L64.6511 43.8821C64.5374 44.0246 64.3825 44.139 64.2267 44.2044C64.0879 44.2626 64.0256 44.25 64.1036 44.25V38.5357ZM60.1846 40.3179C59.2516 41.4871 58.9964 42.9021 58.9964 44.1429H64.7107C64.7107 43.8912 64.7381 43.7632 64.7487 43.725C64.7573 43.6937 64.7415 43.7689 64.6511 43.8821L60.1846 40.3179ZM58.9964 44.1429C58.9964 45.3779 59.2678 46.7591 60.1935 47.9074L64.6423 44.3212C64.7252 44.424 64.7451 44.4978 64.7415 44.4852C64.7357 44.4649 64.7107 44.3617 64.7107 44.1429H58.9964ZM60.2025 47.9186C61.2267 49.1762 62.66 49.6643 64.0464 49.6643V43.95C63.9998 43.95 64.0794 43.9426 64.2257 44.0048C64.3858 44.0729 64.5311 44.1847 64.6332 44.31L60.2025 47.9186ZM64.0464 49.6643C64.9514 49.6643 65.8951 49.4566 66.7586 48.9215L63.7485 44.0643C63.8337 44.0115 63.9151 43.9801 63.9783 43.9636C64.0389 43.9478 64.066 43.95 64.0464 43.95V49.6643ZM66.7679 48.9157C67.6074 48.391 68.2233 47.6575 68.6274 46.819L63.4797 44.3382C63.4869 44.3232 63.5109 44.2788 63.5605 44.2221C63.6112 44.1642 63.673 44.1114 63.7393 44.07L66.7679 48.9157ZM65.19 48.3021L66.6543 48.7664L68.3814 43.3193L66.9171 42.8551L65.19 48.3021ZM64.8974 44.9043C64.8162 45.0912 64.7346 45.1676 64.6393 45.2271L67.6679 50.0729C68.7916 49.3705 69.6196 48.3754 70.1383 47.1814L64.8974 44.9043ZM64.653 45.2186C64.5147 45.304 64.3598 45.3571 64.1179 45.3571V51.0714C65.3712 51.0714 66.5734 50.7484 67.6542 50.0814L64.653 45.2186ZM64.225 44.5643V43.4H58.5107V44.5643H64.225ZM61.3679 46.2571H66.875V40.5429H61.3679V46.2571ZM64.0179 43.4V44.5643H69.7321V43.4H64.0179ZM66.875 41.7071H61.3679V47.4214H66.875V41.7071Z" fill="#C28044" mask="url(#path-9-outside-1_108_19603)"/>
<defs>
<filter id="filter0_ii_108_19603" x="13.2857" y="32" width="60.1322" height="21.9286" filterUnits="userSpaceOnUse" color-interpolation-filters="sRGB">
<feFlood flood-opacity="0" result="BackgroundImageFix"/>
<feBlend mode="normal" in="SourceGraphic" in2="BackgroundImageFix" result="shape"/>
<feColorMatrix in="SourceAlpha" type="matrix" values="0 0 0 0 0 0 0 0 0 0 0 0 0 0 0 0 0 0 127 0" result="hardAlpha"/>
<feOffset dx="5.71429" dy="5.71429"/>
<feGaussianBlur stdDeviation="2.85714"/>
<feComposite in2="hardAlpha" operator="arithmetic" k2="-1" k3="1"/>
<feColorMatrix type="matrix" values="0 0 0 0 0 0 0 0 0 0 0 0 0 0 0 0 0 0 0.25 0"/>
<feBlend mode="normal" in2="shape" result="effect1_innerShadow_108_19603"/>
<feColorMatrix in="SourceAlpha" type="matrix" values="0 0 0 0 0 0 0 0 0 0 0 0 0 0 0 0 0 0 127 0" result="hardAlpha"/>
<feOffset dx="-5.71429" dy="-5.71429"/>
<feGaussianBlur stdDeviation="5.71429"/>
<feComposite in2="hardAlpha" operator="arithmetic" k2="-1" k3="1"/>
<feColorMatrix type="matrix" values="0 0 0 0 0.983333 0 0 0 0 0.954653 0 0 0 0 0.954653 0 0 0 0.25 0"/>
<feBlend mode="normal" in2="effect1_innerShadow_108_19603" result="effect2_innerShadow_108_19603"/>
</filter>
</defs>
</svg>
