<svg width="96" height="96" viewBox="0 0 96 96" fill="none" xmlns="http://www.w3.org/2000/svg">
<path d="M92 48C92 72.3005 72.3005 92 48 92C23.6995 92 4 72.3005 4 48C4 23.6995 23.6995 4 48 4C72.3005 4 92 23.6995 92 48Z" fill="#DCA16A"/>
<path fill-rule="evenodd" clip-rule="evenodd" d="M95.2597 48C95.2597 74.1006 74.101 95.2592 48.0005 95.2592C21.8999 95.2592 0.741211 74.1006 0.741211 48C0.741211 21.8994 21.8999 0.740723 48.0005 0.740723C74.101 0.740723 95.2597 21.8994 95.2597 48ZM48.0005 92C72.301 92 92.0005 72.3005 92.0005 48C92.0005 23.6995 72.301 3.99998 48.0005 3.99998C23.6999 3.99998 4.00047 23.6995 4.00047 48C4.00047 72.3005 23.6999 92 48.0005 92Z" fill="#C38144"/>
<path fill-rule="evenodd" clip-rule="evenodd" d="M7.25854 49.6296C6.35852 49.6296 5.62891 48.9 5.62891 48C5.62891 24.5995 24.5988 5.62963 47.9993 5.62963C48.8993 5.62963 49.6289 6.35925 49.6289 7.25927C49.6289 8.15928 48.8993 8.8889 47.9993 8.8889C26.3988 8.88889 8.88817 26.3995 8.88816 48C8.88816 48.9 8.15855 49.6296 7.25854 49.6296Z" fill="#F0B57F"/>
<path fill-rule="evenodd" clip-rule="evenodd" d="M88.7405 46.3704C89.6405 46.3704 90.3701 47.1 90.3701 48C90.3701 71.4005 71.4003 90.3704 47.9997 90.3704C47.0997 90.3704 46.3701 89.6408 46.3701 88.7407C46.3701 87.8407 47.0997 87.1111 47.9997 87.1111C69.6002 87.1111 87.1109 69.6005 87.1109 48C87.1109 47.1 87.8405 46.3704 88.7405 46.3704Z" fill="#CF945D"/>
<path d="M80.5924 48C80.5924 66.0004 66.0002 80.5926 47.9998 80.5926C29.9994 80.5926 15.4072 66.0004 15.4072 48C15.4072 29.9996 29.9994 15.4074 47.9998 15.4074C66.0002 15.4074 80.5924 29.9996 80.5924 48Z" fill="#F7BA82"/>
<path fill-rule="evenodd" clip-rule="evenodd" d="M83.8521 48C83.8521 67.8004 67.8007 83.8518 48.0003 83.8518C28.1999 83.8518 12.1484 67.8004 12.1484 48C12.1484 28.1996 28.1999 12.1481 48.0003 12.1481C67.8007 12.1481 83.8521 28.1996 83.8521 48ZM48.0003 80.5926C66.0007 80.5926 80.5929 66.0004 80.5929 48C80.5929 29.9996 66.0007 15.4074 48.0003 15.4074C29.9999 15.4074 15.4077 29.9996 15.4077 48C15.4077 66.0004 29.9999 80.5926 48.0003 80.5926Z" fill="#C38144"/>
<path fill-rule="evenodd" clip-rule="evenodd" d="M47.9989 75.7037C63.2993 75.7037 75.7027 63.3003 75.7027 48C75.7027 47.1 76.4323 46.3704 77.3323 46.3704C78.2323 46.3704 78.9619 47.1 78.9619 48C78.9619 65.1004 65.0993 78.963 47.9989 78.9629C47.0989 78.9629 46.3693 78.2333 46.3693 77.3333C46.3693 76.4333 47.0989 75.7037 47.9989 75.7037Z" fill="#E6A66C"/>
<path fill-rule="evenodd" clip-rule="evenodd" d="M48.0001 20.2963C32.6997 20.2963 20.2964 32.6997 20.2964 48C20.2964 48.9 19.5668 49.6296 18.6667 49.6296C17.7667 49.6296 17.0371 48.9 17.0371 48C17.0371 30.8996 30.8997 17.037 48.0001 17.037C48.9001 17.037 49.6297 17.7667 49.6297 18.6667C49.6297 19.5667 48.9001 20.2963 48.0001 20.2963Z" fill="#FFD5AE"/>
<mask id="path-9-outside-1_1117_12205" maskUnits="userSpaceOnUse" x="21" y="30" width="55" height="35" fill="black">
<rect fill="white" x="21" y="30" width="55" height="35"/>
<path d="M24.3898 44V33.7143H28.4326C29.085 33.7143 29.6326 33.8476 30.0755 34.1143C30.5184 34.381 30.8517 34.7262 31.0755 35.15C31.2993 35.569 31.4112 36.0119 31.4112 36.4786C31.4112 37.0452 31.2707 37.531 30.9898 37.9357C30.7136 38.3405 30.3398 38.6167 29.8684 38.7643L29.8541 38.4143C30.5112 38.5762 31.016 38.8929 31.3684 39.3643C31.7207 39.831 31.8969 40.3762 31.8969 41C31.8969 41.6048 31.7755 42.131 31.5326 42.5786C31.2945 43.0262 30.9445 43.3762 30.4826 43.6286C30.0255 43.8762 29.4707 44 28.8184 44H24.3898ZM25.9041 42.5786H28.5898C28.9279 42.5786 29.2303 42.5143 29.4969 42.3857C29.7684 42.2571 29.9803 42.0738 30.1326 41.8357C30.2898 41.5929 30.3684 41.3048 30.3684 40.9714C30.3684 40.6619 30.2993 40.3833 30.1612 40.1357C30.0279 39.8833 29.8326 39.6857 29.5755 39.5429C29.3231 39.3952 29.0255 39.3214 28.6826 39.3214H25.9041V42.5786ZM25.9041 37.9143H28.4112C28.6874 37.9143 28.935 37.8595 29.1541 37.75C29.3779 37.6357 29.5541 37.4738 29.6826 37.2643C29.816 37.05 29.8826 36.7929 29.8826 36.4929C29.8826 36.0929 29.7493 35.7643 29.4826 35.5071C29.216 35.25 28.8588 35.1214 28.4112 35.1214H25.9041V37.9143ZM33.8898 44V36.2857H35.2184V38.1571L35.0326 37.9143C35.1279 37.6667 35.2517 37.4405 35.4041 37.2357C35.5565 37.0262 35.7326 36.8548 35.9326 36.7214C36.1279 36.5786 36.3445 36.469 36.5826 36.3929C36.8255 36.3119 37.0731 36.2643 37.3255 36.25C37.5779 36.231 37.8207 36.2429 38.0541 36.2857V37.6857C37.8017 37.619 37.5207 37.6 37.2112 37.6286C36.9065 37.6571 36.6255 37.7548 36.3684 37.9214C36.1255 38.0786 35.9326 38.269 35.7898 38.4929C35.6517 38.7167 35.5517 38.9667 35.4898 39.2429C35.4279 39.5143 35.3969 39.8024 35.3969 40.1071V44H33.8898ZM43.1963 44.2143C42.4248 44.2143 41.7558 44.0405 41.1891 43.6929C40.6225 43.3452 40.1844 42.8667 39.8748 42.2571C39.5701 41.6429 39.4177 40.9357 39.4177 40.1357C39.4177 39.331 39.5748 38.6238 39.8891 38.0143C40.2034 37.4 40.6439 36.9238 41.2105 36.5857C41.7772 36.2429 42.4391 36.0714 43.1963 36.0714C43.9677 36.0714 44.6367 36.2452 45.2034 36.5929C45.7701 36.9405 46.2082 37.419 46.5177 38.0286C46.8272 38.6381 46.982 39.3405 46.982 40.1357C46.982 40.9405 46.8248 41.65 46.5105 42.2643C46.201 42.8738 45.7629 43.3524 45.1963 43.7C44.6296 44.0429 43.9629 44.2143 43.1963 44.2143ZM43.1963 42.8071C43.9344 42.8071 44.4844 42.5595 44.8463 42.0643C45.2129 41.5643 45.3963 40.9214 45.3963 40.1357C45.3963 39.331 45.2105 38.6881 44.8391 38.2071C44.4725 37.7214 43.9248 37.4786 43.1963 37.4786C42.6963 37.4786 42.2844 37.5929 41.9605 37.8214C41.6367 38.0452 41.3963 38.3571 41.2391 38.7571C41.082 39.1524 41.0034 39.6119 41.0034 40.1357C41.0034 40.9452 41.1891 41.5929 41.5605 42.0786C41.932 42.5643 42.4772 42.8071 43.1963 42.8071ZM54.5373 44V40.2071C54.5373 39.9071 54.5111 39.6 54.4588 39.2857C54.4111 38.9667 54.3159 38.6714 54.173 38.4C54.035 38.1286 53.8373 37.9095 53.5802 37.7429C53.3278 37.5762 52.9969 37.4929 52.5873 37.4929C52.3207 37.4929 52.0683 37.5381 51.8302 37.6286C51.5921 37.7143 51.3826 37.8548 51.2016 38.05C51.0254 38.2452 50.885 38.5024 50.7802 38.8214C50.6802 39.1405 50.6302 39.5286 50.6302 39.9857L49.7016 39.6357C49.7016 38.9357 49.8326 38.319 50.0945 37.7857C50.3564 37.2476 50.7326 36.8286 51.223 36.5286C51.7135 36.2286 52.3064 36.0786 53.0016 36.0786C53.535 36.0786 53.9826 36.1643 54.3445 36.3357C54.7064 36.5071 54.9992 36.7333 55.223 37.0143C55.4516 37.2905 55.6254 37.5929 55.7445 37.9214C55.8635 38.25 55.9445 38.5714 55.9873 38.8857C56.0302 39.2 56.0516 39.4762 56.0516 39.7143V44H54.5373ZM49.1159 44V36.2857H50.4516V38.5143H50.6302V44H49.1159ZM57.7693 44V43.7643L62.1478 37.6214H58.1693V36.2857H64.5193V36.5286L60.1478 42.6643H64.305V44H57.7693ZM69.5076 44.2143C68.741 44.2143 68.0672 44.0476 67.4862 43.7143C66.91 43.3762 66.46 42.9071 66.1362 42.3071C65.8172 41.7024 65.6576 41.0024 65.6576 40.2071C65.6576 39.3643 65.8148 38.6333 66.1291 38.0143C66.4481 37.3952 66.891 36.9167 67.4576 36.5786C68.0243 36.2405 68.6838 36.0714 69.4362 36.0714C70.2219 36.0714 70.891 36.2548 71.4434 36.6214C71.9957 36.9833 72.4076 37.5 72.6791 38.1714C72.9553 38.8429 73.0648 39.6405 73.0076 40.5643H71.5148V40.0214C71.5053 39.1262 71.3338 38.4643 71.0005 38.0357C70.6719 37.6071 70.1696 37.3929 69.4934 37.3929C68.7457 37.3929 68.1838 37.6286 67.8076 38.1C67.4315 38.5714 67.2434 39.2524 67.2434 40.1429C67.2434 40.9905 67.4315 41.6476 67.8076 42.1143C68.1838 42.5762 68.7267 42.8071 69.4362 42.8071C69.9029 42.8071 70.3053 42.7024 70.6434 42.4929C70.9862 42.2786 71.2529 41.9738 71.4434 41.5786L72.9076 42.0429C72.6076 42.7333 72.1529 43.269 71.5434 43.65C70.9338 44.0262 70.2553 44.2143 69.5076 44.2143ZM66.7576 40.5643V39.4H72.2648V40.5643H66.7576ZM26.9146 61V50.7143H30.9575C31.6099 50.7143 32.1575 50.8476 32.6003 51.1143C33.0432 51.381 33.3765 51.7262 33.6003 52.15C33.8241 52.569 33.936 53.0119 33.936 53.4786C33.936 54.0452 33.7956 54.531 33.5146 54.9357C33.2384 55.3405 32.8646 55.6167 32.3932 55.7643L32.3789 55.4143C33.036 55.5762 33.5408 55.8929 33.8932 56.3643C34.2456 56.831 34.4218 57.3762 34.4218 58C34.4218 58.6048 34.3003 59.131 34.0575 59.5786C33.8194 60.0262 33.4694 60.3762 33.0075 60.6286C32.5503 60.8762 31.9956 61 31.3432 61H26.9146ZM28.4289 59.5786H31.1146C31.4527 59.5786 31.7551 59.5143 32.0218 59.3857C32.2932 59.2571 32.5051 59.0738 32.6575 58.8357C32.8146 58.5929 32.8932 58.3048 32.8932 57.9714C32.8932 57.6619 32.8241 57.3833 32.686 57.1357C32.5527 56.8833 32.3575 56.6857 32.1003 56.5429C31.848 56.3952 31.5503 56.3214 31.2075 56.3214H28.4289V59.5786ZM28.4289 54.9143H30.936C31.2122 54.9143 31.4599 54.8595 31.6789 54.75C31.9027 54.6357 32.0789 54.4738 32.2075 54.2643C32.3408 54.05 32.4075 53.7929 32.4075 53.4929C32.4075 53.0929 32.2741 52.7643 32.0075 52.5071C31.7408 52.25 31.3837 52.1214 30.936 52.1214H28.4289V54.9143ZM39.836 61.2143C39.0694 61.2143 38.3956 61.0476 37.8146 60.7143C37.2384 60.3762 36.7884 59.9071 36.4646 59.3071C36.1456 58.7024 35.986 58.0024 35.986 57.2071C35.986 56.3643 36.1432 55.6333 36.4575 55.0143C36.7765 54.3952 37.2194 53.9167 37.786 53.5786C38.3527 53.2405 39.0122 53.0714 39.7646 53.0714C40.5503 53.0714 41.2194 53.2548 41.7718 53.6214C42.3241 53.9833 42.736 54.5 43.0075 55.1714C43.2837 55.8429 43.3932 56.6405 43.336 57.5643H41.8432V57.0214C41.8337 56.1262 41.6622 55.4643 41.3289 55.0357C41.0003 54.6071 40.498 54.3929 39.8218 54.3929C39.0741 54.3929 38.5122 54.6286 38.136 55.1C37.7599 55.5714 37.5718 56.2524 37.5718 57.1429C37.5718 57.9905 37.7599 58.6476 38.136 59.1143C38.5122 59.5762 39.0551 59.8071 39.7646 59.8071C40.2313 59.8071 40.6337 59.7024 40.9718 59.4929C41.3146 59.2786 41.5813 58.9738 41.7718 58.5786L43.236 59.0429C42.936 59.7333 42.4813 60.269 41.8718 60.65C41.2622 61.0262 40.5837 61.2143 39.836 61.2143ZM37.086 57.5643V56.4H42.5932V57.5643H37.086ZM49.9243 61C49.4386 61.0952 48.9624 61.1357 48.4958 61.1214C48.0291 61.1071 47.6124 61.0167 47.2458 60.85C46.8791 60.6833 46.6029 60.4214 46.4172 60.0643C46.2505 59.7452 46.16 59.4214 46.1458 59.0929C46.1362 58.7595 46.1315 58.3833 46.1315 57.9643V51.1429H47.6315V57.8929C47.6315 58.2024 47.6339 58.4714 47.6386 58.7C47.6481 58.9286 47.6981 59.1214 47.7886 59.2786C47.96 59.5738 48.2315 59.7429 48.6029 59.7857C48.9791 59.8238 49.4196 59.8071 49.9243 59.7357V61ZM44.6529 54.4857V53.2857H49.9243V54.4857H44.6529ZM55.1029 61C54.6172 61.0952 54.141 61.1357 53.6743 61.1214C53.2077 61.1071 52.791 61.0167 52.4243 60.85C52.0577 60.6833 51.7815 60.4214 51.5958 60.0643C51.4291 59.7452 51.3386 59.4214 51.3243 59.0929C51.3148 58.7595 51.31 58.3833 51.31 57.9643V51.1429H52.81V57.8929C52.81 58.2024 52.8124 58.4714 52.8172 58.7C52.8267 58.9286 52.8767 59.1214 52.9672 59.2786C53.1386 59.5738 53.41 59.7429 53.7815 59.7857C54.1577 59.8238 54.5981 59.8071 55.1029 59.7357V61ZM49.8315 54.4857V53.2857H55.1029V54.4857H49.8315ZM60.634 61.2143C59.8626 61.2143 59.1936 61.0405 58.6269 60.6929C58.0602 60.3452 57.6221 59.8667 57.3126 59.2571C57.0079 58.6429 56.8555 57.9357 56.8555 57.1357C56.8555 56.331 57.0126 55.6238 57.3269 55.0143C57.6412 54.4 58.0817 53.9238 58.6483 53.5857C59.215 53.2429 59.8769 53.0714 60.634 53.0714C61.4055 53.0714 62.0745 53.2452 62.6412 53.5929C63.2079 53.9405 63.6459 54.419 63.9555 55.0286C64.265 55.6381 64.4198 56.3405 64.4198 57.1357C64.4198 57.9405 64.2626 58.65 63.9483 59.2643C63.6388 59.8738 63.2007 60.3524 62.634 60.7C62.0674 61.0429 61.4007 61.2143 60.634 61.2143ZM60.634 59.8071C61.3721 59.8071 61.9221 59.5595 62.284 59.0643C62.6507 58.5643 62.834 57.9214 62.834 57.1357C62.834 56.331 62.6483 55.6881 62.2769 55.2071C61.9102 54.7214 61.3626 54.4786 60.634 54.4786C60.134 54.4786 59.7221 54.5929 59.3983 54.8214C59.0745 55.0452 58.834 55.3571 58.6769 55.7571C58.5198 56.1524 58.4412 56.6119 58.4412 57.1357C58.4412 57.9452 58.6269 58.5929 58.9983 59.0786C59.3698 59.5643 59.915 59.8071 60.634 59.8071ZM66.5608 61V53.2857H67.8894V55.1571L67.7037 54.9143C67.7989 54.6667 67.9227 54.4405 68.0751 54.2357C68.2275 54.0262 68.4037 53.8548 68.6037 53.7214C68.7989 53.5786 69.0156 53.469 69.2537 53.3929C69.4965 53.3119 69.7442 53.2643 69.9965 53.25C70.2489 53.231 70.4918 53.2429 70.7251 53.2857V54.6857C70.4727 54.619 70.1918 54.6 69.8823 54.6286C69.5775 54.6571 69.2965 54.7548 69.0394 54.9214C68.7965 55.0786 68.6037 55.269 68.4608 55.4929C68.3227 55.7167 68.2227 55.9667 68.1608 56.2429C68.0989 56.5143 68.068 56.8024 68.068 57.1071V61H66.5608Z"/>
</mask>
<g filter="url(#filter0_ii_1117_12205)">
<path d="M24.3898 44V33.7143H28.4326C29.085 33.7143 29.6326 33.8476 30.0755 34.1143C30.5184 34.381 30.8517 34.7262 31.0755 35.15C31.2993 35.569 31.4112 36.0119 31.4112 36.4786C31.4112 37.0452 31.2707 37.531 30.9898 37.9357C30.7136 38.3405 30.3398 38.6167 29.8684 38.7643L29.8541 38.4143C30.5112 38.5762 31.016 38.8929 31.3684 39.3643C31.7207 39.831 31.8969 40.3762 31.8969 41C31.8969 41.6048 31.7755 42.131 31.5326 42.5786C31.2945 43.0262 30.9445 43.3762 30.4826 43.6286C30.0255 43.8762 29.4707 44 28.8184 44H24.3898ZM25.9041 42.5786H28.5898C28.9279 42.5786 29.2303 42.5143 29.4969 42.3857C29.7684 42.2571 29.9803 42.0738 30.1326 41.8357C30.2898 41.5929 30.3684 41.3048 30.3684 40.9714C30.3684 40.6619 30.2993 40.3833 30.1612 40.1357C30.0279 39.8833 29.8326 39.6857 29.5755 39.5429C29.3231 39.3952 29.0255 39.3214 28.6826 39.3214H25.9041V42.5786ZM25.9041 37.9143H28.4112C28.6874 37.9143 28.935 37.8595 29.1541 37.75C29.3779 37.6357 29.5541 37.4738 29.6826 37.2643C29.816 37.05 29.8826 36.7929 29.8826 36.4929C29.8826 36.0929 29.7493 35.7643 29.4826 35.5071C29.216 35.25 28.8588 35.1214 28.4112 35.1214H25.9041V37.9143ZM33.8898 44V36.2857H35.2184V38.1571L35.0326 37.9143C35.1279 37.6667 35.2517 37.4405 35.4041 37.2357C35.5565 37.0262 35.7326 36.8548 35.9326 36.7214C36.1279 36.5786 36.3445 36.469 36.5826 36.3929C36.8255 36.3119 37.0731 36.2643 37.3255 36.25C37.5779 36.231 37.8207 36.2429 38.0541 36.2857V37.6857C37.8017 37.619 37.5207 37.6 37.2112 37.6286C36.9065 37.6571 36.6255 37.7548 36.3684 37.9214C36.1255 38.0786 35.9326 38.269 35.7898 38.4929C35.6517 38.7167 35.5517 38.9667 35.4898 39.2429C35.4279 39.5143 35.3969 39.8024 35.3969 40.1071V44H33.8898ZM43.1963 44.2143C42.4248 44.2143 41.7558 44.0405 41.1891 43.6929C40.6225 43.3452 40.1844 42.8667 39.8748 42.2571C39.5701 41.6429 39.4177 40.9357 39.4177 40.1357C39.4177 39.331 39.5748 38.6238 39.8891 38.0143C40.2034 37.4 40.6439 36.9238 41.2105 36.5857C41.7772 36.2429 42.4391 36.0714 43.1963 36.0714C43.9677 36.0714 44.6367 36.2452 45.2034 36.5929C45.7701 36.9405 46.2082 37.419 46.5177 38.0286C46.8272 38.6381 46.982 39.3405 46.982 40.1357C46.982 40.9405 46.8248 41.65 46.5105 42.2643C46.201 42.8738 45.7629 43.3524 45.1963 43.7C44.6296 44.0429 43.9629 44.2143 43.1963 44.2143ZM43.1963 42.8071C43.9344 42.8071 44.4844 42.5595 44.8463 42.0643C45.2129 41.5643 45.3963 40.9214 45.3963 40.1357C45.3963 39.331 45.2105 38.6881 44.8391 38.2071C44.4725 37.7214 43.9248 37.4786 43.1963 37.4786C42.6963 37.4786 42.2844 37.5929 41.9605 37.8214C41.6367 38.0452 41.3963 38.3571 41.2391 38.7571C41.082 39.1524 41.0034 39.6119 41.0034 40.1357C41.0034 40.9452 41.1891 41.5929 41.5605 42.0786C41.932 42.5643 42.4772 42.8071 43.1963 42.8071ZM54.5373 44V40.2071C54.5373 39.9071 54.5111 39.6 54.4588 39.2857C54.4111 38.9667 54.3159 38.6714 54.173 38.4C54.035 38.1286 53.8373 37.9095 53.5802 37.7429C53.3278 37.5762 52.9969 37.4929 52.5873 37.4929C52.3207 37.4929 52.0683 37.5381 51.8302 37.6286C51.5921 37.7143 51.3826 37.8548 51.2016 38.05C51.0254 38.2452 50.885 38.5024 50.7802 38.8214C50.6802 39.1405 50.6302 39.5286 50.6302 39.9857L49.7016 39.6357C49.7016 38.9357 49.8326 38.319 50.0945 37.7857C50.3564 37.2476 50.7326 36.8286 51.223 36.5286C51.7135 36.2286 52.3064 36.0786 53.0016 36.0786C53.535 36.0786 53.9826 36.1643 54.3445 36.3357C54.7064 36.5071 54.9992 36.7333 55.223 37.0143C55.4516 37.2905 55.6254 37.5929 55.7445 37.9214C55.8635 38.25 55.9445 38.5714 55.9873 38.8857C56.0302 39.2 56.0516 39.4762 56.0516 39.7143V44H54.5373ZM49.1159 44V36.2857H50.4516V38.5143H50.6302V44H49.1159ZM57.7693 44V43.7643L62.1478 37.6214H58.1693V36.2857H64.5193V36.5286L60.1478 42.6643H64.305V44H57.7693ZM69.5076 44.2143C68.741 44.2143 68.0672 44.0476 67.4862 43.7143C66.91 43.3762 66.46 42.9071 66.1362 42.3071C65.8172 41.7024 65.6576 41.0024 65.6576 40.2071C65.6576 39.3643 65.8148 38.6333 66.1291 38.0143C66.4481 37.3952 66.891 36.9167 67.4576 36.5786C68.0243 36.2405 68.6838 36.0714 69.4362 36.0714C70.2219 36.0714 70.891 36.2548 71.4434 36.6214C71.9957 36.9833 72.4076 37.5 72.6791 38.1714C72.9553 38.8429 73.0648 39.6405 73.0076 40.5643H71.5148V40.0214C71.5053 39.1262 71.3338 38.4643 71.0005 38.0357C70.6719 37.6071 70.1696 37.3929 69.4934 37.3929C68.7457 37.3929 68.1838 37.6286 67.8076 38.1C67.4315 38.5714 67.2434 39.2524 67.2434 40.1429C67.2434 40.9905 67.4315 41.6476 67.8076 42.1143C68.1838 42.5762 68.7267 42.8071 69.4362 42.8071C69.9029 42.8071 70.3053 42.7024 70.6434 42.4929C70.9862 42.2786 71.2529 41.9738 71.4434 41.5786L72.9076 42.0429C72.6076 42.7333 72.1529 43.269 71.5434 43.65C70.9338 44.0262 70.2553 44.2143 69.5076 44.2143ZM66.7576 40.5643V39.4H72.2648V40.5643H66.7576ZM26.9146 61V50.7143H30.9575C31.6099 50.7143 32.1575 50.8476 32.6003 51.1143C33.0432 51.381 33.3765 51.7262 33.6003 52.15C33.8241 52.569 33.936 53.0119 33.936 53.4786C33.936 54.0452 33.7956 54.531 33.5146 54.9357C33.2384 55.3405 32.8646 55.6167 32.3932 55.7643L32.3789 55.4143C33.036 55.5762 33.5408 55.8929 33.8932 56.3643C34.2456 56.831 34.4218 57.3762 34.4218 58C34.4218 58.6048 34.3003 59.131 34.0575 59.5786C33.8194 60.0262 33.4694 60.3762 33.0075 60.6286C32.5503 60.8762 31.9956 61 31.3432 61H26.9146ZM28.4289 59.5786H31.1146C31.4527 59.5786 31.7551 59.5143 32.0218 59.3857C32.2932 59.2571 32.5051 59.0738 32.6575 58.8357C32.8146 58.5929 32.8932 58.3048 32.8932 57.9714C32.8932 57.6619 32.8241 57.3833 32.686 57.1357C32.5527 56.8833 32.3575 56.6857 32.1003 56.5429C31.848 56.3952 31.5503 56.3214 31.2075 56.3214H28.4289V59.5786ZM28.4289 54.9143H30.936C31.2122 54.9143 31.4599 54.8595 31.6789 54.75C31.9027 54.6357 32.0789 54.4738 32.2075 54.2643C32.3408 54.05 32.4075 53.7929 32.4075 53.4929C32.4075 53.0929 32.2741 52.7643 32.0075 52.5071C31.7408 52.25 31.3837 52.1214 30.936 52.1214H28.4289V54.9143ZM39.836 61.2143C39.0694 61.2143 38.3956 61.0476 37.8146 60.7143C37.2384 60.3762 36.7884 59.9071 36.4646 59.3071C36.1456 58.7024 35.986 58.0024 35.986 57.2071C35.986 56.3643 36.1432 55.6333 36.4575 55.0143C36.7765 54.3952 37.2194 53.9167 37.786 53.5786C38.3527 53.2405 39.0122 53.0714 39.7646 53.0714C40.5503 53.0714 41.2194 53.2548 41.7718 53.6214C42.3241 53.9833 42.736 54.5 43.0075 55.1714C43.2837 55.8429 43.3932 56.6405 43.336 57.5643H41.8432V57.0214C41.8337 56.1262 41.6622 55.4643 41.3289 55.0357C41.0003 54.6071 40.498 54.3929 39.8218 54.3929C39.0741 54.3929 38.5122 54.6286 38.136 55.1C37.7599 55.5714 37.5718 56.2524 37.5718 57.1429C37.5718 57.9905 37.7599 58.6476 38.136 59.1143C38.5122 59.5762 39.0551 59.8071 39.7646 59.8071C40.2313 59.8071 40.6337 59.7024 40.9718 59.4929C41.3146 59.2786 41.5813 58.9738 41.7718 58.5786L43.236 59.0429C42.936 59.7333 42.4813 60.269 41.8718 60.65C41.2622 61.0262 40.5837 61.2143 39.836 61.2143ZM37.086 57.5643V56.4H42.5932V57.5643H37.086ZM49.9243 61C49.4386 61.0952 48.9624 61.1357 48.4958 61.1214C48.0291 61.1071 47.6124 61.0167 47.2458 60.85C46.8791 60.6833 46.6029 60.4214 46.4172 60.0643C46.2505 59.7452 46.16 59.4214 46.1458 59.0929C46.1362 58.7595 46.1315 58.3833 46.1315 57.9643V51.1429H47.6315V57.8929C47.6315 58.2024 47.6339 58.4714 47.6386 58.7C47.6481 58.9286 47.6981 59.1214 47.7886 59.2786C47.96 59.5738 48.2315 59.7429 48.6029 59.7857C48.9791 59.8238 49.4196 59.8071 49.9243 59.7357V61ZM44.6529 54.4857V53.2857H49.9243V54.4857H44.6529ZM55.1029 61C54.6172 61.0952 54.141 61.1357 53.6743 61.1214C53.2077 61.1071 52.791 61.0167 52.4243 60.85C52.0577 60.6833 51.7815 60.4214 51.5958 60.0643C51.4291 59.7452 51.3386 59.4214 51.3243 59.0929C51.3148 58.7595 51.31 58.3833 51.31 57.9643V51.1429H52.81V57.8929C52.81 58.2024 52.8124 58.4714 52.8172 58.7C52.8267 58.9286 52.8767 59.1214 52.9672 59.2786C53.1386 59.5738 53.41 59.7429 53.7815 59.7857C54.1577 59.8238 54.5981 59.8071 55.1029 59.7357V61ZM49.8315 54.4857V53.2857H55.1029V54.4857H49.8315ZM60.634 61.2143C59.8626 61.2143 59.1936 61.0405 58.6269 60.6929C58.0602 60.3452 57.6221 59.8667 57.3126 59.2571C57.0079 58.6429 56.8555 57.9357 56.8555 57.1357C56.8555 56.331 57.0126 55.6238 57.3269 55.0143C57.6412 54.4 58.0817 53.9238 58.6483 53.5857C59.215 53.2429 59.8769 53.0714 60.634 53.0714C61.4055 53.0714 62.0745 53.2452 62.6412 53.5929C63.2079 53.9405 63.6459 54.419 63.9555 55.0286C64.265 55.6381 64.4198 56.3405 64.4198 57.1357C64.4198 57.9405 64.2626 58.65 63.9483 59.2643C63.6388 59.8738 63.2007 60.3524 62.634 60.7C62.0674 61.0429 61.4007 61.2143 60.634 61.2143ZM60.634 59.8071C61.3721 59.8071 61.9221 59.5595 62.284 59.0643C62.6507 58.5643 62.834 57.9214 62.834 57.1357C62.834 56.331 62.6483 55.6881 62.2769 55.2071C61.9102 54.7214 61.3626 54.4786 60.634 54.4786C60.134 54.4786 59.7221 54.5929 59.3983 54.8214C59.0745 55.0452 58.834 55.3571 58.6769 55.7571C58.5198 56.1524 58.4412 56.6119 58.4412 57.1357C58.4412 57.9452 58.6269 58.5929 58.9983 59.0786C59.3698 59.5643 59.915 59.8071 60.634 59.8071ZM66.5608 61V53.2857H67.8894V55.1571L67.7037 54.9143C67.7989 54.6667 67.9227 54.4405 68.0751 54.2357C68.2275 54.0262 68.4037 53.8548 68.6037 53.7214C68.7989 53.5786 69.0156 53.469 69.2537 53.3929C69.4965 53.3119 69.7442 53.2643 69.9965 53.25C70.2489 53.231 70.4918 53.2429 70.7251 53.2857V54.6857C70.4727 54.619 70.1918 54.6 69.8823 54.6286C69.5775 54.6571 69.2965 54.7548 69.0394 54.9214C68.7965 55.0786 68.6037 55.269 68.4608 55.4929C68.3227 55.7167 68.2227 55.9667 68.1608 56.2429C68.0989 56.5143 68.068 56.8024 68.068 57.1071V61H66.5608Z" fill="#FFD5AE"/>
</g>
<path d="M24.3898 44H21.5326C21.5326 45.578 22.8118 46.8571 24.3898 46.8571V44ZM24.3898 33.7143V30.8571C22.8118 30.8571 21.5326 32.1363 21.5326 33.7143H24.3898ZM31.0755 35.15L28.549 36.4842L28.5553 36.496L31.0755 35.15ZM30.9898 37.9357L28.6427 36.3065C28.6383 36.3128 28.634 36.319 28.6297 36.3253L30.9898 37.9357ZM29.8684 38.7643L27.0136 38.8808C27.0498 39.7688 27.4972 40.5893 28.2239 41.1008C28.9507 41.6123 29.8741 41.7564 30.7221 41.4909L29.8684 38.7643ZM29.8541 38.4143L30.5376 35.6401C29.6651 35.4251 28.7423 35.6332 28.0464 36.2017C27.3505 36.7702 26.9627 37.633 26.9993 38.5308L29.8541 38.4143ZM31.3684 39.3643L29.0798 41.0749L29.0882 41.086L31.3684 39.3643ZM31.5326 42.5786L29.0213 41.216C29.0176 41.223 29.0138 41.2299 29.0102 41.2368L31.5326 42.5786ZM30.4826 43.6286L31.8435 46.1409L31.8526 46.1359L30.4826 43.6286ZM25.9041 42.5786H23.0469C23.0469 44.1565 24.3261 45.4357 25.9041 45.4357V42.5786ZM29.4969 42.3857L28.2738 39.8036C28.2679 39.8064 28.262 39.8092 28.2561 39.8121L29.4969 42.3857ZM30.1326 41.8357L27.7339 40.2836C27.7313 40.2876 27.7287 40.2916 27.7262 40.2956L30.1326 41.8357ZM30.1612 40.1357L27.6349 41.4703C27.645 41.4895 27.6554 41.5085 27.6659 41.5273L30.1612 40.1357ZM29.5755 39.5429L28.133 42.0091C28.1512 42.0198 28.1695 42.0302 28.1879 42.0404L29.5755 39.5429ZM25.9041 39.3214V36.4643C24.3261 36.4643 23.0469 37.7435 23.0469 39.3214H25.9041ZM25.9041 37.9143H23.0469C23.0469 39.4922 24.3261 40.7714 25.9041 40.7714V37.9143ZM29.1541 37.75L30.4318 40.3055C30.439 40.3019 30.4462 40.2983 30.4534 40.2946L29.1541 37.75ZM29.6826 37.2643L27.2568 35.7549C27.2536 35.7599 27.2505 35.7649 27.2474 35.77L29.6826 37.2643ZM29.4826 35.5071L27.4994 37.5638L27.4994 37.5638L29.4826 35.5071ZM25.9041 35.1214V32.2643C24.3261 32.2643 23.0469 33.5435 23.0469 35.1214H25.9041ZM27.2469 44V33.7143H21.5326V44H27.2469ZM24.3898 36.5714H28.4326V30.8571H24.3898V36.5714ZM28.4326 36.5714C28.5659 36.5714 28.6357 36.5852 28.6567 36.5903C28.6747 36.5947 28.6494 36.5907 28.6016 36.5619L31.5494 31.6666C30.5589 31.0702 29.4699 30.8571 28.4326 30.8571V36.5714ZM28.6016 36.5619C28.6262 36.5767 28.6212 36.5774 28.6022 36.5578C28.5933 36.5485 28.5833 36.5368 28.5733 36.5231C28.5634 36.5094 28.5552 36.496 28.549 36.4842L33.602 33.8158C33.1162 32.8958 32.4016 32.1798 31.5494 31.6666L28.6016 36.5619ZM28.5553 36.496C28.5592 36.5034 28.5604 36.5066 28.5601 36.5057C28.5597 36.5048 28.5585 36.5016 28.5572 36.4964C28.5559 36.4912 28.555 36.4862 28.5545 36.4819C28.554 36.4778 28.5541 36.4764 28.5541 36.4786H34.2684C34.2684 35.5336 34.0366 34.6294 33.5957 33.804L28.5553 36.496ZM28.5541 36.4786C28.5541 36.5253 28.5484 36.5182 28.5612 36.4741C28.5749 36.4266 28.6015 36.3658 28.6427 36.3065L33.3369 39.5649C33.9979 38.6126 34.2684 37.5373 34.2684 36.4786H28.5541ZM28.6297 36.3253C28.6624 36.2775 28.7199 36.211 28.8044 36.1485C28.8888 36.0862 28.9662 36.0528 29.0146 36.0377L30.7221 41.4909C31.8015 41.1529 32.7082 40.4864 33.3498 39.5461L28.6297 36.3253ZM32.7231 38.6478L32.7088 38.2978L26.9993 38.5308L27.0136 38.8808L32.7231 38.6478ZM29.1706 41.1885C29.2433 41.2064 29.2448 41.2171 29.2071 41.1935C29.1889 41.1821 29.166 41.1654 29.1417 41.143C29.1173 41.1205 29.0964 41.097 29.0799 41.0749L33.6568 37.6537C32.8503 36.5747 31.7352 35.9352 30.5376 35.6401L29.1706 41.1885ZM29.0882 41.086C29.0837 41.08 29.0758 41.0684 29.0671 41.0519C29.0584 41.0352 29.0513 41.0179 29.0461 41.0018C29.0347 40.9665 29.0398 40.96 29.0398 41H34.7541C34.7541 39.799 34.4011 38.6393 33.6485 37.6426L29.0882 41.086ZM29.0398 41C29.0398 41.1115 29.0286 41.1767 29.0219 41.2058C29.0156 41.2328 29.0126 41.2321 29.0213 41.216L34.044 43.9411C34.5528 43.0033 34.7541 41.9915 34.7541 41H29.0398ZM29.0102 41.2368C29.0207 41.217 29.0413 41.1864 29.0713 41.1565C29.1006 41.1272 29.1199 41.1173 29.1127 41.1213L31.8526 46.1359C32.7845 45.6267 33.5446 44.8802 34.0551 43.9203L29.0102 41.2368ZM29.1218 41.1163C29.1759 41.087 29.1144 41.1429 28.8184 41.1429V46.8571C29.8271 46.8571 30.8751 46.6654 31.8435 46.1408L29.1218 41.1163ZM28.8184 41.1429H24.3898V46.8571H28.8184V41.1429ZM25.9041 45.4357H28.5898V39.7214H25.9041V45.4357ZM28.5898 45.4357C29.2964 45.4357 30.0325 45.2994 30.7378 44.9593L28.2561 39.8121C28.428 39.7292 28.5594 39.7214 28.5898 39.7214V45.4357ZM30.72 44.9678C31.4442 44.6248 32.0795 44.094 32.5391 43.3759L27.7262 40.2956C27.7969 40.1851 27.8862 40.0809 27.99 39.9911C28.093 39.902 28.1928 39.842 28.2738 39.8036L30.72 44.9678ZM32.5314 43.3879C33.0313 42.6154 33.2255 41.7696 33.2255 40.9714H27.5112C27.5112 40.84 27.5483 40.5703 27.7339 40.2836L32.5314 43.3879ZM33.2255 40.9714C33.2255 40.2206 33.0533 39.4555 32.6565 38.7441L27.6659 41.5273C27.5453 41.3112 27.5112 41.1032 27.5112 40.9714H33.2255ZM32.6875 38.8011C32.2871 38.0432 31.6888 37.4485 30.9631 37.0453L28.1879 42.0404C28.0934 41.9879 27.9862 41.9115 27.8823 41.8062C27.7778 41.7005 27.6954 41.5847 27.6349 41.4703L32.6875 38.8011ZM31.018 37.0766C30.2576 36.6318 29.4442 36.4643 28.6826 36.4643V42.1786C28.6068 42.1786 28.3887 42.1587 28.133 42.0091L31.018 37.0766ZM28.6826 36.4643H25.9041V42.1786H28.6826V36.4643ZM23.0469 39.3214V42.5786H28.7612V39.3214H23.0469ZM25.9041 40.7714H28.4112V35.0571H25.9041V40.7714ZM28.4112 40.7714C29.0738 40.7714 29.7679 40.6375 30.4318 40.3055L27.8763 35.1945C28.1021 35.0816 28.301 35.0571 28.4112 35.0571V40.7714ZM30.4534 40.2946C31.1343 39.9469 31.7081 39.4264 32.1179 38.7586L27.2474 35.77C27.4001 35.5212 27.6215 35.3245 27.8547 35.2054L30.4534 40.2946ZM32.1085 38.7737C32.573 38.0272 32.7398 37.2246 32.7398 36.4929H27.0255C27.0255 36.3611 27.0589 36.0728 27.2568 35.7549L32.1085 38.7737ZM32.7398 36.4929C32.7398 35.3858 32.3386 34.292 31.4659 33.4504L27.4994 37.5638C27.3582 37.4277 27.2255 37.2433 27.1352 37.0208C27.0467 36.8028 27.0255 36.6142 27.0255 36.4929H32.7398ZM31.4659 33.4504C30.5595 32.5764 29.435 32.2643 28.4112 32.2643V37.9786C28.3629 37.9786 28.2289 37.9716 28.047 37.9061C27.8559 37.8373 27.6635 37.7221 27.4994 37.5638L31.4659 33.4504ZM28.4112 32.2643H25.9041V37.9786H28.4112V32.2643ZM23.0469 35.1214V37.9143H28.7612V35.1214H23.0469ZM33.8898 44H31.0326C31.0326 45.578 32.3118 46.8571 33.8898 46.8571V44ZM33.8898 36.2857V33.4286C32.3118 33.4286 31.0326 34.7078 31.0326 36.2857H33.8898ZM35.2184 36.2857H38.0755C38.0755 34.7078 36.7963 33.4286 35.2184 33.4286V36.2857ZM35.2184 38.1571L32.9488 39.8927C33.6928 40.8657 34.9743 41.2562 36.1345 40.8634C37.2947 40.4706 38.0755 39.382 38.0755 38.1571H35.2184ZM35.0326 37.9143L32.3659 36.8886C32.0095 37.8155 32.1598 38.861 32.763 39.6499L35.0326 37.9143ZM35.4041 37.2357L37.6962 38.9415C37.7024 38.9331 37.7086 38.9247 37.7147 38.9162L35.4041 37.2357ZM35.9326 36.7214L37.5175 39.0987C37.5521 39.0756 37.5862 39.0518 37.6198 39.0272L35.9326 36.7214ZM36.5826 36.3929L37.4534 39.1141C37.4644 39.1106 37.4753 39.107 37.4861 39.1034L36.5826 36.3929ZM37.3255 36.25L37.487 39.1026C37.5048 39.1016 37.5227 39.1004 37.5405 39.099L37.3255 36.25ZM38.0541 36.2857H40.9112C40.9112 34.9068 39.9264 33.7247 38.5702 33.4756L38.0541 36.2857ZM38.0541 37.6857L37.3244 40.4481C38.1815 40.6745 39.0951 40.4902 39.7974 39.9493C40.4997 39.4085 40.9112 38.5722 40.9112 37.6857H38.0541ZM37.2112 37.6286L36.9486 34.7835L36.9445 34.7839L37.2112 37.6286ZM36.3684 37.9214L37.9205 40.3202L37.9223 40.319L36.3684 37.9214ZM35.7898 38.4929L33.3814 36.9556C33.3736 36.9679 33.3659 36.9802 33.3583 36.9925L35.7898 38.4929ZM35.4898 39.2429L38.2754 39.8782L38.2778 39.8677L35.4898 39.2429ZM35.3969 44V46.8571C36.9749 46.8571 38.2541 45.578 38.2541 44H35.3969ZM36.7469 44V36.2857H31.0326V44H36.7469ZM33.8898 39.1429H35.2184V33.4286H33.8898V39.1429ZM32.3612 36.2857V38.1571H38.0755V36.2857H32.3612ZM37.488 36.4216L37.3022 36.1787L32.763 39.6499L32.9488 39.8927L37.488 36.4216ZM37.6993 38.9399C37.7026 38.9316 37.7041 38.929 37.7032 38.9308C37.7022 38.9326 37.6998 38.9366 37.6962 38.9415L33.112 35.53C32.7983 35.9514 32.5508 36.4079 32.3659 36.8886L37.6993 38.9399ZM37.7147 38.9162C37.6838 38.9587 37.6199 39.0304 37.5175 39.0987L34.3478 34.3441C33.8454 34.6791 33.4291 35.0937 33.0934 35.5552L37.7147 38.9162ZM37.6198 39.0272C37.5588 39.0719 37.4982 39.0998 37.4534 39.1141L35.7119 33.6716C35.1909 33.8383 34.697 34.0853 34.2455 34.4156L37.6198 39.0272ZM37.4861 39.1034C37.4903 39.102 37.4914 39.1019 37.4901 39.1022C37.4887 39.1024 37.4874 39.1026 37.487 39.1026L37.164 33.3974C36.6559 33.4262 36.1589 33.5224 35.6791 33.6823L37.4861 39.1034ZM37.5405 39.099C37.5534 39.0981 37.5586 39.0984 37.557 39.0984C37.5554 39.0983 37.5486 39.0978 37.5379 39.0958L38.5702 33.4756C38.0803 33.3856 37.591 33.3647 37.1105 33.401L37.5405 39.099ZM35.1969 36.2857V37.6857H40.9112V36.2857H35.1969ZM38.7838 34.9233C38.1529 34.7567 37.5292 34.7299 36.9486 34.7835L37.4738 40.4736C37.5122 40.4701 37.4505 40.4814 37.3244 40.4481L38.7838 34.9233ZM36.9445 34.7839C36.1804 34.8555 35.4578 35.1068 34.8144 35.5238L37.9223 40.319C37.8642 40.3567 37.7925 40.3933 37.7097 40.4221C37.6269 40.4509 37.5476 40.4667 37.4779 40.4732L36.9445 34.7839ZM34.8162 35.5227C34.2606 35.8821 33.7638 36.3566 33.3814 36.9556L38.1981 40.0301C38.1015 40.1815 37.9904 40.275 37.9205 40.3202L34.8162 35.5227ZM33.3583 36.9925C33.0413 37.5062 32.8278 38.0559 32.7018 38.618L38.2778 39.8677C38.2756 39.8775 38.2621 39.9271 38.2213 39.9932L33.3583 36.9925ZM32.7042 38.6075C32.5905 39.106 32.5398 39.6086 32.5398 40.1071H38.2541C38.2541 39.9962 38.2653 39.9226 38.2754 39.8782L32.7042 38.6075ZM32.5398 40.1071V44H38.2541V40.1071H32.5398ZM35.3969 41.1429H33.8898V46.8571H35.3969V41.1429ZM41.1891 43.6929L39.6951 46.1283L41.1891 43.6929ZM39.8748 42.2571L37.3154 43.527C37.3193 43.5349 37.3233 43.5429 37.3273 43.5508L39.8748 42.2571ZM39.8891 38.0143L42.4286 39.3237L42.4327 39.3156L39.8891 38.0143ZM41.2105 36.5857L42.6745 39.0393C42.6795 39.0363 42.6846 39.0333 42.6896 39.0302L41.2105 36.5857ZM45.2034 36.5929L46.6974 34.1574V34.1574L45.2034 36.5929ZM46.5177 38.0286L43.9702 39.3222L43.9702 39.3222L46.5177 38.0286ZM46.5105 42.2643L43.967 40.9629L43.9631 40.9706L46.5105 42.2643ZM45.1963 43.7L46.6753 46.1445C46.6803 46.1415 46.6853 46.1385 46.6903 46.1354L45.1963 43.7ZM44.8463 42.0643L42.5422 40.3747L42.5394 40.3785L44.8463 42.0643ZM44.8391 38.2071L42.5588 39.9286C42.5651 39.9369 42.5714 39.9452 42.5778 39.9535L44.8391 38.2071ZM41.9605 37.8214L43.5851 40.1718C43.5928 40.1664 43.6005 40.161 43.6082 40.1556L41.9605 37.8214ZM41.2391 38.7571L43.8941 39.8127L43.8984 39.8019L41.2391 38.7571ZM41.5605 42.0786L43.8301 40.343L41.5605 42.0786ZM43.1963 41.3571C42.8662 41.3571 42.7322 41.2875 42.6831 41.2574L39.6951 46.1283C40.7794 46.7934 41.9835 47.0714 43.1963 47.0714V41.3571ZM42.6831 41.2574C42.5795 41.1939 42.5 41.1164 42.4223 40.9635L37.3273 43.5508C37.8687 44.6169 38.6654 45.4966 39.6951 46.1283L42.6831 41.2574ZM42.4343 40.9873C42.3555 40.8285 42.2748 40.5684 42.2748 40.1357H36.5605C36.5605 41.303 36.7847 42.4573 37.3154 43.527L42.4343 40.9873ZM42.2748 40.1357C42.2748 39.7076 42.3564 39.4635 42.4286 39.3237L37.3497 36.7049C36.7932 37.7841 36.5605 38.9543 36.5605 40.1357H42.2748ZM42.4327 39.3156C42.5142 39.1563 42.5904 39.0895 42.6745 39.0393L39.7466 34.1321C38.6974 34.7581 37.8926 35.6437 37.3456 36.7129L42.4327 39.3156ZM42.6896 39.0302C42.7492 38.9942 42.8844 38.9286 43.1963 38.9286V33.2143C41.9938 33.2143 40.8052 33.4915 39.7315 34.1412L42.6896 39.0302ZM43.1963 38.9286C43.5263 38.9286 43.6604 38.9982 43.7094 39.0283L46.6974 34.1574C45.6131 33.4923 44.409 33.2143 43.1963 33.2143V38.9286ZM43.7094 39.0283C43.813 39.0918 43.8925 39.1693 43.9702 39.3222L49.0652 36.7349C48.5238 35.6688 47.7272 34.7891 46.6974 34.1574L43.7094 39.0283ZM43.9702 39.3222C44.0453 39.4702 44.1248 39.7166 44.1248 40.1357H49.8391C49.8391 38.9643 49.6091 37.806 49.0652 36.7349L43.9702 39.3222ZM44.1248 40.1357C44.1248 40.5632 44.0434 40.8135 43.967 40.9629L49.0541 43.5656C49.6062 42.4865 49.8391 41.3177 49.8391 40.1357H44.1248ZM43.9631 40.9706C43.8854 41.1236 43.8058 41.201 43.7023 41.2646L46.6903 46.1354C47.72 45.5037 48.5167 44.624 49.058 43.5579L43.9631 40.9706ZM43.7172 41.2555C43.6631 41.2882 43.525 41.3571 43.1963 41.3571V47.0714C44.4009 47.0714 45.5961 46.7975 46.6753 46.1445L43.7172 41.2555ZM43.1963 45.6643C44.637 45.6643 46.1407 45.1355 47.1531 43.75L42.5394 40.3785C42.6453 40.2337 42.8052 40.0991 42.9894 40.0161C43.156 39.9411 43.2493 39.95 43.1963 39.95V45.6643ZM47.1503 43.7539C47.9623 42.6466 48.2534 41.3655 48.2534 40.1357H42.5391C42.5391 40.3087 42.5187 40.397 42.5112 40.4236C42.5052 40.4446 42.51 40.4186 42.5422 40.3747L47.1503 43.7539ZM48.2534 40.1357C48.2534 38.9037 47.967 37.5829 47.1004 36.4608L42.5778 39.9535C42.5226 39.882 42.5089 39.832 42.5121 39.843C42.5172 39.8607 42.5391 39.9492 42.5391 40.1357H48.2534ZM47.1195 36.4857C46.1035 35.1399 44.6224 34.6214 43.1963 34.6214V40.3357C43.2459 40.3357 43.156 40.3439 42.9951 40.2725C42.8181 40.194 42.6629 40.0665 42.5588 39.9286L47.1195 36.4857ZM43.1963 34.6214C42.2613 34.6214 41.2316 34.8387 40.3129 35.4872L43.6082 40.1556C43.4815 40.2451 43.3618 40.2937 43.2762 40.3174C43.1955 40.3398 43.1619 40.3357 43.1963 40.3357V34.6214ZM40.336 35.4711C39.5024 36.0472 38.9246 36.8347 38.5798 37.7124L43.8984 39.8019C43.8874 39.83 43.8586 39.8918 43.8 39.9677C43.7402 40.0454 43.666 40.1158 43.5851 40.1718L40.336 35.4711ZM38.5841 37.7015C38.2664 38.5006 38.1463 39.3315 38.1463 40.1357H43.8605C43.8605 39.8923 43.8975 39.8042 43.8941 39.8127L38.5841 37.7015ZM38.1463 40.1357C38.1463 41.3698 38.4313 42.69 39.291 43.8141L43.8301 40.343C43.8822 40.4111 43.8937 40.4567 43.8891 40.441C43.8827 40.4187 43.8605 40.3258 43.8605 40.1357H38.1463ZM39.291 43.8141C40.3019 45.1361 41.7638 45.6643 43.1963 45.6643V39.95C43.1568 39.95 43.2503 39.9437 43.4106 40.0151C43.5852 40.0928 43.7331 40.2161 43.8301 40.343L39.291 43.8141ZM54.5373 44H51.6802C51.6802 45.578 52.9594 46.8571 54.5373 46.8571V44ZM54.4588 39.2857L51.6329 39.7075C51.6353 39.7235 51.6378 39.7395 51.6405 39.7554L54.4588 39.2857ZM54.173 38.4L51.6265 39.6956C51.6325 39.7073 51.6386 39.719 51.6447 39.7307L54.173 38.4ZM53.5802 37.7429L52.0057 40.127C52.0125 40.1315 52.0194 40.136 52.0262 40.1404L53.5802 37.7429ZM51.8302 37.6286L52.798 40.3168C52.8137 40.3111 52.8294 40.3053 52.8451 40.2994L51.8302 37.6286ZM51.2016 38.05L49.1061 36.1078C49.0975 36.1171 49.089 36.1264 49.0805 36.1358L51.2016 38.05ZM50.7802 38.8214L48.0656 37.9301C48.0616 37.9423 48.0577 37.9546 48.0538 37.9669L50.7802 38.8214ZM50.6302 39.9857L49.6225 42.6592C50.5001 42.9901 51.4843 42.869 52.2556 42.3354C53.027 41.8018 53.4873 40.9236 53.4873 39.9857H50.6302ZM49.7016 39.6357H46.8445C46.8445 40.8249 47.5811 41.8898 48.6939 42.3092L49.7016 39.6357ZM50.0945 37.7857L52.6591 39.0451L52.6635 39.0361L50.0945 37.7857ZM51.223 36.5286L52.7139 38.9659L52.7139 38.9659L51.223 36.5286ZM54.3445 36.3357L55.5676 33.7536V33.7536L54.3445 36.3357ZM55.223 37.0143L52.9883 38.7945C52.9994 38.8084 53.0106 38.8222 53.0219 38.8359L55.223 37.0143ZM55.7445 37.9214L53.0582 38.8947L53.0582 38.8947L55.7445 37.9214ZM55.9873 38.8857L58.8183 38.4997V38.4997L55.9873 38.8857ZM56.0516 44V46.8571C57.6296 46.8571 58.9088 45.578 58.9088 44H56.0516ZM49.1159 44H46.2588C46.2588 45.578 47.5379 46.8571 49.1159 46.8571V44ZM49.1159 36.2857V33.4286C47.5379 33.4286 46.2588 34.7078 46.2588 36.2857H49.1159ZM50.4516 36.2857H53.3088C53.3088 34.7078 52.0296 33.4286 50.4516 33.4286V36.2857ZM50.4516 38.5143H47.5945C47.5945 40.0922 48.8737 41.3714 50.4516 41.3714V38.5143ZM50.6302 38.5143H53.4873C53.4873 36.9363 52.2081 35.6571 50.6302 35.6571V38.5143ZM50.6302 44V46.8571C52.2081 46.8571 53.4873 45.578 53.4873 44H50.6302ZM57.3945 44V40.2071H51.6802V44H57.3945ZM57.3945 40.2071C57.3945 39.7404 57.3537 39.276 57.277 38.816L51.6405 39.7554C51.6686 39.924 51.6802 40.0739 51.6802 40.2071H57.3945ZM57.2846 38.8639C57.1921 38.2439 57.0014 37.6393 56.7014 37.0693L51.6447 39.7307C51.6387 39.7194 51.6347 39.7091 51.6325 39.7021C51.6303 39.6954 51.6312 39.6963 51.6329 39.7075L57.2846 38.8639ZM56.7196 37.1044C56.3519 36.3818 55.8106 35.7837 55.1342 35.3453L52.0262 40.1404C51.9534 40.0933 51.8746 40.0289 51.7999 39.946C51.725 39.8631 51.6677 39.7765 51.6265 39.6956L56.7196 37.1044ZM55.1547 35.3587C54.2966 34.792 53.3637 34.6357 52.5873 34.6357V40.35C52.63 40.35 52.359 40.3604 52.0057 40.127L55.1547 35.3587ZM52.5873 34.6357C51.9904 34.6357 51.3926 34.7384 50.8153 34.9578L52.8451 40.2994C52.7439 40.3378 52.651 40.35 52.5873 40.35V34.6357ZM50.8624 34.9403C50.1717 35.189 49.5812 35.5952 49.1061 36.1078L53.2971 39.9922C53.1839 40.1143 53.0125 40.2396 52.798 40.3168L50.8624 34.9403ZM49.0805 36.1358C48.5743 36.6967 48.2616 37.3334 48.0656 37.9301L53.4947 39.7128C53.5083 39.6714 53.4765 39.7938 53.3227 39.9642L49.0805 36.1358ZM48.0538 37.9669C47.8419 38.643 47.773 39.3373 47.773 39.9857H53.4873C53.4873 39.8595 53.4943 39.7717 53.5014 39.7169C53.5085 39.6616 53.5142 39.6516 53.5065 39.676L48.0538 37.9669ZM51.6379 37.3122L50.7093 36.9622L48.6939 42.3092L49.6225 42.6592L51.6379 37.3122ZM52.5588 39.6357C52.5588 39.295 52.621 39.1226 52.6591 39.0451L47.5299 36.5263C47.0441 37.5155 46.8445 38.5764 46.8445 39.6357H52.5588ZM52.6635 39.0361C52.6749 39.0126 52.684 38.9977 52.6896 38.9893C52.6951 38.9811 52.6984 38.9773 52.6991 38.9765C52.6999 38.9757 52.7002 38.9754 52.701 38.9748C52.7018 38.9741 52.7055 38.971 52.7139 38.9659L49.7322 34.0912C48.7568 34.6878 48.0158 35.5279 47.5255 36.5353L52.6635 39.0361ZM52.7139 38.9659C52.6988 38.9751 52.7007 38.9699 52.7364 38.9609C52.775 38.9512 52.8587 38.9357 53.0016 38.9357V33.2214C51.8908 33.2214 50.7573 33.4643 49.7322 34.0912L52.7139 38.9659ZM53.0016 38.9357C53.1176 38.9357 53.1802 38.9452 53.2 38.949C53.2187 38.9526 53.1862 38.9485 53.1214 38.9178L55.5676 33.7536C54.7185 33.3514 53.8242 33.2214 53.0016 33.2214V38.9357ZM53.1214 38.9178C53.1319 38.9228 53.1178 38.9173 53.0891 38.8951C53.0595 38.8723 53.0235 38.8387 52.9883 38.7945L57.4578 35.2341C56.9325 34.5747 56.2777 34.09 55.5676 33.7536L53.1214 38.9178ZM53.0219 38.8359C53.0468 38.8659 53.0539 38.8827 53.0582 38.8947L58.4307 36.9481C58.197 36.303 57.8565 35.715 57.4242 35.1927L53.0219 38.8359ZM53.0582 38.8947C53.1153 39.0522 53.1434 39.1769 53.1564 39.2718L58.8183 38.4997C58.7455 37.966 58.6118 37.4478 58.4307 36.9481L53.0582 38.8947ZM53.1564 39.2717C53.1871 39.4973 53.1945 39.6396 53.1945 39.7143H58.9088C58.9088 39.3128 58.8732 38.9027 58.8183 38.4997L53.1564 39.2717ZM53.1945 39.7143V44H58.9088V39.7143H53.1945ZM56.0516 41.1429H54.5373V46.8571H56.0516V41.1429ZM51.973 44V36.2857H46.2588V44H51.973ZM49.1159 39.1429H50.4516V33.4286H49.1159V39.1429ZM47.5945 36.2857V38.5143H53.3088V36.2857H47.5945ZM50.4516 41.3714H50.6302V35.6571H50.4516V41.3714ZM47.773 38.5143V44H53.4873V38.5143H47.773ZM50.6302 41.1429H49.1159V46.8571H50.6302V41.1429ZM57.7693 44H54.9121C54.9121 45.578 56.1913 46.8571 57.7693 46.8571V44ZM57.7693 43.7643L55.4427 42.1059C55.0976 42.59 54.9121 43.1698 54.9121 43.7643H57.7693ZM62.1478 37.6214L64.4744 39.2798C65.0953 38.4087 65.1776 37.2637 64.6877 36.3128C64.1977 35.3619 63.2176 34.7643 62.1478 34.7643V37.6214ZM58.1693 37.6214H55.3121C55.3121 39.1994 56.5913 40.4786 58.1693 40.4786V37.6214ZM58.1693 36.2857V33.4286C56.5913 33.4286 55.3121 34.7078 55.3121 36.2857H58.1693ZM64.5193 36.2857H67.3764C67.3764 34.7078 66.0972 33.4286 64.5193 33.4286V36.2857ZM64.5193 36.5286L66.8462 38.1864C67.1911 37.7024 67.3764 37.1229 67.3764 36.5286H64.5193ZM60.1478 42.6643L57.8209 41.0064C57.2002 41.8776 57.1181 43.0224 57.6081 43.9732C58.0982 44.924 59.0782 45.5214 60.1478 45.5214V42.6643ZM64.305 42.6643H67.1621C67.1621 41.0863 65.8829 39.8071 64.305 39.8071V42.6643ZM64.305 44V46.8571C65.8829 46.8571 67.1621 45.578 67.1621 44H64.305ZM60.6264 44V43.7643H54.9121V44H60.6264ZM60.0959 45.4227L64.4744 39.2798L59.8212 35.9631L55.4427 42.1059L60.0959 45.4227ZM62.1478 34.7643H58.1693V40.4786H62.1478V34.7643ZM61.0264 37.6214V36.2857H55.3121V37.6214H61.0264ZM58.1693 39.1429H64.5193V33.4286H58.1693V39.1429ZM61.6621 36.2857V36.5286H67.3764V36.2857H61.6621ZM62.1923 34.8707L57.8209 41.0064L62.4748 44.3221L66.8462 38.1864L62.1923 34.8707ZM60.1478 45.5214H64.305V39.8071H60.1478V45.5214ZM61.4478 42.6643V44H67.1621V42.6643H61.4478ZM64.305 41.1429H57.7693V46.8571H64.305V41.1429ZM67.4862 43.7143L66.0403 46.1785C66.0483 46.1832 66.0563 46.1879 66.0643 46.1925L67.4862 43.7143ZM66.1362 42.3071L63.6092 43.6403C63.6134 43.6483 63.6176 43.6562 63.6219 43.6641L66.1362 42.3071ZM66.1291 38.0143L63.5894 36.7054C63.5867 36.7105 63.5841 36.7157 63.5815 36.7209L66.1291 38.0143ZM67.4576 36.5786L65.9937 34.125L67.4576 36.5786ZM71.4434 36.6214L69.8632 39.0019C69.868 39.005 69.8728 39.0082 69.8776 39.0113L71.4434 36.6214ZM72.6791 38.1714L70.0302 39.2423C70.0324 39.2476 70.0345 39.253 70.0367 39.2583L72.6791 38.1714ZM73.0076 40.5643V43.4214C74.5171 43.4214 75.7661 42.2473 75.8593 40.7407L73.0076 40.5643ZM71.5148 40.5643H68.6576C68.6576 42.1422 69.9368 43.4214 71.5148 43.4214V40.5643ZM71.5148 40.0214H74.3719C74.3719 40.0113 74.3719 40.0012 74.3718 39.991L71.5148 40.0214ZM71.0005 38.0357L68.7331 39.7741C68.7371 39.7794 68.7411 39.7846 68.7452 39.7898L71.0005 38.0357ZM67.8076 38.1L70.0409 39.8821V39.8821L67.8076 38.1ZM67.8076 42.1143L65.5832 43.9074C65.5862 43.9111 65.5893 43.9149 65.5923 43.9186L67.8076 42.1143ZM70.6434 42.4929L72.1484 44.9215L72.1576 44.9157L70.6434 42.4929ZM71.4434 41.5786L72.3069 38.8551C70.9517 38.4254 69.4867 39.0574 68.8695 40.3382L71.4434 41.5786ZM72.9076 42.0429L75.5281 43.1814C75.8504 42.4396 75.8432 41.596 75.5083 40.8598C75.1734 40.1236 74.5422 39.5638 73.7712 39.3193L72.9076 42.0429ZM71.5434 43.65L73.044 46.0814C73.0485 46.0785 73.0531 46.0757 73.0576 46.0729L71.5434 43.65ZM66.7576 40.5643H63.9005C63.9005 42.1422 65.1797 43.4214 66.7576 43.4214V40.5643ZM66.7576 39.4V36.5429C65.1797 36.5429 63.9005 37.822 63.9005 39.4H66.7576ZM72.2648 39.4H75.1219C75.1219 37.822 73.8427 36.5429 72.2648 36.5429V39.4ZM72.2648 40.5643V43.4214C73.8427 43.4214 75.1219 42.1422 75.1219 40.5643H72.2648ZM69.5076 41.3571C69.1667 41.3571 68.9969 41.2871 68.9081 41.2361L66.0643 46.1925C67.1374 46.8082 68.3153 47.0714 69.5076 47.0714V41.3571ZM68.9322 41.25C68.8163 41.1821 68.7316 41.1003 68.6506 40.9502L63.6219 43.6641C64.1885 44.714 65.0037 45.5703 66.0403 46.1785L68.9322 41.25ZM68.6633 40.974C68.5939 40.8425 68.5148 40.6138 68.5148 40.2071H62.8005C62.8005 41.391 63.0405 42.5623 63.6092 43.6403L68.6633 40.974ZM68.5148 40.2071C68.5148 39.7188 68.6049 39.4491 68.6767 39.3077L63.5815 36.7209C63.0247 37.8176 62.8005 39.0098 62.8005 40.2071H68.5148ZM68.6688 39.3232C68.7574 39.1512 68.8393 39.0813 68.9216 39.0322L65.9937 34.125C64.9427 34.752 64.1388 35.6393 63.5894 36.7054L68.6688 39.3232ZM68.9216 39.0322C68.9863 38.9935 69.1256 38.9286 69.4362 38.9286V33.2143C68.2421 33.2143 67.0623 33.4874 65.9937 34.125L68.9216 39.0322ZM69.4362 38.9286C69.7658 38.9286 69.8603 38.9999 69.8632 39.0019L73.0235 34.241C71.9216 33.5096 70.6781 33.2143 69.4362 33.2143V38.9286ZM69.8776 39.0113C69.8959 39.0233 69.9549 39.056 70.0302 39.2423L75.328 37.1006C74.8604 35.944 74.0956 34.9433 73.0091 34.2315L69.8776 39.0113ZM70.0367 39.2583C70.1097 39.4356 70.1935 39.7807 70.156 40.3879L75.8593 40.7407C75.9361 39.5003 75.8009 38.2501 75.3214 37.0845L70.0367 39.2583ZM73.0076 37.7071H71.5148V43.4214H73.0076V37.7071ZM74.3719 40.5643V40.0214H68.6576V40.5643H74.3719ZM74.3718 39.991C74.3596 38.8423 74.1512 37.4328 73.2558 36.2816L68.7452 39.7898C68.6193 39.628 68.6007 39.5216 68.6132 39.5699C68.6262 39.6201 68.6548 39.7688 68.6578 40.0518L74.3718 39.991ZM73.2679 36.2973C72.2641 34.988 70.8108 34.5357 69.4934 34.5357V40.25C69.5352 40.25 69.4331 40.257 69.2563 40.1816C69.0605 40.0981 68.8715 39.9547 68.7331 39.7741L73.2679 36.2973ZM69.4934 34.5357C68.1056 34.5357 66.6211 35.0062 65.5744 36.3179L70.0409 39.8821C69.9272 40.0246 69.7722 40.139 69.6165 40.2044C69.4777 40.2626 69.4153 40.25 69.4934 40.25V34.5357ZM65.5744 36.3179C64.6414 37.4871 64.3862 38.9021 64.3862 40.1429H70.1005C70.1005 39.8912 70.1279 39.7632 70.1384 39.725C70.1471 39.6937 70.1313 39.7689 70.0409 39.8821L65.5744 36.3179ZM64.3862 40.1429C64.3862 41.3779 64.6575 42.7591 65.5832 43.9074L70.032 40.3212C70.115 40.424 70.1349 40.4978 70.1313 40.4852C70.1255 40.4649 70.1005 40.3617 70.1005 40.1429H64.3862ZM65.5923 43.9186C66.6165 45.1762 68.0497 45.6643 69.4362 45.6643V39.95C69.3896 39.95 69.4692 39.9426 69.6155 40.0048C69.7756 40.0729 69.9209 40.1847 70.023 40.31L65.5923 43.9186ZM69.4362 45.6643C70.3412 45.6643 71.2849 45.4566 72.1484 44.9215L69.1383 40.0643C69.2235 40.0115 69.3049 39.9801 69.3681 39.9636C69.4286 39.9478 69.4558 39.95 69.4362 39.95V45.6643ZM72.1576 44.9157C72.9972 44.391 73.6131 43.6575 74.0172 42.819L68.8695 40.3382C68.8767 40.3232 68.9007 40.2788 68.9503 40.2221C69.001 40.1642 69.0628 40.1114 69.1291 40.07L72.1576 44.9157ZM70.5798 44.3021L72.0441 44.7664L73.7712 39.3193L72.3069 38.8551L70.5798 44.3021ZM70.2872 40.9043C70.2059 41.0912 70.1244 41.1676 70.0291 41.2271L73.0576 46.0729C74.1814 45.3705 75.0094 44.3754 75.5281 43.1814L70.2872 40.9043ZM70.0428 41.2186C69.9045 41.304 69.7496 41.3571 69.5076 41.3571V47.0714C70.761 47.0714 71.9632 46.7484 73.044 46.0814L70.0428 41.2186ZM69.6148 40.5643V39.4H63.9005V40.5643H69.6148ZM66.7576 42.2571H72.2648V36.5429H66.7576V42.2571ZM69.4076 39.4V40.5643H75.1219V39.4H69.4076ZM72.2648 37.7071H66.7576V43.4214H72.2648V37.7071ZM26.9146 61H24.0575C24.0575 62.578 25.3367 63.8571 26.9146 63.8571V61ZM26.9146 50.7143V47.8571C25.3367 47.8571 24.0575 49.1363 24.0575 50.7143H26.9146ZM33.6003 52.15L31.0738 53.4842L31.0801 53.496L33.6003 52.15ZM33.5146 54.9357L31.1675 53.3065C31.1632 53.3128 31.1588 53.319 31.1546 53.3253L33.5146 54.9357ZM32.3932 55.7643L29.5384 55.8808C29.5747 56.7688 30.022 57.5893 30.7488 58.1008C31.4755 58.6123 32.3989 58.7564 33.247 58.4909L32.3932 55.7643ZM32.3789 55.4143L33.0624 52.6401C32.1899 52.4251 31.2671 52.6332 30.5712 53.2017C29.8754 53.7702 29.4875 54.633 29.5241 55.5308L32.3789 55.4143ZM33.8932 56.3643L31.6047 58.0749L31.6131 58.086L33.8932 56.3643ZM34.0575 59.5786L31.5461 58.216C31.5424 58.223 31.5387 58.2299 31.535 58.2368L34.0575 59.5786ZM33.0075 60.6286L34.3683 63.1409L34.3774 63.1359L33.0075 60.6286ZM28.4289 59.5786H25.5718C25.5718 61.1565 26.8509 62.4357 28.4289 62.4357V59.5786ZM32.0218 59.3857L30.7987 56.8036C30.7927 56.8064 30.7868 56.8092 30.7809 56.8121L32.0218 59.3857ZM32.6575 58.8357L30.2587 57.2836C30.2561 57.2876 30.2536 57.2916 30.251 57.2956L32.6575 58.8357ZM32.686 57.1357L30.1598 58.4703C30.1699 58.4895 30.1802 58.5085 30.1907 58.5273L32.686 57.1357ZM32.1003 56.5429L30.6578 59.0091C30.676 59.0198 30.6943 59.0302 30.7128 59.0404L32.1003 56.5429ZM28.4289 56.3214V53.4643C26.8509 53.4643 25.5718 54.7435 25.5718 56.3214H28.4289ZM28.4289 54.9143H25.5718C25.5718 56.4922 26.8509 57.7714 28.4289 57.7714V54.9143ZM31.6789 54.75L32.9567 57.3055C32.9639 57.3019 32.9711 57.2983 32.9783 57.2946L31.6789 54.75ZM32.2075 54.2643L29.7816 52.7549C29.7785 52.7599 29.7754 52.7649 29.7723 52.77L32.2075 54.2643ZM32.0075 52.5071L30.0242 54.5638L30.0242 54.5638L32.0075 52.5071ZM28.4289 52.1214V49.2643C26.8509 49.2643 25.5718 50.5435 25.5718 52.1214H28.4289ZM29.7718 61V50.7143H24.0575V61H29.7718ZM26.9146 53.5714H30.9575V47.8571H26.9146V53.5714ZM30.9575 53.5714C31.0908 53.5714 31.1605 53.5852 31.1816 53.5903C31.1995 53.5947 31.1742 53.5907 31.1265 53.5619L34.0742 48.6666C33.0838 48.0702 31.9947 47.8571 30.9575 47.8571V53.5714ZM31.1265 53.5619C31.1511 53.5767 31.146 53.5774 31.127 53.5578C31.1181 53.5485 31.1081 53.5368 31.0982 53.5231C31.0882 53.5094 31.0801 53.496 31.0738 53.4842L36.1268 50.8158C35.641 49.8958 34.9264 49.1798 34.0742 48.6666L31.1265 53.5619ZM31.0801 53.496C31.0841 53.5034 31.0852 53.5066 31.0849 53.5057C31.0845 53.5048 31.0834 53.5016 31.082 53.4964C31.0807 53.4912 31.0798 53.4862 31.0793 53.4819C31.0788 53.4778 31.0789 53.4764 31.0789 53.4786H36.7932C36.7932 52.5336 36.5614 51.6294 36.1206 50.804L31.0801 53.496ZM31.0789 53.4786C31.0789 53.5253 31.0733 53.5182 31.086 53.4741C31.0998 53.4266 31.1263 53.3658 31.1675 53.3065L35.8618 56.5649C36.5228 55.6126 36.7932 54.5373 36.7932 53.4786H31.0789ZM31.1546 53.3253C31.1872 53.2775 31.2447 53.211 31.3293 53.1485C31.4136 53.0862 31.4911 53.0528 31.5394 53.0377L33.247 58.4909C34.3263 58.1529 35.233 57.4864 35.8747 56.5461L31.1546 53.3253ZM35.248 55.6478L35.2337 55.2978L29.5241 55.5308L29.5384 55.8808L35.248 55.6478ZM31.6954 58.1885C31.7681 58.2064 31.7696 58.2171 31.7319 58.1935C31.7137 58.1821 31.6909 58.1654 31.6665 58.143C31.6421 58.1205 31.6213 58.097 31.6047 58.0749L36.1817 54.6537C35.3752 53.5747 34.2601 52.9352 33.0624 52.6401L31.6954 58.1885ZM31.6131 58.086C31.6085 58.08 31.6006 58.0684 31.592 58.0519C31.5833 58.0352 31.5761 58.0179 31.5709 58.0018C31.5595 57.9665 31.5646 57.96 31.5646 58H37.2789C37.2789 56.799 36.9259 55.6393 36.1733 54.6426L31.6131 58.086ZM31.5646 58C31.5646 58.1115 31.5534 58.1767 31.5467 58.2058C31.5405 58.2328 31.5374 58.2321 31.5461 58.216L36.5688 60.9411C37.0776 60.0033 37.2789 58.9915 37.2789 58H31.5646ZM31.535 58.2368C31.5455 58.217 31.5662 58.1864 31.5961 58.1565C31.6254 58.1272 31.6447 58.1173 31.6375 58.1213L34.3774 63.1359C35.3094 62.6267 36.0694 61.8802 36.58 60.9203L31.535 58.2368ZM31.6467 58.1163C31.7007 58.087 31.6392 58.1429 31.3432 58.1429V63.8571C32.3519 63.8571 33.3999 63.6654 34.3683 63.1408L31.6467 58.1163ZM31.3432 58.1429H26.9146V63.8571H31.3432V58.1429ZM28.4289 62.4357H31.1146V56.7214H28.4289V62.4357ZM31.1146 62.4357C31.8212 62.4357 32.5574 62.2994 33.2626 61.9593L30.7809 56.8121C30.9528 56.7292 31.0842 56.7214 31.1146 56.7214V62.4357ZM33.2449 61.9678C33.9691 61.6248 34.6044 61.094 35.064 60.3759L30.251 57.2956C30.3217 57.1851 30.411 57.0809 30.5149 56.9911C30.6178 56.902 30.7176 56.842 30.7987 56.8036L33.2449 61.9678ZM35.0562 60.3879C35.5561 59.6154 35.7503 58.7696 35.7503 57.9714H30.036C30.036 57.84 30.0732 57.5703 30.2587 57.2836L35.0562 60.3879ZM35.7503 57.9714C35.7503 57.2206 35.5781 56.4555 35.1814 55.7441L30.1907 58.5273C30.0702 58.3112 30.036 58.1032 30.036 57.9714H35.7503ZM35.2123 55.8011C34.8119 55.0432 34.2137 54.4485 33.4879 54.0453L30.7128 59.0404C30.6182 58.9879 30.5111 58.9115 30.4071 58.8062C30.3027 58.7005 30.2202 58.5847 30.1598 58.4703L35.2123 55.8011ZM33.5429 54.0766C32.7824 53.6318 31.969 53.4643 31.2075 53.4643V59.1786C31.1317 59.1786 30.9135 59.1587 30.6578 59.0091L33.5429 54.0766ZM31.2075 53.4643H28.4289V59.1786H31.2075V53.4643ZM25.5718 56.3214V59.5786H31.286V56.3214H25.5718ZM28.4289 57.7714H30.936V52.0571H28.4289V57.7714ZM30.936 57.7714C31.5987 57.7714 32.2928 57.6375 32.9567 57.3055L30.4012 52.1945C30.627 52.0816 30.8258 52.0571 30.936 52.0571V57.7714ZM32.9783 57.2946C33.6591 56.9469 34.2329 56.4264 34.6427 55.7586L29.7723 52.77C29.9249 52.5212 30.1463 52.3245 30.3795 52.2054L32.9783 57.2946ZM34.6334 55.7737C35.0979 55.0272 35.2646 54.2246 35.2646 53.4929H29.5503C29.5503 53.3611 29.5837 53.0728 29.7816 52.7549L34.6334 55.7737ZM35.2646 53.4929C35.2646 52.3858 34.8634 51.292 33.9907 50.4504L30.0242 54.5638C29.883 54.4277 29.7503 54.2433 29.66 54.0208C29.5716 53.8028 29.5503 53.6142 29.5503 53.4929H35.2646ZM33.9907 50.4504C33.0843 49.5764 31.9598 49.2643 30.936 49.2643V54.9786C30.8877 54.9786 30.7538 54.9716 30.5718 54.9061C30.3808 54.8373 30.1883 54.7221 30.0242 54.5638L33.9907 50.4504ZM30.936 49.2643H28.4289V54.9786H30.936V49.2643ZM25.5718 52.1214V54.9143H31.286V52.1214H25.5718ZM37.8146 60.7143L36.3687 63.1785C36.3767 63.1832 36.3847 63.1879 36.3927 63.1925L37.8146 60.7143ZM36.4646 59.3071L33.9376 60.6403C33.9418 60.6483 33.946 60.6562 33.9503 60.6641L36.4646 59.3071ZM36.4575 55.0143L33.9178 53.7054C33.9151 53.7105 33.9125 53.7157 33.9099 53.7209L36.4575 55.0143ZM37.786 53.5786L36.3221 51.125L37.786 53.5786ZM41.7718 53.6214L40.1916 56.0019C40.1964 56.005 40.2012 56.0082 40.206 56.0113L41.7718 53.6214ZM43.0075 55.1714L40.3586 56.2423C40.3608 56.2476 40.3629 56.253 40.3652 56.2583L43.0075 55.1714ZM43.3361 57.5643V60.4214C44.8455 60.4214 46.0946 59.2473 46.1877 57.7407L43.3361 57.5643ZM41.8432 57.5643H38.986C38.986 59.1422 40.2652 60.4214 41.8432 60.4214V57.5643ZM41.8432 57.0214H44.7003C44.7003 57.0113 44.7003 57.0012 44.7002 56.991L41.8432 57.0214ZM41.3289 55.0357L39.0615 56.7741C39.0655 56.7794 39.0695 56.7846 39.0736 56.7898L41.3289 55.0357ZM38.136 55.1L40.3693 56.8821L38.136 55.1ZM38.136 59.1143L35.9117 60.9074C35.9147 60.9111 35.9177 60.9149 35.9207 60.9186L38.136 59.1143ZM40.9718 59.4929L42.4768 61.9215L42.486 61.9157L40.9718 59.4929ZM41.7718 58.5786L42.6353 55.8551C41.2801 55.4254 39.8151 56.0574 39.1979 57.3382L41.7718 58.5786ZM43.236 59.0429L45.8565 60.1814C46.1788 59.4396 46.1716 58.596 45.8367 57.8598C45.5018 57.1236 44.8706 56.5638 44.0996 56.3193L43.236 59.0429ZM41.8718 60.65L43.3724 63.0814C43.3769 63.0785 43.3815 63.0757 43.386 63.0729L41.8718 60.65ZM37.086 57.5643H34.2289C34.2289 59.1422 35.5081 60.4214 37.086 60.4214V57.5643ZM37.086 56.4V53.5429C35.5081 53.5429 34.2289 54.822 34.2289 56.4H37.086ZM42.5932 56.4H45.4503C45.4503 54.822 44.1711 53.5429 42.5932 53.5429V56.4ZM42.5932 57.5643V60.4214C44.1711 60.4214 45.4503 59.1422 45.4503 57.5643H42.5932ZM39.836 58.3571C39.4951 58.3571 39.3253 58.2871 39.2365 58.2361L36.3927 63.1925C37.4658 63.8082 38.6437 64.0714 39.836 64.0714V58.3571ZM39.2606 58.25C39.1447 58.1821 39.06 58.1003 38.979 57.9502L33.9503 60.6641C34.5169 61.714 35.3321 62.5703 36.3687 63.1785L39.2606 58.25ZM38.9917 57.974C38.9223 57.8425 38.8432 57.6138 38.8432 57.2071H33.1289C33.1289 58.391 33.3689 59.5623 33.9376 60.6403L38.9917 57.974ZM38.8432 57.2071C38.8432 56.7188 38.9333 56.4491 39.0051 56.3077L33.9099 53.7209C33.3531 54.8176 33.1289 56.0098 33.1289 57.2071H38.8432ZM38.9972 56.3232C39.0858 56.1512 39.1677 56.0813 39.25 56.0322L36.3221 51.125C35.2711 51.7521 34.4673 52.6393 33.9178 53.7054L38.9972 56.3232ZM39.25 56.0322C39.3147 55.9935 39.454 55.9286 39.7646 55.9286V50.2143C38.5705 50.2143 37.3907 50.4874 36.3221 51.125L39.25 56.0322ZM39.7646 55.9286C40.0942 55.9286 40.1887 55.9999 40.1916 56.0019L43.3519 51.241C42.2501 50.5096 41.0065 50.2143 39.7646 50.2143V55.9286ZM40.206 56.0113C40.2243 56.0233 40.2833 56.056 40.3586 56.2423L45.6564 54.1006C45.1888 52.944 44.424 51.9433 43.3376 51.2315L40.206 56.0113ZM40.3652 56.2583C40.4381 56.4356 40.5219 56.7807 40.4844 57.3879L46.1877 57.7407C46.2645 56.5002 46.1293 55.2501 45.6498 54.0845L40.3652 56.2583ZM43.3361 54.7071H41.8432V60.4214H43.3361V54.7071ZM44.7003 57.5643V57.0214H38.986V57.5643H44.7003ZM44.7002 56.991C44.688 55.8423 44.4796 54.4328 43.5842 53.2816L39.0736 56.7898C38.9477 56.628 38.9291 56.5216 38.9416 56.5699C38.9546 56.6201 38.9832 56.7688 38.9862 57.0518L44.7002 56.991ZM43.5964 53.2973C42.5925 51.988 41.1392 51.5357 39.8218 51.5357V57.25C39.8636 57.25 39.7615 57.257 39.5847 57.1816C39.3889 57.0981 39.1999 56.9547 39.0615 56.7741L43.5964 53.2973ZM39.8218 51.5357C38.434 51.5357 36.9495 52.0062 35.9028 53.3179L40.3693 56.8821C40.2556 57.0246 40.1007 57.139 39.9449 57.2044C39.8061 57.2626 39.7437 57.25 39.8218 57.25V51.5357ZM35.9028 53.3179C34.9698 54.4871 34.7146 55.9021 34.7146 57.1429H40.4289C40.4289 56.8912 40.4563 56.7632 40.4668 56.725C40.4755 56.6937 40.4597 56.7689 40.3693 56.8821L35.9028 53.3179ZM34.7146 57.1429C34.7146 58.3779 34.986 59.7591 35.9117 60.9074L40.3604 57.3212C40.4434 57.424 40.4633 57.4978 40.4597 57.4852C40.4539 57.4649 40.4289 57.3617 40.4289 57.1429H34.7146ZM35.9207 60.9186C36.9449 62.1762 38.3781 62.6643 39.7646 62.6643V56.95C39.718 56.95 39.7976 56.9426 39.9439 57.0048C40.104 57.0729 40.2493 57.1847 40.3514 57.31L35.9207 60.9186ZM39.7646 62.6643C40.6696 62.6643 41.6133 62.4566 42.4768 61.9215L39.4667 57.0643C39.5519 57.0115 39.6333 56.9801 39.6965 56.9636C39.757 56.9478 39.7842 56.95 39.7646 56.95V62.6643ZM42.486 61.9157C43.3256 61.391 43.9415 60.6575 44.3456 59.819L39.1979 57.3382C39.2051 57.3232 39.2291 57.2788 39.2787 57.2221C39.3294 57.1642 39.3912 57.1114 39.4575 57.07L42.486 61.9157ZM40.9082 61.3021L42.3725 61.7664L44.0996 56.3193L42.6353 55.8551L40.9082 61.3021ZM40.6156 57.9043C40.5343 58.0912 40.4528 58.1676 40.3575 58.2271L43.386 63.0729C44.5098 62.3705 45.3378 61.3754 45.8565 60.1814L40.6156 57.9043ZM40.3712 58.2186C40.2329 58.304 40.078 58.3571 39.836 58.3571V64.0714C41.0894 64.0714 42.2916 63.7484 43.3724 63.0814L40.3712 58.2186ZM39.9432 57.5643V56.4H34.2289V57.5643H39.9432ZM37.086 59.2571H42.5932V53.5429H37.086V59.2571ZM39.736 56.4V57.5643H45.4503V56.4H39.736ZM42.5932 54.7071H37.086V60.4214H42.5932V54.7071ZM49.9243 61L50.4741 63.8038C51.8146 63.5409 52.7815 62.366 52.7815 61H49.9243ZM48.4958 61.1214L48.5832 58.2656L48.4958 61.1214ZM47.2458 60.85L48.4281 58.249L47.2458 60.85ZM46.4172 60.0643L48.9521 58.7461L48.9496 58.7414L46.4172 60.0643ZM46.1458 59.0929L43.2898 59.1745C43.2902 59.1886 43.2907 59.2028 43.2913 59.217L46.1458 59.0929ZM46.1315 51.1429V48.2857C44.5535 48.2857 43.2743 49.5649 43.2743 51.1429H46.1315ZM47.6315 51.1429H50.4886C50.4886 49.5649 49.2094 48.2857 47.6315 48.2857V51.1429ZM47.6386 58.7L44.7821 58.7595C44.7825 58.7793 44.7831 58.7991 44.784 58.8189L47.6386 58.7ZM47.7886 59.2786L45.3125 60.7042L45.3178 60.7132L47.7886 59.2786ZM48.6029 59.7857L48.2754 62.624C48.2886 62.6255 48.3018 62.627 48.315 62.6283L48.6029 59.7857ZM49.9243 59.7357H52.7815C52.7815 58.9081 52.4226 58.1212 51.7978 57.5785C51.1729 57.0359 50.3434 56.7908 49.524 56.9068L49.9243 59.7357ZM44.6529 54.4857H41.7958C41.7958 56.0637 43.0749 57.3429 44.6529 57.3429V54.4857ZM44.6529 53.2857V50.4286C43.0749 50.4286 41.7958 51.7078 41.7958 53.2857H44.6529ZM49.9243 53.2857H52.7815C52.7815 51.7078 51.5023 50.4286 49.9243 50.4286V53.2857ZM49.9243 54.4857V57.3429C51.5023 57.3429 52.7815 56.0637 52.7815 54.4857H49.9243ZM55.1029 61L55.6527 63.8038C56.9931 63.5409 57.96 62.366 57.96 61H55.1029ZM53.6743 61.1214L53.7618 58.2656L53.6743 61.1214ZM52.4243 60.85L53.6066 58.249L52.4243 60.85ZM51.5958 60.0643L54.1307 58.7461L54.1282 58.7414L51.5958 60.0643ZM51.3243 59.0929L48.4684 59.1745C48.4688 59.1886 48.4693 59.2028 48.4699 59.217L51.3243 59.0929ZM51.31 51.1429V48.2857C49.7321 48.2857 48.4529 49.5649 48.4529 51.1429H51.31ZM52.81 51.1429H55.6672C55.6672 49.5649 54.388 48.2857 52.81 48.2857V51.1429ZM52.8172 58.7L49.9607 58.7595C49.9611 58.7793 49.9617 58.7991 49.9625 58.8189L52.8172 58.7ZM52.9672 59.2786L50.4911 60.7042L50.4964 60.7132L52.9672 59.2786ZM53.7815 59.7857L53.454 62.624C53.4672 62.6255 53.4804 62.627 53.4936 62.6283L53.7815 59.7857ZM55.1029 59.7357H57.96C57.96 58.9081 57.6012 58.1212 56.9763 57.5785C56.3515 57.0359 55.522 56.7908 54.7026 56.9068L55.1029 59.7357ZM49.8315 54.4857H46.9743C46.9743 56.0637 48.2535 57.3429 49.8315 57.3429V54.4857ZM49.8315 53.2857V50.4286C48.2535 50.4286 46.9743 51.7078 46.9743 53.2857H49.8315ZM55.1029 53.2857H57.96C57.96 51.7078 56.6809 50.4286 55.1029 50.4286V53.2857ZM55.1029 54.4857V57.3429C56.6809 57.3429 57.96 56.0637 57.96 54.4857H55.1029ZM49.3746 58.1962C49.0861 58.2528 48.8238 58.273 48.5832 58.2656L48.4083 63.9772C49.1011 63.9984 49.7911 63.9377 50.4741 63.8038L49.3746 58.1962ZM48.5832 58.2656C48.4352 58.2611 48.3998 58.2361 48.4281 58.249L46.0635 63.451C46.825 63.7972 47.623 63.9532 48.4083 63.9772L48.5832 58.2656ZM48.4281 58.249C48.5165 58.2892 48.6245 58.3557 48.7296 58.4554C48.8347 58.5551 48.907 58.6595 48.9521 58.7461L43.8823 61.3824C44.3629 62.3068 45.1155 63.0202 46.0635 63.451L48.4281 58.249ZM48.9496 58.7414C48.952 58.746 48.9641 58.7704 48.9761 58.8133C48.9883 58.857 48.9977 58.9101 49.0002 58.9688L43.2913 59.217C43.3255 60.0022 43.5427 60.7325 43.8848 61.3872L48.9496 58.7414ZM49.0017 59.0113C48.9932 58.711 48.9886 58.3627 48.9886 57.9643H43.2743C43.2743 58.404 43.2793 58.8081 43.2898 59.1745L49.0017 59.0113ZM48.9886 57.9643V51.1429H43.2743V57.9643H48.9886ZM46.1315 54H47.6315V48.2857H46.1315V54ZM44.7743 51.1429V57.8929H50.4886V51.1429H44.7743ZM44.7743 57.8929C44.7743 58.2158 44.7768 58.5056 44.7821 58.7595L50.4951 58.6405C50.4909 58.4373 50.4886 58.189 50.4886 57.8929H44.7743ZM44.784 58.8189C44.8077 59.3897 44.9402 60.0575 45.3126 60.7042L50.2647 57.853C50.456 58.1853 50.4885 58.4674 50.4933 58.5811L44.784 58.8189ZM45.3178 60.7132C45.9897 61.8705 47.1067 62.4892 48.2754 62.624L48.9304 56.9474C49.094 56.9663 49.3522 57.0278 49.6312 57.2015C49.9184 57.3804 50.1271 57.6159 50.2594 57.8439L45.3178 60.7132ZM48.315 62.6283C48.9839 62.6961 49.6653 62.658 50.3247 62.5647L49.524 56.9068C49.1738 56.9563 48.9742 56.9516 48.8908 56.9431L48.315 62.6283ZM47.0672 59.7357V61H52.7815V59.7357H47.0672ZM47.51 54.4857V53.2857H41.7958V54.4857H47.51ZM44.6529 56.1429H49.9243V50.4286H44.6529V56.1429ZM47.0672 53.2857V54.4857H52.7815V53.2857H47.0672ZM49.9243 51.6286H44.6529V57.3429H49.9243V51.6286ZM54.5531 58.1962C54.2647 58.2528 54.0023 58.273 53.7618 58.2656L53.5869 63.9772C54.2797 63.9984 54.9697 63.9377 55.6527 63.8038L54.5531 58.1962ZM53.7618 58.2656C53.6138 58.2611 53.5784 58.2361 53.6066 58.249L51.242 63.451C52.0036 63.7972 52.8016 63.9532 53.5869 63.9772L53.7618 58.2656ZM53.6066 58.249C53.6951 58.2892 53.803 58.3557 53.9082 58.4554C54.0133 58.5551 54.0856 58.6595 54.1307 58.7461L49.0609 61.3824C49.5415 62.3068 50.2941 63.0202 51.242 63.451L53.6066 58.249ZM54.1282 58.7414C54.1306 58.746 54.1427 58.7704 54.1546 58.8133C54.1669 58.857 54.1762 58.9101 54.1788 58.9688L48.4699 59.217C48.504 60.0022 48.7213 60.7325 49.0633 61.3872L54.1282 58.7414ZM54.1803 59.0113C54.1717 58.711 54.1672 58.3627 54.1672 57.9643H48.4529C48.4529 58.404 48.4579 58.8081 48.4684 59.1745L54.1803 59.0113ZM54.1672 57.9643V51.1429H48.4529V57.9643H54.1672ZM51.31 54H52.81V48.2857H51.31V54ZM49.9529 51.1429V57.8929H55.6672V51.1429H49.9529ZM49.9529 57.8929C49.9529 58.2158 49.9554 58.5056 49.9607 58.7595L55.6737 58.6405C55.6695 58.4373 55.6672 58.189 55.6672 57.8929H49.9529ZM49.9625 58.8189C49.9863 59.3897 50.1188 60.0575 50.4911 60.7042L55.4433 57.853C55.6346 58.1853 55.6671 58.4674 55.6719 58.5811L49.9625 58.8189ZM50.4964 60.7132C51.1683 61.8705 52.2853 62.4892 53.454 62.624L54.109 56.9474C54.2726 56.9663 54.5308 57.0278 54.8098 57.2015C55.097 57.3804 55.3056 57.6159 55.438 57.8439L50.4964 60.7132ZM53.4936 62.6283C54.1625 62.6961 54.8439 62.658 55.5032 62.5647L54.7026 56.9068C54.3524 56.9563 54.1528 56.9516 54.0693 56.9431L53.4936 62.6283ZM52.2458 59.7357V61H57.96V59.7357H52.2458ZM52.6886 54.4857V53.2857H46.9743V54.4857H52.6886ZM49.8315 56.1429H55.1029V50.4286H49.8315V56.1429ZM52.2458 53.2857V54.4857H57.96V53.2857H52.2458ZM55.1029 51.6286H49.8315V57.3429H55.1029V51.6286ZM58.6269 60.6929L57.1329 63.1283L58.6269 60.6929ZM57.3126 59.2571L54.7532 60.527C54.7571 60.5349 54.7611 60.5429 54.7651 60.5508L57.3126 59.2571ZM57.3269 55.0143L59.8663 56.3237L59.8705 56.3156L57.3269 55.0143ZM58.6483 53.5857L60.1122 56.0393C60.1173 56.0363 60.1223 56.0333 60.1274 56.0302L58.6483 53.5857ZM62.6412 53.5929L64.1352 51.1574L64.1352 51.1574L62.6412 53.5929ZM63.9555 55.0286L61.408 56.3222V56.3222L63.9555 55.0286ZM63.9483 59.2643L61.4048 57.9629L61.4008 57.9706L63.9483 59.2643ZM62.634 60.7L64.1131 63.1445C64.1181 63.1415 64.1231 63.1385 64.128 63.1354L62.634 60.7ZM62.284 59.0643L59.98 57.3747L59.9772 57.3785L62.284 59.0643ZM62.2769 55.2071L59.9966 56.9286C60.0029 56.9369 60.0092 56.9452 60.0156 56.9535L62.2769 55.2071ZM59.3983 54.8214L61.0228 57.1718C61.0306 57.1664 61.0383 57.161 61.046 57.1556L59.3983 54.8214ZM58.6769 55.7571L61.3319 56.8127L61.3362 56.8019L58.6769 55.7571ZM58.9983 59.0786L61.2679 57.343L58.9983 59.0786ZM60.634 58.3571C60.304 58.3571 60.17 58.2875 60.1209 58.2574L57.1329 63.1283C58.2172 63.7934 59.4213 64.0714 60.634 64.0714V58.3571ZM60.1209 58.2574C60.0173 58.1939 59.9378 58.1164 59.8601 57.9635L54.7651 60.5508C55.3065 61.6169 56.1031 62.4966 57.1329 63.1283L60.1209 58.2574ZM59.8721 57.9873C59.7933 57.8285 59.7126 57.5684 59.7126 57.1357H53.9983C53.9983 58.303 54.2224 59.4573 54.7532 60.527L59.8721 57.9873ZM59.7126 57.1357C59.7126 56.7076 59.7942 56.4635 59.8663 56.3237L54.7875 53.7049C54.231 54.7841 53.9983 55.9543 53.9983 57.1357H59.7126ZM59.8705 56.3156C59.952 56.1563 60.0282 56.0895 60.1122 56.0393L57.1844 51.1321C56.1351 51.7581 55.3304 52.6437 54.7833 53.7129L59.8705 56.3156ZM60.1274 56.0302C60.187 55.9942 60.3222 55.9286 60.634 55.9286V50.2143C59.4316 50.2143 58.243 50.4915 57.1693 51.1412L60.1274 56.0302ZM60.634 55.9286C60.9641 55.9286 61.0981 55.9982 61.1472 56.0283L64.1352 51.1574C63.0509 50.4923 61.8468 50.2143 60.634 50.2143V55.9286ZM61.1472 56.0283C61.2508 56.0918 61.3303 56.1693 61.408 56.3222L66.503 53.7349C65.9616 52.6688 65.1649 51.7891 64.1352 51.1574L61.1472 56.0283ZM61.408 56.3222C61.4831 56.4702 61.5626 56.7166 61.5626 57.1357H67.2769C67.2769 55.9643 67.0469 54.806 66.503 53.7349L61.408 56.3222ZM61.5626 57.1357C61.5626 57.5632 61.4812 57.8135 61.4048 57.9629L66.4919 60.5656C67.044 59.4865 67.2769 58.3177 67.2769 57.1357H61.5626ZM61.4008 57.9706C61.3232 58.1236 61.2436 58.201 61.14 58.2646L64.128 63.1354C65.1578 62.5037 65.9544 61.624 66.4958 60.5579L61.4008 57.9706ZM61.155 58.2555C61.1009 58.2882 60.9628 58.3571 60.634 58.3571V64.0714C61.8386 64.0714 63.0339 63.7975 64.1131 63.1445L61.155 58.2555ZM60.634 62.6643C62.0747 62.6643 63.5784 62.1355 64.5909 60.75L59.9772 57.3785C60.083 57.2337 60.243 57.0991 60.4272 57.0161C60.5938 56.9411 60.6871 56.95 60.634 56.95V62.6643ZM64.5881 60.7539C65.4001 59.6466 65.6912 58.3655 65.6912 57.1357H59.9769C59.9769 57.3087 59.9565 57.397 59.9489 57.4236C59.9429 57.4446 59.9478 57.4186 59.98 57.3747L64.5881 60.7539ZM65.6912 57.1357C65.6912 55.9037 65.4048 54.5829 64.5382 53.4608L60.0156 56.9535C59.9604 56.882 59.9467 56.832 59.9499 56.843C59.955 56.8607 59.9769 56.9492 59.9769 57.1357H65.6912ZM64.5572 53.4857C63.5413 52.1399 62.0602 51.6214 60.634 51.6214V57.3357C60.6837 57.3357 60.5938 57.3439 60.4329 57.2725C60.2558 57.194 60.1007 57.0665 59.9966 56.9286L64.5572 53.4857ZM60.634 51.6214C59.6991 51.6214 58.6693 51.8387 57.7507 52.4872L61.046 57.1556C60.9192 57.2451 60.7996 57.2937 60.714 57.3174C60.6333 57.3398 60.5997 57.3357 60.634 57.3357V51.6214ZM57.7738 52.4711C56.9402 53.0472 56.3624 53.8347 56.0176 54.7124L61.3362 56.8019C61.3251 56.83 61.2964 56.8918 61.2378 56.9677C61.178 57.0454 61.1038 57.1158 61.0228 57.1718L57.7738 52.4711ZM56.0219 54.7015C55.7042 55.5006 55.584 56.3315 55.584 57.1357H61.2983C61.2983 56.8923 61.3353 56.8042 61.3319 56.8127L56.0219 54.7015ZM55.584 57.1357C55.584 58.3698 55.8691 59.69 56.7287 60.8141L61.2679 57.343C61.32 57.4111 61.3314 57.4567 61.3269 57.441C61.3205 57.4187 61.2983 57.3258 61.2983 57.1357H55.584ZM56.7287 60.8141C57.7396 62.1361 59.2016 62.6643 60.634 62.6643V56.95C60.5946 56.95 60.6881 56.9437 60.8483 57.0151C61.023 57.0928 61.1709 57.2161 61.2679 57.343L56.7287 60.8141ZM66.5608 61H63.7037C63.7037 62.578 64.9829 63.8571 66.5608 63.8571V61ZM66.5608 53.2857V50.4286C64.9829 50.4286 63.7037 51.7078 63.7037 53.2857H66.5608ZM67.8894 53.2857H70.7465C70.7465 51.7078 69.4674 50.4286 67.8894 50.4286V53.2857ZM67.8894 55.1571L65.6198 56.8927C66.3639 57.8657 67.6454 58.2562 68.8056 57.8634C69.9658 57.4706 70.7465 56.382 70.7465 55.1571H67.8894ZM67.7037 54.9143L65.037 53.8886C64.6805 54.8155 64.8309 55.861 65.4341 56.6499L67.7037 54.9143ZM68.0751 54.2357L70.3672 55.9415C70.3735 55.9331 70.3796 55.9247 70.3858 55.9162L68.0751 54.2357ZM68.6037 53.7214L70.1885 56.0987C70.2232 56.0756 70.2573 56.0518 70.2909 56.0272L68.6037 53.7214ZM69.2537 53.3929L70.1245 56.1141C70.1354 56.1106 70.1463 56.107 70.1572 56.1034L69.2537 53.3929ZM69.9965 53.25L70.158 56.1026C70.1759 56.1016 70.1937 56.1004 70.2116 56.099L69.9965 53.25ZM70.7251 53.2857H73.5823C73.5823 51.9068 72.5975 50.7247 71.2413 50.4756L70.7251 53.2857ZM70.7251 54.6857L69.9954 57.4481C70.8525 57.6745 71.7661 57.4902 72.4685 56.9493C73.1708 56.4085 73.5823 55.5722 73.5823 54.6857H70.7251ZM69.8823 54.6286L69.6196 51.7835L69.6156 51.7839L69.8823 54.6286ZM69.0394 54.9214L70.5915 57.3202L70.5934 57.319L69.0394 54.9214ZM68.4608 55.4929L66.0525 53.9556C66.0447 53.9679 66.0369 53.9802 66.0293 53.9925L68.4608 55.4929ZM68.1608 56.2429L70.9465 56.8782L70.9488 56.8677L68.1608 56.2429ZM68.068 61V63.8571C69.6459 63.8571 70.9251 62.578 70.9251 61H68.068ZM69.418 61V53.2857H63.7037V61H69.418ZM66.5608 56.1429H67.8894V50.4286H66.5608V56.1429ZM65.0323 53.2857V55.1571H70.7465V53.2857H65.0323ZM70.159 53.4216L69.9733 53.1787L65.4341 56.6499L65.6198 56.8927L70.159 53.4216ZM70.3704 55.9399C70.3736 55.9316 70.3752 55.929 70.3742 55.9308C70.3732 55.9326 70.3709 55.9366 70.3672 55.9415L65.783 52.53C65.4694 52.9514 65.2219 53.4079 65.037 53.8886L70.3704 55.9399ZM70.3858 55.9162C70.3549 55.9587 70.291 56.0304 70.1885 56.0987L67.0188 51.3441C66.5164 51.6791 66.1001 52.0937 65.7644 52.5552L70.3858 55.9162ZM70.2909 56.0272C70.2299 56.0719 70.1692 56.0998 70.1245 56.1141L68.3829 50.6716C67.862 50.8383 67.368 51.0853 66.9165 51.4156L70.2909 56.0272ZM70.1572 56.1034C70.1613 56.102 70.1624 56.1019 70.1611 56.1022C70.1598 56.1024 70.1584 56.1026 70.158 56.1026L69.8351 50.3974C69.3269 50.4262 68.8299 50.5224 68.3502 50.6823L70.1572 56.1034ZM70.2116 56.099C70.2245 56.0981 70.2297 56.0984 70.2281 56.0984C70.2264 56.0983 70.2197 56.0978 70.209 56.0958L71.2413 50.4756C70.7514 50.3856 70.262 50.3647 69.7815 50.401L70.2116 56.099ZM67.868 53.2857V54.6857H73.5823V53.2857H67.868ZM71.4548 51.9233C70.8239 51.7567 70.2003 51.7299 69.6196 51.7835L70.1449 57.4736C70.1833 57.4701 70.1216 57.4814 69.9954 57.4481L71.4548 51.9233ZM69.6156 51.7839C68.8514 51.8555 68.1289 52.1068 67.4854 52.5238L70.5934 57.319C70.5352 57.3567 70.4635 57.3933 70.3807 57.4221C70.2979 57.4509 70.2186 57.4667 70.1489 57.4732L69.6156 51.7839ZM67.4873 52.5227C66.9317 52.8821 66.4348 53.3566 66.0525 53.9556L70.8692 57.0301C70.7726 57.1815 70.6614 57.275 70.5915 57.3202L67.4873 52.5227ZM66.0293 53.9925C65.7123 54.5062 65.4988 55.0559 65.3729 55.618L70.9488 56.8677C70.9466 56.8775 70.9331 56.9271 70.8924 56.9932L66.0293 53.9925ZM65.3752 55.6075C65.2615 56.106 65.2108 56.6086 65.2108 57.1071H70.9251C70.9251 56.9962 70.9363 56.9226 70.9464 56.8782L65.3752 55.6075ZM65.2108 57.1071V61H70.9251V57.1071H65.2108ZM68.068 58.1429H66.5608V63.8571H68.068V58.1429Z" fill="#C28044" mask="url(#path-9-outside-1_1117_12205)"/>
<defs>
<filter id="filter0_ii_1117_12205" x="18.6754" y="28" width="60.1327" height="38.9286" filterUnits="userSpaceOnUse" color-interpolation-filters="sRGB">
<feFlood flood-opacity="0" result="BackgroundImageFix"/>
<feBlend mode="normal" in="SourceGraphic" in2="BackgroundImageFix" result="shape"/>
<feColorMatrix in="SourceAlpha" type="matrix" values="0 0 0 0 0 0 0 0 0 0 0 0 0 0 0 0 0 0 127 0" result="hardAlpha"/>
<feOffset dx="5.71429" dy="5.71429"/>
<feGaussianBlur stdDeviation="2.85714"/>
<feComposite in2="hardAlpha" operator="arithmetic" k2="-1" k3="1"/>
<feColorMatrix type="matrix" values="0 0 0 0 0 0 0 0 0 0 0 0 0 0 0 0 0 0 0.25 0"/>
<feBlend mode="normal" in2="shape" result="effect1_innerShadow_1117_12205"/>
<feColorMatrix in="SourceAlpha" type="matrix" values="0 0 0 0 0 0 0 0 0 0 0 0 0 0 0 0 0 0 127 0" result="hardAlpha"/>
<feOffset dx="-5.71429" dy="-5.71429"/>
<feGaussianBlur stdDeviation="5.71429"/>
<feComposite in2="hardAlpha" operator="arithmetic" k2="-1" k3="1"/>
<feColorMatrix type="matrix" values="0 0 0 0 0.983333 0 0 0 0 0.954653 0 0 0 0 0.954653 0 0 0 0.25 0"/>
<feBlend mode="normal" in2="effect1_innerShadow_1117_12205" result="effect2_innerShadow_1117_12205"/>
</filter>
</defs>
</svg>
