<svg width="20" height="20" viewBox="0 0 20 20" fill="none" xmlns="http://www.w3.org/2000/svg">
<path fill-rule="evenodd" clip-rule="evenodd" d="M5 3.75H15C15.6904 3.75 16.25 4.30964 16.25 5V15C16.25 15.6904 15.6904 16.25 15 16.25H5C4.30964 16.25 3.75 15.6904 3.75 15V5C3.75 4.30964 4.30964 3.75 5 3.75ZM2.5 5C2.5 3.61929 3.61929 2.5 5 2.5H15C16.3807 2.5 17.5 3.61929 17.5 5V15C17.5 16.3807 16.3807 17.5 15 17.5H5C3.61929 17.5 2.5 16.3807 2.5 15V5ZM9.27223 12.9452L14.6889 7.61723L13.7539 6.66667L8.80861 11.531L6.77614 9.4985L5.83333 10.4413L8.33333 12.9413C8.59216 13.2001 9.01128 13.2019 9.27223 12.9452Z" fill="white"/>
</svg>
