<svg width="16" height="16" viewBox="0 0 16 16" fill="none" xmlns="http://www.w3.org/2000/svg">
<g clip-path="url(#clip0_407_8016)">
<path d="M6 10C6 8.11438 6 7.17157 6.58579 6.58579C7.17157 6 8.11438 6 10 6L10.6667 6C12.5523 6 13.4951 6 14.0809 6.58579C14.6667 7.17157 14.6667 8.11438 14.6667 10V10.6667C14.6667 12.5523 14.6667 13.4951 14.0809 14.0809C13.4951 14.6667 12.5523 14.6667 10.6667 14.6667H10C8.11438 14.6667 7.17157 14.6667 6.58579 14.0809C6 13.4951 6 12.5523 6 10.6667L6 10Z" stroke="white" stroke-width="1.5" stroke-linecap="round" stroke-linejoin="round"/>
<path d="M11.3333 6.00065C11.3317 4.02926 11.3018 3.00812 10.728 2.30894C10.6172 2.17391 10.4934 2.0501 10.3584 1.93929C9.62083 1.33398 8.525 1.33398 6.33334 1.33398C4.14169 1.33398 3.04586 1.33398 2.3083 1.93929C2.17327 2.0501 2.04946 2.17391 1.93865 2.30894C1.33334 3.0465 1.33334 4.14233 1.33334 6.33398C1.33334 8.52564 1.33334 9.62147 1.93865 10.359C2.04946 10.4941 2.17327 10.6179 2.30829 10.7287C3.00748 11.3025 4.02862 11.3323 6.00001 11.3339" stroke="white" stroke-width="1.5" stroke-linecap="round" stroke-linejoin="round"/>
</g>
<defs>
<clipPath id="clip0_407_8016">
<rect width="16" height="16" fill="white"/>
</clipPath>
</defs>
</svg>
