<svg width="70" height="88" viewBox="0 0 70 88" fill="none" xmlns="http://www.w3.org/2000/svg">
<path d="M0 4C0 1.79086 1.79086 0 4 0H66C68.2091 0 70 1.79086 70 4V84C70 86.2091 68.2091 88 66 88H4C1.79086 88 0 86.2091 0 84V4Z" fill="url(#paint0_linear_18_9130)"/>
<path d="M20.7064 80.15C19.9864 80.15 19.3731 79.9933 18.8664 79.68C18.3597 79.3633 17.9714 78.9233 17.7014 78.36C17.4347 77.7967 17.3014 77.1433 17.3014 76.4C17.3014 75.6567 17.4347 75.0033 17.7014 74.44C17.9714 73.8767 18.3597 73.4383 18.8664 73.125C19.3731 72.8083 19.9864 72.65 20.7064 72.65C21.5364 72.65 22.2231 72.86 22.7664 73.28C23.3131 73.7 23.6931 74.265 23.9064 74.975L22.8464 75.26C22.7064 74.7567 22.4564 74.3617 22.0964 74.075C21.7397 73.7883 21.2764 73.645 20.7064 73.645C20.1964 73.645 19.7714 73.76 19.4314 73.99C19.0914 74.22 18.8347 74.5417 18.6614 74.955C18.4914 75.3683 18.4064 75.85 18.4064 76.4C18.4031 76.95 18.4864 77.4317 18.6564 77.845C18.8297 78.2583 19.0864 78.58 19.4264 78.81C19.7697 79.04 20.1964 79.155 20.7064 79.155C21.2764 79.155 21.7397 79.0117 22.0964 78.725C22.4564 78.435 22.7064 78.04 22.8464 77.54L23.9064 77.825C23.6931 78.535 23.3131 79.1 22.7664 79.52C22.2231 79.94 21.5364 80.15 20.7064 80.15ZM25.4061 80V72.8H28.3161C28.3861 72.8 28.4727 72.8033 28.5761 72.81C28.6794 72.8133 28.7777 72.8233 28.8711 72.84C29.2711 72.9033 29.6044 73.04 29.8711 73.25C30.1411 73.46 30.3427 73.725 30.4761 74.045C30.6094 74.365 30.6761 74.7183 30.6761 75.105C30.6761 75.6783 30.5294 76.1733 30.2361 76.59C29.9427 77.0033 29.5027 77.2617 28.9161 77.365L28.4911 77.415H26.4511V80H25.4061ZM29.6161 80L28.1961 77.07L29.2511 76.8L30.8111 80H29.6161ZM26.4511 76.425H28.2761C28.3427 76.425 28.4161 76.4217 28.4961 76.415C28.5794 76.4083 28.6577 76.3967 28.7311 76.38C28.9444 76.33 29.1161 76.2383 29.2461 76.105C29.3761 75.9683 29.4694 75.8117 29.5261 75.635C29.5827 75.4583 29.6111 75.2817 29.6111 75.105C29.6111 74.9283 29.5827 74.7533 29.5261 74.58C29.4694 74.4033 29.3761 74.2483 29.2461 74.115C29.1161 73.9783 28.9444 73.885 28.7311 73.835C28.6577 73.815 28.5794 73.8017 28.4961 73.795C28.4161 73.7883 28.3427 73.785 28.2761 73.785H26.4511V76.425ZM31.81 80L34.15 72.8H35.655L37.995 80H36.91L34.755 73.43H35.025L32.895 80H31.81ZM33.025 78.375V77.395H36.785V78.375H33.025ZM41.7067 80.15C41.19 80.15 40.7234 80.0617 40.3067 79.885C39.8934 79.705 39.5517 79.45 39.2817 79.12C39.015 78.7867 38.8417 78.3917 38.7617 77.935L39.8517 77.77C39.9617 78.21 40.1917 78.5533 40.5417 78.8C40.8917 79.0433 41.3 79.165 41.7667 79.165C42.0567 79.165 42.3234 79.12 42.5667 79.03C42.81 78.9367 43.005 78.805 43.1517 78.635C43.3017 78.4617 43.3767 78.255 43.3767 78.015C43.3767 77.885 43.3534 77.77 43.3067 77.67C43.2634 77.57 43.2017 77.4833 43.1217 77.41C43.045 77.3333 42.95 77.2683 42.8367 77.215C42.7267 77.1583 42.605 77.11 42.4717 77.07L40.6267 76.525C40.4467 76.4717 40.2634 76.4033 40.0767 76.32C39.89 76.2333 39.7184 76.1217 39.5617 75.985C39.4084 75.845 39.2834 75.6733 39.1867 75.47C39.09 75.2633 39.0417 75.0133 39.0417 74.72C39.0417 74.2767 39.155 73.9017 39.3817 73.595C39.6117 73.285 39.9217 73.0517 40.3117 72.895C40.7017 72.735 41.1384 72.655 41.6217 72.655C42.1084 72.6617 42.5434 72.7483 42.9267 72.915C43.3134 73.0817 43.6334 73.3217 43.8867 73.635C44.1434 73.945 44.32 74.3217 44.4167 74.765L43.2967 74.955C43.2467 74.685 43.14 74.4533 42.9767 74.26C42.8134 74.0633 42.6134 73.9133 42.3767 73.81C42.14 73.7033 41.8834 73.6483 41.6067 73.645C41.34 73.6383 41.095 73.6783 40.8717 73.765C40.6517 73.8517 40.475 73.9733 40.3417 74.13C40.2117 74.2867 40.1467 74.4667 40.1467 74.67C40.1467 74.87 40.205 75.0317 40.3217 75.155C40.4384 75.2783 40.5817 75.3767 40.7517 75.45C40.925 75.52 41.0967 75.5783 41.2667 75.625L42.5967 76C42.7634 76.0467 42.9517 76.11 43.1617 76.19C43.375 76.2667 43.58 76.375 43.7767 76.515C43.9767 76.655 44.1417 76.8417 44.2717 77.075C44.4017 77.305 44.4667 77.595 44.4667 77.945C44.4667 78.3083 44.3934 78.6283 44.2467 78.905C44.1 79.1783 43.8984 79.4083 43.6417 79.595C43.3884 79.7783 43.095 79.9167 42.7617 80.01C42.4284 80.1033 42.0767 80.15 41.7067 80.15ZM45.9323 80V72.8H46.9773V75.905H50.5773V72.8H51.6273V80H50.5773V76.89H46.9773V80H45.9323Z" fill="white"/>
<path d="M50.012 16.9592C38.6827 32.6028 30.1543 30.9977 22.2496 11.7333C30.1543 30.9977 24.7528 35.2242 4.66663 25.4924C24.7528 35.2245 25.0895 41.538 5.7626 46.0448C25.0899 41.538 28.8357 46.5705 17.9569 62.4281C28.8357 46.5705 36.1107 49.8071 41.6392 72.9634C36.1107 49.8068 42.6003 43.7802 62.7653 53.3442C42.6003 43.7799 43.389 36.1079 65.3333 28.3695C43.389 36.1082 38.6824 32.6032 50.012 16.9592Z" fill="#FF7101"/>
<path d="M54.2821 32.1192C39.6215 37.7903 34.2619 33.7549 36.8352 18.9831C34.2619 33.7549 28.6431 34.4531 18.5447 21.2558C28.6431 34.4531 26.2035 38.4909 10.6025 34.4007C26.2035 38.4909 26.7219 42.9488 12.2897 48.9131C26.7219 42.9488 30.5018 47.5499 24.5944 63.8904C30.5015 47.5499 37.6549 46.1224 47.8802 59.2435C37.6549 46.1224 41.468 41.6427 60.2934 44.6597C41.468 41.6424 39.6215 37.79 54.2821 32.1192Z" fill="#FEBD01"/>
<path d="M55.2392 22.3805C51.3517 24.3742 47.9649 27.1711 44.8434 30.0204C44.8295 30.0329 44.8534 30.0572 44.8692 30.0466C48.4352 27.6398 52.1593 25.304 55.4321 22.5763C55.5458 22.4812 55.3611 22.3179 55.2392 22.3805Z" fill="#FEBD01"/>
<path d="M27.3138 15.2455C27.2521 15.0634 26.9575 15.1192 26.9808 15.2951C27.4942 19.1817 28.8258 23.2552 29.9047 27.1022C29.9106 27.1231 29.9453 27.1234 29.9413 27.1013C29.2062 23.2068 28.6091 19.0729 27.3138 15.2455Z" fill="#FEBD01"/>
<path d="M55.7477 56.3241C53.0863 53.5381 49.8552 51.2638 46.8515 48.8083C46.8329 48.793 46.8119 48.8164 46.8292 48.8323C49.6691 51.4309 52.3299 54.2596 55.5034 56.5212C55.6565 56.6303 55.8928 56.4763 55.7477 56.3241Z" fill="#FEBD01"/>
<path d="M38.2642 64.8233C37.8007 60.7907 36.7013 56.664 35.7448 52.6563C35.7383 52.6298 35.6952 52.6301 35.6992 52.6576C36.2917 56.6836 36.7918 60.8412 37.8738 64.8339C37.9352 65.0597 38.2914 65.0609 38.2642 64.8233Z" fill="#FEBD01"/>
<path d="M24.4136 48.9954C21.4255 50.8962 18.3456 52.488 15.8473 54.9353C15.7038 55.0757 15.941 55.288 16.1109 55.2026C19.3448 53.5724 21.7377 51.2673 24.4862 49.089C24.5392 49.0469 24.4747 48.9565 24.4136 48.9954Z" fill="#FEBD01"/>
<path d="M18.3314 40.3231C16.3934 40.0718 14.3887 39.8682 12.4752 39.9733C12.3481 39.9801 12.3375 40.1694 12.478 40.1887C14.4247 40.4585 16.4139 40.4276 18.3314 40.3397C18.3417 40.3393 18.3423 40.3247 18.3314 40.3231Z" fill="#FEBD01"/>
<path d="M14.7889 25.3636C14.636 25.2548 14.3982 25.4095 14.5446 25.5607C16.1158 27.1833 18.0771 28.4935 19.8428 29.9266C19.8567 29.9378 19.8725 29.9204 19.8595 29.9085C18.1934 28.3947 16.6444 26.6844 14.7889 25.3636Z" fill="#FEBD01"/>
<path d="M42.9279 41.5305C36.1335 40.6811 35.0044 38.3438 39.2519 33.9218C35.0041 38.3438 32.7275 37.5288 31.8402 31.2686C32.7275 37.5288 30.9104 38.4143 25.9256 34.1506C30.9107 38.414 30.1176 39.9898 23.3446 39.2805C30.1176 39.9902 30.525 42.2208 24.6703 46.5425C30.525 42.2208 33.5432 43.0798 34.495 49.3384C33.5429 43.0798 35.9767 42.3038 42.4173 46.8119C35.9767 42.3034 36.1335 40.6811 42.9279 41.5305Z" fill="white"/>
<path d="M46.0907 25.8631C44.4075 27.5687 42.9847 29.5169 41.4956 31.3718C41.4857 31.384 41.5068 31.4014 41.5176 31.3893C43.0954 29.6017 44.7835 27.8528 46.1632 25.9214C46.193 25.8797 46.1285 25.8248 46.0907 25.8631Z" fill="white"/>
<path d="M35.2931 27.0642C35.2928 26.9809 35.1579 26.9466 35.1474 27.0336C34.8882 29.2119 34.8175 31.4245 34.8274 33.6408C34.8277 33.6617 34.8612 33.6701 34.864 33.6486C35.1241 31.475 35.3018 29.2805 35.2931 27.0642Z" fill="white"/>
<path d="M29.2325 32.7391C27.7059 29.4451 26.2242 26.1366 24.3445 22.9646C24.2787 22.8536 24.0983 22.8953 24.1501 23.0188C25.5511 26.3539 27.3565 29.5552 29.114 32.7721C29.1522 32.8417 29.2663 32.8123 29.2325 32.7391Z" fill="white"/>
<path d="M26.4384 36.9291C24.2939 35.8818 22.1423 34.7985 19.9196 33.9317C19.8136 33.8903 19.7507 34.0181 19.8539 34.0717C21.973 35.1746 24.204 36.0791 26.4037 37.0027C26.4592 37.0261 26.493 36.9559 26.4384 36.9291Z" fill="white"/>
<path d="M26.675 42.1379C24.2484 42.8731 21.822 43.6766 19.5455 44.6928C19.4689 44.7271 19.5436 44.8459 19.623 44.8225C22.0592 44.1082 24.4031 43.1559 26.6887 42.1609C26.7023 42.1547 26.689 42.1335 26.675 42.1379Z" fill="white"/>
<path d="M30.3443 46.8492C30.3501 46.8271 30.3074 46.8124 30.3002 46.8342C29.1838 50.4169 28.0088 54.0033 27.1655 57.6748C27.1503 57.7415 27.2749 57.7849 27.2972 57.7194C28.5098 54.1701 29.4042 50.4902 30.3443 46.8492Z" fill="white"/>
<path d="M43.5895 57.0381C41.2779 53.1524 39.0593 49.1915 36.3195 45.505C36.3105 45.4929 36.2888 45.5013 36.296 45.515C38.3794 49.4993 41.0187 53.269 43.5347 57.0615C43.5542 57.0911 43.6078 57.0687 43.5895 57.0381Z" fill="white"/>
<path d="M48.9312 44.3978C46.1855 43.7165 43.2672 43.4022 40.4902 43.0608C40.4093 43.0508 40.3913 43.1587 40.4753 43.1752C43.2448 43.7268 46.1465 44.3457 48.9334 44.5553C49.0354 44.5631 49.0245 44.4212 48.9312 44.3978Z" fill="white"/>
<path d="M47.3803 36.8518C44.9202 37.0722 42.4722 37.4127 40.0542 37.7909C40.0443 37.7925 40.0489 37.8081 40.0589 37.8075C42.5218 37.5976 44.9946 37.3432 47.4166 36.9753C47.4916 36.9637 47.4566 36.8449 47.3803 36.8518Z" fill="white"/>
<path d="M27.5888 41.4011C27.8125 41.2495 28.0511 41.1665 28.3045 41.1521C28.5567 41.1361 28.7993 41.1855 29.032 41.3002C29.2648 41.4149 29.4625 41.5922 29.6251 41.832L30.3746 42.9377C30.547 43.192 30.645 43.4509 30.6686 43.7145C30.6927 43.9753 30.6466 44.2227 30.5303 44.4565C30.4156 44.6893 30.2359 44.8886 29.9913 45.0545C29.8078 45.1789 29.6121 45.261 29.4043 45.3009C29.1964 45.3408 28.9865 45.3327 28.7747 45.2766L28.9125 44.6793C29.0363 44.7199 29.1656 44.7321 29.3003 44.716C29.435 44.6999 29.5578 44.6541 29.6689 44.5789C29.8121 44.4818 29.915 44.3615 29.9776 44.2181C30.0417 44.0736 30.0667 43.9251 30.0526 43.7726C30.0385 43.6201 29.9883 43.4803 29.9021 43.3531L29.4701 42.7157L29.6468 42.7581C29.6354 42.9561 29.5812 43.1431 29.4844 43.3191C29.3877 43.4951 29.2548 43.6404 29.0858 43.755C28.8685 43.9023 28.6415 43.9833 28.4049 43.9981C28.1682 44.0128 27.9424 43.9674 27.7275 43.8617C27.5126 43.7561 27.3315 43.5946 27.1842 43.3773C27.0369 43.16 26.9585 42.9266 26.9491 42.6769C26.9396 42.4273 26.9895 42.1891 27.0989 41.9623C27.2082 41.7355 27.3715 41.5484 27.5888 41.4011ZM27.9194 41.8888C27.7939 41.9739 27.6995 42.0825 27.6364 42.2146C27.5737 42.3439 27.5467 42.4809 27.5554 42.6253C27.5641 42.7698 27.6109 42.9048 27.696 43.0304C27.7811 43.1559 27.8897 43.2502 28.0218 43.3134C28.1528 43.375 28.2905 43.4014 28.435 43.3927C28.5795 43.3841 28.7145 43.3372 28.84 43.2521C28.9655 43.167 29.0591 43.0589 29.1206 42.928C29.1822 42.797 29.2086 42.6592 29.2 42.5148C29.1902 42.3687 29.1428 42.2329 29.0577 42.1073C28.9737 41.9834 28.8662 41.8907 28.7352 41.8291C28.6058 41.7665 28.4689 41.7395 28.3244 41.7482C28.18 41.7568 28.0449 41.8037 27.9194 41.8888ZM30.7809 39.2373C31.0047 39.0857 31.2432 39.0027 31.4966 38.9883C31.7488 38.9723 31.9914 39.0217 32.2242 39.1364C32.4569 39.2511 32.6546 39.4283 32.8172 39.6682L33.5667 40.7739C33.7391 41.0282 33.8371 41.2871 33.8607 41.5507C33.8848 41.8115 33.8387 42.0589 33.7224 42.2927C33.6077 42.5255 33.4281 42.7248 33.1834 42.8907C32.9999 43.015 32.8043 43.0972 32.5964 43.1371C32.3885 43.177 32.1787 43.1689 31.9668 43.1128L32.1046 42.5155C32.2284 42.5561 32.3577 42.5683 32.4924 42.5522C32.6271 42.5361 32.75 42.4903 32.861 42.4151C33.0043 42.318 33.1071 42.1977 33.1697 42.0543C33.2338 41.9098 33.2588 41.7613 33.2447 41.6088C33.2306 41.4563 33.1804 41.3165 33.0943 41.1893L32.6622 40.5519L32.8389 40.5943C32.8275 40.7923 32.7734 40.9793 32.6766 41.1553C32.5798 41.3313 32.4469 41.4766 32.2779 41.5912C32.0606 41.7385 31.8336 41.8195 31.597 41.8343C31.3603 41.849 31.1346 41.8036 30.9196 41.6979C30.7047 41.5922 30.5236 41.4308 30.3763 41.2135C30.229 40.9962 30.1507 40.7628 30.1412 40.5131C30.1317 40.2635 30.1816 40.0253 30.291 39.7985C30.4003 39.5717 30.5637 39.3846 30.7809 39.2373ZM31.1115 39.725C30.986 39.8101 30.8916 39.9187 30.8285 40.0508C30.7658 40.1801 30.7388 40.3171 30.7475 40.4615C30.7562 40.606 30.8031 40.741 30.8882 40.8665C30.9733 40.9921 31.0818 41.0864 31.2139 41.1496C31.3449 41.2111 31.4826 41.2376 31.6271 41.2289C31.7716 41.2203 31.9066 41.1734 32.0321 41.0883C32.1577 41.0032 32.2512 40.8951 32.3128 40.7642C32.3743 40.6332 32.4007 40.4954 32.3921 40.351C32.3823 40.2049 32.3349 40.0691 32.2498 39.9435C32.1658 39.8196 32.0583 39.7269 31.9273 39.6653C31.7979 39.6027 31.661 39.5757 31.5165 39.5844C31.3721 39.593 31.2371 39.6399 31.1115 39.725ZM33.9731 37.0735C34.1968 36.9219 34.4353 36.8389 34.6887 36.8245C34.941 36.8085 35.1835 36.8579 35.4163 36.9726C35.6491 37.0873 35.8467 37.2645 36.0093 37.5044L36.7588 38.6101C36.9312 38.8644 37.0292 39.1233 37.0528 39.3869C37.0769 39.6477 37.0308 39.8951 36.9145 40.1289C36.7998 40.3617 36.6202 40.561 36.3755 40.7269C36.192 40.8512 35.9964 40.9334 35.7885 40.9733C35.5806 41.0132 35.3708 41.0051 35.1589 40.949L35.2967 40.3517C35.4205 40.3923 35.5498 40.4045 35.6845 40.3884C35.8192 40.3722 35.9421 40.3265 36.0531 40.2513C36.1964 40.1542 36.2993 40.0339 36.3618 39.8905C36.4259 39.746 36.451 39.5975 36.4368 39.445C36.4227 39.2925 36.3726 39.1526 36.2864 39.0255L35.8543 38.3881L36.031 38.4305C36.0196 38.6285 35.9655 38.8155 35.8687 38.9915C35.7719 39.1675 35.639 39.3128 35.47 39.4274C35.2527 39.5747 35.0257 39.6557 34.7891 39.6705C34.5525 39.6852 34.3267 39.6398 34.1118 39.5341C33.8968 39.4284 33.7157 39.267 33.5684 39.0497C33.4212 38.8324 33.3428 38.5989 33.3333 38.3493C33.3238 38.0997 33.3738 37.8615 33.4831 37.6347C33.5925 37.4078 33.7558 37.2208 33.9731 37.0735ZM34.3036 37.5612C34.1781 37.6463 34.0837 37.7549 34.0206 37.887C33.9579 38.0163 33.931 38.1533 33.9396 38.2977C33.9483 38.4422 33.9952 38.5772 34.0803 38.7027C34.1654 38.8283 34.274 38.9226 34.406 38.9858C34.537 39.0473 34.6748 39.0738 34.8192 39.0651C34.9637 39.0565 35.0987 39.0096 35.2242 38.9245C35.3498 38.8394 35.4433 38.7313 35.5049 38.6003C35.5664 38.4694 35.5929 38.3316 35.5842 38.1872C35.5744 38.0411 35.527 37.9053 35.4419 37.7797C35.3579 37.6558 35.2504 37.5631 35.1194 37.5015C34.99 37.4389 34.8531 37.4119 34.7087 37.4205C34.5642 37.4292 34.4292 37.4761 34.3036 37.5612ZM38.1497 39.4185L38.2315 37.4392L36.4039 36.7964L37.0027 36.3905L38.2593 36.846L38.2943 35.515L38.893 35.1091L38.8133 37.0448L40.6846 37.7002L40.0835 38.1077L38.7928 37.6331L38.7508 39.0111L38.1497 39.4185Z" fill="black"/>
<defs>
<linearGradient id="paint0_linear_18_9130" x1="35" y1="0" x2="35" y2="88" gradientUnits="userSpaceOnUse">
<stop stop-color="#AF33E4"/>
<stop offset="1" stop-color="#2F70E4"/>
</linearGradient>
</defs>
</svg>
