<svg width="96" height="96" viewBox="0 0 96 96" fill="none" xmlns="http://www.w3.org/2000/svg">
<path d="M92 48C92 72.3005 72.3005 92 48 92C23.6995 92 4 72.3005 4 48C4 23.6995 23.6995 4 48 4C72.3005 4 92 23.6995 92 48Z" fill="#CDECFF"/>
<path fill-rule="evenodd" clip-rule="evenodd" d="M95.2597 48C95.2597 74.1006 74.101 95.2592 48.0005 95.2592C21.8999 95.2592 0.741211 74.1006 0.741211 48C0.741211 21.8994 21.8999 0.740723 48.0005 0.740723C74.101 0.740723 95.2597 21.8994 95.2597 48ZM48.0005 92C72.301 92 92.0005 72.3005 92.0005 48C92.0005 23.6995 72.301 3.99998 48.0005 3.99998C23.6999 3.99998 4.00047 23.6995 4.00047 48C4.00047 72.3005 23.6999 92 48.0005 92Z" fill="#40CFFF"/>
<path fill-rule="evenodd" clip-rule="evenodd" d="M7.25854 49.6296C6.35852 49.6296 5.62891 48.9 5.62891 48C5.62891 24.5995 24.5988 5.62963 47.9993 5.62963C48.8993 5.62963 49.6289 6.35925 49.6289 7.25927C49.6289 8.15928 48.8993 8.8889 47.9993 8.8889C26.3988 8.88889 8.88817 26.3995 8.88816 48C8.88816 48.9 8.15855 49.6296 7.25854 49.6296Z" fill="#E6F5FF"/>
<path fill-rule="evenodd" clip-rule="evenodd" d="M88.7405 46.3704C89.6405 46.3704 90.3701 47.1 90.3701 48C90.3701 71.4005 71.4003 90.3704 47.9997 90.3704C47.0997 90.3704 46.3701 89.6408 46.3701 88.7407C46.3701 87.8407 47.0997 87.1111 47.9997 87.1111C69.6002 87.1111 87.1109 69.6005 87.1109 48C87.1109 47.1 87.8405 46.3704 88.7405 46.3704Z" fill="#70DBFF"/>
<path d="M80.5924 48C80.5924 66.0004 66.0002 80.5926 47.9998 80.5926C29.9994 80.5926 15.4072 66.0004 15.4072 48C15.4072 29.9996 29.9994 15.4074 47.9998 15.4074C66.0002 15.4074 80.5924 29.9996 80.5924 48Z" fill="#CDECFF"/>
<path fill-rule="evenodd" clip-rule="evenodd" d="M83.8521 48C83.8521 67.8004 67.8007 83.8518 48.0003 83.8518C28.1999 83.8518 12.1484 67.8004 12.1484 48C12.1484 28.1996 28.1999 12.1481 48.0003 12.1481C67.8007 12.1481 83.8521 28.1996 83.8521 48ZM48.0003 80.5926C66.0007 80.5926 80.5929 66.0004 80.5929 48C80.5929 29.9996 66.0007 15.4074 48.0003 15.4074C29.9999 15.4074 15.4077 29.9996 15.4077 48C15.4077 66.0004 29.9999 80.5926 48.0003 80.5926Z" fill="#40CFFF"/>
<path fill-rule="evenodd" clip-rule="evenodd" d="M47.9989 75.7037C63.2993 75.7037 75.7027 63.3003 75.7027 48C75.7027 47.1 76.4323 46.3704 77.3323 46.3704C78.2323 46.3704 78.9619 47.1 78.9619 48C78.9619 65.1004 65.0993 78.963 47.9989 78.9629C47.0989 78.9629 46.3693 78.2333 46.3693 77.3333C46.3693 76.4333 47.0989 75.7037 47.9989 75.7037Z" fill="#70DBFF"/>
<path fill-rule="evenodd" clip-rule="evenodd" d="M48.0001 20.2963C32.6997 20.2963 20.2964 32.6997 20.2964 48C20.2964 48.9 19.5668 49.6296 18.6667 49.6296C17.7667 49.6296 17.0371 48.9 17.0371 48C17.0371 30.8996 30.8997 17.037 48.0001 17.037C48.9001 17.037 49.6297 17.7667 49.6297 18.6667C49.6297 19.5667 48.9001 20.2963 48.0001 20.2963Z" fill="#A2E8FF"/>
<mask id="path-9-outside-1_1117_12257" maskUnits="userSpaceOnUse" x="14" y="30" width="68" height="35" fill="black">
<rect fill="white" x="14" y="30" width="68" height="35"/>
<path d="M17.103 44V33.7143H20.3244C20.4196 33.7143 20.5958 33.7167 20.853 33.7214C21.1149 33.7262 21.3649 33.7452 21.603 33.7786C22.4077 33.8786 23.0839 34.1667 23.6315 34.6429C24.1839 35.119 24.6006 35.7238 24.8815 36.4571C25.1625 37.1857 25.303 37.9857 25.303 38.8571C25.303 39.7333 25.1625 40.5381 24.8815 41.2714C24.6006 42 24.1839 42.6024 23.6315 43.0786C23.0839 43.55 22.4077 43.8357 21.603 43.9357C21.3649 43.969 21.1149 43.9881 20.853 43.9929C20.5958 43.9976 20.4196 44 20.3244 44H17.103ZM18.6315 42.5786H20.3244C20.4863 42.5786 20.6791 42.5738 20.903 42.5643C21.1268 42.5548 21.3244 42.5357 21.4958 42.5071C22.0196 42.4071 22.4434 42.181 22.7672 41.8286C23.0958 41.4714 23.3363 41.0333 23.4887 40.5143C23.6411 39.9952 23.7172 39.4429 23.7172 38.8571C23.7172 38.2524 23.6387 37.6929 23.4815 37.1786C23.3244 36.6595 23.0815 36.2262 22.753 35.8786C22.4291 35.5262 22.0101 35.3024 21.4958 35.2071C21.3244 35.1738 21.1244 35.1548 20.8958 35.15C20.672 35.1405 20.4815 35.1357 20.3244 35.1357H18.6315V42.5786ZM27.6805 35.0214V33.5714H29.1734V35.0214H27.6805ZM27.6805 44V36.2857H29.1734V44H27.6805ZM34.0684 44.2143C33.4969 44.2143 33.0184 44.1095 32.6326 43.9C32.2469 43.6857 31.9541 43.4048 31.7541 43.0571C31.5588 42.7048 31.4612 42.319 31.4612 41.9C31.4612 41.5095 31.5303 41.1667 31.6684 40.8714C31.8065 40.5762 32.0112 40.3262 32.2826 40.1214C32.5541 39.9119 32.8874 39.7429 33.2826 39.6143C33.6255 39.5143 34.0136 39.4262 34.4469 39.35C34.8803 39.2738 35.335 39.2024 35.8112 39.1357C36.2922 39.069 36.7684 39.0024 37.2398 38.9357L36.6969 39.2357C36.7065 38.631 36.5779 38.1833 36.3112 37.8929C36.0493 37.5976 35.5969 37.45 34.9541 37.45C34.5493 37.45 34.1779 37.5452 33.8398 37.7357C33.5017 37.9214 33.266 38.231 33.1326 38.6643L31.7398 38.2357C31.9303 37.5738 32.2922 37.0476 32.8255 36.6571C33.3636 36.2667 34.0779 36.0714 34.9684 36.0714C35.6588 36.0714 36.2588 36.1905 36.7684 36.4286C37.2826 36.6619 37.6588 37.0333 37.8969 37.5429C38.0207 37.7952 38.0969 38.0619 38.1255 38.3429C38.1541 38.6238 38.1684 38.9262 38.1684 39.25V44H36.8469V42.2357L37.1041 42.4643C36.785 43.0548 36.3779 43.4952 35.8826 43.7857C35.3922 44.0714 34.7874 44.2143 34.0684 44.2143ZM34.3326 42.9929C34.7565 42.9929 35.1207 42.919 35.4255 42.7714C35.7303 42.619 35.9755 42.4262 36.1612 42.1929C36.3469 41.9595 36.4684 41.7167 36.5255 41.4643C36.6065 41.2357 36.6517 40.9786 36.6612 40.6929C36.6755 40.4071 36.6826 40.1786 36.6826 40.0071L37.1684 40.1857C36.6969 40.2571 36.2684 40.3214 35.8826 40.3786C35.4969 40.4357 35.1469 40.4929 34.8326 40.55C34.5231 40.6024 34.2469 40.6667 34.0041 40.7429C33.7993 40.8143 33.616 40.9 33.4541 41C33.2969 41.1 33.1707 41.2214 33.0755 41.3643C32.985 41.5071 32.9398 41.681 32.9398 41.8857C32.9398 42.0857 32.9898 42.2714 33.0898 42.4429C33.1898 42.6095 33.3422 42.7429 33.5469 42.8429C33.7517 42.9429 34.0136 42.9929 34.3326 42.9929ZM49.8374 44L49.8446 39.1929C49.8446 38.6357 49.7017 38.2024 49.416 37.8929C49.1303 37.5786 48.7541 37.4214 48.2874 37.4214C48.0017 37.4214 47.7398 37.4881 47.5017 37.6214C47.2684 37.75 47.0779 37.9452 46.9303 38.2071C46.7874 38.4643 46.716 38.7881 46.716 39.1786L45.9946 38.8143C45.9851 38.2714 46.0993 37.7952 46.3374 37.3857C46.5803 36.9762 46.9089 36.6595 47.3232 36.4357C47.7374 36.2071 48.2017 36.0929 48.716 36.0929C49.5493 36.0929 50.1946 36.3429 50.6517 36.8429C51.1089 37.3429 51.3374 38.0071 51.3374 38.8357L51.3303 44H49.8374ZM40.5874 44V36.2857H41.916V38.5143H42.0874V44H40.5874ZM45.216 44L45.2232 39.2214C45.2232 38.6595 45.0803 38.219 44.7946 37.9C44.5136 37.581 44.1351 37.4214 43.6589 37.4214C43.1874 37.4214 42.8065 37.5833 42.516 37.9071C42.2303 38.231 42.0874 38.6548 42.0874 39.1786L41.3732 38.7214C41.3732 38.2167 41.4946 37.7667 41.7374 37.3714C41.9803 36.9762 42.3089 36.6643 42.7232 36.4357C43.1374 36.2071 43.6065 36.0929 44.1303 36.0929C44.6779 36.0929 45.1446 36.2095 45.5303 36.4429C45.916 36.6714 46.2089 36.9929 46.4089 37.4071C46.6136 37.8214 46.716 38.3024 46.716 38.85L46.7089 44H45.216ZM57.016 44.2143C56.2446 44.2143 55.5755 44.0405 55.0089 43.6929C54.4422 43.3452 54.0041 42.8667 53.6946 42.2571C53.3898 41.6429 53.2374 40.9357 53.2374 40.1357C53.2374 39.331 53.3946 38.6238 53.7089 38.0143C54.0232 37.4 54.4636 36.9238 55.0303 36.5857C55.597 36.2429 56.2589 36.0714 57.016 36.0714C57.7874 36.0714 58.4565 36.2452 59.0232 36.5929C59.5898 36.9405 60.0279 37.419 60.3374 38.0286C60.647 38.6381 60.8017 39.3405 60.8017 40.1357C60.8017 40.9405 60.6446 41.65 60.3303 42.2643C60.0208 42.8738 59.5827 43.3524 59.016 43.7C58.4493 44.0429 57.7827 44.2143 57.016 44.2143ZM57.016 42.8071C57.7541 42.8071 58.3041 42.5595 58.666 42.0643C59.0327 41.5643 59.216 40.9214 59.216 40.1357C59.216 39.331 59.0303 38.6881 58.6589 38.2071C58.2922 37.7214 57.7446 37.4786 57.016 37.4786C56.516 37.4786 56.1041 37.5929 55.7803 37.8214C55.4565 38.0452 55.216 38.3571 55.0589 38.7571C54.9017 39.1524 54.8232 39.6119 54.8232 40.1357C54.8232 40.9452 55.0089 41.5929 55.3803 42.0786C55.7517 42.5643 56.297 42.8071 57.016 42.8071ZM68.3571 44V40.2071C68.3571 39.9071 68.3309 39.6 68.2785 39.2857C68.2309 38.9667 68.1357 38.6714 67.9928 38.4C67.8547 38.1286 67.6571 37.9095 67.3999 37.7429C67.1476 37.5762 66.8166 37.4929 66.4071 37.4929C66.1404 37.4929 65.888 37.5381 65.6499 37.6286C65.4119 37.7143 65.2023 37.8548 65.0214 38.05C64.8452 38.2452 64.7047 38.5024 64.5999 38.8214C64.4999 39.1405 64.4499 39.5286 64.4499 39.9857L63.5214 39.6357C63.5214 38.9357 63.6523 38.319 63.9142 37.7857C64.1761 37.2476 64.5523 36.8286 65.0428 36.5286C65.5333 36.2286 66.1261 36.0786 66.8214 36.0786C67.3547 36.0786 67.8023 36.1643 68.1642 36.3357C68.5261 36.5071 68.819 36.7333 69.0428 37.0143C69.2714 37.2905 69.4452 37.5929 69.5642 37.9214C69.6833 38.25 69.7642 38.5714 69.8071 38.8857C69.8499 39.2 69.8714 39.4762 69.8714 39.7143V44H68.3571ZM62.9357 44V36.2857H64.2714V38.5143H64.4499V44H62.9357ZM75.2699 44.2143C74.5509 44.2143 73.9294 44.0357 73.4056 43.6786C72.8866 43.3214 72.4842 42.8357 72.1985 42.2214C71.9175 41.6024 71.7771 40.9071 71.7771 40.1357C71.7771 39.3595 71.9199 38.6667 72.2056 38.0571C72.4914 37.4429 72.8961 36.9595 73.4199 36.6071C73.9485 36.25 74.5747 36.0714 75.2985 36.0714C76.0271 36.0714 76.639 36.25 77.1342 36.6071C77.6342 36.9595 78.0104 37.4429 78.2628 38.0571C78.5199 38.6714 78.6485 39.3643 78.6485 40.1357C78.6485 40.9071 78.5199 41.6 78.2628 42.2143C78.0056 42.8286 77.6271 43.3167 77.1271 43.6786C76.6271 44.0357 76.008 44.2143 75.2699 44.2143ZM75.4771 42.8643C75.9675 42.8643 76.3675 42.7476 76.6771 42.5143C76.9866 42.281 77.2128 41.9595 77.3556 41.55C77.4985 41.1405 77.5699 40.669 77.5699 40.1357C77.5699 39.6024 77.4961 39.131 77.3485 38.7214C77.2056 38.3119 76.9818 37.9929 76.6771 37.7643C76.3771 37.5357 75.9937 37.4214 75.5271 37.4214C75.0318 37.4214 74.6247 37.5429 74.3056 37.7857C73.9866 38.0286 73.7485 38.3548 73.5914 38.7643C73.439 39.1738 73.3628 39.631 73.3628 40.1357C73.3628 40.6452 73.439 41.1071 73.5914 41.5214C73.7485 41.931 73.9818 42.2571 74.2914 42.5C74.6056 42.7429 75.0009 42.8643 75.4771 42.8643ZM77.5699 44V38.45H77.3985V33.7143H78.8985V44H77.5699ZM25.4662 61V50.7143H28.6877C28.7829 50.7143 28.9591 50.7167 29.2162 50.7214C29.4781 50.7262 29.7281 50.7452 29.9662 50.7786C30.771 50.8786 31.4472 51.1667 31.9948 51.6429C32.5472 52.119 32.9639 52.7238 33.2448 53.4571C33.5258 54.1857 33.6662 54.9857 33.6662 55.8571C33.6662 56.7333 33.5258 57.5381 33.2448 58.2714C32.9639 59 32.5472 59.6024 31.9948 60.0786C31.4472 60.55 30.771 60.8357 29.9662 60.9357C29.7281 60.969 29.4781 60.9881 29.2162 60.9929C28.9591 60.9976 28.7829 61 28.6877 61H25.4662ZM26.9948 59.5786H28.6877C28.8496 59.5786 29.0424 59.5738 29.2662 59.5643C29.49 59.5548 29.6877 59.5357 29.8591 59.5071C30.3829 59.4071 30.8067 59.181 31.1305 58.8286C31.4591 58.4714 31.6996 58.0333 31.852 57.5143C32.0043 56.9952 32.0805 56.4429 32.0805 55.8571C32.0805 55.2524 32.002 54.6929 31.8448 54.1786C31.6877 53.6595 31.4448 53.2262 31.1162 52.8786C30.7924 52.5262 30.3734 52.3024 29.8591 52.2071C29.6877 52.1738 29.4877 52.1548 29.2591 52.15C29.0353 52.1405 28.8448 52.1357 28.6877 52.1357H26.9948V59.5786ZM39.3224 61.2143C38.5557 61.2143 37.8819 61.0476 37.3009 60.7143C36.7248 60.3762 36.2748 59.9071 35.9509 59.3071C35.6319 58.7024 35.4724 58.0024 35.4724 57.2071C35.4724 56.3643 35.6295 55.6333 35.9438 55.0143C36.2629 54.3952 36.7057 53.9167 37.2724 53.5786C37.839 53.2405 38.4986 53.0714 39.2509 53.0714C40.0367 53.0714 40.7057 53.2548 41.2581 53.6214C41.8105 53.9833 42.2224 54.5 42.4938 55.1714C42.77 55.8429 42.8795 56.6405 42.8224 57.5643H41.3295V57.0214C41.32 56.1262 41.1486 55.4643 40.8152 55.0357C40.4867 54.6071 39.9843 54.3929 39.3081 54.3929C38.5605 54.3929 37.9986 54.6286 37.6224 55.1C37.2462 55.5714 37.0581 56.2524 37.0581 57.1429C37.0581 57.9905 37.2462 58.6476 37.6224 59.1143C37.9986 59.5762 38.5414 59.8071 39.2509 59.8071C39.7176 59.8071 40.12 59.7024 40.4581 59.4929C40.8009 59.2786 41.0676 58.9738 41.2581 58.5786L42.7224 59.0429C42.4224 59.7333 41.9676 60.269 41.3581 60.65C40.7486 61.0262 40.07 61.2143 39.3224 61.2143ZM36.5724 57.5643V56.4H42.0795V57.5643H36.5724ZM47.0354 61.2143C46.464 61.2143 45.9854 61.1095 45.5997 60.9C45.214 60.6857 44.9211 60.4048 44.7211 60.0571C44.5259 59.7048 44.4283 59.319 44.4283 58.9C44.4283 58.5095 44.4973 58.1667 44.6354 57.8714C44.7735 57.5762 44.9783 57.3262 45.2497 57.1214C45.5211 56.9119 45.8545 56.7429 46.2497 56.6143C46.5926 56.5143 46.9807 56.4262 47.414 56.35C47.8473 56.2738 48.3021 56.2024 48.7783 56.1357C49.2592 56.069 49.7354 56.0024 50.2069 55.9357L49.664 56.2357C49.6735 55.631 49.545 55.1833 49.2783 54.8929C49.0164 54.5976 48.564 54.45 47.9211 54.45C47.5164 54.45 47.145 54.5452 46.8069 54.7357C46.4688 54.9214 46.2331 55.231 46.0997 55.6643L44.7069 55.2357C44.8973 54.5738 45.2592 54.0476 45.7926 53.6571C46.3307 53.2667 47.045 53.0714 47.9354 53.0714C48.6259 53.0714 49.2259 53.1905 49.7354 53.4286C50.2497 53.6619 50.6259 54.0333 50.864 54.5429C50.9878 54.7952 51.064 55.0619 51.0926 55.3429C51.1211 55.6238 51.1354 55.9262 51.1354 56.25V61H49.814V59.2357L50.0711 59.4643C49.7521 60.0548 49.345 60.4952 48.8497 60.7857C48.3592 61.0714 47.7545 61.2143 47.0354 61.2143ZM47.2997 59.9929C47.7235 59.9929 48.0878 59.919 48.3926 59.7714C48.6973 59.619 48.9426 59.4262 49.1283 59.1929C49.314 58.9595 49.4354 58.7167 49.4926 58.4643C49.5735 58.2357 49.6188 57.9786 49.6283 57.6929C49.6426 57.4071 49.6497 57.1786 49.6497 57.0071L50.1354 57.1857C49.664 57.2571 49.2354 57.3214 48.8497 57.3786C48.464 57.4357 48.114 57.4929 47.7997 57.55C47.4902 57.6024 47.214 57.6667 46.9711 57.7429C46.7664 57.8143 46.5831 57.9 46.4211 58C46.264 58.1 46.1378 58.2214 46.0426 58.3643C45.9521 58.5071 45.9069 58.681 45.9069 58.8857C45.9069 59.0857 45.9569 59.2714 46.0569 59.4429C46.1569 59.6095 46.3092 59.7429 46.514 59.8429C46.7188 59.9429 46.9807 59.9929 47.2997 59.9929ZM53.7045 61V50.5H55.1974V61H53.7045ZM61.3352 61.2143C60.5685 61.2143 59.8947 61.0476 59.3138 60.7143C58.7376 60.3762 58.2876 59.9071 57.9638 59.3071C57.6447 58.7024 57.4852 58.0024 57.4852 57.2071C57.4852 56.3643 57.6424 55.6333 57.9566 55.0143C58.2757 54.3952 58.7185 53.9167 59.2852 53.5786C59.8519 53.2405 60.5114 53.0714 61.2638 53.0714C62.0495 53.0714 62.7185 53.2548 63.2709 53.6214C63.8233 53.9833 64.2352 54.5 64.5066 55.1714C64.7828 55.8429 64.8924 56.6405 64.8352 57.5643H63.3424V57.0214C63.3328 56.1262 63.1614 55.4643 62.8281 55.0357C62.4995 54.6071 61.9971 54.3929 61.3209 54.3929C60.5733 54.3929 60.0114 54.6286 59.6352 55.1C59.259 55.5714 59.0709 56.2524 59.0709 57.1429C59.0709 57.9905 59.259 58.6476 59.6352 59.1143C60.0114 59.5762 60.5543 59.8071 61.2638 59.8071C61.7305 59.8071 62.1328 59.7024 62.4709 59.4929C62.8138 59.2786 63.0805 58.9738 63.2709 58.5786L64.7352 59.0429C64.4352 59.7333 63.9805 60.269 63.3709 60.65C62.7614 61.0262 62.0828 61.2143 61.3352 61.2143ZM58.5852 57.5643V56.4H64.0924V57.5643H58.5852ZM67.0092 61V53.2857H68.3378V55.1571L68.1521 54.9143C68.2473 54.6667 68.3711 54.4405 68.5235 54.2357C68.6759 54.0262 68.8521 53.8548 69.0521 53.7214C69.2473 53.5786 69.464 53.469 69.7021 53.3929C69.9449 53.3119 70.1925 53.2643 70.4449 53.25C70.6973 53.231 70.9402 53.2429 71.1735 53.2857V54.6857C70.9211 54.619 70.6402 54.6 70.3306 54.6286C70.0259 54.6571 69.7449 54.7548 69.4878 54.9214C69.2449 55.0786 69.0521 55.269 68.9092 55.4929C68.7711 55.7167 68.6711 55.9667 68.6092 56.2429C68.5473 56.5143 68.5164 56.8024 68.5164 57.1071V61H67.0092Z"/>
</mask>
<g filter="url(#filter0_ii_1117_12257)">
<path d="M17.103 44V33.7143H20.3244C20.4196 33.7143 20.5958 33.7167 20.853 33.7214C21.1149 33.7262 21.3649 33.7452 21.603 33.7786C22.4077 33.8786 23.0839 34.1667 23.6315 34.6429C24.1839 35.119 24.6006 35.7238 24.8815 36.4571C25.1625 37.1857 25.303 37.9857 25.303 38.8571C25.303 39.7333 25.1625 40.5381 24.8815 41.2714C24.6006 42 24.1839 42.6024 23.6315 43.0786C23.0839 43.55 22.4077 43.8357 21.603 43.9357C21.3649 43.969 21.1149 43.9881 20.853 43.9929C20.5958 43.9976 20.4196 44 20.3244 44H17.103ZM18.6315 42.5786H20.3244C20.4863 42.5786 20.6791 42.5738 20.903 42.5643C21.1268 42.5548 21.3244 42.5357 21.4958 42.5071C22.0196 42.4071 22.4434 42.181 22.7672 41.8286C23.0958 41.4714 23.3363 41.0333 23.4887 40.5143C23.6411 39.9952 23.7172 39.4429 23.7172 38.8571C23.7172 38.2524 23.6387 37.6929 23.4815 37.1786C23.3244 36.6595 23.0815 36.2262 22.753 35.8786C22.4291 35.5262 22.0101 35.3024 21.4958 35.2071C21.3244 35.1738 21.1244 35.1548 20.8958 35.15C20.672 35.1405 20.4815 35.1357 20.3244 35.1357H18.6315V42.5786ZM27.6805 35.0214V33.5714H29.1734V35.0214H27.6805ZM27.6805 44V36.2857H29.1734V44H27.6805ZM34.0684 44.2143C33.4969 44.2143 33.0184 44.1095 32.6326 43.9C32.2469 43.6857 31.9541 43.4048 31.7541 43.0571C31.5588 42.7048 31.4612 42.319 31.4612 41.9C31.4612 41.5095 31.5303 41.1667 31.6684 40.8714C31.8065 40.5762 32.0112 40.3262 32.2826 40.1214C32.5541 39.9119 32.8874 39.7429 33.2826 39.6143C33.6255 39.5143 34.0136 39.4262 34.4469 39.35C34.8803 39.2738 35.335 39.2024 35.8112 39.1357C36.2922 39.069 36.7684 39.0024 37.2398 38.9357L36.6969 39.2357C36.7065 38.631 36.5779 38.1833 36.3112 37.8929C36.0493 37.5976 35.5969 37.45 34.9541 37.45C34.5493 37.45 34.1779 37.5452 33.8398 37.7357C33.5017 37.9214 33.266 38.231 33.1326 38.6643L31.7398 38.2357C31.9303 37.5738 32.2922 37.0476 32.8255 36.6571C33.3636 36.2667 34.0779 36.0714 34.9684 36.0714C35.6588 36.0714 36.2588 36.1905 36.7684 36.4286C37.2826 36.6619 37.6588 37.0333 37.8969 37.5429C38.0207 37.7952 38.0969 38.0619 38.1255 38.3429C38.1541 38.6238 38.1684 38.9262 38.1684 39.25V44H36.8469V42.2357L37.1041 42.4643C36.785 43.0548 36.3779 43.4952 35.8826 43.7857C35.3922 44.0714 34.7874 44.2143 34.0684 44.2143ZM34.3326 42.9929C34.7565 42.9929 35.1207 42.919 35.4255 42.7714C35.7303 42.619 35.9755 42.4262 36.1612 42.1929C36.3469 41.9595 36.4684 41.7167 36.5255 41.4643C36.6065 41.2357 36.6517 40.9786 36.6612 40.6929C36.6755 40.4071 36.6826 40.1786 36.6826 40.0071L37.1684 40.1857C36.6969 40.2571 36.2684 40.3214 35.8826 40.3786C35.4969 40.4357 35.1469 40.4929 34.8326 40.55C34.5231 40.6024 34.2469 40.6667 34.0041 40.7429C33.7993 40.8143 33.616 40.9 33.4541 41C33.2969 41.1 33.1707 41.2214 33.0755 41.3643C32.985 41.5071 32.9398 41.681 32.9398 41.8857C32.9398 42.0857 32.9898 42.2714 33.0898 42.4429C33.1898 42.6095 33.3422 42.7429 33.5469 42.8429C33.7517 42.9429 34.0136 42.9929 34.3326 42.9929ZM49.8374 44L49.8446 39.1929C49.8446 38.6357 49.7017 38.2024 49.416 37.8929C49.1303 37.5786 48.7541 37.4214 48.2874 37.4214C48.0017 37.4214 47.7398 37.4881 47.5017 37.6214C47.2684 37.75 47.0779 37.9452 46.9303 38.2071C46.7874 38.4643 46.716 38.7881 46.716 39.1786L45.9946 38.8143C45.9851 38.2714 46.0993 37.7952 46.3374 37.3857C46.5803 36.9762 46.9089 36.6595 47.3232 36.4357C47.7374 36.2071 48.2017 36.0929 48.716 36.0929C49.5493 36.0929 50.1946 36.3429 50.6517 36.8429C51.1089 37.3429 51.3374 38.0071 51.3374 38.8357L51.3303 44H49.8374ZM40.5874 44V36.2857H41.916V38.5143H42.0874V44H40.5874ZM45.216 44L45.2232 39.2214C45.2232 38.6595 45.0803 38.219 44.7946 37.9C44.5136 37.581 44.1351 37.4214 43.6589 37.4214C43.1874 37.4214 42.8065 37.5833 42.516 37.9071C42.2303 38.231 42.0874 38.6548 42.0874 39.1786L41.3732 38.7214C41.3732 38.2167 41.4946 37.7667 41.7374 37.3714C41.9803 36.9762 42.3089 36.6643 42.7232 36.4357C43.1374 36.2071 43.6065 36.0929 44.1303 36.0929C44.6779 36.0929 45.1446 36.2095 45.5303 36.4429C45.916 36.6714 46.2089 36.9929 46.4089 37.4071C46.6136 37.8214 46.716 38.3024 46.716 38.85L46.7089 44H45.216ZM57.016 44.2143C56.2446 44.2143 55.5755 44.0405 55.0089 43.6929C54.4422 43.3452 54.0041 42.8667 53.6946 42.2571C53.3898 41.6429 53.2374 40.9357 53.2374 40.1357C53.2374 39.331 53.3946 38.6238 53.7089 38.0143C54.0232 37.4 54.4636 36.9238 55.0303 36.5857C55.597 36.2429 56.2589 36.0714 57.016 36.0714C57.7874 36.0714 58.4565 36.2452 59.0232 36.5929C59.5898 36.9405 60.0279 37.419 60.3374 38.0286C60.647 38.6381 60.8017 39.3405 60.8017 40.1357C60.8017 40.9405 60.6446 41.65 60.3303 42.2643C60.0208 42.8738 59.5827 43.3524 59.016 43.7C58.4493 44.0429 57.7827 44.2143 57.016 44.2143ZM57.016 42.8071C57.7541 42.8071 58.3041 42.5595 58.666 42.0643C59.0327 41.5643 59.216 40.9214 59.216 40.1357C59.216 39.331 59.0303 38.6881 58.6589 38.2071C58.2922 37.7214 57.7446 37.4786 57.016 37.4786C56.516 37.4786 56.1041 37.5929 55.7803 37.8214C55.4565 38.0452 55.216 38.3571 55.0589 38.7571C54.9017 39.1524 54.8232 39.6119 54.8232 40.1357C54.8232 40.9452 55.0089 41.5929 55.3803 42.0786C55.7517 42.5643 56.297 42.8071 57.016 42.8071ZM68.3571 44V40.2071C68.3571 39.9071 68.3309 39.6 68.2785 39.2857C68.2309 38.9667 68.1357 38.6714 67.9928 38.4C67.8547 38.1286 67.6571 37.9095 67.3999 37.7429C67.1476 37.5762 66.8166 37.4929 66.4071 37.4929C66.1404 37.4929 65.888 37.5381 65.6499 37.6286C65.4119 37.7143 65.2023 37.8548 65.0214 38.05C64.8452 38.2452 64.7047 38.5024 64.5999 38.8214C64.4999 39.1405 64.4499 39.5286 64.4499 39.9857L63.5214 39.6357C63.5214 38.9357 63.6523 38.319 63.9142 37.7857C64.1761 37.2476 64.5523 36.8286 65.0428 36.5286C65.5333 36.2286 66.1261 36.0786 66.8214 36.0786C67.3547 36.0786 67.8023 36.1643 68.1642 36.3357C68.5261 36.5071 68.819 36.7333 69.0428 37.0143C69.2714 37.2905 69.4452 37.5929 69.5642 37.9214C69.6833 38.25 69.7642 38.5714 69.8071 38.8857C69.8499 39.2 69.8714 39.4762 69.8714 39.7143V44H68.3571ZM62.9357 44V36.2857H64.2714V38.5143H64.4499V44H62.9357ZM75.2699 44.2143C74.5509 44.2143 73.9294 44.0357 73.4056 43.6786C72.8866 43.3214 72.4842 42.8357 72.1985 42.2214C71.9175 41.6024 71.7771 40.9071 71.7771 40.1357C71.7771 39.3595 71.9199 38.6667 72.2056 38.0571C72.4914 37.4429 72.8961 36.9595 73.4199 36.6071C73.9485 36.25 74.5747 36.0714 75.2985 36.0714C76.0271 36.0714 76.639 36.25 77.1342 36.6071C77.6342 36.9595 78.0104 37.4429 78.2628 38.0571C78.5199 38.6714 78.6485 39.3643 78.6485 40.1357C78.6485 40.9071 78.5199 41.6 78.2628 42.2143C78.0056 42.8286 77.6271 43.3167 77.1271 43.6786C76.6271 44.0357 76.008 44.2143 75.2699 44.2143ZM75.4771 42.8643C75.9675 42.8643 76.3675 42.7476 76.6771 42.5143C76.9866 42.281 77.2128 41.9595 77.3556 41.55C77.4985 41.1405 77.5699 40.669 77.5699 40.1357C77.5699 39.6024 77.4961 39.131 77.3485 38.7214C77.2056 38.3119 76.9818 37.9929 76.6771 37.7643C76.3771 37.5357 75.9937 37.4214 75.5271 37.4214C75.0318 37.4214 74.6247 37.5429 74.3056 37.7857C73.9866 38.0286 73.7485 38.3548 73.5914 38.7643C73.439 39.1738 73.3628 39.631 73.3628 40.1357C73.3628 40.6452 73.439 41.1071 73.5914 41.5214C73.7485 41.931 73.9818 42.2571 74.2914 42.5C74.6056 42.7429 75.0009 42.8643 75.4771 42.8643ZM77.5699 44V38.45H77.3985V33.7143H78.8985V44H77.5699ZM25.4662 61V50.7143H28.6877C28.7829 50.7143 28.9591 50.7167 29.2162 50.7214C29.4781 50.7262 29.7281 50.7452 29.9662 50.7786C30.771 50.8786 31.4472 51.1667 31.9948 51.6429C32.5472 52.119 32.9639 52.7238 33.2448 53.4571C33.5258 54.1857 33.6662 54.9857 33.6662 55.8571C33.6662 56.7333 33.5258 57.5381 33.2448 58.2714C32.9639 59 32.5472 59.6024 31.9948 60.0786C31.4472 60.55 30.771 60.8357 29.9662 60.9357C29.7281 60.969 29.4781 60.9881 29.2162 60.9929C28.9591 60.9976 28.7829 61 28.6877 61H25.4662ZM26.9948 59.5786H28.6877C28.8496 59.5786 29.0424 59.5738 29.2662 59.5643C29.49 59.5548 29.6877 59.5357 29.8591 59.5071C30.3829 59.4071 30.8067 59.181 31.1305 58.8286C31.4591 58.4714 31.6996 58.0333 31.852 57.5143C32.0043 56.9952 32.0805 56.4429 32.0805 55.8571C32.0805 55.2524 32.002 54.6929 31.8448 54.1786C31.6877 53.6595 31.4448 53.2262 31.1162 52.8786C30.7924 52.5262 30.3734 52.3024 29.8591 52.2071C29.6877 52.1738 29.4877 52.1548 29.2591 52.15C29.0353 52.1405 28.8448 52.1357 28.6877 52.1357H26.9948V59.5786ZM39.3224 61.2143C38.5557 61.2143 37.8819 61.0476 37.3009 60.7143C36.7248 60.3762 36.2748 59.9071 35.9509 59.3071C35.6319 58.7024 35.4724 58.0024 35.4724 57.2071C35.4724 56.3643 35.6295 55.6333 35.9438 55.0143C36.2629 54.3952 36.7057 53.9167 37.2724 53.5786C37.839 53.2405 38.4986 53.0714 39.2509 53.0714C40.0367 53.0714 40.7057 53.2548 41.2581 53.6214C41.8105 53.9833 42.2224 54.5 42.4938 55.1714C42.77 55.8429 42.8795 56.6405 42.8224 57.5643H41.3295V57.0214C41.32 56.1262 41.1486 55.4643 40.8152 55.0357C40.4867 54.6071 39.9843 54.3929 39.3081 54.3929C38.5605 54.3929 37.9986 54.6286 37.6224 55.1C37.2462 55.5714 37.0581 56.2524 37.0581 57.1429C37.0581 57.9905 37.2462 58.6476 37.6224 59.1143C37.9986 59.5762 38.5414 59.8071 39.2509 59.8071C39.7176 59.8071 40.12 59.7024 40.4581 59.4929C40.8009 59.2786 41.0676 58.9738 41.2581 58.5786L42.7224 59.0429C42.4224 59.7333 41.9676 60.269 41.3581 60.65C40.7486 61.0262 40.07 61.2143 39.3224 61.2143ZM36.5724 57.5643V56.4H42.0795V57.5643H36.5724ZM47.0354 61.2143C46.464 61.2143 45.9854 61.1095 45.5997 60.9C45.214 60.6857 44.9211 60.4048 44.7211 60.0571C44.5259 59.7048 44.4283 59.319 44.4283 58.9C44.4283 58.5095 44.4973 58.1667 44.6354 57.8714C44.7735 57.5762 44.9783 57.3262 45.2497 57.1214C45.5211 56.9119 45.8545 56.7429 46.2497 56.6143C46.5926 56.5143 46.9807 56.4262 47.414 56.35C47.8473 56.2738 48.3021 56.2024 48.7783 56.1357C49.2592 56.069 49.7354 56.0024 50.2069 55.9357L49.664 56.2357C49.6735 55.631 49.545 55.1833 49.2783 54.8929C49.0164 54.5976 48.564 54.45 47.9211 54.45C47.5164 54.45 47.145 54.5452 46.8069 54.7357C46.4688 54.9214 46.2331 55.231 46.0997 55.6643L44.7069 55.2357C44.8973 54.5738 45.2592 54.0476 45.7926 53.6571C46.3307 53.2667 47.045 53.0714 47.9354 53.0714C48.6259 53.0714 49.2259 53.1905 49.7354 53.4286C50.2497 53.6619 50.6259 54.0333 50.864 54.5429C50.9878 54.7952 51.064 55.0619 51.0926 55.3429C51.1211 55.6238 51.1354 55.9262 51.1354 56.25V61H49.814V59.2357L50.0711 59.4643C49.7521 60.0548 49.345 60.4952 48.8497 60.7857C48.3592 61.0714 47.7545 61.2143 47.0354 61.2143ZM47.2997 59.9929C47.7235 59.9929 48.0878 59.919 48.3926 59.7714C48.6973 59.619 48.9426 59.4262 49.1283 59.1929C49.314 58.9595 49.4354 58.7167 49.4926 58.4643C49.5735 58.2357 49.6188 57.9786 49.6283 57.6929C49.6426 57.4071 49.6497 57.1786 49.6497 57.0071L50.1354 57.1857C49.664 57.2571 49.2354 57.3214 48.8497 57.3786C48.464 57.4357 48.114 57.4929 47.7997 57.55C47.4902 57.6024 47.214 57.6667 46.9711 57.7429C46.7664 57.8143 46.5831 57.9 46.4211 58C46.264 58.1 46.1378 58.2214 46.0426 58.3643C45.9521 58.5071 45.9069 58.681 45.9069 58.8857C45.9069 59.0857 45.9569 59.2714 46.0569 59.4429C46.1569 59.6095 46.3092 59.7429 46.514 59.8429C46.7188 59.9429 46.9807 59.9929 47.2997 59.9929ZM53.7045 61V50.5H55.1974V61H53.7045ZM61.3352 61.2143C60.5685 61.2143 59.8947 61.0476 59.3138 60.7143C58.7376 60.3762 58.2876 59.9071 57.9638 59.3071C57.6447 58.7024 57.4852 58.0024 57.4852 57.2071C57.4852 56.3643 57.6424 55.6333 57.9566 55.0143C58.2757 54.3952 58.7185 53.9167 59.2852 53.5786C59.8519 53.2405 60.5114 53.0714 61.2638 53.0714C62.0495 53.0714 62.7185 53.2548 63.2709 53.6214C63.8233 53.9833 64.2352 54.5 64.5066 55.1714C64.7828 55.8429 64.8924 56.6405 64.8352 57.5643H63.3424V57.0214C63.3328 56.1262 63.1614 55.4643 62.8281 55.0357C62.4995 54.6071 61.9971 54.3929 61.3209 54.3929C60.5733 54.3929 60.0114 54.6286 59.6352 55.1C59.259 55.5714 59.0709 56.2524 59.0709 57.1429C59.0709 57.9905 59.259 58.6476 59.6352 59.1143C60.0114 59.5762 60.5543 59.8071 61.2638 59.8071C61.7305 59.8071 62.1328 59.7024 62.4709 59.4929C62.8138 59.2786 63.0805 58.9738 63.2709 58.5786L64.7352 59.0429C64.4352 59.7333 63.9805 60.269 63.3709 60.65C62.7614 61.0262 62.0828 61.2143 61.3352 61.2143ZM58.5852 57.5643V56.4H64.0924V57.5643H58.5852ZM67.0092 61V53.2857H68.3378V55.1571L68.1521 54.9143C68.2473 54.6667 68.3711 54.4405 68.5235 54.2357C68.6759 54.0262 68.8521 53.8548 69.0521 53.7214C69.2473 53.5786 69.464 53.469 69.7021 53.3929C69.9449 53.3119 70.1925 53.2643 70.4449 53.25C70.6973 53.231 70.9402 53.2429 71.1735 53.2857V54.6857C70.9211 54.619 70.6402 54.6 70.3306 54.6286C70.0259 54.6571 69.7449 54.7548 69.4878 54.9214C69.2449 55.0786 69.0521 55.269 68.9092 55.4929C68.7711 55.7167 68.6711 55.9667 68.6092 56.2429C68.5473 56.5143 68.5164 56.8024 68.5164 57.1071V61H67.0092Z" fill="#CDECFF"/>
</g>
<path d="M17.103 44H14.2458C14.2458 45.578 15.525 46.8571 17.103 46.8571V44ZM17.103 33.7143V30.8571C15.525 30.8571 14.2458 32.1363 14.2458 33.7143H17.103ZM20.853 33.7214L20.8001 36.5781L20.801 36.5781L20.853 33.7214ZM21.603 33.7786L21.2068 36.6081C21.2214 36.6102 21.236 36.6121 21.2506 36.6139L21.603 33.7786ZM23.6315 34.6429L21.7567 36.7989L21.766 36.8069L23.6315 34.6429ZM24.8815 36.4571L22.2135 37.4793L22.2157 37.4851L24.8815 36.4571ZM24.8815 41.2714L27.5473 42.2994L27.5496 42.2936L24.8815 41.2714ZM23.6315 43.0786L25.4956 45.2439L25.4971 45.2426L23.6315 43.0786ZM21.603 43.9357L21.2506 41.1004C21.236 41.1022 21.2214 41.1041 21.2068 41.1062L21.603 43.9357ZM20.853 43.9929L20.801 41.1362L20.8001 41.1362L20.853 43.9929ZM18.6315 42.5786H15.7744C15.7744 44.1565 17.0536 45.4357 18.6315 45.4357V42.5786ZM20.903 42.5643L21.0244 45.4188H21.0244L20.903 42.5643ZM21.4958 42.5071L21.9655 45.3254C21.9876 45.3217 22.0096 45.3178 22.0316 45.3136L21.4958 42.5071ZM22.7672 41.8286L20.6646 39.8941L20.6634 39.8954L22.7672 41.8286ZM23.4887 40.5143L20.7472 39.7095L20.7472 39.7095L23.4887 40.5143ZM23.4815 37.1786L20.747 38.0065L20.7491 38.0135L23.4815 37.1786ZM22.753 35.8786L20.6492 37.8118C20.6582 37.8216 20.6674 37.8314 20.6766 37.8412L22.753 35.8786ZM21.4958 35.2071L20.9505 38.0118C20.9588 38.0134 20.9672 38.015 20.9756 38.0165L21.4958 35.2071ZM20.8958 35.15L20.7743 38.0046C20.795 38.0054 20.8156 38.0061 20.8363 38.0065L20.8958 35.15ZM18.6315 35.1357V32.2786C17.0536 32.2786 15.7744 33.5578 15.7744 35.1357H18.6315ZM19.9601 44V33.7143H14.2458V44H19.9601ZM17.103 36.5714H20.3244V30.8571H17.103V36.5714ZM20.3244 36.5714C20.3895 36.5714 20.5406 36.5733 20.8001 36.5781L20.9059 30.8648C20.651 30.8601 20.4497 30.8571 20.3244 30.8571V36.5714ZM20.801 36.5781C20.9579 36.581 21.0924 36.5921 21.2068 36.6081L21.9991 30.949C21.6373 30.8984 21.2719 30.8714 20.9049 30.8648L20.801 36.5781ZM21.2506 36.6139C21.5604 36.6524 21.6872 36.7384 21.7567 36.7989L25.5063 32.4868C24.4806 31.5949 23.2551 31.1047 21.9553 30.9432L21.2506 36.6139ZM21.766 36.8069C21.9334 36.9512 22.0882 37.1523 22.2135 37.4793L27.5496 35.435C27.113 34.2953 26.4344 33.2869 25.4971 32.4788L21.766 36.8069ZM22.2157 37.4851C22.3564 37.8499 22.4458 38.2966 22.4458 38.8571H28.1601C28.1601 37.6748 27.9686 36.5216 27.5473 35.4292L22.2157 37.4851ZM22.4458 38.8571C22.4458 39.4242 22.3558 39.8778 22.2135 40.2493L27.5496 42.2936C27.9692 41.1984 28.1601 40.0425 28.1601 38.8571H22.4458ZM22.2157 40.2434C22.0917 40.5651 21.9372 40.767 21.766 40.9145L25.4971 45.2426C26.4307 44.4378 27.1095 43.4349 27.5473 42.2994L22.2157 40.2434ZM21.7675 40.9133C21.6977 40.9733 21.5672 41.061 21.2506 41.1004L21.9553 46.7711C23.2482 46.6104 24.4701 46.1267 25.4956 45.2439L21.7675 40.9133ZM21.2068 41.1062C21.0924 41.1222 20.9579 41.1333 20.801 41.1362L20.9049 46.8495C21.2719 46.8429 21.6373 46.8159 21.9991 46.7653L21.2068 41.1062ZM20.8001 41.1362C20.5406 41.141 20.3895 41.1429 20.3244 41.1429V46.8571C20.4497 46.8571 20.651 46.8542 20.9059 46.8495L20.8001 41.1362ZM20.3244 41.1429H17.103V46.8571H20.3244V41.1429ZM18.6315 45.4357H20.3244V39.7214H18.6315V45.4357ZM20.3244 45.4357C20.5388 45.4357 20.7742 45.4295 21.0244 45.4188L20.7815 39.7097C20.5841 39.7181 20.4338 39.7214 20.3244 39.7214V45.4357ZM21.0244 45.4188C21.3335 45.4057 21.6515 45.3777 21.9655 45.3254L21.0261 39.6889C20.9972 39.6937 20.92 39.7038 20.7815 39.7097L21.0244 45.4188ZM22.0316 45.3136C23.0859 45.1123 24.0847 44.6175 24.871 43.7618L20.6634 39.8954C20.7203 39.8335 20.7901 39.7798 20.8613 39.7419C20.9295 39.7055 20.97 39.6988 20.96 39.7007L22.0316 45.3136ZM24.8699 43.763C25.5278 43.0479 25.9686 42.21 26.2301 41.3191L20.7472 39.7095C20.7244 39.7871 20.7026 39.8333 20.6894 39.8573C20.6768 39.8803 20.6682 39.8902 20.6646 39.8941L24.8699 43.763ZM26.2301 41.3191C26.4653 40.518 26.5744 39.6929 26.5744 38.8571H20.8601C20.8601 39.1929 20.8168 39.4725 20.7472 39.7095L26.2301 41.3191ZM26.5744 38.8571C26.5744 38.0042 26.4634 37.1599 26.214 36.3437L20.7491 38.0135C20.814 38.2259 20.8601 38.5006 20.8601 38.8571H26.5744ZM26.2161 36.3507C25.9478 35.4646 25.5009 34.6264 24.8293 33.916L20.6766 37.8412C20.6733 37.8378 20.6781 37.8415 20.6891 37.8611C20.7007 37.8819 20.7229 37.9269 20.747 38.0065L26.2161 36.3507ZM24.8567 33.9454C24.0746 33.0942 23.0794 32.5947 22.0161 32.3978L20.9756 38.0165C20.9731 38.0161 20.9238 38.0061 20.8498 37.9666C20.7733 37.9258 20.7034 37.8708 20.6492 37.8118L24.8567 33.9454ZM22.0412 32.4025C21.6693 32.3302 21.3002 32.3007 20.9553 32.2935L20.8363 38.0065C20.8894 38.0076 20.9254 38.0101 20.9464 38.0121C20.9676 38.0142 20.9678 38.0151 20.9505 38.0118L22.0412 32.4025ZM21.0173 32.2954C20.7685 32.2849 20.535 32.2786 20.3244 32.2786V37.9929C20.4281 37.9929 20.5756 37.9961 20.7743 38.0046L21.0173 32.2954ZM20.3244 32.2786H18.6315V37.9929H20.3244V32.2786ZM15.7744 35.1357V42.5786H21.4887V35.1357H15.7744ZM27.6805 35.0214H24.8234C24.8234 36.5994 26.1026 37.8786 27.6805 37.8786V35.0214ZM27.6805 33.5714V30.7143C26.1026 30.7143 24.8234 31.9935 24.8234 33.5714H27.6805ZM29.1734 33.5714H32.0305C32.0305 31.9935 30.7513 30.7143 29.1734 30.7143V33.5714ZM29.1734 35.0214V37.8786C30.7513 37.8786 32.0305 36.5994 32.0305 35.0214H29.1734ZM27.6805 44H24.8234C24.8234 45.578 26.1026 46.8571 27.6805 46.8571V44ZM27.6805 36.2857V33.4286C26.1026 33.4286 24.8234 34.7078 24.8234 36.2857H27.6805ZM29.1734 36.2857H32.0305C32.0305 34.7078 30.7513 33.4286 29.1734 33.4286V36.2857ZM29.1734 44V46.8571C30.7513 46.8571 32.0305 45.578 32.0305 44H29.1734ZM30.5377 35.0214V33.5714H24.8234V35.0214H30.5377ZM27.6805 36.4286H29.1734V30.7143H27.6805V36.4286ZM26.3162 33.5714V35.0214H32.0305V33.5714H26.3162ZM29.1734 32.1643H27.6805V37.8786H29.1734V32.1643ZM30.5377 44V36.2857H24.8234V44H30.5377ZM27.6805 39.1429H29.1734V33.4286H27.6805V39.1429ZM26.3162 36.2857V44H32.0305V36.2857H26.3162ZM29.1734 41.1429H27.6805V46.8571H29.1734V41.1429ZM32.6326 43.9L31.2451 46.3976C31.253 46.402 31.2609 46.4063 31.2688 46.4106L32.6326 43.9ZM31.7541 43.0571L29.2549 44.4418C29.2623 44.4553 29.2699 44.4687 29.2776 44.482L31.7541 43.0571ZM31.6684 40.8714L29.0803 39.6609L31.6684 40.8714ZM32.2826 40.1214L34.0033 42.4023C34.0118 42.396 34.0201 42.3896 34.0285 42.3831L32.2826 40.1214ZM33.2826 39.6143L32.4826 36.8714C32.4546 36.8796 32.4266 36.8882 32.3988 36.8973L33.2826 39.6143ZM34.4469 39.35L34.9417 42.164H34.9417L34.4469 39.35ZM35.8112 39.1357L35.4189 36.3056L35.4151 36.3062L35.8112 39.1357ZM37.2398 38.9357L38.6217 41.4364C39.8281 40.7697 40.3865 39.3369 39.9495 38.0297C39.5124 36.7225 38.2045 35.9137 36.8397 36.1067L37.2398 38.9357ZM36.6969 39.2357L33.8401 39.1907C33.8241 40.2098 34.3521 41.1603 35.2259 41.6851C36.0997 42.2098 37.1868 42.2294 38.0789 41.7364L36.6969 39.2357ZM36.3112 37.8929L34.1739 39.7889C34.1846 39.801 34.1955 39.8131 34.2065 39.8251L36.3112 37.8929ZM33.8398 37.7357L35.2153 40.2399C35.2243 40.235 35.2333 40.23 35.2422 40.225L33.8398 37.7357ZM33.1326 38.6643L32.2924 41.3951C33.0167 41.6179 33.7998 41.5439 34.4695 41.1894C35.1392 40.8348 35.6406 40.2288 35.8634 39.5045L33.1326 38.6643ZM31.7398 38.2357L28.9941 37.4456C28.5633 38.9424 29.4108 40.5084 30.8995 40.9665L31.7398 38.2357ZM32.8255 36.6571L31.1474 34.3447L31.1377 34.3518L32.8255 36.6571ZM36.7684 36.4286L35.5588 39.017C35.5685 39.0216 35.5782 39.026 35.5879 39.0304L36.7684 36.4286ZM37.8969 37.5429L35.3085 38.7524C35.3161 38.7688 35.3239 38.785 35.3318 38.8012L37.8969 37.5429ZM38.1255 38.3429L35.283 38.6319L35.283 38.6319L38.1255 38.3429ZM38.1684 44V46.8571C39.7463 46.8571 41.0255 45.578 41.0255 44H38.1684ZM36.8469 44H33.9898C33.9898 45.578 35.269 46.8571 36.8469 46.8571V44ZM36.8469 42.2357L38.7451 40.1003C37.9042 39.3528 36.7029 39.1684 35.6765 39.6293C34.6501 40.0902 33.9898 41.1106 33.9898 42.2357H36.8469ZM37.1041 42.4643L39.6178 43.8225C40.2479 42.6562 39.9931 41.2096 39.0023 40.3288L37.1041 42.4643ZM35.8826 43.7857L37.3208 46.2545L37.3282 46.2502L35.8826 43.7857ZM35.4255 42.7714L36.671 45.3428C36.6818 45.3376 36.6925 45.3323 36.7033 45.3269L35.4255 42.7714ZM36.1612 42.1929L33.9257 40.4136H33.9257L36.1612 42.1929ZM36.5255 41.4643L33.8323 40.5104C33.7948 40.6161 33.7637 40.724 33.7389 40.8334L36.5255 41.4643ZM36.6612 40.6929L33.8076 40.5502C33.8068 40.566 33.8062 40.5818 33.8057 40.5977L36.6612 40.6929ZM36.6826 40.0071L37.6685 37.3255C36.7921 37.0033 35.8135 37.1297 35.0477 37.6641C34.2818 38.1984 33.8255 39.0733 33.8255 40.0071H36.6826ZM37.1684 40.1857L37.5964 43.0106C38.8859 42.8152 39.8795 41.7713 40.011 40.4737C40.1424 39.1761 39.3784 37.9541 38.1543 37.5041L37.1684 40.1857ZM35.8826 40.3786L36.3014 43.2049L35.8826 40.3786ZM34.8326 40.55L35.3094 43.3671C35.3208 43.3651 35.3323 43.3631 35.3437 43.3611L34.8326 40.55ZM34.0041 40.7429L33.1488 38.0167C33.1201 38.0257 33.0915 38.0352 33.063 38.0451L34.0041 40.7429ZM33.4541 41L31.9527 38.5691C31.9418 38.5759 31.9309 38.5827 31.9201 38.5895L33.4541 41ZM33.0755 41.3643L30.6982 39.7794C30.6858 39.798 30.6737 39.8167 30.6617 39.8356L33.0755 41.3643ZM33.0898 42.4429L30.6218 43.8825C30.6278 43.8926 30.6338 43.9028 30.6398 43.9128L33.0898 42.4429ZM33.5469 42.8429L32.2931 45.4102L32.2931 45.4102L33.5469 42.8429ZM34.0684 41.3571C33.955 41.3571 33.9005 41.3466 33.8918 41.3447C33.8854 41.3432 33.9272 41.3517 33.9964 41.3894L31.2688 46.4106C32.1806 46.9059 33.16 47.0714 34.0684 47.0714V41.3571ZM34.0202 41.4024C34.0235 41.4042 34.0562 41.4231 34.1017 41.4668C34.1484 41.5116 34.1938 41.5684 34.2306 41.6323L29.2776 44.482C29.7619 45.3238 30.4526 45.9573 31.2451 46.3976L34.0202 41.4024ZM34.2533 41.6725C34.2734 41.7088 34.2919 41.7538 34.3042 41.8026C34.3164 41.8507 34.3184 41.8857 34.3184 41.9H28.6041C28.6041 42.7833 28.8153 43.6483 29.2549 44.4418L34.2533 41.6725ZM34.3184 41.9C34.3184 41.8462 34.3272 41.9307 34.2564 42.082L29.0803 39.6609C28.7334 40.4027 28.6041 41.1728 28.6041 41.9H34.3184ZM34.2564 42.082C34.2258 42.1473 34.1851 42.2128 34.1359 42.2729C34.087 42.3326 34.0395 42.375 34.0033 42.4023L30.562 37.8405C29.9351 38.3135 29.4245 38.925 29.0803 39.6609L34.2564 42.082ZM34.0285 42.3831C33.9924 42.411 34.0186 42.3794 34.1665 42.3313L32.3988 36.8973C31.7562 37.1063 31.1157 37.4128 30.5368 37.8597L34.0285 42.3831ZM34.0826 42.3571C34.3053 42.2922 34.5888 42.226 34.9417 42.164L33.9522 36.536C33.4384 36.6263 32.9457 36.7364 32.4826 36.8714L34.0826 42.3571ZM34.9417 42.164C35.3394 42.0941 35.7611 42.0277 36.2074 41.9653L35.4151 36.3062C34.9089 36.377 34.4211 36.4536 33.9522 36.536L34.9417 42.164ZM36.2035 41.9658C36.687 41.8988 37.1658 41.8317 37.6398 41.7647L36.8397 36.1067C36.3709 36.173 35.8973 36.2393 35.4189 36.3056L36.2035 41.9658ZM35.8578 36.435L35.315 36.735L38.0789 41.7364L38.6217 41.4364L35.8578 36.435ZM39.5537 39.2807C39.5688 38.3241 39.3847 37.0159 38.4159 35.9607L34.2065 39.8251C33.9907 39.59 33.8975 39.3604 33.8615 39.2352C33.8288 39.1212 33.8417 39.0909 33.8401 39.1907L39.5537 39.2807ZM38.4486 35.9968C37.3833 34.796 35.914 34.5929 34.9541 34.5929V40.3071C35.0729 40.3071 35.0297 40.3228 34.8892 40.2769C34.7322 40.2257 34.4428 40.0921 34.1739 39.7889L38.4486 35.9968ZM34.9541 34.5929C34.08 34.5929 33.2223 34.8042 32.4374 35.2464L35.2422 40.225C35.1961 40.2509 35.1409 40.2738 35.0816 40.289C35.0229 40.3041 34.9778 40.3071 34.9541 40.3071V34.5929ZM32.4642 35.2315C31.3625 35.8367 30.7125 36.8144 30.4018 37.824L35.8634 39.5045C35.8472 39.5572 35.7991 39.685 35.6825 39.8382C35.5606 39.9982 35.3993 40.1389 35.2153 40.2399L32.4642 35.2315ZM33.9729 35.9335L32.58 35.5049L30.8995 40.9665L32.2924 41.3951L33.9729 35.9335ZM34.4855 39.0258C34.4944 38.9951 34.5019 38.9772 34.5056 38.9693C34.5092 38.9616 34.5103 38.9606 34.5082 38.9637C34.506 38.967 34.5034 38.97 34.5017 38.9717C34.5001 38.9733 34.503 38.97 34.5133 38.9625L31.1377 34.3518C30.071 35.1328 29.3517 36.2029 28.9941 37.4456L34.4855 39.0258ZM34.5036 38.9696C34.4123 39.0358 34.4786 38.9286 34.9684 38.9286V33.2143C33.6771 33.2143 32.3149 33.4976 31.1474 34.3447L34.5036 38.9696ZM34.9684 38.9286C35.334 38.9286 35.5041 38.9915 35.5588 39.017L37.9779 33.8401C37.0136 33.3895 35.9837 33.2143 34.9684 33.2143V38.9286ZM35.5879 39.0304C35.5591 39.0174 35.4966 38.9822 35.4288 38.9153C35.3609 38.8482 35.3235 38.7847 35.3085 38.7524L40.4854 36.3333C39.9576 35.2039 39.0806 34.3402 37.9488 33.8267L35.5879 39.0304ZM35.3318 38.8012C35.3201 38.7774 35.3088 38.7488 35.2997 38.7171C35.2906 38.6853 35.2855 38.6561 35.283 38.6319L40.968 38.0538C40.9053 37.4374 40.7357 36.8424 40.462 36.2845L35.3318 38.8012ZM35.283 38.6319C35.3005 38.8041 35.3112 39.0091 35.3112 39.25H41.0255C41.0255 38.8433 41.0076 38.4435 40.968 38.0538L35.283 38.6319ZM35.3112 39.25V44H41.0255V39.25H35.3112ZM38.1684 41.1429H36.8469V46.8571H38.1684V41.1429ZM39.7041 44V42.2357H33.9898V44H39.7041ZM34.9487 44.3712L35.2059 44.5997L39.0023 40.3288L38.7451 40.1003L34.9487 44.3712ZM34.5904 41.1061C34.5313 41.2155 34.4847 41.2729 34.4613 41.2981C34.4397 41.3215 34.4319 41.3243 34.4371 41.3212L37.3282 46.2502C38.3452 45.6537 39.093 44.7937 39.6178 43.8225L34.5904 41.1061ZM34.4445 41.3169C34.4926 41.2889 34.4148 41.3571 34.0684 41.3571V47.0714C35.16 47.0714 36.2918 46.8539 37.3208 46.2545L34.4445 41.3169ZM34.3326 45.85C35.0821 45.85 35.8929 45.7197 36.671 45.3428L34.18 40.2001C34.3486 40.1184 34.4308 40.1357 34.3326 40.1357V45.85ZM36.7033 45.3269C37.3269 45.0151 37.9175 44.5742 38.3967 43.9721L33.9257 40.4136C34.0335 40.2782 34.1336 40.223 34.1477 40.2159L36.7033 45.3269ZM38.3967 43.9721C38.8094 43.4536 39.1465 42.8265 39.3121 42.0952L33.7389 40.8334C33.7902 40.6068 33.8845 40.4654 33.9257 40.4136L38.3967 43.9721ZM39.2187 42.4181C39.4132 41.8691 39.4992 41.3156 39.5168 40.788L33.8057 40.5977C33.8042 40.6415 33.7997 40.6023 33.8323 40.5104L39.2187 42.4181ZM39.5148 40.8355C39.5301 40.5291 39.5398 40.247 39.5398 40.0071H33.8255C33.8255 40.1101 33.8209 40.2852 33.8076 40.5502L39.5148 40.8355ZM35.6967 42.6888L36.1825 42.8674L38.1543 37.5041L37.6685 37.3255L35.6967 42.6888ZM36.7403 37.3608C36.2714 37.4319 35.846 37.4957 35.4639 37.5523L36.3014 43.2049C36.6908 43.1472 37.1225 43.0824 37.5964 43.0106L36.7403 37.3608ZM35.4639 37.5523C35.0538 37.613 34.6723 37.6752 34.3215 37.7389L35.3437 43.3611C35.6215 43.3106 35.9401 43.2584 36.3014 43.2049L35.4639 37.5523ZM34.3559 37.7329C33.9466 37.8022 33.5403 37.8939 33.1488 38.0167L34.8593 43.469C34.9536 43.4394 35.0997 43.4026 35.3094 43.3671L34.3559 37.7329ZM33.063 38.0451C32.689 38.1756 32.3136 38.3462 31.9527 38.5691L34.9555 43.4309C34.9367 43.4424 34.9252 43.448 34.9231 43.4489C34.921 43.4499 34.9278 43.4466 34.9451 43.4406L33.063 38.0451ZM31.9201 38.5895C31.4563 38.8847 31.0322 39.2784 30.6982 39.7794L35.4528 42.9491C35.3093 43.1644 35.1376 43.3153 34.988 43.4105L31.9201 38.5895ZM30.6617 39.8356C30.2257 40.524 30.0826 41.2546 30.0826 41.8857H35.7969C35.7969 42.1073 35.7443 42.4903 35.4893 42.893L30.6617 39.8356ZM30.0826 41.8857C30.0826 42.5875 30.2649 43.2706 30.6218 43.8825L35.5577 41.0032C35.7147 41.2723 35.7969 41.584 35.7969 41.8857H30.0826ZM30.6398 43.9128C31.0702 44.6302 31.6792 45.1104 32.2931 45.4102L34.8007 40.2755C35.0052 40.3754 35.3094 40.5889 35.5398 40.9729L30.6398 43.9128ZM32.2931 45.4102C33.0123 45.7614 33.7421 45.85 34.3326 45.85V40.1357C34.3191 40.1357 34.3567 40.1344 34.4327 40.1489C34.5096 40.1636 34.6407 40.1974 34.8007 40.2755L32.2931 45.4102ZM49.8374 44L46.9803 43.9958C46.9792 44.7543 47.2797 45.4821 47.8156 46.0188C48.3516 46.5555 49.0789 46.8571 49.8374 46.8571V44ZM49.8446 39.1929L52.7017 39.1971V39.1929H49.8446ZM49.416 37.8929L47.3019 39.8148C47.3068 39.8201 47.3117 39.8255 47.3166 39.8308L49.416 37.8929ZM47.5017 37.6214L48.8806 40.1238C48.8863 40.1207 48.892 40.1175 48.8977 40.1143L47.5017 37.6214ZM46.9303 38.2071L44.4413 36.8042C44.4384 36.8094 44.4356 36.8145 44.4327 36.8196L46.9303 38.2071ZM46.716 39.1786L45.4282 41.729C46.3139 42.1763 47.3682 42.1319 48.2133 41.612C49.0584 41.092 49.5732 40.1708 49.5732 39.1786H46.716ZM45.9946 38.8143L43.1379 38.8644C43.1565 39.9244 43.7604 40.8869 44.7067 41.3647L45.9946 38.8143ZM46.3374 37.3857L43.8799 35.9284C43.8757 35.9354 43.8716 35.9425 43.8674 35.9497L46.3374 37.3857ZM47.3232 36.4357L48.6812 38.9495C48.6886 38.9455 48.696 38.9414 48.7034 38.9374L47.3232 36.4357ZM50.6517 36.8429L52.7604 34.9149V34.9149L50.6517 36.8429ZM51.3374 38.8357L54.1946 38.8397V38.8357H51.3374ZM51.3303 44V46.8571C52.9067 46.8571 54.1853 45.5804 54.1874 44.004L51.3303 44ZM40.5874 44H37.7303C37.7303 45.578 39.0095 46.8571 40.5874 46.8571V44ZM40.5874 36.2857V33.4286C39.0095 33.4286 37.7303 34.7078 37.7303 36.2857H40.5874ZM41.916 36.2857H44.7732C44.7732 34.7078 43.494 33.4286 41.916 33.4286V36.2857ZM41.916 38.5143H39.0589C39.0589 40.0922 40.3381 41.3714 41.916 41.3714V38.5143ZM42.0874 38.5143H44.9446C44.9446 36.9363 43.6654 35.6571 42.0874 35.6571V38.5143ZM42.0874 44V46.8571C43.6654 46.8571 44.9446 45.578 44.9446 44H42.0874ZM45.216 44L42.3589 43.9957C42.3577 44.7542 42.6583 45.4821 43.1942 46.0188C43.7301 46.5555 44.4575 46.8571 45.216 46.8571V44ZM45.2232 39.2214L48.0803 39.2257V39.2214H45.2232ZM44.7946 37.9L42.6503 39.7882C42.6556 39.7942 42.6609 39.8001 42.6662 39.8061L44.7946 37.9ZM42.516 37.9071L40.3892 35.9993C40.384 36.0051 40.3788 36.0109 40.3736 36.0168L42.516 37.9071ZM42.0874 39.1786L40.5473 41.5851C41.4267 42.1479 42.5432 42.1862 43.4591 41.6849C44.375 41.1837 44.9446 40.2227 44.9446 39.1786H42.0874ZM41.3732 38.7214H38.516C38.516 39.6957 39.0124 40.6028 39.833 41.1279L41.3732 38.7214ZM45.5303 36.4429L44.0514 38.8875C44.0589 38.892 44.0663 38.8964 44.0737 38.9008L45.5303 36.4429ZM46.4089 37.4071L43.8359 38.6493C43.8397 38.6572 43.8436 38.6652 43.8475 38.6731L46.4089 37.4071ZM46.716 38.85L49.5732 38.854V38.85H46.716ZM46.7089 44V46.8571C48.2853 46.8571 49.5638 45.5804 49.566 44.004L46.7089 44ZM52.6946 44.0042L52.7017 39.1971L46.9874 39.1886L46.9803 43.9958L52.6946 44.0042ZM52.7017 39.1929C52.7017 38.1547 52.4284 36.9439 51.5155 35.9549L47.3166 39.8308C47.1601 39.6613 47.0695 39.4829 47.024 39.3446C46.9819 39.2169 46.9874 39.1535 46.9874 39.1929H52.7017ZM51.5301 35.9709C50.646 34.9984 49.4704 34.5643 48.2874 34.5643V40.2786C48.197 40.2786 48.0259 40.2624 47.8183 40.1757C47.6044 40.0863 47.4282 39.9538 47.3019 39.8148L51.5301 35.9709ZM48.2874 34.5643C47.5368 34.5643 46.7907 34.745 46.1057 35.1286L48.8977 40.1143C48.689 40.2312 48.4667 40.2786 48.2874 40.2786V34.5643ZM46.1229 35.119C45.3668 35.5356 44.8152 36.1408 44.4413 36.8042L49.4193 39.61C49.3406 39.7497 49.17 39.9644 48.8806 40.1238L46.1229 35.119ZM44.4327 36.8196C43.9893 37.6177 43.8589 38.456 43.8589 39.1786H49.5732C49.5732 39.1202 49.5856 39.3109 49.4279 39.5947L44.4327 36.8196ZM48.0039 36.6281L47.2824 36.2638L44.7067 41.3647L45.4282 41.729L48.0039 36.6281ZM48.8513 38.7642C48.8503 38.7082 48.8563 38.6963 48.8514 38.7168C48.849 38.7267 48.8446 38.7421 48.8368 38.7615C48.8291 38.781 48.8192 38.8015 48.8075 38.8218L43.8674 35.9497C43.3307 36.8727 43.1206 37.8778 43.1379 38.8644L48.8513 38.7642ZM48.795 38.8431C48.7914 38.8491 48.7767 38.8713 48.7487 38.8983C48.7205 38.9254 48.6947 38.9422 48.6812 38.9495L45.9651 33.9219C45.0901 34.3947 44.3837 35.0788 43.8799 35.9284L48.795 38.8431ZM48.7034 38.9374C48.6971 38.9408 48.6898 38.9443 48.6819 38.9474C48.6741 38.9504 48.6682 38.9521 48.665 38.9529C48.6619 38.9537 48.6636 38.953 48.6711 38.9521C48.6787 38.9513 48.6934 38.95 48.716 38.95V33.2357C47.7621 33.2357 46.8161 33.4523 45.9429 33.9341L48.7034 38.9374ZM48.716 38.95C48.8499 38.95 48.859 38.9702 48.7927 38.9445C48.7592 38.9315 48.7149 38.91 48.6664 38.877C48.6178 38.8439 48.5761 38.8069 48.5431 38.7708L52.7604 34.9149C51.641 33.6906 50.1527 33.2357 48.716 33.2357V38.95ZM48.5431 38.7708C48.5237 38.7496 48.5052 38.7247 48.4898 38.6986C48.4746 38.6727 48.467 38.6535 48.4643 38.6457C48.4591 38.6305 48.4803 38.6824 48.4803 38.8357H54.1946C54.1946 37.4606 53.8009 36.0531 52.7604 34.9149L48.5431 38.7708ZM48.4803 38.8318L48.4732 43.996L54.1874 44.004L54.1946 38.8397L48.4803 38.8318ZM51.3303 41.1429H49.8374V46.8571H51.3303V41.1429ZM43.4446 44V36.2857H37.7303V44H43.4446ZM40.5874 39.1429H41.916V33.4286H40.5874V39.1429ZM39.0589 36.2857V38.5143H44.7732V36.2857H39.0589ZM41.916 41.3714H42.0874V35.6571H41.916V41.3714ZM39.2303 38.5143V44H44.9446V38.5143H39.2303ZM42.0874 41.1429H40.5874V46.8571H42.0874V41.1429ZM48.0732 44.0043L48.0803 39.2257L42.366 39.2172L42.3589 43.9957L48.0732 44.0043ZM48.0803 39.2214C48.0803 38.1804 47.8087 36.983 46.923 35.9939L42.6662 39.8061C42.5223 39.6454 42.4396 39.4786 42.3982 39.3511C42.3601 39.2334 42.366 39.1781 42.366 39.2214H48.0803ZM46.9388 36.0118C46.0468 34.9987 44.8458 34.5643 43.6589 34.5643V40.2786C43.5759 40.2786 43.4037 40.2639 43.1905 40.174C42.9691 40.0807 42.7841 39.9401 42.6503 39.7882L46.9388 36.0118ZM43.6589 34.5643C42.4522 34.5643 41.2706 35.0168 40.3892 35.9993L44.6428 39.815C44.5231 39.9484 44.3515 40.0813 44.1371 40.1724C43.9284 40.2611 43.7541 40.2786 43.6589 40.2786V34.5643ZM40.3736 36.0168C39.534 36.9683 39.2303 38.1138 39.2303 39.1786H44.9446C44.9446 39.1751 44.9451 39.2529 44.9021 39.3805C44.8565 39.5157 44.7761 39.6641 44.6584 39.7975L40.3736 36.0168ZM43.6276 36.7721L42.9133 36.3149L39.833 41.1279L40.5473 41.5851L43.6276 36.7721ZM44.2303 38.7214C44.2303 38.6997 44.2327 38.7128 44.2227 38.7497C44.2123 38.7882 44.1946 38.8301 44.1718 38.8672L39.3031 35.8756C38.7596 36.7602 38.516 37.7368 38.516 38.7214H44.2303ZM44.1718 38.8672C44.1663 38.8761 44.1532 38.8941 44.1331 38.9132C44.1132 38.9322 44.0999 38.9393 44.1034 38.9374L41.3429 33.9341C40.5053 34.3962 39.8099 35.0509 39.3031 35.8756L44.1718 38.8672ZM44.1034 38.9374C44.0951 38.9419 44.0863 38.946 44.078 38.9493C44.0696 38.9525 44.0639 38.954 44.062 38.9545C44.0602 38.9549 44.064 38.9539 44.0744 38.9527C44.085 38.9515 44.1033 38.95 44.1303 38.95V33.2357C43.1766 33.2357 42.2238 33.4481 41.3429 33.9341L44.1034 38.9374ZM44.1303 38.95C44.2021 38.95 44.2201 38.9577 44.1981 38.9522C44.1731 38.946 44.1186 38.9281 44.0514 38.8875L47.0092 33.9982C46.0903 33.4424 45.0871 33.2357 44.1303 33.2357V38.95ZM44.0737 38.9008C44.0305 38.8752 43.9775 38.8348 43.9272 38.7796C43.8774 38.7249 43.8488 38.6762 43.8359 38.6493L48.9819 36.165C48.5442 35.2584 47.8694 34.5079 46.9869 33.9849L44.0737 38.9008ZM43.8475 38.6731C43.838 38.6539 43.8399 38.6507 43.8447 38.6734C43.8499 38.6977 43.8589 38.7539 43.8589 38.85H49.5732C49.5732 37.9439 49.4024 37.0155 48.9702 36.1412L43.8475 38.6731ZM43.8589 38.846L43.8517 43.996L49.566 44.004L49.5732 38.854L43.8589 38.846ZM46.7089 41.1429H45.216V46.8571H46.7089V41.1429ZM55.0089 43.6929L53.5149 46.1283L55.0089 43.6929ZM53.6946 42.2571L51.1351 43.527C51.1391 43.5349 51.1431 43.5429 51.1471 43.5508L53.6946 42.2571ZM53.7089 38.0143L56.2483 39.3237L56.2524 39.3156L53.7089 38.0143ZM55.0303 36.5857L56.4942 39.0393C56.4993 39.0363 56.5043 39.0333 56.5093 39.0302L55.0303 36.5857ZM59.0232 36.5929L60.5172 34.1574L60.5172 34.1574L59.0232 36.5929ZM60.3374 38.0286L57.7899 39.3222V39.3222L60.3374 38.0286ZM60.3303 42.2643L57.7867 40.9629L57.7828 40.9706L60.3303 42.2643ZM59.016 43.7L60.4951 46.1445C60.5 46.1415 60.505 46.1385 60.51 46.1354L59.016 43.7ZM58.666 42.0643L56.362 40.3747L56.3592 40.3785L58.666 42.0643ZM58.6589 38.2071L56.3785 39.9286C56.3848 39.9369 56.3912 39.9452 56.3976 39.9535L58.6589 38.2071ZM55.7803 37.8214L57.4048 40.1718C57.4126 40.1664 57.4203 40.161 57.428 40.1556L55.7803 37.8214ZM55.0589 38.7571L57.7139 39.8127L57.7182 39.8019L55.0589 38.7571ZM55.3803 42.0786L57.6499 40.343L55.3803 42.0786ZM57.016 41.3571C56.6859 41.3571 56.5519 41.2875 56.5029 41.2574L53.5149 46.1283C54.5992 46.7934 55.8032 47.0714 57.016 47.0714V41.3571ZM56.5029 41.2574C56.3993 41.1939 56.3198 41.1164 56.2421 40.9635L51.1471 43.5508C51.6885 44.6169 52.4851 45.4966 53.5149 46.1283L56.5029 41.2574ZM56.2541 40.9873C56.1752 40.8285 56.0946 40.5684 56.0946 40.1357H50.3803C50.3803 41.303 50.6044 42.4573 51.1351 43.527L56.2541 40.9873ZM56.0946 40.1357C56.0946 39.7076 56.1762 39.4635 56.2483 39.3237L51.1694 36.7049C50.613 37.7841 50.3803 38.9543 50.3803 40.1357H56.0946ZM56.2524 39.3156C56.334 39.1563 56.4101 39.0895 56.4942 39.0393L53.5664 34.1321C52.5171 34.7581 51.7124 35.6437 51.1653 36.7129L56.2524 39.3156ZM56.5093 39.0302C56.5689 38.9942 56.7041 38.9286 57.016 38.9286V33.2143C55.8136 33.2143 54.625 33.4915 53.5513 34.1412L56.5093 39.0302ZM57.016 38.9286C57.3461 38.9286 57.4801 38.9982 57.5292 39.0283L60.5172 34.1574C59.4329 33.4923 58.2288 33.2143 57.016 33.2143V38.9286ZM57.5292 39.0283C57.6327 39.0918 57.7123 39.1693 57.7899 39.3222L62.8849 36.7349C62.3436 35.6688 61.5469 34.7891 60.5172 34.1574L57.5292 39.0283ZM57.7899 39.3222C57.8651 39.4702 57.9446 39.7166 57.9446 40.1357H63.6589C63.6589 38.9643 63.4289 37.806 62.8849 36.7349L57.7899 39.3222ZM57.9446 40.1357C57.9446 40.5632 57.8632 40.8135 57.7867 40.9629L62.8739 43.5656C63.426 42.4865 63.6589 41.3177 63.6589 40.1357H57.9446ZM57.7828 40.9706C57.7051 41.1236 57.6256 41.201 57.522 41.2646L60.51 46.1354C61.5398 45.5037 62.3364 44.624 62.8778 43.5579L57.7828 40.9706ZM57.537 41.2555C57.4828 41.2882 57.3447 41.3571 57.016 41.3571V47.0714C58.2206 47.0714 59.4159 46.7975 60.4951 46.1445L57.537 41.2555ZM57.016 45.6643C58.4567 45.6643 59.9604 45.1355 60.9728 43.75L56.3592 40.3785C56.465 40.2337 56.625 40.0991 56.8091 40.0161C56.9758 39.9411 57.069 39.95 57.016 39.95V45.6643ZM60.97 43.7539C61.7821 42.6466 62.0732 41.3655 62.0732 40.1357H56.3589C56.3589 40.3087 56.3385 40.397 56.3309 40.4236C56.3249 40.4446 56.3298 40.4186 56.362 40.3747L60.97 43.7539ZM62.0732 40.1357C62.0732 38.9037 61.7867 37.5829 60.9202 36.4608L56.3976 39.9535C56.3423 39.882 56.3287 39.832 56.3318 39.843C56.337 39.8607 56.3589 39.9492 56.3589 40.1357H62.0732ZM60.9392 36.4857C59.9233 35.1399 58.4422 34.6214 57.016 34.6214V40.3357C57.0657 40.3357 56.9757 40.3439 56.8149 40.2725C56.6378 40.194 56.4827 40.0665 56.3785 39.9286L60.9392 36.4857ZM57.016 34.6214C56.081 34.6214 55.0513 34.8387 54.1326 35.4872L57.428 40.1556C57.3012 40.2451 57.1816 40.2937 57.096 40.3174C57.0153 40.3398 56.9816 40.3357 57.016 40.3357V34.6214ZM54.1558 35.4711C53.3222 36.0472 52.7444 36.8347 52.3996 37.7124L57.7182 39.8019C57.7071 39.83 57.6783 39.8918 57.6198 39.9677C57.56 40.0454 57.4858 40.1158 57.4048 40.1718L54.1558 35.4711ZM52.4039 37.7015C52.0862 38.5006 51.966 39.3315 51.966 40.1357H57.6803C57.6803 39.8923 57.7173 39.8042 57.7139 39.8127L52.4039 37.7015ZM51.966 40.1357C51.966 41.3698 52.2511 42.69 53.1107 43.8141L57.6499 40.343C57.702 40.4111 57.7134 40.4567 57.7089 40.441C57.7025 40.4187 57.6803 40.3258 57.6803 40.1357H51.966ZM53.1107 43.8141C54.1216 45.1361 55.5836 45.6643 57.016 45.6643V39.95C56.9766 39.95 57.0701 39.9437 57.2303 40.0151C57.405 40.0928 57.5529 40.2161 57.6499 40.343L53.1107 43.8141ZM68.3571 44H65.4999C65.4999 45.578 66.7791 46.8571 68.3571 46.8571V44ZM68.2785 39.2857L65.4527 39.7075C65.4551 39.7235 65.4576 39.7395 65.4603 39.7554L68.2785 39.2857ZM67.9928 38.4L65.4463 39.6956C65.4523 39.7073 65.4583 39.719 65.4645 39.7307L67.9928 38.4ZM67.3999 37.7429L65.8255 40.127C65.8323 40.1315 65.8391 40.136 65.846 40.1404L67.3999 37.7429ZM65.6499 37.6286L66.6177 40.3168C66.6335 40.3111 66.6492 40.3053 66.6649 40.2994L65.6499 37.6286ZM65.0214 38.05L62.9259 36.1078C62.9173 36.1171 62.9087 36.1264 62.9002 36.1358L65.0214 38.05ZM64.5999 38.8214L61.8854 37.9301C61.8814 37.9423 61.8774 37.9546 61.8736 37.9669L64.5999 38.8214ZM64.4499 39.9857L63.4422 42.6592C64.3199 42.9901 65.304 42.869 66.0754 42.3354C66.8467 41.8018 67.3071 40.9236 67.3071 39.9857H64.4499ZM63.5214 39.6357H60.6642C60.6642 40.8249 61.4009 41.8898 62.5137 42.3092L63.5214 39.6357ZM63.9142 37.7857L66.4788 39.0451L66.4832 39.0361L63.9142 37.7857ZM65.0428 36.5286L66.5336 38.9659L66.5336 38.9659L65.0428 36.5286ZM68.1642 36.3357L69.3873 33.7536V33.7536L68.1642 36.3357ZM69.0428 37.0143L66.8081 38.7945C66.8191 38.8084 66.8303 38.8222 66.8417 38.8359L69.0428 37.0143ZM69.5642 37.9214L66.878 38.8947V38.8947L69.5642 37.9214ZM69.8071 38.8857L72.638 38.4997V38.4997L69.8071 38.8857ZM69.8714 44V46.8571C71.4493 46.8571 72.7285 45.578 72.7285 44H69.8714ZM62.9357 44H60.0785C60.0785 45.578 61.3577 46.8571 62.9357 46.8571V44ZM62.9357 36.2857V33.4286C61.3577 33.4286 60.0785 34.7078 60.0785 36.2857H62.9357ZM64.2714 36.2857H67.1285C67.1285 34.7078 65.8493 33.4286 64.2714 33.4286V36.2857ZM64.2714 38.5143H61.4142C61.4142 40.0922 62.6934 41.3714 64.2714 41.3714V38.5143ZM64.4499 38.5143H67.3071C67.3071 36.9363 66.0279 35.6571 64.4499 35.6571V38.5143ZM64.4499 44V46.8571C66.0279 46.8571 67.3071 45.578 67.3071 44H64.4499ZM71.2142 44V40.2071H65.4999V44H71.2142ZM71.2142 40.2071C71.2142 39.7404 71.1735 39.276 71.0968 38.816L65.4603 39.7554C65.4883 39.924 65.4999 40.0739 65.4999 40.2071H71.2142ZM71.1044 38.8639C71.0118 38.2439 70.8211 37.6393 70.5211 37.0693L65.4645 39.7307C65.4585 39.7194 65.4545 39.7091 65.4522 39.7021C65.45 39.6954 65.451 39.6963 65.4527 39.7075L71.1044 38.8639ZM70.5393 37.1044C70.1717 36.3818 69.6304 35.7837 68.9539 35.3453L65.846 40.1404C65.7732 40.0933 65.6944 40.0289 65.6196 39.946C65.5448 39.8631 65.4875 39.7765 65.4463 39.6956L70.5393 37.1044ZM68.9744 35.3587C68.1163 34.792 67.1834 34.6357 66.4071 34.6357V40.35C66.4498 40.35 66.1788 40.3604 65.8255 40.127L68.9744 35.3587ZM66.4071 34.6357C65.8101 34.6357 65.2124 34.7384 64.635 34.9578L66.6649 40.2994C66.5637 40.3378 66.4707 40.35 66.4071 40.35V34.6357ZM64.6822 34.9403C63.9914 35.189 63.401 35.5952 62.9259 36.1078L67.1169 39.9922C67.0037 40.1143 66.8323 40.2396 66.6177 40.3168L64.6822 34.9403ZM62.9002 36.1358C62.3941 36.6967 62.0813 37.3334 61.8854 37.9301L67.3145 39.7128C67.3281 39.6714 67.2963 39.7938 67.1425 39.9642L62.9002 36.1358ZM61.8736 37.9669C61.6617 38.643 61.5928 39.3373 61.5928 39.9857H67.3071C67.3071 39.8595 67.3141 39.7717 67.3212 39.7169C67.3283 39.6616 67.334 39.6516 67.3263 39.676L61.8736 37.9669ZM65.4577 37.3122L64.5291 36.9622L62.5137 42.3092L63.4422 42.6592L65.4577 37.3122ZM66.3785 39.6357C66.3785 39.295 66.4408 39.1226 66.4788 39.0451L61.3496 36.5263C60.8639 37.5155 60.6642 38.5764 60.6642 39.6357H66.3785ZM66.4832 39.0361C66.4947 39.0126 66.5038 38.9977 66.5094 38.9893C66.5149 38.9811 66.5182 38.9773 66.5189 38.9765C66.5196 38.9757 66.5199 38.9754 66.5207 38.9748C66.5215 38.9741 66.5253 38.971 66.5336 38.9659L63.552 34.0912C62.5766 34.6878 61.8356 35.5279 61.3452 36.5353L66.4832 39.0361ZM66.5336 38.9659C66.5186 38.9751 66.5205 38.9699 66.5561 38.9609C66.5947 38.9512 66.6785 38.9357 66.8214 38.9357V33.2214C65.7105 33.2214 64.577 33.4643 63.552 34.0912L66.5336 38.9659ZM66.8214 38.9357C66.9373 38.9357 66.9999 38.9452 67.0197 38.949C67.0384 38.9526 67.006 38.9485 66.9411 38.9178L69.3873 33.7536C68.5383 33.3514 67.644 33.2214 66.8214 33.2214V38.9357ZM66.9411 38.9178C66.9517 38.9228 66.9375 38.9173 66.9088 38.8951C66.8793 38.8723 66.8433 38.8387 66.8081 38.7945L71.2775 35.2341C70.7523 34.5747 70.0975 34.09 69.3873 33.7536L66.9411 38.9178ZM66.8417 38.8359C66.8665 38.8659 66.8736 38.8827 66.878 38.8947L72.2505 36.9481C72.0168 36.303 71.6762 35.715 71.2439 35.1927L66.8417 38.8359ZM66.878 38.8947C66.935 39.0522 66.9632 39.1769 66.9761 39.2718L72.638 38.4997C72.5653 37.966 72.4315 37.4478 72.2505 36.9481L66.878 38.8947ZM66.9761 39.2717C67.0069 39.4973 67.0142 39.6396 67.0142 39.7143H72.7285C72.7285 39.3128 72.693 38.9027 72.638 38.4997L66.9761 39.2717ZM67.0142 39.7143V44H72.7285V39.7143H67.0142ZM69.8714 41.1429H68.3571V46.8571H69.8714V41.1429ZM65.7928 44V36.2857H60.0785V44H65.7928ZM62.9357 39.1429H64.2714V33.4286H62.9357V39.1429ZM61.4142 36.2857V38.5143H67.1285V36.2857H61.4142ZM64.2714 41.3714H64.4499V35.6571H64.2714V41.3714ZM61.5928 38.5143V44H67.3071V38.5143H61.5928ZM64.4499 41.1429H62.9357V46.8571H64.4499V41.1429ZM73.4056 43.6786L71.7861 46.0324L71.7961 46.0392L73.4056 43.6786ZM72.1985 42.2214L69.5968 43.4022C69.6004 43.4103 69.6041 43.4183 69.6079 43.4264L72.1985 42.2214ZM72.2056 38.0571L74.7927 39.2698L74.7963 39.2621L72.2056 38.0571ZM73.4199 36.6071L75.0147 38.9778L75.0195 38.9745L73.4199 36.6071ZM77.1342 36.6071L75.463 38.9245C75.4714 38.9306 75.4798 38.9366 75.4883 38.9426L77.1342 36.6071ZM78.2628 38.0571L75.62 39.1429C75.6224 39.1488 75.6248 39.1546 75.6272 39.1604L78.2628 38.0571ZM78.2628 42.2143L80.8983 43.3175L78.2628 42.2143ZM77.1271 43.6786L78.7878 46.0035C78.7926 46 78.7975 45.9966 78.8023 45.9931L77.1271 43.6786ZM77.3556 41.55L80.0534 42.4911V42.4911L77.3556 41.55ZM77.3485 38.7214L74.6508 39.6625C74.654 39.6718 74.6573 39.6811 74.6606 39.6903L77.3485 38.7214ZM76.6771 37.7643L74.9455 40.0369C74.9513 40.0413 74.957 40.0457 74.9628 40.05L76.6771 37.7643ZM74.3056 37.7857L72.5751 35.5123V35.5123L74.3056 37.7857ZM73.5914 38.7643L70.9239 37.7407C70.9204 37.7498 70.917 37.7588 70.9136 37.7679L73.5914 38.7643ZM73.5914 41.5214L70.9098 42.5077C70.9144 42.5202 70.9191 42.5326 70.9239 42.545L73.5914 41.5214ZM74.2914 42.5L72.5277 44.7478C72.5332 44.7522 72.5388 44.7565 72.5444 44.7608L74.2914 42.5ZM77.5699 44H74.7128C74.7128 45.578 75.992 46.8571 77.5699 46.8571V44ZM77.5699 38.45H80.4271C80.4271 36.872 79.1479 35.5929 77.5699 35.5929V38.45ZM77.3985 38.45H74.5414C74.5414 40.028 75.8205 41.3071 77.3985 41.3071V38.45ZM77.3985 33.7143V30.8571C75.8205 30.8571 74.5414 32.1363 74.5414 33.7143H77.3985ZM78.8985 33.7143H81.7556C81.7556 32.1363 80.4765 30.8571 78.8985 30.8571V33.7143ZM78.8985 44V46.8571C80.4765 46.8571 81.7556 45.578 81.7556 44H78.8985ZM75.2699 41.3571C75.1478 41.3571 75.0809 41.3422 75.0537 41.3343C75.0293 41.3273 75.0208 41.3218 75.0152 41.3179L71.7961 46.0392C72.8562 46.762 74.0564 47.0714 75.2699 47.0714V41.3571ZM75.0252 41.3248C74.9583 41.2787 74.8764 41.204 74.7891 41.0165L69.6079 43.4264C70.0921 44.4674 70.8149 45.3641 71.7861 46.0323L75.0252 41.3248ZM74.8002 41.0406C74.7089 40.8394 74.6342 40.5547 74.6342 40.1357H68.9199C68.9199 41.2596 69.1262 42.3653 69.5968 43.4022L74.8002 41.0406ZM74.6342 40.1357C74.6342 39.7147 74.7101 39.4459 74.7927 39.2698L69.6186 36.8445C69.1297 37.8875 68.9199 39.0044 68.9199 40.1357H74.6342ZM74.7963 39.2621C74.8791 39.084 74.9545 39.0183 75.0147 38.9778L71.8251 34.2365C70.8377 34.9008 70.1036 35.8017 69.615 36.8522L74.7963 39.2621ZM75.0195 38.9745C75.0284 38.9686 75.0407 38.9612 75.0695 38.953C75.1012 38.9439 75.1724 38.9286 75.2985 38.9286V33.2143C74.0839 33.2143 72.883 33.5217 71.8203 34.2397L75.0195 38.9745ZM75.2985 38.9286C75.4298 38.9286 75.4916 38.9446 75.5034 38.9481C75.5095 38.9498 75.5062 38.9494 75.4964 38.9447C75.4866 38.9399 75.4748 38.933 75.463 38.9245L78.8054 34.2897C77.7353 33.518 76.5081 33.2143 75.2985 33.2143V38.9286ZM75.4883 38.9426C75.5058 38.9549 75.5558 38.9867 75.62 39.1429L80.9056 36.9713C80.465 35.899 79.7626 34.9641 78.7801 34.2717L75.4883 38.9426ZM75.6272 39.1604C75.7168 39.3744 75.7914 39.6837 75.7914 40.1357H81.5056C81.5056 39.0449 81.323 37.9685 80.8983 36.9539L75.6272 39.1604ZM75.7914 40.1357C75.7914 40.5877 75.7168 40.8971 75.6272 41.111L80.8983 43.3175C81.323 42.3029 81.5056 41.2266 81.5056 40.1357H75.7914ZM75.6272 41.111C75.5562 41.2807 75.493 41.3343 75.4518 41.3641L78.8023 45.9931C79.7612 45.299 80.4551 44.3765 80.8983 43.3175L75.6272 41.111ZM75.4664 41.3536C75.4927 41.3348 75.5093 41.3313 75.4959 41.3351C75.478 41.3403 75.4092 41.3571 75.2699 41.3571V47.0714C76.481 47.0714 77.7122 46.7718 78.7878 46.0035L75.4664 41.3536ZM75.4771 45.7214C76.4216 45.7214 77.4736 45.4919 78.397 44.7958L74.9572 40.2328C75.0987 40.1261 75.2379 40.0651 75.3449 40.0339C75.446 40.0044 75.4981 40.0071 75.4771 40.0071V45.7214ZM78.397 44.7958C79.2105 44.1825 79.7473 43.3685 80.0534 42.4911L74.6579 40.6089C74.6648 40.5893 74.6881 40.5309 74.7423 40.4539C74.7979 40.3749 74.8711 40.2977 74.9572 40.2328L78.397 44.7958ZM80.0534 42.4911C80.3228 41.7186 80.4271 40.9186 80.4271 40.1357H74.7128C74.7128 40.4195 74.6742 40.5623 74.6579 40.6089L80.0534 42.4911ZM80.4271 40.1357C80.4271 39.3439 80.318 38.5339 80.0363 37.7526L74.6606 39.6903C74.6742 39.728 74.7128 39.8609 74.7128 40.1357H80.4271ZM80.0462 37.7804C79.7431 36.9115 79.2111 36.0934 78.3914 35.4786L74.9628 40.05C74.8687 39.9794 74.7915 39.8971 74.7345 39.8158C74.6792 39.737 74.6564 39.6787 74.6508 39.6625L80.0462 37.7804ZM78.4086 35.4916C77.5026 34.8013 76.4678 34.5643 75.5271 34.5643V40.2786C75.5288 40.2786 75.4613 40.2789 75.3483 40.2452C75.2295 40.2098 75.0863 40.1442 74.9455 40.0369L78.4086 35.4916ZM75.5271 34.5643C74.5567 34.5643 73.4991 34.809 72.5751 35.5123L76.0362 40.0592C75.9055 40.1586 75.7736 40.2186 75.6669 40.2505C75.5658 40.2806 75.5114 40.2786 75.5271 40.2786V34.5643ZM72.5751 35.5123C71.7944 36.1065 71.2527 36.8838 70.9239 37.7407L76.2589 39.7879C76.2549 39.7982 76.2372 39.8399 76.1955 39.897C76.1529 39.9555 76.0981 40.012 76.0362 40.0592L72.5751 35.5123ZM70.9136 37.7679C70.6257 38.5416 70.5056 39.3428 70.5056 40.1357H76.2199C76.2199 39.9191 76.2522 39.8061 76.2691 39.7607L70.9136 37.7679ZM70.5056 40.1357C70.5056 40.9307 70.6249 41.7329 70.9098 42.5077L76.2729 40.5351C76.2531 40.4813 76.2199 40.3598 76.2199 40.1357H70.5056ZM70.9239 42.545C71.2442 43.3799 71.7663 44.1505 72.5277 44.7478L76.055 40.2522C76.118 40.3016 76.1698 40.3576 76.208 40.4109C76.2262 40.4363 76.2389 40.4578 76.2472 40.4735C76.2513 40.4812 76.2542 40.4873 76.2561 40.4915C76.258 40.4957 76.2589 40.4979 76.2589 40.4979L70.9239 42.545ZM72.5444 44.7608C73.4528 45.4628 74.4985 45.7214 75.4771 45.7214V40.0071C75.4812 40.0071 75.5507 40.0077 75.6626 40.0421C75.7798 40.0781 75.9125 40.142 76.0383 40.2392L72.5444 44.7608ZM80.4271 44V38.45H74.7128V44H80.4271ZM77.5699 35.5929H77.3985V41.3071H77.5699V35.5929ZM80.2556 38.45V33.7143H74.5414V38.45H80.2556ZM77.3985 36.5714H78.8985V30.8571H77.3985V36.5714ZM76.0414 33.7143V44H81.7556V33.7143H76.0414ZM78.8985 41.1429H77.5699V46.8571H78.8985V41.1429ZM25.4662 61H22.6091C22.6091 62.578 23.8883 63.8571 25.4662 63.8571V61ZM25.4662 50.7143V47.8571C23.8883 47.8571 22.6091 49.1363 22.6091 50.7143H25.4662ZM29.2162 50.7214L29.1633 53.5781L29.1643 53.5781L29.2162 50.7214ZM29.9662 50.7786L29.5701 53.6081C29.5847 53.6102 29.5993 53.6121 29.6139 53.6139L29.9662 50.7786ZM31.9948 51.6429L30.12 53.7989L30.1293 53.8069L31.9948 51.6429ZM33.2448 53.4571L30.5768 54.4793L30.579 54.4851L33.2448 53.4571ZM33.2448 58.2714L35.9106 59.2994L35.9128 59.2936L33.2448 58.2714ZM31.9948 60.0786L33.8589 62.2439L33.8603 62.2426L31.9948 60.0786ZM29.9662 60.9357L29.6139 58.1004C29.5993 58.1022 29.5847 58.1041 29.5701 58.1062L29.9662 60.9357ZM29.2162 60.9929L29.1643 58.1362L29.1633 58.1362L29.2162 60.9929ZM26.9948 59.5786H24.1377C24.1377 61.1565 25.4169 62.4357 26.9948 62.4357V59.5786ZM29.2662 59.5643L29.3877 62.4188H29.3877L29.2662 59.5643ZM29.8591 59.5071L30.3288 62.3254C30.3509 62.3217 30.3729 62.3178 30.3949 62.3136L29.8591 59.5071ZM31.1305 58.8286L29.0279 56.8941L29.0267 56.8954L31.1305 58.8286ZM31.852 57.5143L29.1105 56.7095L29.1105 56.7095L31.852 57.5143ZM31.8448 54.1786L29.1102 55.0065L29.1124 55.0135L31.8448 54.1786ZM31.1162 52.8786L29.0124 54.8118C29.0215 54.8216 29.0306 54.8314 29.0398 54.8412L31.1162 52.8786ZM29.8591 52.2071L29.3138 55.0118C29.3221 55.0134 29.3305 55.015 29.3388 55.0165L29.8591 52.2071ZM29.2591 52.15L29.1376 55.0046C29.1583 55.0054 29.1789 55.0061 29.1996 55.0065L29.2591 52.15ZM26.9948 52.1357V49.2786C25.4169 49.2786 24.1377 50.5578 24.1377 52.1357H26.9948ZM28.3234 61V50.7143H22.6091V61H28.3234ZM25.4662 53.5714H28.6877V47.8571H25.4662V53.5714ZM28.6877 53.5714C28.7528 53.5714 28.9039 53.5733 29.1633 53.5781L29.2691 47.8648C29.0143 47.8601 28.813 47.8571 28.6877 47.8571V53.5714ZM29.1643 53.5781C29.3211 53.5809 29.4557 53.5921 29.5701 53.6081L30.3624 47.949C30.0006 47.8984 29.6351 47.8714 29.2682 47.8648L29.1643 53.5781ZM29.6139 53.6139C29.9237 53.6524 30.0505 53.7384 30.12 53.7989L33.8696 49.4868C32.8439 48.5949 31.6183 48.1047 30.3186 47.9432L29.6139 53.6139ZM30.1293 53.8069C30.2967 53.9512 30.4515 54.1523 30.5768 54.4793L35.9128 52.435C35.4762 51.2953 34.7977 50.2869 33.8603 49.4788L30.1293 53.8069ZM30.579 54.4851C30.7197 54.8499 30.8091 55.2966 30.8091 55.8571H36.5234C36.5234 54.6748 36.3319 53.5216 35.9106 52.4292L30.579 54.4851ZM30.8091 55.8571C30.8091 56.4242 30.7191 56.8778 30.5768 57.2493L35.9128 59.2936C36.3325 58.1984 36.5234 57.0425 36.5234 55.8571H30.8091ZM30.579 57.2434C30.4549 57.5651 30.3004 57.767 30.1293 57.9145L33.8603 62.2426C34.7939 61.4378 35.4728 60.4349 35.9106 59.2994L30.579 57.2434ZM30.1308 57.9133C30.061 57.9733 29.9305 58.061 29.6139 58.1004L30.3186 63.771C31.6115 63.6104 32.8334 63.1267 33.8589 62.2439L30.1308 57.9133ZM29.5701 58.1062C29.4557 58.1222 29.3211 58.1333 29.1643 58.1362L29.2682 63.8495C29.6351 63.8429 30.0006 63.8159 30.3624 63.7653L29.5701 58.1062ZM29.1633 58.1362C28.9039 58.141 28.7528 58.1429 28.6877 58.1429V63.8571C28.813 63.8571 29.0143 63.8542 29.2691 63.8495L29.1633 58.1362ZM28.6877 58.1429H25.4662V63.8571H28.6877V58.1429ZM26.9948 62.4357H28.6877V56.7214H26.9948V62.4357ZM28.6877 62.4357C28.9021 62.4357 29.1375 62.4295 29.3877 62.4188L29.1448 56.7097C28.9473 56.7181 28.7971 56.7214 28.6877 56.7214V62.4357ZM29.3877 62.4188C29.6968 62.4057 30.0148 62.3777 30.3288 62.3254L29.3894 56.6889C29.3605 56.6937 29.2833 56.7038 29.1448 56.7097L29.3877 62.4188ZM30.3949 62.3136C31.4492 62.1123 32.448 61.6175 33.2343 60.7618L29.0267 56.8954C29.0836 56.8335 29.1534 56.7798 29.2245 56.7419C29.2928 56.7055 29.3333 56.6988 29.3233 56.7007L30.3949 62.3136ZM33.2332 60.763C33.8911 60.0479 34.3319 59.21 34.5934 58.3191L29.1105 56.7095C29.0877 56.7871 29.0659 56.8333 29.0527 56.8573C29.0401 56.8803 29.0315 56.8902 29.0279 56.8941L33.2332 60.763ZM34.5934 58.3191C34.8286 57.518 34.9377 56.6929 34.9377 55.8571H29.2234C29.2234 56.1929 29.1801 56.4725 29.1105 56.7095L34.5934 58.3191ZM34.9377 55.8571C34.9377 55.0042 34.8266 54.1599 34.5772 53.3437L29.1124 55.0135C29.1773 55.2259 29.2234 55.5006 29.2234 55.8571H34.9377ZM34.5794 53.3507C34.3111 52.4646 33.8641 51.6264 33.1926 50.916L29.0398 54.8412C29.0366 54.8378 29.0414 54.8415 29.0524 54.8611C29.064 54.8819 29.0862 54.9269 29.1102 55.0065L34.5794 53.3507ZM33.22 50.9454C32.4379 50.0942 31.4426 49.5947 30.3793 49.3978L29.3388 55.0165C29.3364 55.0161 29.287 55.0061 29.2131 54.9666C29.1366 54.9258 29.0666 54.8708 29.0124 54.8118L33.22 50.9454ZM30.4044 49.4025C30.0326 49.3302 29.6635 49.3007 29.3186 49.2935L29.1996 55.0065C29.2527 55.0076 29.2887 55.0101 29.3096 55.0121C29.3309 55.0142 29.3311 55.0151 29.3138 55.0118L30.4044 49.4025ZM29.3806 49.2954C29.1317 49.2849 28.8983 49.2786 28.6877 49.2786V54.9929C28.7913 54.9929 28.9388 54.9961 29.1376 55.0046L29.3806 49.2954ZM28.6877 49.2786H26.9948V54.9929H28.6877V49.2786ZM24.1377 52.1357V59.5786H29.852V52.1357H24.1377ZM37.3009 60.7143L35.855 63.1785C35.863 63.1832 35.871 63.1879 35.879 63.1925L37.3009 60.7143ZM35.9509 59.3071L33.4239 60.6403C33.4281 60.6483 33.4323 60.6562 33.4366 60.6641L35.9509 59.3071ZM35.9438 55.0143L33.4041 53.7054C33.4015 53.7105 33.3988 53.7157 33.3962 53.7209L35.9438 55.0143ZM37.2724 53.5786L35.8085 51.125L37.2724 53.5786ZM41.2581 53.6214L39.678 56.0019C39.6827 56.005 39.6875 56.0082 39.6923 56.0113L41.2581 53.6214ZM42.4938 55.1714L39.8449 56.2423C39.8471 56.2476 39.8493 56.253 39.8515 56.2583L42.4938 55.1714ZM42.8224 57.5643V60.4214C44.3318 60.4214 45.5809 59.2473 45.6741 57.7407L42.8224 57.5643ZM41.3295 57.5643H38.4724C38.4724 59.1422 39.7516 60.4214 41.3295 60.4214V57.5643ZM41.3295 57.0214H44.1867C44.1867 57.0113 44.1866 57.0012 44.1865 56.991L41.3295 57.0214ZM40.8152 55.0357L38.5478 56.7741C38.5518 56.7794 38.5559 56.7846 38.5599 56.7898L40.8152 55.0357ZM37.6224 55.1L39.8556 56.8821L37.6224 55.1ZM37.6224 59.1143L35.398 60.9074C35.401 60.9111 35.404 60.9149 35.407 60.9186L37.6224 59.1143ZM40.4581 59.4929L41.9632 61.9215L41.9724 61.9157L40.4581 59.4929ZM41.2581 58.5786L42.1216 55.8551C40.7664 55.4254 39.3015 56.0574 38.6842 57.3382L41.2581 58.5786ZM42.7224 59.0429L45.3429 60.1814C45.6652 59.4396 45.658 58.596 45.3231 57.8598C44.9881 57.1236 44.3569 56.5638 43.5859 56.3193L42.7224 59.0429ZM41.3581 60.65L42.8587 63.0814C42.8633 63.0785 42.8678 63.0757 42.8724 63.0729L41.3581 60.65ZM36.5724 57.5643H33.7152C33.7152 59.1422 34.9944 60.4214 36.5724 60.4214V57.5643ZM36.5724 56.4V53.5429C34.9944 53.5429 33.7152 54.822 33.7152 56.4H36.5724ZM42.0795 56.4H44.9367C44.9367 54.822 43.6575 53.5429 42.0795 53.5429V56.4ZM42.0795 57.5643V60.4214C43.6575 60.4214 44.9367 59.1422 44.9367 57.5643H42.0795ZM39.3224 58.3571C38.9814 58.3571 38.8117 58.2871 38.7229 58.2361L35.879 63.1925C36.9521 63.8082 38.13 64.0714 39.3224 64.0714V58.3571ZM38.7469 58.25C38.6311 58.1821 38.5463 58.1003 38.4653 57.9502L33.4366 60.6641C34.0032 61.714 34.8185 62.5703 35.855 63.1785L38.7469 58.25ZM38.478 57.974C38.4086 57.8425 38.3295 57.6138 38.3295 57.2071H32.6152C32.6152 58.391 32.8552 59.5623 33.4239 60.6403L38.478 57.974ZM38.3295 57.2071C38.3295 56.7188 38.4196 56.4491 38.4914 56.3077L33.3962 53.7209C32.8394 54.8176 32.6152 56.0098 32.6152 57.2071H38.3295ZM38.4835 56.3232C38.5721 56.1512 38.654 56.0813 38.7363 56.0322L35.8085 51.125C34.7574 51.7521 33.9536 52.6393 33.4041 53.7054L38.4835 56.3232ZM38.7363 56.0322C38.8011 55.9935 38.9403 55.9286 39.2509 55.9286V50.2143C38.0568 50.2143 36.877 50.4874 35.8085 51.125L38.7363 56.0322ZM39.2509 55.9286C39.5805 55.9286 39.675 55.9999 39.678 56.0019L42.8382 51.241C41.7364 50.5096 40.4928 50.2143 39.2509 50.2143V55.9286ZM39.6923 56.0113C39.7106 56.0233 39.7696 56.056 39.8449 56.2423L45.1427 54.1006C44.6751 52.944 43.9103 51.9433 42.8239 51.2315L39.6923 56.0113ZM39.8515 56.2583C39.9244 56.4356 40.0082 56.7807 39.9707 57.3879L45.6741 57.7407C45.7508 56.5002 45.6156 55.2501 45.1361 54.0845L39.8515 56.2583ZM42.8224 54.7071H41.3295V60.4214H42.8224V54.7071ZM44.1867 57.5643V57.0214H38.4724V57.5643H44.1867ZM44.1865 56.991C44.1743 55.8423 43.9659 54.4328 43.0705 53.2816L38.5599 56.7898C38.4341 56.628 38.4154 56.5216 38.4279 56.5699C38.4409 56.6201 38.4695 56.7688 38.4725 57.0518L44.1865 56.991ZM43.0827 53.2973C42.0788 51.988 40.6256 51.5357 39.3081 51.5357V57.25C39.3499 57.25 39.2478 57.257 39.071 57.1816C38.8753 57.0981 38.6863 56.9547 38.5478 56.7741L43.0827 53.2973ZM39.3081 51.5357C37.9203 51.5357 36.4358 52.0062 35.3891 53.3179L39.8556 56.8821C39.7419 57.0246 39.587 57.139 39.4312 57.2044C39.2924 57.2626 39.2301 57.25 39.3081 57.25V51.5357ZM35.3891 53.3179C34.4561 54.4871 34.2009 55.9021 34.2009 57.1429H39.9152C39.9152 56.8912 39.9426 56.7632 39.9532 56.725C39.9618 56.6937 39.946 56.7689 39.8556 56.8821L35.3891 53.3179ZM34.2009 57.1429C34.2009 58.3779 34.4723 59.7591 35.398 60.9074L39.8468 57.3212C39.9297 57.424 39.9496 57.4978 39.946 57.4852C39.9402 57.4649 39.9152 57.3617 39.9152 57.1429H34.2009ZM35.407 60.9186C36.4313 62.1762 37.8645 62.6643 39.2509 62.6643V56.95C39.2043 56.95 39.2839 56.9426 39.4302 57.0048C39.5903 57.0729 39.7357 57.1847 39.8377 57.31L35.407 60.9186ZM39.2509 62.6643C40.1559 62.6643 41.0997 62.4566 41.9631 61.9215L38.953 57.0643C39.0382 57.0115 39.1196 56.9801 39.1829 56.9636C39.2434 56.9478 39.2705 56.95 39.2509 56.95V62.6643ZM41.9724 61.9157C42.8119 61.391 43.4278 60.6575 43.8319 59.819L38.6842 57.3382C38.6915 57.3232 38.7154 57.2788 38.765 57.2221C38.8157 57.1642 38.8775 57.1114 38.9438 57.07L41.9724 61.9157ZM40.3945 61.3021L41.8588 61.7664L43.5859 56.3193L42.1216 55.8551L40.3945 61.3021ZM40.1019 57.9043C40.0207 58.0912 39.9391 58.1676 39.8438 58.2271L42.8724 63.0729C43.9961 62.3705 44.8241 61.3754 45.3429 60.1814L40.1019 57.9043ZM39.8575 58.2186C39.7193 58.304 39.5643 58.3571 39.3224 58.3571V64.0714C40.5757 64.0714 41.7779 63.7484 42.8587 63.0814L39.8575 58.2186ZM39.4295 57.5643V56.4H33.7152V57.5643H39.4295ZM36.5724 59.2571H42.0795V53.5429H36.5724V59.2571ZM39.2224 56.4V57.5643H44.9367V56.4H39.2224ZM42.0795 54.7071H36.5724V60.4214H42.0795V54.7071ZM45.5997 60.9L44.2122 63.3976C44.2201 63.402 44.228 63.4063 44.2359 63.4106L45.5997 60.9ZM44.7211 60.0571L42.222 61.4418C42.2294 61.4553 42.237 61.4687 42.2446 61.482L44.7211 60.0571ZM44.6354 57.8714L42.0474 56.6609V56.6609L44.6354 57.8714ZM45.2497 57.1214L46.9704 59.4023C46.9788 59.396 46.9872 59.3896 46.9956 59.3831L45.2497 57.1214ZM46.2497 56.6143L45.4497 53.8714C45.4216 53.8796 45.3937 53.8882 45.3659 53.8973L46.2497 56.6143ZM47.414 56.35L47.9088 59.164L47.9088 59.164L47.414 56.35ZM48.7783 56.1357L48.386 53.3056L48.3822 53.3062L48.7783 56.1357ZM50.2069 55.9357L51.5888 58.4364C52.7952 57.7697 53.3536 56.3369 52.9166 55.0297C52.4795 53.7225 51.1715 52.9137 49.8068 53.1067L50.2069 55.9357ZM49.664 56.2357L46.8072 56.1907C46.7912 57.2098 47.3192 58.1603 48.193 58.6851C49.0667 59.2098 50.1539 59.2294 51.046 58.7364L49.664 56.2357ZM49.2783 54.8929L47.1409 56.7889C47.1517 56.801 47.1626 56.8131 47.1736 56.8251L49.2783 54.8929ZM46.8069 54.7357L48.1824 57.2399C48.1914 57.235 48.2003 57.23 48.2093 57.225L46.8069 54.7357ZM46.0997 55.6643L45.2595 58.3951C45.9837 58.6179 46.7668 58.5439 47.4365 58.1894C48.1062 57.8348 48.6077 57.2288 48.8305 56.5045L46.0997 55.6643ZM44.7069 55.2357L41.9611 54.4456C41.5304 55.9424 42.3779 57.5084 43.8666 57.9665L44.7069 55.2357ZM45.7926 53.6571L44.1145 51.3447L44.1048 51.3518L45.7926 53.6571ZM49.7354 53.4286L48.5259 56.017C48.5355 56.0216 48.5452 56.026 48.555 56.0304L49.7354 53.4286ZM50.864 54.5429L48.2755 55.7524C48.2832 55.7688 48.291 55.785 48.2989 55.8012L50.864 54.5429ZM51.0926 55.3429L48.2501 55.6319V55.6319L51.0926 55.3429ZM51.1354 61V63.8571C52.7134 63.8571 53.9926 62.578 53.9926 61H51.1354ZM49.814 61H46.9569C46.9569 62.578 48.236 63.8571 49.814 63.8571V61ZM49.814 59.2357L51.7122 57.1003C50.8713 56.3528 49.6699 56.1684 48.6436 56.6293C47.6172 57.0902 46.9569 58.1106 46.9569 59.2357H49.814ZM50.0711 59.4643L52.5848 60.8225C53.215 59.6562 52.9602 58.2096 51.9693 57.3288L50.0711 59.4643ZM48.8497 60.7857L50.2879 63.2545L50.2952 63.2502L48.8497 60.7857ZM48.3926 59.7714L49.6381 62.3428C49.6489 62.3376 49.6596 62.3323 49.6703 62.3269L48.3926 59.7714ZM49.1283 59.1929L46.8928 57.4136L49.1283 59.1929ZM49.4926 58.4643L46.7994 57.5104C46.7619 57.6161 46.7307 57.724 46.706 57.8334L49.4926 58.4643ZM49.6283 57.6929L46.7747 57.5502C46.7739 57.566 46.7733 57.5818 46.7727 57.5977L49.6283 57.6929ZM49.6497 57.0071L50.6356 54.3255C49.7592 54.0033 48.7805 54.1297 48.0147 54.6641C47.2489 55.1984 46.7926 56.0733 46.7926 57.0071H49.6497ZM50.1354 57.1857L50.5634 60.0106C51.853 59.8152 52.8466 58.7713 52.978 57.4737C53.1095 56.1761 52.3455 54.9541 51.1213 54.5041L50.1354 57.1857ZM48.8497 57.3786L49.2684 60.2049L48.8497 57.3786ZM47.7997 57.55L48.2765 60.3671C48.2879 60.3651 48.2994 60.3631 48.3108 60.3611L47.7997 57.55ZM46.9711 57.7429L46.1159 55.0167C46.0871 55.0257 46.0585 55.0352 46.0301 55.0451L46.9711 57.7429ZM46.4211 58L44.9197 55.5691C44.9089 55.5759 44.898 55.5827 44.8872 55.5895L46.4211 58ZM46.0426 58.3643L43.6653 56.7794C43.6529 56.798 43.6408 56.8167 43.6288 56.8356L46.0426 58.3643ZM46.0569 59.4429L43.5889 60.8825C43.5948 60.8926 43.6008 60.9028 43.6069 60.9128L46.0569 59.4429ZM46.514 59.8429L45.2602 62.4102L45.2602 62.4102L46.514 59.8429ZM47.0354 58.3571C46.9221 58.3571 46.8676 58.3466 46.8589 58.3447C46.8524 58.3432 46.8943 58.3517 46.9635 58.3894L44.2359 63.4106C45.1477 63.9059 46.1271 64.0714 47.0354 64.0714V58.3571ZM46.9873 58.4024C46.9906 58.4042 47.0232 58.4231 47.0688 58.4668C47.1155 58.5116 47.1609 58.5684 47.1977 58.6323L42.2446 61.482C42.729 62.3238 43.4196 62.9573 44.2122 63.3976L46.9873 58.4024ZM47.2203 58.6725C47.2405 58.7088 47.259 58.7538 47.2713 58.8026C47.2835 58.8507 47.2854 58.8857 47.2854 58.9H41.5711C41.5711 59.7833 41.7823 60.6483 42.222 61.4418L47.2203 58.6725ZM47.2854 58.9C47.2854 58.8462 47.2942 58.9307 47.2235 59.082L42.0474 56.6609C41.7004 57.4027 41.5711 58.1728 41.5711 58.9H47.2854ZM47.2235 59.082C47.1929 59.1473 47.1522 59.2128 47.1029 59.2729C47.0541 59.3326 47.0066 59.375 46.9704 59.4023L43.529 54.8405C42.9021 55.3135 42.3916 55.925 42.0474 56.6609L47.2235 59.082ZM46.9956 59.3831C46.9595 59.411 46.9857 59.3794 47.1336 59.3313L45.3659 53.8973C44.7233 54.1063 44.0828 54.4128 43.5039 54.8597L46.9956 59.3831ZM47.0497 59.3571C47.2724 59.2922 47.5558 59.226 47.9088 59.164L46.9192 53.536C46.4055 53.6263 45.9128 53.7364 45.4497 53.8714L47.0497 59.3571ZM47.9088 59.164C48.3065 59.0941 48.7282 59.0277 49.1744 58.9653L48.3822 53.3062C47.876 53.377 47.3882 53.4536 46.9192 53.536L47.9088 59.164ZM49.1706 58.9658C49.6541 58.8988 50.1329 58.8317 50.6069 58.7647L49.8068 53.1067C49.338 53.173 48.8644 53.2393 48.386 53.3056L49.1706 58.9658ZM48.8249 53.435L48.282 53.735L51.046 58.7364L51.5888 58.4364L48.8249 53.435ZM52.5208 56.2807C52.5359 55.3241 52.3517 54.0159 51.383 52.9607L47.1736 56.8251C46.9577 56.59 46.8646 56.3604 46.8286 56.2352C46.7959 56.1212 46.8088 56.0909 46.8072 56.1907L52.5208 56.2807ZM51.4156 52.9968C50.3504 51.796 48.8811 51.5929 47.9211 51.5929V57.3071C48.0399 57.3071 47.9968 57.3228 47.8562 57.2769C47.6993 57.2257 47.4099 57.0921 47.1409 56.7889L51.4156 52.9968ZM47.9211 51.5929C47.0471 51.5929 46.1894 51.8042 45.4045 52.2464L48.2093 57.225C48.1632 57.2509 48.108 57.2738 48.0486 57.289C47.99 57.3041 47.9449 57.3071 47.9211 57.3071V51.5929ZM45.4313 52.2315C44.3295 52.8367 43.6796 53.8144 43.3689 54.824L48.8305 56.5045C48.8143 56.5572 48.7662 56.685 48.6496 56.8382C48.5277 56.9982 48.3664 57.1389 48.1824 57.2399L45.4313 52.2315ZM46.94 52.9335L45.5471 52.5049L43.8666 57.9665L45.2595 58.3951L46.94 52.9335ZM47.4526 56.0258C47.4614 55.9951 47.469 55.9772 47.4727 55.9693C47.4763 55.9616 47.4774 55.9606 47.4752 55.9637C47.473 55.967 47.4704 55.97 47.4688 55.9717C47.4672 55.9733 47.4701 55.97 47.4804 55.9625L44.1048 51.3518C43.0381 52.1328 42.3188 53.2029 41.9611 54.4456L47.4526 56.0258ZM47.4706 55.9696C47.3794 56.0358 47.4457 55.9286 47.9354 55.9286V50.2143C46.6442 50.2143 45.2819 50.4976 44.1145 51.3447L47.4706 55.9696ZM47.9354 55.9286C48.301 55.9286 48.4712 55.9915 48.5259 56.017L50.945 50.8401C49.9806 50.3895 48.9508 50.2143 47.9354 50.2143V55.9286ZM48.555 56.0304C48.5262 56.0174 48.4637 55.9822 48.3959 55.9153C48.328 55.8482 48.2906 55.7847 48.2755 55.7524L53.4525 53.3333C52.9247 52.2039 52.0477 51.3402 50.9159 50.8267L48.555 56.0304ZM48.2989 55.8012C48.2872 55.7774 48.2759 55.7488 48.2668 55.7171C48.2577 55.6853 48.2526 55.6561 48.2501 55.6319L53.9351 55.0538C53.8724 54.4374 53.7028 53.8424 53.4291 53.2845L48.2989 55.8012ZM48.2501 55.6319C48.2676 55.8041 48.2783 56.0091 48.2783 56.25H53.9926C53.9926 55.8433 53.9747 55.4435 53.9351 55.0538L48.2501 55.6319ZM48.2783 56.25V61H53.9926V56.25H48.2783ZM51.1354 58.1429H49.814V63.8571H51.1354V58.1429ZM52.6712 61V59.2357H46.9569V61H52.6712ZM47.9158 61.3712L48.173 61.5997L51.9693 57.3288L51.7122 57.1003L47.9158 61.3712ZM47.5575 58.1061C47.4983 58.2155 47.4517 58.2729 47.4284 58.2981C47.4068 58.3215 47.399 58.3243 47.4042 58.3212L50.2952 63.2502C51.3123 62.6537 52.06 61.7937 52.5848 60.8225L47.5575 58.1061ZM47.4116 58.3169C47.4596 58.2889 47.3819 58.3571 47.0354 58.3571V64.0714C48.1271 64.0714 49.2589 63.8539 50.2879 63.2545L47.4116 58.3169ZM47.2997 62.85C48.0492 62.85 48.86 62.7197 49.6381 62.3428L47.1471 57.2001C47.3157 57.1184 47.3979 57.1357 47.2997 57.1357V62.85ZM49.6703 62.3269C50.294 62.0151 50.8846 61.5742 51.3638 60.9721L46.8928 57.4136C47.0006 57.2782 47.1007 57.223 47.1148 57.2159L49.6703 62.3269ZM51.3638 60.9721C51.7765 60.4536 52.1136 59.8265 52.2792 59.0952L46.706 57.8334C46.7573 57.6068 46.8515 57.4654 46.8928 57.4136L51.3638 60.9721ZM52.1858 59.4181C52.3803 58.8691 52.4663 58.3156 52.4838 57.788L46.7727 57.5977C46.7713 57.6415 46.7668 57.6023 46.7994 57.5104L52.1858 59.4181ZM52.4819 57.8355C52.4972 57.5291 52.5069 57.247 52.5069 57.0071H46.7926C46.7926 57.1101 46.788 57.2852 46.7747 57.5502L52.4819 57.8355ZM48.6638 59.6888L49.1495 59.8674L51.1213 54.5041L50.6356 54.3255L48.6638 59.6888ZM49.7074 54.3608C49.2384 54.4319 48.813 54.4957 48.431 54.5523L49.2684 60.2049C49.6578 60.1472 50.0896 60.0824 50.5634 60.0106L49.7074 54.3608ZM48.431 54.5523C48.0209 54.613 47.6394 54.6752 47.2886 54.7389L48.3108 60.3611C48.5886 60.3106 48.9072 60.2584 49.2684 60.2049L48.431 54.5523ZM47.323 54.7329C46.9136 54.8022 46.5073 54.8939 46.1159 55.0167L47.8264 60.469C47.9207 60.4394 48.0668 60.4026 48.2765 60.3671L47.323 54.7329ZM46.0301 55.0451C45.656 55.1756 45.2807 55.3462 44.9197 55.5691L47.9226 60.4309C47.9038 60.4424 47.8923 60.448 47.8902 60.4489C47.8881 60.4499 47.8949 60.4466 47.9122 60.4406L46.0301 55.0451ZM44.8872 55.5895C44.4234 55.8847 43.9993 56.2784 43.6653 56.7794L48.4199 59.9491C48.2763 60.1644 48.1047 60.3153 47.9551 60.4105L44.8872 55.5895ZM43.6288 56.8356C43.1928 57.524 43.0497 58.2546 43.0497 58.8857H48.764C48.764 59.1073 48.7114 59.4903 48.4563 59.893L43.6288 56.8356ZM43.0497 58.8857C43.0497 59.5875 43.232 60.2706 43.5889 60.8825L48.5248 58.0032C48.6818 58.2723 48.764 58.584 48.764 58.8857H43.0497ZM43.6069 60.9128C44.0373 61.6302 44.6463 62.1104 45.2602 62.4102L47.7678 57.2755C47.9722 57.3754 48.2765 57.5889 48.5068 57.9729L43.6069 60.9128ZM45.2602 62.4102C45.9794 62.7614 46.7092 62.85 47.2997 62.85V57.1357C47.2861 57.1357 47.3237 57.1344 47.3998 57.1489C47.4766 57.1636 47.6078 57.1974 47.7678 57.2755L45.2602 62.4102ZM53.7045 61H50.8474C50.8474 62.578 52.1266 63.8571 53.7045 63.8571V61ZM53.7045 50.5V47.6429C52.1266 47.6429 50.8474 48.922 50.8474 50.5H53.7045ZM55.1974 50.5H58.0545C58.0545 48.922 56.7753 47.6429 55.1974 47.6429V50.5ZM55.1974 61V63.8571C56.7753 63.8571 58.0545 62.578 58.0545 61H55.1974ZM56.5617 61V50.5H50.8474V61H56.5617ZM53.7045 53.3571H55.1974V47.6429H53.7045V53.3571ZM52.3402 50.5V61H58.0545V50.5H52.3402ZM55.1974 58.1429H53.7045V63.8571H55.1974V58.1429ZM59.3138 60.7143L57.8678 63.1785C57.8758 63.1832 57.8838 63.1879 57.8919 63.1925L59.3138 60.7143ZM57.9638 59.3071L55.4367 60.6403C55.4409 60.6483 55.4452 60.6562 55.4494 60.6641L57.9638 59.3071ZM57.9566 55.0143L55.417 53.7054C55.4143 53.7105 55.4117 53.7157 55.409 53.7209L57.9566 55.0143ZM59.2852 53.5786L57.8213 51.125L59.2852 53.5786ZM63.2709 53.6214L61.6908 56.0019C61.6956 56.005 61.7004 56.0082 61.7051 56.0113L63.2709 53.6214ZM64.5066 55.1714L61.8578 56.2423C61.8599 56.2476 61.8621 56.253 61.8643 56.2583L64.5066 55.1714ZM64.8352 57.5643V60.4214C66.3447 60.4214 67.5937 59.2473 67.6869 57.7407L64.8352 57.5643ZM63.3424 57.5643H60.4852C60.4852 59.1422 61.7644 60.4214 63.3424 60.4214V57.5643ZM63.3424 57.0214H66.1995C66.1995 57.0113 66.1994 57.0012 66.1993 56.991L63.3424 57.0214ZM62.8281 55.0357L60.5606 56.7741C60.5647 56.7794 60.5687 56.7846 60.5728 56.7898L62.8281 55.0357ZM59.6352 55.1L61.8685 56.8821L59.6352 55.1ZM59.6352 59.1143L57.4108 60.9074C57.4138 60.9111 57.4168 60.9149 57.4198 60.9186L59.6352 59.1143ZM62.4709 59.4929L63.976 61.9215L63.9852 61.9157L62.4709 59.4929ZM63.2709 58.5786L64.1345 55.8551C62.7793 55.4254 61.3143 56.0574 60.6971 57.3382L63.2709 58.5786ZM64.7352 59.0429L67.3557 60.1814C67.678 59.4396 67.6708 58.596 67.3359 57.8598C67.001 57.1236 66.3697 56.5638 65.5988 56.3193L64.7352 59.0429ZM63.3709 60.65L64.8715 63.0814C64.8761 63.0785 64.8807 63.0757 64.8852 63.0729L63.3709 60.65ZM58.5852 57.5643H55.7281C55.7281 59.1422 57.0073 60.4214 58.5852 60.4214V57.5643ZM58.5852 56.4V53.5429C57.0073 53.5429 55.7281 54.822 55.7281 56.4H58.5852ZM64.0924 56.4H66.9495C66.9495 54.822 65.6703 53.5429 64.0924 53.5429V56.4ZM64.0924 57.5643V60.4214C65.6703 60.4214 66.9495 59.1422 66.9495 57.5643H64.0924ZM61.3352 58.3571C60.9942 58.3571 60.8245 58.2871 60.7357 58.2361L57.8919 63.1925C58.965 63.8082 60.1429 64.0714 61.3352 64.0714V58.3571ZM60.7597 58.25C60.6439 58.1821 60.5591 58.1003 60.4781 57.9502L55.4494 60.6641C56.016 61.714 56.8313 62.5703 57.8678 63.1785L60.7597 58.25ZM60.4908 57.974C60.4215 57.8425 60.3424 57.6138 60.3424 57.2071H54.6281C54.6281 58.391 54.868 59.5623 55.4367 60.6403L60.4908 57.974ZM60.3424 57.2071C60.3424 56.7188 60.4325 56.4491 60.5043 56.3077L55.409 53.7209C54.8522 54.8176 54.6281 56.0098 54.6281 57.2071H60.3424ZM60.4963 56.3232C60.585 56.1512 60.6668 56.0813 60.7491 56.0322L57.8213 51.125C56.7703 51.7521 55.9664 52.6393 55.417 53.7054L60.4963 56.3232ZM60.7491 56.0322C60.8139 55.9935 60.9532 55.9286 61.2638 55.9286V50.2143C60.0696 50.2143 58.8899 50.4874 57.8213 51.125L60.7491 56.0322ZM61.2638 55.9286C61.5933 55.9286 61.6879 55.9999 61.6908 56.0019L64.851 51.241C63.7492 50.5096 62.5057 50.2143 61.2638 50.2143V55.9286ZM61.7051 56.0113C61.7235 56.0233 61.7825 56.056 61.8578 56.2423L67.1555 54.1006C66.688 52.944 65.9232 51.9433 64.8367 51.2315L61.7051 56.0113ZM61.8643 56.2583C61.9372 56.4356 62.0211 56.7807 61.9835 57.3879L67.6869 57.7407C67.7636 56.5002 67.6284 55.2501 67.149 54.0845L61.8643 56.2583ZM64.8352 54.7071H63.3424V60.4214H64.8352V54.7071ZM66.1995 57.5643V57.0214H60.4852V57.5643H66.1995ZM66.1993 56.991C66.1871 55.8423 65.9787 54.4328 65.0834 53.2816L60.5728 56.7898C60.4469 56.628 60.4283 56.5216 60.4408 56.5699C60.4538 56.6201 60.4824 56.7688 60.4854 57.0518L66.1993 56.991ZM65.0955 53.2973C64.0917 51.988 62.6384 51.5357 61.3209 51.5357V57.25C61.3627 57.25 61.2607 57.257 61.0839 57.1816C60.8881 57.0981 60.6991 56.9547 60.5606 56.7741L65.0955 53.2973ZM61.3209 51.5357C59.9332 51.5357 58.4487 52.0062 57.402 53.3179L61.8685 56.8821C61.7547 57.0246 61.5998 57.139 61.444 57.2044C61.3053 57.2626 61.2429 57.25 61.3209 57.25V51.5357ZM57.402 53.3179C56.4689 54.4871 56.2138 55.9021 56.2138 57.1429H61.9281C61.9281 56.8912 61.9555 56.7632 61.966 56.725C61.9746 56.6937 61.9588 56.7689 61.8685 56.8821L57.402 53.3179ZM56.2138 57.1429C56.2138 58.3779 56.4851 59.7591 57.4108 60.9074L61.8596 57.3212C61.9425 57.424 61.9625 57.4978 61.9588 57.4852C61.953 57.4649 61.9281 57.3617 61.9281 57.1429H56.2138ZM57.4198 60.9186C58.4441 62.1762 59.8773 62.6643 61.2638 62.6643V56.95C61.2171 56.95 61.2967 56.9426 61.443 57.0048C61.6031 57.0729 61.7485 57.1847 61.8506 57.31L57.4198 60.9186ZM61.2638 62.6643C62.1688 62.6643 63.1125 62.4566 63.976 61.9215L60.9659 57.0643C61.0511 57.0115 61.1324 56.9801 61.1957 56.9636C61.2562 56.9478 61.2834 56.95 61.2638 56.95V62.6643ZM63.9852 61.9157C64.8248 61.391 65.4407 60.6575 65.8448 59.819L60.6971 57.3382C60.7043 57.3232 60.7283 57.2788 60.7779 57.2221C60.8285 57.1642 60.8903 57.1114 60.9566 57.07L63.9852 61.9157ZM62.4074 61.3021L63.8717 61.7664L65.5988 56.3193L64.1345 55.8551L62.4074 61.3021ZM62.1147 57.9043C62.0335 58.0912 61.952 58.1676 61.8566 58.2271L64.8852 63.0729C66.0089 62.3705 66.8369 61.3754 67.3557 60.1814L62.1147 57.9043ZM61.8703 58.2186C61.7321 58.304 61.5771 58.3571 61.3352 58.3571V64.0714C62.5885 64.0714 63.7907 63.7484 64.8715 63.0814L61.8703 58.2186ZM61.4424 57.5643V56.4H55.7281V57.5643H61.4424ZM58.5852 59.2571H64.0924V53.5429H58.5852V59.2571ZM61.2352 56.4V57.5643H66.9495V56.4H61.2352ZM64.0924 54.7071H58.5852V60.4214H64.0924V54.7071ZM67.0092 61H64.1521C64.1521 62.578 65.4313 63.8571 67.0092 63.8571V61ZM67.0092 53.2857V50.4286C65.4313 50.4286 64.1521 51.7078 64.1521 53.2857H67.0092ZM68.3378 53.2857H71.1949C71.1949 51.7078 69.9157 50.4286 68.3378 50.4286V53.2857ZM68.3378 55.1571L66.0682 56.8927C66.8122 57.8657 68.0937 58.2562 69.2539 57.8634C70.4142 57.4706 71.1949 56.382 71.1949 55.1571H68.3378ZM68.1521 54.9143L65.4854 53.8886C65.1289 54.8155 65.2792 55.861 65.8825 56.6499L68.1521 54.9143ZM68.5235 54.2357L70.8156 55.9415C70.8218 55.9331 70.828 55.9247 70.8342 55.9162L68.5235 54.2357ZM69.0521 53.7214L70.6369 56.0987C70.6715 56.0756 70.7057 56.0518 70.7392 56.0272L69.0521 53.7214ZM69.7021 53.3929L70.5729 56.1141C70.5838 56.1106 70.5947 56.107 70.6056 56.1034L69.7021 53.3929ZM70.4449 53.25L70.6064 56.1026C70.6243 56.1016 70.6421 56.1004 70.66 56.099L70.4449 53.25ZM71.1735 53.2857H74.0306C74.0306 51.9068 73.0458 50.7247 71.6896 50.4756L71.1735 53.2857ZM71.1735 54.6857L70.4438 57.4481C71.3009 57.6745 72.2145 57.4902 72.9168 56.9493C73.6192 56.4085 74.0306 55.5722 74.0306 54.6857H71.1735ZM70.3306 54.6286L70.068 51.7835L70.0639 51.7839L70.3306 54.6286ZM69.4878 54.9214L71.0399 57.3202L71.0418 57.319L69.4878 54.9214ZM68.9092 55.4929L66.5009 53.9556C66.493 53.9679 66.4853 53.9802 66.4777 53.9925L68.9092 55.4929ZM68.6092 56.2429L71.3948 56.8782L71.3972 56.8677L68.6092 56.2429ZM68.5164 61V63.8571C70.0943 63.8571 71.3735 62.578 71.3735 61H68.5164ZM69.8664 61V53.2857H64.1521V61H69.8664ZM67.0092 56.1429H68.3378V50.4286H67.0092V56.1429ZM65.4806 53.2857V55.1571H71.1949V53.2857H65.4806ZM70.6074 53.4216L70.4217 53.1787L65.8825 56.6499L66.0682 56.8927L70.6074 53.4216ZM70.8188 55.9399C70.822 55.9316 70.8236 55.929 70.8226 55.9308C70.8216 55.9326 70.8192 55.9366 70.8156 55.9415L66.2314 52.53C65.9178 52.9514 65.6702 53.4079 65.4854 53.8886L70.8188 55.9399ZM70.8342 55.9162C70.8033 55.9587 70.7393 56.0304 70.6369 56.0987L67.4672 51.3441C66.9648 51.6791 66.5485 52.0937 66.2128 52.5552L70.8342 55.9162ZM70.7392 56.0272C70.6782 56.0719 70.6176 56.0998 70.5729 56.1141L68.8313 50.6716C68.3104 50.8383 67.8164 51.0853 67.3649 51.4156L70.7392 56.0272ZM70.6056 56.1034C70.6097 56.102 70.6108 56.1019 70.6095 56.1022C70.6081 56.1024 70.6068 56.1026 70.6064 56.1026L70.2835 50.3974C69.7753 50.4262 69.2783 50.5224 68.7986 50.6823L70.6056 56.1034ZM70.66 56.099C70.6728 56.0981 70.678 56.0984 70.6765 56.0984C70.6748 56.0983 70.668 56.0978 70.6573 56.0958L71.6896 50.4756C71.1997 50.3856 70.7104 50.3647 70.2299 50.401L70.66 56.099ZM68.3164 53.2857V54.6857H74.0306V53.2857H68.3164ZM71.9032 51.9233C71.2723 51.7567 70.6487 51.7299 70.068 51.7835L70.5933 57.4736C70.6317 57.4701 70.5699 57.4814 70.4438 57.4481L71.9032 51.9233ZM70.0639 51.7839C69.2998 51.8555 68.5773 52.1068 67.9338 52.5238L71.0418 57.319C70.9836 57.3567 70.9119 57.3933 70.8291 57.4221C70.7463 57.4509 70.667 57.4667 70.5973 57.4732L70.0639 51.7839ZM67.9356 52.5227C67.3801 52.8821 66.8832 53.3566 66.5009 53.9556L71.3176 57.0301C71.2209 57.1815 71.1098 57.275 71.0399 57.3202L67.9356 52.5227ZM66.4777 53.9925C66.1607 54.5062 65.9472 55.0559 65.8212 55.618L71.3972 56.8677C71.395 56.8775 71.3815 56.9271 71.3407 56.9932L66.4777 53.9925ZM65.8236 55.6075C65.7099 56.106 65.6592 56.6086 65.6592 57.1071H71.3735C71.3735 56.9962 71.3847 56.9226 71.3948 56.8782L65.8236 55.6075ZM65.6592 57.1071V61H71.3735V57.1071H65.6592ZM68.5164 58.1429H67.0092V63.8571H68.5164V58.1429Z" fill="#40CFFF" mask="url(#path-9-outside-1_1117_12257)"/>
<defs>
<filter id="filter0_ii_1117_12257" x="11.3883" y="27.8571" width="73.2245" height="39.0715" filterUnits="userSpaceOnUse" color-interpolation-filters="sRGB">
<feFlood flood-opacity="0" result="BackgroundImageFix"/>
<feBlend mode="normal" in="SourceGraphic" in2="BackgroundImageFix" result="shape"/>
<feColorMatrix in="SourceAlpha" type="matrix" values="0 0 0 0 0 0 0 0 0 0 0 0 0 0 0 0 0 0 127 0" result="hardAlpha"/>
<feOffset dx="5.71429" dy="5.71429"/>
<feGaussianBlur stdDeviation="2.85714"/>
<feComposite in2="hardAlpha" operator="arithmetic" k2="-1" k3="1"/>
<feColorMatrix type="matrix" values="0 0 0 0 0 0 0 0 0 0 0 0 0 0 0 0 0 0 0.25 0"/>
<feBlend mode="normal" in2="shape" result="effect1_innerShadow_1117_12257"/>
<feColorMatrix in="SourceAlpha" type="matrix" values="0 0 0 0 0 0 0 0 0 0 0 0 0 0 0 0 0 0 127 0" result="hardAlpha"/>
<feOffset dx="-5.71429" dy="-5.71429"/>
<feGaussianBlur stdDeviation="5.71429"/>
<feComposite in2="hardAlpha" operator="arithmetic" k2="-1" k3="1"/>
<feColorMatrix type="matrix" values="0 0 0 0 0.983333 0 0 0 0 0.954653 0 0 0 0 0.954653 0 0 0 0.25 0"/>
<feBlend mode="normal" in2="effect1_innerShadow_1117_12257" result="effect2_innerShadow_1117_12257"/>
</filter>
</defs>
</svg>
