<svg width="18" height="18" viewBox="0 0 18 18" fill="none" xmlns="http://www.w3.org/2000/svg">
<path d="M7.61745 9.96584C7.06828 9.41666 6.18439 9.41666 4.41663 9.41666C2.64886 9.41666 1.76498 9.41666 1.2158 9.96584M7.61745 9.96584C8.16663 10.515 8.16663 11.3989 8.16663 13.1667C8.16663 14.9344 8.16663 15.8183 7.61745 16.3675M7.61745 9.96584V9.96584ZM1.2158 9.96584C0.666626 10.515 0.666626 11.3989 0.666626 13.1667C0.666626 14.9344 0.666626 15.8183 1.2158 16.3675M1.2158 9.96584V9.96584ZM1.2158 16.3675C1.76497 16.9167 2.64886 16.9167 4.41663 16.9167C6.18439 16.9167 7.06828 16.9167 7.61745 16.3675M1.2158 16.3675V16.3675ZM7.61745 16.3675V16.3675Z" stroke="url(#paint0_linear_271_4779)" stroke-width="1.25"/>
<path d="M11.6848 2.98181C12.9505 4.24746 13.5833 4.88029 13.5833 5.66666C13.5833 6.45304 12.9505 7.08587 11.6848 8.35152C10.4192 9.61717 9.78633 10.25 8.99996 10.25C8.21358 10.25 7.58076 9.61717 6.3151 8.35152C5.04945 7.08587 4.41663 6.45304 4.41663 5.66667C4.41663 4.88029 5.04945 4.24746 6.3151 2.98181C7.58076 1.71616 8.21358 1.08333 8.99996 1.08333C9.78633 1.08333 10.4192 1.71616 11.6848 2.98181Z" stroke="url(#paint1_linear_271_4779)" stroke-width="1.25"/>
<path d="M16.7842 9.96584C16.235 9.41666 15.3511 9.41666 13.5834 9.41666C11.8156 9.41666 10.9317 9.41666 10.3825 9.96584M16.7842 9.96584C17.3334 10.515 17.3334 11.3989 17.3334 13.1667C17.3334 14.9344 17.3334 15.8183 16.7842 16.3675M16.7842 9.96584V9.96584ZM10.3825 9.96584C9.83337 10.515 9.83337 11.3989 9.83337 13.1667C9.83337 14.9344 9.83337 15.8183 10.3825 16.3675M10.3825 9.96584V9.96584ZM10.3825 16.3675C10.9317 16.9167 11.8156 16.9167 13.5834 16.9167C15.3511 16.9167 16.235 16.9167 16.7842 16.3675M10.3825 16.3675V16.3675ZM16.7842 16.3675V16.3675Z" stroke="url(#paint2_linear_271_4779)" stroke-width="1.25"/>
<path d="M9.00687 5.66667L8.99939 5.66667" stroke="url(#paint3_linear_271_4779)" stroke-width="1.66667" stroke-linecap="round" stroke-linejoin="round"/>
<defs>
<linearGradient id="paint0_linear_271_4779" x1="4.41663" y1="9.41666" x2="4.41663" y2="16.9167" gradientUnits="userSpaceOnUse">
<stop stop-color="#FF9D3F"/>
<stop offset="1" stop-color="#F46772"/>
</linearGradient>
<linearGradient id="paint1_linear_271_4779" x1="8.99996" y1="1.08333" x2="8.99996" y2="10.25" gradientUnits="userSpaceOnUse">
<stop stop-color="#FF9D3F"/>
<stop offset="1" stop-color="#F46772"/>
</linearGradient>
<linearGradient id="paint2_linear_271_4779" x1="13.5834" y1="9.41666" x2="13.5834" y2="16.9167" gradientUnits="userSpaceOnUse">
<stop stop-color="#FF9D3F"/>
<stop offset="1" stop-color="#F46772"/>
</linearGradient>
<linearGradient id="paint3_linear_271_4779" x1="9.00297" y1="5.66667" x2="9.00297" y2="4.83333" gradientUnits="userSpaceOnUse">
<stop stop-color="#FF9D3F"/>
<stop offset="1" stop-color="#F46772"/>
</linearGradient>
</defs>
</svg>
