<svg width="26" height="26" viewBox="0 0 26 26" fill="none" xmlns="http://www.w3.org/2000/svg">
<path d="M9.7502 23.8327H16.2502C21.6669 23.8327 23.8335 21.666 23.8335 16.2493V9.74935C23.8335 4.33268 21.6669 2.16602 16.2502 2.16602H9.7502C4.33354 2.16602 2.16687 4.33268 2.16687 9.74935V16.2493C2.16687 21.666 4.33354 23.8327 9.7502 23.8327Z" stroke="#6E6E71" stroke-width="1.3" stroke-linecap="round" stroke-linejoin="round"/>
<path d="M16.7919 10.5625C17.6893 10.5625 18.4169 9.83496 18.4169 8.9375C18.4169 8.04004 17.6893 7.3125 16.7919 7.3125C15.8944 7.3125 15.1669 8.04004 15.1669 8.9375C15.1669 9.83496 15.8944 10.5625 16.7919 10.5625Z" stroke="#6E6E71" stroke-width="1.3" stroke-miterlimit="10" stroke-linecap="round" stroke-linejoin="round"/>
<path d="M9.20813 10.5625C10.1056 10.5625 10.8331 9.83496 10.8331 8.9375C10.8331 8.04004 10.1056 7.3125 9.20813 7.3125C8.31067 7.3125 7.58313 8.04004 7.58313 8.9375C7.58313 9.83496 8.31067 10.5625 9.20813 10.5625Z" stroke="#6E6E71" stroke-width="1.3" stroke-miterlimit="10" stroke-linecap="round" stroke-linejoin="round"/>
<path d="M9.1 14.4082H16.9C17.4417 14.4082 17.875 14.8415 17.875 15.3832C17.875 18.0807 15.6975 20.2582 13 20.2582C10.3025 20.2582 8.125 18.0807 8.125 15.3832C8.125 14.8415 8.55833 14.4082 9.1 14.4082Z" stroke="#6E6E71" stroke-width="1.3" stroke-miterlimit="10" stroke-linecap="round" stroke-linejoin="round"/>
</svg>
