<svg width="96" height="96" viewBox="0 0 96 96" fill="none" xmlns="http://www.w3.org/2000/svg">
<path d="M92 48C92 72.3005 72.3005 92 48 92C23.6995 92 4 72.3005 4 48C4 23.6995 23.6995 4 48 4C72.3005 4 92 23.6995 92 48Z" fill="#BBF6FE"/>
<path fill-rule="evenodd" clip-rule="evenodd" d="M95.2597 48C95.2597 74.1006 74.101 95.2592 48.0005 95.2592C21.8999 95.2592 0.741211 74.1006 0.741211 48C0.741211 21.8994 21.8999 0.740723 48.0005 0.740723C74.101 0.740723 95.2597 21.8994 95.2597 48ZM48.0005 92C72.301 92 92.0005 72.3005 92.0005 48C92.0005 23.6995 72.301 3.99998 48.0005 3.99998C23.6999 3.99998 4.00047 23.6995 4.00047 48C4.00047 72.3005 23.6999 92 48.0005 92Z" fill="#009688"/>
<path fill-rule="evenodd" clip-rule="evenodd" d="M7.25854 49.6296C6.35852 49.6296 5.62891 48.9 5.62891 48C5.62891 24.5995 24.5988 5.62963 47.9993 5.62963C48.8993 5.62963 49.6289 6.35925 49.6289 7.25927C49.6289 8.15928 48.8993 8.8889 47.9993 8.8889C26.3988 8.88889 8.88817 26.3995 8.88816 48C8.88816 48.9 8.15855 49.6296 7.25854 49.6296Z" fill="#D8FEFA"/>
<path fill-rule="evenodd" clip-rule="evenodd" d="M88.7405 46.3704C89.6405 46.3704 90.3701 47.1 90.3701 48C90.3701 71.4005 71.4003 90.3704 47.9997 90.3704C47.0997 90.3704 46.3701 89.6408 46.3701 88.7407C46.3701 87.8407 47.0997 87.1111 47.9997 87.1111C69.6002 87.1111 87.1109 69.6005 87.1109 48C87.1109 47.1 87.8405 46.3704 88.7405 46.3704Z" fill="#03DECA"/>
<path d="M80.5924 48C80.5924 66.0004 66.0002 80.5926 47.9998 80.5926C29.9994 80.5926 15.4072 66.0004 15.4072 48C15.4072 29.9996 29.9994 15.4074 47.9998 15.4074C66.0002 15.4074 80.5924 29.9996 80.5924 48Z" fill="#BBF6FE"/>
<path fill-rule="evenodd" clip-rule="evenodd" d="M83.8521 48C83.8521 67.8004 67.8007 83.8518 48.0003 83.8518C28.1999 83.8518 12.1484 67.8004 12.1484 48C12.1484 28.1996 28.1999 12.1481 48.0003 12.1481C67.8007 12.1481 83.8521 28.1996 83.8521 48ZM48.0003 80.5926C66.0007 80.5926 80.5929 66.0004 80.5929 48C80.5929 29.9996 66.0007 15.4074 48.0003 15.4074C29.9999 15.4074 15.4077 29.9996 15.4077 48C15.4077 66.0004 29.9999 80.5926 48.0003 80.5926Z" fill="#009688"/>
<path fill-rule="evenodd" clip-rule="evenodd" d="M47.9989 75.7037C63.2993 75.7037 75.7027 63.3003 75.7027 48C75.7027 47.1 76.4323 46.3704 77.3323 46.3704C78.2323 46.3704 78.9619 47.1 78.9619 48C78.9619 65.1004 65.0993 78.963 47.9989 78.9629C47.0989 78.9629 46.3693 78.2333 46.3693 77.3333C46.3693 76.4333 47.0989 75.7037 47.9989 75.7037Z" fill="#03DECA"/>
<path fill-rule="evenodd" clip-rule="evenodd" d="M48.0001 20.2963C32.6997 20.2963 20.2964 32.6997 20.2964 48C20.2964 48.9 19.5668 49.6296 18.6667 49.6296C17.7667 49.6296 17.0371 48.9 17.0371 48C17.0371 30.8996 30.8997 17.037 48.0001 17.037C48.9001 17.037 49.6297 17.7667 49.6297 18.6667C49.6297 19.5667 48.9001 20.2963 48.0001 20.2963Z" fill="#00FAE3"/>
<mask id="path-9-outside-1_1117_12270" maskUnits="userSpaceOnUse" x="21" y="30" width="54" height="35" fill="black">
<rect fill="white" x="21" y="30" width="54" height="35"/>
<path d="M24.1758 44V33.7143H30.7472V35.1214H25.6686V38.0071H29.8901V39.4143H25.6686V42.5929H30.7472V44H24.1758ZM42.2769 44L42.284 39.1929C42.284 38.6357 42.1412 38.2024 41.8555 37.8929C41.5698 37.5786 41.1936 37.4214 40.7269 37.4214C40.4412 37.4214 40.1793 37.4881 39.9412 37.6214C39.7078 37.75 39.5174 37.9452 39.3698 38.2071C39.2269 38.4643 39.1555 38.7881 39.1555 39.1786L38.434 38.8143C38.4245 38.2714 38.5388 37.7952 38.7769 37.3857C39.0198 36.9762 39.3483 36.6595 39.7626 36.4357C40.1769 36.2071 40.6412 36.0929 41.1555 36.0929C41.9888 36.0929 42.634 36.3429 43.0912 36.8429C43.5483 37.3429 43.7769 38.0071 43.7769 38.8357L43.7698 44H42.2769ZM33.0269 44V36.2857H34.3555V38.5143H34.5269V44H33.0269ZM37.6555 44L37.6626 39.2214C37.6626 38.6595 37.5198 38.219 37.234 37.9C36.9531 37.581 36.5745 37.4214 36.0983 37.4214C35.6269 37.4214 35.2459 37.5833 34.9555 37.9071C34.6698 38.231 34.5269 38.6548 34.5269 39.1786L33.8126 38.7214C33.8126 38.2167 33.934 37.7667 34.1769 37.3714C34.4198 36.9762 34.7483 36.6643 35.1626 36.4357C35.5769 36.2071 36.0459 36.0929 36.5698 36.0929C37.1174 36.0929 37.584 36.2095 37.9698 36.4429C38.3555 36.6714 38.6483 36.9929 38.8483 37.4071C39.0531 37.8214 39.1555 38.3024 39.1555 38.85L39.1483 44H37.6555ZM46.2031 44V36.2857H47.5317V38.1571L47.346 37.9143C47.4412 37.6667 47.565 37.4405 47.7174 37.2357C47.8698 37.0262 48.046 36.8548 48.246 36.7214C48.4412 36.5786 48.6579 36.469 48.896 36.3929C49.1388 36.3119 49.3865 36.2643 49.6388 36.25C49.8912 36.231 50.1341 36.2429 50.3674 36.2857V37.6857C50.115 37.619 49.8341 37.6 49.5246 37.6286C49.2198 37.6571 48.9388 37.7548 48.6817 37.9214C48.4388 38.0786 48.246 38.269 48.1031 38.4929C47.965 38.7167 47.865 38.9667 47.8031 39.2429C47.7412 39.5143 47.7103 39.8024 47.7103 40.1071V44H46.2031ZM54.2545 44.2143C53.683 44.2143 53.2045 44.1095 52.8188 43.9C52.433 43.6857 52.1402 43.4048 51.9402 43.0571C51.7449 42.7048 51.6473 42.319 51.6473 41.9C51.6473 41.5095 51.7164 41.1667 51.8545 40.8714C51.9926 40.5762 52.1973 40.3262 52.4688 40.1214C52.7402 39.9119 53.0735 39.7429 53.4688 39.6143C53.8116 39.5143 54.1997 39.4262 54.633 39.35C55.0664 39.2738 55.5211 39.2024 55.9973 39.1357C56.4783 39.069 56.9545 39.0024 57.4259 38.9357L56.883 39.2357C56.8926 38.631 56.764 38.1833 56.4973 37.8929C56.2354 37.5976 55.783 37.45 55.1402 37.45C54.7354 37.45 54.364 37.5452 54.0259 37.7357C53.6878 37.9214 53.4521 38.231 53.3188 38.6643L51.9259 38.2357C52.1164 37.5738 52.4783 37.0476 53.0116 36.6571C53.5497 36.2667 54.264 36.0714 55.1545 36.0714C55.8449 36.0714 56.4449 36.1905 56.9545 36.4286C57.4688 36.6619 57.8449 37.0333 58.083 37.5429C58.2068 37.7952 58.283 38.0619 58.3116 38.3429C58.3402 38.6238 58.3545 38.9262 58.3545 39.25V44H57.033V42.2357L57.2902 42.4643C56.9711 43.0548 56.564 43.4952 56.0688 43.7857C55.5783 44.0714 54.9735 44.2143 54.2545 44.2143ZM54.5188 42.9929C54.9426 42.9929 55.3068 42.919 55.6116 42.7714C55.9164 42.619 56.1616 42.4262 56.3473 42.1929C56.533 41.9595 56.6545 41.7167 56.7116 41.4643C56.7926 41.2357 56.8378 40.9786 56.8473 40.6929C56.8616 40.4071 56.8688 40.1786 56.8688 40.0071L57.3545 40.1857C56.883 40.2571 56.4545 40.3214 56.0688 40.3786C55.683 40.4357 55.333 40.4929 55.0188 40.55C54.7092 40.6024 54.433 40.6667 54.1902 40.7429C53.9854 40.8143 53.8021 40.9 53.6402 41C53.483 41.1 53.3568 41.2214 53.2616 41.3643C53.1711 41.5071 53.1259 41.681 53.1259 41.8857C53.1259 42.0857 53.1759 42.2714 53.2759 42.4429C53.3759 42.6095 53.5283 42.7429 53.733 42.8429C53.9378 42.9429 54.1997 42.9929 54.5188 42.9929ZM60.9236 44V33.5H62.4164V44H60.9236ZM68.1971 44.2143C67.4781 44.2143 66.8566 44.0357 66.3328 43.6786C65.8138 43.3214 65.4114 42.8357 65.1257 42.2214C64.8447 41.6024 64.7042 40.9071 64.7042 40.1357C64.7042 39.3595 64.8471 38.6667 65.1328 38.0571C65.4185 37.4429 65.8233 36.9595 66.3471 36.6071C66.8757 36.25 67.5019 36.0714 68.2257 36.0714C68.9542 36.0714 69.5661 36.25 70.0614 36.6071C70.5614 36.9595 70.9376 37.4429 71.19 38.0571C71.4471 38.6714 71.5757 39.3643 71.5757 40.1357C71.5757 40.9071 71.4471 41.6 71.19 42.2143C70.9328 42.8286 70.5542 43.3167 70.0542 43.6786C69.5542 44.0357 68.9352 44.2143 68.1971 44.2143ZM68.4042 42.8643C68.8947 42.8643 69.2947 42.7476 69.6042 42.5143C69.9138 42.281 70.14 41.9595 70.2828 41.55C70.4257 41.1405 70.4971 40.669 70.4971 40.1357C70.4971 39.6024 70.4233 39.131 70.2757 38.7214C70.1328 38.3119 69.909 37.9929 69.6042 37.7643C69.3042 37.5357 68.9209 37.4214 68.4542 37.4214C67.959 37.4214 67.5519 37.5429 67.2328 37.7857C66.9138 38.0286 66.6757 38.3548 66.5185 38.7643C66.3661 39.1738 66.29 39.631 66.29 40.1357C66.29 40.6452 66.3661 41.1071 66.5185 41.5214C66.6757 41.931 66.909 42.2571 67.2185 42.5C67.5328 42.7429 67.9281 42.8643 68.4042 42.8643ZM70.4971 44V38.45H70.3257V33.7143H71.8257V44H70.4971ZM32.8251 61V50.7143H39.3965V52.1214H34.3179V55.0071H38.5393V56.4143H34.3179V59.5929H39.3965V61H32.8251ZM41.8262 61V50.5H43.319V61H41.8262ZM46.1783 52.0214V50.5714H47.6711V52.0214H46.1783ZM46.1783 61V53.2857H47.6711V61H46.1783ZM54.8018 61C54.3161 61.0952 53.8399 61.1357 53.3733 61.1214C52.9066 61.1071 52.4899 61.0167 52.1233 60.85C51.7566 60.6833 51.4804 60.4214 51.2947 60.0643C51.128 59.7452 51.0376 59.4214 51.0233 59.0929C51.0137 58.7595 51.009 58.3833 51.009 57.9643V51.1429H52.509V57.8929C52.509 58.2024 52.5114 58.4714 52.5161 58.7C52.5256 58.9286 52.5756 59.1214 52.6661 59.2786C52.8376 59.5738 53.109 59.7429 53.4804 59.7857C53.8566 59.8238 54.2971 59.8071 54.8018 59.7357V61ZM49.5304 54.4857V53.2857H54.8018V54.4857H49.5304ZM60.0724 61.2143C59.3057 61.2143 58.6319 61.0476 58.0509 60.7143C57.4748 60.3762 57.0248 59.9071 56.7009 59.3071C56.3819 58.7024 56.2224 58.0024 56.2224 57.2071C56.2224 56.3643 56.3795 55.6333 56.6938 55.0143C57.0129 54.3952 57.4557 53.9167 58.0224 53.5786C58.589 53.2405 59.2486 53.0714 60.0009 53.0714C60.7867 53.0714 61.4557 53.2548 62.0081 53.6214C62.5605 53.9833 62.9724 54.5 63.2438 55.1714C63.52 55.8429 63.6295 56.6405 63.5724 57.5643H62.0795V57.0214C62.07 56.1262 61.8986 55.4643 61.5652 55.0357C61.2367 54.6071 60.7343 54.3929 60.0581 54.3929C59.3105 54.3929 58.7486 54.6286 58.3724 55.1C57.9962 55.5714 57.8081 56.2524 57.8081 57.1429C57.8081 57.9905 57.9962 58.6476 58.3724 59.1143C58.7486 59.5762 59.2914 59.8071 60.0009 59.8071C60.4676 59.8071 60.87 59.7024 61.2081 59.4929C61.5509 59.2786 61.8176 58.9738 62.0081 58.5786L63.4724 59.0429C63.1724 59.7333 62.7176 60.269 62.1081 60.65C61.4986 61.0262 60.82 61.2143 60.0724 61.2143ZM57.3224 57.5643V56.4H62.8295V57.5643H57.3224Z"/>
</mask>
<g filter="url(#filter0_ii_1117_12270)">
<path d="M24.1758 44V33.7143H30.7472V35.1214H25.6686V38.0071H29.8901V39.4143H25.6686V42.5929H30.7472V44H24.1758ZM42.2769 44L42.284 39.1929C42.284 38.6357 42.1412 38.2024 41.8555 37.8929C41.5698 37.5786 41.1936 37.4214 40.7269 37.4214C40.4412 37.4214 40.1793 37.4881 39.9412 37.6214C39.7078 37.75 39.5174 37.9452 39.3698 38.2071C39.2269 38.4643 39.1555 38.7881 39.1555 39.1786L38.434 38.8143C38.4245 38.2714 38.5388 37.7952 38.7769 37.3857C39.0198 36.9762 39.3483 36.6595 39.7626 36.4357C40.1769 36.2071 40.6412 36.0929 41.1555 36.0929C41.9888 36.0929 42.634 36.3429 43.0912 36.8429C43.5483 37.3429 43.7769 38.0071 43.7769 38.8357L43.7698 44H42.2769ZM33.0269 44V36.2857H34.3555V38.5143H34.5269V44H33.0269ZM37.6555 44L37.6626 39.2214C37.6626 38.6595 37.5198 38.219 37.234 37.9C36.9531 37.581 36.5745 37.4214 36.0983 37.4214C35.6269 37.4214 35.2459 37.5833 34.9555 37.9071C34.6698 38.231 34.5269 38.6548 34.5269 39.1786L33.8126 38.7214C33.8126 38.2167 33.934 37.7667 34.1769 37.3714C34.4198 36.9762 34.7483 36.6643 35.1626 36.4357C35.5769 36.2071 36.0459 36.0929 36.5698 36.0929C37.1174 36.0929 37.584 36.2095 37.9698 36.4429C38.3555 36.6714 38.6483 36.9929 38.8483 37.4071C39.0531 37.8214 39.1555 38.3024 39.1555 38.85L39.1483 44H37.6555ZM46.2031 44V36.2857H47.5317V38.1571L47.346 37.9143C47.4412 37.6667 47.565 37.4405 47.7174 37.2357C47.8698 37.0262 48.046 36.8548 48.246 36.7214C48.4412 36.5786 48.6579 36.469 48.896 36.3929C49.1388 36.3119 49.3865 36.2643 49.6388 36.25C49.8912 36.231 50.1341 36.2429 50.3674 36.2857V37.6857C50.115 37.619 49.8341 37.6 49.5246 37.6286C49.2198 37.6571 48.9388 37.7548 48.6817 37.9214C48.4388 38.0786 48.246 38.269 48.1031 38.4929C47.965 38.7167 47.865 38.9667 47.8031 39.2429C47.7412 39.5143 47.7103 39.8024 47.7103 40.1071V44H46.2031ZM54.2545 44.2143C53.683 44.2143 53.2045 44.1095 52.8188 43.9C52.433 43.6857 52.1402 43.4048 51.9402 43.0571C51.7449 42.7048 51.6473 42.319 51.6473 41.9C51.6473 41.5095 51.7164 41.1667 51.8545 40.8714C51.9926 40.5762 52.1973 40.3262 52.4688 40.1214C52.7402 39.9119 53.0735 39.7429 53.4688 39.6143C53.8116 39.5143 54.1997 39.4262 54.633 39.35C55.0664 39.2738 55.5211 39.2024 55.9973 39.1357C56.4783 39.069 56.9545 39.0024 57.4259 38.9357L56.883 39.2357C56.8926 38.631 56.764 38.1833 56.4973 37.8929C56.2354 37.5976 55.783 37.45 55.1402 37.45C54.7354 37.45 54.364 37.5452 54.0259 37.7357C53.6878 37.9214 53.4521 38.231 53.3188 38.6643L51.9259 38.2357C52.1164 37.5738 52.4783 37.0476 53.0116 36.6571C53.5497 36.2667 54.264 36.0714 55.1545 36.0714C55.8449 36.0714 56.4449 36.1905 56.9545 36.4286C57.4688 36.6619 57.8449 37.0333 58.083 37.5429C58.2068 37.7952 58.283 38.0619 58.3116 38.3429C58.3402 38.6238 58.3545 38.9262 58.3545 39.25V44H57.033V42.2357L57.2902 42.4643C56.9711 43.0548 56.564 43.4952 56.0688 43.7857C55.5783 44.0714 54.9735 44.2143 54.2545 44.2143ZM54.5188 42.9929C54.9426 42.9929 55.3068 42.919 55.6116 42.7714C55.9164 42.619 56.1616 42.4262 56.3473 42.1929C56.533 41.9595 56.6545 41.7167 56.7116 41.4643C56.7926 41.2357 56.8378 40.9786 56.8473 40.6929C56.8616 40.4071 56.8688 40.1786 56.8688 40.0071L57.3545 40.1857C56.883 40.2571 56.4545 40.3214 56.0688 40.3786C55.683 40.4357 55.333 40.4929 55.0188 40.55C54.7092 40.6024 54.433 40.6667 54.1902 40.7429C53.9854 40.8143 53.8021 40.9 53.6402 41C53.483 41.1 53.3568 41.2214 53.2616 41.3643C53.1711 41.5071 53.1259 41.681 53.1259 41.8857C53.1259 42.0857 53.1759 42.2714 53.2759 42.4429C53.3759 42.6095 53.5283 42.7429 53.733 42.8429C53.9378 42.9429 54.1997 42.9929 54.5188 42.9929ZM60.9236 44V33.5H62.4164V44H60.9236ZM68.1971 44.2143C67.4781 44.2143 66.8566 44.0357 66.3328 43.6786C65.8138 43.3214 65.4114 42.8357 65.1257 42.2214C64.8447 41.6024 64.7042 40.9071 64.7042 40.1357C64.7042 39.3595 64.8471 38.6667 65.1328 38.0571C65.4185 37.4429 65.8233 36.9595 66.3471 36.6071C66.8757 36.25 67.5019 36.0714 68.2257 36.0714C68.9542 36.0714 69.5661 36.25 70.0614 36.6071C70.5614 36.9595 70.9376 37.4429 71.19 38.0571C71.4471 38.6714 71.5757 39.3643 71.5757 40.1357C71.5757 40.9071 71.4471 41.6 71.19 42.2143C70.9328 42.8286 70.5542 43.3167 70.0542 43.6786C69.5542 44.0357 68.9352 44.2143 68.1971 44.2143ZM68.4042 42.8643C68.8947 42.8643 69.2947 42.7476 69.6042 42.5143C69.9138 42.281 70.14 41.9595 70.2828 41.55C70.4257 41.1405 70.4971 40.669 70.4971 40.1357C70.4971 39.6024 70.4233 39.131 70.2757 38.7214C70.1328 38.3119 69.909 37.9929 69.6042 37.7643C69.3042 37.5357 68.9209 37.4214 68.4542 37.4214C67.959 37.4214 67.5519 37.5429 67.2328 37.7857C66.9138 38.0286 66.6757 38.3548 66.5185 38.7643C66.3661 39.1738 66.29 39.631 66.29 40.1357C66.29 40.6452 66.3661 41.1071 66.5185 41.5214C66.6757 41.931 66.909 42.2571 67.2185 42.5C67.5328 42.7429 67.9281 42.8643 68.4042 42.8643ZM70.4971 44V38.45H70.3257V33.7143H71.8257V44H70.4971ZM32.8251 61V50.7143H39.3965V52.1214H34.3179V55.0071H38.5393V56.4143H34.3179V59.5929H39.3965V61H32.8251ZM41.8262 61V50.5H43.319V61H41.8262ZM46.1783 52.0214V50.5714H47.6711V52.0214H46.1783ZM46.1783 61V53.2857H47.6711V61H46.1783ZM54.8018 61C54.3161 61.0952 53.8399 61.1357 53.3733 61.1214C52.9066 61.1071 52.4899 61.0167 52.1233 60.85C51.7566 60.6833 51.4804 60.4214 51.2947 60.0643C51.128 59.7452 51.0376 59.4214 51.0233 59.0929C51.0137 58.7595 51.009 58.3833 51.009 57.9643V51.1429H52.509V57.8929C52.509 58.2024 52.5114 58.4714 52.5161 58.7C52.5256 58.9286 52.5756 59.1214 52.6661 59.2786C52.8376 59.5738 53.109 59.7429 53.4804 59.7857C53.8566 59.8238 54.2971 59.8071 54.8018 59.7357V61ZM49.5304 54.4857V53.2857H54.8018V54.4857H49.5304ZM60.0724 61.2143C59.3057 61.2143 58.6319 61.0476 58.0509 60.7143C57.4748 60.3762 57.0248 59.9071 56.7009 59.3071C56.3819 58.7024 56.2224 58.0024 56.2224 57.2071C56.2224 56.3643 56.3795 55.6333 56.6938 55.0143C57.0129 54.3952 57.4557 53.9167 58.0224 53.5786C58.589 53.2405 59.2486 53.0714 60.0009 53.0714C60.7867 53.0714 61.4557 53.2548 62.0081 53.6214C62.5605 53.9833 62.9724 54.5 63.2438 55.1714C63.52 55.8429 63.6295 56.6405 63.5724 57.5643H62.0795V57.0214C62.07 56.1262 61.8986 55.4643 61.5652 55.0357C61.2367 54.6071 60.7343 54.3929 60.0581 54.3929C59.3105 54.3929 58.7486 54.6286 58.3724 55.1C57.9962 55.5714 57.8081 56.2524 57.8081 57.1429C57.8081 57.9905 57.9962 58.6476 58.3724 59.1143C58.7486 59.5762 59.2914 59.8071 60.0009 59.8071C60.4676 59.8071 60.87 59.7024 61.2081 59.4929C61.5509 59.2786 61.8176 58.9738 62.0081 58.5786L63.4724 59.0429C63.1724 59.7333 62.7176 60.269 62.1081 60.65C61.4986 61.0262 60.82 61.2143 60.0724 61.2143ZM57.3224 57.5643V56.4H62.8295V57.5643H57.3224Z" fill="#BBF6FE"/>
</g>
<path d="M24.1758 44H21.3186C21.3186 45.578 22.5978 46.8571 24.1758 46.8571V44ZM24.1758 33.7143V30.8571C22.5978 30.8571 21.3186 32.1363 21.3186 33.7143H24.1758ZM30.7472 33.7143H33.6044C33.6044 32.1363 32.3252 30.8571 30.7472 30.8571V33.7143ZM30.7472 35.1214V37.9786C32.3252 37.9786 33.6044 36.6994 33.6044 35.1214H30.7472ZM25.6686 35.1214V32.2643C24.0907 32.2643 22.8115 33.5435 22.8115 35.1214H25.6686ZM25.6686 38.0071H22.8115C22.8115 39.5851 24.0907 40.8643 25.6686 40.8643V38.0071ZM29.8901 38.0071H32.7472C32.7472 36.4292 31.468 35.15 29.8901 35.15V38.0071ZM29.8901 39.4143V42.2714C31.468 42.2714 32.7472 40.9922 32.7472 39.4143H29.8901ZM25.6686 39.4143V36.5571C24.0907 36.5571 22.8115 37.8363 22.8115 39.4143H25.6686ZM25.6686 42.5929H22.8115C22.8115 44.1708 24.0907 45.45 25.6686 45.45V42.5929ZM30.7472 42.5929H33.6044C33.6044 41.0149 32.3252 39.7357 30.7472 39.7357V42.5929ZM30.7472 44V46.8571C32.3252 46.8571 33.6044 45.578 33.6044 44H30.7472ZM27.0329 44V33.7143H21.3186V44H27.0329ZM24.1758 36.5714H30.7472V30.8571H24.1758V36.5714ZM27.8901 33.7143V35.1214H33.6044V33.7143H27.8901ZM30.7472 32.2643H25.6686V37.9786H30.7472V32.2643ZM22.8115 35.1214V38.0071H28.5258V35.1214H22.8115ZM25.6686 40.8643H29.8901V35.15H25.6686V40.8643ZM27.0329 38.0071V39.4143H32.7472V38.0071H27.0329ZM29.8901 36.5571H25.6686V42.2714H29.8901V36.5571ZM22.8115 39.4143V42.5929H28.5258V39.4143H22.8115ZM25.6686 45.45H30.7472V39.7357H25.6686V45.45ZM27.8901 42.5929V44H33.6044V42.5929H27.8901ZM30.7472 41.1429H24.1758V46.8571H30.7472V41.1429ZM42.2769 44L39.4198 43.9958C39.4186 44.7543 39.7192 45.4821 40.2551 46.0188C40.791 46.5555 41.5184 46.8571 42.2769 46.8571V44ZM42.284 39.1929L45.1412 39.1971V39.1929H42.284ZM41.8555 37.8929L39.7414 39.8148C39.7462 39.8201 39.7511 39.8255 39.756 39.8308L41.8555 37.8929ZM39.9412 37.6214L41.3201 40.1238C41.3258 40.1207 41.3315 40.1175 41.3372 40.1143L39.9412 37.6214ZM39.3698 38.2071L36.8807 36.8042C36.8779 36.8094 36.875 36.8145 36.8722 36.8196L39.3698 38.2071ZM39.1555 39.1786L37.8676 41.729C38.7533 42.1763 39.8077 42.1319 40.6528 41.612C41.4978 41.092 42.0126 40.1708 42.0126 39.1786H39.1555ZM38.434 38.8143L35.5773 38.8644C35.5959 39.9244 36.1999 40.8869 37.1462 41.3647L38.434 38.8143ZM38.7769 37.3857L36.3194 35.9284C36.3152 35.9354 36.311 35.9425 36.3069 35.9497L38.7769 37.3857ZM39.7626 36.4357L41.1206 38.9495C41.128 38.9455 41.1354 38.9414 41.1428 38.9374L39.7626 36.4357ZM43.0912 36.8429L45.1998 34.9149L45.1998 34.9149L43.0912 36.8429ZM43.7769 38.8357L46.634 38.8397V38.8357H43.7769ZM43.7698 44V46.8571C45.3462 46.8571 46.6247 45.5804 46.6269 44.004L43.7698 44ZM33.0269 44H30.1698C30.1698 45.578 31.4489 46.8571 33.0269 46.8571V44ZM33.0269 36.2857V33.4286C31.4489 33.4286 30.1698 34.7078 30.1698 36.2857H33.0269ZM34.3555 36.2857H37.2126C37.2126 34.7078 35.9334 33.4286 34.3555 33.4286V36.2857ZM34.3555 38.5143H31.4983C31.4983 40.0922 32.7775 41.3714 34.3555 41.3714V38.5143ZM34.5269 38.5143H37.384C37.384 36.9363 36.1049 35.6571 34.5269 35.6571V38.5143ZM34.5269 44V46.8571C36.1049 46.8571 37.384 45.578 37.384 44H34.5269ZM37.6555 44L34.7983 43.9957C34.7972 44.7542 35.0977 45.4821 35.6337 46.0188C36.1696 46.5555 36.897 46.8571 37.6555 46.8571V44ZM37.6626 39.2214L40.5198 39.2257V39.2214H37.6626ZM37.234 37.9L35.0898 39.7882C35.095 39.7942 35.1003 39.8001 35.1056 39.8061L37.234 37.9ZM34.9555 37.9071L32.8287 35.9993C32.8234 36.0051 32.8182 36.0109 32.8131 36.0168L34.9555 37.9071ZM34.5269 39.1786L32.9867 41.5851C33.8662 42.1479 34.9826 42.1862 35.8985 41.6849C36.8145 41.1837 37.384 40.2227 37.384 39.1786H34.5269ZM33.8126 38.7214H30.9555C30.9555 39.6957 31.4519 40.6028 32.2725 41.1279L33.8126 38.7214ZM37.9698 36.4429L36.4909 38.8875C36.4983 38.892 36.5057 38.8964 36.5132 38.9008L37.9698 36.4429ZM38.8483 37.4071L36.2753 38.6493C36.2792 38.6572 36.283 38.6652 36.287 38.6731L38.8483 37.4071ZM39.1555 38.85L42.0126 38.854V38.85H39.1555ZM39.1483 44V46.8571C40.7247 46.8571 42.0033 45.5804 42.0055 44.004L39.1483 44ZM45.134 44.0042L45.1412 39.1971L39.4269 39.1886L39.4198 43.9958L45.134 44.0042ZM45.1412 39.1929C45.1412 38.1547 44.8678 36.9439 43.9549 35.9549L39.756 39.8308C39.5996 39.6613 39.509 39.4829 39.4634 39.3446C39.4213 39.2169 39.4269 39.1535 39.4269 39.1929H45.1412ZM43.9696 35.9709C43.0855 34.9984 41.9099 34.5643 40.7269 34.5643V40.2786C40.6364 40.2786 40.4654 40.2624 40.2578 40.1757C40.0438 40.0863 39.8677 39.9538 39.7414 39.8148L43.9696 35.9709ZM40.7269 34.5643C39.9762 34.5643 39.2301 34.745 38.5452 35.1286L41.3372 40.1143C41.1284 40.2312 40.9062 40.2786 40.7269 40.2786V34.5643ZM38.5623 35.119C37.8062 35.5356 37.2547 36.1408 36.8807 36.8042L41.8588 39.61C41.7801 39.7497 41.6095 39.9644 41.3201 40.1238L38.5623 35.119ZM36.8722 36.8196C36.4288 37.6177 36.2983 38.456 36.2983 39.1786H42.0126C42.0126 39.1202 42.025 39.3109 41.8673 39.5947L36.8722 36.8196ZM40.4433 36.6281L39.7219 36.2638L37.1462 41.3647L37.8676 41.729L40.4433 36.6281ZM41.2907 38.7642C41.2898 38.7082 41.2958 38.6963 41.2909 38.7168C41.2885 38.7267 41.284 38.7421 41.2763 38.7615C41.2685 38.781 41.2587 38.8015 41.2469 38.8218L36.3069 35.9497C35.7702 36.8727 35.56 37.8778 35.5773 38.8644L41.2907 38.7642ZM41.2344 38.8431C41.2309 38.8491 41.2162 38.8713 41.1882 38.8983C41.16 38.9254 41.1341 38.9422 41.1206 38.9495L38.4046 33.9219C37.5296 34.3947 36.8232 35.0788 36.3194 35.9284L41.2344 38.8431ZM41.1428 38.9374C41.1366 38.9408 41.1292 38.9443 41.1214 38.9474C41.1136 38.9504 41.1076 38.9521 41.1045 38.9529C41.1014 38.9537 41.103 38.953 41.1106 38.9521C41.1182 38.9513 41.1328 38.95 41.1555 38.95V33.2357C40.2015 33.2357 39.2555 33.4523 38.3824 33.9341L41.1428 38.9374ZM41.1555 38.95C41.2893 38.95 41.2984 38.9702 41.2322 38.9445C41.1987 38.9315 41.1543 38.91 41.1059 38.877C41.0573 38.8439 41.0155 38.8069 40.9825 38.7708L45.1998 34.9149C44.0804 33.6906 42.5922 33.2357 41.1555 33.2357V38.95ZM40.9825 38.7708C40.9631 38.7496 40.9447 38.7247 40.9293 38.6986C40.9141 38.6727 40.9065 38.6535 40.9038 38.6457C40.8986 38.6305 40.9198 38.6824 40.9198 38.8357H46.634C46.634 37.4606 46.2404 36.0531 45.1998 34.9149L40.9825 38.7708ZM40.9198 38.8318L40.9126 43.996L46.6269 44.004L46.634 38.8397L40.9198 38.8318ZM43.7698 41.1429H42.2769V46.8571H43.7698V41.1429ZM35.884 44V36.2857H30.1698V44H35.884ZM33.0269 39.1429H34.3555V33.4286H33.0269V39.1429ZM31.4983 36.2857V38.5143H37.2126V36.2857H31.4983ZM34.3555 41.3714H34.5269V35.6571H34.3555V41.3714ZM31.6698 38.5143V44H37.384V38.5143H31.6698ZM34.5269 41.1429H33.0269V46.8571H34.5269V41.1429ZM40.5126 44.0043L40.5198 39.2257L34.8055 39.2172L34.7983 43.9957L40.5126 44.0043ZM40.5198 39.2214C40.5198 38.1804 40.2482 36.983 39.3625 35.9939L35.1056 39.8061C34.9617 39.6454 34.879 39.4786 34.8377 39.3511C34.7995 39.2334 34.8055 39.1781 34.8055 39.2214H40.5198ZM39.3783 36.0118C38.4862 34.9987 37.2852 34.5643 36.0983 34.5643V40.2786C36.0154 40.2786 35.8432 40.2639 35.6299 40.174C35.4086 40.0807 35.2235 39.9401 35.0898 39.7882L39.3783 36.0118ZM36.0983 34.5643C34.8916 34.5643 33.71 35.0168 32.8287 35.9993L37.0823 39.815C36.9626 39.9484 36.7909 40.0813 36.5766 40.1724C36.3678 40.2611 36.1935 40.2786 36.0983 40.2786V34.5643ZM32.8131 36.0168C31.9735 36.9683 31.6698 38.1138 31.6698 39.1786H37.384C37.384 39.1751 37.3845 39.2529 37.3415 39.3805C37.2959 39.5157 37.2155 39.6641 37.0979 39.7975L32.8131 36.0168ZM36.067 36.7721L35.3528 36.3149L32.2725 41.1279L32.9867 41.5851L36.067 36.7721ZM36.6698 38.7214C36.6698 38.6997 36.6721 38.7128 36.6622 38.7497C36.6518 38.7882 36.634 38.8301 36.6112 38.8672L31.7426 35.8756C31.1991 36.7602 30.9555 37.7368 30.9555 38.7214H36.6698ZM36.6112 38.8672C36.6057 38.8761 36.5927 38.8941 36.5725 38.9132C36.5526 38.9322 36.5393 38.9393 36.5428 38.9374L33.7824 33.9341C32.9448 34.3962 32.2493 35.0509 31.7426 35.8756L36.6112 38.8672ZM36.5428 38.9374C36.5345 38.9419 36.5258 38.946 36.5174 38.9493C36.5091 38.9525 36.5034 38.954 36.5015 38.9545C36.4997 38.9549 36.5034 38.9539 36.5139 38.9527C36.5245 38.9515 36.5428 38.95 36.5698 38.95V33.2357C35.616 33.2357 34.6633 33.4481 33.7824 33.9341L36.5428 38.9374ZM36.5698 38.95C36.6415 38.95 36.6595 38.9577 36.6375 38.9522C36.6126 38.946 36.558 38.9281 36.4909 38.8875L39.4486 33.9982C38.5297 33.4424 37.5266 33.2357 36.5698 33.2357V38.95ZM36.5132 38.9008C36.47 38.8752 36.417 38.8348 36.3667 38.7796C36.3168 38.7249 36.2883 38.6762 36.2753 38.6493L41.4213 36.165C40.9837 35.2584 40.3089 34.5079 39.4263 33.9849L36.5132 38.9008ZM36.287 38.6731C36.2775 38.6539 36.2793 38.6507 36.2842 38.6734C36.2893 38.6977 36.2983 38.7539 36.2983 38.85H42.0126C42.0126 37.9439 41.8419 37.0155 41.4097 36.1412L36.287 38.6731ZM36.2983 38.846L36.2912 43.996L42.0055 44.004L42.0126 38.854L36.2983 38.846ZM39.1483 41.1429H37.6555V46.8571H39.1483V41.1429ZM46.2031 44H43.346C43.346 45.578 44.6252 46.8571 46.2031 46.8571V44ZM46.2031 36.2857V33.4286C44.6252 33.4286 43.346 34.7078 43.346 36.2857H46.2031ZM47.5317 36.2857H50.3888C50.3888 34.7078 49.1097 33.4286 47.5317 33.4286V36.2857ZM47.5317 38.1571L45.2621 39.8927C46.0062 40.8657 47.2876 41.2562 48.4479 40.8634C49.6081 40.4706 50.3888 39.382 50.3888 38.1571H47.5317ZM47.346 37.9143L44.6793 36.8886C44.3228 37.8155 44.4731 38.861 45.0764 39.6499L47.346 37.9143ZM47.7174 37.2357L50.0095 38.9415C50.0157 38.9331 50.0219 38.9247 50.0281 38.9162L47.7174 37.2357ZM48.246 36.7214L49.8308 39.0987C49.8655 39.0756 49.8996 39.0518 49.9332 39.0272L48.246 36.7214ZM48.896 36.3929L49.7668 39.1141C49.7777 39.1106 49.7886 39.107 49.7995 39.1034L48.896 36.3929ZM49.6388 36.25L49.8003 39.1026C49.8182 39.1016 49.836 39.1004 49.8539 39.099L49.6388 36.25ZM50.3674 36.2857H53.2246C53.2246 34.9068 52.2398 33.7247 50.8836 33.4756L50.3674 36.2857ZM50.3674 37.6857L49.6377 40.4481C50.4948 40.6745 51.4084 40.4902 52.1107 39.9493C52.8131 39.4085 53.2246 38.5722 53.2246 37.6857H50.3674ZM49.5246 37.6286L49.2619 34.7835L49.2579 34.7839L49.5246 37.6286ZM48.6817 37.9214L50.2338 40.3202L50.2357 40.319L48.6817 37.9214ZM48.1031 38.4929L45.6948 36.9556C45.687 36.9679 45.6792 36.9802 45.6716 36.9925L48.1031 38.4929ZM47.8031 39.2429L50.5888 39.8782L50.5911 39.8677L47.8031 39.2429ZM47.7103 44V46.8571C49.2882 46.8571 50.5674 45.578 50.5674 44H47.7103ZM49.0603 44V36.2857H43.346V44H49.0603ZM46.2031 39.1429H47.5317V33.4286H46.2031V39.1429ZM44.6746 36.2857V38.1571H50.3888V36.2857H44.6746ZM49.8013 36.4216L49.6156 36.1787L45.0764 39.6499L45.2621 39.8927L49.8013 36.4216ZM50.0127 38.9399C50.0159 38.9316 50.0175 38.929 50.0165 38.9308C50.0155 38.9326 50.0132 38.9366 50.0095 38.9415L45.4253 35.53C45.1117 35.9514 44.8642 36.4079 44.6793 36.8886L50.0127 38.9399ZM50.0281 38.9162C49.9972 38.9587 49.9333 39.0304 49.8308 39.0987L46.6611 34.3441C46.1587 34.6791 45.7424 35.0937 45.4067 35.5552L50.0281 38.9162ZM49.9332 39.0272C49.8721 39.0719 49.8115 39.0998 49.7668 39.1141L48.0252 33.6716C47.5043 33.8383 47.0103 34.0853 46.5588 34.4156L49.9332 39.0272ZM49.7995 39.1034C49.8036 39.102 49.8047 39.1019 49.8034 39.1022C49.8021 39.1024 49.8007 39.1026 49.8003 39.1026L49.4774 33.3974C48.9692 33.4262 48.4722 33.5224 47.9925 33.6823L49.7995 39.1034ZM49.8539 39.099C49.8668 39.0981 49.8719 39.0984 49.8704 39.0984C49.8687 39.0983 49.862 39.0978 49.8513 39.0958L50.8836 33.4756C50.3936 33.3856 49.9043 33.3647 49.4238 33.401L49.8539 39.099ZM47.5103 36.2857V37.6857H53.2246V36.2857H47.5103ZM51.0971 34.9233C50.4662 34.7567 49.8426 34.7299 49.2619 34.7835L49.7872 40.4736C49.8256 40.4701 49.7639 40.4814 49.6377 40.4481L51.0971 34.9233ZM49.2579 34.7839C48.4937 34.8555 47.7712 35.1068 47.1277 35.5238L50.2357 40.319C50.1775 40.3567 50.1058 40.3933 50.023 40.4221C49.9402 40.4509 49.8609 40.4667 49.7912 40.4732L49.2579 34.7839ZM47.1296 35.5227C46.574 35.8821 46.0771 36.3566 45.6948 36.9556L50.5115 40.0301C50.4149 40.1815 50.3037 40.275 50.2338 40.3202L47.1296 35.5227ZM45.6716 36.9925C45.3546 37.5062 45.1411 38.0559 45.0152 38.618L50.5911 39.8677C50.5889 39.8775 50.5754 39.9271 50.5347 39.9932L45.6716 36.9925ZM45.0175 38.6075C44.9038 39.106 44.8531 39.6086 44.8531 40.1071H50.5674C50.5674 39.9962 50.5786 39.9226 50.5887 39.8782L45.0175 38.6075ZM44.8531 40.1071V44H50.5674V40.1071H44.8531ZM47.7103 41.1429H46.2031V46.8571H47.7103V41.1429ZM52.8188 43.9L51.4312 46.3976C51.4391 46.402 51.447 46.4063 51.4549 46.4106L52.8188 43.9ZM51.9402 43.0571L49.441 44.4418C49.4484 44.4553 49.456 44.4687 49.4637 44.482L51.9402 43.0571ZM51.8545 40.8714L49.2664 39.6609L51.8545 40.8714ZM52.4688 40.1214L54.1894 42.4023C54.1979 42.396 54.2063 42.3896 54.2146 42.3831L52.4688 40.1214ZM53.4688 39.6143L52.6687 36.8714C52.6407 36.8796 52.6127 36.8882 52.5849 36.8973L53.4688 39.6143ZM54.633 39.35L55.1278 42.164H55.1278L54.633 39.35ZM55.9973 39.1357L55.605 36.3056L55.6012 36.3062L55.9973 39.1357ZM57.4259 38.9357L58.8079 41.4364C60.0142 40.7697 60.5726 39.3369 60.1356 38.0297C59.6985 36.7225 58.3906 35.9137 57.0258 36.1067L57.4259 38.9357ZM56.883 39.2357L54.0262 39.1907C54.0102 40.2098 54.5383 41.1603 55.412 41.6851C56.2858 42.2098 57.3729 42.2294 58.265 41.7364L56.883 39.2357ZM56.4973 37.8929L54.36 39.7889C54.3707 39.801 54.3816 39.8131 54.3926 39.8251L56.4973 37.8929ZM54.0259 37.7357L55.4015 40.2399C55.4104 40.235 55.4194 40.23 55.4283 40.225L54.0259 37.7357ZM53.3188 38.6643L52.4785 41.3951C53.2028 41.6179 53.9859 41.5439 54.6556 41.1894C55.3253 40.8348 55.8267 40.2288 56.0495 39.5045L53.3188 38.6643ZM51.9259 38.2357L49.1802 37.4456C48.7494 38.9424 49.5969 40.5084 51.0856 40.9665L51.9259 38.2357ZM53.0116 36.6571L51.3335 34.3447L51.3238 34.3518L53.0116 36.6571ZM56.9545 36.4286L55.7449 39.017C55.7546 39.0216 55.7643 39.026 55.774 39.0304L56.9545 36.4286ZM58.083 37.5429L55.4946 38.7524C55.5022 38.7688 55.51 38.785 55.5179 38.8012L58.083 37.5429ZM58.3116 38.3429L55.4691 38.6319L55.4691 38.6319L58.3116 38.3429ZM58.3545 44V46.8571C59.9324 46.8571 61.2116 45.578 61.2116 44H58.3545ZM57.033 44H54.1759C54.1759 45.578 55.4551 46.8571 57.033 46.8571V44ZM57.033 42.2357L58.9312 40.1003C58.0903 39.3528 56.889 39.1684 55.8626 39.6293C54.8362 40.0902 54.1759 41.1106 54.1759 42.2357H57.033ZM57.2902 42.4643L59.8039 43.8225C60.434 42.6562 60.1792 41.2096 59.1884 40.3288L57.2902 42.4643ZM56.0688 43.7857L57.5069 46.2545L57.5143 46.2502L56.0688 43.7857ZM55.6116 42.7714L56.8571 45.3428C56.8679 45.3376 56.8786 45.3323 56.8894 45.3269L55.6116 42.7714ZM56.3473 42.1929L54.1118 40.4136L56.3473 42.1929ZM56.7116 41.4643L54.0184 40.5104C53.9809 40.6161 53.9498 40.724 53.925 40.8334L56.7116 41.4643ZM56.8473 40.6929L53.9937 40.5502C53.993 40.566 53.9923 40.5818 53.9918 40.5977L56.8473 40.6929ZM56.8688 40.0071L57.8547 37.3255C56.9782 37.0033 55.9996 37.1297 55.2338 37.6641C54.4679 38.1984 54.0116 39.0733 54.0116 40.0071H56.8688ZM57.3545 40.1857L57.7825 43.0106C59.072 42.8152 60.0656 41.7713 60.1971 40.4737C60.3285 39.1761 59.5645 37.9541 58.3404 37.5041L57.3545 40.1857ZM56.0688 40.3786L56.4875 43.2049L56.0688 40.3786ZM55.0187 40.55L55.4955 43.3671C55.507 43.3651 55.5184 43.3631 55.5299 43.3611L55.0187 40.55ZM54.1902 40.7429L53.3349 38.0167C53.3062 38.0257 53.2776 38.0352 53.2491 38.0451L54.1902 40.7429ZM53.6402 41L52.1388 38.5691C52.1279 38.5759 52.117 38.5827 52.1063 38.5895L53.6402 41ZM53.2616 41.3643L50.8843 39.7794C50.8719 39.798 50.8598 39.8167 50.8478 39.8356L53.2616 41.3643ZM53.2759 42.4429L50.808 43.8825C50.8139 43.8926 50.8199 43.9028 50.8259 43.9128L53.2759 42.4429ZM53.733 42.8429L52.4792 45.4102L52.4792 45.4102L53.733 42.8429ZM54.2545 41.3571C54.1411 41.3571 54.0866 41.3466 54.0779 41.3447C54.0715 41.3432 54.1133 41.3517 54.1826 41.3894L51.4549 46.4106C52.3667 46.9059 53.3461 47.0714 54.2545 47.0714V41.3571ZM54.2063 41.4024C54.2096 41.4042 54.2423 41.4231 54.2878 41.4668C54.3345 41.5116 54.3799 41.5684 54.4167 41.6323L49.4637 44.482C49.948 45.3238 50.6387 45.9573 51.4312 46.3976L54.2063 41.4024ZM54.4394 41.6725C54.4595 41.7088 54.478 41.7538 54.4903 41.8026C54.5025 41.8507 54.5045 41.8857 54.5045 41.9H48.7902C48.7902 42.7833 49.0014 43.6483 49.441 44.4418L54.4394 41.6725ZM54.5045 41.9C54.5045 41.8462 54.5133 41.9307 54.4425 42.082L49.2664 39.6609C48.9195 40.4027 48.7902 41.1728 48.7902 41.9H54.5045ZM54.4425 42.082C54.4119 42.1473 54.3712 42.2128 54.322 42.2729C54.2731 42.3326 54.2256 42.375 54.1894 42.4023L50.7481 37.8405C50.1212 38.3135 49.6106 38.925 49.2664 39.6609L54.4425 42.082ZM54.2146 42.3831C54.1785 42.411 54.2047 42.3794 54.3526 42.3313L52.5849 36.8973C51.9423 37.1063 51.3018 37.4128 50.7229 37.8597L54.2146 42.3831ZM54.2688 42.3571C54.4914 42.2922 54.7749 42.226 55.1278 42.164L54.1383 36.536C53.6245 36.6263 53.1318 36.7364 52.6687 36.8714L54.2688 42.3571ZM55.1278 42.164C55.5255 42.0941 55.9472 42.0277 56.3935 41.9653L55.6012 36.3062C55.095 36.377 54.6072 36.4536 54.1383 36.536L55.1278 42.164ZM56.3896 41.9658C56.8731 41.8988 57.3519 41.8317 57.826 41.7647L57.0258 36.1067C56.557 36.173 56.0834 36.2393 55.605 36.3056L56.3896 41.9658ZM56.0439 36.435L55.5011 36.735L58.265 41.7364L58.8079 41.4364L56.0439 36.435ZM59.7398 39.2807C59.7549 38.3241 59.5708 37.0159 58.602 35.9607L54.3926 39.8251C54.1768 39.59 54.0836 39.3604 54.0476 39.2352C54.0149 39.1212 54.0278 39.0909 54.0262 39.1907L59.7398 39.2807ZM58.6347 35.9968C57.5694 34.796 56.1001 34.5929 55.1402 34.5929V40.3071C55.259 40.3071 55.2158 40.3228 55.0753 40.2769C54.9183 40.2257 54.6289 40.0921 54.36 39.7889L58.6347 35.9968ZM55.1402 34.5929C54.2661 34.5929 53.4084 34.8042 52.6235 35.2464L55.4283 40.225C55.3822 40.2509 55.327 40.2738 55.2677 40.289C55.209 40.3041 55.1639 40.3071 55.1402 40.3071V34.5929ZM52.6503 35.2315C51.5486 35.8367 50.8986 36.8144 50.588 37.824L56.0495 39.5045C56.0333 39.5572 55.9852 39.685 55.8686 39.8382C55.7467 39.9982 55.5854 40.1389 55.4015 40.2399L52.6503 35.2315ZM54.159 35.9335L52.7661 35.5049L51.0856 40.9665L52.4785 41.3951L54.159 35.9335ZM54.6716 39.0258C54.6805 38.9951 54.688 38.9772 54.6917 38.9693C54.6953 38.9616 54.6964 38.9606 54.6943 38.9637C54.6921 38.967 54.6895 38.97 54.6878 38.9717C54.6863 38.9733 54.6891 38.97 54.6994 38.9625L51.3238 34.3518C50.2571 35.1328 49.5378 36.2029 49.1802 37.4456L54.6716 39.0258ZM54.6897 38.9696C54.5984 39.0358 54.6647 38.9286 55.1545 38.9286V33.2143C53.8632 33.2143 52.501 33.4976 51.3336 34.3447L54.6897 38.9696ZM55.1545 38.9286C55.5201 38.9286 55.6902 38.9915 55.7449 39.017L58.164 33.8401C57.1997 33.3895 56.1698 33.2143 55.1545 33.2143V38.9286ZM55.774 39.0304C55.7452 39.0174 55.6827 38.9822 55.6149 38.9153C55.547 38.8482 55.5096 38.7847 55.4946 38.7524L60.6715 36.3333C60.1437 35.2039 59.2667 34.3402 58.1349 33.8267L55.774 39.0304ZM55.5179 38.8012C55.5062 38.7774 55.4949 38.7488 55.4858 38.7171C55.4768 38.6853 55.4716 38.6561 55.4691 38.6319L61.1541 38.0538C61.0914 37.4374 60.9218 36.8424 60.6482 36.2845L55.5179 38.8012ZM55.4691 38.6319C55.4866 38.8041 55.4973 39.0091 55.4973 39.25H61.2116C61.2116 38.8433 61.1937 38.4435 61.1541 38.0538L55.4691 38.6319ZM55.4973 39.25V44H61.2116V39.25H55.4973ZM58.3545 41.1429H57.033V46.8571H58.3545V41.1429ZM59.8902 44V42.2357H54.1759V44H59.8902ZM55.1349 44.3712L55.392 44.5997L59.1884 40.3288L58.9312 40.1003L55.1349 44.3712ZM54.7765 41.1061C54.7174 41.2155 54.6708 41.2729 54.6474 41.2981C54.6258 41.3215 54.618 41.3243 54.6232 41.3212L57.5143 46.2502C58.5313 45.6537 59.2791 44.7937 59.8039 43.8225L54.7765 41.1061ZM54.6306 41.3169C54.6787 41.2889 54.6009 41.3571 54.2545 41.3571V47.0714C55.3461 47.0714 56.4779 46.8539 57.5069 46.2545L54.6306 41.3169ZM54.5188 45.85C55.2682 45.85 56.079 45.7197 56.8571 45.3428L54.3661 40.2001C54.5347 40.1184 54.6169 40.1357 54.5188 40.1357V45.85ZM56.8894 45.3269C57.5131 45.0151 58.1036 44.5742 58.5828 43.9721L54.1118 40.4136C54.2196 40.2782 54.3197 40.223 54.3339 40.2159L56.8894 45.3269ZM58.5828 43.9721C58.9955 43.4536 59.3326 42.8265 59.4982 42.0952L53.925 40.8334C53.9763 40.6068 54.0706 40.4654 54.1118 40.4136L58.5828 43.9721ZM59.4048 42.4181C59.5993 41.8691 59.6853 41.3156 59.7029 40.788L53.9918 40.5977C53.9903 40.6415 53.9858 40.6023 54.0184 40.5104L59.4048 42.4181ZM59.7009 40.8355C59.7162 40.5291 59.7259 40.247 59.7259 40.0071H54.0116C54.0116 40.1101 54.007 40.2852 53.9937 40.5502L59.7009 40.8355ZM55.8829 42.6888L56.3686 42.8674L58.3404 37.5041L57.8547 37.3255L55.8829 42.6888ZM56.9265 37.3608C56.4575 37.4319 56.0321 37.4957 55.65 37.5523L56.4875 43.2049C56.8769 43.1472 57.3086 43.0824 57.7825 43.0106L56.9265 37.3608ZM55.65 37.5523C55.2399 37.613 54.8584 37.6752 54.5076 37.7389L55.5299 43.3611C55.8076 43.3106 56.1262 43.2584 56.4875 43.2049L55.65 37.5523ZM54.542 37.7329C54.1327 37.8022 53.7264 37.8939 53.3349 38.0167L55.0454 43.469C55.1397 43.4394 55.2858 43.4026 55.4955 43.3671L54.542 37.7329ZM53.2491 38.0451C52.8751 38.1756 52.4997 38.3462 52.1388 38.5691L55.1416 43.4309C55.1228 43.4424 55.1113 43.448 55.1092 43.4489C55.1071 43.4499 55.1139 43.4466 55.1312 43.4406L53.2491 38.0451ZM52.1063 38.5895C51.6424 38.8847 51.2183 39.2784 50.8843 39.7794L55.6389 42.9491C55.4954 43.1644 55.3237 43.3153 55.1741 43.4105L52.1063 38.5895ZM50.8478 39.8356C50.4119 40.524 50.2688 41.2546 50.2688 41.8857H55.983C55.983 42.1073 55.9304 42.4903 55.6754 42.893L50.8478 39.8356ZM50.2688 41.8857C50.2688 42.5875 50.451 43.2706 50.808 43.8825L55.7438 41.0032C55.9008 41.2723 55.983 41.584 55.983 41.8857H50.2688ZM50.8259 43.9128C51.2563 44.6302 51.8653 45.1104 52.4792 45.4102L54.9869 40.2755C55.1913 40.3754 55.4955 40.5889 55.7259 40.9729L50.8259 43.9128ZM52.4792 45.4102C53.1984 45.7614 53.9282 45.85 54.5188 45.85V40.1357C54.5052 40.1357 54.5428 40.1344 54.6188 40.1489C54.6957 40.1636 54.8268 40.1974 54.9869 40.2755L52.4792 45.4102ZM60.9235 44H58.0664C58.0664 45.578 59.3456 46.8571 60.9235 46.8571V44ZM60.9235 33.5V30.6429C59.3456 30.6429 58.0664 31.922 58.0664 33.5H60.9235ZM62.4164 33.5H65.2736C65.2736 31.922 63.9944 30.6429 62.4164 30.6429V33.5ZM62.4164 44V46.8571C63.9944 46.8571 65.2736 45.578 65.2736 44H62.4164ZM63.7807 44V33.5H58.0664V44H63.7807ZM60.9235 36.3571H62.4164V30.6429H60.9235V36.3571ZM59.5593 33.5V44H65.2736V33.5H59.5593ZM62.4164 41.1429H60.9235V46.8571H62.4164V41.1429ZM66.3328 43.6786L64.7132 46.0324L64.7233 46.0392L66.3328 43.6786ZM65.1257 42.2214L62.5239 43.4022C62.5276 43.4103 62.5313 43.4183 62.535 43.4264L65.1257 42.2214ZM65.1328 38.0571L67.7198 39.2698L67.7234 39.2621L65.1328 38.0571ZM66.3471 36.6071L67.9419 38.9778L67.9467 38.9745L66.3471 36.6071ZM70.0614 36.6071L68.3902 38.9245C68.3986 38.9306 68.407 38.9366 68.4155 38.9426L70.0614 36.6071ZM71.19 38.0571L68.5472 39.1429C68.5496 39.1488 68.552 39.1546 68.5544 39.1604L71.19 38.0571ZM71.19 42.2143L73.8255 43.3175L71.19 42.2143ZM70.0542 43.6786L71.7149 46.0035C71.7198 46 71.7246 45.9966 71.7295 45.9931L70.0542 43.6786ZM70.2828 41.55L72.9805 42.4911V42.4911L70.2828 41.55ZM70.2757 38.7214L67.578 39.6625C67.5812 39.6718 67.5845 39.6811 67.5878 39.6903L70.2757 38.7214ZM69.6042 37.7643L67.8727 40.0369C67.8784 40.0413 67.8842 40.0457 67.89 40.05L69.6042 37.7643ZM67.2328 37.7857L65.5023 35.5123V35.5123L67.2328 37.7857ZM66.5185 38.7643L63.851 37.7407C63.8476 37.7498 63.8441 37.7588 63.8408 37.7679L66.5185 38.7643ZM66.5185 41.5214L63.837 42.5077C63.8416 42.5202 63.8463 42.5326 63.851 42.545L66.5185 41.5214ZM67.2185 42.5L65.4548 44.7478C65.4604 44.7522 65.466 44.7565 65.4715 44.7608L67.2185 42.5ZM70.4971 44H67.64C67.64 45.578 68.9191 46.8571 70.4971 46.8571V44ZM70.4971 38.45H73.3542C73.3542 36.872 72.0751 35.5929 70.4971 35.5929V38.45ZM70.3257 38.45H67.4685C67.4685 40.028 68.7477 41.3071 70.3257 41.3071V38.45ZM70.3257 33.7143V30.8571C68.7477 30.8571 67.4685 32.1363 67.4685 33.7143H70.3257ZM71.8257 33.7143H74.6828C74.6828 32.1363 73.4036 30.8571 71.8257 30.8571V33.7143ZM71.8257 44V46.8571C73.4036 46.8571 74.6828 45.578 74.6828 44H71.8257ZM68.1971 41.3571C68.075 41.3571 68.0081 41.3422 67.9808 41.3343C67.9565 41.3273 67.948 41.3218 67.9423 41.3179L64.7233 46.0392C65.7834 46.762 66.9836 47.0714 68.1971 47.0714V41.3571ZM67.9524 41.3248C67.8854 41.2787 67.8035 41.204 67.7163 41.0165L62.535 43.4264C63.0192 44.4674 63.7421 45.3641 64.7132 46.0323L67.9524 41.3248ZM67.7274 41.0406C67.6361 40.8394 67.5614 40.5547 67.5614 40.1357H61.8471C61.8471 41.2596 62.0534 42.3653 62.5239 43.4022L67.7274 41.0406ZM67.5614 40.1357C67.5614 39.7147 67.6373 39.4459 67.7198 39.2698L62.5458 36.8445C62.0569 37.8875 61.8471 39.0044 61.8471 40.1357H67.5614ZM67.7234 39.2621C67.8063 39.084 67.8817 39.0183 67.9419 38.9778L64.7523 34.2365C63.7649 34.9008 63.0308 35.8017 62.5422 36.8522L67.7234 39.2621ZM67.9467 38.9745C67.9556 38.9686 67.9679 38.9612 67.9967 38.953C68.0284 38.9439 68.0996 38.9286 68.2257 38.9286V33.2143C67.0111 33.2143 65.8102 33.5217 64.7475 34.2397L67.9467 38.9745ZM68.2257 38.9286C68.357 38.9286 68.4188 38.9446 68.4306 38.9481C68.4366 38.9498 68.4333 38.9494 68.4236 38.9447C68.4137 38.9399 68.4019 38.933 68.3902 38.9245L71.7326 34.2897C70.6625 33.518 69.4353 33.2143 68.2257 33.2143V38.9286ZM68.4155 38.9426C68.433 38.9549 68.483 38.9867 68.5472 39.1429L73.8327 36.9713C73.3922 35.899 72.6898 34.9641 71.7073 34.2717L68.4155 38.9426ZM68.5544 39.1604C68.644 39.3744 68.7185 39.6837 68.7185 40.1357H74.4328C74.4328 39.0449 74.2502 37.9685 73.8255 36.9539L68.5544 39.1604ZM68.7185 40.1357C68.7185 40.5877 68.644 40.8971 68.5544 41.111L73.8255 43.3175C74.2502 42.3029 74.4328 41.2266 74.4328 40.1357H68.7185ZM68.5544 41.111C68.4834 41.2807 68.4202 41.3343 68.379 41.3641L71.7295 45.9931C72.6883 45.299 73.3822 44.3765 73.8255 43.3175L68.5544 41.111ZM68.3936 41.3536C68.4199 41.3348 68.4365 41.3313 68.4231 41.3351C68.4052 41.3403 68.3364 41.3571 68.1971 41.3571V47.0714C69.4082 47.0714 70.6394 46.7718 71.7149 46.0035L68.3936 41.3536ZM68.4042 45.7214C69.3487 45.7214 70.4007 45.4919 71.3241 44.7958L67.8843 40.2328C68.0258 40.1261 68.1651 40.0651 68.2721 40.0339C68.3732 40.0044 68.4253 40.0071 68.4042 40.0071V45.7214ZM71.3241 44.7958C72.1376 44.1825 72.6745 43.3685 72.9805 42.4911L67.5851 40.6089C67.592 40.5893 67.6153 40.5309 67.6694 40.4539C67.7251 40.3749 67.7983 40.2977 67.8843 40.2328L71.3241 44.7958ZM72.9805 42.4911C73.25 41.7186 73.3542 40.9186 73.3542 40.1357H67.64C67.64 40.4195 67.6014 40.5623 67.5851 40.6089L72.9805 42.4911ZM73.3542 40.1357C73.3542 39.3439 73.2452 38.5339 72.9635 37.7526L67.5878 39.6903C67.6014 39.728 67.64 39.8609 67.64 40.1357H73.3542ZM72.9734 37.7804C72.6703 36.9115 72.1382 36.0934 71.3185 35.4786L67.89 40.05C67.7958 39.9794 67.7187 39.8971 67.6616 39.8158C67.6063 39.737 67.5836 39.6787 67.578 39.6625L72.9734 37.7804ZM71.3358 35.4916C70.4298 34.8013 69.395 34.5643 68.4542 34.5643V40.2786C68.456 40.2786 68.3885 40.2789 68.2754 40.2452C68.1566 40.2098 68.0135 40.1442 67.8727 40.0369L71.3358 35.4916ZM68.4542 34.5643C67.4839 34.5643 66.4263 34.809 65.5023 35.5123L68.9633 40.0592C68.8327 40.1586 68.7008 40.2186 68.594 40.2505C68.493 40.2806 68.4385 40.2786 68.4542 40.2786V34.5643ZM65.5023 35.5123C64.7216 36.1065 64.1798 36.8838 63.851 37.7407L69.186 39.7879C69.1821 39.7982 69.1644 39.8399 69.1227 39.897C69.08 39.9555 69.0253 40.012 68.9633 40.0592L65.5023 35.5123ZM63.8408 37.7679C63.5529 38.5416 63.4328 39.3428 63.4328 40.1357H69.1471C69.1471 39.9191 69.1794 39.8061 69.1963 39.7607L63.8408 37.7679ZM63.4328 40.1357C63.4328 40.9307 63.552 41.7329 63.837 42.5077L69.2 40.5351C69.1803 40.4813 69.1471 40.3598 69.1471 40.1357H63.4328ZM63.851 42.545C64.1714 43.3799 64.6935 44.1505 65.4548 44.7478L68.9822 40.2522C69.0452 40.3016 69.097 40.3576 69.1352 40.4109C69.1533 40.4363 69.1661 40.4578 69.1744 40.4735C69.1785 40.4812 69.1814 40.4873 69.1833 40.4915C69.1852 40.4957 69.186 40.4979 69.186 40.4979L63.851 42.545ZM65.4715 44.7608C66.38 45.4628 67.4256 45.7214 68.4042 45.7214V40.0071C68.4083 40.0071 68.4779 40.0077 68.5898 40.0421C68.7069 40.0781 68.8397 40.142 68.9655 40.2392L65.4715 44.7608ZM73.3542 44V38.45H67.64V44H73.3542ZM70.4971 35.5929H70.3257V41.3071H70.4971V35.5929ZM73.1828 38.45V33.7143H67.4685V38.45H73.1828ZM70.3257 36.5714H71.8257V30.8571H70.3257V36.5714ZM68.9685 33.7143V44H74.6828V33.7143H68.9685ZM71.8257 41.1429H70.4971V46.8571H71.8257V41.1429ZM32.8251 61H29.9679C29.9679 62.578 31.2471 63.8571 32.8251 63.8571V61ZM32.8251 50.7143V47.8571C31.2471 47.8571 29.9679 49.1363 29.9679 50.7143H32.8251ZM39.3965 50.7143H42.2536C42.2536 49.1363 40.9744 47.8571 39.3965 47.8571V50.7143ZM39.3965 52.1214V54.9786C40.9744 54.9786 42.2536 53.6994 42.2536 52.1214H39.3965ZM34.3179 52.1214V49.2643C32.74 49.2643 31.4608 50.5435 31.4608 52.1214H34.3179ZM34.3179 55.0071H31.4608C31.4608 56.5851 32.74 57.8643 34.3179 57.8643V55.0071ZM38.5393 55.0071H41.3965C41.3965 53.4292 40.1173 52.15 38.5393 52.15V55.0071ZM38.5393 56.4143V59.2714C40.1173 59.2714 41.3965 57.9922 41.3965 56.4143H38.5393ZM34.3179 56.4143V53.5571C32.74 53.5571 31.4608 54.8363 31.4608 56.4143H34.3179ZM34.3179 59.5929H31.4608C31.4608 61.1708 32.74 62.45 34.3179 62.45V59.5929ZM39.3965 59.5929H42.2536C42.2536 58.0149 40.9744 56.7357 39.3965 56.7357V59.5929ZM39.3965 61V63.8571C40.9744 63.8571 42.2536 62.578 42.2536 61H39.3965ZM35.6822 61V50.7143H29.9679V61H35.6822ZM32.8251 53.5714H39.3965V47.8571H32.8251V53.5714ZM36.5393 50.7143V52.1214H42.2536V50.7143H36.5393ZM39.3965 49.2643H34.3179V54.9786H39.3965V49.2643ZM31.4608 52.1214V55.0071H37.1751V52.1214H31.4608ZM34.3179 57.8643H38.5393V52.15H34.3179V57.8643ZM35.6822 55.0071V56.4143H41.3965V55.0071H35.6822ZM38.5393 53.5571H34.3179V59.2714H38.5393V53.5571ZM31.4608 56.4143V59.5929H37.1751V56.4143H31.4608ZM34.3179 62.45H39.3965V56.7357H34.3179V62.45ZM36.5393 59.5929V61H42.2536V59.5929H36.5393ZM39.3965 58.1429H32.8251V63.8571H39.3965V58.1429ZM41.8262 61H38.969C38.969 62.578 40.2482 63.8571 41.8262 63.8571V61ZM41.8262 50.5V47.6429C40.2482 47.6429 38.969 48.922 38.969 50.5H41.8262ZM43.319 50.5H46.1762C46.1762 48.922 44.897 47.6429 43.319 47.6429V50.5ZM43.319 61V63.8571C44.897 63.8571 46.1762 62.578 46.1762 61H43.319ZM44.6833 61V50.5H38.969V61H44.6833ZM41.8262 53.3571H43.319V47.6429H41.8262V53.3571ZM40.4619 50.5V61H46.1762V50.5H40.4619ZM43.319 58.1429H41.8262V63.8571H43.319V58.1429ZM46.1783 52.0214H43.3211C43.3211 53.5994 44.6003 54.8786 46.1783 54.8786V52.0214ZM46.1783 50.5714V47.7143C44.6003 47.7143 43.3211 48.9935 43.3211 50.5714H46.1783ZM47.6712 50.5714H50.5283C50.5283 48.9935 49.2491 47.7143 47.6712 47.7143V50.5714ZM47.6712 52.0214V54.8786C49.2491 54.8786 50.5283 53.5994 50.5283 52.0214H47.6712ZM46.1783 61H43.3211C43.3211 62.578 44.6003 63.8571 46.1783 63.8571V61ZM46.1783 53.2857V50.4286C44.6003 50.4286 43.3211 51.7078 43.3211 53.2857H46.1783ZM47.6712 53.2857H50.5283C50.5283 51.7078 49.2491 50.4286 47.6712 50.4286V53.2857ZM47.6712 61V63.8571C49.2491 63.8571 50.5283 62.578 50.5283 61H47.6712ZM49.0354 52.0214V50.5714H43.3211V52.0214H49.0354ZM46.1783 53.4286H47.6712V47.7143H46.1783V53.4286ZM44.814 50.5714V52.0214H50.5283V50.5714H44.814ZM47.6712 49.1643H46.1783V54.8786H47.6712V49.1643ZM49.0354 61V53.2857H43.3211V61H49.0354ZM46.1783 56.1429H47.6712V50.4286H46.1783V56.1429ZM44.814 53.2857V61H50.5283V53.2857H44.814ZM47.6712 58.1429H46.1783V63.8571H47.6712V58.1429ZM54.8018 61L55.3516 63.8038C56.6921 63.5409 57.659 62.366 57.659 61H54.8018ZM53.3733 61.1214L53.4607 58.2656L53.3733 61.1214ZM52.1233 60.85L53.3056 58.249L52.1233 60.85ZM51.2947 60.0643L53.8296 58.7461L53.8271 58.7414L51.2947 60.0643ZM51.0233 59.0929L48.1673 59.1745C48.1677 59.1886 48.1682 59.2028 48.1688 59.217L51.0233 59.0929ZM51.009 51.1429V48.2857C49.431 48.2857 48.1518 49.5649 48.1518 51.1429H51.009ZM52.509 51.1429H55.3661C55.3661 49.5649 54.0869 48.2857 52.509 48.2857V51.1429ZM52.5161 58.7L49.6596 58.7595C49.66 58.7793 49.6606 58.7991 49.6615 58.8189L52.5161 58.7ZM52.6661 59.2786L50.19 60.7042L50.1953 60.7132L52.6661 59.2786ZM53.4804 59.7857L53.1529 62.624C53.1661 62.6255 53.1793 62.627 53.1926 62.6283L53.4804 59.7857ZM54.8018 59.7357H57.659C57.659 58.9081 57.3001 58.1212 56.6753 57.5785C56.0504 57.0359 55.221 56.7908 54.4015 56.9068L54.8018 59.7357ZM49.5304 54.4857H46.6733C46.6733 56.0637 47.9525 57.3429 49.5304 57.3429V54.4857ZM49.5304 53.2857V50.4286C47.9525 50.4286 46.6733 51.7078 46.6733 53.2857H49.5304ZM54.8018 53.2857H57.659C57.659 51.7078 56.3798 50.4286 54.8018 50.4286V53.2857ZM54.8018 54.4857V57.3429C56.3798 57.3429 57.659 56.0637 57.659 54.4857H54.8018ZM54.2521 58.1962C53.9636 58.2528 53.7013 58.273 53.4607 58.2656L53.2858 63.9772C53.9786 63.9984 54.6686 63.9377 55.3516 63.8038L54.2521 58.1962ZM53.4607 58.2656C53.3127 58.2611 53.2774 58.2361 53.3056 58.249L50.941 63.451C51.7025 63.7972 52.5005 63.9532 53.2858 63.9772L53.4607 58.2656ZM53.3056 58.249C53.394 58.2892 53.502 58.3557 53.6071 58.4554C53.7122 58.5551 53.7845 58.6595 53.8296 58.7461L48.7598 61.3824C49.2404 62.3068 49.993 63.0202 50.941 63.451L53.3056 58.249ZM53.8271 58.7414C53.8296 58.746 53.8416 58.7704 53.8536 58.8133C53.8658 58.857 53.8752 58.9101 53.8777 58.9688L48.1688 59.217C48.203 60.0022 48.4203 60.7325 48.7623 61.3872L53.8271 58.7414ZM53.8792 59.0113C53.8707 58.711 53.8661 58.3627 53.8661 57.9643H48.1518C48.1518 58.404 48.1568 58.8081 48.1673 59.1745L53.8792 59.0113ZM53.8661 57.9643V51.1429H48.1518V57.9643H53.8661ZM51.009 54H52.509V48.2857H51.009V54ZM49.6518 51.1429V57.8929H55.3661V51.1429H49.6518ZM49.6518 57.8929C49.6518 58.2158 49.6543 58.5056 49.6596 58.7595L55.3727 58.6405C55.3684 58.4373 55.3661 58.189 55.3661 57.8929H49.6518ZM49.6615 58.8189C49.6852 59.3897 49.8178 60.0575 50.1901 60.7042L55.1422 57.853C55.3335 58.1853 55.3661 58.4674 55.3708 58.5811L49.6615 58.8189ZM50.1953 60.7132C50.8672 61.8705 51.9842 62.4892 53.1529 62.624L53.8079 56.9474C53.9716 56.9663 54.2297 57.0278 54.5087 57.2015C54.7959 57.3804 55.0046 57.6159 55.137 57.8439L50.1953 60.7132ZM53.1926 62.6283C53.8614 62.6961 54.5428 62.658 55.2022 62.5647L54.4015 56.9068C54.0513 56.9563 53.8518 56.9516 53.7683 56.9431L53.1926 62.6283ZM51.9447 59.7357V61H57.659V59.7357H51.9447ZM52.3876 54.4857V53.2857H46.6733V54.4857H52.3876ZM49.5304 56.1429H54.8018V50.4286H49.5304V56.1429ZM51.9447 53.2857V54.4857H57.659V53.2857H51.9447ZM54.8018 51.6286H49.5304V57.3429H54.8018V51.6286ZM58.0509 60.7143L56.605 63.1785C56.613 63.1832 56.621 63.1879 56.629 63.1925L58.0509 60.7143ZM56.7009 59.3071L54.1739 60.6403C54.1781 60.6483 54.1823 60.6562 54.1866 60.6641L56.7009 59.3071ZM56.6938 55.0143L54.1541 53.7054C54.1515 53.7105 54.1488 53.7157 54.1462 53.7209L56.6938 55.0143ZM58.0224 53.5786L56.5585 51.125L58.0224 53.5786ZM62.0081 53.6214L60.428 56.0019C60.4327 56.005 60.4375 56.0082 60.4423 56.0113L62.0081 53.6214ZM63.2438 55.1714L60.5949 56.2423C60.5971 56.2476 60.5993 56.253 60.6015 56.2583L63.2438 55.1714ZM63.5724 57.5643V60.4214C65.0818 60.4214 66.3309 59.2473 66.4241 57.7407L63.5724 57.5643ZM62.0795 57.5643H59.2224C59.2224 59.1422 60.5016 60.4214 62.0795 60.4214V57.5643ZM62.0795 57.0214H64.9367C64.9367 57.0113 64.9366 57.0012 64.9365 56.991L62.0795 57.0214ZM61.5652 55.0357L59.2978 56.7741C59.3018 56.7794 59.3059 56.7846 59.3099 56.7898L61.5652 55.0357ZM58.3724 55.1L60.6056 56.8821L58.3724 55.1ZM58.3724 59.1143L56.148 60.9074C56.151 60.9111 56.154 60.9149 56.157 60.9186L58.3724 59.1143ZM61.2081 59.4929L62.7132 61.9215L62.7224 61.9157L61.2081 59.4929ZM62.0081 58.5786L62.8716 55.8551C61.5164 55.4254 60.0515 56.0574 59.4342 57.3382L62.0081 58.5786ZM63.4724 59.0429L66.0929 60.1814C66.4152 59.4396 66.408 58.596 66.0731 57.8598C65.7381 57.1236 65.1069 56.5638 64.3359 56.3193L63.4724 59.0429ZM62.1081 60.65L63.6087 63.0814C63.6133 63.0785 63.6178 63.0757 63.6224 63.0729L62.1081 60.65ZM57.3224 57.5643H54.4652C54.4652 59.1422 55.7444 60.4214 57.3224 60.4214V57.5643ZM57.3224 56.4V53.5429C55.7444 53.5429 54.4652 54.822 54.4652 56.4H57.3224ZM62.8295 56.4H65.6867C65.6867 54.822 64.4075 53.5429 62.8295 53.5429V56.4ZM62.8295 57.5643V60.4214C64.4075 60.4214 65.6867 59.1422 65.6867 57.5643H62.8295ZM60.0724 58.3571C59.7314 58.3571 59.5617 58.2871 59.4729 58.2361L56.629 63.1925C57.7021 63.8082 58.88 64.0714 60.0724 64.0714V58.3571ZM59.4969 58.25C59.3811 58.1821 59.2963 58.1003 59.2153 57.9502L54.1866 60.6641C54.7532 61.714 55.5685 62.5703 56.605 63.1785L59.4969 58.25ZM59.228 57.974C59.1586 57.8425 59.0795 57.6138 59.0795 57.2071H53.3652C53.3652 58.391 53.6052 59.5623 54.1739 60.6403L59.228 57.974ZM59.0795 57.2071C59.0795 56.7188 59.1696 56.4491 59.2414 56.3077L54.1462 53.7209C53.5894 54.8176 53.3652 56.0098 53.3652 57.2071H59.0795ZM59.2335 56.3232C59.3221 56.1512 59.404 56.0813 59.4863 56.0322L56.5585 51.125C55.5074 51.7521 54.7036 52.6393 54.1541 53.7054L59.2335 56.3232ZM59.4863 56.0322C59.5511 55.9935 59.6903 55.9286 60.0009 55.9286V50.2143C58.8068 50.2143 57.627 50.4874 56.5585 51.125L59.4863 56.0322ZM60.0009 55.9286C60.3305 55.9286 60.425 55.9999 60.428 56.0019L63.5882 51.241C62.4864 50.5096 61.2428 50.2143 60.0009 50.2143V55.9286ZM60.4423 56.0113C60.4606 56.0233 60.5196 56.056 60.5949 56.2423L65.8927 54.1006C65.4251 52.944 64.6603 51.9433 63.5739 51.2315L60.4423 56.0113ZM60.6015 56.2583C60.6744 56.4356 60.7582 56.7807 60.7207 57.3879L66.4241 57.7407C66.5008 56.5002 66.3656 55.2501 65.8861 54.0845L60.6015 56.2583ZM63.5724 54.7071H62.0795V60.4214H63.5724V54.7071ZM64.9367 57.5643V57.0214H59.2224V57.5643H64.9367ZM64.9365 56.991C64.9243 55.8423 64.7159 54.4328 63.8205 53.2816L59.3099 56.7898C59.1841 56.628 59.1654 56.5216 59.1779 56.5699C59.1909 56.6201 59.2195 56.7688 59.2225 57.0518L64.9365 56.991ZM63.8327 53.2973C62.8288 51.988 61.3756 51.5357 60.0581 51.5357V57.25C60.0999 57.25 59.9978 57.257 59.821 57.1816C59.6253 57.0981 59.4363 56.9547 59.2978 56.7741L63.8327 53.2973ZM60.0581 51.5357C58.6703 51.5357 57.1858 52.0062 56.1391 53.3179L60.6056 56.8821C60.4919 57.0246 60.337 57.139 60.1812 57.2044C60.0424 57.2626 59.9801 57.25 60.0581 57.25V51.5357ZM56.1391 53.3179C55.2061 54.4871 54.9509 55.9021 54.9509 57.1429H60.6652C60.6652 56.8912 60.6926 56.7632 60.7032 56.725C60.7118 56.6937 60.696 56.7689 60.6056 56.8821L56.1391 53.3179ZM54.9509 57.1429C54.9509 58.3779 55.2223 59.7591 56.148 60.9074L60.5968 57.3212C60.6797 57.424 60.6996 57.4978 60.696 57.4852C60.6902 57.4649 60.6652 57.3617 60.6652 57.1429H54.9509ZM56.157 60.9186C57.1813 62.1762 58.6145 62.6643 60.0009 62.6643V56.95C59.9543 56.95 60.0339 56.9426 60.1802 57.0048C60.3403 57.0729 60.4857 57.1847 60.5877 57.31L56.157 60.9186ZM60.0009 62.6643C60.9059 62.6643 61.8497 62.4566 62.7131 61.9215L59.703 57.0643C59.7882 57.0115 59.8696 56.9801 59.9329 56.9636C59.9934 56.9478 60.0205 56.95 60.0009 56.95V62.6643ZM62.7224 61.9157C63.5619 61.391 64.1778 60.6575 64.5819 59.819L59.4342 57.3382C59.4415 57.3232 59.4654 57.2788 59.515 57.2221C59.5657 57.1642 59.6275 57.1114 59.6938 57.07L62.7224 61.9157ZM61.1445 61.3021L62.6088 61.7664L64.3359 56.3193L62.8716 55.8551L61.1445 61.3021ZM60.8519 57.9043C60.7707 58.0912 60.6891 58.1676 60.5938 58.2271L63.6224 63.0729C64.7461 62.3705 65.5741 61.3754 66.0929 60.1814L60.8519 57.9043ZM60.6075 58.2186C60.4692 58.304 60.3143 58.3571 60.0724 58.3571V64.0714C61.3257 64.0714 62.5279 63.7484 63.6087 63.0814L60.6075 58.2186ZM60.1795 57.5643V56.4H54.4652V57.5643H60.1795ZM57.3224 59.2571H62.8295V53.5429H57.3224V59.2571ZM59.9724 56.4V57.5643H65.6867V56.4H59.9724ZM62.8295 54.7071H57.3224V60.4214H62.8295V54.7071Z" fill="#009688" mask="url(#path-9-outside-1_1117_12270)"/>
<defs>
<filter id="filter0_ii_1117_12270" x="18.4615" y="27.7857" width="59.078" height="39.1429" filterUnits="userSpaceOnUse" color-interpolation-filters="sRGB">
<feFlood flood-opacity="0" result="BackgroundImageFix"/>
<feBlend mode="normal" in="SourceGraphic" in2="BackgroundImageFix" result="shape"/>
<feColorMatrix in="SourceAlpha" type="matrix" values="0 0 0 0 0 0 0 0 0 0 0 0 0 0 0 0 0 0 127 0" result="hardAlpha"/>
<feOffset dx="5.71429" dy="5.71429"/>
<feGaussianBlur stdDeviation="2.85714"/>
<feComposite in2="hardAlpha" operator="arithmetic" k2="-1" k3="1"/>
<feColorMatrix type="matrix" values="0 0 0 0 0 0 0 0 0 0 0 0 0 0 0 0 0 0 0.25 0"/>
<feBlend mode="normal" in2="shape" result="effect1_innerShadow_1117_12270"/>
<feColorMatrix in="SourceAlpha" type="matrix" values="0 0 0 0 0 0 0 0 0 0 0 0 0 0 0 0 0 0 127 0" result="hardAlpha"/>
<feOffset dx="-5.71429" dy="-5.71429"/>
<feGaussianBlur stdDeviation="5.71429"/>
<feComposite in2="hardAlpha" operator="arithmetic" k2="-1" k3="1"/>
<feColorMatrix type="matrix" values="0 0 0 0 0.983333 0 0 0 0 0.954653 0 0 0 0 0.954653 0 0 0 0.25 0"/>
<feBlend mode="normal" in2="effect1_innerShadow_1117_12270" result="effect2_innerShadow_1117_12270"/>
</filter>
</defs>
</svg>
