<svg width="12" height="12" viewBox="0 0 12 12" fill="none" xmlns="http://www.w3.org/2000/svg">
<path fill-rule="evenodd" clip-rule="evenodd" d="M0 1.5C0 0.671573 0.671573 0 1.5 0H10.5C11.3284 0 12 0.671573 12 1.5V10.5C12 11.3284 11.3284 12 10.5 12H1.5C0.671573 12 0 11.3284 0 10.5V1.5ZM1 2.5C1 1.67157 1.67157 1 2.5 1H9.5C10.3284 1 11 1.67157 11 2.5V9.5C11 10.3284 10.3284 11 9.5 11H2.5C1.67157 11 1 10.3284 1 9.5V2.5ZM3.5 2C2.67157 2 2 2.67157 2 3.5V8.5C2 9.32843 2.67157 10 3.5 10H8.5C9.32843 10 10 9.32843 10 8.5V3.5C10 2.67157 9.32843 2 8.5 2H3.5Z" fill="#019F3C"/>
</svg>
