<svg width="48" height="48" viewBox="0 0 48 48" fill="none" xmlns="http://www.w3.org/2000/svg">
<path d="M43.1988 17.6929V34.7977C43.1988 36.389 42.5667 37.9151 41.4415 39.0403C40.3163 40.1655 38.7901 40.7977 37.1988 40.7977H10.7988C9.20753 40.7977 7.68141 40.1655 6.55619 39.0403C5.43097 37.9151 4.79883 36.389 4.79883 34.7977V17.6929L23.3892 28.6321C23.5739 28.741 23.7844 28.7984 23.9988 28.7984C24.2132 28.7984 24.4237 28.741 24.6084 28.6321L43.1988 17.6929ZM37.1988 9.59766C38.6752 9.59742 40.0998 10.1415 41.2001 11.1258C42.3005 12.1102 42.9993 13.4656 43.1628 14.9329L23.9988 26.2057L4.83483 14.9329C4.99841 13.4656 5.69721 12.1102 6.79754 11.1258C7.89787 10.1415 9.32248 9.59742 10.7988 9.59766H37.1988Z" fill="#88DF95"/>
</svg>
