<svg width="86" height="86" viewBox="0 0 86 86" fill="none" xmlns="http://www.w3.org/2000/svg">
<path d="M83 43C83 65.0914 65.0914 83 43 83C20.9086 83 3 65.0914 3 43C3 20.9086 20.9086 3 43 3C65.0914 3 83 20.9086 83 43Z" fill="#FFBB0D"/>
<path fill-rule="evenodd" clip-rule="evenodd" d="M85.963 43C85.963 66.7278 66.7279 85.963 43.0001 85.963C19.2723 85.963 0.0371094 66.7278 0.0371094 43C0.0371094 19.2722 19.2723 0.0370483 43.0001 0.0370483C66.7279 0.0370483 85.963 19.2722 85.963 43ZM43.0001 83C65.0915 83 83.0001 65.0914 83.0001 43C83.0001 20.9086 65.0915 3.00001 43.0001 3.00001C20.9087 3.00001 3.00007 20.9086 3.00007 43C3.00007 65.0914 20.9087 83 43.0001 83Z" fill="#E89B05"/>
<path fill-rule="evenodd" clip-rule="evenodd" d="M5.96293 44.4815C5.14473 44.4815 4.48145 43.8182 4.48145 43C4.48145 21.7268 21.7268 4.48151 43 4.48151C43.8182 4.48151 44.4814 5.14479 44.4814 5.96299C44.4814 6.78119 43.8182 7.44447 43 7.44447C23.3632 7.44447 7.44441 23.3632 7.44441 43C7.44441 43.8182 6.78113 44.4815 5.96293 44.4815Z" fill="#E8AA0A"/>
<path fill-rule="evenodd" clip-rule="evenodd" d="M80.0371 41.5186C80.8553 41.5186 81.5186 42.1818 81.5186 43C81.5186 64.2732 64.2732 81.5186 43 81.5186C42.1818 81.5186 41.5186 80.8553 41.5186 80.0371C41.5186 79.2189 42.1818 78.5556 43 78.5556C62.6368 78.5556 78.5556 62.6368 78.5556 43C78.5556 42.1818 79.2189 41.5186 80.0371 41.5186Z" fill="#E8AA0A"/>
<path d="M72.6299 43C72.6299 59.364 59.3642 72.6296 43.0002 72.6296C26.6362 72.6296 13.3706 59.364 13.3706 43C13.3706 26.636 26.6362 13.3704 43.0002 13.3704C59.3642 13.3704 72.6299 26.636 72.6299 43Z" fill="#FFDD28"/>
<path fill-rule="evenodd" clip-rule="evenodd" d="M75.5929 43C75.5929 61.0004 61.0007 75.5926 43.0003 75.5926C24.9999 75.5926 10.4077 61.0004 10.4077 43C10.4077 24.9996 24.9999 10.4074 43.0003 10.4074C61.0007 10.4074 75.5929 24.9996 75.5929 43ZM43.0003 72.6296C59.3643 72.6296 72.6299 59.364 72.6299 43C72.6299 26.636 59.3643 13.3704 43.0003 13.3704C26.6363 13.3704 13.3707 26.636 13.3707 43C13.3707 59.364 26.6363 72.6296 43.0003 72.6296Z" fill="#E89B05"/>
<path fill-rule="evenodd" clip-rule="evenodd" d="M43.0003 68.1852C56.9097 68.1852 68.1855 56.9094 68.1855 43C68.1855 42.1818 68.8488 41.5185 69.667 41.5185C70.4852 41.5185 71.1484 42.1818 71.1484 43C71.1484 58.5458 58.5461 71.1481 43.0003 71.1481C42.1821 71.1481 41.5188 70.4848 41.5188 69.6666C41.5188 68.8484 42.1821 68.1852 43.0003 68.1852Z" fill="#ECC704"/>
<path fill-rule="evenodd" clip-rule="evenodd" d="M43.0002 17.8148C29.0908 17.8148 17.815 29.0906 17.815 43C17.815 43.8182 17.1517 44.4815 16.3335 44.4815C15.5153 44.4815 14.8521 43.8182 14.8521 43C14.8521 27.4542 27.4544 14.8519 43.0002 14.8519C43.8184 14.8519 44.4817 15.5151 44.4817 16.3333C44.4817 17.1515 43.8184 17.8148 43.0002 17.8148Z" fill="#FFEF9C"/>
<mask id="path-9-outside-1_108_19690" maskUnits="userSpaceOnUse" x="23" y="34" width="39" height="18" fill="black">
<rect fill="white" x="23" y="34" width="39" height="18"/>
<path d="M31.2071 48.2143C30.5167 48.2143 29.881 48.0952 29.3 47.8571C28.719 47.6143 28.2143 47.2619 27.7857 46.8C27.3571 46.3381 27.0238 45.7762 26.7857 45.1143C26.5476 44.4524 26.4286 43.7 26.4286 42.8571C26.4286 41.7476 26.631 40.7952 27.0357 40C27.4405 39.2 28.0024 38.5857 28.7214 38.1571C29.4405 37.7238 30.269 37.5071 31.2071 37.5071C32.4167 37.5071 33.381 37.7881 34.1 38.35C34.8238 38.9119 35.3167 39.6881 35.5786 40.6786L34.0643 40.95C33.8548 40.3357 33.5167 39.8452 33.05 39.4786C32.5833 39.1119 31.9976 38.9262 31.2929 38.9214C30.5643 38.9167 29.9571 39.0786 29.4714 39.4071C28.9905 39.7357 28.6286 40.1976 28.3857 40.7929C28.1429 41.3833 28.019 42.0714 28.0143 42.8571C28.0095 43.6429 28.1286 44.331 28.3714 44.9214C28.6143 45.5071 28.9786 45.9643 29.4643 46.2929C29.9548 46.6214 30.5643 46.7881 31.2929 46.7929C31.8786 46.8024 32.381 46.6952 32.8 46.4714C33.2238 46.2429 33.5595 45.9095 33.8071 45.4714C34.0548 45.0333 34.2143 44.4952 34.2857 43.8571H32.2857V42.6571H35.8714C35.881 42.7429 35.8881 42.8571 35.8929 43C35.8976 43.1381 35.9 43.2262 35.9 43.2643C35.9 44.2167 35.7167 45.0667 35.35 45.8143C34.9833 46.5619 34.45 47.15 33.75 47.5786C33.05 48.0024 32.2024 48.2143 31.2071 48.2143ZM41.2451 48.2143C40.4737 48.2143 39.8046 48.0405 39.2379 47.6929C38.6713 47.3452 38.2332 46.8667 37.9237 46.2571C37.6189 45.6429 37.4665 44.9357 37.4665 44.1357C37.4665 43.331 37.6237 42.6238 37.9379 42.0143C38.2522 41.4 38.6927 40.9238 39.2594 40.5857C39.826 40.2429 40.4879 40.0714 41.2451 40.0714C42.0165 40.0714 42.6856 40.2452 43.2522 40.5929C43.8189 40.9405 44.257 41.419 44.5665 42.0286C44.876 42.6381 45.0308 43.3405 45.0308 44.1357C45.0308 44.9405 44.8737 45.65 44.5594 46.2643C44.2499 46.8738 43.8118 47.3524 43.2451 47.7C42.6784 48.0429 42.0118 48.2143 41.2451 48.2143ZM41.2451 46.8071C41.9832 46.8071 42.5332 46.5595 42.8951 46.0643C43.2618 45.5643 43.4451 44.9214 43.4451 44.1357C43.4451 43.331 43.2594 42.6881 42.8879 42.2071C42.5213 41.7214 41.9737 41.4786 41.2451 41.4786C40.7451 41.4786 40.3332 41.5929 40.0094 41.8214C39.6856 42.0452 39.4451 42.3571 39.2879 42.7571C39.1308 43.1524 39.0522 43.6119 39.0522 44.1357C39.0522 44.9452 39.2379 45.5929 39.6094 46.0786C39.9808 46.5643 40.526 46.8071 41.2451 46.8071ZM47.3147 48V37.5H48.8076V48H47.3147ZM54.5883 48.2143C53.8692 48.2143 53.2478 48.0357 52.724 47.6786C52.2049 47.3214 51.8026 46.8357 51.5169 46.2214C51.2359 45.6024 51.0954 44.9071 51.0954 44.1357C51.0954 43.3595 51.2383 42.6667 51.524 42.0571C51.8097 41.4429 52.2145 40.9595 52.7383 40.6071C53.2669 40.25 53.893 40.0714 54.6169 40.0714C55.3454 40.0714 55.9573 40.25 56.4526 40.6071C56.9526 40.9595 57.3288 41.4429 57.5811 42.0571C57.8383 42.6714 57.9669 43.3643 57.9669 44.1357C57.9669 44.9071 57.8383 45.6 57.5811 46.2143C57.324 46.8286 56.9454 47.3167 56.4454 47.6786C55.9454 48.0357 55.3264 48.2143 54.5883 48.2143ZM54.7954 46.8643C55.2859 46.8643 55.6859 46.7476 55.9954 46.5143C56.3049 46.281 56.5311 45.9595 56.674 45.55C56.8169 45.1405 56.8883 44.669 56.8883 44.1357C56.8883 43.6024 56.8145 43.131 56.6669 42.7214C56.524 42.3119 56.3002 41.9929 55.9954 41.7643C55.6954 41.5357 55.3121 41.4214 54.8454 41.4214C54.3502 41.4214 53.943 41.5429 53.624 41.7857C53.3049 42.0286 53.0669 42.3548 52.9097 42.7643C52.7573 43.1738 52.6811 43.631 52.6811 44.1357C52.6811 44.6452 52.7573 45.1071 52.9097 45.5214C53.0669 45.931 53.3002 46.2571 53.6097 46.5C53.924 46.7429 54.3192 46.8643 54.7954 46.8643ZM56.8883 48V42.45H56.7169V37.7143H58.2169V48H56.8883Z"/>
</mask>
<g filter="url(#filter0_ii_108_19690)">
<path d="M31.2071 48.2143C30.5167 48.2143 29.881 48.0952 29.3 47.8571C28.719 47.6143 28.2143 47.2619 27.7857 46.8C27.3571 46.3381 27.0238 45.7762 26.7857 45.1143C26.5476 44.4524 26.4286 43.7 26.4286 42.8571C26.4286 41.7476 26.631 40.7952 27.0357 40C27.4405 39.2 28.0024 38.5857 28.7214 38.1571C29.4405 37.7238 30.269 37.5071 31.2071 37.5071C32.4167 37.5071 33.381 37.7881 34.1 38.35C34.8238 38.9119 35.3167 39.6881 35.5786 40.6786L34.0643 40.95C33.8548 40.3357 33.5167 39.8452 33.05 39.4786C32.5833 39.1119 31.9976 38.9262 31.2929 38.9214C30.5643 38.9167 29.9571 39.0786 29.4714 39.4071C28.9905 39.7357 28.6286 40.1976 28.3857 40.7929C28.1429 41.3833 28.019 42.0714 28.0143 42.8571C28.0095 43.6429 28.1286 44.331 28.3714 44.9214C28.6143 45.5071 28.9786 45.9643 29.4643 46.2929C29.9548 46.6214 30.5643 46.7881 31.2929 46.7929C31.8786 46.8024 32.381 46.6952 32.8 46.4714C33.2238 46.2429 33.5595 45.9095 33.8071 45.4714C34.0548 45.0333 34.2143 44.4952 34.2857 43.8571H32.2857V42.6571H35.8714C35.881 42.7429 35.8881 42.8571 35.8929 43C35.8976 43.1381 35.9 43.2262 35.9 43.2643C35.9 44.2167 35.7167 45.0667 35.35 45.8143C34.9833 46.5619 34.45 47.15 33.75 47.5786C33.05 48.0024 32.2024 48.2143 31.2071 48.2143ZM41.2451 48.2143C40.4737 48.2143 39.8046 48.0405 39.2379 47.6929C38.6713 47.3452 38.2332 46.8667 37.9237 46.2571C37.6189 45.6429 37.4665 44.9357 37.4665 44.1357C37.4665 43.331 37.6237 42.6238 37.9379 42.0143C38.2522 41.4 38.6927 40.9238 39.2594 40.5857C39.826 40.2429 40.4879 40.0714 41.2451 40.0714C42.0165 40.0714 42.6856 40.2452 43.2522 40.5929C43.8189 40.9405 44.257 41.419 44.5665 42.0286C44.876 42.6381 45.0308 43.3405 45.0308 44.1357C45.0308 44.9405 44.8737 45.65 44.5594 46.2643C44.2499 46.8738 43.8118 47.3524 43.2451 47.7C42.6784 48.0429 42.0118 48.2143 41.2451 48.2143ZM41.2451 46.8071C41.9832 46.8071 42.5332 46.5595 42.8951 46.0643C43.2618 45.5643 43.4451 44.9214 43.4451 44.1357C43.4451 43.331 43.2594 42.6881 42.8879 42.2071C42.5213 41.7214 41.9737 41.4786 41.2451 41.4786C40.7451 41.4786 40.3332 41.5929 40.0094 41.8214C39.6856 42.0452 39.4451 42.3571 39.2879 42.7571C39.1308 43.1524 39.0522 43.6119 39.0522 44.1357C39.0522 44.9452 39.2379 45.5929 39.6094 46.0786C39.9808 46.5643 40.526 46.8071 41.2451 46.8071ZM47.3147 48V37.5H48.8076V48H47.3147ZM54.5883 48.2143C53.8692 48.2143 53.2478 48.0357 52.724 47.6786C52.2049 47.3214 51.8026 46.8357 51.5169 46.2214C51.2359 45.6024 51.0954 44.9071 51.0954 44.1357C51.0954 43.3595 51.2383 42.6667 51.524 42.0571C51.8097 41.4429 52.2145 40.9595 52.7383 40.6071C53.2669 40.25 53.893 40.0714 54.6169 40.0714C55.3454 40.0714 55.9573 40.25 56.4526 40.6071C56.9526 40.9595 57.3288 41.4429 57.5811 42.0571C57.8383 42.6714 57.9669 43.3643 57.9669 44.1357C57.9669 44.9071 57.8383 45.6 57.5811 46.2143C57.324 46.8286 56.9454 47.3167 56.4454 47.6786C55.9454 48.0357 55.3264 48.2143 54.5883 48.2143ZM54.7954 46.8643C55.2859 46.8643 55.6859 46.7476 55.9954 46.5143C56.3049 46.281 56.5311 45.9595 56.674 45.55C56.8169 45.1405 56.8883 44.669 56.8883 44.1357C56.8883 43.6024 56.8145 43.131 56.6669 42.7214C56.524 42.3119 56.3002 41.9929 55.9954 41.7643C55.6954 41.5357 55.3121 41.4214 54.8454 41.4214C54.3502 41.4214 53.943 41.5429 53.624 41.7857C53.3049 42.0286 53.0669 42.3548 52.9097 42.7643C52.7573 43.1738 52.6811 43.631 52.6811 44.1357C52.6811 44.6452 52.7573 45.1071 52.9097 45.5214C53.0669 45.931 53.3002 46.2571 53.6097 46.5C53.924 46.7429 54.3192 46.8643 54.7954 46.8643ZM56.8883 48V42.45H56.7169V37.7143H58.2169V48H56.8883Z" fill="#FFEF9C"/>
</g>
<path d="M29.3 47.8571L28.198 50.4932C28.2042 50.4958 28.2103 50.4983 28.2165 50.5009L29.3 47.8571ZM27.7857 46.8L25.6912 48.7433H25.6912L27.7857 46.8ZM26.7857 45.1143L24.0972 46.0814H24.0972L26.7857 45.1143ZM27.0357 40L29.582 41.296L29.5851 41.2899L27.0357 40ZM28.7214 38.1571L30.1843 40.6114L30.1962 40.6043L28.7214 38.1571ZM34.1 38.35L32.3407 40.6013L32.3479 40.6069L34.1 38.35ZM35.5786 40.6786L36.0827 43.4909C36.8682 43.3501 37.559 42.8872 37.9879 42.2143C38.4168 41.5413 38.5448 40.7197 38.3408 39.9482L35.5786 40.6786ZM34.0643 40.95L31.3601 41.8724C31.8158 43.2084 33.1789 44.0114 34.5684 43.7623L34.0643 40.95ZM33.05 39.4786L34.8152 37.2319L33.05 39.4786ZM31.2929 38.9214L31.3122 36.0644L31.3115 36.0643L31.2929 38.9214ZM29.4714 39.4071L27.8705 37.0406L27.8597 37.048L29.4714 39.4071ZM28.3857 40.7929L31.0281 41.8796L31.0311 41.8722L28.3857 40.7929ZM28.0143 42.8571L25.1572 42.8398L28.0143 42.8571ZM28.3714 44.9214L25.729 46.0082L25.7322 46.0158L28.3714 44.9214ZM29.4643 46.2929L27.8634 48.6594L27.8741 48.6666L29.4643 46.2929ZM31.2929 46.7929L31.3393 43.9361C31.3301 43.9359 31.3208 43.9358 31.3115 43.9358L31.2929 46.7929ZM32.8 46.4714L34.146 48.9917L34.1563 48.9862L32.8 46.4714ZM33.8071 45.4714L36.2945 46.8773L36.2945 46.8773L33.8071 45.4714ZM34.2857 43.8571L37.1251 44.175C37.2156 43.3669 36.9575 42.5586 36.4154 41.9525C35.8734 41.3464 35.0988 41 34.2857 41V43.8571ZM32.2857 43.8571H29.4286C29.4286 45.4351 30.7078 46.7143 32.2857 46.7143V43.8571ZM32.2857 42.6571V39.8C30.7078 39.8 29.4286 41.0792 29.4286 42.6571H32.2857ZM35.8714 42.6571L38.7111 42.3416C38.5503 40.8947 37.3273 39.8 35.8714 39.8V42.6571ZM35.8929 43L33.0373 43.0952L33.0374 43.0985L35.8929 43ZM35.35 45.8143L32.7848 44.5562L32.7848 44.5562L35.35 45.8143ZM33.75 47.5786L35.2298 50.0227C35.2338 50.0202 35.2378 50.0178 35.2419 50.0153L33.75 47.5786ZM31.2071 45.3571C30.8511 45.3571 30.5878 45.2971 30.3835 45.2134L28.2165 50.5009C29.1741 50.8933 30.1823 51.0714 31.2071 51.0714V45.3571ZM30.402 45.2211C30.1978 45.1357 30.0314 45.0196 29.8802 44.8567L25.6912 48.7433C26.3972 49.5042 27.2403 50.0929 28.198 50.4932L30.402 45.2211ZM29.8802 44.8567C29.7422 44.708 29.5972 44.4892 29.4742 44.1472L24.0972 46.0814C24.4504 47.0632 24.9721 47.9682 25.6912 48.7433L29.8802 44.8567ZM29.4742 44.1472C29.3674 43.8501 29.2857 43.4339 29.2857 42.8571H23.5714C23.5714 43.9661 23.7279 45.0546 24.0972 46.0814L29.4742 44.1472ZM29.2857 42.8571C29.2857 42.0906 29.4253 41.6039 29.582 41.296L24.4894 38.704C23.8366 39.9866 23.5714 41.4046 23.5714 42.8571H29.2857ZM29.5851 41.2899C29.7635 40.9373 29.9638 40.7428 30.1842 40.6114L27.2586 35.7029C26.041 36.4286 25.1174 37.4627 24.4863 38.7101L29.5851 41.2899ZM30.1962 40.6043C30.4193 40.4698 30.7261 40.3643 31.2071 40.3643V34.65C29.812 34.65 28.4616 34.9778 27.2467 35.71L30.1962 40.6043ZM31.2071 40.3643C31.9866 40.3643 32.2662 40.543 32.3407 40.6013L35.8593 36.0987C34.4957 35.0331 32.8468 34.65 31.2071 34.65V40.3643ZM32.3479 40.6069C32.5185 40.7393 32.6947 40.949 32.8164 41.409L38.3408 39.9482C37.9386 38.4272 37.1291 37.0845 35.8521 36.0931L32.3479 40.6069ZM35.0745 37.8662L33.5602 38.1377L34.5684 43.7623L36.0827 43.4909L35.0745 37.8662ZM36.7685 40.0276C36.3979 38.9414 35.7568 37.9718 34.8152 37.2319L31.2848 41.7252C31.2912 41.7302 31.2947 41.7336 31.3012 41.743C31.3088 41.754 31.3325 41.7913 31.3601 41.8724L36.7685 40.0276ZM34.8152 37.2319C33.7615 36.4041 32.5274 36.0726 31.3122 36.0644L31.2736 41.7785C31.3807 41.7792 31.4142 41.7932 31.3972 41.7878C31.3888 41.7852 31.372 41.779 31.3498 41.7673C31.3275 41.7556 31.3052 41.7412 31.2848 41.7252L34.8152 37.2319ZM31.3115 36.0643C30.1468 36.0567 28.9389 36.3179 27.8705 37.0406L31.0723 41.7737C31.0326 41.8005 31.0098 41.8046 31.0273 41.8C31.0491 41.7941 31.1251 41.7775 31.2742 41.7785L31.3115 36.0643ZM27.8597 37.048C26.8687 37.725 26.172 38.6555 25.7403 39.7135L31.0311 41.8722C31.0621 41.7962 31.0852 41.7661 31.0883 41.7621C31.0904 41.7595 31.0901 41.7602 31.0875 41.7626C31.085 41.765 31.0831 41.7664 31.0831 41.7663L27.8597 37.048ZM25.7433 39.7061C25.3327 40.7044 25.1637 41.7692 25.1572 42.8398L30.8714 42.8745C30.8744 42.3737 30.953 42.0623 31.0281 41.8796L25.7433 39.7061ZM25.1572 42.8398C25.1507 43.9194 25.3131 44.9968 25.7291 46.0082L31.0138 43.8346C30.9441 43.6651 30.8684 43.3664 30.8714 42.8745L25.1572 42.8398ZM25.7322 46.0158C26.171 47.0741 26.8767 47.9919 27.8634 48.6594L31.0652 43.9263C31.0616 43.9239 31.0611 43.9233 31.0622 43.9242C31.0632 43.9252 31.063 43.9253 31.0612 43.923C31.0589 43.92 31.0385 43.8942 31.0107 43.8271L25.7322 46.0158ZM27.8741 48.6666C28.9283 49.3728 30.1175 49.6424 31.2742 49.6499L31.3115 43.9358C31.1586 43.9348 31.0748 43.9171 31.0429 43.9083C31.0148 43.9006 31.0258 43.8999 31.0545 43.9191L27.8741 48.6666ZM31.2464 49.6496C32.2055 49.6652 33.21 49.4915 34.146 48.9916L31.454 43.9512C31.4988 43.9273 31.5237 43.9231 31.513 43.9253C31.4999 43.9281 31.4459 43.9378 31.3393 43.9361L31.2464 49.6496ZM34.1563 48.9862C35.076 48.4901 35.7944 47.762 36.2945 46.8773L31.3198 44.0655C31.3167 44.0711 31.3271 44.0517 31.3565 44.0225C31.3866 43.9927 31.4188 43.9702 31.4437 43.9567L34.1563 48.9862ZM36.2945 46.8773C36.7761 46.0253 37.0222 45.0943 37.1251 44.175L31.4463 43.5393C31.4064 43.8961 31.3335 44.0414 31.3198 44.0655L36.2945 46.8773ZM34.2857 41H32.2857V46.7143H34.2857V41ZM35.1429 43.8571V42.6571H29.4286V43.8571H35.1429ZM32.2857 45.5143H35.8714V39.8H32.2857V45.5143ZM33.0318 42.9727C33.0301 42.9579 33.0308 42.9602 33.0324 42.9854C33.0338 43.0091 33.0356 43.045 33.0373 43.0952L38.7484 42.9048C38.7426 42.7293 38.7323 42.5323 38.7111 42.3416L33.0318 42.9727ZM33.0374 43.0985C33.0397 43.1639 33.0412 43.2127 33.0421 43.2468C33.0426 43.2639 33.0428 43.2746 33.0429 43.2802C33.0431 43.288 33.0429 43.2805 33.0429 43.2643H38.7571C38.7571 43.1667 38.7525 43.0246 38.7483 42.9015L33.0374 43.0985ZM33.0429 43.2643C33.0429 43.8434 32.9335 44.2529 32.7848 44.5562L37.9152 47.0724C38.4998 45.8804 38.7571 44.5899 38.7571 43.2643H33.0429ZM32.7848 44.5562C32.6532 44.8245 32.4887 45.0007 32.2581 45.1419L35.2419 50.0153C36.4113 49.2993 37.3135 48.2993 37.9152 47.0724L32.7848 44.5562ZM32.2702 45.1345C32.1041 45.235 31.7936 45.3571 31.2071 45.3571V51.0714C32.6112 51.0714 33.9959 50.7697 35.2298 50.0227L32.2702 45.1345ZM39.2379 47.6929L37.744 50.1283L39.2379 47.6929ZM37.9237 46.2571L35.3642 47.527C35.3681 47.5349 35.3721 47.5429 35.3762 47.5508L37.9237 46.2571ZM37.9379 42.0143L40.4774 43.3237L40.4815 43.3156L37.9379 42.0143ZM39.2594 40.5857L40.7233 43.0393C40.7283 43.0363 40.7334 43.0333 40.7384 43.0302L39.2594 40.5857ZM43.2522 40.5929L44.7462 38.1574L44.7462 38.1574L43.2522 40.5929ZM44.5665 42.0286L42.019 43.3222V43.3222L44.5665 42.0286ZM44.5594 46.2643L42.0158 44.9629L42.0119 44.9706L44.5594 46.2643ZM43.2451 47.7L44.7241 50.1445C44.7291 50.1415 44.7341 50.1385 44.7391 50.1354L43.2451 47.7ZM42.8951 46.0643L40.5911 44.3747L40.5883 44.3785L42.8951 46.0643ZM42.8879 42.2071L40.6076 43.9286C40.6139 43.9369 40.6203 43.9452 40.6266 43.9535L42.8879 42.2071ZM40.0094 41.8214L41.6339 44.1718C41.6416 44.1664 41.6494 44.161 41.657 44.1556L40.0094 41.8214ZM39.2879 42.7571L41.943 43.8127L41.9472 43.8019L39.2879 42.7571ZM39.6094 46.0786L41.879 44.343L39.6094 46.0786ZM41.2451 45.3571C40.915 45.3571 40.781 45.2875 40.7319 45.2574L37.744 50.1283C38.8282 50.7934 40.0323 51.0714 41.2451 51.0714V45.3571ZM40.7319 45.2574C40.6284 45.1939 40.5488 45.1164 40.4712 44.9635L35.3762 47.5508C35.9175 48.6169 36.7142 49.4966 37.744 50.1283L40.7319 45.2574ZM40.4831 44.9873C40.4043 44.8285 40.3237 44.5684 40.3237 44.1357H34.6094C34.6094 45.303 34.8335 46.4573 35.3642 47.527L40.4831 44.9873ZM40.3237 44.1357C40.3237 43.7076 40.4053 43.4635 40.4774 43.3237L35.3985 40.7049C34.842 41.7841 34.6094 42.9543 34.6094 44.1357H40.3237ZM40.4815 43.3156C40.563 43.1563 40.6392 43.0895 40.7233 43.0393L37.7955 38.1321C36.7462 38.7581 35.9414 39.6437 35.3944 40.7129L40.4815 43.3156ZM40.7384 43.0302C40.798 42.9942 40.9332 42.9286 41.2451 42.9286V37.2143C40.0427 37.2143 38.8541 37.4915 37.7803 38.1412L40.7384 43.0302ZM41.2451 42.9286C41.5752 42.9286 41.7092 42.9982 41.7582 43.0283L44.7462 38.1574C43.6619 37.4923 42.4579 37.2143 41.2451 37.2143V42.9286ZM41.7582 43.0283C41.8618 43.0918 41.9414 43.1693 42.019 43.3222L47.114 40.7349C46.5726 39.6688 45.776 38.7891 44.7462 38.1574L41.7582 43.0283ZM42.019 43.3222C42.0942 43.4702 42.1737 43.7166 42.1737 44.1357H47.8879C47.8879 42.9643 47.6579 41.806 47.114 40.7349L42.019 43.3222ZM42.1737 44.1357C42.1737 44.5632 42.0923 44.8135 42.0158 44.9629L47.1029 47.5656C47.6551 46.4865 47.8879 45.3177 47.8879 44.1357H42.1737ZM42.0119 44.9706C41.9342 45.1236 41.8547 45.201 41.7511 45.2646L44.7391 50.1354C45.7688 49.5037 46.5655 48.624 47.1069 47.5579L42.0119 44.9706ZM41.766 45.2555C41.7119 45.2882 41.5738 45.3571 41.2451 45.3571V51.0714C42.4497 51.0714 43.6449 50.7975 44.7241 50.1445L41.766 45.2555ZM41.2451 49.6643C42.6858 49.6643 44.1895 49.1355 45.2019 47.75L40.5883 44.3785C40.6941 44.2337 40.8541 44.0991 41.0382 44.0161C41.2048 43.9411 41.2981 43.95 41.2451 43.95V49.6643ZM45.1991 47.7539C46.0111 46.6466 46.3022 45.3655 46.3022 44.1357H40.5879C40.5879 44.3087 40.5676 44.397 40.56 44.4236C40.554 44.4446 40.5588 44.4186 40.5911 44.3747L45.1991 47.7539ZM46.3022 44.1357C46.3022 42.9037 46.0158 41.5829 45.1493 40.4608L40.6266 43.9535C40.5714 43.882 40.5577 43.832 40.5609 43.843C40.566 43.8607 40.5879 43.9492 40.5879 44.1357H46.3022ZM45.1683 40.4857C44.1523 39.1399 42.6713 38.6214 41.2451 38.6214V44.3357C41.2947 44.3357 41.2048 44.3439 41.0439 44.2725C40.8669 44.194 40.7118 44.0665 40.6076 43.9286L45.1683 40.4857ZM41.2451 38.6214C40.3101 38.6214 39.2804 38.8387 38.3617 39.4872L41.657 44.1556C41.5303 44.2451 41.4107 44.2937 41.325 44.3174C41.2443 44.3398 41.2107 44.3357 41.2451 44.3357V38.6214ZM38.3849 39.4711C37.5512 40.0472 36.9735 40.8347 36.6287 41.7124L41.9472 43.8019C41.9362 43.83 41.9074 43.8918 41.8489 43.9677C41.789 44.0454 41.7149 44.1158 41.6339 44.1718L38.3849 39.4711ZM36.633 41.7015C36.3153 42.5006 36.1951 43.3315 36.1951 44.1357H41.9094C41.9094 43.8923 41.9463 43.8042 41.9429 43.8127L36.633 41.7015ZM36.1951 44.1357C36.1951 45.3698 36.4801 46.69 37.3398 47.8141L41.879 44.343C41.931 44.4111 41.9425 44.4567 41.938 44.441C41.9316 44.4187 41.9094 44.3258 41.9094 44.1357H36.1951ZM37.3398 47.8141C38.3507 49.1361 39.8127 49.6643 41.2451 49.6643V43.95C41.2057 43.95 41.2992 43.9437 41.4594 44.0151C41.634 44.0928 41.7819 44.2161 41.879 44.343L37.3398 47.8141ZM47.3147 48H44.4576C44.4576 49.578 45.7368 50.8571 47.3147 50.8571V48ZM47.3147 37.5V34.6429C45.7368 34.6429 44.4576 35.922 44.4576 37.5H47.3147ZM48.8076 37.5H51.6647C51.6647 35.922 50.3855 34.6429 48.8076 34.6429V37.5ZM48.8076 48V50.8571C50.3855 50.8571 51.6647 49.578 51.6647 48H48.8076ZM50.1719 48V37.5H44.4576V48H50.1719ZM47.3147 40.3571H48.8076V34.6429H47.3147V40.3571ZM45.9504 37.5V48H51.6647V37.5H45.9504ZM48.8076 45.1429H47.3147V50.8571H48.8076V45.1429ZM52.724 47.6786L51.1044 50.0324L51.1145 50.0392L52.724 47.6786ZM51.5169 46.2214L48.9151 47.4022C48.9188 47.4103 48.9225 47.4183 48.9262 47.4264L51.5169 46.2214ZM51.524 42.0571L54.111 43.2698L54.1146 43.2621L51.524 42.0571ZM52.7383 40.6071L54.3331 42.9778L54.3379 42.9745L52.7383 40.6071ZM56.4526 40.6071L54.7814 42.9245C54.7898 42.9306 54.7982 42.9366 54.8066 42.9426L56.4526 40.6071ZM57.5811 42.0571L54.9384 43.1429C54.9407 43.1488 54.9432 43.1546 54.9456 43.1604L57.5811 42.0571ZM57.5811 46.2143L60.2167 47.3175L57.5811 46.2143ZM56.4454 47.6786L58.1061 50.0035C58.111 50 58.1158 49.9966 58.1207 49.9931L56.4454 47.6786ZM56.674 45.55L59.3717 46.4911V46.4911L56.674 45.55ZM56.6669 42.7214L53.9691 43.6625C53.9724 43.6718 53.9757 43.6811 53.979 43.6903L56.6669 42.7214ZM55.9954 41.7643L54.2639 44.0369C54.2696 44.0413 54.2754 44.0457 54.2811 44.05L55.9954 41.7643ZM53.624 41.7857L51.8935 39.5123V39.5123L53.624 41.7857ZM52.9097 42.7643L50.2422 41.7407C50.2387 41.7498 50.2353 41.7588 50.2319 41.7679L52.9097 42.7643ZM52.9097 45.5214L50.2282 46.5077C50.2328 46.5202 50.2375 46.5326 50.2422 46.545L52.9097 45.5214ZM53.6097 46.5L51.846 48.7478C51.8516 48.7522 51.8571 48.7565 51.8627 48.7608L53.6097 46.5ZM56.8883 48H54.0311C54.0311 49.578 55.3103 50.8571 56.8883 50.8571V48ZM56.8883 42.45H59.7454C59.7454 40.872 58.4662 39.5929 56.8883 39.5929V42.45ZM56.7169 42.45H53.8597C53.8597 44.028 55.1389 45.3071 56.7169 45.3071V42.45ZM56.7169 37.7143V34.8571C55.1389 34.8571 53.8597 36.1363 53.8597 37.7143H56.7169ZM58.2169 37.7143H61.074C61.074 36.1363 59.7948 34.8571 58.2169 34.8571V37.7143ZM58.2169 48V50.8571C59.7948 50.8571 61.074 49.578 61.074 48H58.2169ZM54.5883 45.3571C54.4662 45.3571 54.3993 45.3422 54.372 45.3343C54.3477 45.3273 54.3392 45.3218 54.3335 45.3179L51.1145 50.0392C52.1746 50.762 53.3748 51.0714 54.5883 51.0714V45.3571ZM54.3436 45.3248C54.2766 45.2787 54.1947 45.204 54.1075 45.0165L48.9262 47.4264C49.4104 48.4674 50.1333 49.3641 51.1044 50.0323L54.3436 45.3248ZM54.1186 45.0406C54.0273 44.8394 53.9526 44.5547 53.9526 44.1357H48.2383C48.2383 45.2596 48.4445 46.3653 48.9151 47.4022L54.1186 45.0406ZM53.9526 44.1357C53.9526 43.7147 54.0285 43.4459 54.111 43.2698L48.937 40.8445C48.4481 41.8875 48.2383 43.0044 48.2383 44.1357H53.9526ZM54.1146 43.2621C54.1975 43.084 54.2729 43.0183 54.3331 42.9778L51.1435 38.2365C50.1561 38.9008 49.422 39.8017 48.9334 40.8522L54.1146 43.2621ZM54.3379 42.9745C54.3467 42.9686 54.3591 42.9612 54.3879 42.953C54.4195 42.9439 54.4908 42.9286 54.6169 42.9286V37.2143C53.4023 37.2143 52.2014 37.5217 51.1387 38.2397L54.3379 42.9745ZM54.6169 42.9286C54.7482 42.9286 54.8099 42.9446 54.8218 42.9481C54.8278 42.9498 54.8245 42.9494 54.8148 42.9447C54.8049 42.9399 54.7931 42.933 54.7814 42.9245L58.1238 38.2897C57.0537 37.518 55.8265 37.2143 54.6169 37.2143V42.9286ZM54.8066 42.9426C54.8242 42.9549 54.8742 42.9867 54.9384 43.1429L60.2239 40.9713C59.7833 39.899 59.0809 38.9641 58.0985 38.2717L54.8066 42.9426ZM54.9456 43.1604C55.0352 43.3744 55.1097 43.6837 55.1097 44.1357H60.824C60.824 43.0449 60.6414 41.9685 60.2167 40.9539L54.9456 43.1604ZM55.1097 44.1357C55.1097 44.5877 55.0352 44.8971 54.9456 45.111L60.2167 47.3175C60.6414 46.3029 60.824 45.2266 60.824 44.1357H55.1097ZM54.9456 45.111C54.8746 45.2807 54.8113 45.3343 54.7702 45.3641L58.1207 49.9931C59.0795 49.299 59.7734 48.3765 60.2167 47.3175L54.9456 45.111ZM54.7847 45.3536C54.811 45.3348 54.8277 45.3313 54.8143 45.3351C54.7964 45.3403 54.7276 45.3571 54.5883 45.3571V51.0714C55.7994 51.0714 57.0306 50.7718 58.1061 50.0035L54.7847 45.3536ZM54.7954 49.7214C55.7399 49.7214 56.7919 49.4919 57.7153 48.7958L54.2755 44.2328C54.417 44.1261 54.5563 44.0651 54.6633 44.0339C54.7644 44.0044 54.8165 44.0071 54.7954 44.0071V49.7214ZM57.7153 48.7958C58.5288 48.1825 59.0656 47.3685 59.3717 46.4911L53.9763 44.6089C53.9831 44.5893 54.0065 44.5309 54.0606 44.4539C54.1162 44.3749 54.1895 44.2977 54.2755 44.2328L57.7153 48.7958ZM59.3717 46.4911C59.6412 45.7186 59.7454 44.9186 59.7454 44.1357H54.0311C54.0311 44.4195 53.9925 44.5623 53.9763 44.6089L59.3717 46.4911ZM59.7454 44.1357C59.7454 43.3439 59.6363 42.5339 59.3547 41.7526L53.979 43.6903C53.9926 43.728 54.0311 43.8609 54.0311 44.1357H59.7454ZM59.3646 41.7804C59.0615 40.9115 58.5294 40.0934 57.7097 39.4786L54.2811 44.05C54.187 43.9794 54.1098 43.8971 54.0528 43.8158C53.9975 43.737 53.9748 43.6787 53.9691 43.6625L59.3646 41.7804ZM57.727 39.4916C56.821 38.8013 55.7862 38.5643 54.8454 38.5643V44.2786C54.8472 44.2786 54.7797 44.2789 54.6666 44.2452C54.5478 44.2098 54.4046 44.1442 54.2639 44.0369L57.727 39.4916ZM54.8454 38.5643C53.8751 38.5643 52.8174 38.809 51.8935 39.5123L55.3545 44.0592C55.2239 44.1586 55.0919 44.2186 54.9852 44.2505C54.8842 44.2806 54.8297 44.2786 54.8454 44.2786V38.5643ZM51.8935 39.5123C51.1128 40.1065 50.571 40.8838 50.2422 41.7407L55.5772 43.7879C55.5732 43.7982 55.5556 43.8399 55.5139 43.897C55.4712 43.9555 55.4165 44.012 55.3545 44.0592L51.8935 39.5123ZM50.2319 41.7679C49.9441 42.5416 49.824 43.3428 49.824 44.1357H55.5383C55.5383 43.9191 55.5706 43.8061 55.5875 43.7607L50.2319 41.7679ZM49.824 44.1357C49.824 44.9307 49.9432 45.7329 50.2282 46.5077L55.5912 44.5351C55.5714 44.4813 55.5383 44.3598 55.5383 44.1357H49.824ZM50.2422 46.545C50.5626 47.3799 51.0847 48.1505 51.846 48.7478L55.3734 44.2522C55.4363 44.3016 55.4882 44.3576 55.5264 44.4109C55.5445 44.4363 55.5572 44.4578 55.5656 44.4735C55.5697 44.4812 55.5726 44.4873 55.5745 44.4915C55.5764 44.4957 55.5772 44.4979 55.5772 44.4979L50.2422 46.545ZM51.8627 48.7608C52.7712 49.4628 53.8168 49.7214 54.7954 49.7214V44.0071C54.7995 44.0071 54.8691 44.0077 54.9809 44.0421C55.0981 44.0781 55.2309 44.142 55.3567 44.2392L51.8627 48.7608ZM59.7454 48V42.45H54.0311V48H59.7454ZM56.8883 39.5929H56.7169V45.3071H56.8883V39.5929ZM59.574 42.45V37.7143H53.8597V42.45H59.574ZM56.7169 40.5714H58.2169V34.8571H56.7169V40.5714ZM55.3597 37.7143V48H61.074V37.7143H55.3597ZM58.2169 45.1429H56.8883V50.8571H58.2169V45.1429Z" fill="#E89B05" mask="url(#path-9-outside-1_108_19690)"/>
<defs>
<filter id="filter0_ii_108_19690" x="20.7144" y="31.7857" width="43.2167" height="22.1429" filterUnits="userSpaceOnUse" color-interpolation-filters="sRGB">
<feFlood flood-opacity="0" result="BackgroundImageFix"/>
<feBlend mode="normal" in="SourceGraphic" in2="BackgroundImageFix" result="shape"/>
<feColorMatrix in="SourceAlpha" type="matrix" values="0 0 0 0 0 0 0 0 0 0 0 0 0 0 0 0 0 0 127 0" result="hardAlpha"/>
<feOffset dx="5.71429" dy="5.71429"/>
<feGaussianBlur stdDeviation="2.85714"/>
<feComposite in2="hardAlpha" operator="arithmetic" k2="-1" k3="1"/>
<feColorMatrix type="matrix" values="0 0 0 0 0 0 0 0 0 0 0 0 0 0 0 0 0 0 0.25 0"/>
<feBlend mode="normal" in2="shape" result="effect1_innerShadow_108_19690"/>
<feColorMatrix in="SourceAlpha" type="matrix" values="0 0 0 0 0 0 0 0 0 0 0 0 0 0 0 0 0 0 127 0" result="hardAlpha"/>
<feOffset dx="-5.71429" dy="-5.71429"/>
<feGaussianBlur stdDeviation="5.71429"/>
<feComposite in2="hardAlpha" operator="arithmetic" k2="-1" k3="1"/>
<feColorMatrix type="matrix" values="0 0 0 0 0.983333 0 0 0 0 0.954653 0 0 0 0 0.954653 0 0 0 0.25 0"/>
<feBlend mode="normal" in2="effect1_innerShadow_108_19690" result="effect2_innerShadow_108_19690"/>
</filter>
</defs>
</svg>
