<svg width="96" height="96" viewBox="0 0 96 96" fill="none" xmlns="http://www.w3.org/2000/svg">
<path d="M92 48C92 72.3005 72.3005 92 48 92C23.6995 92 4 72.3005 4 48C4 23.6995 23.6995 4 48 4C72.3005 4 92 23.6995 92 48Z" fill="#FFBB0D"/>
<path fill-rule="evenodd" clip-rule="evenodd" d="M95.2597 48C95.2597 74.1006 74.101 95.2592 48.0005 95.2592C21.8999 95.2592 0.741211 74.1006 0.741211 48C0.741211 21.8994 21.8999 0.740723 48.0005 0.740723C74.101 0.740723 95.2597 21.8994 95.2597 48ZM48.0005 92C72.301 92 92.0005 72.3005 92.0005 48C92.0005 23.6995 72.301 3.99998 48.0005 3.99998C23.6999 3.99998 4.00047 23.6995 4.00047 48C4.00047 72.3005 23.6999 92 48.0005 92Z" fill="#E89B05"/>
<path fill-rule="evenodd" clip-rule="evenodd" d="M7.25951 49.6296C6.35949 49.6296 5.62988 48.9 5.62988 48C5.62989 24.5995 24.5997 5.62964 48.0003 5.62964C48.9003 5.62964 49.6299 6.35925 49.6299 7.25927C49.6299 8.15929 48.9003 8.8889 48.0003 8.8889C26.3998 8.88889 8.88914 26.3995 8.88914 48C8.88914 48.9 8.15953 49.6296 7.25951 49.6296Z" fill="#E8AA0A"/>
<path fill-rule="evenodd" clip-rule="evenodd" d="M88.7415 46.3704C89.6415 46.3704 90.3711 47.1 90.3711 48C90.3711 71.4005 71.4012 90.3704 48.0007 90.3704C47.1007 90.3704 46.3711 89.6408 46.3711 88.7407C46.3711 87.8407 47.1007 87.1111 48.0007 87.1111C69.6012 87.1111 87.1118 69.6005 87.1118 48C87.1118 47.1 87.8414 46.3704 88.7415 46.3704Z" fill="#E8AA0A"/>
<path d="M80.5934 48C80.5934 66.0004 66.0012 80.5926 48.0008 80.5926C30.0004 80.5926 15.4082 66.0004 15.4082 48C15.4082 29.9996 30.0004 15.4074 48.0008 15.4074C66.0012 15.4074 80.5934 29.9996 80.5934 48Z" fill="#FFDD28"/>
<path fill-rule="evenodd" clip-rule="evenodd" d="M83.8521 48C83.8521 67.8004 67.8007 83.8518 48.0003 83.8518C28.1999 83.8518 12.1484 67.8004 12.1484 48C12.1484 28.1996 28.1999 12.1481 48.0003 12.1481C67.8007 12.1481 83.8521 28.1996 83.8521 48ZM48.0003 80.5926C66.0007 80.5926 80.5929 66.0004 80.5929 48C80.5929 29.9996 66.0007 15.4074 48.0003 15.4074C29.9999 15.4074 15.4077 29.9996 15.4077 48C15.4077 66.0004 29.9999 80.5926 48.0003 80.5926Z" fill="#E89B05"/>
<path fill-rule="evenodd" clip-rule="evenodd" d="M48.0009 75.7037C63.3012 75.7037 75.7046 63.3003 75.7046 48C75.7046 47.1 76.4342 46.3704 77.3342 46.3704C78.2343 46.3704 78.9639 47.1 78.9639 48C78.9639 65.1004 65.1013 78.963 48.0009 78.9629C47.1009 78.9629 46.3713 78.2333 46.3713 77.3333C46.3713 76.4333 47.1009 75.7037 48.0009 75.7037Z" fill="#ECC704"/>
<path fill-rule="evenodd" clip-rule="evenodd" d="M48.0001 20.2962C32.6997 20.2962 20.2964 32.6996 20.2964 48C20.2964 48.9 19.5668 49.6296 18.6667 49.6296C17.7667 49.6296 17.0371 48.9 17.0371 48C17.0371 30.8996 30.8997 17.037 48.0001 17.037C48.9001 17.037 49.6297 17.7666 49.6297 18.6666C49.6297 19.5666 48.9001 20.2962 48.0001 20.2962Z" fill="#FFEF9C"/>
<mask id="path-9-outside-1_1117_12231" maskUnits="userSpaceOnUse" x="15" y="30" width="66" height="35" fill="black">
<rect fill="white" x="15" y="30" width="66" height="35"/>
<path d="M36.5994 44.2143C35.909 44.2143 35.2733 44.0952 34.6923 43.8571C34.1113 43.6143 33.6066 43.2619 33.178 42.8C32.7494 42.3381 32.4161 41.7762 32.178 41.1143C31.9399 40.4524 31.8209 39.7 31.8209 38.8571C31.8209 37.7476 32.0233 36.7952 32.428 36C32.8328 35.2 33.3947 34.5857 34.1137 34.1571C34.8328 33.7238 35.6613 33.5071 36.5994 33.5071C37.809 33.5071 38.7733 33.7881 39.4923 34.35C40.2161 34.9119 40.709 35.6881 40.9709 36.6786L39.4566 36.95C39.2471 36.3357 38.909 35.8452 38.4423 35.4786C37.9756 35.1119 37.3899 34.9262 36.6852 34.9214C35.9566 34.9167 35.3494 35.0786 34.8637 35.4071C34.3828 35.7357 34.0209 36.1976 33.778 36.7929C33.5352 37.3833 33.4113 38.0714 33.4066 38.8571C33.4018 39.6429 33.5209 40.331 33.7637 40.9214C34.0066 41.5071 34.3709 41.9643 34.8566 42.2929C35.3471 42.6214 35.9566 42.7881 36.6852 42.7929C37.2709 42.8024 37.7733 42.6952 38.1923 42.4714C38.6161 42.2429 38.9518 41.9095 39.1994 41.4714C39.4471 41.0333 39.6066 40.4952 39.678 39.8571H37.678V38.6571H41.2637C41.2733 38.7429 41.2804 38.8571 41.2852 39C41.2899 39.1381 41.2923 39.2262 41.2923 39.2643C41.2923 40.2167 41.109 41.0667 40.7423 41.8143C40.3756 42.5619 39.8423 43.15 39.1423 43.5786C38.4423 44.0024 37.5947 44.2143 36.5994 44.2143ZM46.6374 44.2143C45.866 44.2143 45.1969 44.0405 44.6302 43.6929C44.0636 43.3452 43.6255 42.8667 43.316 42.2571C43.0112 41.6429 42.8588 40.9357 42.8588 40.1357C42.8588 39.331 43.016 38.6238 43.3302 38.0143C43.6445 37.4 44.085 36.9238 44.6517 36.5857C45.2183 36.2429 45.8802 36.0714 46.6374 36.0714C47.4088 36.0714 48.0779 36.2452 48.6445 36.5929C49.2112 36.9405 49.6493 37.419 49.9588 38.0286C50.2683 38.6381 50.4231 39.3405 50.4231 40.1357C50.4231 40.9405 50.266 41.65 49.9517 42.2643C49.6422 42.8738 49.2041 43.3524 48.6374 43.7C48.0707 44.0429 47.4041 44.2143 46.6374 44.2143ZM46.6374 42.8071C47.3755 42.8071 47.9255 42.5595 48.2874 42.0643C48.6541 41.5643 48.8374 40.9214 48.8374 40.1357C48.8374 39.331 48.6517 38.6881 48.2802 38.2071C47.9136 37.7214 47.366 37.4786 46.6374 37.4786C46.1374 37.4786 45.7255 37.5929 45.4017 37.8214C45.0779 38.0452 44.8374 38.3571 44.6802 38.7571C44.5231 39.1524 44.4445 39.6119 44.4445 40.1357C44.4445 40.9452 44.6302 41.5929 45.0017 42.0786C45.3731 42.5643 45.9183 42.8071 46.6374 42.8071ZM52.707 44V33.5H54.1999V44H52.707ZM59.9806 44.2143C59.2615 44.2143 58.6401 44.0357 58.1163 43.6786C57.5972 43.3214 57.1949 42.8357 56.9092 42.2214C56.6282 41.6024 56.4877 40.9071 56.4877 40.1357C56.4877 39.3595 56.6306 38.6667 56.9163 38.0571C57.202 37.4429 57.6068 36.9595 58.1306 36.6071C58.6592 36.25 59.2853 36.0714 60.0092 36.0714C60.7377 36.0714 61.3496 36.25 61.8449 36.6071C62.3449 36.9595 62.7211 37.4429 62.9734 38.0571C63.2306 38.6714 63.3592 39.3643 63.3592 40.1357C63.3592 40.9071 63.2306 41.6 62.9734 42.2143C62.7163 42.8286 62.3377 43.3167 61.8377 43.6786C61.3377 44.0357 60.7187 44.2143 59.9806 44.2143ZM60.1877 42.8643C60.6782 42.8643 61.0782 42.7476 61.3877 42.5143C61.6972 42.281 61.9234 41.9595 62.0663 41.55C62.2092 41.1405 62.2806 40.669 62.2806 40.1357C62.2806 39.6024 62.2068 39.131 62.0592 38.7214C61.9163 38.3119 61.6925 37.9929 61.3877 37.7643C61.0877 37.5357 60.7044 37.4214 60.2377 37.4214C59.7425 37.4214 59.3353 37.5429 59.0163 37.7857C58.6972 38.0286 58.4592 38.3548 58.302 38.7643C58.1496 39.1738 58.0734 39.631 58.0734 40.1357C58.0734 40.6452 58.1496 41.1071 58.302 41.5214C58.4592 41.931 58.6925 42.2571 59.002 42.5C59.3163 42.7429 59.7115 42.8643 60.1877 42.8643ZM62.2806 44V38.45H62.1092V33.7143H63.6092V44H62.2806ZM22.7052 61.2143C22.0147 61.2143 21.379 61.0952 20.798 60.8571C20.2171 60.6143 19.7123 60.2619 19.2838 59.8C18.8552 59.3381 18.5219 58.7762 18.2838 58.1143C18.0457 57.4524 17.9266 56.7 17.9266 55.8571C17.9266 54.7476 18.129 53.7952 18.5338 53C18.9385 52.2 19.5004 51.5857 20.2195 51.1571C20.9385 50.7238 21.7671 50.5071 22.7052 50.5071C23.9147 50.5071 24.879 50.7881 25.598 51.35C26.3219 51.9119 26.8147 52.6881 27.0766 53.6786L25.5623 53.95C25.3528 53.3357 25.0147 52.8452 24.548 52.4786C24.0814 52.1119 23.4957 51.9262 22.7909 51.9214C22.0623 51.9167 21.4552 52.0786 20.9695 52.4071C20.4885 52.7357 20.1266 53.1976 19.8838 53.7929C19.6409 54.3833 19.5171 55.0714 19.5123 55.8571C19.5076 56.6429 19.6266 57.331 19.8695 57.9214C20.1123 58.5071 20.4766 58.9643 20.9623 59.2929C21.4528 59.6214 22.0623 59.7881 22.7909 59.7929C23.3766 59.8024 23.879 59.6952 24.298 59.4714C24.7219 59.2429 25.0576 58.9095 25.3052 58.4714C25.5528 58.0333 25.7123 57.4952 25.7838 56.8571H23.7838V55.6571H27.3695C27.379 55.7429 27.3861 55.8571 27.3909 56C27.3957 56.1381 27.398 56.2262 27.398 56.2643C27.398 57.2167 27.2147 58.0667 26.848 58.8143C26.4814 59.5619 25.948 60.15 25.248 60.5786C24.548 61.0024 23.7004 61.2143 22.7052 61.2143ZM31.5717 61.2143C31.0003 61.2143 30.5217 61.1095 30.136 60.9C29.7503 60.6857 29.4574 60.4048 29.2574 60.0571C29.0622 59.7048 28.9646 59.319 28.9646 58.9C28.9646 58.5095 29.0336 58.1667 29.1717 57.8714C29.3098 57.5762 29.5146 57.3262 29.786 57.1214C30.0574 56.9119 30.3908 56.7429 30.786 56.6143C31.1288 56.5143 31.5169 56.4262 31.9503 56.35C32.3836 56.2738 32.8384 56.2024 33.3146 56.1357C33.7955 56.069 34.2717 56.0024 34.7431 55.9357L34.2003 56.2357C34.2098 55.631 34.0812 55.1833 33.8146 54.8929C33.5527 54.5976 33.1003 54.45 32.4574 54.45C32.0527 54.45 31.6812 54.5452 31.3431 54.7357C31.005 54.9214 30.7693 55.231 30.636 55.6643L29.2431 55.2357C29.4336 54.5738 29.7955 54.0476 30.3288 53.6571C30.8669 53.2667 31.5812 53.0714 32.4717 53.0714C33.1622 53.0714 33.7622 53.1905 34.2717 53.4286C34.786 53.6619 35.1622 54.0333 35.4003 54.5429C35.5241 54.7952 35.6003 55.0619 35.6288 55.3429C35.6574 55.6238 35.6717 55.9262 35.6717 56.25V61H34.3503V59.2357L34.6074 59.4643C34.2884 60.0548 33.8812 60.4952 33.386 60.7857C32.8955 61.0714 32.2908 61.2143 31.5717 61.2143ZM31.836 59.9929C32.2598 59.9929 32.6241 59.919 32.9288 59.7714C33.2336 59.619 33.4788 59.4262 33.6646 59.1929C33.8503 58.9595 33.9717 58.7167 34.0288 58.4643C34.1098 58.2357 34.155 57.9786 34.1646 57.6929C34.1788 57.4071 34.186 57.1786 34.186 57.0071L34.6717 57.1857C34.2003 57.2571 33.7717 57.3214 33.386 57.3786C33.0003 57.4357 32.6503 57.4929 32.336 57.55C32.0265 57.6024 31.7503 57.6667 31.5074 57.7429C31.3027 57.8143 31.1193 57.9 30.9574 58C30.8003 58.1 30.6741 58.2214 30.5788 58.3643C30.4884 58.5071 30.4431 58.681 30.4431 58.8857C30.4431 59.0857 30.4931 59.2714 30.5931 59.4429C30.6931 59.6095 30.8455 59.7429 31.0503 59.8429C31.255 59.9429 31.5169 59.9929 31.836 59.9929ZM47.3408 61L47.3479 56.1929C47.3479 55.6357 47.2051 55.2024 46.9194 54.8929C46.6337 54.5786 46.2575 54.4214 45.7908 54.4214C45.5051 54.4214 45.2432 54.4881 45.0051 54.6214C44.7717 54.75 44.5813 54.9452 44.4336 55.2071C44.2908 55.4643 44.2194 55.7881 44.2194 56.1786L43.4979 55.8143C43.4884 55.2714 43.6027 54.7952 43.8408 54.3857C44.0836 53.9762 44.4122 53.6595 44.8265 53.4357C45.2408 53.2071 45.7051 53.0929 46.2194 53.0929C47.0527 53.0929 47.6979 53.3429 48.1551 53.8429C48.6122 54.3429 48.8408 55.0071 48.8408 55.8357L48.8337 61H47.3408ZM38.0908 61V53.2857H39.4194V55.5143H39.5908V61H38.0908ZM42.7194 61L42.7265 56.2214C42.7265 55.6595 42.5836 55.219 42.2979 54.9C42.017 54.581 41.6384 54.4214 41.1622 54.4214C40.6908 54.4214 40.3098 54.5833 40.0194 54.9071C39.7336 55.231 39.5908 55.6548 39.5908 56.1786L38.8765 55.7214C38.8765 55.2167 38.9979 54.7667 39.2408 54.3714C39.4836 53.9762 39.8122 53.6643 40.2265 53.4357C40.6408 53.2071 41.1098 53.0929 41.6336 53.0929C42.1813 53.0929 42.6479 53.2095 43.0336 53.4429C43.4194 53.6714 43.7122 53.9929 43.9122 54.4071C44.117 54.8214 44.2194 55.3024 44.2194 55.85L44.2122 61H42.7194ZM54.8885 61.2143C54.1504 61.2143 53.5313 61.0357 53.0313 60.6786C52.5313 60.3167 52.1527 59.8286 51.8956 59.2143C51.6384 58.6 51.5099 57.9071 51.5099 57.1357C51.5099 56.3643 51.6361 55.6714 51.8884 55.0571C52.1456 54.4429 52.5218 53.9595 53.017 53.6071C53.517 53.25 54.1313 53.0714 54.8599 53.0714C55.5837 53.0714 56.2075 53.25 56.7313 53.6071C57.2599 53.9595 57.667 54.4429 57.9527 55.0571C58.2385 55.6667 58.3813 56.3595 58.3813 57.1357C58.3813 57.9071 58.2385 58.6024 57.9527 59.2214C57.6718 59.8357 57.2694 60.3214 56.7456 60.6786C56.2265 61.0357 55.6075 61.2143 54.8885 61.2143ZM51.2599 61V50.7143H52.7599V55.45H52.5885V61H51.2599ZM54.6813 59.8643C55.1575 59.8643 55.5504 59.7429 55.8599 59.5C56.1742 59.2571 56.4075 58.931 56.5599 58.5214C56.717 58.1071 56.7956 57.6452 56.7956 57.1357C56.7956 56.631 56.717 56.1738 56.5599 55.7643C56.4075 55.3548 56.1718 55.0286 55.8527 54.7857C55.5337 54.5429 55.1265 54.4214 54.6313 54.4214C54.1646 54.4214 53.7789 54.5357 53.4742 54.7643C53.1742 54.9929 52.9504 55.3119 52.8027 55.7214C52.6599 56.131 52.5885 56.6024 52.5885 57.1357C52.5885 57.669 52.6599 58.1405 52.8027 58.55C52.9456 58.9595 53.1718 59.281 53.4813 59.5143C53.7908 59.7476 54.1908 59.8643 54.6813 59.8643ZM60.6727 61V50.5H62.1656V61H60.6727ZM68.3034 61.2143C67.5367 61.2143 66.8629 61.0476 66.282 60.7143C65.7058 60.3762 65.2558 59.9071 64.932 59.3071C64.6129 58.7024 64.4534 58.0024 64.4534 57.2071C64.4534 56.3643 64.6105 55.6333 64.9248 55.0143C65.2439 54.3952 65.6867 53.9167 66.2534 53.5786C66.8201 53.2405 67.4796 53.0714 68.232 53.0714C69.0177 53.0714 69.6867 53.2548 70.2391 53.6214C70.7915 53.9833 71.2034 54.5 71.4748 55.1714C71.751 55.8429 71.8605 56.6405 71.8034 57.5643H70.3105V57.0214C70.301 56.1262 70.1296 55.4643 69.7963 55.0357C69.4677 54.6071 68.9653 54.3929 68.2891 54.3929C67.5415 54.3929 66.9796 54.6286 66.6034 55.1C66.2272 55.5714 66.0391 56.2524 66.0391 57.1429C66.0391 57.9905 66.2272 58.6476 66.6034 59.1143C66.9796 59.5762 67.5224 59.8071 68.232 59.8071C68.6986 59.8071 69.101 59.7024 69.4391 59.4929C69.782 59.2786 70.0486 58.9738 70.2391 58.5786L71.7034 59.0429C71.4034 59.7333 70.9486 60.269 70.3391 60.65C69.7296 61.0262 69.051 61.2143 68.3034 61.2143ZM65.5534 57.5643V56.4H71.0605V57.5643H65.5534ZM73.9774 61V53.2857H75.306V55.1571L75.1203 54.9143C75.2155 54.6667 75.3393 54.4405 75.4917 54.2357C75.6441 54.0262 75.8203 53.8548 76.0203 53.7214C76.2155 53.5786 76.4322 53.469 76.6703 53.3929C76.9131 53.3119 77.1607 53.2643 77.4131 53.25C77.6655 53.231 77.9084 53.2429 78.1417 53.2857V54.6857C77.8893 54.619 77.6084 54.6 77.2988 54.6286C76.9941 54.6571 76.7131 54.7548 76.456 54.9214C76.2131 55.0786 76.0203 55.269 75.8774 55.4929C75.7393 55.7167 75.6393 55.9667 75.5774 56.2429C75.5155 56.5143 75.4845 56.8024 75.4845 57.1071V61H73.9774Z"/>
</mask>
<g filter="url(#filter0_ii_1117_12231)">
<path d="M36.5994 44.2143C35.909 44.2143 35.2733 44.0952 34.6923 43.8571C34.1113 43.6143 33.6066 43.2619 33.178 42.8C32.7494 42.3381 32.4161 41.7762 32.178 41.1143C31.9399 40.4524 31.8209 39.7 31.8209 38.8571C31.8209 37.7476 32.0233 36.7952 32.428 36C32.8328 35.2 33.3947 34.5857 34.1137 34.1571C34.8328 33.7238 35.6613 33.5071 36.5994 33.5071C37.809 33.5071 38.7733 33.7881 39.4923 34.35C40.2161 34.9119 40.709 35.6881 40.9709 36.6786L39.4566 36.95C39.2471 36.3357 38.909 35.8452 38.4423 35.4786C37.9756 35.1119 37.3899 34.9262 36.6852 34.9214C35.9566 34.9167 35.3494 35.0786 34.8637 35.4071C34.3828 35.7357 34.0209 36.1976 33.778 36.7929C33.5352 37.3833 33.4113 38.0714 33.4066 38.8571C33.4018 39.6429 33.5209 40.331 33.7637 40.9214C34.0066 41.5071 34.3709 41.9643 34.8566 42.2929C35.3471 42.6214 35.9566 42.7881 36.6852 42.7929C37.2709 42.8024 37.7733 42.6952 38.1923 42.4714C38.6161 42.2429 38.9518 41.9095 39.1994 41.4714C39.4471 41.0333 39.6066 40.4952 39.678 39.8571H37.678V38.6571H41.2637C41.2733 38.7429 41.2804 38.8571 41.2852 39C41.2899 39.1381 41.2923 39.2262 41.2923 39.2643C41.2923 40.2167 41.109 41.0667 40.7423 41.8143C40.3756 42.5619 39.8423 43.15 39.1423 43.5786C38.4423 44.0024 37.5947 44.2143 36.5994 44.2143ZM46.6374 44.2143C45.866 44.2143 45.1969 44.0405 44.6302 43.6929C44.0636 43.3452 43.6255 42.8667 43.316 42.2571C43.0112 41.6429 42.8588 40.9357 42.8588 40.1357C42.8588 39.331 43.016 38.6238 43.3302 38.0143C43.6445 37.4 44.085 36.9238 44.6517 36.5857C45.2183 36.2429 45.8802 36.0714 46.6374 36.0714C47.4088 36.0714 48.0779 36.2452 48.6445 36.5929C49.2112 36.9405 49.6493 37.419 49.9588 38.0286C50.2683 38.6381 50.4231 39.3405 50.4231 40.1357C50.4231 40.9405 50.266 41.65 49.9517 42.2643C49.6422 42.8738 49.2041 43.3524 48.6374 43.7C48.0707 44.0429 47.4041 44.2143 46.6374 44.2143ZM46.6374 42.8071C47.3755 42.8071 47.9255 42.5595 48.2874 42.0643C48.6541 41.5643 48.8374 40.9214 48.8374 40.1357C48.8374 39.331 48.6517 38.6881 48.2802 38.2071C47.9136 37.7214 47.366 37.4786 46.6374 37.4786C46.1374 37.4786 45.7255 37.5929 45.4017 37.8214C45.0779 38.0452 44.8374 38.3571 44.6802 38.7571C44.5231 39.1524 44.4445 39.6119 44.4445 40.1357C44.4445 40.9452 44.6302 41.5929 45.0017 42.0786C45.3731 42.5643 45.9183 42.8071 46.6374 42.8071ZM52.707 44V33.5H54.1999V44H52.707ZM59.9806 44.2143C59.2615 44.2143 58.6401 44.0357 58.1163 43.6786C57.5972 43.3214 57.1949 42.8357 56.9092 42.2214C56.6282 41.6024 56.4877 40.9071 56.4877 40.1357C56.4877 39.3595 56.6306 38.6667 56.9163 38.0571C57.202 37.4429 57.6068 36.9595 58.1306 36.6071C58.6592 36.25 59.2853 36.0714 60.0092 36.0714C60.7377 36.0714 61.3496 36.25 61.8449 36.6071C62.3449 36.9595 62.7211 37.4429 62.9734 38.0571C63.2306 38.6714 63.3592 39.3643 63.3592 40.1357C63.3592 40.9071 63.2306 41.6 62.9734 42.2143C62.7163 42.8286 62.3377 43.3167 61.8377 43.6786C61.3377 44.0357 60.7187 44.2143 59.9806 44.2143ZM60.1877 42.8643C60.6782 42.8643 61.0782 42.7476 61.3877 42.5143C61.6972 42.281 61.9234 41.9595 62.0663 41.55C62.2092 41.1405 62.2806 40.669 62.2806 40.1357C62.2806 39.6024 62.2068 39.131 62.0592 38.7214C61.9163 38.3119 61.6925 37.9929 61.3877 37.7643C61.0877 37.5357 60.7044 37.4214 60.2377 37.4214C59.7425 37.4214 59.3353 37.5429 59.0163 37.7857C58.6972 38.0286 58.4592 38.3548 58.302 38.7643C58.1496 39.1738 58.0734 39.631 58.0734 40.1357C58.0734 40.6452 58.1496 41.1071 58.302 41.5214C58.4592 41.931 58.6925 42.2571 59.002 42.5C59.3163 42.7429 59.7115 42.8643 60.1877 42.8643ZM62.2806 44V38.45H62.1092V33.7143H63.6092V44H62.2806ZM22.7052 61.2143C22.0147 61.2143 21.379 61.0952 20.798 60.8571C20.2171 60.6143 19.7123 60.2619 19.2838 59.8C18.8552 59.3381 18.5219 58.7762 18.2838 58.1143C18.0457 57.4524 17.9266 56.7 17.9266 55.8571C17.9266 54.7476 18.129 53.7952 18.5338 53C18.9385 52.2 19.5004 51.5857 20.2195 51.1571C20.9385 50.7238 21.7671 50.5071 22.7052 50.5071C23.9147 50.5071 24.879 50.7881 25.598 51.35C26.3219 51.9119 26.8147 52.6881 27.0766 53.6786L25.5623 53.95C25.3528 53.3357 25.0147 52.8452 24.548 52.4786C24.0814 52.1119 23.4957 51.9262 22.7909 51.9214C22.0623 51.9167 21.4552 52.0786 20.9695 52.4071C20.4885 52.7357 20.1266 53.1976 19.8838 53.7929C19.6409 54.3833 19.5171 55.0714 19.5123 55.8571C19.5076 56.6429 19.6266 57.331 19.8695 57.9214C20.1123 58.5071 20.4766 58.9643 20.9623 59.2929C21.4528 59.6214 22.0623 59.7881 22.7909 59.7929C23.3766 59.8024 23.879 59.6952 24.298 59.4714C24.7219 59.2429 25.0576 58.9095 25.3052 58.4714C25.5528 58.0333 25.7123 57.4952 25.7838 56.8571H23.7838V55.6571H27.3695C27.379 55.7429 27.3861 55.8571 27.3909 56C27.3957 56.1381 27.398 56.2262 27.398 56.2643C27.398 57.2167 27.2147 58.0667 26.848 58.8143C26.4814 59.5619 25.948 60.15 25.248 60.5786C24.548 61.0024 23.7004 61.2143 22.7052 61.2143ZM31.5717 61.2143C31.0003 61.2143 30.5217 61.1095 30.136 60.9C29.7503 60.6857 29.4574 60.4048 29.2574 60.0571C29.0622 59.7048 28.9646 59.319 28.9646 58.9C28.9646 58.5095 29.0336 58.1667 29.1717 57.8714C29.3098 57.5762 29.5146 57.3262 29.786 57.1214C30.0574 56.9119 30.3908 56.7429 30.786 56.6143C31.1288 56.5143 31.5169 56.4262 31.9503 56.35C32.3836 56.2738 32.8384 56.2024 33.3146 56.1357C33.7955 56.069 34.2717 56.0024 34.7431 55.9357L34.2003 56.2357C34.2098 55.631 34.0812 55.1833 33.8146 54.8929C33.5527 54.5976 33.1003 54.45 32.4574 54.45C32.0527 54.45 31.6812 54.5452 31.3431 54.7357C31.005 54.9214 30.7693 55.231 30.636 55.6643L29.2431 55.2357C29.4336 54.5738 29.7955 54.0476 30.3288 53.6571C30.8669 53.2667 31.5812 53.0714 32.4717 53.0714C33.1622 53.0714 33.7622 53.1905 34.2717 53.4286C34.786 53.6619 35.1622 54.0333 35.4003 54.5429C35.5241 54.7952 35.6003 55.0619 35.6288 55.3429C35.6574 55.6238 35.6717 55.9262 35.6717 56.25V61H34.3503V59.2357L34.6074 59.4643C34.2884 60.0548 33.8812 60.4952 33.386 60.7857C32.8955 61.0714 32.2908 61.2143 31.5717 61.2143ZM31.836 59.9929C32.2598 59.9929 32.6241 59.919 32.9288 59.7714C33.2336 59.619 33.4788 59.4262 33.6646 59.1929C33.8503 58.9595 33.9717 58.7167 34.0288 58.4643C34.1098 58.2357 34.155 57.9786 34.1646 57.6929C34.1788 57.4071 34.186 57.1786 34.186 57.0071L34.6717 57.1857C34.2003 57.2571 33.7717 57.3214 33.386 57.3786C33.0003 57.4357 32.6503 57.4929 32.336 57.55C32.0265 57.6024 31.7503 57.6667 31.5074 57.7429C31.3027 57.8143 31.1193 57.9 30.9574 58C30.8003 58.1 30.6741 58.2214 30.5788 58.3643C30.4884 58.5071 30.4431 58.681 30.4431 58.8857C30.4431 59.0857 30.4931 59.2714 30.5931 59.4429C30.6931 59.6095 30.8455 59.7429 31.0503 59.8429C31.255 59.9429 31.5169 59.9929 31.836 59.9929ZM47.3408 61L47.3479 56.1929C47.3479 55.6357 47.2051 55.2024 46.9194 54.8929C46.6337 54.5786 46.2575 54.4214 45.7908 54.4214C45.5051 54.4214 45.2432 54.4881 45.0051 54.6214C44.7717 54.75 44.5813 54.9452 44.4336 55.2071C44.2908 55.4643 44.2194 55.7881 44.2194 56.1786L43.4979 55.8143C43.4884 55.2714 43.6027 54.7952 43.8408 54.3857C44.0836 53.9762 44.4122 53.6595 44.8265 53.4357C45.2408 53.2071 45.7051 53.0929 46.2194 53.0929C47.0527 53.0929 47.6979 53.3429 48.1551 53.8429C48.6122 54.3429 48.8408 55.0071 48.8408 55.8357L48.8337 61H47.3408ZM38.0908 61V53.2857H39.4194V55.5143H39.5908V61H38.0908ZM42.7194 61L42.7265 56.2214C42.7265 55.6595 42.5836 55.219 42.2979 54.9C42.017 54.581 41.6384 54.4214 41.1622 54.4214C40.6908 54.4214 40.3098 54.5833 40.0194 54.9071C39.7336 55.231 39.5908 55.6548 39.5908 56.1786L38.8765 55.7214C38.8765 55.2167 38.9979 54.7667 39.2408 54.3714C39.4836 53.9762 39.8122 53.6643 40.2265 53.4357C40.6408 53.2071 41.1098 53.0929 41.6336 53.0929C42.1813 53.0929 42.6479 53.2095 43.0336 53.4429C43.4194 53.6714 43.7122 53.9929 43.9122 54.4071C44.117 54.8214 44.2194 55.3024 44.2194 55.85L44.2122 61H42.7194ZM54.8885 61.2143C54.1504 61.2143 53.5313 61.0357 53.0313 60.6786C52.5313 60.3167 52.1527 59.8286 51.8956 59.2143C51.6384 58.6 51.5099 57.9071 51.5099 57.1357C51.5099 56.3643 51.6361 55.6714 51.8884 55.0571C52.1456 54.4429 52.5218 53.9595 53.017 53.6071C53.517 53.25 54.1313 53.0714 54.8599 53.0714C55.5837 53.0714 56.2075 53.25 56.7313 53.6071C57.2599 53.9595 57.667 54.4429 57.9527 55.0571C58.2385 55.6667 58.3813 56.3595 58.3813 57.1357C58.3813 57.9071 58.2385 58.6024 57.9527 59.2214C57.6718 59.8357 57.2694 60.3214 56.7456 60.6786C56.2265 61.0357 55.6075 61.2143 54.8885 61.2143ZM51.2599 61V50.7143H52.7599V55.45H52.5885V61H51.2599ZM54.6813 59.8643C55.1575 59.8643 55.5504 59.7429 55.8599 59.5C56.1742 59.2571 56.4075 58.931 56.5599 58.5214C56.717 58.1071 56.7956 57.6452 56.7956 57.1357C56.7956 56.631 56.717 56.1738 56.5599 55.7643C56.4075 55.3548 56.1718 55.0286 55.8527 54.7857C55.5337 54.5429 55.1265 54.4214 54.6313 54.4214C54.1646 54.4214 53.7789 54.5357 53.4742 54.7643C53.1742 54.9929 52.9504 55.3119 52.8027 55.7214C52.6599 56.131 52.5885 56.6024 52.5885 57.1357C52.5885 57.669 52.6599 58.1405 52.8027 58.55C52.9456 58.9595 53.1718 59.281 53.4813 59.5143C53.7908 59.7476 54.1908 59.8643 54.6813 59.8643ZM60.6727 61V50.5H62.1656V61H60.6727ZM68.3034 61.2143C67.5367 61.2143 66.8629 61.0476 66.282 60.7143C65.7058 60.3762 65.2558 59.9071 64.932 59.3071C64.6129 58.7024 64.4534 58.0024 64.4534 57.2071C64.4534 56.3643 64.6105 55.6333 64.9248 55.0143C65.2439 54.3952 65.6867 53.9167 66.2534 53.5786C66.8201 53.2405 67.4796 53.0714 68.232 53.0714C69.0177 53.0714 69.6867 53.2548 70.2391 53.6214C70.7915 53.9833 71.2034 54.5 71.4748 55.1714C71.751 55.8429 71.8605 56.6405 71.8034 57.5643H70.3105V57.0214C70.301 56.1262 70.1296 55.4643 69.7963 55.0357C69.4677 54.6071 68.9653 54.3929 68.2891 54.3929C67.5415 54.3929 66.9796 54.6286 66.6034 55.1C66.2272 55.5714 66.0391 56.2524 66.0391 57.1429C66.0391 57.9905 66.2272 58.6476 66.6034 59.1143C66.9796 59.5762 67.5224 59.8071 68.232 59.8071C68.6986 59.8071 69.101 59.7024 69.4391 59.4929C69.782 59.2786 70.0486 58.9738 70.2391 58.5786L71.7034 59.0429C71.4034 59.7333 70.9486 60.269 70.3391 60.65C69.7296 61.0262 69.051 61.2143 68.3034 61.2143ZM65.5534 57.5643V56.4H71.0605V57.5643H65.5534ZM73.9774 61V53.2857H75.306V55.1571L75.1203 54.9143C75.2155 54.6667 75.3393 54.4405 75.4917 54.2357C75.6441 54.0262 75.8203 53.8548 76.0203 53.7214C76.2155 53.5786 76.4322 53.469 76.6703 53.3929C76.9131 53.3119 77.1607 53.2643 77.4131 53.25C77.6655 53.231 77.9084 53.2429 78.1417 53.2857V54.6857C77.8893 54.619 77.6084 54.6 77.2988 54.6286C76.9941 54.6571 76.7131 54.7548 76.456 54.9214C76.2131 55.0786 76.0203 55.269 75.8774 55.4929C75.7393 55.7167 75.6393 55.9667 75.5774 56.2429C75.5155 56.5143 75.4845 56.8024 75.4845 57.1071V61H73.9774Z" fill="#FFEF9C"/>
</g>
<path d="M34.6923 43.8571L33.5903 46.4932C33.5965 46.4958 33.6026 46.4983 33.6088 46.5009L34.6923 43.8571ZM33.178 42.8L31.0835 44.7433L33.178 42.8ZM32.178 41.1143L29.4895 42.0814L32.178 41.1143ZM32.428 36L34.9743 37.296L34.9774 37.2899L32.428 36ZM34.1137 34.1571L35.5766 36.6114L35.5885 36.6043L34.1137 34.1571ZM39.4923 34.35L37.733 36.6013L37.7402 36.6069L39.4923 34.35ZM40.9709 36.6786L41.475 39.4909C42.2605 39.3501 42.9513 38.8872 43.3802 38.2143C43.8091 37.5413 43.9371 36.7197 43.7331 35.9482L40.9709 36.6786ZM39.4566 36.95L36.7524 37.8724C37.2081 39.2084 38.5712 40.0114 39.9607 39.7623L39.4566 36.95ZM38.4423 35.4786L40.2075 33.2319L38.4423 35.4786ZM36.6852 34.9214L36.7045 32.0644L36.7038 32.0643L36.6852 34.9214ZM34.8637 35.4071L33.2628 33.0406L33.252 33.048L34.8637 35.4071ZM33.778 36.7929L36.4204 37.8796L36.4234 37.8722L33.778 36.7929ZM33.4066 38.8571L30.5495 38.8398L33.4066 38.8571ZM33.7637 40.9214L31.1213 42.0082L31.1245 42.0158L33.7637 40.9214ZM34.8566 42.2929L33.2557 44.6594L33.2664 44.6666L34.8566 42.2929ZM36.6852 42.7929L36.7316 39.9361C36.7223 39.9359 36.7131 39.9358 36.7038 39.9358L36.6852 42.7929ZM38.1923 42.4714L39.5383 44.9917L39.5486 44.9862L38.1923 42.4714ZM39.1994 41.4714L41.6868 42.8773V42.8773L39.1994 41.4714ZM39.678 39.8571L42.5174 40.175C42.6079 39.3669 42.3498 38.5586 41.8077 37.9525C41.2657 37.3464 40.4911 37 39.678 37V39.8571ZM37.678 39.8571H34.8209C34.8209 41.4351 36.1001 42.7143 37.678 42.7143V39.8571ZM37.678 38.6571V35.8C36.1001 35.8 34.8209 37.0792 34.8209 38.6571H37.678ZM41.2637 38.6571L44.1034 38.3416C43.9426 36.8947 42.7196 35.8 41.2637 35.8V38.6571ZM41.2852 39L38.4296 39.0952L38.4297 39.0985L41.2852 39ZM40.7423 41.8143L38.1771 40.5562L38.1771 40.5562L40.7423 41.8143ZM39.1423 43.5786L40.6221 46.0227C40.6261 46.0202 40.6301 46.0178 40.6342 46.0153L39.1423 43.5786ZM36.5994 41.3571C36.2434 41.3571 35.9801 41.2971 35.7758 41.2134L33.6088 46.5009C34.5664 46.8933 35.5745 47.0714 36.5994 47.0714V41.3571ZM35.7943 41.2211C35.5901 41.1357 35.4237 41.0196 35.2725 40.8567L31.0835 44.7433C31.7895 45.5042 32.6326 46.0929 33.5903 46.4932L35.7943 41.2211ZM35.2725 40.8567C35.1345 40.708 34.9895 40.4892 34.8665 40.1472L29.4895 42.0814C29.8427 43.0632 30.3644 43.9682 31.0835 44.7433L35.2725 40.8567ZM34.8665 40.1472C34.7597 39.8501 34.678 39.4339 34.678 38.8571H28.9637C28.9637 39.9661 29.1202 41.0546 29.4895 42.0814L34.8665 40.1472ZM34.678 38.8571C34.678 38.0906 34.8176 37.6039 34.9743 37.296L29.8817 34.704C29.2289 35.9866 28.9637 37.4046 28.9637 38.8571H34.678ZM34.9774 37.2899C35.1558 36.9373 35.3561 36.7428 35.5765 36.6114L32.6509 31.7029C31.4333 32.4286 30.5097 33.4627 29.8786 34.7101L34.9774 37.2899ZM35.5885 36.6043C35.8116 36.4698 36.1184 36.3643 36.5994 36.3643V30.65C35.2043 30.65 33.8539 30.9778 32.639 31.71L35.5885 36.6043ZM36.5994 36.3643C37.3789 36.3643 37.6585 36.543 37.733 36.6013L41.2516 32.0987C39.888 31.0331 38.2391 30.65 36.5994 30.65V36.3643ZM37.7402 36.6069C37.9108 36.7393 38.087 36.949 38.2087 37.409L43.7331 35.9482C43.3309 34.4272 42.5214 33.0845 41.2444 32.0931L37.7402 36.6069ZM40.4668 33.8662L38.9525 34.1377L39.9607 39.7623L41.475 39.4909L40.4668 33.8662ZM42.1608 36.0276C41.7902 34.9414 41.1491 33.9718 40.2075 33.2319L36.6771 37.7252C36.6835 37.7302 36.687 37.7336 36.6935 37.743C36.7011 37.754 36.7248 37.7913 36.7524 37.8724L42.1608 36.0276ZM40.2075 33.2319C39.1538 32.4041 37.9197 32.0726 36.7045 32.0644L36.6659 37.7785C36.773 37.7792 36.8065 37.7932 36.7895 37.7878C36.7811 37.7852 36.7643 37.779 36.7421 37.7673C36.7198 37.7556 36.6975 37.7412 36.6771 37.7252L40.2075 33.2319ZM36.7038 32.0643C35.5391 32.0567 34.3312 32.3179 33.2628 33.0406L36.4646 37.7737C36.4249 37.8005 36.4021 37.8046 36.4195 37.8C36.4414 37.7941 36.5174 37.7775 36.6665 37.7785L36.7038 32.0643ZM33.252 33.048C32.261 33.725 31.5643 34.6555 31.1326 35.7135L36.4234 37.8722C36.4544 37.7962 36.4775 37.7661 36.4806 37.7621C36.4827 37.7595 36.4824 37.7602 36.4798 37.7626C36.4773 37.765 36.4754 37.7664 36.4754 37.7663L33.252 33.048ZM31.1356 35.7061C30.725 36.7044 30.556 37.7692 30.5495 38.8398L36.2637 38.8745C36.2667 38.3737 36.3453 38.0623 36.4204 37.8796L31.1356 35.7061ZM30.5495 38.8398C30.543 39.9194 30.7054 40.9968 31.1213 42.0082L36.4061 39.8346C36.3364 39.6651 36.2607 39.3664 36.2637 38.8745L30.5495 38.8398ZM31.1245 42.0158C31.5633 43.0741 32.269 43.9919 33.2557 44.6594L36.4575 39.9263C36.4539 39.9239 36.4534 39.9233 36.4545 39.9242C36.4555 39.9252 36.4553 39.9253 36.4535 39.923C36.4512 39.92 36.4308 39.8942 36.403 39.8271L31.1245 42.0158ZM33.2664 44.6666C34.3206 45.3728 35.5098 45.6424 36.6665 45.6499L36.7038 39.9358C36.5508 39.9348 36.4671 39.9171 36.4352 39.9083C36.4071 39.9006 36.4181 39.8999 36.4468 39.9191L33.2664 44.6666ZM36.6387 45.6496C37.5978 45.6652 38.6023 45.4915 39.5383 44.9916L36.8463 39.9512C36.8911 39.9273 36.916 39.9231 36.9053 39.9253C36.8922 39.9281 36.8382 39.9378 36.7316 39.9361L36.6387 45.6496ZM39.5486 44.9862C40.4683 44.4901 41.1867 43.762 41.6868 42.8773L36.7121 40.0655C36.709 40.0711 36.7194 40.0517 36.7488 40.0225C36.7789 39.9927 36.8111 39.9702 36.836 39.9567L39.5486 44.9862ZM41.6868 42.8773C42.1684 42.0253 42.4145 41.0943 42.5174 40.175L36.8386 39.5393C36.7987 39.8961 36.7258 40.0414 36.7121 40.0655L41.6868 42.8773ZM39.678 37H37.678V42.7143H39.678V37ZM40.5352 39.8571V38.6571H34.8209V39.8571H40.5352ZM37.678 41.5143H41.2637V35.8H37.678V41.5143ZM38.4241 38.9727C38.4224 38.9579 38.4231 38.9602 38.4246 38.9854C38.4261 39.0091 38.4279 39.045 38.4296 39.0952L44.1407 38.9048C44.1349 38.7293 44.1246 38.5323 44.1034 38.3416L38.4241 38.9727ZM38.4297 39.0985C38.432 39.1639 38.4335 39.2127 38.4344 39.2468C38.4349 39.2639 38.4351 39.2746 38.4352 39.2802C38.4354 39.288 38.4352 39.2805 38.4352 39.2643H44.1494C44.1494 39.1667 44.1448 39.0246 44.1406 38.9015L38.4297 39.0985ZM38.4352 39.2643C38.4352 39.8434 38.3258 40.2529 38.1771 40.5562L43.3075 43.0724C43.8921 41.8804 44.1494 40.5899 44.1494 39.2643H38.4352ZM38.1771 40.5562C38.0455 40.8245 37.881 41.0007 37.6504 41.1419L40.6342 46.0153C41.8036 45.2993 42.7058 44.2993 43.3075 43.0724L38.1771 40.5562ZM37.6625 41.1345C37.4964 41.235 37.1859 41.3571 36.5994 41.3571V47.0714C38.0035 47.0714 39.3881 46.7697 40.6221 46.0227L37.6625 41.1345ZM44.6302 43.6929L43.1363 46.1283L44.6302 43.6929ZM43.316 42.2571L40.7565 43.527C40.7604 43.5349 40.7644 43.5429 40.7685 43.5508L43.316 42.2571ZM43.3302 38.0143L45.8697 39.3237L45.8738 39.3156L43.3302 38.0143ZM44.6517 36.5857L46.1156 39.0393C46.1206 39.0363 46.1257 39.0333 46.1307 39.0302L44.6517 36.5857ZM48.6445 36.5929L50.1385 34.1574L50.1385 34.1574L48.6445 36.5929ZM49.9588 38.0286L47.4113 39.3222L47.4113 39.3222L49.9588 38.0286ZM49.9517 42.2643L47.4081 40.9629L47.4042 40.9706L49.9517 42.2643ZM48.6374 43.7L50.1164 46.1445C50.1214 46.1415 50.1264 46.1385 50.1314 46.1354L48.6374 43.7ZM48.2874 42.0643L45.9834 40.3747L45.9806 40.3785L48.2874 42.0643ZM48.2802 38.2071L45.9999 39.9286C46.0062 39.9369 46.0126 39.9452 46.0189 39.9535L48.2802 38.2071ZM45.4017 37.8214L47.0262 40.1718C47.0339 40.1664 47.0417 40.161 47.0493 40.1556L45.4017 37.8214ZM44.6802 38.7571L47.3353 39.8127L47.3395 39.8019L44.6802 38.7571ZM45.0017 42.0786L47.2713 40.343L45.0017 42.0786ZM46.6374 41.3571C46.3073 41.3571 46.1733 41.2875 46.1242 41.2574L43.1363 46.1283C44.2205 46.7934 45.4246 47.0714 46.6374 47.0714V41.3571ZM46.1242 41.2574C46.0207 41.1939 45.9411 41.1164 45.8635 40.9635L40.7685 43.5508C41.3098 44.6169 42.1065 45.4966 43.1363 46.1283L46.1242 41.2574ZM45.8754 40.9873C45.7966 40.8285 45.716 40.5684 45.716 40.1357H40.0017C40.0017 41.303 40.2258 42.4573 40.7565 43.527L45.8754 40.9873ZM45.716 40.1357C45.716 39.7076 45.7976 39.4635 45.8697 39.3237L40.7908 36.7049C40.2343 37.7841 40.0017 38.9543 40.0017 40.1357H45.716ZM45.8738 39.3156C45.9553 39.1563 46.0315 39.0895 46.1156 39.0393L43.1878 34.1321C42.1385 34.7581 41.3337 35.6437 40.7867 36.7129L45.8738 39.3156ZM46.1307 39.0302C46.1903 38.9942 46.3255 38.9286 46.6374 38.9286V33.2143C45.435 33.2143 44.2464 33.4915 43.1726 34.1412L46.1307 39.0302ZM46.6374 38.9286C46.9675 38.9286 47.1015 38.9982 47.1505 39.0283L50.1385 34.1574C49.0542 33.4923 47.8502 33.2143 46.6374 33.2143V38.9286ZM47.1505 39.0283C47.2541 39.0918 47.3337 39.1693 47.4113 39.3222L52.5063 36.7349C51.9649 35.6688 51.1683 34.7891 50.1385 34.1574L47.1505 39.0283ZM47.4113 39.3222C47.4865 39.4702 47.566 39.7166 47.566 40.1357H53.2802C53.2802 38.9643 53.0502 37.806 52.5063 36.7349L47.4113 39.3222ZM47.566 40.1357C47.566 40.5632 47.4846 40.8135 47.4081 40.9629L52.4952 43.5656C53.0474 42.4865 53.2802 41.3177 53.2802 40.1357H47.566ZM47.4042 40.9706C47.3265 41.1236 47.247 41.201 47.1434 41.2646L50.1314 46.1354C51.1611 45.5037 51.9578 44.624 52.4992 43.5579L47.4042 40.9706ZM47.1583 41.2555C47.1042 41.2882 46.9661 41.3571 46.6374 41.3571V47.0714C47.842 47.0714 49.0372 46.7975 50.1164 46.1445L47.1583 41.2555ZM46.6374 45.6643C48.0781 45.6643 49.5818 45.1355 50.5942 43.75L45.9806 40.3785C46.0864 40.2337 46.2464 40.0991 46.4305 40.0161C46.5971 39.9411 46.6904 39.95 46.6374 39.95V45.6643ZM50.5914 43.7539C51.4034 42.6466 51.6945 41.3655 51.6945 40.1357H45.9802C45.9802 40.3087 45.9599 40.397 45.9523 40.4236C45.9463 40.4446 45.9511 40.4186 45.9834 40.3747L50.5914 43.7539ZM51.6945 40.1357C51.6945 38.9037 51.4081 37.5829 50.5416 36.4608L46.0189 39.9535C45.9637 39.882 45.95 39.832 45.9532 39.843C45.9583 39.8607 45.9802 39.9492 45.9802 40.1357H51.6945ZM50.5606 36.4857C49.5446 35.1399 48.0636 34.6214 46.6374 34.6214V40.3357C46.687 40.3357 46.5971 40.3439 46.4362 40.2725C46.2592 40.194 46.1041 40.0665 45.9999 39.9286L50.5606 36.4857ZM46.6374 34.6214C45.7024 34.6214 44.6727 34.8387 43.754 35.4872L47.0493 40.1556C46.9226 40.2451 46.803 40.2937 46.7173 40.3174C46.6366 40.3398 46.603 40.3357 46.6374 40.3357V34.6214ZM43.7772 35.4711C42.9435 36.0472 42.3658 36.8347 42.021 37.7124L47.3395 39.8019C47.3285 39.83 47.2997 39.8918 47.2412 39.9677C47.1813 40.0454 47.1072 40.1158 47.0262 40.1718L43.7772 35.4711ZM42.0253 37.7015C41.7076 38.5006 41.5874 39.3315 41.5874 40.1357H47.3017C47.3017 39.8923 47.3386 39.8042 47.3352 39.8127L42.0253 37.7015ZM41.5874 40.1357C41.5874 41.3698 41.8724 42.69 42.7321 43.8141L47.2713 40.343C47.3233 40.4111 47.3348 40.4567 47.3303 40.441C47.3239 40.4187 47.3017 40.3258 47.3017 40.1357H41.5874ZM42.7321 43.8141C43.743 45.1361 45.205 45.6643 46.6374 45.6643V39.95C46.598 39.95 46.6915 39.9437 46.8517 40.0151C47.0263 40.0928 47.1742 40.2161 47.2713 40.343L42.7321 43.8141ZM52.707 44H49.8499C49.8499 45.578 51.1291 46.8571 52.707 46.8571V44ZM52.707 33.5V30.6429C51.1291 30.6429 49.8499 31.922 49.8499 33.5H52.707ZM54.1999 33.5H57.057C57.057 31.922 55.7778 30.6429 54.1999 30.6429V33.5ZM54.1999 44V46.8571C55.7778 46.8571 57.057 45.578 57.057 44H54.1999ZM55.5642 44V33.5H49.8499V44H55.5642ZM52.707 36.3571H54.1999V30.6429H52.707V36.3571ZM51.3427 33.5V44H57.057V33.5H51.3427ZM54.1999 41.1429H52.707V46.8571H54.1999V41.1429ZM58.1163 43.6786L56.4967 46.0324L56.5068 46.0392L58.1163 43.6786ZM56.9092 42.2214L54.3074 43.4022C54.3111 43.4103 54.3148 43.4183 54.3185 43.4264L56.9092 42.2214ZM56.9163 38.0571L59.5033 39.2698L59.5069 39.2621L56.9163 38.0571ZM58.1306 36.6071L59.7254 38.9778L59.7302 38.9745L58.1306 36.6071ZM61.8449 36.6071L60.1737 38.9245C60.1821 38.9306 60.1905 38.9366 60.1989 38.9426L61.8449 36.6071ZM62.9734 38.0571L60.3307 39.1429C60.333 39.1488 60.3355 39.1546 60.3379 39.1604L62.9734 38.0571ZM62.9734 42.2143L65.609 43.3175L62.9734 42.2143ZM61.8377 43.6786L63.4984 46.0035C63.5033 46 63.5081 45.9966 63.513 45.9931L61.8377 43.6786ZM62.0663 41.55L64.764 42.4911V42.4911L62.0663 41.55ZM62.0592 38.7214L59.3614 39.6625C59.3647 39.6718 59.368 39.6811 59.3713 39.6903L62.0592 38.7214ZM61.3877 37.7643L59.6562 40.0369C59.6619 40.0413 59.6677 40.0457 59.6734 40.05L61.3877 37.7643ZM59.0163 37.7857L57.2858 35.5123V35.5123L59.0163 37.7857ZM58.302 38.7643L55.6345 37.7407C55.631 37.7498 55.6276 37.7588 55.6242 37.7679L58.302 38.7643ZM58.302 41.5214L55.6205 42.5077C55.6251 42.5202 55.6298 42.5326 55.6345 42.545L58.302 41.5214ZM59.002 42.5L57.2383 44.7478C57.2439 44.7522 57.2494 44.7565 57.255 44.7608L59.002 42.5ZM62.2806 44H59.4234C59.4234 45.578 60.7026 46.8571 62.2806 46.8571V44ZM62.2806 38.45H65.1377C65.1377 36.872 63.8585 35.5929 62.2806 35.5929V38.45ZM62.1092 38.45H59.252C59.252 40.028 60.5312 41.3071 62.1092 41.3071V38.45ZM62.1092 33.7143V30.8571C60.5312 30.8571 59.252 32.1363 59.252 33.7143H62.1092ZM63.6091 33.7143H66.4663C66.4663 32.1363 65.1871 30.8571 63.6091 30.8571V33.7143ZM63.6091 44V46.8571C65.1871 46.8571 66.4663 45.578 66.4663 44H63.6091ZM59.9806 41.3571C59.8585 41.3571 59.7916 41.3422 59.7643 41.3343C59.74 41.3273 59.7315 41.3218 59.7258 41.3179L56.5068 46.0392C57.5669 46.762 58.7671 47.0714 59.9806 47.0714V41.3571ZM59.7359 41.3248C59.6689 41.2787 59.587 41.204 59.4998 41.0165L54.3185 43.4264C54.8027 44.4674 55.5256 45.3641 56.4967 46.0323L59.7359 41.3248ZM59.5109 41.0406C59.4196 40.8394 59.3449 40.5547 59.3449 40.1357H53.6306C53.6306 41.2596 53.8368 42.3653 54.3074 43.4022L59.5109 41.0406ZM59.3449 40.1357C59.3449 39.7147 59.4208 39.4459 59.5033 39.2698L54.3293 36.8445C53.8404 37.8875 53.6306 39.0044 53.6306 40.1357H59.3449ZM59.5069 39.2621C59.5898 39.084 59.6652 39.0183 59.7254 38.9778L56.5358 34.2365C55.5484 34.9008 54.8143 35.8017 54.3257 36.8522L59.5069 39.2621ZM59.7302 38.9745C59.739 38.9686 59.7514 38.9612 59.7802 38.953C59.8118 38.9439 59.8831 38.9286 60.0092 38.9286V33.2143C58.7946 33.2143 57.5937 33.5217 56.531 34.2397L59.7302 38.9745ZM60.0092 38.9286C60.1405 38.9286 60.2022 38.9446 60.2141 38.9481C60.2201 38.9498 60.2168 38.9494 60.2071 38.9447C60.1972 38.9399 60.1854 38.933 60.1737 38.9245L63.5161 34.2897C62.446 33.518 61.2188 33.2143 60.0092 33.2143V38.9286ZM60.1989 38.9426C60.2165 38.9549 60.2665 38.9867 60.3307 39.1429L65.6162 36.9713C65.1756 35.899 64.4732 34.9641 63.4908 34.2717L60.1989 38.9426ZM60.3379 39.1604C60.4275 39.3744 60.502 39.6837 60.502 40.1357H66.2163C66.2163 39.0449 66.0337 37.9685 65.609 36.9539L60.3379 39.1604ZM60.502 40.1357C60.502 40.5877 60.4275 40.8971 60.3379 41.111L65.609 43.3175C66.0337 42.3029 66.2163 41.2266 66.2163 40.1357H60.502ZM60.3379 41.111C60.2669 41.2807 60.2036 41.3343 60.1625 41.3641L63.513 45.9931C64.4718 45.299 65.1657 44.3765 65.609 43.3175L60.3379 41.111ZM60.177 41.3536C60.2033 41.3348 60.22 41.3313 60.2066 41.3351C60.1887 41.3403 60.1199 41.3571 59.9806 41.3571V47.0714C61.1917 47.0714 62.4229 46.7718 63.4984 46.0035L60.177 41.3536ZM60.1877 45.7214C61.1322 45.7214 62.1842 45.4919 63.1076 44.7958L59.6678 40.2328C59.8093 40.1261 59.9486 40.0651 60.0556 40.0339C60.1567 40.0044 60.2088 40.0071 60.1877 40.0071V45.7214ZM63.1076 44.7958C63.9211 44.1825 64.4579 43.3685 64.764 42.4911L59.3686 40.6089C59.3754 40.5893 59.3988 40.5309 59.4529 40.4539C59.5085 40.3749 59.5818 40.2977 59.6678 40.2328L63.1076 44.7958ZM64.764 42.4911C65.0335 41.7186 65.1377 40.9186 65.1377 40.1357H59.4234C59.4234 40.4195 59.3848 40.5623 59.3686 40.6089L64.764 42.4911ZM65.1377 40.1357C65.1377 39.3439 65.0286 38.5339 64.747 37.7526L59.3713 39.6903C59.3849 39.728 59.4234 39.8609 59.4234 40.1357H65.1377ZM64.7569 37.7804C64.4538 36.9115 63.9217 36.0934 63.102 35.4786L59.6734 40.05C59.5793 39.9794 59.5021 39.8971 59.4451 39.8158C59.3898 39.737 59.3671 39.6787 59.3614 39.6625L64.7569 37.7804ZM63.1193 35.4916C62.2133 34.8013 61.1785 34.5643 60.2377 34.5643V40.2786C60.2395 40.2786 60.172 40.2789 60.0589 40.2452C59.9401 40.2098 59.7969 40.1442 59.6562 40.0369L63.1193 35.4916ZM60.2377 34.5643C59.2674 34.5643 58.2097 34.809 57.2858 35.5123L60.7468 40.0592C60.6162 40.1586 60.4842 40.2186 60.3775 40.2505C60.2765 40.2806 60.222 40.2786 60.2377 40.2786V34.5643ZM57.2858 35.5123C56.5051 36.1065 55.9633 36.8838 55.6345 37.7407L60.9695 39.7879C60.9655 39.7982 60.9478 39.8399 60.9062 39.897C60.8635 39.9555 60.8088 40.012 60.7468 40.0592L57.2858 35.5123ZM55.6242 37.7679C55.3364 38.5416 55.2163 39.3428 55.2163 40.1357H60.9306C60.9306 39.9191 60.9629 39.8061 60.9798 39.7607L55.6242 37.7679ZM55.2163 40.1357C55.2163 40.9307 55.3355 41.7329 55.6205 42.5077L60.9835 40.5351C60.9637 40.4813 60.9306 40.3598 60.9306 40.1357H55.2163ZM55.6345 42.545C55.9549 43.3799 56.477 44.1505 57.2383 44.7478L60.7657 40.2522C60.8286 40.3016 60.8805 40.3576 60.9187 40.4109C60.9368 40.4363 60.9495 40.4578 60.9579 40.4735C60.962 40.4812 60.9649 40.4873 60.9668 40.4915C60.9687 40.4957 60.9695 40.4979 60.9695 40.4979L55.6345 42.545ZM57.255 44.7608C58.1635 45.4628 59.2091 45.7214 60.1877 45.7214V40.0071C60.1918 40.0071 60.2614 40.0077 60.3732 40.0421C60.4904 40.0781 60.6232 40.142 60.749 40.2392L57.255 44.7608ZM65.1377 44V38.45H59.4234V44H65.1377ZM62.2806 35.5929H62.1092V41.3071H62.2806V35.5929ZM64.9663 38.45V33.7143H59.252V38.45H64.9663ZM62.1092 36.5714H63.6091V30.8571H62.1092V36.5714ZM60.752 33.7143V44H66.4663V33.7143H60.752ZM63.6091 41.1429H62.2806V46.8571H63.6091V41.1429ZM20.798 60.8571L19.6961 63.4932C19.7022 63.4958 19.7084 63.4983 19.7146 63.5009L20.798 60.8571ZM19.2838 59.8L17.1893 61.7433H17.1893L19.2838 59.8ZM18.2838 58.1143L15.5953 59.0814L15.5953 59.0814L18.2838 58.1143ZM18.5338 53L21.0801 54.296L21.0832 54.2899L18.5338 53ZM20.2195 51.1571L21.6823 53.6114L21.6942 53.6043L20.2195 51.1571ZM25.598 51.35L23.8388 53.6013L23.846 53.6069L25.598 51.35ZM27.0766 53.6786L27.5807 56.4909C28.3662 56.3501 29.057 55.8872 29.486 55.2143C29.9149 54.5413 30.0428 53.7197 29.8388 52.9482L27.0766 53.6786ZM25.5623 53.95L22.8582 54.8724C23.3139 56.2084 24.677 57.0114 26.0664 56.7623L25.5623 53.95ZM24.548 52.4786L26.3133 50.2319L24.548 52.4786ZM22.7909 51.9214L22.8102 49.0644L22.8096 49.0643L22.7909 51.9214ZM20.9695 52.4071L19.3686 50.0406L19.3578 50.048L20.9695 52.4071ZM19.8838 53.7929L22.5261 54.8796L22.5292 54.8722L19.8838 53.7929ZM19.5123 55.8571L16.6552 55.8398L19.5123 55.8571ZM19.8695 57.9214L17.2271 59.0082L17.2302 59.0158L19.8695 57.9214ZM20.9623 59.2929L19.3614 61.6594L19.3722 61.6666L20.9623 59.2929ZM22.7909 59.7929L22.8374 56.9361C22.8281 56.9359 22.8188 56.9358 22.8096 56.9358L22.7909 59.7929ZM24.298 59.4714L25.6441 61.9917L25.6543 61.9862L24.298 59.4714ZM25.3052 58.4714L27.7925 59.8773H27.7925L25.3052 58.4714ZM25.7838 56.8571L28.6232 57.175C28.7136 56.3669 28.4555 55.5586 27.9135 54.9525C27.3715 54.3464 26.5969 54 25.7838 54V56.8571ZM23.7838 56.8571H20.9266C20.9266 58.4351 22.2058 59.7143 23.7838 59.7143V56.8571ZM23.7838 55.6571V52.8C22.2058 52.8 20.9266 54.0792 20.9266 55.6571H23.7838ZM27.3695 55.6571L30.2091 55.3416C30.0484 53.8947 28.8253 52.8 27.3695 52.8V55.6571ZM27.3909 56L24.5353 56.0952L24.5355 56.0985L27.3909 56ZM26.848 58.8143L24.2828 57.5562L24.2828 57.5562L26.848 58.8143ZM25.248 60.5786L26.7278 63.0227C26.7318 63.0202 26.7359 63.0178 26.7399 63.0153L25.248 60.5786ZM22.7052 58.3571C22.3491 58.3571 22.0858 58.2971 21.8815 58.2134L19.7146 63.5009C20.6722 63.8933 21.6803 64.0714 22.7052 64.0714V58.3571ZM21.9 58.2211C21.6958 58.1357 21.5294 58.0196 21.3782 57.8567L17.1893 61.7433C17.8952 62.5042 18.7383 63.0929 19.6961 63.4932L21.9 58.2211ZM21.3782 57.8567C21.2402 57.708 21.0953 57.4892 20.9723 57.1472L15.5953 59.0814C15.9484 60.0632 16.4701 60.9682 17.1893 61.7433L21.3782 57.8567ZM20.9723 57.1472C20.8654 56.8501 20.7838 56.4339 20.7838 55.8571H15.0695C15.0695 56.9661 15.2259 58.0546 15.5953 59.0814L20.9723 57.1472ZM20.7838 55.8571C20.7838 55.0906 20.9233 54.6039 21.0801 54.296L15.9875 51.704C15.3346 52.9866 15.0695 54.4046 15.0695 55.8571H20.7838ZM21.0832 54.2899C21.2616 53.9373 21.4618 53.7428 21.6823 53.6114L18.7567 48.7029C17.539 49.4286 16.6155 50.4627 15.9844 51.7101L21.0832 54.2899ZM21.6942 53.6043C21.9174 53.4698 22.2242 53.3643 22.7052 53.3643V47.65C21.31 47.65 19.9597 47.9778 18.7447 48.71L21.6942 53.6043ZM22.7052 53.3643C23.4846 53.3643 23.7643 53.543 23.8388 53.6013L27.3573 49.0987C25.9937 48.0331 24.3448 47.65 22.7052 47.65V53.3643ZM23.846 53.6069C24.0166 53.7393 24.1928 53.949 24.3144 54.409L29.8388 52.9482C29.4366 51.4272 28.6271 50.0845 27.3501 49.0931L23.846 53.6069ZM26.5725 50.8662L25.0582 51.1377L26.0664 56.7623L27.5807 56.4909L26.5725 50.8662ZM28.2665 53.0276C27.896 51.9414 27.2548 50.9718 26.3133 50.2319L22.7828 54.7252C22.7892 54.7302 22.7927 54.7336 22.7992 54.743C22.8068 54.754 22.8305 54.7913 22.8582 54.8724L28.2665 53.0276ZM26.3133 50.2319C25.2596 49.4041 24.0254 49.0726 22.8102 49.0644L22.7716 54.7785C22.8787 54.7792 22.9122 54.7932 22.8952 54.7878C22.8869 54.7852 22.87 54.779 22.8479 54.7673C22.8255 54.7556 22.8032 54.7412 22.7828 54.7252L26.3133 50.2319ZM22.8096 49.0643C21.6448 49.0567 20.4369 49.3179 19.3686 50.0406L22.5704 54.7737C22.5307 54.8005 22.5078 54.8046 22.5253 54.8C22.5472 54.7941 22.6232 54.7775 22.7722 54.7785L22.8096 49.0643ZM19.3578 50.048C18.3667 50.725 17.67 51.6555 17.2383 52.7135L22.5292 54.8722C22.5602 54.7962 22.5833 54.7661 22.5864 54.7621C22.5884 54.7595 22.5881 54.7602 22.5856 54.7626C22.583 54.765 22.5811 54.7664 22.5812 54.7663L19.3578 50.048ZM17.2414 52.7061C16.8308 53.7044 16.6617 54.7692 16.6552 55.8398L22.3694 55.8745C22.3725 55.3737 22.451 55.0623 22.5261 54.8796L17.2414 52.7061ZM16.6552 55.8398C16.6487 56.9194 16.8111 57.9968 17.2271 59.0082L22.5119 56.8346C22.4421 56.6651 22.3664 56.3664 22.3694 55.8745L16.6552 55.8398ZM17.2302 59.0158C17.669 60.0741 18.3747 60.9919 19.3614 61.6594L22.5632 56.9263C22.5597 56.9239 22.5592 56.9233 22.5602 56.9242C22.5613 56.9252 22.5611 56.9253 22.5593 56.923C22.5569 56.92 22.5365 56.8942 22.5087 56.8271L17.2302 59.0158ZM19.3722 61.6666C20.4263 62.3728 21.6155 62.6424 22.7722 62.6499L22.8096 56.9358C22.6566 56.9348 22.5729 56.9171 22.5409 56.9083C22.5128 56.9006 22.5239 56.8999 22.5525 56.9191L19.3722 61.6666ZM22.7445 62.6496C23.7035 62.6652 24.7081 62.4915 25.6441 61.9916L22.952 56.9512C22.9968 56.9273 23.0217 56.9231 23.011 56.9253C22.998 56.9281 22.9439 56.9378 22.8374 56.9361L22.7445 62.6496ZM25.6543 61.9862C26.5741 61.4901 27.2925 60.762 27.7925 59.8773L22.8179 57.0655C22.8147 57.0711 22.8252 57.0517 22.8546 57.0225C22.8847 56.9927 22.9169 56.9702 22.9418 56.9567L25.6543 61.9862ZM27.7925 59.8773C28.2741 59.0253 28.5203 58.0943 28.6232 57.175L22.9444 56.5393C22.9044 56.8961 22.8315 57.0414 22.8179 57.0655L27.7925 59.8773ZM25.7838 54H23.7838V59.7143H25.7838V54ZM26.6409 56.8571V55.6571H20.9266V56.8571H26.6409ZM23.7838 58.5143H27.3695V52.8H23.7838V58.5143ZM24.5298 55.9727C24.5282 55.9579 24.5288 55.9602 24.5304 55.9854C24.5319 56.0091 24.5337 56.045 24.5353 56.0952L30.2465 55.9048C30.2406 55.7293 30.2303 55.5323 30.2091 55.3416L24.5298 55.9727ZM24.5355 56.0985C24.5377 56.1639 24.5392 56.2127 24.5402 56.2468C24.5406 56.2639 24.5409 56.2746 24.541 56.2802C24.5411 56.288 24.5409 56.2805 24.5409 56.2643H30.2552C30.2552 56.1667 30.2506 56.0246 30.2463 55.9015L24.5355 56.0985ZM24.5409 56.2643C24.5409 56.8434 24.4315 57.2529 24.2828 57.5562L29.4133 60.0724C29.9979 58.8804 30.2552 57.5899 30.2552 56.2643H24.5409ZM24.2828 57.5562C24.1512 57.8245 23.9868 58.0007 23.7562 58.1419L26.7399 63.0153C27.9093 62.2993 28.8116 61.2993 29.4133 60.0724L24.2828 57.5562ZM23.7683 58.1345C23.6022 58.235 23.2916 58.3571 22.7052 58.3571V64.0714C24.1092 64.0714 25.4939 63.7697 26.7278 63.0227L23.7683 58.1345ZM30.136 60.9L28.7484 63.3976C28.7563 63.402 28.7643 63.4063 28.7722 63.4106L30.136 60.9ZM29.2574 60.0571L26.7582 61.4418C26.7657 61.4553 26.7732 61.4687 26.7809 61.482L29.2574 60.0571ZM29.1717 57.8714L26.5837 56.6609V56.6609L29.1717 57.8714ZM29.786 57.1214L31.5067 59.4023C31.5151 59.396 31.5235 59.3896 31.5319 59.3831L29.786 57.1214ZM30.786 56.6143L29.986 53.8714C29.9579 53.8796 29.93 53.8882 29.9021 53.8973L30.786 56.6143ZM31.9503 56.35L32.445 59.164L32.445 59.164L31.9503 56.35ZM33.3146 56.1357L32.9223 53.3056L32.9184 53.3062L33.3146 56.1357ZM34.7431 55.9357L36.1251 58.4364C37.3314 57.7697 37.8899 56.3369 37.4528 55.0297C37.0158 53.7225 35.7078 52.9137 34.3431 53.1067L34.7431 55.9357ZM34.2003 56.2357L31.3435 56.1907C31.3274 57.2098 31.8555 58.1603 32.7293 58.6851C33.603 59.2098 34.6902 59.2294 35.5822 58.7364L34.2003 56.2357ZM33.8146 54.8929L31.6772 56.7889C31.688 56.801 31.6989 56.8131 31.7098 56.8251L33.8146 54.8929ZM31.3431 54.7357L32.7187 57.2399C32.7277 57.235 32.7366 57.23 32.7455 57.225L31.3431 54.7357ZM30.636 55.6643L29.7957 58.3951C30.52 58.6179 31.3031 58.5439 31.9728 58.1894C32.6425 57.8348 33.1439 57.2288 33.3668 56.5045L30.636 55.6643ZM29.2431 55.2357L26.4974 54.4456C26.0667 55.9424 26.9142 57.5084 28.4029 57.9665L29.2431 55.2357ZM30.3288 53.6571L28.6508 51.3447L28.641 51.3518L30.3288 53.6571ZM34.2717 53.4286L33.0621 56.017C33.0718 56.0216 33.0815 56.026 33.0912 56.0304L34.2717 53.4286ZM35.4003 54.5429L32.8118 55.7524C32.8194 55.7688 32.8272 55.785 32.8352 55.8012L35.4003 54.5429ZM35.6288 55.3429L32.7864 55.6319V55.6319L35.6288 55.3429ZM35.6717 61V63.8571C37.2497 63.8571 38.5288 62.578 38.5288 61H35.6717ZM34.3503 61H31.4931C31.4931 62.578 32.7723 63.8571 34.3503 63.8571V61ZM34.3503 59.2357L36.2485 57.1003C35.4075 56.3528 34.2062 56.1684 33.1798 56.6293C32.1535 57.0902 31.4931 58.1106 31.4931 59.2357H34.3503ZM34.6074 59.4643L37.1211 60.8225C37.7513 59.6562 37.4964 58.2096 36.5056 57.3288L34.6074 59.4643ZM33.386 60.7857L34.8241 63.2545L34.8315 63.2502L33.386 60.7857ZM32.9288 59.7714L34.1744 62.3428C34.1851 62.3376 34.1959 62.3323 34.2066 62.3269L32.9288 59.7714ZM33.6646 59.1929L31.4291 57.4136L33.6646 59.1929ZM34.0288 58.4643L31.3356 57.5104C31.2982 57.6161 31.267 57.724 31.2422 57.8334L34.0288 58.4643ZM34.1646 57.6929L31.311 57.5502C31.3102 57.566 31.3095 57.5818 31.309 57.5977L34.1646 57.6929ZM34.186 57.0071L35.1719 54.3255C34.2954 54.0033 33.3168 54.1297 32.551 54.6641C31.7852 55.1984 31.3288 56.0733 31.3288 57.0071H34.186ZM34.6717 57.1857L35.0997 60.0106C36.3893 59.8152 37.3828 58.7713 37.5143 57.4737C37.6458 56.1761 36.8818 54.9541 35.6576 54.5041L34.6717 57.1857ZM33.386 57.3786L33.8047 60.2049L33.386 57.3786ZM32.336 57.55L32.8127 60.3671C32.8242 60.3651 32.8357 60.3631 32.8471 60.3611L32.336 57.55ZM31.5074 57.7429L30.6522 55.0167C30.6234 55.0257 30.5948 55.0352 30.5664 55.0451L31.5074 57.7429ZM30.9574 58L29.456 55.5691C29.4451 55.5759 29.4343 55.5827 29.4235 55.5895L30.9574 58ZM30.5788 58.3643L28.2016 56.7794C28.1892 56.798 28.177 56.8167 28.1651 56.8356L30.5788 58.3643ZM30.5931 59.4429L28.1252 60.8825C28.1311 60.8926 28.1371 60.9028 28.1432 60.9128L30.5931 59.4429ZM31.0503 59.8429L29.7965 62.4102L29.7965 62.4102L31.0503 59.8429ZM31.5717 58.3571C31.4584 58.3571 31.4039 58.3466 31.3952 58.3447C31.3887 58.3432 31.4306 58.3517 31.4998 58.3894L28.7722 63.4106C29.684 63.9059 30.6633 64.0714 31.5717 64.0714V58.3571ZM31.5235 58.4024C31.5268 58.4042 31.5595 58.4231 31.605 58.4668C31.6518 58.5116 31.6972 58.5684 31.7339 58.6323L26.7809 61.482C27.2652 62.3238 27.9559 62.9573 28.7484 63.3976L31.5235 58.4024ZM31.7566 58.6725C31.7768 58.7088 31.7953 58.7538 31.8076 58.8026C31.8198 58.8507 31.8217 58.8857 31.8217 58.9H26.1074C26.1074 59.7833 26.3186 60.6483 26.7582 61.4418L31.7566 58.6725ZM31.8217 58.9C31.8217 58.8462 31.8305 58.9307 31.7597 59.082L26.5837 56.6609C26.2367 57.4027 26.1074 58.1728 26.1074 58.9H31.8217ZM31.7597 59.082C31.7292 59.1473 31.6884 59.2128 31.6392 59.2729C31.5904 59.3326 31.5429 59.375 31.5067 59.4023L28.0653 54.8405C27.4384 55.3135 26.9279 55.925 26.5837 56.6609L31.7597 59.082ZM31.5319 59.3831C31.4958 59.411 31.5219 59.3794 31.6698 59.3313L29.9021 53.8973C29.2596 54.1063 28.6191 54.4128 28.0401 54.8597L31.5319 59.3831ZM31.586 59.3571C31.8087 59.2922 32.0921 59.226 32.445 59.164L31.4555 53.536C30.9418 53.6263 30.449 53.7364 29.986 53.8714L31.586 59.3571ZM32.445 59.164C32.8427 59.0941 33.2645 59.0277 33.7107 58.9653L32.9184 53.3062C32.4123 53.377 31.9245 53.4536 31.4555 53.536L32.445 59.164ZM33.7069 58.9658C34.1903 58.8988 34.6691 58.8317 35.1432 58.7647L34.3431 53.1067C33.8743 53.173 33.4007 53.2393 32.9223 53.3056L33.7069 58.9658ZM33.3612 53.435L32.8183 53.735L35.5822 58.7364L36.1251 58.4364L33.3612 53.435ZM37.0571 56.2807C37.0721 55.3241 36.888 54.0159 35.9193 52.9607L31.7098 56.8251C31.494 56.59 31.4009 56.3604 31.3649 56.2352C31.3321 56.1212 31.3451 56.0909 31.3435 56.1907L37.0571 56.2807ZM35.9519 52.9968C34.8867 51.796 33.4174 51.5929 32.4574 51.5929V57.3071C32.5762 57.3071 32.533 57.3228 32.3925 57.2769C32.2356 57.2257 31.9462 57.0921 31.6772 56.7889L35.9519 52.9968ZM32.4574 51.5929C31.5833 51.5929 30.7256 51.8042 29.9407 52.2464L32.7455 57.225C32.6995 57.2509 32.6442 57.2738 32.5849 57.289C32.5263 57.3041 32.4811 57.3071 32.4574 57.3071V51.5929ZM29.9676 52.2315C28.8658 52.8367 28.2158 53.8144 27.9052 54.824L33.3668 56.5045C33.3506 56.5572 33.3025 56.685 33.1858 56.8382C33.064 56.9982 32.9026 57.1389 32.7187 57.2399L29.9676 52.2315ZM31.4762 52.9335L30.0834 52.5049L28.4029 57.9665L29.7957 58.3951L31.4762 52.9335ZM31.9888 56.0258C31.9977 55.9951 32.0053 55.9772 32.009 55.9693C32.0125 55.9616 32.0137 55.9606 32.0115 55.9637C32.0093 55.967 32.0067 55.97 32.005 55.9717C32.0035 55.9733 32.0064 55.97 32.0167 55.9625L28.641 51.3518C27.5743 52.1328 26.855 53.2029 26.4974 54.4456L31.9888 56.0258ZM32.0069 55.9696C31.9157 56.0358 31.982 55.9286 32.4717 55.9286V50.2143C31.1805 50.2143 29.8182 50.4976 28.6508 51.3447L32.0069 55.9696ZM32.4717 55.9286C32.8373 55.9286 33.0074 55.9915 33.0621 56.017L35.4813 50.8401C34.5169 50.3895 33.4871 50.2143 32.4717 50.2143V55.9286ZM33.0912 56.0304C33.0624 56.0174 32.9999 55.9822 32.9322 55.9153C32.8643 55.8482 32.8269 55.7847 32.8118 55.7524L37.9888 53.3333C37.461 52.2039 36.5839 51.3402 35.4522 50.8267L33.0912 56.0304ZM32.8352 55.8012C32.8235 55.7774 32.8121 55.7488 32.8031 55.7171C32.794 55.6853 32.7888 55.6561 32.7864 55.6319L38.4713 55.0538C38.4087 54.4374 38.2391 53.8424 37.9654 53.2845L32.8352 55.8012ZM32.7864 55.6319C32.8039 55.8041 32.8146 56.0091 32.8146 56.25H38.5288C38.5288 55.8433 38.511 55.4435 38.4713 55.0538L32.7864 55.6319ZM32.8146 56.25V61H38.5288V56.25H32.8146ZM35.6717 58.1429H34.3503V63.8571H35.6717V58.1429ZM37.2074 61V59.2357H31.4931V61H37.2074ZM32.4521 61.3712L32.7092 61.5997L36.5056 57.3288L36.2485 57.1003L32.4521 61.3712ZM32.0937 58.1061C32.0346 58.2155 31.988 58.2729 31.9646 58.2981C31.9431 58.3215 31.9353 58.3243 31.9405 58.3212L34.8315 63.2502C35.8486 62.6537 36.5963 61.7937 37.1211 60.8225L32.0937 58.1061ZM31.9479 58.3169C31.9959 58.2889 31.9182 58.3571 31.5717 58.3571V64.0714C32.6633 64.0714 33.7951 63.8539 34.8241 63.2545L31.9479 58.3169ZM31.836 62.85C32.5855 62.85 33.3962 62.7197 34.1744 62.3428L31.6833 57.2001C31.8519 57.1184 31.9341 57.1357 31.836 57.1357V62.85ZM34.2066 62.3269C34.8303 62.0151 35.4209 61.5742 35.9001 60.9721L31.4291 57.4136C31.5368 57.2782 31.6369 57.223 31.6511 57.2159L34.2066 62.3269ZM35.9001 60.9721C36.3127 60.4536 36.6499 59.8265 36.8155 59.0952L31.2422 57.8334C31.2935 57.6068 31.3878 57.4654 31.4291 57.4136L35.9001 60.9721ZM36.7221 59.4181C36.9165 58.8691 37.0025 58.3156 37.0201 57.788L31.309 57.5977C31.3075 57.6415 31.3031 57.6023 31.3356 57.5104L36.7221 59.4181ZM37.0181 57.8355C37.0335 57.5291 37.0431 57.247 37.0431 57.0071H31.3288C31.3288 57.1101 31.3242 57.2852 31.311 57.5502L37.0181 57.8355ZM33.2001 59.6888L33.6858 59.8674L35.6576 54.5041L35.1719 54.3255L33.2001 59.6888ZM34.2437 54.3608C33.7747 54.4319 33.3493 54.4957 32.9673 54.5523L33.8047 60.2049C34.1941 60.1472 34.6258 60.0824 35.0997 60.0106L34.2437 54.3608ZM32.9673 54.5523C32.5571 54.613 32.1757 54.6752 31.8249 54.7389L32.8471 60.3611C33.1249 60.3106 33.4434 60.2584 33.8047 60.2049L32.9673 54.5523ZM31.8593 54.7329C31.4499 54.8022 31.0436 54.8939 30.6522 55.0167L32.3627 60.469C32.4569 60.4394 32.603 60.4026 32.8127 60.3671L31.8593 54.7329ZM30.5664 55.0451C30.1923 55.1756 29.8169 55.3462 29.456 55.5691L32.4588 60.4309C32.4401 60.4424 32.4286 60.448 32.4264 60.4489C32.4244 60.4499 32.4311 60.4466 32.4485 60.4406L30.5664 55.0451ZM29.4235 55.5895C28.9596 55.8847 28.5356 56.2784 28.2016 56.7794L32.9561 59.9491C32.8126 60.1644 32.6409 60.3153 32.4913 60.4105L29.4235 55.5895ZM28.1651 56.8356C27.7291 57.524 27.586 58.2546 27.586 58.8857H33.3003C33.3003 59.1073 33.2477 59.4903 32.9926 59.893L28.1651 56.8356ZM27.586 58.8857C27.586 59.5875 27.7682 60.2706 28.1252 60.8825L33.0611 58.0032C33.218 58.2723 33.3003 58.584 33.3003 58.8857H27.586ZM28.1432 60.9128C28.5735 61.6302 29.1825 62.1104 29.7965 62.4102L32.3041 57.2755C32.5085 57.3754 32.8127 57.5889 33.0431 57.9729L28.1432 60.9128ZM29.7965 62.4102C30.5157 62.7614 31.2455 62.85 31.836 62.85V57.1357C31.8224 57.1357 31.86 57.1344 31.9361 57.1489C32.0129 57.1636 32.144 57.1974 32.3041 57.2755L29.7965 62.4102ZM47.3408 61L44.4837 60.9958C44.4825 61.7543 44.783 62.4821 45.319 63.0188C45.8549 63.5555 46.5823 63.8571 47.3408 63.8571V61ZM47.3479 56.1929L50.2051 56.1971V56.1929H47.3479ZM46.9194 54.8929L44.8053 56.8148C44.8101 56.8201 44.815 56.8255 44.8199 56.8308L46.9194 54.8929ZM45.0051 54.6214L46.384 57.1238C46.3897 57.1207 46.3954 57.1175 46.4011 57.1143L45.0051 54.6214ZM44.4336 55.2071L41.9446 53.8042C41.9418 53.8094 41.9389 53.8145 41.9361 53.8196L44.4336 55.2071ZM44.2194 56.1786L42.9315 58.729C43.8172 59.1763 44.8716 59.1319 45.7166 58.612C46.5617 58.092 47.0765 57.1708 47.0765 56.1786H44.2194ZM43.4979 55.8143L40.6412 55.8644C40.6598 56.9244 41.2638 57.8869 42.2101 58.3647L43.4979 55.8143ZM43.8408 54.3857L41.3833 52.9284C41.3791 52.9354 41.3749 52.9425 41.3708 52.9497L43.8408 54.3857ZM44.8265 53.4357L46.1845 55.9495C46.1919 55.9455 46.1993 55.9414 46.2067 55.9374L44.8265 53.4357ZM48.1551 53.8429L50.2637 51.9149V51.9149L48.1551 53.8429ZM48.8408 55.8357L51.6979 55.8397V55.8357H48.8408ZM48.8337 61V63.8571C50.4101 63.8571 51.6886 62.5804 51.6908 61.004L48.8337 61ZM38.0908 61H35.2336C35.2336 62.578 36.5128 63.8571 38.0908 63.8571V61ZM38.0908 53.2857V50.4286C36.5128 50.4286 35.2336 51.7078 35.2336 53.2857H38.0908ZM39.4194 53.2857H42.2765C42.2765 51.7078 40.9973 50.4286 39.4194 50.4286V53.2857ZM39.4194 55.5143H36.5622C36.5622 57.0922 37.8414 58.3714 39.4194 58.3714V55.5143ZM39.5908 55.5143H42.4479C42.4479 53.9363 41.1687 52.6571 39.5908 52.6571V55.5143ZM39.5908 61V63.8571C41.1687 63.8571 42.4479 62.578 42.4479 61H39.5908ZM42.7194 61L39.8622 60.9957C39.8611 61.7542 40.1616 62.4821 40.6975 63.0188C41.2335 63.5555 41.9609 63.8571 42.7194 63.8571V61ZM42.7265 56.2214L45.5837 56.2257V56.2214H42.7265ZM42.2979 54.9L40.1537 56.7882C40.1589 56.7942 40.1642 56.8001 40.1695 56.8061L42.2979 54.9ZM40.0194 54.9071L37.8926 52.9993C37.8873 53.0051 37.8821 53.0109 37.877 53.0168L40.0194 54.9071ZM39.5908 56.1786L38.0506 58.5851C38.9301 59.1479 40.0465 59.1862 40.9624 58.6849C41.8784 58.1837 42.4479 57.2227 42.4479 56.1786H39.5908ZM38.8765 55.7214H36.0194C36.0194 56.6957 36.5158 57.6028 37.3364 58.1279L38.8765 55.7214ZM43.0336 53.4429L41.5548 55.8875C41.5622 55.892 41.5696 55.8964 41.5771 55.9008L43.0336 53.4429ZM43.9122 54.4071L41.3392 55.6493C41.3431 55.6572 41.3469 55.6652 41.3509 55.6731L43.9122 54.4071ZM44.2194 55.85L47.0765 55.854V55.85H44.2194ZM44.2122 61V63.8571C45.7886 63.8571 47.0672 62.5804 47.0694 61.004L44.2122 61ZM50.1979 61.0042L50.2051 56.1971L44.4908 56.1886L44.4837 60.9958L50.1979 61.0042ZM50.2051 56.1929C50.2051 55.1547 49.9317 53.9439 49.0188 52.9549L44.8199 56.8308C44.6635 56.6613 44.5729 56.4829 44.5273 56.3446C44.4852 56.2169 44.4908 56.1535 44.4908 56.1929H50.2051ZM49.0335 52.9709C48.1494 51.9984 46.9738 51.5643 45.7908 51.5643V57.2786C45.7003 57.2786 45.5293 57.2624 45.3217 57.1757C45.1077 57.0863 44.9316 56.9538 44.8053 56.8148L49.0335 52.9709ZM45.7908 51.5643C45.0401 51.5643 44.294 51.745 43.6091 52.1286L46.4011 57.1143C46.1923 57.2312 45.9701 57.2786 45.7908 57.2786V51.5643ZM43.6262 52.119C42.8701 52.5356 42.3186 53.1408 41.9446 53.8042L46.9227 56.61C46.844 56.7497 46.6734 56.9644 46.384 57.1238L43.6262 52.119ZM41.9361 53.8196C41.4927 54.6177 41.3622 55.456 41.3622 56.1786H47.0765C47.0765 56.1202 47.0889 56.3109 46.9312 56.5947L41.9361 53.8196ZM45.5072 53.6281L44.7858 53.2638L42.2101 58.3647L42.9315 58.729L45.5072 53.6281ZM46.3546 55.7642C46.3537 55.7082 46.3597 55.6963 46.3548 55.7168C46.3524 55.7267 46.3479 55.7421 46.3402 55.7615C46.3324 55.781 46.3226 55.8015 46.3108 55.8218L41.3708 52.9497C40.8341 53.8727 40.6239 54.8778 40.6412 55.8644L46.3546 55.7642ZM46.2983 55.8431C46.2947 55.8491 46.2801 55.8713 46.2521 55.8983C46.2239 55.9254 46.198 55.9422 46.1845 55.9495L43.4685 50.9219C42.5935 51.3947 41.8871 52.0788 41.3833 52.9284L46.2983 55.8431ZM46.2067 55.9374C46.2005 55.9408 46.1931 55.9443 46.1853 55.9474C46.1775 55.9504 46.1715 55.9521 46.1683 55.9529C46.1653 55.9537 46.1669 55.953 46.1745 55.9521C46.1821 55.9513 46.1967 55.95 46.2194 55.95V50.2357C45.2654 50.2357 44.3194 50.4523 43.4463 50.9341L46.2067 55.9374ZM46.2194 55.95C46.3532 55.95 46.3623 55.9702 46.2961 55.9445C46.2626 55.9315 46.2182 55.91 46.1698 55.877C46.1212 55.8439 46.0794 55.8069 46.0464 55.7708L50.2637 51.9149C49.1443 50.6906 47.6561 50.2357 46.2194 50.2357V55.95ZM46.0464 55.7708C46.027 55.7496 46.0086 55.7247 45.9932 55.6986C45.978 55.6727 45.9704 55.6535 45.9677 55.6457C45.9625 55.6305 45.9837 55.6824 45.9837 55.8357H51.6979C51.6979 54.4606 51.3043 53.0531 50.2637 51.9149L46.0464 55.7708ZM45.9837 55.8318L45.9765 60.996L51.6908 61.004L51.6979 55.8397L45.9837 55.8318ZM48.8337 58.1429H47.3408V63.8571H48.8337V58.1429ZM40.9479 61V53.2857H35.2336V61H40.9479ZM38.0908 56.1429H39.4194V50.4286H38.0908V56.1429ZM36.5622 53.2857V55.5143H42.2765V53.2857H36.5622ZM39.4194 58.3714H39.5908V52.6571H39.4194V58.3714ZM36.7336 55.5143V61H42.4479V55.5143H36.7336ZM39.5908 58.1429H38.0908V63.8571H39.5908V58.1429ZM45.5765 61.0043L45.5836 56.2257L39.8694 56.2172L39.8622 60.9957L45.5765 61.0043ZM45.5837 56.2214C45.5837 55.1804 45.3121 53.983 44.4264 52.9939L40.1695 56.8061C40.0256 56.6454 39.9429 56.4786 39.9016 56.3511C39.8634 56.2334 39.8694 56.1781 39.8694 56.2214H45.5837ZM44.4422 53.0118C43.5501 51.9987 42.3491 51.5643 41.1622 51.5643V57.2786C41.0793 57.2786 40.9071 57.2639 40.6938 57.174C40.4725 57.0807 40.2874 56.9401 40.1537 56.7882L44.4422 53.0118ZM41.1622 51.5643C39.9555 51.5643 38.7739 52.0168 37.8926 52.9993L42.1462 56.815C42.0265 56.9484 41.8548 57.0813 41.6405 57.1724C41.4317 57.2611 41.2574 57.2786 41.1622 57.2786V51.5643ZM37.877 53.0168C37.0374 53.9683 36.7336 55.1138 36.7336 56.1786H42.4479C42.4479 56.1751 42.4484 56.2529 42.4054 56.3805C42.3598 56.5157 42.2794 56.6641 42.1618 56.7975L37.877 53.0168ZM41.1309 53.7721L40.4167 53.3149L37.3364 58.1279L38.0506 58.5851L41.1309 53.7721ZM41.7337 55.7214C41.7337 55.6997 41.736 55.7128 41.7261 55.7497C41.7157 55.7882 41.6979 55.8301 41.6751 55.8672L36.8065 52.8756C36.263 53.7602 36.0194 54.7368 36.0194 55.7214H41.7337ZM41.6751 55.8672C41.6696 55.8761 41.6566 55.8941 41.6364 55.9132C41.6165 55.9322 41.6032 55.9393 41.6067 55.9374L38.8463 50.9341C38.0087 51.3962 37.3132 52.0509 36.8065 52.8756L41.6751 55.8672ZM41.6067 55.9374C41.5984 55.9419 41.5897 55.946 41.5813 55.9493C41.573 55.9525 41.5673 55.954 41.5654 55.9545C41.5635 55.9549 41.5673 55.9539 41.5778 55.9527C41.5884 55.9515 41.6067 55.95 41.6336 55.95V50.2357C40.6799 50.2357 39.7272 50.4481 38.8463 50.9341L41.6067 55.9374ZM41.6336 55.95C41.7054 55.95 41.7234 55.9577 41.7014 55.9522C41.6765 55.946 41.6219 55.9281 41.5548 55.8875L44.5125 50.9982C43.5936 50.4424 42.5905 50.2357 41.6336 50.2357V55.95ZM41.5771 55.9008C41.5338 55.8752 41.4809 55.8348 41.4306 55.7796C41.3807 55.7249 41.3522 55.6762 41.3392 55.6493L46.4852 53.165C46.0476 52.2584 45.3728 51.5079 44.4902 50.9849L41.5771 55.9008ZM41.3509 55.6731C41.3414 55.6539 41.3432 55.6507 41.348 55.6734C41.3532 55.6977 41.3622 55.7539 41.3622 55.85H47.0765C47.0765 54.9439 46.9057 54.0155 46.4736 53.1412L41.3509 55.6731ZM41.3622 55.846L41.3551 60.996L47.0694 61.004L47.0765 55.854L41.3622 55.846ZM44.2122 58.1429H42.7194V63.8571H44.2122V58.1429ZM53.0313 60.6786L51.3561 62.9931C51.3609 62.9966 51.3658 63 51.3706 63.0035L53.0313 60.6786ZM51.8956 59.2143L54.5311 58.111L51.8956 59.2143ZM51.8885 55.0571L49.2529 53.9539C49.2505 53.9597 49.2481 53.9655 49.2457 53.9713L51.8885 55.0571ZM53.017 53.6071L54.6735 55.9351L54.6777 55.9321L53.017 53.6071ZM56.7313 53.6071L55.1218 55.9678C55.13 55.9734 55.1382 55.9789 55.1465 55.9844L56.7313 53.6071ZM57.9527 55.0571L55.3621 56.2621L55.3657 56.2698L57.9527 55.0571ZM57.9527 59.2214L55.3586 58.0241L55.3545 58.0331L57.9527 59.2214ZM56.7456 60.6786L55.136 58.3179L55.126 58.3248L56.7456 60.6786ZM51.2599 61H48.4027C48.4027 62.578 49.6819 63.8571 51.2599 63.8571V61ZM51.2599 50.7143V47.8571C49.6819 47.8571 48.4027 49.1363 48.4027 50.7143H51.2599ZM52.7599 50.7143H55.617C55.617 49.1363 54.3378 47.8571 52.7599 47.8571V50.7143ZM52.7599 55.45V58.3071C54.3378 58.3071 55.617 57.028 55.617 55.45H52.7599ZM52.5885 55.45V52.5929C51.0105 52.5929 49.7313 53.872 49.7313 55.45H52.5885ZM52.5885 61V63.8571C54.1664 63.8571 55.4456 62.578 55.4456 61H52.5885ZM55.8599 59.5L54.1129 57.2392C54.1073 57.2435 54.1017 57.2478 54.0962 57.2522L55.8599 59.5ZM56.5599 58.5214L53.8885 57.5081C53.8863 57.5138 53.8842 57.5194 53.8821 57.525L56.5599 58.5214ZM56.5599 55.7643L53.8821 56.7607C53.8855 56.7697 53.8889 56.7788 53.8924 56.7879L56.5599 55.7643ZM55.8527 54.7857L57.5833 52.5123L57.5833 52.5123L55.8527 54.7857ZM53.4742 54.7643L51.7599 52.4786C51.7541 52.4829 51.7484 52.4873 51.7426 52.4916L53.4742 54.7643ZM52.8027 55.7214L50.1149 54.7526C50.1115 54.7618 50.1083 54.7711 50.105 54.7804L52.8027 55.7214ZM52.8027 58.55L55.5005 57.6089L52.8027 58.55ZM53.4813 59.5143L51.7614 61.7958V61.7958L53.4813 59.5143ZM54.8885 58.3571C54.7492 58.3571 54.6803 58.3403 54.6625 58.3351C54.649 58.3313 54.6657 58.3348 54.692 58.3536L51.3706 63.0035C52.4462 63.7718 53.6774 64.0714 54.8885 64.0714V58.3571ZM54.7066 58.3641C54.6654 58.3343 54.6021 58.2807 54.5311 58.111L49.26 60.3175C49.7033 61.3765 50.3972 62.299 51.3561 62.9931L54.7066 58.3641ZM54.5311 58.111C54.4416 57.8971 54.367 57.5877 54.367 57.1357H48.6527C48.6527 58.2266 48.8353 59.3029 49.26 60.3175L54.5311 58.111ZM54.367 57.1357C54.367 56.6773 54.4414 56.3617 54.5312 56.1429L49.2457 53.9713C48.8308 54.9812 48.6527 56.0513 48.6527 57.1357H54.367ZM54.524 56.1604C54.5957 55.989 54.6535 55.9493 54.6735 55.9351L51.3606 51.2792C50.3901 51.9697 49.6954 52.8967 49.2529 53.9539L54.524 56.1604ZM54.6777 55.9321C54.655 55.9483 54.6395 55.9521 54.6503 55.9489C54.6652 55.9446 54.7287 55.9286 54.8599 55.9286V50.2143C53.6493 50.2143 52.4258 50.5183 51.3563 51.2822L54.6777 55.9321ZM54.8599 55.9286C54.9861 55.9286 55.0556 55.944 55.0843 55.9522C55.1099 55.9595 55.1178 55.9651 55.1218 55.9678L58.3408 51.2465C57.2776 50.5216 56.0739 50.2143 54.8599 50.2143V55.9286ZM55.1465 55.9844C55.2092 56.0263 55.2823 56.0906 55.3621 56.2621L60.5434 53.8522C60.0517 52.7951 59.3105 51.8928 58.3162 51.2299L55.1465 55.9844ZM55.3657 56.2698C55.4482 56.4459 55.5242 56.7147 55.5242 57.1357H61.2384C61.2384 56.0044 61.0287 54.8875 60.5398 53.8445L55.3657 56.2698ZM55.5242 57.1357C55.5242 57.5482 55.4496 57.8269 55.3586 58.0241L60.5469 60.4187C61.0273 59.3778 61.2384 58.2661 61.2384 57.1357H55.5242ZM55.3545 58.0331C55.2753 58.206 55.2012 58.2735 55.1361 58.3179L58.3551 63.0392C59.3376 62.3694 60.0682 61.4654 60.551 60.4098L55.3545 58.0331ZM55.126 58.3248C55.1253 58.3253 55.1213 58.329 55.1001 58.3351C55.0759 58.3421 55.0107 58.3571 54.8885 58.3571V64.0714C56.1014 64.0714 57.3045 63.7622 58.3652 63.0323L55.126 58.3248ZM54.117 61V50.7143H48.4027V61H54.117ZM51.2599 53.5714H52.7599V47.8571H51.2599V53.5714ZM49.9027 50.7143V55.45H55.617V50.7143H49.9027ZM52.7599 52.5929H52.5885V58.3071H52.7599V52.5929ZM49.7313 55.45V61H55.4456V55.45H49.7313ZM52.5885 58.1429H51.2599V63.8571H52.5885V58.1429ZM54.6813 62.7214C55.6583 62.7214 56.7117 62.4633 57.6236 61.7478L54.0962 57.2522C54.2284 57.1485 54.3675 57.0811 54.4894 57.0435C54.6054 57.0076 54.6775 57.0071 54.6813 57.0071V62.7214ZM57.6069 61.7608C58.3851 61.1595 58.9185 60.3757 59.2377 59.5178L53.8821 57.525C53.8862 57.5142 53.9041 57.4706 53.9468 57.4109C53.9906 57.3497 54.0474 57.2898 54.1129 57.2392L57.6069 61.7608ZM59.2313 59.5347C59.5282 58.752 59.6527 57.9402 59.6527 57.1357H53.9384C53.9384 57.3502 53.9059 57.4622 53.8885 57.5081L59.2313 59.5347ZM59.6527 57.1357C59.6527 56.3331 59.5273 55.5223 59.2274 54.7407L53.8924 56.7879C53.9068 56.8254 53.9384 56.9288 53.9384 57.1357H59.6527ZM59.2377 54.7679C58.9143 53.8989 58.371 53.1119 57.5833 52.5123L54.1222 57.0592C54.0574 57.0098 53.9991 56.9497 53.953 56.8859C53.908 56.8237 53.8879 56.7764 53.8821 56.7607L59.2377 54.7679ZM57.5833 52.5123C56.6593 51.809 55.6017 51.5643 54.6313 51.5643V57.2786C54.647 57.2786 54.5925 57.2806 54.4915 57.2505C54.3848 57.2186 54.2529 57.1586 54.1222 57.0592L57.5833 52.5123ZM54.6313 51.5643C53.6886 51.5643 52.662 51.802 51.7599 52.4786L55.1884 57.05C55.0544 57.1506 54.9179 57.2127 54.8037 57.2466C54.6949 57.2788 54.6299 57.2786 54.6313 57.2786V51.5643ZM51.7426 52.4916C50.9406 53.1027 50.4196 53.9071 50.1149 54.7526L55.4906 56.6903C55.4883 56.6966 55.4698 56.7452 55.4203 56.8158C55.3691 56.8888 55.2972 56.9672 55.2057 57.0369L51.7426 52.4916ZM50.105 54.7804C49.8356 55.5528 49.7313 56.3529 49.7313 57.1357H55.4456C55.4456 56.8519 55.4842 56.7091 55.5005 56.6625L50.105 54.7804ZM49.7313 57.1357C49.7313 57.9186 49.8356 58.7186 50.105 59.4911L55.5005 57.6089C55.4842 57.5623 55.4456 57.4195 55.4456 57.1357H49.7313ZM50.105 59.4911C50.4111 60.3685 50.9479 61.1825 51.7614 61.7958L55.2012 57.2328C55.2873 57.2977 55.3605 57.3749 55.4161 57.4539C55.4702 57.5309 55.4936 57.5893 55.5005 57.6089L50.105 59.4911ZM51.7614 61.7958C52.6848 62.4919 53.7368 62.7214 54.6813 62.7214V57.0071C54.6603 57.0071 54.7124 57.0044 54.8134 57.0339C54.9205 57.0651 55.0597 57.1261 55.2012 57.2328L51.7614 61.7958ZM60.6727 61H57.8156C57.8156 62.578 59.0948 63.8571 60.6727 63.8571V61ZM60.6727 50.5V47.6429C59.0948 47.6429 57.8156 48.922 57.8156 50.5H60.6727ZM62.1656 50.5H65.0227C65.0227 48.922 63.7435 47.6429 62.1656 47.6429V50.5ZM62.1656 61V63.8571C63.7435 63.8571 65.0227 62.578 65.0227 61H62.1656ZM63.5299 61V50.5H57.8156V61H63.5299ZM60.6727 53.3571H62.1656V47.6429H60.6727V53.3571ZM59.3084 50.5V61H65.0227V50.5H59.3084ZM62.1656 58.1429H60.6727V63.8571H62.1656V58.1429ZM66.282 60.7143L64.836 63.1785C64.844 63.1832 64.852 63.1879 64.8601 63.1925L66.282 60.7143ZM64.932 59.3071L62.4049 60.6403C62.4091 60.6483 62.4134 60.6562 62.4176 60.6641L64.932 59.3071ZM64.9248 55.0143L62.3851 53.7054C62.3825 53.7105 62.3798 53.7157 62.3772 53.7209L64.9248 55.0143ZM66.2534 53.5786L64.7895 51.125L66.2534 53.5786ZM70.2391 53.6214L68.659 56.0019C68.6638 56.005 68.6685 56.0082 68.6733 56.0113L70.2391 53.6214ZM71.4748 55.1714L68.8259 56.2423C68.8281 56.2476 68.8303 56.253 68.8325 56.2583L71.4748 55.1714ZM71.8034 57.5643V60.4214C73.3129 60.4214 74.5619 59.2473 74.6551 57.7407L71.8034 57.5643ZM70.3105 57.5643H67.4534C67.4534 59.1422 68.7326 60.4214 70.3105 60.4214V57.5643ZM70.3105 57.0214H73.1677C73.1677 57.0113 73.1676 57.0012 73.1675 56.991L70.3105 57.0214ZM69.7963 55.0357L67.5288 56.7741C67.5328 56.7794 67.5369 56.7846 67.541 56.7898L69.7963 55.0357ZM66.6034 55.1L68.8367 56.8821L66.6034 55.1ZM66.6034 59.1143L64.379 60.9074C64.382 60.9111 64.385 60.9149 64.388 60.9186L66.6034 59.1143ZM69.4391 59.4929L70.9442 61.9215L70.9534 61.9157L69.4391 59.4929ZM70.2391 58.5786L71.1027 55.8551C69.7475 55.4254 68.2825 56.0574 67.6653 57.3382L70.2391 58.5786ZM71.7034 59.0429L74.3239 60.1814C74.6462 59.4396 74.639 58.596 74.3041 57.8598C73.9692 57.1236 73.3379 56.5638 72.567 56.3193L71.7034 59.0429ZM70.3391 60.65L71.8397 63.0814C71.8443 63.0785 71.8488 63.0757 71.8534 63.0729L70.3391 60.65ZM65.5534 57.5643H62.6963C62.6963 59.1422 63.9754 60.4214 65.5534 60.4214V57.5643ZM65.5534 56.4V53.5429C63.9754 53.5429 62.6963 54.822 62.6963 56.4H65.5534ZM71.0605 56.4H73.9177C73.9177 54.822 72.6385 53.5429 71.0605 53.5429V56.4ZM71.0605 57.5643V60.4214C72.6385 60.4214 73.9177 59.1422 73.9177 57.5643H71.0605ZM68.3034 58.3571C67.9624 58.3571 67.7927 58.2871 67.7039 58.2361L64.8601 63.1925C65.9331 63.8082 67.111 64.0714 68.3034 64.0714V58.3571ZM67.7279 58.25C67.6121 58.1821 67.5273 58.1003 67.4463 57.9502L62.4176 60.6641C62.9842 61.714 63.7995 62.5703 64.836 63.1785L67.7279 58.25ZM67.459 57.974C67.3896 57.8425 67.3105 57.6138 67.3105 57.2071H61.5963C61.5963 58.391 61.8362 59.5623 62.4049 60.6403L67.459 57.974ZM67.3105 57.2071C67.3105 56.7188 67.4007 56.4491 67.4725 56.3077L62.3772 53.7209C61.8204 54.8176 61.5963 56.0098 61.5963 57.2071H67.3105ZM67.4645 56.3232C67.5532 56.1512 67.635 56.0813 67.7173 56.0322L64.7895 51.125C63.7384 51.7521 62.9346 52.6393 62.3851 53.7054L67.4645 56.3232ZM67.7173 56.0322C67.7821 55.9935 67.9213 55.9286 68.232 55.9286V50.2143C67.0378 50.2143 65.8581 50.4874 64.7895 51.125L67.7173 56.0322ZM68.232 55.9286C68.5615 55.9286 68.6561 55.9999 68.659 56.0019L71.8192 51.241C70.7174 50.5096 69.4739 50.2143 68.232 50.2143V55.9286ZM68.6733 56.0113C68.6917 56.0233 68.7506 56.056 68.8259 56.2423L74.1237 54.1006C73.6562 52.944 72.8913 51.9433 71.8049 51.2315L68.6733 56.0113ZM68.8325 56.2583C68.9054 56.4356 68.9893 56.7807 68.9517 57.3879L74.6551 57.7407C74.7318 56.5002 74.5966 55.2501 74.1172 54.0845L68.8325 56.2583ZM71.8034 54.7071H70.3105V60.4214H71.8034V54.7071ZM73.1677 57.5643V57.0214H67.4534V57.5643H73.1677ZM73.1675 56.991C73.1553 55.8423 72.9469 54.4328 72.0516 53.2816L67.541 56.7898C67.4151 56.628 67.3964 56.5216 67.4089 56.5699C67.4219 56.6201 67.4506 56.7688 67.4536 57.0518L73.1675 56.991ZM72.0637 53.2973C71.0599 51.988 69.6066 51.5357 68.2891 51.5357V57.25C68.3309 57.25 68.2289 57.257 68.0521 57.1816C67.8563 57.0981 67.6673 56.9547 67.5288 56.7741L72.0637 53.2973ZM68.2891 51.5357C66.9014 51.5357 65.4168 52.0062 64.3701 53.3179L68.8367 56.8821C68.7229 57.0246 68.568 57.139 68.4122 57.2044C68.2735 57.2626 68.2111 57.25 68.2891 57.25V51.5357ZM64.3701 53.3179C63.4371 54.4871 63.182 55.9021 63.182 57.1429H68.8963C68.8963 56.8912 68.9237 56.7632 68.9342 56.725C68.9428 56.6937 68.927 56.7689 68.8367 56.8821L64.3701 53.3179ZM63.182 57.1429C63.182 58.3779 63.4533 59.7591 64.379 60.9074L68.8278 57.3212C68.9107 57.424 68.9306 57.4978 68.927 57.4852C68.9212 57.4649 68.8963 57.3617 68.8963 57.1429H63.182ZM64.388 60.9186C65.4123 62.1762 66.8455 62.6643 68.232 62.6643V56.95C68.1853 56.95 68.2649 56.9426 68.4112 57.0048C68.5713 57.0729 68.7167 57.1847 68.8188 57.31L64.388 60.9186ZM68.232 62.6643C69.137 62.6643 70.0807 62.4566 70.9442 61.9215L67.9341 57.0643C68.0193 57.0115 68.1006 56.9801 68.1639 56.9636C68.2244 56.9478 68.2516 56.95 68.232 56.95V62.6643ZM70.9534 61.9157C71.793 61.391 72.4089 60.6575 72.813 59.819L67.6653 57.3382C67.6725 57.3232 67.6965 57.2788 67.746 57.2221C67.7967 57.1642 67.8585 57.1114 67.9248 57.07L70.9534 61.9157ZM69.3756 61.3021L70.8398 61.7664L72.567 56.3193L71.1027 55.8551L69.3756 61.3021ZM69.0829 57.9043C69.0017 58.0912 68.9202 58.1676 68.8248 58.2271L71.8534 63.0729C72.9771 62.3705 73.8051 61.3754 74.3239 60.1814L69.0829 57.9043ZM68.8385 58.2186C68.7003 58.304 68.5453 58.3571 68.3034 58.3571V64.0714C69.5567 64.0714 70.7589 63.7484 71.8397 63.0814L68.8385 58.2186ZM68.4105 57.5643V56.4H62.6963V57.5643H68.4105ZM65.5534 59.2571H71.0605V53.5429H65.5534V59.2571ZM68.2034 56.4V57.5643H73.9177V56.4H68.2034ZM71.0605 54.7071H65.5534V60.4214H71.0605V54.7071ZM73.9774 61H71.1203C71.1203 62.578 72.3994 63.8571 73.9774 63.8571V61ZM73.9774 53.2857V50.4286C72.3994 50.4286 71.1203 51.7078 71.1203 53.2857H73.9774ZM75.306 53.2857H78.1631C78.1631 51.7078 76.8839 50.4286 75.306 50.4286V53.2857ZM75.306 55.1571L73.0364 56.8927C73.7804 57.8657 75.0619 58.2562 76.2221 57.8634C77.3823 57.4706 78.1631 56.382 78.1631 55.1571H75.306ZM75.1203 54.9143L72.4536 53.8886C72.0971 54.8155 72.2474 55.861 72.8507 56.6499L75.1203 54.9143ZM75.4917 54.2357L77.7838 55.9415C77.79 55.9331 77.7962 55.9247 77.8024 55.9162L75.4917 54.2357ZM76.0203 53.7214L77.6051 56.0987C77.6397 56.0756 77.6739 56.0518 77.7074 56.0272L76.0203 53.7214ZM76.6703 53.3929L77.541 56.1141C77.552 56.1106 77.5629 56.107 77.5738 56.1034L76.6703 53.3929ZM77.4131 53.25L77.5746 56.1026C77.5924 56.1016 77.6103 56.1004 77.6281 56.099L77.4131 53.25ZM78.1417 53.2857H80.9988C80.9988 51.9068 80.014 50.7247 78.6578 50.4756L78.1417 53.2857ZM78.1417 54.6857L77.412 57.4481C78.2691 57.6745 79.1827 57.4902 79.885 56.9493C80.5874 56.4085 80.9988 55.5722 80.9988 54.6857H78.1417ZM77.2988 54.6286L77.0362 51.7835L77.0321 51.7839L77.2988 54.6286ZM76.456 54.9214L78.0081 57.3202L78.01 57.319L76.456 54.9214ZM75.8774 55.4929L73.4691 53.9556C73.4612 53.9679 73.4535 53.9802 73.4459 53.9925L75.8774 55.4929ZM75.5774 56.2429L78.363 56.8782L78.3654 56.8677L75.5774 56.2429ZM75.4845 61V63.8571C77.0625 63.8571 78.3417 62.578 78.3417 61H75.4845ZM76.8345 61V53.2857H71.1203V61H76.8345ZM73.9774 56.1429H75.306V50.4286H73.9774V56.1429ZM72.4488 53.2857V55.1571H78.1631V53.2857H72.4488ZM77.5756 53.4216L77.3899 53.1787L72.8507 56.6499L73.0364 56.8927L77.5756 53.4216ZM77.787 55.9399C77.7902 55.9316 77.7918 55.929 77.7908 55.9308C77.7898 55.9326 77.7874 55.9366 77.7838 55.9415L73.1996 52.53C72.886 52.9514 72.6384 53.4079 72.4536 53.8886L77.787 55.9399ZM77.8024 55.9162C77.7715 55.9587 77.7075 56.0304 77.6051 56.0987L74.4354 51.3441C73.933 51.6791 73.5167 52.0937 73.181 52.5552L77.8024 55.9162ZM77.7074 56.0272C77.6464 56.0719 77.5858 56.0998 77.541 56.1141L75.7995 50.6716C75.2785 50.8383 74.7846 51.0853 74.3331 51.4156L77.7074 56.0272ZM77.5738 56.1034C77.5779 56.102 77.579 56.1019 77.5777 56.1022C77.5763 56.1024 77.575 56.1026 77.5746 56.1026L77.2516 50.3974C76.7435 50.4262 76.2465 50.5224 75.7668 50.6823L77.5738 56.1034ZM77.6281 56.099C77.641 56.0981 77.6462 56.0984 77.6447 56.0984C77.643 56.0983 77.6362 56.0978 77.6255 56.0958L78.6578 50.4756C78.1679 50.3856 77.6786 50.3647 77.1981 50.401L77.6281 56.099ZM75.2845 53.2857V54.6857H80.9988V53.2857H75.2845ZM78.8714 51.9233C78.2405 51.7567 77.6168 51.7299 77.0362 51.7835L77.5615 57.4736C77.5999 57.4701 77.5381 57.4814 77.412 57.4481L78.8714 51.9233ZM77.0321 51.7839C76.268 51.8555 75.5454 52.1068 74.902 52.5238L78.01 57.319C77.9518 57.3567 77.8801 57.3933 77.7973 57.4221C77.7145 57.4509 77.6352 57.4667 77.5655 57.4732L77.0321 51.7839ZM74.9038 52.5227C74.3482 52.8821 73.8514 53.3566 73.4691 53.9556L78.2858 57.0301C78.1891 57.1815 78.078 57.275 78.0081 57.3202L74.9038 52.5227ZM73.4459 53.9925C73.1289 54.5062 72.9154 55.0559 72.7894 55.618L78.3654 56.8677C78.3632 56.8775 78.3497 56.9271 78.3089 56.9932L73.4459 53.9925ZM72.7918 55.6075C72.6781 56.106 72.6274 56.6086 72.6274 57.1071H78.3417C78.3417 56.9962 78.3529 56.9226 78.363 56.8782L72.7918 55.6075ZM72.6274 57.1071V61H78.3417V57.1071H72.6274ZM75.4845 58.1429H73.9774V63.8571H75.4845V58.1429Z" fill="#E89B05" mask="url(#path-9-outside-1_1117_12231)"/>
<defs>
<filter id="filter0_ii_1117_12231" x="12.2125" y="27.7857" width="71.6434" height="39.1429" filterUnits="userSpaceOnUse" color-interpolation-filters="sRGB">
<feFlood flood-opacity="0" result="BackgroundImageFix"/>
<feBlend mode="normal" in="SourceGraphic" in2="BackgroundImageFix" result="shape"/>
<feColorMatrix in="SourceAlpha" type="matrix" values="0 0 0 0 0 0 0 0 0 0 0 0 0 0 0 0 0 0 127 0" result="hardAlpha"/>
<feOffset dx="5.71429" dy="5.71429"/>
<feGaussianBlur stdDeviation="2.85714"/>
<feComposite in2="hardAlpha" operator="arithmetic" k2="-1" k3="1"/>
<feColorMatrix type="matrix" values="0 0 0 0 0 0 0 0 0 0 0 0 0 0 0 0 0 0 0.25 0"/>
<feBlend mode="normal" in2="shape" result="effect1_innerShadow_1117_12231"/>
<feColorMatrix in="SourceAlpha" type="matrix" values="0 0 0 0 0 0 0 0 0 0 0 0 0 0 0 0 0 0 127 0" result="hardAlpha"/>
<feOffset dx="-5.71429" dy="-5.71429"/>
<feGaussianBlur stdDeviation="5.71429"/>
<feComposite in2="hardAlpha" operator="arithmetic" k2="-1" k3="1"/>
<feColorMatrix type="matrix" values="0 0 0 0 0.983333 0 0 0 0 0.954653 0 0 0 0 0.954653 0 0 0 0.25 0"/>
<feBlend mode="normal" in2="effect1_innerShadow_1117_12231" result="effect2_innerShadow_1117_12231"/>
</filter>
</defs>
</svg>
