<svg width="20" height="20" viewBox="0 0 20 20" fill="none" xmlns="http://www.w3.org/2000/svg">
<path fill-rule="evenodd" clip-rule="evenodd" d="M17.0833 10.0013C17.0833 13.9133 13.912 17.0846 9.99996 17.0846C6.08794 17.0846 2.91663 13.9133 2.91663 10.0013C2.91663 6.08929 6.08794 2.91797 9.99996 2.91797C13.912 2.91797 17.0833 6.08929 17.0833 10.0013ZM18.3333 10.0013C18.3333 14.6037 14.6023 18.3346 9.99996 18.3346C5.39759 18.3346 1.66663 14.6037 1.66663 10.0013C1.66663 5.39893 5.39759 1.66797 9.99996 1.66797C14.6023 1.66797 18.3333 5.39893 18.3333 10.0013ZM10.6251 11.7413H9.15513V11.5546C9.15513 10.843 9.38846 10.3996 10.1585 9.7813C10.9285 9.16297 11.2318 8.75464 11.2318 8.15964C11.2318 7.55297 10.7301 7.16797 10.0185 7.16797C9.3068 7.16797 8.70013 7.59964 8.70013 8.32297C8.70013 8.47464 8.73513 8.63797 8.7818 8.75464L7.44013 9.03464C7.33513 8.81297 7.2768 8.54464 7.2768 8.19464C7.2768 7.02797 8.31513 5.83797 9.98346 5.83797C11.6751 5.83797 12.6785 6.7363 12.6785 8.05464C12.6785 8.98797 12.3401 9.55964 11.1735 10.563C10.7535 10.9246 10.6251 11.228 10.6251 11.7413ZM10.6601 14.168H9.12013V12.558H10.6601V14.168Z" fill="#C5C5C7"/>
</svg>
