<svg width="36" height="36" viewBox="0 0 36 36" fill="none" xmlns="http://www.w3.org/2000/svg">
<path fill-rule="evenodd" clip-rule="evenodd" d="M25.0833 18.0013C25.0833 21.9133 21.912 25.0846 18 25.0846C14.0879 25.0846 10.9166 21.9133 10.9166 18.0013C10.9166 14.0893 14.0879 10.918 18 10.918C21.912 10.918 25.0833 14.0893 25.0833 18.0013ZM26.3333 18.0013C26.3333 22.6037 22.6023 26.3346 18 26.3346C13.3976 26.3346 9.66663 22.6037 9.66663 18.0013C9.66663 13.3989 13.3976 9.66797 18 9.66797C22.6023 9.66797 26.3333 13.3989 26.3333 18.0013ZM18.6251 19.7413H17.1551V19.5546C17.1551 18.843 17.3885 18.3996 18.1585 17.7813C18.9285 17.163 19.2318 16.7546 19.2318 16.1596C19.2318 15.553 18.7301 15.168 18.0185 15.168C17.3068 15.168 16.7001 15.5996 16.7001 16.323C16.7001 16.4746 16.7351 16.638 16.7818 16.7546L15.4401 17.0346C15.3351 16.813 15.2768 16.5446 15.2768 16.1946C15.2768 15.028 16.3151 13.838 17.9835 13.838C19.6751 13.838 20.6785 14.7363 20.6785 16.0546C20.6785 16.988 20.3401 17.5596 19.1735 18.563C18.7535 18.9246 18.6251 19.228 18.6251 19.7413ZM18.6601 22.168H17.1201V20.558H18.6601V22.168Z" fill="#01252C"/>
</svg>
