<svg width="20" height="20" viewBox="0 0 20 20" fill="none" xmlns="http://www.w3.org/2000/svg">
<path fill-rule="evenodd" clip-rule="evenodd" d="M15.4105 9.15251L14.5967 9.45551V10.324V15.0004C14.5967 15.6908 14.037 16.2504 13.3467 16.2504H12.5V16.25V11.6667C12.5 10.7462 11.7538 10 10.8333 10H9.16663C8.24615 10 7.49996 10.7462 7.49996 11.6667V16.25V16.2504H6.66057C5.97021 16.2504 5.41057 15.6908 5.41057 15.0004V10.324V9.45464L4.59561 9.1521L3.3715 8.69766L10.0017 3.84957L16.6289 8.69888L15.4105 9.15251ZM17.7901 9.60041L15.8467 10.324V15.0004C15.8467 16.3812 14.7274 17.5004 13.3467 17.5004H6.66057C5.27986 17.5004 4.16057 16.3812 4.16057 15.0004V10.324L2.21011 9.59987C1.58757 9.36876 1.47223 8.5379 2.00826 8.14595L9.50994 2.66065C9.80296 2.44639 10.201 2.44646 10.4939 2.66081L17.9914 8.14692C18.5269 8.53878 18.4119 9.36888 17.7901 9.60041ZM9.16663 11.25H10.8333C11.0634 11.25 11.25 11.4365 11.25 11.6667V16.25H8.74996V11.6667C8.74996 11.4365 8.93651 11.25 9.16663 11.25Z" fill="#C5C5C7"/>
</svg>
