<svg width="36" height="36" viewBox="0 0 36 36" fill="none" xmlns="http://www.w3.org/2000/svg">
<path fill-rule="evenodd" clip-rule="evenodd" d="M23.4105 17.1525L22.5967 17.4555V18.324V23.0004C22.5967 23.6908 22.037 24.2504 21.3467 24.2504H20.5V24.25V19.6667C20.5 18.7462 19.7538 18 18.8333 18H17.1666C16.2462 18 15.5 18.7462 15.5 19.6667V24.25V24.2504H14.6606C13.9702 24.2504 13.4106 23.6908 13.4106 23.0004V18.324V17.4546L12.5956 17.1521L11.3715 16.6977L18.0017 11.8496L24.6289 16.6989L23.4105 17.1525ZM25.7901 17.6004L23.8467 18.324V23.0004C23.8467 24.3812 22.7274 25.5004 21.3467 25.5004H14.6606C13.2799 25.5004 12.1606 24.3812 12.1606 23.0004V18.324L10.2101 17.5999C9.58757 17.3688 9.47223 16.5379 10.0083 16.1459L17.5099 10.6606C17.803 10.4464 18.201 10.4465 18.4939 10.6608L25.9914 16.1469C26.5269 16.5388 26.4119 17.3689 25.7901 17.6004ZM17.1666 19.25H18.8333C19.0634 19.25 19.25 19.4365 19.25 19.6667V24.25H16.75V19.6667C16.75 19.4365 16.9365 19.25 17.1666 19.25Z" fill="#01252C"/>
</svg>
