<svg width="32" height="32" viewBox="0 0 32 32" fill="none" xmlns="http://www.w3.org/2000/svg">
<path d="M16.0007 22.6654C16.7079 22.6654 17.3862 22.3844 17.8863 21.8843C18.3864 21.3842 18.6673 20.7059 18.6673 19.9987C18.6673 19.2915 18.3864 18.6132 17.8863 18.1131C17.3862 17.613 16.7079 17.332 16.0007 17.332C15.2934 17.332 14.6151 17.613 14.115 18.1131C13.6149 18.6132 13.334 19.2915 13.334 19.9987C13.334 20.7059 13.6149 21.3842 14.115 21.8843C14.6151 22.3844 15.2934 22.6654 16.0007 22.6654ZM24.0007 10.6654C24.7079 10.6654 25.3862 10.9463 25.8863 11.4464C26.3864 11.9465 26.6673 12.6248 26.6673 13.332V26.6654C26.6673 27.3726 26.3864 28.0509 25.8863 28.551C25.3862 29.0511 24.7079 29.332 24.0007 29.332H8.00065C7.29341 29.332 6.61513 29.0511 6.11503 28.551C5.61494 28.0509 5.33398 27.3726 5.33398 26.6654V13.332C5.33398 12.6248 5.61494 11.9465 6.11503 11.4464C6.61513 10.9463 7.29341 10.6654 8.00065 10.6654H9.33398V7.9987C9.33398 6.23059 10.0364 4.5349 11.2866 3.28465C12.5368 2.03441 14.2325 1.33203 16.0007 1.33203C16.8761 1.33203 17.743 1.50447 18.5519 1.8395C19.3607 2.17453 20.0956 2.6656 20.7147 3.28465C21.3338 3.90371 21.8248 4.63864 22.1598 5.44747C22.4949 6.25631 22.6673 7.12322 22.6673 7.9987V10.6654H24.0007ZM16.0007 3.9987C14.9398 3.9987 13.9224 4.42013 13.1722 5.17027C12.4221 5.92042 12.0007 6.93783 12.0007 7.9987V10.6654H20.0007V7.9987C20.0007 6.93783 19.5792 5.92042 18.8291 5.17027C18.0789 4.42013 17.0615 3.9987 16.0007 3.9987Z" fill="#88DF95"/>
</svg>
