<svg width="36" height="36" viewBox="0 0 36 36" fill="none" xmlns="http://www.w3.org/2000/svg">
<path fill-rule="evenodd" clip-rule="evenodd" d="M14.25 22.1919V22.7503V24.3748L15.6811 23.4362L16.1225 23.1468L16.6379 23.2611C17.0752 23.3582 17.5309 23.4096 18 23.4096C21.4518 23.4096 24.25 20.6131 24.25 17.1634C24.25 13.7137 21.4518 10.9172 18 10.9172C14.5482 10.9172 11.75 13.7137 11.75 17.1634C11.75 19.0132 12.553 20.6739 13.8336 21.8194L14.25 22.1919ZM14.25 25.8691L14.2487 25.8699L14.1761 25.9175L13.6453 26.2657C13.3682 26.4474 13 26.2488 13 25.9175V25.283V25.1962V25.1947V22.7503C11.4656 21.3778 10.5 19.3833 10.5 17.1634C10.5 13.0238 13.8579 9.66797 18 9.66797C22.1421 9.66797 25.5 13.0238 25.5 17.1634C25.5 21.303 22.1421 24.6589 18 24.6589C17.4391 24.6589 16.8927 24.5973 16.3669 24.4807L14.25 25.8691ZM15.0836 17.9967C14.6235 17.9967 14.2505 17.6238 14.2505 17.1637C14.2505 16.7036 14.6235 16.3306 15.0836 16.3306C15.5437 16.3306 15.9167 16.7036 15.9167 17.1637C15.9167 17.6238 15.5437 17.9967 15.0836 17.9967ZM17.1672 17.1637C17.1672 17.6238 17.5402 17.9967 18.0003 17.9967C18.4604 17.9967 18.8333 17.6238 18.8333 17.1637C18.8333 16.7036 18.4604 16.3306 18.0003 16.3306C17.5402 16.3306 17.1672 16.7036 17.1672 17.1637ZM20.0838 17.1637C20.0838 17.6238 20.4568 17.9967 20.9169 17.9967C21.377 17.9967 21.75 17.6238 21.75 17.1637C21.75 16.7036 21.377 16.3306 20.9169 16.3306C20.4568 16.3306 20.0838 16.7036 20.0838 17.1637Z" fill="#01252C"/>
</svg>
