<svg width="20" height="20" viewBox="0 0 20 20" fill="none" xmlns="http://www.w3.org/2000/svg">
<path fill-rule="evenodd" clip-rule="evenodd" d="M6.25 14.1919V14.7503V16.3748L7.68112 15.4362L8.12251 15.1468L8.63791 15.2611C9.07524 15.3582 9.53087 15.4096 10 15.4096C13.4518 15.4096 16.25 12.6131 16.25 9.16341C16.25 5.71373 13.4518 2.91721 10 2.91721C6.54822 2.91721 3.75 5.71373 3.75 9.16341C3.75 11.0132 4.553 12.6739 5.83364 13.8194L6.25 14.1919ZM6.25 17.8691L6.24872 17.8699L6.1761 17.9175L5.64527 18.2657C5.36819 18.4474 5 18.2488 5 17.9175V17.283V17.1962V17.1947V14.7503C3.46563 13.3778 2.5 11.3833 2.5 9.16341C2.5 5.02379 5.85786 1.66797 10 1.66797C14.1421 1.66797 17.5 5.02379 17.5 9.16341C17.5 13.303 14.1421 16.6589 10 16.6589C9.43914 16.6589 8.89265 16.5973 8.36694 16.4807L6.25 17.8691ZM7.08359 9.99675C6.62349 9.99675 6.25051 9.62376 6.25051 9.16367C6.25051 8.70357 6.62349 8.33059 7.08359 8.33059C7.54368 8.33059 7.91667 8.70357 7.91667 9.16367C7.91667 9.62376 7.54368 9.99675 7.08359 9.99675ZM9.16717 9.16367C9.16717 9.62376 9.54016 9.99675 10.0003 9.99675C10.4604 9.99675 10.8333 9.62376 10.8333 9.16367C10.8333 8.70357 10.4604 8.33059 10.0003 8.33059C9.54016 8.33059 9.16717 8.70357 9.16717 9.16367ZM12.0838 9.16367C12.0838 9.62376 12.4568 9.99675 12.9169 9.99675C13.377 9.99675 13.75 9.62376 13.75 9.16367C13.75 8.70357 13.377 8.33059 12.9169 8.33059C12.4568 8.33059 12.0838 8.70357 12.0838 9.16367Z" fill="#C5C5C7"/>
</svg>
