<svg width="96" height="96" viewBox="0 0 96 96" fill="none" xmlns="http://www.w3.org/2000/svg">
<path d="M92 48C92 72.3005 72.3005 92 48 92C23.6995 92 4 72.3005 4 48C4 23.6995 23.6995 4 48 4C72.3005 4 92 23.6995 92 48Z" fill="#FFC974"/>
<path fill-rule="evenodd" clip-rule="evenodd" d="M95.2597 48C95.2597 74.1006 74.101 95.2592 48.0005 95.2592C21.8999 95.2592 0.741211 74.1006 0.741211 48C0.741211 21.8994 21.8999 0.740723 48.0005 0.740723C74.101 0.740723 95.2597 21.8994 95.2597 48ZM48.0005 92C72.301 92 92.0005 72.3005 92.0005 48C92.0005 23.6995 72.301 3.99998 48.0005 3.99998C23.6999 3.99998 4.00047 23.6995 4.00047 48C4.00047 72.3005 23.6999 92 48.0005 92Z" fill="#FF9800"/>
<path fill-rule="evenodd" clip-rule="evenodd" d="M7.25951 49.6296C6.35949 49.6296 5.62988 48.9 5.62988 48C5.62989 24.5995 24.5997 5.62964 48.0003 5.62964C48.9003 5.62964 49.6299 6.35925 49.6299 7.25927C49.6299 8.15929 48.9003 8.8889 48.0003 8.8889C26.3998 8.88889 8.88914 26.3995 8.88914 48C8.88914 48.9 8.15953 49.6296 7.25951 49.6296Z" fill="#FDD396"/>
<path fill-rule="evenodd" clip-rule="evenodd" d="M88.7405 46.3704C89.6405 46.3704 90.3701 47.1 90.3701 48C90.3701 71.4005 71.4003 90.3704 47.9997 90.3704C47.0997 90.3704 46.3701 89.6408 46.3701 88.7407C46.3701 87.8407 47.0997 87.1111 47.9997 87.1111C69.6002 87.1111 87.1109 69.6005 87.1109 48C87.1109 47.1 87.8405 46.3704 88.7405 46.3704Z" fill="#FFB74E"/>
<path d="M80.5924 48C80.5924 66.0004 66.0002 80.5926 47.9998 80.5926C29.9994 80.5926 15.4072 66.0004 15.4072 48C15.4072 29.9996 29.9994 15.4074 47.9998 15.4074C66.0002 15.4074 80.5924 29.9996 80.5924 48Z" fill="#FFC974"/>
<path fill-rule="evenodd" clip-rule="evenodd" d="M83.8521 48C83.8521 67.8004 67.8007 83.8518 48.0003 83.8518C28.1999 83.8518 12.1484 67.8004 12.1484 48C12.1484 28.1996 28.1999 12.1481 48.0003 12.1481C67.8007 12.1481 83.8521 28.1996 83.8521 48ZM48.0003 80.5926C66.0007 80.5926 80.5929 66.0004 80.5929 48C80.5929 29.9996 66.0007 15.4074 48.0003 15.4074C29.9999 15.4074 15.4077 29.9996 15.4077 48C15.4077 66.0004 29.9999 80.5926 48.0003 80.5926Z" fill="#FF9800"/>
<path fill-rule="evenodd" clip-rule="evenodd" d="M47.9999 75.7037C63.3003 75.7037 75.7036 63.3003 75.7036 48C75.7036 47.1 76.4332 46.3704 77.3333 46.3704C78.2333 46.3704 78.9629 47.1 78.9629 48C78.9629 65.1004 65.1003 78.963 47.9999 78.9629C47.0999 78.9629 46.3703 78.2333 46.3703 77.3333C46.3703 76.4333 47.0999 75.7037 47.9999 75.7037Z" fill="#FFB74E"/>
<path fill-rule="evenodd" clip-rule="evenodd" d="M48.0001 20.2963C32.6997 20.2963 20.2964 32.6997 20.2964 48C20.2964 48.9 19.5668 49.6296 18.6667 49.6296C17.7667 49.6296 17.0371 48.9 17.0371 48C17.0371 30.8996 30.8997 17.037 48.0001 17.037C48.9001 17.037 49.6297 17.7667 49.6297 18.6667C49.6297 19.5667 48.9001 20.2963 48.0001 20.2963Z" fill="#FFE5BE"/>
<mask id="path-9-outside-1_1117_12192" maskUnits="userSpaceOnUse" x="11" y="30" width="76" height="38" fill="black">
<rect fill="white" x="11" y="30" width="76" height="38"/>
<path d="M24.8641 44V33.7143H26.3784L31.4427 41.3571V33.7143H32.957V44H31.4427L26.3784 36.35V44H24.8641ZM38.872 44.2143C38.1006 44.2143 37.4316 44.0405 36.8649 43.6929C36.2982 43.3452 35.8601 42.8667 35.5506 42.2571C35.2459 41.6429 35.0935 40.9357 35.0935 40.1357C35.0935 39.331 35.2506 38.6238 35.5649 38.0143C35.8792 37.4 36.3197 36.9238 36.8863 36.5857C37.453 36.2429 38.1149 36.0714 38.872 36.0714C39.6435 36.0714 40.3125 36.2452 40.8792 36.5929C41.4459 36.9405 41.8839 37.419 42.1935 38.0286C42.503 38.6381 42.6578 39.3405 42.6578 40.1357C42.6578 40.9405 42.5006 41.65 42.1863 42.2643C41.8768 42.8738 41.4387 43.3524 40.872 43.7C40.3054 44.0429 39.6387 44.2143 38.872 44.2143ZM38.872 42.8071C39.6101 42.8071 40.1601 42.5595 40.522 42.0643C40.8887 41.5643 41.072 40.9214 41.072 40.1357C41.072 39.331 40.8863 38.6881 40.5149 38.2071C40.1482 37.7214 39.6006 37.4786 38.872 37.4786C38.372 37.4786 37.9601 37.5929 37.6363 37.8214C37.3125 38.0452 37.072 38.3571 36.9149 38.7571C36.7578 39.1524 36.6792 39.6119 36.6792 40.1357C36.6792 40.9452 36.8649 41.5929 37.2363 42.0786C37.6078 42.5643 38.153 42.8071 38.872 42.8071ZM46.6055 44L43.8055 36.2857H45.3127L47.3627 42.1286L49.4127 36.2857H50.9198L48.1198 44H46.6055ZM52.921 35.0214V33.5714H54.4139V35.0214H52.921ZM52.921 44V36.2857H54.4139V44H52.921ZM60.4303 44.2143C59.6398 44.2143 58.9684 44.0381 58.416 43.6857C57.8636 43.3333 57.4398 42.85 57.1446 42.2357C56.8541 41.6214 56.7065 40.9238 56.7017 40.1429C56.7065 39.3476 56.8589 38.6452 57.1589 38.0357C57.4589 37.4214 57.8874 36.9405 58.4446 36.5929C59.0017 36.2452 59.6708 36.0714 60.4517 36.0714C61.2946 36.0714 62.0136 36.281 62.6089 36.7C63.2089 37.119 63.6041 37.6929 63.7946 38.4214L62.3089 38.85C62.1613 38.4167 61.9184 38.081 61.5803 37.8429C61.247 37.6 60.8636 37.4786 60.4303 37.4786C59.9398 37.4786 59.5374 37.5952 59.2232 37.8286C58.9089 38.0571 58.6755 38.3714 58.5232 38.7714C58.3708 39.1714 58.2922 39.6286 58.2874 40.1429C58.2922 40.9381 58.4732 41.581 58.8303 42.0714C59.1922 42.5619 59.7255 42.8071 60.4303 42.8071C60.9113 42.8071 61.2994 42.6976 61.5946 42.4786C61.8946 42.2548 62.1232 41.9357 62.2803 41.5214L63.7946 41.8786C63.5422 42.631 63.1255 43.2095 62.5446 43.6143C61.9636 44.0143 61.2589 44.2143 60.4303 44.2143ZM69.0333 44.2143C68.2667 44.2143 67.5928 44.0476 67.0119 43.7143C66.4357 43.3762 65.9857 42.9071 65.6619 42.3071C65.3428 41.7024 65.1833 41.0024 65.1833 40.2071C65.1833 39.3643 65.3405 38.6333 65.6547 38.0143C65.9738 37.3952 66.4167 36.9167 66.9833 36.5786C67.55 36.2405 68.2095 36.0714 68.9619 36.0714C69.7476 36.0714 70.4167 36.2548 70.969 36.6214C71.5214 36.9833 71.9333 37.5 72.2047 38.1714C72.4809 38.8429 72.5905 39.6405 72.5333 40.5643H71.0405V40.0214C71.0309 39.1262 70.8595 38.4643 70.5262 38.0357C70.1976 37.6071 69.6952 37.3929 69.019 37.3929C68.2714 37.3929 67.7095 37.6286 67.3333 38.1C66.9571 38.5714 66.769 39.2524 66.769 40.1429C66.769 40.9905 66.9571 41.6476 67.3333 42.1143C67.7095 42.5762 68.2524 42.8071 68.9619 42.8071C69.4286 42.8071 69.8309 42.7024 70.169 42.4929C70.5119 42.2786 70.7786 41.9738 70.969 41.5786L72.4333 42.0429C72.1333 42.7333 71.6786 43.269 71.069 43.65C70.4595 44.0262 69.7809 44.2143 69.0333 44.2143ZM66.2833 40.5643V39.4H71.7905V40.5643H66.2833ZM14.1367 61V50.7143H15.651L20.7153 58.3571V50.7143H22.2296V61H20.7153L15.651 53.35V61H14.1367ZM26.9732 61.2143C26.4018 61.2143 25.9232 61.1095 25.5375 60.9C25.1518 60.6857 24.8589 60.4048 24.6589 60.0571C24.4637 59.7048 24.3661 59.319 24.3661 58.9C24.3661 58.5095 24.4351 58.1667 24.5732 57.8714C24.7113 57.5762 24.9161 57.3262 25.1875 57.1214C25.4589 56.9119 25.7923 56.7429 26.1875 56.6143C26.5304 56.5143 26.9184 56.4262 27.3518 56.35C27.7851 56.2738 28.2399 56.2024 28.7161 56.1357C29.197 56.069 29.6732 56.0024 30.1446 55.9357L29.6018 56.2357C29.6113 55.631 29.4827 55.1833 29.2161 54.8929C28.9542 54.5976 28.5018 54.45 27.8589 54.45C27.4542 54.45 27.0827 54.5452 26.7446 54.7357C26.4065 54.9214 26.1708 55.231 26.0375 55.6643L24.6446 55.2357C24.8351 54.5738 25.197 54.0476 25.7304 53.6571C26.2684 53.2667 26.9827 53.0714 27.8732 53.0714C28.5637 53.0714 29.1637 53.1905 29.6732 53.4286C30.1875 53.6619 30.5637 54.0333 30.8018 54.5429C30.9256 54.7952 31.0018 55.0619 31.0304 55.3429C31.0589 55.6238 31.0732 55.9262 31.0732 56.25V61H29.7518V59.2357L30.0089 59.4643C29.6899 60.0548 29.2827 60.4952 28.7875 60.7857C28.297 61.0714 27.6923 61.2143 26.9732 61.2143ZM27.2375 59.9929C27.6613 59.9929 28.0256 59.919 28.3304 59.7714C28.6351 59.619 28.8804 59.4262 29.0661 59.1929C29.2518 58.9595 29.3732 58.7167 29.4304 58.4643C29.5113 58.2357 29.5565 57.9786 29.5661 57.6929C29.5804 57.4071 29.5875 57.1786 29.5875 57.0071L30.0732 57.1857C29.6018 57.2571 29.1732 57.3214 28.7875 57.3786C28.4018 57.4357 28.0518 57.4929 27.7375 57.55C27.428 57.6024 27.1518 57.6667 26.9089 57.7429C26.7042 57.8143 26.5208 57.9 26.3589 58C26.2018 58.1 26.0756 58.2214 25.9804 58.3643C25.8899 58.5071 25.8446 58.681 25.8446 58.8857C25.8446 59.0857 25.8946 59.2714 25.9946 59.4429C26.0946 59.6095 26.247 59.7429 26.4518 59.8429C26.6565 59.9429 26.9184 59.9929 27.2375 59.9929ZM35.3061 61L32.5061 53.2857H34.0133L36.0633 59.1286L38.1133 53.2857H39.6204L36.8204 61H35.3061ZM41.6216 52.0214V50.5714H43.1145V52.0214H41.6216ZM41.6216 61V53.2857H43.1145V61H41.6216ZM49.0095 64.6429C48.5952 64.6429 48.1928 64.5786 47.8023 64.45C47.4166 64.3214 47.0642 64.131 46.7452 63.8786C46.4262 63.631 46.1619 63.3238 45.9523 62.9571L47.3309 62.2571C47.4976 62.5857 47.7357 62.8262 48.0452 62.9786C48.3547 63.131 48.6809 63.2071 49.0238 63.2071C49.4476 63.2071 49.8095 63.131 50.1095 62.9786C50.4095 62.831 50.6357 62.6071 50.7881 62.3071C50.9452 62.0071 51.0214 61.6357 51.0166 61.1929V59.0357H51.1952V53.2857H52.5166V61.2071C52.5166 61.4119 52.5095 61.6071 52.4952 61.7929C52.4809 61.9786 52.4547 62.1643 52.4166 62.35C52.3071 62.869 52.0976 63.2976 51.7881 63.6357C51.4833 63.9738 51.0928 64.2262 50.6166 64.3929C50.1452 64.5595 49.6095 64.6429 49.0095 64.6429ZM48.8952 61.2143C48.1762 61.2143 47.5547 61.0357 47.0309 60.6786C46.5119 60.3214 46.1095 59.8357 45.8238 59.2214C45.5428 58.6024 45.4023 57.9071 45.4023 57.1357C45.4023 56.3595 45.5452 55.6667 45.8309 55.0571C46.1166 54.4429 46.5214 53.9595 47.0452 53.6071C47.5738 53.25 48.2 53.0714 48.9238 53.0714C49.6523 53.0714 50.2642 53.25 50.7595 53.6071C51.2595 53.9595 51.6357 54.4429 51.8881 55.0571C52.1452 55.6714 52.2738 56.3643 52.2738 57.1357C52.2738 57.9071 52.1452 58.6 51.8881 59.2143C51.6309 59.8286 51.2523 60.3167 50.7523 60.6786C50.2523 61.0357 49.6333 61.2143 48.8952 61.2143ZM49.1023 59.8643C49.5928 59.8643 49.9928 59.7476 50.3023 59.5143C50.6119 59.281 50.8381 58.9595 50.9809 58.55C51.1238 58.1405 51.1952 57.669 51.1952 57.1357C51.1952 56.6024 51.1214 56.131 50.9738 55.7214C50.8309 55.3119 50.6071 54.9929 50.3023 54.7643C50.0023 54.5357 49.619 54.4214 49.1523 54.4214C48.6571 54.4214 48.25 54.5429 47.9309 54.7857C47.6119 55.0286 47.3738 55.3548 47.2166 55.7643C47.0642 56.1738 46.9881 56.631 46.9881 57.1357C46.9881 57.6452 47.0642 58.1071 47.2166 58.5214C47.3738 58.931 47.6071 59.2571 47.9166 59.5C48.2309 59.7429 48.6262 59.8643 49.1023 59.8643ZM57.2723 61.2143C56.7009 61.2143 56.2223 61.1095 55.8366 60.9C55.4509 60.6857 55.158 60.4048 54.958 60.0571C54.7628 59.7048 54.6652 59.319 54.6652 58.9C54.6652 58.5095 54.7342 58.1667 54.8723 57.8714C55.0104 57.5762 55.2152 57.3262 55.4866 57.1214C55.758 56.9119 56.0914 56.7429 56.4866 56.6143C56.8295 56.5143 57.2176 56.4262 57.6509 56.35C58.0842 56.2738 58.539 56.2024 59.0152 56.1357C59.4961 56.069 59.9723 56.0024 60.4438 55.9357L59.9009 56.2357C59.9104 55.631 59.7818 55.1833 59.5152 54.8929C59.2533 54.5976 58.8009 54.45 58.158 54.45C57.7533 54.45 57.3818 54.5452 57.0438 54.7357C56.7057 54.9214 56.4699 55.231 56.3366 55.6643L54.9438 55.2357C55.1342 54.5738 55.4961 54.0476 56.0295 53.6571C56.5676 53.2667 57.2818 53.0714 58.1723 53.0714C58.8628 53.0714 59.4628 53.1905 59.9723 53.4286C60.4866 53.6619 60.8628 54.0333 61.1009 54.5429C61.2247 54.7952 61.3009 55.0619 61.3295 55.3429C61.358 55.6238 61.3723 55.9262 61.3723 56.25V61H60.0509V59.2357L60.308 59.4643C59.989 60.0548 59.5818 60.4952 59.0866 60.7857C58.5961 61.0714 57.9914 61.2143 57.2723 61.2143ZM57.5366 59.9929C57.9604 59.9929 58.3247 59.919 58.6295 59.7714C58.9342 59.619 59.1795 59.4262 59.3652 59.1929C59.5509 58.9595 59.6723 58.7167 59.7295 58.4643C59.8104 58.2357 59.8557 57.9786 59.8652 57.6929C59.8795 57.4071 59.8866 57.1786 59.8866 57.0071L60.3723 57.1857C59.9009 57.2571 59.4723 57.3214 59.0866 57.3786C58.7009 57.4357 58.3509 57.4929 58.0366 57.55C57.7271 57.6024 57.4509 57.6667 57.208 57.7429C57.0033 57.8143 56.8199 57.9 56.658 58C56.5009 58.1 56.3747 58.2214 56.2795 58.3643C56.189 58.5071 56.1438 58.681 56.1438 58.8857C56.1438 59.0857 56.1938 59.2714 56.2938 59.4429C56.3938 59.6095 56.5461 59.7429 56.7509 59.8429C56.9557 59.9429 57.2176 59.9929 57.5366 59.9929ZM68.2128 61C67.7271 61.0952 67.2509 61.1357 66.7843 61.1214C66.3176 61.1071 65.9009 61.0167 65.5343 60.85C65.1676 60.6833 64.8914 60.4214 64.7057 60.0643C64.539 59.7452 64.4485 59.4214 64.4343 59.0929C64.4247 58.7595 64.42 58.3833 64.42 57.9643V51.1429H65.92V57.8929C65.92 58.2024 65.9224 58.4714 65.9271 58.7C65.9366 58.9286 65.9866 59.1214 66.0771 59.2786C66.2486 59.5738 66.52 59.7429 66.8914 59.7857C67.2676 59.8238 67.7081 59.8071 68.2128 59.7357V61ZM62.9414 54.4857V53.2857H68.2128V54.4857H62.9414ZM73.4119 61.2143C72.6405 61.2143 71.9715 61.0405 71.4048 60.6929C70.8381 60.3452 70.4 59.8667 70.0905 59.2571C69.7858 58.6429 69.6334 57.9357 69.6334 57.1357C69.6334 56.331 69.7905 55.6238 70.1048 55.0143C70.4191 54.4 70.8596 53.9238 71.4262 53.5857C71.9929 53.2429 72.6548 53.0714 73.4119 53.0714C74.1834 53.0714 74.8524 53.2452 75.4191 53.5929C75.9858 53.9405 76.4238 54.419 76.7334 55.0286C77.0429 55.6381 77.1977 56.3405 77.1977 57.1357C77.1977 57.9405 77.0405 58.65 76.7262 59.2643C76.4167 59.8738 75.9786 60.3524 75.4119 60.7C74.8453 61.0429 74.1786 61.2143 73.4119 61.2143ZM73.4119 59.8071C74.15 59.8071 74.7 59.5595 75.0619 59.0643C75.4286 58.5643 75.6119 57.9214 75.6119 57.1357C75.6119 56.331 75.4262 55.6881 75.0548 55.2071C74.6881 54.7214 74.1405 54.4786 73.4119 54.4786C72.9119 54.4786 72.5 54.5929 72.1762 54.8214C71.8524 55.0452 71.6119 55.3571 71.4548 55.7571C71.2977 56.1524 71.2191 56.6119 71.2191 57.1357C71.2191 57.9452 71.4048 58.5929 71.7762 59.0786C72.1477 59.5643 72.6929 59.8071 73.4119 59.8071ZM79.3387 61V53.2857H80.6673V55.1571L80.4816 54.9143C80.5768 54.6667 80.7006 54.4405 80.853 54.2357C81.0054 54.0262 81.1816 53.8548 81.3816 53.7214C81.5768 53.5786 81.7935 53.469 82.0316 53.3929C82.2744 53.3119 82.5221 53.2643 82.7744 53.25C83.0268 53.231 83.2697 53.2429 83.503 53.2857V54.6857C83.2506 54.619 82.9697 54.6 82.6602 54.6286C82.3554 54.6571 82.0744 54.7548 81.8173 54.9214C81.5744 55.0786 81.3816 55.269 81.2387 55.4929C81.1006 55.7167 81.0006 55.9667 80.9387 56.2429C80.8768 56.5143 80.8459 56.8024 80.8459 57.1071V61H79.3387Z"/>
</mask>
<g filter="url(#filter0_ii_1117_12192)">
<path d="M24.8641 44V33.7143H26.3784L31.4427 41.3571V33.7143H32.957V44H31.4427L26.3784 36.35V44H24.8641ZM38.872 44.2143C38.1006 44.2143 37.4316 44.0405 36.8649 43.6929C36.2982 43.3452 35.8601 42.8667 35.5506 42.2571C35.2459 41.6429 35.0935 40.9357 35.0935 40.1357C35.0935 39.331 35.2506 38.6238 35.5649 38.0143C35.8792 37.4 36.3197 36.9238 36.8863 36.5857C37.453 36.2429 38.1149 36.0714 38.872 36.0714C39.6435 36.0714 40.3125 36.2452 40.8792 36.5929C41.4459 36.9405 41.8839 37.419 42.1935 38.0286C42.503 38.6381 42.6578 39.3405 42.6578 40.1357C42.6578 40.9405 42.5006 41.65 42.1863 42.2643C41.8768 42.8738 41.4387 43.3524 40.872 43.7C40.3054 44.0429 39.6387 44.2143 38.872 44.2143ZM38.872 42.8071C39.6101 42.8071 40.1601 42.5595 40.522 42.0643C40.8887 41.5643 41.072 40.9214 41.072 40.1357C41.072 39.331 40.8863 38.6881 40.5149 38.2071C40.1482 37.7214 39.6006 37.4786 38.872 37.4786C38.372 37.4786 37.9601 37.5929 37.6363 37.8214C37.3125 38.0452 37.072 38.3571 36.9149 38.7571C36.7578 39.1524 36.6792 39.6119 36.6792 40.1357C36.6792 40.9452 36.8649 41.5929 37.2363 42.0786C37.6078 42.5643 38.153 42.8071 38.872 42.8071ZM46.6055 44L43.8055 36.2857H45.3127L47.3627 42.1286L49.4127 36.2857H50.9198L48.1198 44H46.6055ZM52.921 35.0214V33.5714H54.4139V35.0214H52.921ZM52.921 44V36.2857H54.4139V44H52.921ZM60.4303 44.2143C59.6398 44.2143 58.9684 44.0381 58.416 43.6857C57.8636 43.3333 57.4398 42.85 57.1446 42.2357C56.8541 41.6214 56.7065 40.9238 56.7017 40.1429C56.7065 39.3476 56.8589 38.6452 57.1589 38.0357C57.4589 37.4214 57.8874 36.9405 58.4446 36.5929C59.0017 36.2452 59.6708 36.0714 60.4517 36.0714C61.2946 36.0714 62.0136 36.281 62.6089 36.7C63.2089 37.119 63.6041 37.6929 63.7946 38.4214L62.3089 38.85C62.1613 38.4167 61.9184 38.081 61.5803 37.8429C61.247 37.6 60.8636 37.4786 60.4303 37.4786C59.9398 37.4786 59.5374 37.5952 59.2232 37.8286C58.9089 38.0571 58.6755 38.3714 58.5232 38.7714C58.3708 39.1714 58.2922 39.6286 58.2874 40.1429C58.2922 40.9381 58.4732 41.581 58.8303 42.0714C59.1922 42.5619 59.7255 42.8071 60.4303 42.8071C60.9113 42.8071 61.2994 42.6976 61.5946 42.4786C61.8946 42.2548 62.1232 41.9357 62.2803 41.5214L63.7946 41.8786C63.5422 42.631 63.1255 43.2095 62.5446 43.6143C61.9636 44.0143 61.2589 44.2143 60.4303 44.2143ZM69.0333 44.2143C68.2667 44.2143 67.5928 44.0476 67.0119 43.7143C66.4357 43.3762 65.9857 42.9071 65.6619 42.3071C65.3428 41.7024 65.1833 41.0024 65.1833 40.2071C65.1833 39.3643 65.3405 38.6333 65.6547 38.0143C65.9738 37.3952 66.4167 36.9167 66.9833 36.5786C67.55 36.2405 68.2095 36.0714 68.9619 36.0714C69.7476 36.0714 70.4167 36.2548 70.969 36.6214C71.5214 36.9833 71.9333 37.5 72.2047 38.1714C72.4809 38.8429 72.5905 39.6405 72.5333 40.5643H71.0405V40.0214C71.0309 39.1262 70.8595 38.4643 70.5262 38.0357C70.1976 37.6071 69.6952 37.3929 69.019 37.3929C68.2714 37.3929 67.7095 37.6286 67.3333 38.1C66.9571 38.5714 66.769 39.2524 66.769 40.1429C66.769 40.9905 66.9571 41.6476 67.3333 42.1143C67.7095 42.5762 68.2524 42.8071 68.9619 42.8071C69.4286 42.8071 69.8309 42.7024 70.169 42.4929C70.5119 42.2786 70.7786 41.9738 70.969 41.5786L72.4333 42.0429C72.1333 42.7333 71.6786 43.269 71.069 43.65C70.4595 44.0262 69.7809 44.2143 69.0333 44.2143ZM66.2833 40.5643V39.4H71.7905V40.5643H66.2833ZM14.1367 61V50.7143H15.651L20.7153 58.3571V50.7143H22.2296V61H20.7153L15.651 53.35V61H14.1367ZM26.9732 61.2143C26.4018 61.2143 25.9232 61.1095 25.5375 60.9C25.1518 60.6857 24.8589 60.4048 24.6589 60.0571C24.4637 59.7048 24.3661 59.319 24.3661 58.9C24.3661 58.5095 24.4351 58.1667 24.5732 57.8714C24.7113 57.5762 24.9161 57.3262 25.1875 57.1214C25.4589 56.9119 25.7923 56.7429 26.1875 56.6143C26.5304 56.5143 26.9184 56.4262 27.3518 56.35C27.7851 56.2738 28.2399 56.2024 28.7161 56.1357C29.197 56.069 29.6732 56.0024 30.1446 55.9357L29.6018 56.2357C29.6113 55.631 29.4827 55.1833 29.2161 54.8929C28.9542 54.5976 28.5018 54.45 27.8589 54.45C27.4542 54.45 27.0827 54.5452 26.7446 54.7357C26.4065 54.9214 26.1708 55.231 26.0375 55.6643L24.6446 55.2357C24.8351 54.5738 25.197 54.0476 25.7304 53.6571C26.2684 53.2667 26.9827 53.0714 27.8732 53.0714C28.5637 53.0714 29.1637 53.1905 29.6732 53.4286C30.1875 53.6619 30.5637 54.0333 30.8018 54.5429C30.9256 54.7952 31.0018 55.0619 31.0304 55.3429C31.0589 55.6238 31.0732 55.9262 31.0732 56.25V61H29.7518V59.2357L30.0089 59.4643C29.6899 60.0548 29.2827 60.4952 28.7875 60.7857C28.297 61.0714 27.6923 61.2143 26.9732 61.2143ZM27.2375 59.9929C27.6613 59.9929 28.0256 59.919 28.3304 59.7714C28.6351 59.619 28.8804 59.4262 29.0661 59.1929C29.2518 58.9595 29.3732 58.7167 29.4304 58.4643C29.5113 58.2357 29.5565 57.9786 29.5661 57.6929C29.5804 57.4071 29.5875 57.1786 29.5875 57.0071L30.0732 57.1857C29.6018 57.2571 29.1732 57.3214 28.7875 57.3786C28.4018 57.4357 28.0518 57.4929 27.7375 57.55C27.428 57.6024 27.1518 57.6667 26.9089 57.7429C26.7042 57.8143 26.5208 57.9 26.3589 58C26.2018 58.1 26.0756 58.2214 25.9804 58.3643C25.8899 58.5071 25.8446 58.681 25.8446 58.8857C25.8446 59.0857 25.8946 59.2714 25.9946 59.4429C26.0946 59.6095 26.247 59.7429 26.4518 59.8429C26.6565 59.9429 26.9184 59.9929 27.2375 59.9929ZM35.3061 61L32.5061 53.2857H34.0133L36.0633 59.1286L38.1133 53.2857H39.6204L36.8204 61H35.3061ZM41.6216 52.0214V50.5714H43.1145V52.0214H41.6216ZM41.6216 61V53.2857H43.1145V61H41.6216ZM49.0095 64.6429C48.5952 64.6429 48.1928 64.5786 47.8023 64.45C47.4166 64.3214 47.0642 64.131 46.7452 63.8786C46.4262 63.631 46.1619 63.3238 45.9523 62.9571L47.3309 62.2571C47.4976 62.5857 47.7357 62.8262 48.0452 62.9786C48.3547 63.131 48.6809 63.2071 49.0238 63.2071C49.4476 63.2071 49.8095 63.131 50.1095 62.9786C50.4095 62.831 50.6357 62.6071 50.7881 62.3071C50.9452 62.0071 51.0214 61.6357 51.0166 61.1929V59.0357H51.1952V53.2857H52.5166V61.2071C52.5166 61.4119 52.5095 61.6071 52.4952 61.7929C52.4809 61.9786 52.4547 62.1643 52.4166 62.35C52.3071 62.869 52.0976 63.2976 51.7881 63.6357C51.4833 63.9738 51.0928 64.2262 50.6166 64.3929C50.1452 64.5595 49.6095 64.6429 49.0095 64.6429ZM48.8952 61.2143C48.1762 61.2143 47.5547 61.0357 47.0309 60.6786C46.5119 60.3214 46.1095 59.8357 45.8238 59.2214C45.5428 58.6024 45.4023 57.9071 45.4023 57.1357C45.4023 56.3595 45.5452 55.6667 45.8309 55.0571C46.1166 54.4429 46.5214 53.9595 47.0452 53.6071C47.5738 53.25 48.2 53.0714 48.9238 53.0714C49.6523 53.0714 50.2642 53.25 50.7595 53.6071C51.2595 53.9595 51.6357 54.4429 51.8881 55.0571C52.1452 55.6714 52.2738 56.3643 52.2738 57.1357C52.2738 57.9071 52.1452 58.6 51.8881 59.2143C51.6309 59.8286 51.2523 60.3167 50.7523 60.6786C50.2523 61.0357 49.6333 61.2143 48.8952 61.2143ZM49.1023 59.8643C49.5928 59.8643 49.9928 59.7476 50.3023 59.5143C50.6119 59.281 50.8381 58.9595 50.9809 58.55C51.1238 58.1405 51.1952 57.669 51.1952 57.1357C51.1952 56.6024 51.1214 56.131 50.9738 55.7214C50.8309 55.3119 50.6071 54.9929 50.3023 54.7643C50.0023 54.5357 49.619 54.4214 49.1523 54.4214C48.6571 54.4214 48.25 54.5429 47.9309 54.7857C47.6119 55.0286 47.3738 55.3548 47.2166 55.7643C47.0642 56.1738 46.9881 56.631 46.9881 57.1357C46.9881 57.6452 47.0642 58.1071 47.2166 58.5214C47.3738 58.931 47.6071 59.2571 47.9166 59.5C48.2309 59.7429 48.6262 59.8643 49.1023 59.8643ZM57.2723 61.2143C56.7009 61.2143 56.2223 61.1095 55.8366 60.9C55.4509 60.6857 55.158 60.4048 54.958 60.0571C54.7628 59.7048 54.6652 59.319 54.6652 58.9C54.6652 58.5095 54.7342 58.1667 54.8723 57.8714C55.0104 57.5762 55.2152 57.3262 55.4866 57.1214C55.758 56.9119 56.0914 56.7429 56.4866 56.6143C56.8295 56.5143 57.2176 56.4262 57.6509 56.35C58.0842 56.2738 58.539 56.2024 59.0152 56.1357C59.4961 56.069 59.9723 56.0024 60.4438 55.9357L59.9009 56.2357C59.9104 55.631 59.7818 55.1833 59.5152 54.8929C59.2533 54.5976 58.8009 54.45 58.158 54.45C57.7533 54.45 57.3818 54.5452 57.0438 54.7357C56.7057 54.9214 56.4699 55.231 56.3366 55.6643L54.9438 55.2357C55.1342 54.5738 55.4961 54.0476 56.0295 53.6571C56.5676 53.2667 57.2818 53.0714 58.1723 53.0714C58.8628 53.0714 59.4628 53.1905 59.9723 53.4286C60.4866 53.6619 60.8628 54.0333 61.1009 54.5429C61.2247 54.7952 61.3009 55.0619 61.3295 55.3429C61.358 55.6238 61.3723 55.9262 61.3723 56.25V61H60.0509V59.2357L60.308 59.4643C59.989 60.0548 59.5818 60.4952 59.0866 60.7857C58.5961 61.0714 57.9914 61.2143 57.2723 61.2143ZM57.5366 59.9929C57.9604 59.9929 58.3247 59.919 58.6295 59.7714C58.9342 59.619 59.1795 59.4262 59.3652 59.1929C59.5509 58.9595 59.6723 58.7167 59.7295 58.4643C59.8104 58.2357 59.8557 57.9786 59.8652 57.6929C59.8795 57.4071 59.8866 57.1786 59.8866 57.0071L60.3723 57.1857C59.9009 57.2571 59.4723 57.3214 59.0866 57.3786C58.7009 57.4357 58.3509 57.4929 58.0366 57.55C57.7271 57.6024 57.4509 57.6667 57.208 57.7429C57.0033 57.8143 56.8199 57.9 56.658 58C56.5009 58.1 56.3747 58.2214 56.2795 58.3643C56.189 58.5071 56.1438 58.681 56.1438 58.8857C56.1438 59.0857 56.1938 59.2714 56.2938 59.4429C56.3938 59.6095 56.5461 59.7429 56.7509 59.8429C56.9557 59.9429 57.2176 59.9929 57.5366 59.9929ZM68.2128 61C67.7271 61.0952 67.2509 61.1357 66.7843 61.1214C66.3176 61.1071 65.9009 61.0167 65.5343 60.85C65.1676 60.6833 64.8914 60.4214 64.7057 60.0643C64.539 59.7452 64.4485 59.4214 64.4343 59.0929C64.4247 58.7595 64.42 58.3833 64.42 57.9643V51.1429H65.92V57.8929C65.92 58.2024 65.9224 58.4714 65.9271 58.7C65.9366 58.9286 65.9866 59.1214 66.0771 59.2786C66.2486 59.5738 66.52 59.7429 66.8914 59.7857C67.2676 59.8238 67.7081 59.8071 68.2128 59.7357V61ZM62.9414 54.4857V53.2857H68.2128V54.4857H62.9414ZM73.4119 61.2143C72.6405 61.2143 71.9715 61.0405 71.4048 60.6929C70.8381 60.3452 70.4 59.8667 70.0905 59.2571C69.7858 58.6429 69.6334 57.9357 69.6334 57.1357C69.6334 56.331 69.7905 55.6238 70.1048 55.0143C70.4191 54.4 70.8596 53.9238 71.4262 53.5857C71.9929 53.2429 72.6548 53.0714 73.4119 53.0714C74.1834 53.0714 74.8524 53.2452 75.4191 53.5929C75.9858 53.9405 76.4238 54.419 76.7334 55.0286C77.0429 55.6381 77.1977 56.3405 77.1977 57.1357C77.1977 57.9405 77.0405 58.65 76.7262 59.2643C76.4167 59.8738 75.9786 60.3524 75.4119 60.7C74.8453 61.0429 74.1786 61.2143 73.4119 61.2143ZM73.4119 59.8071C74.15 59.8071 74.7 59.5595 75.0619 59.0643C75.4286 58.5643 75.6119 57.9214 75.6119 57.1357C75.6119 56.331 75.4262 55.6881 75.0548 55.2071C74.6881 54.7214 74.1405 54.4786 73.4119 54.4786C72.9119 54.4786 72.5 54.5929 72.1762 54.8214C71.8524 55.0452 71.6119 55.3571 71.4548 55.7571C71.2977 56.1524 71.2191 56.6119 71.2191 57.1357C71.2191 57.9452 71.4048 58.5929 71.7762 59.0786C72.1477 59.5643 72.6929 59.8071 73.4119 59.8071ZM79.3387 61V53.2857H80.6673V55.1571L80.4816 54.9143C80.5768 54.6667 80.7006 54.4405 80.853 54.2357C81.0054 54.0262 81.1816 53.8548 81.3816 53.7214C81.5768 53.5786 81.7935 53.469 82.0316 53.3929C82.2744 53.3119 82.5221 53.2643 82.7744 53.25C83.0268 53.231 83.2697 53.2429 83.503 53.2857V54.6857C83.2506 54.619 82.9697 54.6 82.6602 54.6286C82.3554 54.6571 82.0744 54.7548 81.8173 54.9214C81.5744 55.0786 81.3816 55.269 81.2387 55.4929C81.1006 55.7167 81.0006 55.9667 80.9387 56.2429C80.8768 56.5143 80.8459 56.8024 80.8459 57.1071V61H79.3387Z" fill="#FFC974"/>
</g>
<path d="M24.8641 44H22.007C22.007 45.578 23.2862 46.8571 24.8641 46.8571V44ZM24.8641 33.7143V30.8571C23.2862 30.8571 22.007 32.1363 22.007 33.7143H24.8641ZM26.3784 33.7143L28.7601 32.1361C28.2309 31.3374 27.3365 30.8571 26.3784 30.8571V33.7143ZM31.4427 41.3571L29.061 42.9353C29.7572 43.9861 31.0598 44.4564 32.2668 44.0929C33.4738 43.7293 34.2998 42.6177 34.2998 41.3571H31.4427ZM31.4427 33.7143V30.8571C29.8647 30.8571 28.5855 32.1363 28.5855 33.7143H31.4427ZM32.957 33.7143H35.8141C35.8141 32.1363 34.5349 30.8571 32.957 30.8571V33.7143ZM32.957 44V46.8571C34.5349 46.8571 35.8141 45.578 35.8141 44H32.957ZM31.4427 44L29.0603 45.5771C29.5894 46.3764 30.4841 46.8571 31.4427 46.8571V44ZM26.3784 36.35L28.7608 34.7728C28.0649 33.7216 26.7621 33.2507 25.5549 33.6141C24.3476 33.9775 23.5213 35.0892 23.5213 36.35H26.3784ZM26.3784 44V46.8571C27.9564 46.8571 29.2355 45.578 29.2355 44H26.3784ZM27.7213 44V33.7143H22.007V44H27.7213ZM24.8641 36.5714H26.3784V30.8571H24.8641V36.5714ZM23.9967 35.2925L29.061 42.9353L33.8244 39.779L28.7601 32.1361L23.9967 35.2925ZM34.2998 41.3571V33.7143H28.5855V41.3571H34.2998ZM31.4427 36.5714H32.957V30.8571H31.4427V36.5714ZM30.0998 33.7143V44H35.8141V33.7143H30.0998ZM32.957 41.1429H31.4427V46.8571H32.957V41.1429ZM33.8251 42.4229L28.7608 34.7728L23.996 37.9271L29.0603 45.5771L33.8251 42.4229ZM23.5213 36.35V44H29.2355V36.35H23.5213ZM26.3784 41.1429H24.8641V46.8571H26.3784V41.1429ZM36.8649 43.6929L35.3709 46.1283L36.8649 43.6929ZM35.5506 42.2571L32.9911 43.527C32.9951 43.5349 32.9991 43.5429 33.0031 43.5508L35.5506 42.2571ZM35.5649 38.0143L38.1043 39.3237L38.1085 39.3156L35.5649 38.0143ZM36.8863 36.5857L38.3502 39.0393C38.3553 39.0363 38.3603 39.0333 38.3654 39.0302L36.8863 36.5857ZM40.8792 36.5929L42.3732 34.1574V34.1574L40.8792 36.5929ZM42.1935 38.0286L39.646 39.3222L39.646 39.3222L42.1935 38.0286ZM42.1863 42.2643L39.6427 40.9629L39.6388 40.9706L42.1863 42.2643ZM40.872 43.7L42.3511 46.1445C42.3561 46.1415 42.3611 46.1385 42.366 46.1354L40.872 43.7ZM40.522 42.0643L38.218 40.3747L38.2152 40.3785L40.522 42.0643ZM40.5149 38.2071L38.2346 39.9286C38.2409 39.9369 38.2472 39.9452 38.2536 39.9535L40.5149 38.2071ZM37.6363 37.8214L39.2608 40.1718C39.2686 40.1664 39.2763 40.161 39.284 40.1556L37.6363 37.8214ZM36.9149 38.7571L39.5699 39.8127L39.5742 39.8019L36.9149 38.7571ZM37.2363 42.0786L39.5059 40.343L37.2363 42.0786ZM38.872 41.3571C38.542 41.3571 38.4079 41.2875 38.3589 41.2574L35.3709 46.1283C36.4552 46.7934 37.6593 47.0714 38.872 47.0714V41.3571ZM38.3589 41.2574C38.2553 41.1939 38.1758 41.1164 38.0981 40.9635L33.0031 43.5508C33.5445 44.6169 34.3411 45.4966 35.3709 46.1283L38.3589 41.2574ZM38.1101 40.9873C38.0313 40.8285 37.9506 40.5684 37.9506 40.1357H32.2363C32.2363 41.303 32.4604 42.4573 32.9911 43.527L38.1101 40.9873ZM37.9506 40.1357C37.9506 39.7076 38.0322 39.4635 38.1043 39.3237L33.0255 36.7049C32.469 37.7841 32.2363 38.9543 32.2363 40.1357H37.9506ZM38.1085 39.3156C38.19 39.1563 38.2662 39.0895 38.3502 39.0393L35.4224 34.1321C34.3731 34.7581 33.5684 35.6437 33.0213 36.7129L38.1085 39.3156ZM38.3654 39.0302C38.425 38.9942 38.5602 38.9286 38.872 38.9286V33.2143C37.6696 33.2143 36.481 33.4915 35.4073 34.1412L38.3654 39.0302ZM38.872 38.9286C39.2021 38.9286 39.3361 38.9982 39.3852 39.0283L42.3732 34.1574C41.2889 33.4923 40.0848 33.2143 38.872 33.2143V38.9286ZM39.3852 39.0283C39.4888 39.0918 39.5683 39.1693 39.646 39.3222L44.741 36.7349C44.1996 35.6688 43.4029 34.7891 42.3732 34.1574L39.3852 39.0283ZM39.646 39.3222C39.7211 39.4702 39.8006 39.7166 39.8006 40.1357H45.5149C45.5149 38.9643 45.2849 37.806 44.741 36.7349L39.646 39.3222ZM39.8006 40.1357C39.8006 40.5632 39.7192 40.8135 39.6428 40.9629L44.7299 43.5656C45.282 42.4865 45.5149 41.3177 45.5149 40.1357H39.8006ZM39.6388 40.9706C39.5612 41.1236 39.4816 41.201 39.378 41.2646L42.366 46.1354C43.3958 45.5037 44.1924 44.624 44.7338 43.5579L39.6388 40.9706ZM39.393 41.2555C39.3389 41.2882 39.2008 41.3571 38.872 41.3571V47.0714C40.0766 47.0714 41.2719 46.7975 42.3511 46.1445L39.393 41.2555ZM38.872 45.6643C40.3127 45.6643 41.8164 45.1355 42.8289 43.75L38.2152 40.3785C38.321 40.2337 38.481 40.0991 38.6652 40.0161C38.8318 39.9411 38.9251 39.95 38.872 39.95V45.6643ZM42.8261 43.7539C43.6381 42.6466 43.9292 41.3655 43.9292 40.1357H38.2149C38.2149 40.3087 38.1945 40.397 38.1869 40.4236C38.1809 40.4446 38.1858 40.4186 38.218 40.3747L42.8261 43.7539ZM43.9292 40.1357C43.9292 38.9037 43.6428 37.5829 42.7762 36.4608L38.2536 39.9535C38.1984 39.882 38.1847 39.832 38.1879 39.843C38.193 39.8607 38.2149 39.9492 38.2149 40.1357H43.9292ZM42.7952 36.4857C41.7793 35.1399 40.2982 34.6214 38.872 34.6214V40.3357C38.9217 40.3357 38.8318 40.3439 38.6709 40.2725C38.4938 40.194 38.3387 40.0665 38.2346 39.9286L42.7952 36.4857ZM38.872 34.6214C37.937 34.6214 36.9073 34.8387 35.9887 35.4872L39.284 40.1556C39.1572 40.2451 39.0376 40.2937 38.952 40.3174C38.8713 40.3398 38.8377 40.3357 38.872 40.3357V34.6214ZM36.0118 35.4711C35.1782 36.0472 34.6004 36.8347 34.2556 37.7124L39.5742 39.8019C39.5631 39.83 39.5344 39.8918 39.4758 39.9677C39.416 40.0454 39.3418 40.1158 39.2608 40.1718L36.0118 35.4711ZM34.2599 37.7015C33.9422 38.5006 33.822 39.3315 33.822 40.1357H39.5363C39.5363 39.8923 39.5733 39.8042 39.5699 39.8127L34.2599 37.7015ZM33.822 40.1357C33.822 41.3698 34.1071 42.69 34.9667 43.8141L39.5059 40.343C39.558 40.4111 39.5694 40.4567 39.5649 40.441C39.5585 40.4187 39.5363 40.3258 39.5363 40.1357H33.822ZM34.9667 43.8141C35.9776 45.1361 37.4396 45.6643 38.872 45.6643V39.95C38.8326 39.95 38.9261 39.9437 39.0863 40.0151C39.261 40.0928 39.4089 40.2161 39.5059 40.343L34.9667 43.8141ZM46.6055 44L43.9198 44.9748C44.3299 46.1048 45.4035 46.8571 46.6055 46.8571V44ZM43.8055 36.2857V33.4286C42.8738 33.4286 42.0006 33.8829 41.4658 34.6459C40.9311 35.4089 40.8019 36.3847 41.1198 37.2605L43.8055 36.2857ZM45.3127 36.2857L48.0087 35.3398C47.607 34.1949 46.526 33.4286 45.3127 33.4286V36.2857ZM47.3627 42.1286L44.6666 43.0745C45.0683 44.2194 46.1493 44.9857 47.3627 44.9857C48.576 44.9857 49.657 44.2194 50.0587 43.0745L47.3627 42.1286ZM49.4127 36.2857V33.4286C48.1993 33.4286 47.1183 34.1949 46.7166 35.3398L49.4127 36.2857ZM50.9198 36.2857L53.6055 37.2605C53.9234 36.3847 53.7943 35.4089 53.2595 34.6459C52.7248 33.8829 51.8515 33.4286 50.9198 33.4286V36.2857ZM48.1198 44V46.8571C49.3219 46.8571 50.3954 46.1048 50.8055 44.9748L48.1198 44ZM49.2912 43.0252L46.4912 35.3109L41.1198 37.2605L43.9198 44.9748L49.2912 43.0252ZM43.8055 39.1429H45.3127V33.4286H43.8055V39.1429ZM42.6166 37.2316L44.6666 43.0745L50.0587 41.1827L48.0087 35.3398L42.6166 37.2316ZM50.0587 43.0745L52.1087 37.2316L46.7166 35.3398L44.6666 41.1827L50.0587 43.0745ZM49.4127 39.1429H50.9198V33.4286H49.4127V39.1429ZM48.2341 35.3109L45.4341 43.0252L50.8055 44.9748L53.6055 37.2605L48.2341 35.3109ZM48.1198 41.1429H46.6055V46.8571H48.1198V41.1429ZM52.921 35.0214H50.0639C50.0639 36.5994 51.3431 37.8786 52.921 37.8786V35.0214ZM52.921 33.5714V30.7143C51.3431 30.7143 50.0639 31.9935 50.0639 33.5714H52.921ZM54.4139 33.5714H57.271C57.271 31.9935 55.9919 30.7143 54.4139 30.7143V33.5714ZM54.4139 35.0214V37.8786C55.9919 37.8786 57.271 36.5994 57.271 35.0214H54.4139ZM52.921 44H50.0639C50.0639 45.578 51.3431 46.8571 52.921 46.8571V44ZM52.921 36.2857V33.4286C51.3431 33.4286 50.0639 34.7078 50.0639 36.2857H52.921ZM54.4139 36.2857H57.271C57.271 34.7078 55.9919 33.4286 54.4139 33.4286V36.2857ZM54.4139 44V46.8571C55.9919 46.8571 57.271 45.578 57.271 44H54.4139ZM55.7782 35.0214V33.5714H50.0639V35.0214H55.7782ZM52.921 36.4286H54.4139V30.7143H52.921V36.4286ZM51.5568 33.5714V35.0214H57.271V33.5714H51.5568ZM54.4139 32.1643H52.921V37.8786H54.4139V32.1643ZM55.7782 44V36.2857H50.0639V44H55.7782ZM52.921 39.1429H54.4139V33.4286H52.921V39.1429ZM51.5568 36.2857V44H57.271V36.2857H51.5568ZM54.4139 41.1429H52.921V46.8571H54.4139V41.1429ZM58.416 43.6857L59.9526 41.277L58.416 43.6857ZM57.1446 42.2357L54.5617 43.4571C54.5642 43.4625 54.5668 43.468 54.5694 43.4734L57.1446 42.2357ZM56.7017 40.1429L53.8446 40.1257C53.8446 40.1373 53.8446 40.1488 53.8446 40.1603L56.7017 40.1429ZM57.1589 38.0357L59.7224 39.2974L59.7262 39.2895L57.1589 38.0357ZM58.4446 36.5929L56.9322 34.1688L56.9322 34.1688L58.4446 36.5929ZM62.6089 36.7L60.9641 39.0363L60.9729 39.0424L62.6089 36.7ZM63.7946 38.4214L64.5865 41.1666C66.0758 40.737 66.9509 39.1983 66.5588 37.6988L63.7946 38.4214ZM62.3089 38.85L59.6044 39.7713C60.0962 41.2151 61.6353 42.0179 63.1008 41.5952L62.3089 38.85ZM61.5803 37.8429L59.8979 40.1521C59.9102 40.1611 59.9227 40.17 59.9352 40.1789L61.5803 37.8429ZM59.2232 37.8286L60.9036 40.1392C60.9112 40.1337 60.9188 40.1282 60.9263 40.1226L59.2232 37.8286ZM58.5232 38.7714L55.8532 37.7543V37.7543L58.5232 38.7714ZM58.2874 40.1429L55.4304 40.1164C55.4303 40.1309 55.4303 40.1454 55.4304 40.16L58.2874 40.1429ZM58.8303 42.0714L56.5206 43.7533C56.5241 43.7581 56.5277 43.763 56.5313 43.7678L58.8303 42.0714ZM61.5946 42.4786L63.297 44.7731L63.3031 44.7686L61.5946 42.4786ZM62.2803 41.5214L62.9362 38.7406C61.5407 38.4115 60.1174 39.1676 59.6089 40.5081L62.2803 41.5214ZM63.7946 41.8786L66.5034 42.7872C66.7589 42.0255 66.6819 41.1914 66.2913 40.4894C65.9006 39.7873 65.2324 39.2822 64.4505 39.0977L63.7946 41.8786ZM62.5446 43.6143L64.1649 45.9676C64.1692 45.9646 64.1736 45.9616 64.1779 45.9586L62.5446 43.6143ZM60.4303 41.3571C60.0709 41.3571 59.959 41.281 59.9526 41.277L56.8794 46.0945C57.9778 46.7952 59.2087 47.0714 60.4303 47.0714V41.3571ZM59.9526 41.277C59.8673 41.2225 59.7943 41.1531 59.7197 40.998L54.5694 43.4734C55.0854 44.5469 55.86 45.4442 56.8794 46.0945L59.9526 41.277ZM59.7275 41.0143C59.6398 40.8289 59.5614 40.5519 59.5588 40.1254L53.8446 40.1603C53.8516 41.2957 54.0684 42.4139 54.5617 43.4571L59.7275 41.0143ZM59.5588 40.16C59.5614 39.7232 59.6429 39.4588 59.7223 39.2974L54.5954 36.774C54.0748 37.8317 53.8515 38.9721 53.8446 40.1257L59.5588 40.16ZM59.7262 39.2895C59.8013 39.1357 59.8734 39.069 59.957 39.0169L56.9322 34.1688C55.9015 34.8119 55.1164 35.7071 54.5915 36.7819L59.7262 39.2895ZM59.957 39.0169C59.9809 39.002 60.1032 38.9286 60.4517 38.9286V33.2143C59.2383 33.2143 58.0226 33.4885 56.9322 34.1688L59.957 39.0169ZM60.4517 38.9286C60.8017 38.9286 60.9233 39.0075 60.9641 39.0363L64.2536 34.3637C63.104 33.5544 61.7875 33.2143 60.4517 33.2143V38.9286ZM60.9729 39.0424C60.9921 39.0558 61.0007 39.0641 61.0026 39.066C61.0043 39.0678 61.0036 39.0672 61.0023 39.0654C61.0011 39.0637 61.0032 39.0661 61.0076 39.0759C61.0121 39.086 61.0208 39.1075 61.0304 39.1441L66.5588 37.6988C66.2021 36.3342 65.4188 35.1775 64.2448 34.3576L60.9729 39.0424ZM63.0027 35.6762L61.517 36.1048L63.1008 41.5952L64.5865 41.1666L63.0027 35.6762ZM65.0134 37.9287C64.6929 36.9879 64.11 36.1298 63.2254 35.5068L59.9352 40.1789C59.8454 40.1156 59.7645 40.0354 59.7011 39.9478C59.6394 39.8626 59.6127 39.7958 59.6044 39.7713L65.0134 37.9287ZM63.2628 35.5336C62.415 34.9159 61.4356 34.6214 60.4303 34.6214V40.3357C60.3769 40.3357 60.2882 40.3277 60.18 40.2934C60.0703 40.2587 59.9738 40.2074 59.8979 40.1521L63.2628 35.5336ZM60.4303 34.6214C59.4836 34.6214 58.4397 34.8518 57.52 35.5345L60.9263 40.1226C60.7915 40.2227 60.6589 40.2805 60.5563 40.3102C60.4593 40.3383 60.4096 40.3357 60.4303 40.3357V34.6214ZM57.5427 35.5179C56.735 36.1053 56.1821 36.8909 55.8532 37.7543L61.1931 39.7886C61.1847 39.8107 61.1598 39.867 61.1065 39.9389C61.0519 40.0124 60.9823 40.082 60.9036 40.1392L57.5427 35.5179ZM55.8532 37.7543C55.5587 38.5274 55.4377 39.3298 55.4304 40.1164L61.1445 40.1693C61.1467 39.9273 61.1829 39.8154 61.1931 39.7886L55.8532 37.7543ZM55.4304 40.16C55.4376 41.3689 55.716 42.6483 56.5206 43.7533L61.14 40.3896C61.1801 40.4447 61.1849 40.4752 61.177 40.4473C61.1676 40.4139 61.1457 40.3145 61.1445 40.1257L55.4304 40.16ZM56.5313 43.7678C57.521 45.1092 58.98 45.6643 60.4303 45.6643V39.95C60.4086 39.95 60.5202 39.9468 60.6954 40.0274C60.8844 40.1143 61.0351 40.2474 61.1293 40.3751L56.5313 43.7678ZM60.4303 45.6643C61.3357 45.6643 62.3768 45.4559 63.297 44.7731L59.8922 40.184C60.2219 39.9393 60.4868 39.95 60.4303 39.95V45.6643ZM63.3031 44.7686C64.1138 44.1638 64.6376 43.3628 64.9517 42.5347L59.6089 40.5081C59.6069 40.5134 59.6217 40.4727 59.6684 40.4075C59.717 40.3396 59.7892 40.2608 59.8861 40.1885L63.3031 44.7686ZM61.6244 44.3023L63.1387 44.6594L64.4505 39.0977L62.9362 38.7406L61.6244 44.3023ZM61.0858 40.9699C61.0038 41.2144 60.9287 41.2579 60.9113 41.27L64.1779 45.9586C65.3224 45.1612 66.0806 44.0475 66.5034 42.7872L61.0858 40.9699ZM60.9243 41.261C60.8987 41.2786 60.7839 41.3571 60.4303 41.3571V47.0714C61.7339 47.0714 63.0285 46.75 64.1649 45.9676L60.9243 41.261ZM67.0119 43.7143L65.5659 46.1785C65.5739 46.1832 65.5819 46.1879 65.59 46.1925L67.0119 43.7143ZM65.6619 42.3071L63.1348 43.6403C63.139 43.6483 63.1433 43.6562 63.1475 43.6641L65.6619 42.3071ZM65.6547 38.0143L63.1151 36.7054C63.1124 36.7105 63.1098 36.7157 63.1071 36.7209L65.6547 38.0143ZM66.9833 36.5786L65.5194 34.125L66.9833 36.5786ZM70.969 36.6214L69.3889 39.0019C69.3937 39.005 69.3985 39.0082 69.4032 39.0113L70.969 36.6214ZM72.2047 38.1714L69.5559 39.2423C69.558 39.2476 69.5602 39.253 69.5624 39.2583L72.2047 38.1714ZM72.5333 40.5643V43.4214C74.0428 43.4214 75.2918 42.2473 75.385 40.7407L72.5333 40.5643ZM71.0405 40.5643H68.1833C68.1833 42.1422 69.4625 43.4214 71.0405 43.4214V40.5643ZM71.0405 40.0214H73.8976C73.8976 40.0113 73.8975 40.0012 73.8974 39.991L71.0405 40.0214ZM70.5262 38.0357L68.2587 39.7741C68.2628 39.7794 68.2668 39.7846 68.2709 39.7898L70.5262 38.0357ZM67.3333 38.1L69.5666 39.8821V39.8821L67.3333 38.1ZM67.3333 42.1143L65.1089 43.9074C65.1119 43.9111 65.1149 43.9149 65.1179 43.9186L67.3333 42.1143ZM70.169 42.4929L71.6741 44.9215L71.6833 44.9157L70.169 42.4929ZM70.969 41.5786L71.8326 38.8551C70.4774 38.4254 69.0124 39.0574 68.3952 40.3382L70.969 41.5786ZM72.4333 42.0429L75.0538 43.1814C75.3761 42.4396 75.3689 41.596 75.034 40.8598C74.6991 40.1236 74.0678 39.5638 73.2969 39.3193L72.4333 42.0429ZM71.069 43.65L72.5696 46.0814C72.5742 46.0785 72.5788 46.0757 72.5833 46.0729L71.069 43.65ZM66.2833 40.5643H63.4262C63.4262 42.1422 64.7054 43.4214 66.2833 43.4214V40.5643ZM66.2833 39.4V36.5429C64.7054 36.5429 63.4262 37.822 63.4262 39.4H66.2833ZM71.7905 39.4H74.6476C74.6476 37.822 73.3684 36.5429 71.7905 36.5429V39.4ZM71.7905 40.5643V43.4214C73.3684 43.4214 74.6476 42.1422 74.6476 40.5643H71.7905ZM69.0333 41.3571C68.6923 41.3571 68.5226 41.2871 68.4338 41.2361L65.59 46.1925C66.6631 46.8082 67.841 47.0714 69.0333 47.0714V41.3571ZM68.4578 41.25C68.342 41.1821 68.2572 41.1003 68.1762 40.9502L63.1475 43.6641C63.7141 44.714 64.5294 45.5703 65.5659 46.1785L68.4578 41.25ZM68.1889 40.974C68.1196 40.8425 68.0405 40.6138 68.0405 40.2071H62.3262C62.3262 41.391 62.5661 42.5623 63.1348 43.6403L68.1889 40.974ZM68.0405 40.2071C68.0405 39.7188 68.1306 39.4491 68.2024 39.3077L63.1071 36.7209C62.5503 37.8176 62.3262 39.0098 62.3262 40.2071H68.0405ZM68.1944 39.3232C68.2831 39.1512 68.3649 39.0813 68.4472 39.0322L65.5194 34.125C64.4684 34.752 63.6645 35.6393 63.1151 36.7054L68.1944 39.3232ZM68.4472 39.0322C68.512 38.9935 68.6513 38.9286 68.9619 38.9286V33.2143C67.7678 33.2143 66.588 33.4874 65.5194 34.125L68.4472 39.0322ZM68.9619 38.9286C69.2914 38.9286 69.386 38.9999 69.3889 39.0019L72.5492 34.241C71.4473 33.5096 70.2038 33.2143 68.9619 33.2143V38.9286ZM69.4032 39.0113C69.4216 39.0233 69.4806 39.056 69.5559 39.2423L74.8536 37.1006C74.3861 35.944 73.6213 34.9433 72.5348 34.2315L69.4032 39.0113ZM69.5624 39.2583C69.6353 39.4356 69.7192 39.7807 69.6816 40.3879L75.385 40.7407C75.4617 39.5003 75.3265 38.2501 74.8471 37.0845L69.5624 39.2583ZM72.5333 37.7071H71.0405V43.4214H72.5333V37.7071ZM73.8976 40.5643V40.0214H68.1833V40.5643H73.8976ZM73.8974 39.991C73.8852 38.8423 73.6768 37.4328 72.7815 36.2816L68.2709 39.7898C68.145 39.628 68.1264 39.5216 68.1389 39.5699C68.1519 39.6201 68.1805 39.7688 68.1835 40.0518L73.8974 39.991ZM72.7936 36.2973C71.7898 34.988 70.3365 34.5357 69.019 34.5357V40.25C69.0608 40.25 68.9588 40.257 68.782 40.1816C68.5862 40.0981 68.3972 39.9547 68.2587 39.7741L72.7936 36.2973ZM69.019 34.5357C67.6313 34.5357 66.1468 35.0062 65.1001 36.3179L69.5666 39.8821C69.4528 40.0246 69.2979 40.139 69.1421 40.2044C69.0034 40.2626 68.941 40.25 69.019 40.25V34.5357ZM65.1001 36.3179C64.167 37.4871 63.9119 38.9021 63.9119 40.1429H69.6262C69.6262 39.8912 69.6536 39.7632 69.6641 39.725C69.6728 39.6937 69.6569 39.7689 69.5666 39.8821L65.1001 36.3179ZM63.9119 40.1429C63.9119 41.3779 64.1832 42.7591 65.1089 43.9074L69.5577 40.3212C69.6406 40.424 69.6606 40.4978 69.6569 40.4852C69.6511 40.4649 69.6262 40.3617 69.6262 40.1429H63.9119ZM65.1179 43.9186C66.1422 45.1762 67.5754 45.6643 68.9619 45.6643V39.95C68.9152 39.95 68.9948 39.9426 69.1411 40.0048C69.3012 40.0729 69.4466 40.1847 69.5487 40.31L65.1179 43.9186ZM68.9619 45.6643C69.8669 45.6643 70.8106 45.4566 71.6741 44.9215L68.664 40.0643C68.7492 40.0115 68.8305 39.9801 68.8938 39.9636C68.9543 39.9478 68.9815 39.95 68.9619 39.95V45.6643ZM71.6833 44.9157C72.5229 44.391 73.1388 43.6575 73.5429 42.819L68.3952 40.3382C68.4024 40.3232 68.4264 40.2788 68.476 40.2221C68.5266 40.1642 68.5884 40.1114 68.6548 40.07L71.6833 44.9157ZM70.1055 44.3021L71.5698 44.7664L73.2969 39.3193L71.8326 38.8551L70.1055 44.3021ZM69.8128 40.9043C69.7316 41.0912 69.6501 41.1676 69.5547 41.2271L72.5833 46.0729C73.707 45.3705 74.535 44.3754 75.0538 43.1814L69.8128 40.9043ZM69.5684 41.2186C69.4302 41.304 69.2752 41.3571 69.0333 41.3571V47.0714C70.2866 47.0714 71.4888 46.7484 72.5696 46.0814L69.5684 41.2186ZM69.1405 40.5643V39.4H63.4262V40.5643H69.1405ZM66.2833 42.2571H71.7905V36.5429H66.2833V42.2571ZM68.9333 39.4V40.5643H74.6476V39.4H68.9333ZM71.7905 37.7071H66.2833V43.4214H71.7905V37.7071ZM14.1367 61H11.2796C11.2796 62.578 12.5588 63.8571 14.1367 63.8571V61ZM14.1367 50.7143V47.8571C12.5588 47.8571 11.2796 49.1363 11.2796 50.7143H14.1367ZM15.651 50.7143L18.0327 49.1361C17.5035 48.3374 16.6091 47.8571 15.651 47.8571V50.7143ZM20.7153 58.3571L18.3336 59.9353C19.0298 60.9861 20.3324 61.4564 21.5394 61.0929C22.7464 60.7293 23.5724 59.6177 23.5724 58.3571H20.7153ZM20.7153 50.7143V47.8571C19.1373 47.8571 17.8581 49.1363 17.8581 50.7143H20.7153ZM22.2296 50.7143H25.0867C25.0867 49.1363 23.8075 47.8571 22.2296 47.8571V50.7143ZM22.2296 61V63.8571C23.8075 63.8571 25.0867 62.578 25.0867 61H22.2296ZM20.7153 61L18.3329 62.5771C18.862 63.3764 19.7567 63.8571 20.7153 63.8571V61ZM15.651 53.35L18.0334 51.7729C17.3375 50.7216 16.0347 50.2507 14.8275 50.6141C13.6202 50.9775 12.7939 52.0892 12.7939 53.35H15.651ZM15.651 61V63.8571C17.229 63.8571 18.5081 62.578 18.5081 61H15.651ZM16.9939 61V50.7143H11.2796V61H16.9939ZM14.1367 53.5714H15.651V47.8571H14.1367V53.5714ZM13.2693 52.2925L18.3336 59.9353L23.097 56.779L18.0327 49.1361L13.2693 52.2925ZM23.5724 58.3571V50.7143H17.8581V58.3571H23.5724ZM20.7153 53.5714H22.2296V47.8571H20.7153V53.5714ZM19.3724 50.7143V61H25.0867V50.7143H19.3724ZM22.2296 58.1429H20.7153V63.8571H22.2296V58.1429ZM23.0977 59.4229L18.0334 51.7729L13.2686 54.9271L18.3329 62.5771L23.0977 59.4229ZM12.7939 53.35V61H18.5081V53.35H12.7939ZM15.651 58.1429H14.1367V63.8571H15.651V58.1429ZM25.5375 60.9L24.1499 63.3976C24.1578 63.402 24.1658 63.4063 24.1737 63.4106L25.5375 60.9ZM24.6589 60.0571L22.1597 61.4418C22.1672 61.4553 22.1748 61.4687 22.1824 61.482L24.6589 60.0571ZM24.5732 57.8714L21.9852 56.6609V56.6609L24.5732 57.8714ZM25.1875 57.1214L26.9082 59.4023C26.9166 59.396 26.925 59.3896 26.9334 59.3831L25.1875 57.1214ZM26.1875 56.6143L25.3875 53.8714C25.3594 53.8796 25.3315 53.8882 25.3037 53.8973L26.1875 56.6143ZM27.3518 56.35L27.8465 59.164L27.8465 59.164L27.3518 56.35ZM28.7161 56.1357L28.3238 53.3056L28.3199 53.3062L28.7161 56.1357ZM30.1446 55.9357L31.5266 58.4364C32.7329 57.7697 33.2914 56.3369 32.8543 55.0297C32.4173 53.7225 31.1093 52.9137 29.7446 53.1067L30.1446 55.9357ZM29.6018 56.2357L26.745 56.1907C26.7289 57.2098 27.257 58.1603 28.1308 58.6851C29.0045 59.2098 30.0917 59.2294 30.9837 58.7364L29.6018 56.2357ZM29.2161 54.8929L27.0787 56.7889C27.0895 56.801 27.1004 56.8131 27.1113 56.8251L29.2161 54.8929ZM26.7446 54.7357L28.1202 57.2399C28.1292 57.235 28.1381 57.23 28.1471 57.225L26.7446 54.7357ZM26.0375 55.6643L25.1973 58.3951C25.9215 58.6179 26.7046 58.5439 27.3743 58.1894C28.044 57.8348 28.5454 57.2288 28.7683 56.5045L26.0375 55.6643ZM24.6446 55.2357L21.8989 54.4456C21.4682 55.9424 22.3157 57.5084 23.8044 57.9665L24.6446 55.2357ZM25.7304 53.6571L24.0523 51.3447L24.0425 51.3518L25.7304 53.6571ZM29.6732 53.4286L28.4636 56.017C28.4733 56.0216 28.483 56.026 28.4927 56.0304L29.6732 53.4286ZM30.8018 54.5429L28.2133 55.7524C28.2209 55.7688 28.2287 55.785 28.2367 55.8012L30.8018 54.5429ZM31.0304 55.3429L28.1879 55.6319V55.6319L31.0304 55.3429ZM31.0732 61V63.8571C32.6512 63.8571 33.9304 62.578 33.9304 61H31.0732ZM29.7518 61H26.8946C26.8946 62.578 28.1738 63.8571 29.7518 63.8571V61ZM29.7518 59.2357L31.65 57.1003C30.809 56.3528 29.6077 56.1684 28.5813 56.6293C27.555 57.0902 26.8946 58.1106 26.8946 59.2357H29.7518ZM30.0089 59.4643L32.5226 60.8225C33.1528 59.6562 32.8979 58.2096 31.9071 57.3288L30.0089 59.4643ZM28.7875 60.7857L30.2256 63.2545L30.233 63.2502L28.7875 60.7857ZM28.3304 59.7714L29.5759 62.3428C29.5866 62.3376 29.5974 62.3323 29.6081 62.3269L28.3304 59.7714ZM29.0661 59.1929L26.8306 57.4136L29.0661 59.1929ZM29.4304 58.4643L26.7371 57.5104C26.6997 57.6161 26.6685 57.724 26.6437 57.8334L29.4304 58.4643ZM29.5661 57.6929L26.7125 57.5502C26.7117 57.566 26.711 57.5818 26.7105 57.5977L29.5661 57.6929ZM29.5875 57.0071L30.5734 54.3255C29.6969 54.0033 28.7183 54.1297 27.9525 54.6641C27.1867 55.1984 26.7304 56.0733 26.7304 57.0071H29.5875ZM30.0732 57.1857L30.5012 60.0106C31.7908 59.8152 32.7843 58.7713 32.9158 57.4737C33.0473 56.1761 32.2833 54.9541 31.0591 54.5041L30.0732 57.1857ZM28.7875 57.3786L29.2062 60.2049H29.2062L28.7875 57.3786ZM27.7375 57.55L28.2142 60.3671C28.2257 60.3651 28.2372 60.3631 28.2486 60.3611L27.7375 57.55ZM26.9089 57.7429L26.0537 55.0167C26.0249 55.0257 25.9963 55.0352 25.9679 55.0451L26.9089 57.7429ZM26.3589 58L24.8575 55.5691C24.8466 55.5759 24.8358 55.5827 24.825 55.5895L26.3589 58ZM25.9804 58.3643L23.6031 56.7794C23.5907 56.798 23.5785 56.8167 23.5666 56.8356L25.9804 58.3643ZM25.9946 59.4429L23.5267 60.8825C23.5326 60.8926 23.5386 60.9028 23.5447 60.9128L25.9946 59.4429ZM26.4518 59.8429L25.198 62.4102L25.198 62.4102L26.4518 59.8429ZM26.9732 58.3571C26.8599 58.3571 26.8054 58.3466 26.7967 58.3447C26.7902 58.3432 26.8321 58.3517 26.9013 58.3894L24.1737 63.4106C25.0855 63.9059 26.0648 64.0714 26.9732 64.0714V58.3571ZM26.925 58.4024C26.9284 58.4042 26.961 58.4231 27.0065 58.4668C27.0533 58.5116 27.0987 58.5684 27.1354 58.6323L22.1824 61.482C22.6667 62.3238 23.3574 62.9573 24.1499 63.3976L26.925 58.4024ZM27.1581 58.6725C27.1783 58.7088 27.1968 58.7538 27.2091 58.8026C27.2213 58.8507 27.2232 58.8857 27.2232 58.9H21.5089C21.5089 59.7833 21.7201 60.6483 22.1597 61.4418L27.1581 58.6725ZM27.2232 58.9C27.2232 58.8462 27.232 58.9307 27.1612 59.082L21.9852 56.6609C21.6382 57.4027 21.5089 58.1728 21.5089 58.9H27.2232ZM27.1612 59.082C27.1307 59.1473 27.0899 59.2128 27.0407 59.2729C26.9919 59.3326 26.9444 59.375 26.9082 59.4023L23.4668 54.8405C22.8399 55.3135 22.3294 55.925 21.9852 56.6609L27.1612 59.082ZM26.9334 59.3831C26.8973 59.411 26.9234 59.3794 27.0713 59.3313L25.3037 53.8973C24.6611 54.1063 24.0206 54.4128 23.4416 54.8597L26.9334 59.3831ZM26.9875 59.3571C27.2102 59.2922 27.4936 59.226 27.8465 59.164L26.857 53.536C26.3433 53.6263 25.8505 53.7364 25.3875 53.8714L26.9875 59.3571ZM27.8465 59.164C28.2443 59.0941 28.666 59.0277 29.1122 58.9653L28.3199 53.3062C27.8138 53.377 27.326 53.4536 26.857 53.536L27.8465 59.164ZM29.1084 58.9658C29.5919 58.8988 30.0706 58.8317 30.5447 58.7647L29.7446 53.1067C29.2758 53.173 28.8022 53.2393 28.3238 53.3056L29.1084 58.9658ZM28.7627 53.435L28.2198 53.735L30.9837 58.7364L31.5266 58.4364L28.7627 53.435ZM32.4586 56.2807C32.4736 55.3241 32.2895 54.0159 31.3208 52.9607L27.1113 56.8251C26.8955 56.59 26.8024 56.3604 26.7664 56.2352C26.7336 56.1212 26.7466 56.0909 26.745 56.1907L32.4586 56.2807ZM31.3534 52.9968C30.2882 51.796 28.8189 51.5929 27.8589 51.5929V57.3071C27.9777 57.3071 27.9345 57.3228 27.794 57.2769C27.6371 57.2257 27.3477 57.0921 27.0787 56.7889L31.3534 52.9968ZM27.8589 51.5929C26.9848 51.5929 26.1272 51.8042 25.3422 52.2464L28.1471 57.225C28.101 57.2509 28.0457 57.2738 27.9864 57.289C27.9278 57.3041 27.8826 57.3071 27.8589 57.3071V51.5929ZM25.3691 52.2315C24.2673 52.8367 23.6173 53.8144 23.3067 54.824L28.7683 56.5045C28.7521 56.5572 28.704 56.685 28.5873 56.8382C28.4655 56.9982 28.3041 57.1389 28.1202 57.2399L25.3691 52.2315ZM26.8777 52.9335L25.4849 52.5049L23.8044 57.9665L25.1973 58.3951L26.8777 52.9335ZM27.3904 56.0258C27.3992 55.9951 27.4068 55.9772 27.4105 55.9693C27.414 55.9616 27.4152 55.9606 27.413 55.9637C27.4108 55.967 27.4082 55.97 27.4066 55.9717C27.405 55.9733 27.4079 55.97 27.4182 55.9625L24.0425 51.3518C22.9759 52.1328 22.2565 53.2029 21.8989 54.4456L27.3904 56.0258ZM27.4084 55.9696C27.3172 56.0358 27.3835 55.9286 27.8732 55.9286V50.2143C26.582 50.2143 25.2197 50.4976 24.0523 51.3447L27.4084 55.9696ZM27.8732 55.9286C28.2388 55.9286 28.409 55.9915 28.4636 56.017L30.8828 50.8401C29.9184 50.3895 28.8886 50.2143 27.8732 50.2143V55.9286ZM28.4927 56.0304C28.4639 56.0174 28.4014 55.9822 28.3337 55.9153C28.2658 55.8482 28.2284 55.7847 28.2133 55.7524L33.3903 53.3333C32.8625 52.2039 31.9854 51.3402 30.8537 50.8267L28.4927 56.0304ZM28.2367 55.8012C28.225 55.7774 28.2137 55.7488 28.2046 55.7171C28.1955 55.6853 28.1903 55.6561 28.1879 55.6319L33.8728 55.0538C33.8102 54.4374 33.6406 53.8424 33.3669 53.2845L28.2367 55.8012ZM28.1879 55.6319C28.2054 55.8041 28.2161 56.0091 28.2161 56.25H33.9304C33.9304 55.8433 33.9125 55.4435 33.8728 55.0538L28.1879 55.6319ZM28.2161 56.25V61H33.9304V56.25H28.2161ZM31.0732 58.1429H29.7518V63.8571H31.0732V58.1429ZM32.6089 61V59.2357H26.8946V61H32.6089ZM27.8536 61.3712L28.1107 61.5997L31.9071 57.3288L31.65 57.1003L27.8536 61.3712ZM27.4952 58.1061C27.4361 58.2155 27.3895 58.2729 27.3661 58.2981C27.3446 58.3215 27.3368 58.3243 27.342 58.3212L30.233 63.2502C31.2501 62.6537 31.9978 61.7937 32.5226 60.8225L27.4952 58.1061ZM27.3494 58.3169C27.3974 58.2889 27.3197 58.3571 26.9732 58.3571V64.0714C28.0648 64.0714 29.1966 63.8539 30.2256 63.2545L27.3494 58.3169ZM27.2375 62.85C27.987 62.85 28.7977 62.7197 29.5759 62.3428L27.0848 57.2001C27.2535 57.1184 27.3356 57.1357 27.2375 57.1357V62.85ZM29.6081 62.3269C30.2318 62.0151 30.8224 61.5742 31.3016 60.9721L26.8306 57.4136C26.9383 57.2782 27.0384 57.223 27.0526 57.2159L29.6081 62.3269ZM31.3016 60.9721C31.7143 60.4536 32.0514 59.8265 32.217 59.0952L26.6437 57.8334C26.695 57.6068 26.7893 57.4654 26.8306 57.4136L31.3016 60.9721ZM32.1236 59.4181C32.318 58.8691 32.404 58.3156 32.4216 57.788L26.7105 57.5977C26.7091 57.6415 26.7046 57.6023 26.7371 57.5104L32.1236 59.4181ZM32.4196 57.8355C32.435 57.5291 32.4446 57.247 32.4446 57.0071H26.7304C26.7304 57.1101 26.7257 57.2852 26.7125 57.5502L32.4196 57.8355ZM28.6016 59.6888L29.0873 59.8674L31.0591 54.5041L30.5734 54.3255L28.6016 59.6888ZM29.6452 54.3608C29.1762 54.4319 28.7508 54.4957 28.3688 54.5523L29.2062 60.2049C29.5956 60.1472 30.0273 60.0824 30.5012 60.0106L29.6452 54.3608ZM28.3688 54.5523C27.9586 54.613 27.5772 54.6752 27.2264 54.7389L28.2486 60.3611C28.5264 60.3106 28.8449 60.2584 29.2062 60.2049L28.3688 54.5523ZM27.2608 54.7329C26.8514 54.8022 26.4451 54.8939 26.0537 55.0167L27.7642 60.469C27.8584 60.4394 28.0045 60.4026 28.2142 60.3671L27.2608 54.7329ZM25.9679 55.0451C25.5938 55.1756 25.2184 55.3462 24.8575 55.5691L27.8603 60.4309C27.8416 60.4424 27.8301 60.448 27.8279 60.4489C27.8259 60.4499 27.8326 60.4466 27.85 60.4406L25.9679 55.0451ZM24.825 55.5895C24.3611 55.8847 23.9371 56.2784 23.6031 56.7794L28.3576 59.9491C28.2141 60.1644 28.0424 60.3153 27.8929 60.4105L24.825 55.5895ZM23.5666 56.8356C23.1306 57.524 22.9875 58.2546 22.9875 58.8857H28.7018C28.7018 59.1073 28.6492 59.4903 28.3941 59.893L23.5666 56.8356ZM22.9875 58.8857C22.9875 59.5875 23.1697 60.2706 23.5267 60.8825L28.4626 58.0032C28.6195 58.2723 28.7018 58.584 28.7018 58.8857H22.9875ZM23.5447 60.9128C23.975 61.6302 24.584 62.1104 25.198 62.4102L27.7056 57.2755C27.91 57.3754 28.2142 57.5889 28.4446 57.9729L23.5447 60.9128ZM25.198 62.4102C25.9172 62.7614 26.647 62.85 27.2375 62.85V57.1357C27.2239 57.1357 27.2615 57.1344 27.3376 57.1489C27.4144 57.1636 27.5455 57.1974 27.7056 57.2755L25.198 62.4102ZM35.3061 61L32.6204 61.9748C33.0306 63.1048 34.1041 63.8571 35.3061 63.8571V61ZM32.5061 53.2857V50.4286C31.5744 50.4286 30.7012 50.8829 30.1664 51.6459C29.6317 52.4089 29.5025 53.3847 29.8204 54.2605L32.5061 53.2857ZM34.0133 53.2857L36.7093 52.3398C36.3076 51.1949 35.2266 50.4286 34.0133 50.4286V53.2857ZM36.0633 59.1286L33.3673 60.0745C33.769 61.2194 34.85 61.9857 36.0633 61.9857C37.2766 61.9857 38.3576 61.2194 38.7593 60.0745L36.0633 59.1286ZM38.1133 53.2857V50.4286C36.9 50.4286 35.819 51.1949 35.4173 52.3398L38.1133 53.2857ZM39.6204 53.2857L42.3061 54.2605C42.624 53.3847 42.4949 52.4089 41.9601 51.6459C41.4254 50.8829 40.5522 50.4286 39.6204 50.4286V53.2857ZM36.8204 61V63.8571C38.0225 63.8571 39.096 63.1048 39.5061 61.9748L36.8204 61ZM37.9918 60.0252L35.1918 52.3109L29.8204 54.2605L32.6204 61.9748L37.9918 60.0252ZM32.5061 56.1429H34.0133V50.4286H32.5061V56.1429ZM31.3173 54.2316L33.3673 60.0745L38.7593 58.1827L36.7093 52.3398L31.3173 54.2316ZM38.7593 60.0745L40.8093 54.2316L35.4173 52.3398L33.3673 58.1827L38.7593 60.0745ZM38.1133 56.1429H39.6204V50.4286H38.1133V56.1429ZM36.9347 52.3109L34.1347 60.0252L39.5061 61.9748L42.3061 54.2605L36.9347 52.3109ZM36.8204 58.1429H35.3061V63.8571H36.8204V58.1429ZM41.6216 52.0214H38.7645C38.7645 53.5994 40.0437 54.8786 41.6216 54.8786V52.0214ZM41.6216 50.5714V47.7143C40.0437 47.7143 38.7645 48.9935 38.7645 50.5714H41.6216ZM43.1145 50.5714H45.9716C45.9716 48.9935 44.6925 47.7143 43.1145 47.7143V50.5714ZM43.1145 52.0214V54.8786C44.6925 54.8786 45.9716 53.5994 45.9716 52.0214H43.1145ZM41.6216 61H38.7645C38.7645 62.578 40.0437 63.8571 41.6216 63.8571V61ZM41.6216 53.2857V50.4286C40.0437 50.4286 38.7645 51.7078 38.7645 53.2857H41.6216ZM43.1145 53.2857H45.9716C45.9716 51.7078 44.6925 50.4286 43.1145 50.4286V53.2857ZM43.1145 61V63.8571C44.6925 63.8571 45.9716 62.578 45.9716 61H43.1145ZM44.4788 52.0214V50.5714H38.7645V52.0214H44.4788ZM41.6216 53.4286H43.1145V47.7143H41.6216V53.4286ZM40.2574 50.5714V52.0214H45.9716V50.5714H40.2574ZM43.1145 49.1643H41.6216V54.8786H43.1145V49.1643ZM44.4788 61V53.2857H38.7645V61H44.4788ZM41.6216 56.1429H43.1145V50.4286H41.6216V56.1429ZM40.2574 53.2857V61H45.9716V53.2857H40.2574ZM43.1145 58.1429H41.6216V63.8571H43.1145V58.1429ZM47.8023 64.45L46.8988 67.1605L46.9088 67.1638L47.8023 64.45ZM46.7452 63.8786L48.5178 61.6378C48.5109 61.6323 48.5039 61.6269 48.497 61.6215L46.7452 63.8786ZM45.9523 62.9571L44.6588 60.4096C43.9613 60.7637 43.4396 61.3883 43.2152 62.1377C42.9909 62.887 43.0836 63.6955 43.4716 64.3747L45.9523 62.9571ZM47.3309 62.2571L49.879 60.9646C49.5361 60.2887 48.9387 59.7766 48.2182 59.5413C47.4977 59.3059 46.7132 59.3664 46.0373 59.7096L47.3309 62.2571ZM48.0452 62.9786L46.7832 65.5419L48.0452 62.9786ZM50.1095 62.9786L48.848 60.415C48.8372 60.4203 48.8264 60.4257 48.8156 60.4312L50.1095 62.9786ZM50.7881 62.3071L48.2571 60.9814C48.2516 60.992 48.2461 61.0026 48.2407 61.0132L50.7881 62.3071ZM51.0166 61.1929H48.1595C48.1595 61.2031 48.1595 61.2133 48.1597 61.2236L51.0166 61.1929ZM51.0166 59.0357V56.1786C49.4387 56.1786 48.1595 57.4578 48.1595 59.0357H51.0166ZM51.1952 59.0357V61.8929C52.7732 61.8929 54.0523 60.6137 54.0523 59.0357H51.1952ZM51.1952 53.2857V50.4286C49.6172 50.4286 48.3381 51.7078 48.3381 53.2857H51.1952ZM52.5166 53.2857H55.3738C55.3738 51.7078 54.0946 50.4286 52.5166 50.4286V53.2857ZM52.4952 61.7929L55.3439 62.012L52.4952 61.7929ZM52.4166 62.35L55.2122 62.9399C55.2133 62.9346 55.2144 62.9294 55.2155 62.9241L52.4166 62.35ZM51.7881 63.6357L49.6807 61.7064C49.6757 61.7118 49.6708 61.7173 49.6658 61.7227L51.7881 63.6357ZM50.6166 64.3929L49.6728 61.6961L49.6643 61.6991L50.6166 64.3929ZM47.0309 60.6786L45.4113 63.0324L45.4214 63.0392L47.0309 60.6786ZM45.8238 59.2214L43.222 60.4022C43.2257 60.4103 43.2294 60.4183 43.2331 60.4264L45.8238 59.2214ZM45.8309 55.0571L48.4179 56.2698L48.4215 56.2621L45.8309 55.0571ZM47.0452 53.6071L48.64 55.9778L48.6448 55.9745L47.0452 53.6071ZM50.7595 53.6071L49.0883 55.9245C49.0967 55.9306 49.1051 55.9366 49.1136 55.9426L50.7595 53.6071ZM51.8881 55.0571L49.2453 56.1429C49.2477 56.1488 49.2501 56.1546 49.2525 56.1604L51.8881 55.0571ZM51.8881 59.2143L54.5236 60.3175L51.8881 59.2143ZM50.7523 60.6786L52.413 63.0035C52.4179 63 52.4227 62.9966 52.4276 62.9931L50.7523 60.6786ZM50.9809 58.55L53.6786 59.4911V59.4911L50.9809 58.55ZM50.9738 55.7214L48.2761 56.6625C48.2793 56.6718 48.2826 56.6811 48.2859 56.6903L50.9738 55.7214ZM50.3023 54.7643L48.5708 57.0369C48.5765 57.0413 48.5823 57.0457 48.5881 57.05L50.3023 54.7643ZM47.9309 54.7857L46.2004 52.5123L47.9309 54.7857ZM47.2166 55.7643L44.5491 54.7407C44.5457 54.7498 44.5422 54.7588 44.5389 54.7679L47.2166 55.7643ZM47.2166 58.5214L44.5351 59.5077C44.5397 59.5202 44.5444 59.5326 44.5491 59.545L47.2166 58.5214ZM47.9166 59.5L46.153 61.7478C46.1585 61.7522 46.1641 61.7565 46.1696 61.7608L47.9166 59.5ZM49.0095 61.7857C48.8964 61.7857 48.7958 61.7691 48.6959 61.7362L46.9088 67.1638C47.5899 67.3881 48.294 67.5 49.0095 67.5V61.7857ZM48.7058 61.7395C48.6351 61.7159 48.5768 61.6844 48.5178 61.6378L44.9726 66.1194C45.5517 66.5775 46.1982 66.927 46.8988 67.1605L48.7058 61.7395ZM48.497 61.6215C48.487 61.6137 48.4655 61.5965 48.433 61.5396L43.4716 64.3747C43.8582 65.0511 44.3653 65.6482 44.9934 66.1357L48.497 61.6215ZM47.2459 65.5047L48.6245 64.8047L46.0373 59.7096L44.6588 60.4096L47.2459 65.5047ZM44.7828 63.5496C45.2091 64.39 45.8799 65.0972 46.7832 65.5419L49.3072 60.4152C49.4319 60.4766 49.5559 60.5637 49.6648 60.6737C49.7723 60.7822 49.8399 60.8876 49.879 60.9646L44.7828 63.5496ZM46.7832 65.5419C47.4828 65.8863 48.2405 66.0643 49.0238 66.0643V60.35C49.0659 60.35 49.1169 60.3549 49.1719 60.3677C49.2267 60.3806 49.2727 60.3983 49.3072 60.4152L46.7832 65.5419ZM49.0238 66.0643C49.7834 66.0643 50.612 65.9279 51.4034 65.5259L48.8156 60.4312C49.007 60.334 49.1118 60.35 49.0238 60.35V66.0643ZM51.3709 65.5422C52.2295 65.1197 52.905 64.4485 53.3354 63.601L48.2407 61.0132C48.2951 60.9061 48.3778 60.7845 48.4945 60.669C48.6114 60.5534 48.7357 60.4703 48.848 60.415L51.3709 65.5422ZM53.319 63.6329C53.7523 62.8056 53.8819 61.9366 53.8736 61.1621L48.1597 61.2236C48.1608 61.3349 48.1381 61.2087 48.2571 60.9814L53.319 63.6329ZM53.8738 61.1929V59.0357H48.1595V61.1929H53.8738ZM51.0166 61.8929H51.1952V56.1786H51.0166V61.8929ZM54.0523 59.0357V53.2857H48.3381V59.0357H54.0523ZM51.1952 56.1429H52.5166V50.4286H51.1952V56.1429ZM49.6595 53.2857V61.2071H55.3738V53.2857H49.6595ZM49.6595 61.2071C49.6595 61.3459 49.6546 61.4677 49.6465 61.5737L55.3439 62.012C55.3643 61.7466 55.3738 61.4779 55.3738 61.2071H49.6595ZM49.6465 61.5737C49.6415 61.6381 49.6323 61.7052 49.6178 61.7759L55.2155 62.9241C55.2772 62.6233 55.3203 62.3191 55.3439 62.012L49.6465 61.5737ZM49.621 61.7601C49.6095 61.8147 49.6011 61.825 49.6105 61.8058C49.6151 61.7964 49.6232 61.7817 49.6355 61.7634C49.648 61.7451 49.6631 61.7256 49.6807 61.7064L53.8954 65.565C54.6012 64.7941 55.014 63.8792 55.2122 62.9399L49.621 61.7601ZM49.6658 61.7227C49.6747 61.7129 49.6843 61.7036 49.6939 61.6955C49.7034 61.6874 49.7111 61.682 49.7157 61.679C49.7202 61.6761 49.7202 61.6766 49.714 61.6795C49.7077 61.6826 49.6945 61.6885 49.6728 61.6961L51.5605 67.0896C52.439 66.7821 53.251 66.2801 53.9103 65.5487L49.6658 61.7227ZM49.6643 61.6991C49.553 61.7385 49.3481 61.7857 49.0095 61.7857V67.5C49.8709 67.5 50.7374 67.3806 51.569 67.0866L49.6643 61.6991ZM48.8952 58.3571C48.7731 58.3571 48.7062 58.3422 48.6789 58.3343C48.6546 58.3273 48.6461 58.3218 48.6404 58.3179L45.4214 63.0392C46.4815 63.762 47.6817 64.0714 48.8952 64.0714V58.3571ZM48.6505 58.3248C48.5835 58.2787 48.5016 58.204 48.4144 58.0165L43.2331 60.4264C43.7173 61.4674 44.4402 62.3641 45.4113 63.0323L48.6505 58.3248ZM48.4255 58.0406C48.3342 57.8394 48.2595 57.5547 48.2595 57.1357H42.5452C42.5452 58.2596 42.7515 59.3653 43.222 60.4022L48.4255 58.0406ZM48.2595 57.1357C48.2595 56.7147 48.3354 56.4459 48.4179 56.2698L43.2439 53.8445C42.755 54.8875 42.5452 56.0044 42.5452 57.1357H48.2595ZM48.4215 56.2621C48.5044 56.084 48.5798 56.0183 48.64 55.9778L45.4504 51.2365C44.463 51.9008 43.7289 52.8017 43.2403 53.8522L48.4215 56.2621ZM48.6448 55.9745C48.6537 55.9686 48.666 55.9612 48.6948 55.953C48.7265 55.9439 48.7977 55.9286 48.9238 55.9286V50.2143C47.7092 50.2143 46.5083 50.5217 45.4456 51.2397L48.6448 55.9745ZM48.9238 55.9286C49.0551 55.9286 49.1169 55.9446 49.1287 55.9481C49.1347 55.9499 49.1315 55.9494 49.1217 55.9447C49.1118 55.9399 49.1 55.933 49.0883 55.9245L52.4307 51.2897C51.3606 50.518 50.1334 50.2143 48.9238 50.2143V55.9286ZM49.1136 55.9426C49.1311 55.9549 49.1811 55.9867 49.2453 56.1429L54.5308 53.9713C54.0903 52.899 53.3879 51.9641 52.4054 51.2717L49.1136 55.9426ZM49.2525 56.1604C49.3421 56.3744 49.4166 56.6837 49.4166 57.1357H55.1309C55.1309 56.0449 54.9483 54.9685 54.5236 53.9539L49.2525 56.1604ZM49.4166 57.1357C49.4166 57.5877 49.3421 57.8971 49.2525 58.111L54.5236 60.3175C54.9483 59.3029 55.1309 58.2266 55.1309 57.1357H49.4166ZM49.2525 58.111C49.1815 58.2807 49.1183 58.3343 49.0771 58.3641L52.4276 62.9931C53.3864 62.299 54.0803 61.3765 54.5236 60.3175L49.2525 58.111ZM49.0917 58.3536C49.118 58.3348 49.1346 58.3313 49.1212 58.3351C49.1033 58.3403 49.0345 58.3571 48.8952 58.3571V64.0714C50.1063 64.0714 51.3375 63.7718 52.413 63.0035L49.0917 58.3536ZM49.1023 62.7214C50.0468 62.7214 51.0988 62.4919 52.0222 61.7958L48.5824 57.2328C48.7239 57.1261 48.8632 57.0651 48.9702 57.0339C49.0713 57.0044 49.1234 57.0071 49.1023 57.0071V62.7214ZM52.0222 61.7958C52.8357 61.1825 53.3726 60.3685 53.6786 59.4911L48.2832 57.6089C48.2901 57.5893 48.3134 57.5309 48.3675 57.4539C48.4232 57.3749 48.4964 57.2977 48.5824 57.2328L52.0222 61.7958ZM53.6786 59.4911C53.9481 58.7186 54.0523 57.9186 54.0523 57.1357H48.3381C48.3381 57.4195 48.2995 57.5623 48.2832 57.6089L53.6786 59.4911ZM54.0523 57.1357C54.0523 56.3439 53.9433 55.5339 53.6616 54.7526L48.2859 56.6903C48.2995 56.728 48.3381 56.8609 48.3381 57.1357H54.0523ZM53.6715 54.7804C53.3684 53.9115 52.8363 53.0934 52.0166 52.4786L48.5881 57.05C48.4939 56.9794 48.4168 56.8971 48.3597 56.8158C48.3045 56.737 48.2817 56.6787 48.2761 56.6625L53.6715 54.7804ZM52.0339 52.4916C51.1279 51.8013 50.0931 51.5643 49.1523 51.5643V57.2786C49.1541 57.2786 49.0866 57.2789 48.9735 57.2452C48.8547 57.2098 48.7116 57.1442 48.5708 57.0369L52.0339 52.4916ZM49.1523 51.5643C48.182 51.5643 47.1244 51.809 46.2004 52.5123L49.6614 57.0592C49.5308 57.1586 49.3989 57.2186 49.2921 57.2505C49.1911 57.2806 49.1366 57.2786 49.1523 57.2786V51.5643ZM46.2004 52.5123C45.4197 53.1065 44.8779 53.8838 44.5491 54.7407L49.8841 56.7879C49.8802 56.7982 49.8625 56.8399 49.8208 56.897C49.7781 56.9555 49.7234 57.012 49.6614 57.0592L46.2004 52.5123ZM44.5389 54.7679C44.251 55.5416 44.1309 56.3428 44.1309 57.1357H49.8452C49.8452 56.9191 49.8775 56.8061 49.8944 56.7607L44.5389 54.7679ZM44.1309 57.1357C44.1309 57.9307 44.2501 58.7329 44.5351 59.5077L49.8981 57.5351C49.8784 57.4813 49.8452 57.3598 49.8452 57.1357H44.1309ZM44.5491 59.545C44.8695 60.3799 45.3916 61.1505 46.153 61.7478L49.6803 57.2522C49.7433 57.3016 49.7951 57.3576 49.8333 57.4109C49.8514 57.4363 49.8642 57.4578 49.8725 57.4735C49.8766 57.4812 49.8795 57.4873 49.8814 57.4915C49.8833 57.4957 49.8841 57.4979 49.8841 57.4979L44.5491 59.545ZM46.1696 61.7608C47.0781 62.4628 48.1237 62.7214 49.1023 62.7214V57.0071C49.1064 57.0071 49.176 57.0077 49.2879 57.0421C49.405 57.0781 49.5378 57.142 49.6636 57.2392L46.1696 61.7608ZM55.8366 60.9L54.4491 63.3976C54.457 63.402 54.4649 63.4063 54.4728 63.4106L55.8366 60.9ZM54.958 60.0571L52.4589 61.4418C52.4663 61.4553 52.4739 61.4687 52.4815 61.482L54.958 60.0571ZM54.8723 57.8714L52.2843 56.6609V56.6609L54.8723 57.8714ZM55.4866 57.1214L57.2073 59.4023C57.2157 59.396 57.2241 59.3896 57.2325 59.3831L55.4866 57.1214ZM56.4866 56.6143L55.6866 53.8714C55.6585 53.8796 55.6306 53.8882 55.6028 53.8973L56.4866 56.6143ZM57.6509 56.35L58.1457 59.164L58.1457 59.164L57.6509 56.35ZM59.0152 56.1357L58.6229 53.3056L58.619 53.3062L59.0152 56.1357ZM60.4438 55.9357L61.8257 58.4364C63.0321 57.7697 63.5905 56.3369 63.1534 55.0297C62.7164 53.7225 61.4084 52.9137 60.0437 53.1067L60.4438 55.9357ZM59.9009 56.2357L57.0441 56.1907C57.0281 57.2098 57.5561 58.1603 58.4299 58.6851C59.3036 59.2098 60.3908 59.2294 61.2829 58.7364L59.9009 56.2357ZM59.5152 54.8929L57.3778 56.7889C57.3886 56.801 57.3995 56.8131 57.4105 56.8251L59.5152 54.8929ZM57.0438 54.7357L58.4193 57.2399C58.4283 57.235 58.4372 57.23 58.4462 57.225L57.0438 54.7357ZM56.3366 55.6643L55.4964 58.3951C56.2206 58.6179 57.0037 58.5439 57.6734 58.1894C58.3431 57.8348 58.8446 57.2288 59.0674 56.5045L56.3366 55.6643ZM54.9437 55.2357L52.198 54.4456C51.7673 55.9424 52.6148 57.5084 54.1035 57.9665L54.9437 55.2357ZM56.0295 53.6571L54.3514 51.3447L54.3416 51.3518L56.0295 53.6571ZM59.9723 53.4286L58.7628 56.017C58.7724 56.0216 58.7821 56.026 58.7918 56.0304L59.9723 53.4286ZM61.1009 54.5429L58.5124 55.7524C58.5201 55.7688 58.5278 55.785 58.5358 55.8012L61.1009 54.5429ZM61.3295 55.3429L58.487 55.6319L58.487 55.6319L61.3295 55.3429ZM61.3723 61V63.8571C62.9503 63.8571 64.2295 62.578 64.2295 61H61.3723ZM60.0509 61H57.1938C57.1938 62.578 58.4729 63.8571 60.0509 63.8571V61ZM60.0509 59.2357L61.9491 57.1003C61.1082 56.3528 59.9068 56.1684 58.8804 56.6293C57.8541 57.0902 57.1938 58.1106 57.1938 59.2357H60.0509ZM60.308 59.4643L62.8217 60.8225C63.4519 59.6562 63.197 58.2096 62.2062 57.3288L60.308 59.4643ZM59.0866 60.7857L60.5248 63.2545L60.5321 63.2502L59.0866 60.7857ZM58.6295 59.7714L59.875 62.3428C59.8858 62.3376 59.8965 62.3323 59.9072 62.3269L58.6295 59.7714ZM59.3652 59.1929L57.1297 57.4136L59.3652 59.1929ZM59.7295 58.4643L57.0362 57.5104C56.9988 57.6161 56.9676 57.724 56.9429 57.8334L59.7295 58.4643ZM59.8652 57.6929L57.0116 57.5502C57.0108 57.566 57.0102 57.5818 57.0096 57.5977L59.8652 57.6929ZM59.8866 57.0071L60.8725 54.3255C59.996 54.0033 59.0174 54.1297 58.2516 54.6641C57.4858 55.1984 57.0295 56.0733 57.0295 57.0071H59.8866ZM60.3723 57.1857L60.8003 60.0106C62.0899 59.8152 63.0834 58.7713 63.2149 57.4737C63.3464 56.1761 62.5824 54.9541 61.3582 54.5041L60.3723 57.1857ZM59.0866 57.3786L59.5053 60.2049L59.0866 57.3786ZM58.0366 57.55L58.5133 60.3671C58.5248 60.3651 58.5363 60.3631 58.5477 60.3611L58.0366 57.55ZM57.208 57.7429L56.3528 55.0167C56.324 55.0257 56.2954 55.0352 56.267 55.0451L57.208 57.7429ZM56.658 58L55.1566 55.5691C55.1457 55.5759 55.1349 55.5827 55.1241 55.5895L56.658 58ZM56.2795 58.3643L53.9022 56.7794C53.8898 56.798 53.8776 56.8167 53.8657 56.8356L56.2795 58.3643ZM56.2938 59.4429L53.8258 60.8825C53.8317 60.8926 53.8377 60.9028 53.8438 60.9128L56.2938 59.4429ZM56.7509 59.8429L55.4971 62.4102V62.4102L56.7509 59.8429ZM57.2723 58.3571C57.159 58.3571 57.1045 58.3466 57.0958 58.3447C57.0893 58.3432 57.1312 58.3517 57.2004 58.3894L54.4728 63.4106C55.3846 63.9059 56.364 64.0714 57.2723 64.0714V58.3571ZM57.2242 58.4024C57.2275 58.4042 57.2601 58.4231 57.3056 58.4668C57.3524 58.5116 57.3978 58.5684 57.4345 58.6323L52.4815 61.482C52.9658 62.3238 53.6565 62.9573 54.4491 63.3976L57.2242 58.4024ZM57.4572 58.6725C57.4774 58.7088 57.4959 58.7538 57.5082 58.8026C57.5204 58.8507 57.5223 58.8857 57.5223 58.9H51.808C51.808 59.7833 52.0192 60.6483 52.4589 61.4418L57.4572 58.6725ZM57.5223 58.9C57.5223 58.8462 57.5311 58.9307 57.4604 59.082L52.2843 56.6609C51.9373 57.4027 51.808 58.1728 51.808 58.9H57.5223ZM57.4604 59.082C57.4298 59.1473 57.3891 59.2128 57.3398 59.2729C57.291 59.3326 57.2435 59.375 57.2073 59.4023L53.7659 54.8405C53.139 55.3135 52.6285 55.925 52.2843 56.6609L57.4604 59.082ZM57.2325 59.3831C57.1964 59.411 57.2226 59.3794 57.3704 59.3313L55.6028 53.8973C54.9602 54.1063 54.3197 54.4128 53.7407 54.8597L57.2325 59.3831ZM57.2866 59.3571C57.5093 59.2922 57.7927 59.226 58.1457 59.164L57.1561 53.536C56.6424 53.6263 56.1497 53.7364 55.6866 53.8714L57.2866 59.3571ZM58.1457 59.164C58.5434 59.0941 58.9651 59.0277 59.4113 58.9653L58.619 53.3062C58.1129 53.377 57.6251 53.4536 57.1561 53.536L58.1457 59.164ZM59.4075 58.9658C59.891 58.8988 60.3697 58.8317 60.8438 58.7647L60.0437 53.1067C59.5749 53.173 59.1013 53.2393 58.6229 53.3056L59.4075 58.9658ZM59.0618 53.435L58.5189 53.735L61.2829 58.7364L61.8257 58.4364L59.0618 53.435ZM62.7577 56.2807C62.7727 55.3241 62.5886 54.0159 61.6199 52.9607L57.4105 56.8251C57.1946 56.59 57.1015 56.3604 57.0655 56.2352C57.0327 56.1212 57.0457 56.0909 57.0441 56.1907L62.7577 56.2807ZM61.6525 52.9968C60.5873 51.796 59.118 51.5929 58.158 51.5929V57.3071C58.2768 57.3071 58.2337 57.3228 58.0931 57.2769C57.9362 57.2257 57.6468 57.0921 57.3778 56.7889L61.6525 52.9968ZM58.158 51.5929C57.2839 51.5929 56.4263 51.8042 55.6413 52.2464L58.4462 57.225C58.4001 57.2509 58.3448 57.2738 58.2855 57.289C58.2269 57.3041 58.1817 57.3071 58.158 57.3071V51.5929ZM55.6682 52.2315C54.5664 52.8367 53.9165 53.8144 53.6058 54.824L59.0674 56.5045C59.0512 56.5572 59.0031 56.685 58.8865 56.8382C58.7646 56.9982 58.6032 57.1389 58.4193 57.2399L55.6682 52.2315ZM57.1769 52.9335L55.784 52.5049L54.1035 57.9665L55.4964 58.3951L57.1769 52.9335ZM57.6895 56.0258C57.6983 55.9951 57.7059 55.9772 57.7096 55.9693C57.7131 55.9616 57.7143 55.9606 57.7121 55.9637C57.7099 55.967 57.7073 55.97 57.7057 55.9717C57.7041 55.9733 57.707 55.97 57.7173 55.9625L54.3416 51.3518C53.275 52.1328 52.5557 53.2029 52.198 54.4456L57.6895 56.0258ZM57.7075 55.9696C57.6163 56.0358 57.6826 55.9286 58.1723 55.9286V50.2143C56.8811 50.2143 55.5188 50.4976 54.3514 51.3447L57.7075 55.9696ZM58.1723 55.9286C58.5379 55.9286 58.7081 55.9915 58.7628 56.017L61.1819 50.8401C60.2175 50.3895 59.1877 50.2143 58.1723 50.2143V55.9286ZM58.7918 56.0304C58.763 56.0174 58.7006 55.9822 58.6328 55.9153C58.5649 55.8482 58.5275 55.7847 58.5124 55.7524L63.6894 53.3333C63.1616 52.2039 62.2845 51.3402 61.1528 50.8267L58.7918 56.0304ZM58.5358 55.8012C58.5241 55.7774 58.5128 55.7488 58.5037 55.7171C58.4946 55.6853 58.4894 55.6561 58.487 55.6319L64.1719 55.0538C64.1093 54.4374 63.9397 53.8424 63.666 53.2845L58.5358 55.8012ZM58.487 55.6319C58.5045 55.8041 58.5152 56.0091 58.5152 56.25H64.2295C64.2295 55.8433 64.2116 55.4435 64.1719 55.0538L58.487 55.6319ZM58.5152 56.25V61H64.2295V56.25H58.5152ZM61.3723 58.1429H60.0509V63.8571H61.3723V58.1429ZM62.908 61V59.2357H57.1938V61H62.908ZM58.1527 61.3712L58.4099 61.5997L62.2062 57.3288L61.9491 57.1003L58.1527 61.3712ZM57.7944 58.1061C57.7352 58.2155 57.6886 58.2729 57.6653 58.2981C57.6437 58.3215 57.6359 58.3243 57.6411 58.3212L60.5321 63.2502C61.5492 62.6537 62.2969 61.7937 62.8217 60.8225L57.7944 58.1061ZM57.6485 58.3169C57.6965 58.2889 57.6188 58.3571 57.2723 58.3571V64.0714C58.364 64.0714 59.4957 63.8539 60.5247 63.2545L57.6485 58.3169ZM57.5366 62.85C58.2861 62.85 59.0968 62.7197 59.875 62.3428L57.384 57.2001C57.5526 57.1184 57.6347 57.1357 57.5366 57.1357V62.85ZM59.9072 62.3269C60.5309 62.0151 61.1215 61.5742 61.6007 60.9721L57.1297 57.4136C57.2374 57.2782 57.3375 57.223 57.3517 57.2159L59.9072 62.3269ZM61.6007 60.9721C62.0134 60.4536 62.3505 59.8265 62.5161 59.0952L56.9429 57.8334C56.9941 57.6068 57.0884 57.4654 57.1297 57.4136L61.6007 60.9721ZM62.4227 59.4181C62.6171 58.8691 62.7031 58.3156 62.7207 57.788L57.0096 57.5977C57.0082 57.6415 57.0037 57.6023 57.0362 57.5104L62.4227 59.4181ZM62.7188 57.8355C62.7341 57.5291 62.7438 57.247 62.7438 57.0071H57.0295C57.0295 57.1101 57.0249 57.2852 57.0116 57.5502L62.7188 57.8355ZM58.9007 59.6888L59.3864 59.8674L61.3582 54.5041L60.8725 54.3255L58.9007 59.6888ZM59.9443 54.3608C59.4753 54.4319 59.0499 54.4957 58.6679 54.5523L59.5053 60.2049C59.8947 60.1472 60.3265 60.0824 60.8003 60.0106L59.9443 54.3608ZM58.6679 54.5523C58.2577 54.613 57.8763 54.6752 57.5255 54.7389L58.5477 60.3611C58.8255 60.3106 59.144 60.2584 59.5053 60.2049L58.6679 54.5523ZM57.5599 54.7329C57.1505 54.8022 56.7442 54.8939 56.3528 55.0167L58.0633 60.469C58.1576 60.4394 58.3036 60.4026 58.5133 60.3671L57.5599 54.7329ZM56.267 55.0451C55.8929 55.1756 55.5176 55.3462 55.1566 55.5691L58.1594 60.4309C58.1407 60.4424 58.1292 60.448 58.127 60.4489C58.125 60.4499 58.1317 60.4466 58.1491 60.4406L56.267 55.0451ZM55.1241 55.5895C54.6602 55.8847 54.2362 56.2784 53.9022 56.7794L58.6568 59.9491C58.5132 60.1644 58.3415 60.3153 58.192 60.4105L55.1241 55.5895ZM53.8657 56.8356C53.4297 57.524 53.2866 58.2546 53.2866 58.8857H59.0009C59.0009 59.1073 58.9483 59.4903 58.6932 59.893L53.8657 56.8356ZM53.2866 58.8857C53.2866 59.5875 53.4688 60.2706 53.8258 60.8825L58.7617 58.0032C58.9187 58.2723 59.0009 58.584 59.0009 58.8857H53.2866ZM53.8438 60.9128C54.2742 61.6302 54.8831 62.1104 55.4971 62.4102L58.0047 57.2755C58.2091 57.3754 58.5133 57.5889 58.7437 57.9729L53.8438 60.9128ZM55.4971 62.4102C56.2163 62.7614 56.9461 62.85 57.5366 62.85V57.1357C57.523 57.1357 57.5606 57.1344 57.6367 57.1489C57.7135 57.1636 57.8447 57.1974 58.0047 57.2755L55.4971 62.4102ZM68.2128 61L68.7626 63.8038C70.1031 63.5409 71.07 62.366 71.07 61H68.2128ZM66.7843 61.1214L66.8717 58.2656L66.7843 61.1214ZM65.5343 60.85L66.7166 58.249L65.5343 60.85ZM64.7057 60.0643L67.2406 58.7461L67.2381 58.7414L64.7057 60.0643ZM64.4343 59.0929L61.5783 59.1745C61.5787 59.1886 61.5792 59.2028 61.5798 59.217L64.4343 59.0929ZM64.42 51.1429V48.2857C62.842 48.2857 61.5628 49.5649 61.5628 51.1429H64.42ZM65.92 51.1429H68.7771C68.7771 49.5649 67.4979 48.2857 65.92 48.2857V51.1429ZM65.9271 58.7L63.0706 58.7595C63.071 58.7793 63.0716 58.7991 63.0725 58.8189L65.9271 58.7ZM66.0771 59.2786L63.601 60.7042L63.6063 60.7132L66.0771 59.2786ZM66.8914 59.7857L66.5639 62.624C66.5771 62.6255 66.5903 62.627 66.6035 62.6283L66.8914 59.7857ZM68.2128 59.7357H71.07C71.07 58.9081 70.7111 58.1212 70.0863 57.5785C69.4614 57.0359 68.632 56.7908 67.8125 56.9068L68.2128 59.7357ZM62.9414 54.4857H60.0843C60.0843 56.0637 61.3634 57.3429 62.9414 57.3429V54.4857ZM62.9414 53.2857V50.4286C61.3634 50.4286 60.0843 51.7078 60.0843 53.2857H62.9414ZM68.2128 53.2857H71.07C71.07 51.7078 69.7908 50.4286 68.2128 50.4286V53.2857ZM68.2128 54.4857V57.3429C69.7908 57.3429 71.07 56.0637 71.07 54.4857H68.2128ZM67.6631 58.1962C67.3746 58.2528 67.1123 58.273 66.8717 58.2656L66.6968 63.9772C67.3896 63.9984 68.0796 63.9377 68.7626 63.8038L67.6631 58.1962ZM66.8717 58.2656C66.7237 58.2611 66.6883 58.2361 66.7166 58.249L64.352 63.451C65.1135 63.7972 65.9115 63.9532 66.6968 63.9772L66.8717 58.2656ZM66.7166 58.249C66.805 58.2892 66.913 58.3557 67.0181 58.4554C67.1232 58.5551 67.1955 58.6595 67.2406 58.7461L62.1708 61.3824C62.6514 62.3068 63.404 63.0202 64.352 63.451L66.7166 58.249ZM67.2381 58.7414C67.2406 58.746 67.2526 58.7704 67.2646 58.8133C67.2768 58.857 67.2862 58.9101 67.2887 58.9688L61.5798 59.217C61.614 60.0022 61.8313 60.7325 62.1733 61.3872L67.2381 58.7414ZM67.2902 59.0113C67.2817 58.711 67.2771 58.3627 67.2771 57.9643H61.5628C61.5628 58.404 61.5678 58.8081 61.5783 59.1745L67.2902 59.0113ZM67.2771 57.9643V51.1429H61.5628V57.9643H67.2771ZM64.42 54H65.92V48.2857H64.42V54ZM63.0628 51.1429V57.8929H68.7771V51.1429H63.0628ZM63.0628 57.8929C63.0628 58.2158 63.0653 58.5056 63.0706 58.7595L68.7836 58.6405C68.7794 58.4373 68.7771 58.189 68.7771 57.8929H63.0628ZM63.0725 58.8189C63.0962 59.3897 63.2287 60.0575 63.6011 60.7042L68.5532 57.853C68.7445 58.1853 68.7771 58.4674 68.7818 58.5811L63.0725 58.8189ZM63.6063 60.7132C64.2782 61.8705 65.3952 62.4892 66.5639 62.624L67.2189 56.9474C67.3826 56.9663 67.6407 57.0278 67.9197 57.2015C68.2069 57.3804 68.4156 57.6159 68.5479 57.8439L63.6063 60.7132ZM66.6035 62.6283C67.2724 62.6961 67.9538 62.658 68.6132 62.5647L67.8125 56.9068C67.4623 56.9563 67.2628 56.9516 67.1793 56.9431L66.6035 62.6283ZM65.3557 59.7357V61H71.07V59.7357H65.3557ZM65.7985 54.4857V53.2857H60.0843V54.4857H65.7985ZM62.9414 56.1429H68.2128V50.4286H62.9414V56.1429ZM65.3557 53.2857V54.4857H71.07V53.2857H65.3557ZM68.2128 51.6286H62.9414V57.3429H68.2128V51.6286ZM71.4048 60.6929L69.9108 63.1283L71.4048 60.6929ZM70.0905 59.2571L67.5311 60.527C67.535 60.5349 67.539 60.5429 67.543 60.5508L70.0905 59.2571ZM70.1048 55.0143L72.6442 56.3237L72.6484 56.3156L70.1048 55.0143ZM71.4262 53.5857L72.8901 56.0393C72.8952 56.0363 72.9002 56.0333 72.9053 56.0302L71.4262 53.5857ZM75.4191 53.5929L76.9131 51.1574L76.9131 51.1574L75.4191 53.5929ZM76.7334 55.0286L74.1859 56.3222V56.3222L76.7334 55.0286ZM76.7262 59.2643L74.1827 57.9629L74.1787 57.9706L76.7262 59.2643ZM75.4119 60.7L76.891 63.1445C76.896 63.1415 76.901 63.1385 76.9059 63.1354L75.4119 60.7ZM75.0619 59.0643L72.7579 57.3747L72.7551 57.3785L75.0619 59.0643ZM75.0548 55.2071L72.7745 56.9286C72.7808 56.9369 72.7871 56.9452 72.7935 56.9535L75.0548 55.2071ZM72.1762 54.8214L73.8007 57.1718C73.8085 57.1664 73.8162 57.161 73.8239 57.1556L72.1762 54.8214ZM71.4548 55.7571L74.1098 56.8127L74.1141 56.8019L71.4548 55.7571ZM71.7762 59.0786L74.0458 57.343L71.7762 59.0786ZM73.4119 58.3571C73.0819 58.3571 72.9479 58.2875 72.8988 58.2574L69.9108 63.1283C70.9951 63.7934 72.1992 64.0714 73.4119 64.0714V58.3571ZM72.8988 58.2574C72.7952 58.1939 72.7157 58.1164 72.638 57.9635L67.543 60.5508C68.0844 61.6169 68.881 62.4966 69.9108 63.1283L72.8988 58.2574ZM72.65 57.9873C72.5712 57.8285 72.4905 57.5684 72.4905 57.1357H66.7762C66.7762 58.303 67.0003 59.4573 67.5311 60.527L72.65 57.9873ZM72.4905 57.1357C72.4905 56.7076 72.5721 56.4635 72.6442 56.3237L67.5654 53.7049C67.0089 54.7841 66.7762 55.9543 66.7762 57.1357H72.4905ZM72.6484 56.3156C72.7299 56.1563 72.8061 56.0895 72.8901 56.0393L69.9623 51.1321C68.913 51.7581 68.1083 52.6437 67.5612 53.7129L72.6484 56.3156ZM72.9053 56.0302C72.9649 55.9942 73.1001 55.9286 73.4119 55.9286V50.2143C72.2095 50.2143 71.0209 50.4915 69.9472 51.1412L72.9053 56.0302ZM73.4119 55.9286C73.742 55.9286 73.876 55.9982 73.9251 56.0283L76.9131 51.1574C75.8288 50.4923 74.6247 50.2143 73.4119 50.2143V55.9286ZM73.9251 56.0283C74.0287 56.0918 74.1082 56.1693 74.1859 56.3222L79.2809 53.7349C78.7395 52.6688 77.9428 51.7891 76.9131 51.1574L73.9251 56.0283ZM74.1859 56.3222C74.261 56.4702 74.3405 56.7166 74.3405 57.1357H80.0548C80.0548 55.9643 79.8248 54.806 79.2809 53.7349L74.1859 56.3222ZM74.3405 57.1357C74.3405 57.5632 74.2591 57.8135 74.1827 57.9629L79.2698 60.5656C79.8219 59.4865 80.0548 58.3177 80.0548 57.1357H74.3405ZM74.1787 57.9706C74.1011 58.1236 74.0215 58.201 73.9179 58.2646L76.9059 63.1354C77.9357 62.5037 78.7323 61.624 79.2737 60.5579L74.1787 57.9706ZM73.9329 58.2555C73.8788 58.2882 73.7407 58.3571 73.4119 58.3571V64.0714C74.6165 64.0714 75.8118 63.7975 76.891 63.1445L73.9329 58.2555ZM73.4119 62.6643C74.8526 62.6643 76.3563 62.1355 77.3688 60.75L72.7551 57.3785C72.8609 57.2337 73.0209 57.0991 73.2051 57.0161C73.3717 56.9411 73.465 56.95 73.4119 56.95V62.6643ZM77.366 60.7539C78.178 59.6466 78.4691 58.3655 78.4691 57.1357H72.7548C72.7548 57.3087 72.7344 57.397 72.7268 57.4236C72.7208 57.4446 72.7257 57.4186 72.7579 57.3747L77.366 60.7539ZM78.4691 57.1357C78.4691 55.9037 78.1827 54.5829 77.3161 53.4608L72.7935 56.9535C72.7383 56.882 72.7246 56.832 72.7278 56.843C72.7329 56.8607 72.7548 56.9492 72.7548 57.1357H78.4691ZM77.3351 53.4857C76.3192 52.1399 74.8381 51.6214 73.4119 51.6214V57.3357C73.4616 57.3357 73.3717 57.3439 73.2108 57.2725C73.0337 57.194 72.8786 57.0665 72.7745 56.9286L77.3351 53.4857ZM73.4119 51.6214C72.477 51.6214 71.4473 51.8387 70.5286 52.4872L73.8239 57.1556C73.6971 57.2451 73.5775 57.2937 73.4919 57.3174C73.4112 57.3398 73.3776 57.3357 73.4119 57.3357V51.6214ZM70.5517 52.4711C69.7181 53.0472 69.1403 53.8347 68.7955 54.7124L74.1141 56.8019C74.103 56.83 74.0743 56.8918 74.0157 56.9677C73.9559 57.0454 73.8817 57.1158 73.8007 57.1718L70.5517 52.4711ZM68.7998 54.7015C68.4821 55.5006 68.3619 56.3315 68.3619 57.1357H74.0762C74.0762 56.8923 74.1132 56.8042 74.1098 56.8127L68.7998 54.7015ZM68.3619 57.1357C68.3619 58.3698 68.647 59.69 69.5066 60.8141L74.0458 57.343C74.0979 57.4111 74.1093 57.4567 74.1048 57.441C74.0984 57.4187 74.0762 57.3258 74.0762 57.1357H68.3619ZM69.5066 60.8141C70.5175 62.1361 71.9795 62.6643 73.4119 62.6643V56.95C73.3725 56.95 73.466 56.9437 73.6262 57.0151C73.8009 57.0928 73.9488 57.2161 74.0458 57.343L69.5066 60.8141ZM79.3387 61H76.4816C76.4816 62.578 77.7608 63.8571 79.3387 63.8571V61ZM79.3387 53.2857V50.4286C77.7608 50.4286 76.4816 51.7078 76.4816 53.2857H79.3387ZM80.6673 53.2857H83.5244C83.5244 51.7078 82.2453 50.4286 80.6673 50.4286V53.2857ZM80.6673 55.1571L78.3977 56.8927C79.1418 57.8657 80.4233 58.2562 81.5835 57.8634C82.7437 57.4706 83.5244 56.382 83.5244 55.1571H80.6673ZM80.4816 54.9143L77.8149 53.8886C77.4584 54.8155 77.6088 55.861 78.212 56.6499L80.4816 54.9143ZM80.853 54.2357L83.1451 55.9415C83.1514 55.9331 83.1575 55.9247 83.1637 55.9162L80.853 54.2357ZM81.3816 53.7214L82.9664 56.0987C83.0011 56.0756 83.0352 56.0518 83.0688 56.0272L81.3816 53.7214ZM82.0316 53.3929L82.9024 56.1141C82.9133 56.1106 82.9242 56.107 82.9351 56.1034L82.0316 53.3929ZM82.7744 53.25L82.9359 56.1026C82.9538 56.1016 82.9716 56.1004 82.9895 56.099L82.7744 53.25ZM83.503 53.2857H86.3602C86.3602 51.9068 85.3754 50.7247 84.0192 50.4756L83.503 53.2857ZM83.503 54.6857L82.7733 57.4481C83.6304 57.6745 84.544 57.4902 85.2464 56.9493C85.9487 56.4085 86.3602 55.5722 86.3602 54.6857H83.503ZM82.6602 54.6286L82.3975 51.7835L82.3935 51.7839L82.6602 54.6286ZM81.8173 54.9214L83.3694 57.3202L83.3713 57.319L81.8173 54.9214ZM81.2387 55.4929L78.8304 53.9556C78.8226 53.9679 78.8148 53.9802 78.8072 53.9925L81.2387 55.4929ZM80.9387 56.2429L83.7244 56.8782L83.7267 56.8677L80.9387 56.2429ZM80.8459 61V63.8571C82.4238 63.8571 83.703 62.578 83.703 61H80.8459ZM82.1959 61V53.2857H76.4816V61H82.1959ZM79.3387 56.1429H80.6673V50.4286H79.3387V56.1429ZM77.8102 53.2857V55.1571H83.5244V53.2857H77.8102ZM82.9369 53.4216L82.7512 53.1787L78.212 56.6499L78.3977 56.8927L82.9369 53.4216ZM83.1483 55.9399C83.1515 55.9316 83.1531 55.929 83.1521 55.9308C83.1511 55.9326 83.1488 55.9366 83.1451 55.9415L78.5609 52.53C78.2473 52.9514 77.9998 53.4079 77.8149 53.8886L83.1483 55.9399ZM83.1637 55.9162C83.1328 55.9587 83.0689 56.0304 82.9664 56.0987L79.7967 51.3441C79.2943 51.6791 78.878 52.0937 78.5423 52.5552L83.1637 55.9162ZM83.0688 56.0272C83.0078 56.0719 82.9471 56.0998 82.9024 56.1141L81.1608 50.6716C80.6399 50.8383 80.1459 51.0853 79.6944 51.4156L83.0688 56.0272ZM82.9351 56.1034C82.9392 56.102 82.9403 56.1019 82.939 56.1022C82.9377 56.1024 82.9363 56.1026 82.9359 56.1026L82.613 50.3974C82.1048 50.4262 81.6078 50.5224 81.1281 50.6823L82.9351 56.1034ZM82.9895 56.099C83.0024 56.0981 83.0076 56.0984 83.006 56.0984C83.0043 56.0983 82.9976 56.0978 82.9869 56.0958L84.0192 50.4756C83.5293 50.3856 83.0399 50.3647 82.5594 50.401L82.9895 56.099ZM80.6459 53.2857V54.6857H86.3602V53.2857H80.6459ZM84.2327 51.9233C83.6018 51.7567 82.9782 51.7299 82.3975 51.7835L82.9228 57.4736C82.9612 57.4701 82.8995 57.4814 82.7733 57.4481L84.2327 51.9233ZM82.3935 51.7839C81.6293 51.8555 80.9068 52.1068 80.2633 52.5238L83.3713 57.319C83.3131 57.3567 83.2414 57.3933 83.1586 57.4221C83.0758 57.4509 82.9965 57.4667 82.9268 57.4732L82.3935 51.7839ZM80.2652 52.5227C79.7096 52.8821 79.2127 53.3566 78.8304 53.9556L83.6471 57.0301C83.5505 57.1815 83.4393 57.275 83.3694 57.3202L80.2652 52.5227ZM78.8072 53.9925C78.4902 54.5062 78.2767 55.0559 78.1508 55.618L83.7267 56.8677C83.7245 56.8775 83.711 56.9271 83.6703 56.9932L78.8072 53.9925ZM78.1531 55.6075C78.0394 56.106 77.9887 56.6086 77.9887 57.1071H83.703C83.703 56.9962 83.7142 56.9226 83.7243 56.8782L78.1531 55.6075ZM77.9887 57.1071V61H83.703V57.1071H77.9887ZM80.8459 58.1429H79.3387V63.8571H80.8459V58.1429Z" fill="#FF9800" mask="url(#path-9-outside-1_1117_12192)"/>
<defs>
<filter id="filter0_ii_1117_12192" x="8.42243" y="27.8571" width="80.7948" height="42.5" filterUnits="userSpaceOnUse" color-interpolation-filters="sRGB">
<feFlood flood-opacity="0" result="BackgroundImageFix"/>
<feBlend mode="normal" in="SourceGraphic" in2="BackgroundImageFix" result="shape"/>
<feColorMatrix in="SourceAlpha" type="matrix" values="0 0 0 0 0 0 0 0 0 0 0 0 0 0 0 0 0 0 127 0" result="hardAlpha"/>
<feOffset dx="5.71429" dy="5.71429"/>
<feGaussianBlur stdDeviation="2.85714"/>
<feComposite in2="hardAlpha" operator="arithmetic" k2="-1" k3="1"/>
<feColorMatrix type="matrix" values="0 0 0 0 0 0 0 0 0 0 0 0 0 0 0 0 0 0 0.25 0"/>
<feBlend mode="normal" in2="shape" result="effect1_innerShadow_1117_12192"/>
<feColorMatrix in="SourceAlpha" type="matrix" values="0 0 0 0 0 0 0 0 0 0 0 0 0 0 0 0 0 0 127 0" result="hardAlpha"/>
<feOffset dx="-5.71429" dy="-5.71429"/>
<feGaussianBlur stdDeviation="5.71429"/>
<feComposite in2="hardAlpha" operator="arithmetic" k2="-1" k3="1"/>
<feColorMatrix type="matrix" values="0 0 0 0 0.983333 0 0 0 0 0.954653 0 0 0 0 0.954653 0 0 0 0.25 0"/>
<feBlend mode="normal" in2="effect1_innerShadow_1117_12192" result="effect2_innerShadow_1117_12192"/>
</filter>
</defs>
</svg>
