<svg width="96" height="96" viewBox="0 0 96 96" fill="none" xmlns="http://www.w3.org/2000/svg">
<path d="M92 48C92 72.3005 72.3005 92 48 92C23.6995 92 4 72.3005 4 48C4 23.6995 23.6995 4 48 4C72.3005 4 92 23.6995 92 48Z" fill="#BABABA"/>
<path fill-rule="evenodd" clip-rule="evenodd" d="M95.2597 48C95.2597 74.1006 74.101 95.2592 48.0005 95.2592C21.8999 95.2592 0.741211 74.1006 0.741211 48C0.741211 21.8994 21.8999 0.740723 48.0005 0.740723C74.101 0.740723 95.2597 21.8994 95.2597 48ZM48.0005 92C72.301 92 92.0005 72.3005 92.0005 48C92.0005 23.6995 72.301 3.99998 48.0005 3.99998C23.6999 3.99998 4.00047 23.6995 4.00047 48C4.00047 72.3005 23.6999 92 48.0005 92Z" fill="#9E9B9B"/>
<path fill-rule="evenodd" clip-rule="evenodd" d="M7.25854 49.6296C6.35852 49.6296 5.62891 48.9 5.62891 48C5.62891 24.5995 24.5988 5.62963 47.9993 5.62963C48.8993 5.62963 49.6289 6.35925 49.6289 7.25927C49.6289 8.15928 48.8993 8.8889 47.9993 8.8889C26.3988 8.88889 8.88817 26.3995 8.88816 48C8.88816 48.9 8.15855 49.6296 7.25854 49.6296Z" fill="#D3D3D3"/>
<path fill-rule="evenodd" clip-rule="evenodd" d="M88.7405 46.3704C89.6405 46.3704 90.3701 47.1 90.3701 48C90.3701 71.4005 71.4003 90.3704 47.9997 90.3704C47.0997 90.3704 46.3701 89.6408 46.3701 88.7407C46.3701 87.8407 47.0997 87.1111 47.9997 87.1111C69.6002 87.1111 87.1109 69.6005 87.1109 48C87.1109 47.1 87.8405 46.3704 88.7405 46.3704Z" fill="#9F9F9F"/>
<path d="M80.5924 48C80.5924 66.0004 66.0002 80.5926 47.9998 80.5926C29.9994 80.5926 15.4072 66.0004 15.4072 48C15.4072 29.9996 29.9994 15.4074 47.9998 15.4074C66.0002 15.4074 80.5924 29.9996 80.5924 48Z" fill="#BABABA"/>
<path fill-rule="evenodd" clip-rule="evenodd" d="M83.8521 48C83.8521 67.8004 67.8007 83.8518 48.0003 83.8518C28.1999 83.8518 12.1484 67.8004 12.1484 48C12.1484 28.1996 28.1999 12.1481 48.0003 12.1481C67.8007 12.1481 83.8521 28.1996 83.8521 48ZM48.0003 80.5926C66.0007 80.5926 80.5929 66.0004 80.5929 48C80.5929 29.9996 66.0007 15.4074 48.0003 15.4074C29.9999 15.4074 15.4077 29.9996 15.4077 48C15.4077 66.0004 29.9999 80.5926 48.0003 80.5926Z" fill="#9E9B9B"/>
<path fill-rule="evenodd" clip-rule="evenodd" d="M47.9989 75.7037C63.2993 75.7037 75.7027 63.3003 75.7027 48C75.7027 47.1 76.4323 46.3704 77.3323 46.3704C78.2323 46.3704 78.9619 47.1 78.9619 48C78.9619 65.1004 65.0993 78.963 47.9989 78.9629C47.0989 78.9629 46.3693 78.2333 46.3693 77.3333C46.3693 76.4333 47.0989 75.7037 47.9989 75.7037Z" fill="#9F9F9F"/>
<path fill-rule="evenodd" clip-rule="evenodd" d="M48.0001 20.2963C32.6997 20.2963 20.2964 32.6997 20.2964 48C20.2964 48.9 19.5668 49.6296 18.6667 49.6296C17.7667 49.6296 17.0371 48.9 17.0371 48C17.0371 30.8996 30.8997 17.037 48.0001 17.037C48.9001 17.037 49.6297 17.7667 49.6297 18.6667C49.6297 19.5667 48.9001 20.2963 48.0001 20.2963Z" fill="#A9A9A9"/>
<mask id="path-9-outside-1_1117_12244" maskUnits="userSpaceOnUse" x="14" y="30" width="69" height="38" fill="black">
<rect fill="white" x="14" y="30" width="69" height="38"/>
<path d="M17.0661 44V33.7143H21.2233C21.3233 33.7143 21.4471 33.719 21.5947 33.7286C21.7423 33.7333 21.8828 33.7476 22.0161 33.7714C22.5876 33.8619 23.0637 34.0571 23.4447 34.3571C23.8304 34.6571 24.1185 35.0357 24.309 35.4929C24.4995 35.95 24.5947 36.4548 24.5947 37.0071C24.5947 37.5643 24.4995 38.0714 24.309 38.5286C24.1185 38.9857 23.8304 39.3643 23.4447 39.6643C23.0637 39.9643 22.5876 40.1595 22.0161 40.25C21.8828 40.269 21.7399 40.2833 21.5876 40.2929C21.4399 40.3024 21.3185 40.3071 21.2233 40.3071H18.559V44H17.0661ZM18.559 38.8929H21.1661C21.2614 38.8929 21.3661 38.8881 21.4804 38.8786C21.5995 38.869 21.7114 38.8524 21.8161 38.8286C22.1209 38.7571 22.3661 38.6262 22.5518 38.4357C22.7376 38.2405 22.8709 38.0167 22.9518 37.7643C23.0328 37.5119 23.0733 37.2595 23.0733 37.0071C23.0733 36.7548 23.0328 36.5048 22.9518 36.2571C22.8709 36.0048 22.7376 35.7833 22.5518 35.5929C22.3661 35.3976 22.1209 35.2643 21.8161 35.1929C21.7114 35.1643 21.5995 35.1452 21.4804 35.1357C21.3661 35.1262 21.2614 35.1214 21.1661 35.1214H18.559V38.8929ZM26.7369 44V33.5H28.2297V44H26.7369ZM33.1247 44.2143C32.5533 44.2143 32.0747 44.1095 31.689 43.9C31.3033 43.6857 31.0104 43.4048 30.8104 43.0571C30.6152 42.7048 30.5176 42.319 30.5176 41.9C30.5176 41.5095 30.5866 41.1667 30.7247 40.8714C30.8628 40.5762 31.0676 40.3262 31.339 40.1214C31.6104 39.9119 31.9438 39.7429 32.339 39.6143C32.6819 39.5143 33.07 39.4262 33.5033 39.35C33.9366 39.2738 34.3914 39.2024 34.8676 39.1357C35.3485 39.069 35.8247 39.0024 36.2961 38.9357L35.7533 39.2357C35.7628 38.631 35.6342 38.1833 35.3676 37.8929C35.1057 37.5976 34.6533 37.45 34.0104 37.45C33.6057 37.45 33.2342 37.5452 32.8961 37.7357C32.5581 37.9214 32.3223 38.231 32.189 38.6643L30.7961 38.2357C30.9866 37.5738 31.3485 37.0476 31.8819 36.6571C32.42 36.2667 33.1342 36.0714 34.0247 36.0714C34.7152 36.0714 35.3152 36.1905 35.8247 36.4286C36.339 36.6619 36.7152 37.0333 36.9533 37.5429C37.0771 37.7952 37.1533 38.0619 37.1819 38.3429C37.2104 38.6238 37.2247 38.9262 37.2247 39.25V44H35.9033V42.2357L36.1604 42.4643C35.8414 43.0548 35.4342 43.4952 34.939 43.7857C34.4485 44.0714 33.8438 44.2143 33.1247 44.2143ZM33.389 42.9929C33.8128 42.9929 34.1771 42.919 34.4819 42.7714C34.7866 42.619 35.0319 42.4262 35.2176 42.1929C35.4033 41.9595 35.5247 41.7167 35.5819 41.4643C35.6628 41.2357 35.7081 40.9786 35.7176 40.6929C35.7319 40.4071 35.739 40.1786 35.739 40.0071L36.2247 40.1857C35.7533 40.2571 35.3247 40.3214 34.939 40.3786C34.5533 40.4357 34.2033 40.4929 33.889 40.55C33.5795 40.6024 33.3033 40.6667 33.0604 40.7429C32.8557 40.8143 32.6723 40.9 32.5104 41C32.3533 41.1 32.2271 41.2214 32.1319 41.3643C32.0414 41.5071 31.9961 41.681 31.9961 41.8857C31.9961 42.0857 32.0461 42.2714 32.1461 42.4429C32.2461 42.6095 32.3985 42.7429 32.6033 42.8429C32.8081 42.9429 33.07 42.9929 33.389 42.9929ZM44.0652 44C43.5795 44.0952 43.1033 44.1357 42.6367 44.1214C42.17 44.1071 41.7533 44.0167 41.3867 43.85C41.02 43.6833 40.7438 43.4214 40.5581 43.0643C40.3914 42.7452 40.3009 42.4214 40.2867 42.0929C40.2771 41.7595 40.2724 41.3833 40.2724 40.9643V34.1429H41.7724V40.8929C41.7724 41.2024 41.7748 41.4714 41.7795 41.7C41.789 41.9286 41.839 42.1214 41.9295 42.2786C42.1009 42.5738 42.3724 42.7429 42.7438 42.7857C43.12 42.8238 43.5605 42.8071 44.0652 42.7357V44ZM38.7938 37.4857V36.2857H44.0652V37.4857H38.7938ZM46.406 35.0214V33.5714H47.8988V35.0214H46.406ZM46.406 44V36.2857H47.8988V44H46.406ZM56.0295 44V40.2071C56.0295 39.9071 56.0033 39.6 55.9509 39.2857C55.9033 38.9667 55.8081 38.6714 55.6652 38.4C55.5271 38.1286 55.3295 37.9095 55.0724 37.7429C54.82 37.5762 54.489 37.4929 54.0795 37.4929C53.8129 37.4929 53.5605 37.5381 53.3224 37.6286C53.0843 37.7143 52.8748 37.8548 52.6938 38.05C52.5176 38.2452 52.3771 38.5024 52.2724 38.8214C52.1724 39.1405 52.1224 39.5286 52.1224 39.9857L51.1938 39.6357C51.1938 38.9357 51.3248 38.319 51.5867 37.7857C51.8486 37.2476 52.2248 36.8286 52.7152 36.5286C53.2057 36.2286 53.7986 36.0786 54.4938 36.0786C55.0271 36.0786 55.4748 36.1643 55.8367 36.3357C56.1986 36.5071 56.4914 36.7333 56.7152 37.0143C56.9438 37.2905 57.1176 37.5929 57.2367 37.9214C57.3557 38.25 57.4367 38.5714 57.4795 38.8857C57.5224 39.2 57.5438 39.4762 57.5438 39.7143V44H56.0295ZM50.6081 44V36.2857H51.9438V38.5143H52.1224V44H50.6081ZM62.8829 44.2071C62.3495 44.2071 61.9019 44.1214 61.54 43.95C61.1781 43.7786 60.8829 43.5548 60.6543 43.2786C60.4305 42.9976 60.2591 42.6929 60.14 42.3643C60.021 42.0357 59.94 41.7143 59.8972 41.4C59.8543 41.0857 59.8329 40.8095 59.8329 40.5714V36.2857H61.3472V40.0786C61.3472 40.3786 61.371 40.6881 61.4186 41.0071C61.471 41.3214 61.5662 41.6143 61.7043 41.8857C61.8472 42.1571 62.0448 42.3762 62.2972 42.5429C62.5543 42.7095 62.8876 42.7929 63.2972 42.7929C63.5638 42.7929 63.8162 42.75 64.0543 42.6643C64.2924 42.5738 64.4995 42.431 64.6757 42.2357C64.8567 42.0405 64.9972 41.7833 65.0972 41.4643C65.2019 41.1452 65.2543 40.7571 65.2543 40.3L66.1829 40.65C66.1829 41.35 66.0519 41.969 65.79 42.5071C65.5281 43.0405 65.1519 43.4571 64.6614 43.7571C64.171 44.0571 63.5781 44.2071 62.8829 44.2071ZM65.4329 44V41.7714H65.2543V36.2857H66.7614V44H65.4329ZM78.5791 44L78.5862 39.1929C78.5862 38.6357 78.4434 38.2024 78.1576 37.8929C77.8719 37.5786 77.4957 37.4214 77.0291 37.4214C76.7434 37.4214 76.4815 37.4881 76.2434 37.6214C76.01 37.75 75.8196 37.9452 75.6719 38.2071C75.5291 38.4643 75.4576 38.7881 75.4576 39.1786L74.7362 38.8143C74.7267 38.2714 74.841 37.7952 75.0791 37.3857C75.3219 36.9762 75.6505 36.6595 76.0648 36.4357C76.4791 36.2071 76.9434 36.0929 77.4576 36.0929C78.291 36.0929 78.9362 36.3429 79.3934 36.8429C79.8505 37.3429 80.0791 38.0071 80.0791 38.8357L80.0719 44H78.5791ZM69.3291 44V36.2857H70.6576V38.5143H70.8291V44H69.3291ZM73.9576 44L73.9648 39.2214C73.9648 38.6595 73.8219 38.219 73.5362 37.9C73.2553 37.581 72.8767 37.4214 72.4005 37.4214C71.9291 37.4214 71.5481 37.5833 71.2576 37.9071C70.9719 38.231 70.8291 38.6548 70.8291 39.1786L70.1148 38.7214C70.1148 38.2167 70.2362 37.7667 70.4791 37.3714C70.7219 36.9762 71.0505 36.6643 71.4648 36.4357C71.8791 36.2071 72.3481 36.0929 72.8719 36.0929C73.4196 36.0929 73.8862 36.2095 74.2719 36.4429C74.6576 36.6714 74.9505 36.9929 75.1505 37.4071C75.3553 37.8214 75.4576 38.3024 75.4576 38.85L75.4505 44H73.9576ZM27.0474 61V50.7143H31.2046C31.3046 50.7143 31.4284 50.719 31.576 50.7286C31.7236 50.7333 31.8641 50.7476 31.9974 50.7714C32.5689 50.8619 33.0451 51.0571 33.426 51.3571C33.8117 51.6571 34.0998 52.0357 34.2903 52.4929C34.4808 52.95 34.576 53.4548 34.576 54.0071C34.576 54.5643 34.4808 55.0714 34.2903 55.5286C34.0998 55.9857 33.8117 56.3643 33.426 56.6643C33.0451 56.9643 32.5689 57.1595 31.9974 57.25C31.8641 57.269 31.7212 57.2833 31.5689 57.2929C31.4212 57.3024 31.2998 57.3071 31.2046 57.3071H28.5403V61H27.0474ZM28.5403 55.8929H31.1474C31.2427 55.8929 31.3474 55.8881 31.4617 55.8786C31.5808 55.869 31.6927 55.8524 31.7974 55.8286C32.1022 55.7571 32.3474 55.6262 32.5331 55.4357C32.7189 55.2405 32.8522 55.0167 32.9331 54.7643C33.0141 54.5119 33.0546 54.2595 33.0546 54.0071C33.0546 53.7548 33.0141 53.5048 32.9331 53.2571C32.8522 53.0048 32.7189 52.7833 32.5331 52.5929C32.3474 52.3976 32.1022 52.2643 31.7974 52.1929C31.6927 52.1643 31.5808 52.1452 31.4617 52.1357C31.3474 52.1262 31.2427 52.1214 31.1474 52.1214H28.5403V55.8929ZM36.7182 61V50.5H38.211V61H36.7182ZM43.106 61.2143C42.5346 61.2143 42.056 61.1095 41.6703 60.9C41.2846 60.6857 40.9917 60.4048 40.7917 60.0571C40.5965 59.7048 40.4989 59.319 40.4989 58.9C40.4989 58.5095 40.5679 58.1667 40.706 57.8714C40.8441 57.5762 41.0489 57.3262 41.3203 57.1214C41.5917 56.9119 41.9251 56.7429 42.3203 56.6143C42.6632 56.5143 43.0513 56.4262 43.4846 56.35C43.9179 56.2738 44.3727 56.2024 44.8489 56.1357C45.3298 56.069 45.806 56.0024 46.2775 55.9357L45.7346 56.2357C45.7441 55.631 45.6156 55.1833 45.3489 54.8929C45.087 54.5976 44.6346 54.45 43.9917 54.45C43.587 54.45 43.2156 54.5452 42.8775 54.7357C42.5394 54.9214 42.3036 55.231 42.1703 55.6643L40.7775 55.2357C40.9679 54.5738 41.3298 54.0476 41.8632 53.6571C42.4013 53.2667 43.1156 53.0714 44.006 53.0714C44.6965 53.0714 45.2965 53.1905 45.806 53.4286C46.3203 53.6619 46.6965 54.0333 46.9346 54.5429C47.0584 54.7952 47.1346 55.0619 47.1632 55.3429C47.1917 55.6238 47.206 55.9262 47.206 56.25V61H45.8846V59.2357L46.1417 59.4643C45.8227 60.0548 45.4156 60.4952 44.9203 60.7857C44.4298 61.0714 43.8251 61.2143 43.106 61.2143ZM43.3703 59.9929C43.7941 59.9929 44.1584 59.919 44.4632 59.7714C44.7679 59.619 45.0132 59.4262 45.1989 59.1929C45.3846 58.9595 45.506 58.7167 45.5632 58.4643C45.6441 58.2357 45.6894 57.9786 45.6989 57.6929C45.7132 57.4071 45.7203 57.1786 45.7203 57.0071L46.206 57.1857C45.7346 57.2571 45.306 57.3214 44.9203 57.3786C44.5346 57.4357 44.1846 57.4929 43.8703 57.55C43.5608 57.6024 43.2846 57.6667 43.0417 57.7429C42.837 57.8143 42.6536 57.9 42.4917 58C42.3346 58.1 42.2084 58.2214 42.1132 58.3643C42.0227 58.5071 41.9775 58.681 41.9775 58.8857C41.9775 59.0857 42.0275 59.2714 42.1275 59.4429C42.2275 59.6095 42.3798 59.7429 42.5846 59.8429C42.7894 59.9429 43.0513 59.9929 43.3703 59.9929ZM50.2426 64.4286L51.7355 60.3643L51.7569 61.5643L48.3926 53.2857H49.9498L52.4641 59.6786H52.0069L54.4069 53.2857H55.9212L51.6641 64.4286H50.2426ZM60.754 61.2143C59.9874 61.2143 59.3135 61.0476 58.7326 60.7143C58.1564 60.3762 57.7064 59.9071 57.3826 59.3071C57.0635 58.7024 56.904 58.0024 56.904 57.2071C56.904 56.3643 57.0612 55.6333 57.3754 55.0143C57.6945 54.3952 58.1374 53.9167 58.704 53.5786C59.2707 53.2405 59.9302 53.0714 60.6826 53.0714C61.4683 53.0714 62.1374 53.2548 62.6897 53.6214C63.2421 53.9833 63.654 54.5 63.9254 55.1714C64.2016 55.8429 64.3112 56.6405 64.254 57.5643H62.7612V57.0214C62.7516 56.1262 62.5802 55.4643 62.2469 55.0357C61.9183 54.6071 61.4159 54.3929 60.7397 54.3929C59.9921 54.3929 59.4302 54.6286 59.054 55.1C58.6778 55.5714 58.4897 56.2524 58.4897 57.1429C58.4897 57.9905 58.6778 58.6476 59.054 59.1143C59.4302 59.5762 59.9731 59.8071 60.6826 59.8071C61.1493 59.8071 61.5516 59.7024 61.8897 59.4929C62.2326 59.2786 62.4993 58.9738 62.6897 58.5786L64.154 59.0429C63.854 59.7333 63.3993 60.269 62.7897 60.65C62.1802 61.0262 61.5016 61.2143 60.754 61.2143ZM58.004 57.5643V56.4H63.5112V57.5643H58.004ZM66.428 61V53.2857H67.7566V55.1571L67.5709 54.9143C67.6661 54.6667 67.7899 54.4405 67.9423 54.2357C68.0947 54.0262 68.2709 53.8548 68.4709 53.7214C68.6661 53.5786 68.8828 53.469 69.1209 53.3929C69.3637 53.3119 69.6113 53.2643 69.8637 53.25C70.1161 53.231 70.359 53.2429 70.5923 53.2857V54.6857C70.3399 54.619 70.059 54.6 69.7494 54.6286C69.4447 54.6571 69.1637 54.7548 68.9066 54.9214C68.6637 55.0786 68.4709 55.269 68.328 55.4929C68.1899 55.7167 68.0899 55.9667 68.028 56.2429C67.9661 56.5143 67.9352 56.8024 67.9352 57.1071V61H66.428Z"/>
</mask>
<g filter="url(#filter0_ii_1117_12244)">
<path d="M17.0661 44V33.7143H21.2233C21.3233 33.7143 21.4471 33.719 21.5947 33.7286C21.7423 33.7333 21.8828 33.7476 22.0161 33.7714C22.5876 33.8619 23.0637 34.0571 23.4447 34.3571C23.8304 34.6571 24.1185 35.0357 24.309 35.4929C24.4995 35.95 24.5947 36.4548 24.5947 37.0071C24.5947 37.5643 24.4995 38.0714 24.309 38.5286C24.1185 38.9857 23.8304 39.3643 23.4447 39.6643C23.0637 39.9643 22.5876 40.1595 22.0161 40.25C21.8828 40.269 21.7399 40.2833 21.5876 40.2929C21.4399 40.3024 21.3185 40.3071 21.2233 40.3071H18.559V44H17.0661ZM18.559 38.8929H21.1661C21.2614 38.8929 21.3661 38.8881 21.4804 38.8786C21.5995 38.869 21.7114 38.8524 21.8161 38.8286C22.1209 38.7571 22.3661 38.6262 22.5518 38.4357C22.7376 38.2405 22.8709 38.0167 22.9518 37.7643C23.0328 37.5119 23.0733 37.2595 23.0733 37.0071C23.0733 36.7548 23.0328 36.5048 22.9518 36.2571C22.8709 36.0048 22.7376 35.7833 22.5518 35.5929C22.3661 35.3976 22.1209 35.2643 21.8161 35.1929C21.7114 35.1643 21.5995 35.1452 21.4804 35.1357C21.3661 35.1262 21.2614 35.1214 21.1661 35.1214H18.559V38.8929ZM26.7369 44V33.5H28.2297V44H26.7369ZM33.1247 44.2143C32.5533 44.2143 32.0747 44.1095 31.689 43.9C31.3033 43.6857 31.0104 43.4048 30.8104 43.0571C30.6152 42.7048 30.5176 42.319 30.5176 41.9C30.5176 41.5095 30.5866 41.1667 30.7247 40.8714C30.8628 40.5762 31.0676 40.3262 31.339 40.1214C31.6104 39.9119 31.9438 39.7429 32.339 39.6143C32.6819 39.5143 33.07 39.4262 33.5033 39.35C33.9366 39.2738 34.3914 39.2024 34.8676 39.1357C35.3485 39.069 35.8247 39.0024 36.2961 38.9357L35.7533 39.2357C35.7628 38.631 35.6342 38.1833 35.3676 37.8929C35.1057 37.5976 34.6533 37.45 34.0104 37.45C33.6057 37.45 33.2342 37.5452 32.8961 37.7357C32.5581 37.9214 32.3223 38.231 32.189 38.6643L30.7961 38.2357C30.9866 37.5738 31.3485 37.0476 31.8819 36.6571C32.42 36.2667 33.1342 36.0714 34.0247 36.0714C34.7152 36.0714 35.3152 36.1905 35.8247 36.4286C36.339 36.6619 36.7152 37.0333 36.9533 37.5429C37.0771 37.7952 37.1533 38.0619 37.1819 38.3429C37.2104 38.6238 37.2247 38.9262 37.2247 39.25V44H35.9033V42.2357L36.1604 42.4643C35.8414 43.0548 35.4342 43.4952 34.939 43.7857C34.4485 44.0714 33.8438 44.2143 33.1247 44.2143ZM33.389 42.9929C33.8128 42.9929 34.1771 42.919 34.4819 42.7714C34.7866 42.619 35.0319 42.4262 35.2176 42.1929C35.4033 41.9595 35.5247 41.7167 35.5819 41.4643C35.6628 41.2357 35.7081 40.9786 35.7176 40.6929C35.7319 40.4071 35.739 40.1786 35.739 40.0071L36.2247 40.1857C35.7533 40.2571 35.3247 40.3214 34.939 40.3786C34.5533 40.4357 34.2033 40.4929 33.889 40.55C33.5795 40.6024 33.3033 40.6667 33.0604 40.7429C32.8557 40.8143 32.6723 40.9 32.5104 41C32.3533 41.1 32.2271 41.2214 32.1319 41.3643C32.0414 41.5071 31.9961 41.681 31.9961 41.8857C31.9961 42.0857 32.0461 42.2714 32.1461 42.4429C32.2461 42.6095 32.3985 42.7429 32.6033 42.8429C32.8081 42.9429 33.07 42.9929 33.389 42.9929ZM44.0652 44C43.5795 44.0952 43.1033 44.1357 42.6367 44.1214C42.17 44.1071 41.7533 44.0167 41.3867 43.85C41.02 43.6833 40.7438 43.4214 40.5581 43.0643C40.3914 42.7452 40.3009 42.4214 40.2867 42.0929C40.2771 41.7595 40.2724 41.3833 40.2724 40.9643V34.1429H41.7724V40.8929C41.7724 41.2024 41.7748 41.4714 41.7795 41.7C41.789 41.9286 41.839 42.1214 41.9295 42.2786C42.1009 42.5738 42.3724 42.7429 42.7438 42.7857C43.12 42.8238 43.5605 42.8071 44.0652 42.7357V44ZM38.7938 37.4857V36.2857H44.0652V37.4857H38.7938ZM46.406 35.0214V33.5714H47.8988V35.0214H46.406ZM46.406 44V36.2857H47.8988V44H46.406ZM56.0295 44V40.2071C56.0295 39.9071 56.0033 39.6 55.9509 39.2857C55.9033 38.9667 55.8081 38.6714 55.6652 38.4C55.5271 38.1286 55.3295 37.9095 55.0724 37.7429C54.82 37.5762 54.489 37.4929 54.0795 37.4929C53.8129 37.4929 53.5605 37.5381 53.3224 37.6286C53.0843 37.7143 52.8748 37.8548 52.6938 38.05C52.5176 38.2452 52.3771 38.5024 52.2724 38.8214C52.1724 39.1405 52.1224 39.5286 52.1224 39.9857L51.1938 39.6357C51.1938 38.9357 51.3248 38.319 51.5867 37.7857C51.8486 37.2476 52.2248 36.8286 52.7152 36.5286C53.2057 36.2286 53.7986 36.0786 54.4938 36.0786C55.0271 36.0786 55.4748 36.1643 55.8367 36.3357C56.1986 36.5071 56.4914 36.7333 56.7152 37.0143C56.9438 37.2905 57.1176 37.5929 57.2367 37.9214C57.3557 38.25 57.4367 38.5714 57.4795 38.8857C57.5224 39.2 57.5438 39.4762 57.5438 39.7143V44H56.0295ZM50.6081 44V36.2857H51.9438V38.5143H52.1224V44H50.6081ZM62.8829 44.2071C62.3495 44.2071 61.9019 44.1214 61.54 43.95C61.1781 43.7786 60.8829 43.5548 60.6543 43.2786C60.4305 42.9976 60.2591 42.6929 60.14 42.3643C60.021 42.0357 59.94 41.7143 59.8972 41.4C59.8543 41.0857 59.8329 40.8095 59.8329 40.5714V36.2857H61.3472V40.0786C61.3472 40.3786 61.371 40.6881 61.4186 41.0071C61.471 41.3214 61.5662 41.6143 61.7043 41.8857C61.8472 42.1571 62.0448 42.3762 62.2972 42.5429C62.5543 42.7095 62.8876 42.7929 63.2972 42.7929C63.5638 42.7929 63.8162 42.75 64.0543 42.6643C64.2924 42.5738 64.4995 42.431 64.6757 42.2357C64.8567 42.0405 64.9972 41.7833 65.0972 41.4643C65.2019 41.1452 65.2543 40.7571 65.2543 40.3L66.1829 40.65C66.1829 41.35 66.0519 41.969 65.79 42.5071C65.5281 43.0405 65.1519 43.4571 64.6614 43.7571C64.171 44.0571 63.5781 44.2071 62.8829 44.2071ZM65.4329 44V41.7714H65.2543V36.2857H66.7614V44H65.4329ZM78.5791 44L78.5862 39.1929C78.5862 38.6357 78.4434 38.2024 78.1576 37.8929C77.8719 37.5786 77.4957 37.4214 77.0291 37.4214C76.7434 37.4214 76.4815 37.4881 76.2434 37.6214C76.01 37.75 75.8196 37.9452 75.6719 38.2071C75.5291 38.4643 75.4576 38.7881 75.4576 39.1786L74.7362 38.8143C74.7267 38.2714 74.841 37.7952 75.0791 37.3857C75.3219 36.9762 75.6505 36.6595 76.0648 36.4357C76.4791 36.2071 76.9434 36.0929 77.4576 36.0929C78.291 36.0929 78.9362 36.3429 79.3934 36.8429C79.8505 37.3429 80.0791 38.0071 80.0791 38.8357L80.0719 44H78.5791ZM69.3291 44V36.2857H70.6576V38.5143H70.8291V44H69.3291ZM73.9576 44L73.9648 39.2214C73.9648 38.6595 73.8219 38.219 73.5362 37.9C73.2553 37.581 72.8767 37.4214 72.4005 37.4214C71.9291 37.4214 71.5481 37.5833 71.2576 37.9071C70.9719 38.231 70.8291 38.6548 70.8291 39.1786L70.1148 38.7214C70.1148 38.2167 70.2362 37.7667 70.4791 37.3714C70.7219 36.9762 71.0505 36.6643 71.4648 36.4357C71.8791 36.2071 72.3481 36.0929 72.8719 36.0929C73.4196 36.0929 73.8862 36.2095 74.2719 36.4429C74.6576 36.6714 74.9505 36.9929 75.1505 37.4071C75.3553 37.8214 75.4576 38.3024 75.4576 38.85L75.4505 44H73.9576ZM27.0474 61V50.7143H31.2046C31.3046 50.7143 31.4284 50.719 31.576 50.7286C31.7236 50.7333 31.8641 50.7476 31.9974 50.7714C32.5689 50.8619 33.0451 51.0571 33.426 51.3571C33.8117 51.6571 34.0998 52.0357 34.2903 52.4929C34.4808 52.95 34.576 53.4548 34.576 54.0071C34.576 54.5643 34.4808 55.0714 34.2903 55.5286C34.0998 55.9857 33.8117 56.3643 33.426 56.6643C33.0451 56.9643 32.5689 57.1595 31.9974 57.25C31.8641 57.269 31.7212 57.2833 31.5689 57.2929C31.4212 57.3024 31.2998 57.3071 31.2046 57.3071H28.5403V61H27.0474ZM28.5403 55.8929H31.1474C31.2427 55.8929 31.3474 55.8881 31.4617 55.8786C31.5808 55.869 31.6927 55.8524 31.7974 55.8286C32.1022 55.7571 32.3474 55.6262 32.5331 55.4357C32.7189 55.2405 32.8522 55.0167 32.9331 54.7643C33.0141 54.5119 33.0546 54.2595 33.0546 54.0071C33.0546 53.7548 33.0141 53.5048 32.9331 53.2571C32.8522 53.0048 32.7189 52.7833 32.5331 52.5929C32.3474 52.3976 32.1022 52.2643 31.7974 52.1929C31.6927 52.1643 31.5808 52.1452 31.4617 52.1357C31.3474 52.1262 31.2427 52.1214 31.1474 52.1214H28.5403V55.8929ZM36.7182 61V50.5H38.211V61H36.7182ZM43.106 61.2143C42.5346 61.2143 42.056 61.1095 41.6703 60.9C41.2846 60.6857 40.9917 60.4048 40.7917 60.0571C40.5965 59.7048 40.4989 59.319 40.4989 58.9C40.4989 58.5095 40.5679 58.1667 40.706 57.8714C40.8441 57.5762 41.0489 57.3262 41.3203 57.1214C41.5917 56.9119 41.9251 56.7429 42.3203 56.6143C42.6632 56.5143 43.0513 56.4262 43.4846 56.35C43.9179 56.2738 44.3727 56.2024 44.8489 56.1357C45.3298 56.069 45.806 56.0024 46.2775 55.9357L45.7346 56.2357C45.7441 55.631 45.6156 55.1833 45.3489 54.8929C45.087 54.5976 44.6346 54.45 43.9917 54.45C43.587 54.45 43.2156 54.5452 42.8775 54.7357C42.5394 54.9214 42.3036 55.231 42.1703 55.6643L40.7775 55.2357C40.9679 54.5738 41.3298 54.0476 41.8632 53.6571C42.4013 53.2667 43.1156 53.0714 44.006 53.0714C44.6965 53.0714 45.2965 53.1905 45.806 53.4286C46.3203 53.6619 46.6965 54.0333 46.9346 54.5429C47.0584 54.7952 47.1346 55.0619 47.1632 55.3429C47.1917 55.6238 47.206 55.9262 47.206 56.25V61H45.8846V59.2357L46.1417 59.4643C45.8227 60.0548 45.4156 60.4952 44.9203 60.7857C44.4298 61.0714 43.8251 61.2143 43.106 61.2143ZM43.3703 59.9929C43.7941 59.9929 44.1584 59.919 44.4632 59.7714C44.7679 59.619 45.0132 59.4262 45.1989 59.1929C45.3846 58.9595 45.506 58.7167 45.5632 58.4643C45.6441 58.2357 45.6894 57.9786 45.6989 57.6929C45.7132 57.4071 45.7203 57.1786 45.7203 57.0071L46.206 57.1857C45.7346 57.2571 45.306 57.3214 44.9203 57.3786C44.5346 57.4357 44.1846 57.4929 43.8703 57.55C43.5608 57.6024 43.2846 57.6667 43.0417 57.7429C42.837 57.8143 42.6536 57.9 42.4917 58C42.3346 58.1 42.2084 58.2214 42.1132 58.3643C42.0227 58.5071 41.9775 58.681 41.9775 58.8857C41.9775 59.0857 42.0275 59.2714 42.1275 59.4429C42.2275 59.6095 42.3798 59.7429 42.5846 59.8429C42.7894 59.9429 43.0513 59.9929 43.3703 59.9929ZM50.2426 64.4286L51.7355 60.3643L51.7569 61.5643L48.3926 53.2857H49.9498L52.4641 59.6786H52.0069L54.4069 53.2857H55.9212L51.6641 64.4286H50.2426ZM60.754 61.2143C59.9874 61.2143 59.3135 61.0476 58.7326 60.7143C58.1564 60.3762 57.7064 59.9071 57.3826 59.3071C57.0635 58.7024 56.904 58.0024 56.904 57.2071C56.904 56.3643 57.0612 55.6333 57.3754 55.0143C57.6945 54.3952 58.1374 53.9167 58.704 53.5786C59.2707 53.2405 59.9302 53.0714 60.6826 53.0714C61.4683 53.0714 62.1374 53.2548 62.6897 53.6214C63.2421 53.9833 63.654 54.5 63.9254 55.1714C64.2016 55.8429 64.3112 56.6405 64.254 57.5643H62.7612V57.0214C62.7516 56.1262 62.5802 55.4643 62.2469 55.0357C61.9183 54.6071 61.4159 54.3929 60.7397 54.3929C59.9921 54.3929 59.4302 54.6286 59.054 55.1C58.6778 55.5714 58.4897 56.2524 58.4897 57.1429C58.4897 57.9905 58.6778 58.6476 59.054 59.1143C59.4302 59.5762 59.9731 59.8071 60.6826 59.8071C61.1493 59.8071 61.5516 59.7024 61.8897 59.4929C62.2326 59.2786 62.4993 58.9738 62.6897 58.5786L64.154 59.0429C63.854 59.7333 63.3993 60.269 62.7897 60.65C62.1802 61.0262 61.5016 61.2143 60.754 61.2143ZM58.004 57.5643V56.4H63.5112V57.5643H58.004ZM66.428 61V53.2857H67.7566V55.1571L67.5709 54.9143C67.6661 54.6667 67.7899 54.4405 67.9423 54.2357C68.0947 54.0262 68.2709 53.8548 68.4709 53.7214C68.6661 53.5786 68.8828 53.469 69.1209 53.3929C69.3637 53.3119 69.6113 53.2643 69.8637 53.25C70.1161 53.231 70.359 53.2429 70.5923 53.2857V54.6857C70.3399 54.619 70.059 54.6 69.7494 54.6286C69.4447 54.6571 69.1637 54.7548 68.9066 54.9214C68.6637 55.0786 68.4709 55.269 68.328 55.4929C68.1899 55.7167 68.0899 55.9667 68.028 56.2429C67.9661 56.5143 67.9352 56.8024 67.9352 57.1071V61H66.428Z" fill="#E0E0E0"/>
</g>
<path d="M17.0661 44H14.209C14.209 45.578 15.4882 46.8571 17.0661 46.8571V44ZM17.0661 33.7143V30.8571C15.4882 30.8571 14.209 32.1363 14.209 33.7143H17.0661ZM21.5947 33.7286L21.4107 36.5798C21.4413 36.5818 21.4719 36.5832 21.5026 36.5842L21.5947 33.7286ZM22.0161 33.7714L21.5139 36.5841C21.5323 36.5874 21.5508 36.5905 21.5693 36.5934L22.0161 33.7714ZM23.4447 34.3571L21.677 36.6018C21.6815 36.6054 21.686 36.6089 21.6906 36.6124L23.4447 34.3571ZM24.309 35.4929L26.9463 34.394L26.9463 34.394L24.309 35.4929ZM23.4447 39.6643L21.6906 37.409C21.686 37.4125 21.6815 37.4161 21.677 37.4196L23.4447 39.6643ZM22.0161 40.25L22.4202 43.0784C22.4345 43.0764 22.4487 43.0742 22.4629 43.072L22.0161 40.25ZM21.5876 40.2929L21.4093 37.4413L21.4036 37.4416L21.5876 40.2929ZM18.559 40.3071V37.45C16.981 37.45 15.7018 38.7292 15.7018 40.3071H18.559ZM18.559 44V46.8571C20.1369 46.8571 21.4161 45.578 21.4161 44H18.559ZM18.559 38.8929H15.7018C15.7018 40.4708 16.981 41.75 18.559 41.75V38.8929ZM21.4804 38.8786L21.2526 36.0305L21.2431 36.0313L21.4804 38.8786ZM21.8161 38.8286L22.4493 41.6147C22.4556 41.6132 22.4618 41.6118 22.4681 41.6103L21.8161 38.8286ZM22.5518 38.4357L24.5976 40.4303C24.6058 40.4219 24.6139 40.4134 24.622 40.4049L22.5518 38.4357ZM22.9518 37.7643L25.6725 38.6369L22.9518 37.7643ZM22.9518 36.2571L20.2312 37.1298C20.2328 37.1349 20.2345 37.1399 20.2361 37.145L22.9518 36.2571ZM22.5518 35.5929L20.4817 37.562C20.4898 37.5706 20.4979 37.579 20.5061 37.5874L22.5518 35.5929ZM21.8161 35.1929L21.0644 37.9493C21.0975 37.9584 21.1307 37.9668 21.1641 37.9746L21.8161 35.1929ZM21.4804 35.1357L21.2431 37.983L21.2526 37.9838L21.4804 35.1357ZM18.559 35.1214V32.2643C16.981 32.2643 15.7018 33.5435 15.7018 35.1214H18.559ZM19.9233 44V33.7143H14.209V44H19.9233ZM17.0661 36.5714H21.2233V30.8571H17.0661V36.5714ZM21.2233 36.5714C21.2405 36.5714 21.2984 36.5725 21.4107 36.5798L21.7786 30.8774C21.5958 30.8656 21.4061 30.8571 21.2233 30.8571V36.5714ZM21.5026 36.5842C21.5248 36.5849 21.5275 36.5865 21.5139 36.5841L22.5184 30.9588C22.238 30.9087 21.9598 30.8817 21.6868 30.8729L21.5026 36.5842ZM21.5693 36.5934C21.663 36.6083 21.7081 36.6252 21.718 36.6293C21.7258 36.6325 21.7073 36.6256 21.677 36.6018L25.2124 32.1125C24.3799 31.4569 23.4236 31.1015 22.4629 30.9494L21.5693 36.5934ZM21.6906 36.6124C21.693 36.6143 21.6918 36.6136 21.6883 36.6101C21.6848 36.6065 21.6806 36.6018 21.6764 36.5963C21.6723 36.5909 21.6696 36.5866 21.6684 36.5846C21.6673 36.5826 21.6686 36.5845 21.6716 36.5918L26.9463 34.394C26.5689 33.488 25.9793 32.7089 25.1988 32.1018L21.6906 36.6124ZM21.6716 36.5918C21.7012 36.6626 21.7376 36.7884 21.7376 37.0071H27.4518C27.4518 36.1211 27.2978 35.2374 26.9463 34.394L21.6716 36.5918ZM21.7376 37.0071C21.7376 37.2341 21.7 37.3617 21.6716 37.4297L26.9463 39.6275C27.299 38.7812 27.4518 37.8945 27.4518 37.0071H21.7376ZM21.6716 37.4297C21.6686 37.4369 21.6673 37.4389 21.6684 37.4369C21.6696 37.4348 21.6723 37.4305 21.6764 37.4251C21.6806 37.4196 21.6848 37.4149 21.6883 37.4114C21.6917 37.4079 21.693 37.4071 21.6906 37.409L25.1988 41.9196C25.9793 41.3126 26.5689 40.5334 26.9463 39.6275L21.6716 37.4297ZM21.677 37.4196C21.7073 37.3958 21.7258 37.3889 21.718 37.3921C21.7081 37.3962 21.663 37.4132 21.5693 37.428L22.4629 43.072C23.4236 42.9199 24.3799 42.5646 25.2124 41.909L21.677 37.4196ZM21.6121 37.4216C21.5628 37.4286 21.4959 37.4359 21.4093 37.4413L21.7658 43.1444C21.9839 43.1308 22.2028 43.1095 22.4202 43.0784L21.6121 37.4216ZM21.4036 37.4416C21.3488 37.4452 21.306 37.4474 21.2738 37.4486C21.2579 37.4492 21.2457 37.4496 21.2368 37.4498C21.2325 37.4499 21.2291 37.4499 21.2268 37.45C21.2256 37.45 21.2248 37.45 21.2242 37.45C21.2239 37.45 21.2236 37.45 21.2235 37.45C21.2234 37.45 21.2234 37.45 21.2233 37.45C21.2233 37.45 21.2233 37.45 21.2233 37.45C21.2233 37.45 21.2233 37.45 21.2233 37.45V43.1643C21.4036 43.1643 21.5921 43.1556 21.7715 43.1441L21.4036 37.4416ZM21.2233 37.45H18.559V43.1643H21.2233V37.45ZM15.7018 40.3071V44H21.4161V40.3071H15.7018ZM18.559 41.1429H17.0661V46.8571H18.559V41.1429ZM18.559 41.75H21.1661V36.0357H18.559V41.75ZM21.1661 41.75C21.3546 41.75 21.5398 41.7407 21.7177 41.7258L21.2431 36.0313C21.1925 36.0355 21.1682 36.0357 21.1661 36.0357V41.75ZM21.7083 41.7266C21.9489 41.7074 22.1973 41.6719 22.4493 41.6147L21.1829 36.0425C21.2254 36.0328 21.25 36.0307 21.2526 36.0305L21.7083 41.7266ZM22.4681 41.6103C23.2078 41.437 23.9688 41.0751 24.5976 40.4303L20.5061 36.4411C20.7634 36.1772 21.034 36.0773 21.1641 36.0468L22.4681 41.6103ZM24.622 40.4049C25.0992 39.9032 25.4578 39.3062 25.6725 38.6369L20.2312 36.8916C20.284 36.7272 20.3759 36.5778 20.4817 36.4665L24.622 40.4049ZM25.6725 38.6369C25.8393 38.1167 25.9304 37.5703 25.9304 37.0071H20.2161C20.2161 36.9799 20.2184 36.9548 20.2218 36.9333C20.2252 36.9119 20.2293 36.8977 20.2312 36.8916L25.6725 38.6369ZM25.9304 37.0071C25.9304 36.4435 25.8391 35.8942 25.6675 35.3693L20.2361 37.145C20.2264 37.1153 20.2161 37.066 20.2161 37.0071H25.9304ZM25.6725 35.3845C25.4559 34.7093 25.0909 34.1042 24.5976 33.5983L20.5061 37.5874C20.3843 37.4624 20.2859 37.3002 20.2312 37.1298L25.6725 35.3845ZM24.622 33.6237C23.9939 32.9634 23.225 32.5885 22.4681 32.4111L21.1641 37.9746C21.0168 37.9401 20.7383 37.8319 20.4817 37.562L24.622 33.6237ZM22.5679 32.4364C22.2757 32.3567 21.9871 32.31 21.7083 32.2877L21.2526 37.9838C21.2119 37.9805 21.147 37.9719 21.0644 37.9493L22.5679 32.4364ZM21.7177 32.2884C21.5398 32.2736 21.3546 32.2643 21.1661 32.2643V37.9786C21.1682 37.9786 21.1925 37.9788 21.2431 37.983L21.7177 32.2884ZM21.1661 32.2643H18.559V37.9786H21.1661V32.2643ZM15.7018 35.1214V38.8929H21.4161V35.1214H15.7018ZM26.7369 44H23.8797C23.8797 45.578 25.1589 46.8571 26.7369 46.8571V44ZM26.7369 33.5V30.6429C25.1589 30.6429 23.8797 31.922 23.8797 33.5H26.7369ZM28.2297 33.5H31.0869C31.0869 31.922 29.8077 30.6429 28.2297 30.6429V33.5ZM28.2297 44V46.8571C29.8077 46.8571 31.0869 45.578 31.0869 44H28.2297ZM29.594 44V33.5H23.8797V44H29.594ZM26.7369 36.3571H28.2297V30.6429H26.7369V36.3571ZM25.3726 33.5V44H31.0869V33.5H25.3726ZM28.2297 41.1429H26.7369V46.8571H28.2297V41.1429ZM31.689 43.9L30.3015 46.3976C30.3093 46.402 30.3173 46.4063 30.3252 46.4106L31.689 43.9ZM30.8104 43.0571L28.3112 44.4418C28.3187 44.4553 28.3263 44.4687 28.3339 44.482L30.8104 43.0571ZM30.7247 40.8714L28.1367 39.6609L30.7247 40.8714ZM31.339 40.1214L33.0597 42.4023C33.0681 42.396 33.0765 42.3896 33.0849 42.3831L31.339 40.1214ZM32.339 39.6143L31.539 36.8714C31.5109 36.8796 31.483 36.8882 31.4552 36.8973L32.339 39.6143ZM33.5033 39.35L33.9981 42.164H33.9981L33.5033 39.35ZM34.8676 39.1357L34.4753 36.3056L34.4714 36.3062L34.8676 39.1357ZM36.2961 38.9357L37.6781 41.4364C38.8845 40.7697 39.4429 39.3369 39.0058 38.0297C38.5688 36.7225 37.2608 35.9137 35.8961 36.1067L36.2961 38.9357ZM35.7533 39.2357L32.8965 39.1907C32.8805 40.2098 33.4085 41.1603 34.2823 41.6851C35.156 42.2098 36.2432 42.2294 37.1353 41.7364L35.7533 39.2357ZM35.3676 37.8929L33.2302 39.7889C33.241 39.801 33.2519 39.8131 33.2629 39.8251L35.3676 37.8929ZM32.8961 37.7357L34.2717 40.2399C34.2807 40.235 34.2896 40.23 34.2986 40.225L32.8961 37.7357ZM32.189 38.6643L31.3488 41.3951C32.073 41.6179 32.8561 41.5439 33.5258 41.1894C34.1955 40.8348 34.697 40.2288 34.9198 39.5045L32.189 38.6643ZM30.7961 38.2357L28.0504 37.4456C27.6197 38.9424 28.4672 40.5084 29.9559 40.9665L30.7961 38.2357ZM31.8819 36.6571L30.2038 34.3447L30.194 34.3518L31.8819 36.6571ZM35.8247 36.4286L34.6152 39.017C34.6248 39.0216 34.6345 39.026 34.6442 39.0304L35.8247 36.4286ZM36.9533 37.5429L34.3648 38.7524C34.3724 38.7688 34.3802 38.785 34.3882 38.8012L36.9533 37.5429ZM37.1819 38.3429L34.3394 38.6319L34.3394 38.6319L37.1819 38.3429ZM37.2247 44V46.8571C38.8027 46.8571 40.0819 45.578 40.0819 44H37.2247ZM35.9033 44H33.0461C33.0461 45.578 34.3253 46.8571 35.9033 46.8571V44ZM35.9033 42.2357L37.8015 40.1003C36.9605 39.3528 35.7592 39.1684 34.7328 39.6293C33.7065 40.0902 33.0461 41.1106 33.0461 42.2357H35.9033ZM36.1604 42.4643L38.6741 43.8225C39.3043 42.6562 39.0494 41.2096 38.0586 40.3288L36.1604 42.4643ZM34.939 43.7857L36.3772 46.2545L36.3845 46.2502L34.939 43.7857ZM34.4819 42.7714L35.7274 45.3428C35.7382 45.3376 35.7489 45.3323 35.7596 45.3269L34.4819 42.7714ZM35.2176 42.1929L32.9821 40.4136H32.9821L35.2176 42.1929ZM35.5819 41.4643L32.8886 40.5104C32.8512 40.6161 32.82 40.724 32.7953 40.8334L35.5819 41.4643ZM35.7176 40.6929L32.864 40.5502C32.8632 40.566 32.8625 40.5818 32.862 40.5977L35.7176 40.6929ZM35.739 40.0071L36.7249 37.3255C35.8484 37.0033 34.8698 37.1297 34.104 37.6641C33.3382 38.1984 32.8819 39.0733 32.8819 40.0071H35.739ZM36.2247 40.1857L36.6527 43.0106C37.9423 42.8152 38.9358 41.7713 39.0673 40.4737C39.1988 39.1761 38.4348 37.9541 37.2106 37.5041L36.2247 40.1857ZM34.939 40.3786L35.3577 43.2049L34.939 40.3786ZM33.889 40.55L34.3657 43.3671C34.3772 43.3651 34.3887 43.3631 34.4001 43.3611L33.889 40.55ZM33.0604 40.7429L32.2052 38.0167C32.1764 38.0257 32.1478 38.0352 32.1194 38.0451L33.0604 40.7429ZM32.5104 41L31.009 38.5691C30.9981 38.5759 30.9873 38.5827 30.9765 38.5895L32.5104 41ZM32.1319 41.3643L29.7546 39.7794C29.7422 39.798 29.73 39.8167 29.7181 39.8356L32.1319 41.3643ZM32.1461 42.4429L29.6782 43.8825C29.6841 43.8926 29.6901 43.9028 29.6962 43.9128L32.1461 42.4429ZM32.6033 42.8429L31.3495 45.4102L31.3495 45.4102L32.6033 42.8429ZM33.1247 41.3571C33.0114 41.3571 32.9569 41.3466 32.9482 41.3447C32.9417 41.3432 32.9836 41.3517 33.0528 41.3894L30.3252 46.4106C31.237 46.9059 32.2164 47.0714 33.1247 47.0714V41.3571ZM33.0766 41.4024C33.0799 41.4042 33.1125 41.4231 33.158 41.4668C33.2048 41.5116 33.2502 41.5684 33.2869 41.6323L28.3339 44.482C28.8182 45.3238 29.5089 45.9573 30.3015 46.3976L33.0766 41.4024ZM33.3096 41.6725C33.3298 41.7088 33.3483 41.7538 33.3606 41.8026C33.3728 41.8507 33.3747 41.8857 33.3747 41.9H27.6604C27.6604 42.7833 27.8716 43.6483 28.3112 44.4418L33.3096 41.6725ZM33.3747 41.9C33.3747 41.8462 33.3835 41.9307 33.3127 42.082L28.1367 39.6609C27.7897 40.4027 27.6604 41.1728 27.6604 41.9H33.3747ZM33.3127 42.082C33.2822 42.1473 33.2414 42.2128 33.1922 42.2729C33.1434 42.3326 33.0959 42.375 33.0597 42.4023L29.6183 37.8405C28.9914 38.3135 28.4809 38.925 28.1367 39.6609L33.3127 42.082ZM33.0849 42.3831C33.0488 42.411 33.075 42.3794 33.2228 42.3313L31.4552 36.8973C30.8126 37.1063 30.1721 37.4128 29.5931 37.8597L33.0849 42.3831ZM33.139 42.3571C33.3617 42.2922 33.6451 42.226 33.9981 42.164L33.0085 36.536C32.4948 36.6263 32.002 36.7364 31.539 36.8714L33.139 42.3571ZM33.9981 42.164C34.3958 42.0941 34.8175 42.0277 35.2637 41.9653L34.4714 36.3062C33.9653 36.377 33.4775 36.4536 33.0085 36.536L33.9981 42.164ZM35.2599 41.9658C35.7434 41.8988 36.2221 41.8317 36.6962 41.7647L35.8961 36.1067C35.4273 36.173 34.9537 36.2393 34.4753 36.3056L35.2599 41.9658ZM34.9142 36.435L34.3713 36.735L37.1353 41.7364L37.6781 41.4364L34.9142 36.435ZM38.6101 39.2807C38.6251 38.3241 38.441 37.0159 37.4723 35.9607L33.2629 39.8251C33.047 39.59 32.9539 39.3604 32.9179 39.2352C32.8851 39.1212 32.8981 39.0909 32.8965 39.1907L38.6101 39.2807ZM37.5049 35.9968C36.4397 34.796 34.9704 34.5929 34.0104 34.5929V40.3071C34.1292 40.3071 34.086 40.3228 33.9455 40.2769C33.7886 40.2257 33.4992 40.0921 33.2302 39.7889L37.5049 35.9968ZM34.0104 34.5929C33.1363 34.5929 32.2787 34.8042 31.4937 35.2464L34.2986 40.225C34.2525 40.2509 34.1972 40.2738 34.1379 40.289C34.0793 40.3041 34.0341 40.3071 34.0104 40.3071V34.5929ZM31.5206 35.2315C30.4188 35.8367 29.7689 36.8144 29.4582 37.824L34.9198 39.5045C34.9036 39.5572 34.8555 39.685 34.7389 39.8382C34.617 39.9982 34.4556 40.1389 34.2717 40.2399L31.5206 35.2315ZM33.0292 35.9335L31.6364 35.5049L29.9559 40.9665L31.3488 41.3951L33.0292 35.9335ZM33.5419 39.0258C33.5507 38.9951 33.5583 38.9772 33.562 38.9693C33.5655 38.9616 33.5667 38.9606 33.5645 38.9637C33.5623 38.967 33.5597 38.97 33.5581 38.9717C33.5565 38.9733 33.5594 38.97 33.5697 38.9625L30.194 34.3518C29.1274 35.1328 28.4081 36.2029 28.0504 37.4456L33.5419 39.0258ZM33.5599 38.9696C33.4687 39.0358 33.535 38.9286 34.0247 38.9286V33.2143C32.7335 33.2143 31.3712 33.4976 30.2038 34.3447L33.5599 38.9696ZM34.0247 38.9286C34.3903 38.9286 34.5605 38.9915 34.6152 39.017L37.0343 33.8401C36.0699 33.3895 35.0401 33.2143 34.0247 33.2143V38.9286ZM34.6442 39.0304C34.6154 39.0174 34.553 38.9822 34.4852 38.9153C34.4173 38.8482 34.3799 38.7847 34.3648 38.7524L39.5418 36.3333C39.014 35.2039 38.1369 34.3402 37.0052 33.8267L34.6442 39.0304ZM34.3882 38.8012C34.3765 38.7774 34.3652 38.7488 34.3561 38.7171C34.347 38.6853 34.3418 38.6561 34.3394 38.6319L40.0243 38.0538C39.9617 37.4374 39.7921 36.8424 39.5184 36.2845L34.3882 38.8012ZM34.3394 38.6319C34.3569 38.8041 34.3676 39.0091 34.3676 39.25H40.0819C40.0819 38.8433 40.064 38.4435 40.0243 38.0538L34.3394 38.6319ZM34.3676 39.25V44H40.0819V39.25H34.3676ZM37.2247 41.1429H35.9033V46.8571H37.2247V41.1429ZM38.7604 44V42.2357H33.0461V44H38.7604ZM34.0051 44.3712L34.2623 44.5997L38.0586 40.3288L37.8015 40.1003L34.0051 44.3712ZM33.6468 41.1061C33.5876 41.2155 33.541 41.2729 33.5177 41.2981C33.4961 41.3215 33.4883 41.3243 33.4935 41.3212L36.3845 46.2502C37.4016 45.6537 38.1493 44.7937 38.6741 43.8225L33.6468 41.1061ZM33.5009 41.3169C33.5489 41.2889 33.4712 41.3571 33.1247 41.3571V47.0714C34.2163 47.0714 35.3481 46.8539 36.3771 46.2545L33.5009 41.3169ZM33.389 45.85C34.1385 45.85 34.9492 45.7197 35.7274 45.3428L33.2364 40.2001C33.405 40.1184 33.4871 40.1357 33.389 40.1357V45.85ZM35.7596 45.3269C36.3833 45.0151 36.9739 44.5742 37.4531 43.9721L32.9821 40.4136C33.0898 40.2782 33.1899 40.223 33.2041 40.2159L35.7596 45.3269ZM37.4531 43.9721C37.8658 43.4536 38.2029 42.8265 38.3685 42.0952L32.7953 40.8334C32.8465 40.6068 32.9408 40.4654 32.9821 40.4136L37.4531 43.9721ZM38.2751 42.4181C38.4695 41.8691 38.5555 41.3156 38.5731 40.788L32.862 40.5977C32.8606 40.6415 32.8561 40.6023 32.8886 40.5104L38.2751 42.4181ZM38.5712 40.8355C38.5865 40.5291 38.5961 40.247 38.5961 40.0071H32.8819C32.8819 40.1101 32.8772 40.2852 32.864 40.5502L38.5712 40.8355ZM34.7531 42.6888L35.2388 42.8674L37.2106 37.5041L36.7249 37.3255L34.7531 42.6888ZM35.7967 37.3608C35.3277 37.4319 34.9023 37.4957 34.5203 37.5523L35.3577 43.2049C35.7471 43.1472 36.1789 43.0824 36.6527 43.0106L35.7967 37.3608ZM34.5203 37.5523C34.1101 37.613 33.7287 37.6752 33.3779 37.7389L34.4001 43.3611C34.6779 43.3106 34.9964 43.2584 35.3577 43.2049L34.5203 37.5523ZM33.4123 37.7329C33.0029 37.8022 32.5966 37.8939 32.2052 38.0167L33.9157 43.469C34.01 43.4394 34.156 43.4026 34.3657 43.3671L33.4123 37.7329ZM32.1194 38.0451C31.7453 38.1756 31.37 38.3462 31.009 38.5691L34.0118 43.4309C33.9931 43.4424 33.9816 43.448 33.9794 43.4489C33.9774 43.4499 33.9841 43.4466 34.0015 43.4406L32.1194 38.0451ZM30.9765 38.5895C30.5126 38.8847 30.0886 39.2784 29.7546 39.7794L34.5091 42.9491C34.3656 43.1644 34.1939 43.3153 34.0444 43.4105L30.9765 38.5895ZM29.7181 39.8356C29.2821 40.524 29.139 41.2546 29.139 41.8857H34.8533C34.8533 42.1073 34.8007 42.4903 34.5456 42.893L29.7181 39.8356ZM29.139 41.8857C29.139 42.5875 29.3212 43.2706 29.6782 43.8825L34.6141 41.0032C34.771 41.2723 34.8533 41.584 34.8533 41.8857H29.139ZM29.6962 43.9128C30.1266 44.6302 30.7355 45.1104 31.3495 45.4102L33.8571 40.2755C34.0615 40.3754 34.3657 40.5889 34.5961 40.9729L29.6962 43.9128ZM31.3495 45.4102C32.0687 45.7614 32.7985 45.85 33.389 45.85V40.1357C33.3754 40.1357 33.413 40.1344 33.4891 40.1489C33.5659 40.1636 33.6971 40.1974 33.8571 40.2755L31.3495 45.4102ZM44.0652 44L44.615 46.8038C45.9555 46.5409 46.9224 45.366 46.9224 44H44.0652ZM42.6367 44.1214L42.7241 41.2656L42.6367 44.1214ZM41.3867 43.85L42.569 41.249L41.3867 43.85ZM40.5581 43.0643L43.093 41.7461L43.0905 41.7414L40.5581 43.0643ZM40.2867 42.0929L37.4307 42.1745C37.4311 42.1886 37.4316 42.2028 37.4322 42.217L40.2867 42.0929ZM40.2724 34.1429V31.2857C38.6944 31.2857 37.4152 32.5649 37.4152 34.1429H40.2724ZM41.7724 34.1429H44.6295C44.6295 32.5649 43.3503 31.2857 41.7724 31.2857V34.1429ZM41.7795 41.7L38.923 41.7595C38.9234 41.7793 38.924 41.7991 38.9249 41.8189L41.7795 41.7ZM41.9295 42.2786L39.4534 43.7042L39.4587 43.7132L41.9295 42.2786ZM42.7438 42.7857L42.4163 45.624C42.4295 45.6255 42.4427 45.627 42.4559 45.6283L42.7438 42.7857ZM44.0652 42.7357H46.9224C46.9224 41.9081 46.5635 41.1212 45.9387 40.5785C45.3138 40.0359 44.4843 39.7908 43.6649 39.9068L44.0652 42.7357ZM38.7938 37.4857H35.9367C35.9367 39.0637 37.2158 40.3429 38.7938 40.3429V37.4857ZM38.7938 36.2857V33.4286C37.2158 33.4286 35.9367 34.7078 35.9367 36.2857H38.7938ZM44.0652 36.2857H46.9224C46.9224 34.7078 45.6432 33.4286 44.0652 33.4286V36.2857ZM44.0652 37.4857V40.3429C45.6432 40.3429 46.9224 39.0637 46.9224 37.4857H44.0652ZM43.5155 41.1962C43.227 41.2528 42.9647 41.273 42.7241 41.2656L42.5492 46.9772C43.242 46.9984 43.932 46.9377 44.615 46.8038L43.5155 41.1962ZM42.7241 41.2656C42.5761 41.2611 42.5407 41.2361 42.569 41.249L40.2044 46.451C40.9659 46.7972 41.7639 46.9532 42.5492 46.9772L42.7241 41.2656ZM42.569 41.249C42.6574 41.2892 42.7654 41.3557 42.8705 41.4554C42.9756 41.5551 43.0479 41.6595 43.093 41.7461L38.0232 44.3824C38.5038 45.3068 39.2564 46.0202 40.2044 46.451L42.569 41.249ZM43.0905 41.7414C43.0929 41.746 43.105 41.7704 43.117 41.8133C43.1292 41.857 43.1386 41.9101 43.1411 41.9688L37.4322 42.217C37.4664 43.0022 37.6837 43.7325 38.0257 44.3872L43.0905 41.7414ZM43.1426 42.0113C43.1341 41.711 43.1295 41.3627 43.1295 40.9643H37.4152C37.4152 41.404 37.4202 41.8081 37.4307 42.1745L43.1426 42.0113ZM43.1295 40.9643V34.1429H37.4152V40.9643H43.1295ZM40.2724 37H41.7724V31.2857H40.2724V37ZM38.9152 34.1429V40.8929H44.6295V34.1429H38.9152ZM38.9152 40.8929C38.9152 41.2158 38.9177 41.5056 38.923 41.7595L44.636 41.6405C44.6318 41.4373 44.6295 41.189 44.6295 40.8929H38.9152ZM38.9249 41.8189C38.9486 42.3897 39.0811 43.0575 39.4535 43.7042L44.4056 40.853C44.5969 41.1853 44.6294 41.4674 44.6342 41.5811L38.9249 41.8189ZM39.4587 43.7132C40.1306 44.8705 41.2476 45.4892 42.4163 45.624L43.0713 39.9474C43.2349 39.9663 43.4931 40.0278 43.7721 40.2015C44.0593 40.3804 44.268 40.6159 44.4003 40.8439L39.4587 43.7132ZM42.4559 45.6283C43.1248 45.6961 43.8062 45.658 44.4656 45.5647L43.6649 39.9068C43.3147 39.9563 43.1151 39.9516 43.0317 39.9431L42.4559 45.6283ZM41.2081 42.7357V44H46.9224V42.7357H41.2081ZM41.6509 37.4857V36.2857H35.9367V37.4857H41.6509ZM38.7938 39.1429H44.0652V33.4286H38.7938V39.1429ZM41.2081 36.2857V37.4857H46.9224V36.2857H41.2081ZM44.0652 34.6286H38.7938V40.3429H44.0652V34.6286ZM46.406 35.0214H43.5488C43.5488 36.5994 44.828 37.8786 46.406 37.8786V35.0214ZM46.406 33.5714V30.7143C44.828 30.7143 43.5488 31.9935 43.5488 33.5714H46.406ZM47.8988 33.5714H50.756C50.756 31.9935 49.4768 30.7143 47.8988 30.7143V33.5714ZM47.8988 35.0214V37.8786C49.4768 37.8786 50.756 36.5994 50.756 35.0214H47.8988ZM46.406 44H43.5488C43.5488 45.578 44.828 46.8571 46.406 46.8571V44ZM46.406 36.2857V33.4286C44.828 33.4286 43.5488 34.7078 43.5488 36.2857H46.406ZM47.8988 36.2857H50.756C50.756 34.7078 49.4768 33.4286 47.8988 33.4286V36.2857ZM47.8988 44V46.8571C49.4768 46.8571 50.756 45.578 50.756 44H47.8988ZM49.2631 35.0214V33.5714H43.5488V35.0214H49.2631ZM46.406 36.4286H47.8988V30.7143H46.406V36.4286ZM45.0417 33.5714V35.0214H50.756V33.5714H45.0417ZM47.8988 32.1643H46.406V37.8786H47.8988V32.1643ZM49.2631 44V36.2857H43.5488V44H49.2631ZM46.406 39.1429H47.8988V33.4286H46.406V39.1429ZM45.0417 36.2857V44H50.756V36.2857H45.0417ZM47.8988 41.1429H46.406V46.8571H47.8988V41.1429ZM56.0295 44H53.1724C53.1724 45.578 54.4516 46.8571 56.0295 46.8571V44ZM55.951 39.2857L53.1251 39.7075C53.1275 39.7235 53.13 39.7395 53.1327 39.7554L55.951 39.2857ZM55.6652 38.4L53.1187 39.6956C53.1247 39.7073 53.1308 39.719 53.1369 39.7307L55.6652 38.4ZM55.0724 37.7429L53.4979 40.127C53.5047 40.1315 53.5115 40.136 53.5184 40.1404L55.0724 37.7429ZM53.3224 37.6286L54.2901 40.3168C54.3059 40.3111 54.3216 40.3053 54.3373 40.2994L53.3224 37.6286ZM52.6938 38.05L50.5983 36.1078C50.5897 36.1171 50.5812 36.1264 50.5727 36.1358L52.6938 38.05ZM52.2724 38.8214L49.5578 37.9301C49.5538 37.9423 49.5499 37.9546 49.546 37.9669L52.2724 38.8214ZM52.1224 39.9857L51.1147 42.6592C51.9923 42.9901 52.9765 42.869 53.7478 42.3354C54.5192 41.8018 54.9795 40.9236 54.9795 39.9857H52.1224ZM51.1938 39.6357H48.3367C48.3367 40.8249 49.0733 41.8898 50.1861 42.3092L51.1938 39.6357ZM51.5867 37.7857L54.1513 39.0451L54.1557 39.0361L51.5867 37.7857ZM52.7152 36.5286L54.206 38.9659L54.2061 38.9659L52.7152 36.5286ZM55.8367 36.3357L57.0598 33.7536V33.7536L55.8367 36.3357ZM56.7152 37.0143L54.4805 38.7945C54.4916 38.8084 54.5028 38.8222 54.5141 38.8359L56.7152 37.0143ZM57.2367 37.9214L54.5504 38.8947V38.8947L57.2367 37.9214ZM57.4795 38.8857L60.3105 38.4997V38.4997L57.4795 38.8857ZM57.5438 44V46.8571C59.1218 46.8571 60.4009 45.578 60.4009 44H57.5438ZM50.6081 44H47.7509C47.7509 45.578 49.0301 46.8571 50.6081 46.8571V44ZM50.6081 36.2857V33.4286C49.0301 33.4286 47.7509 34.7078 47.7509 36.2857H50.6081ZM51.9438 36.2857H54.8009C54.8009 34.7078 53.5218 33.4286 51.9438 33.4286V36.2857ZM51.9438 38.5143H49.0867C49.0867 40.0922 50.3658 41.3714 51.9438 41.3714V38.5143ZM52.1224 38.5143H54.9795C54.9795 36.9363 53.7003 35.6571 52.1224 35.6571V38.5143ZM52.1224 44V46.8571C53.7003 46.8571 54.9795 45.578 54.9795 44H52.1224ZM58.8867 44V40.2071H53.1724V44H58.8867ZM58.8867 40.2071C58.8867 39.7404 58.8459 39.276 58.7692 38.816L53.1327 39.7554C53.1608 39.924 53.1724 40.0739 53.1724 40.2071H58.8867ZM58.7768 38.8639C58.6842 38.2439 58.4936 37.6393 58.1936 37.0693L53.1369 39.7307C53.1309 39.7194 53.1269 39.7091 53.1246 39.7021C53.1225 39.6954 53.1234 39.6963 53.1251 39.7075L58.7768 38.8639ZM58.2117 37.1044C57.8441 36.3818 57.3028 35.7837 56.6264 35.3453L53.5184 40.1404C53.4456 40.0933 53.3668 40.0289 53.292 39.946C53.2172 39.8631 53.1599 39.7765 53.1187 39.6956L58.2117 37.1044ZM56.6468 35.3587C55.7888 34.792 54.8559 34.6357 54.0795 34.6357V40.35C54.1222 40.35 53.8512 40.3604 53.4979 40.127L56.6468 35.3587ZM54.0795 34.6357C53.4825 34.6357 52.8848 34.7384 52.3075 34.9578L54.3373 40.2994C54.2361 40.3378 54.1432 40.35 54.0795 40.35V34.6357ZM52.3546 34.9403C51.6639 35.189 51.0734 35.5952 50.5983 36.1078L54.7893 39.9922C54.6761 40.1143 54.5047 40.2396 54.2901 40.3168L52.3546 34.9403ZM50.5727 36.1358C50.0665 36.6967 49.7538 37.3334 49.5578 37.9301L54.9869 39.7128C55.0005 39.6714 54.9687 39.7938 54.8149 39.9642L50.5727 36.1358ZM49.546 37.9669C49.3341 38.643 49.2652 39.3373 49.2652 39.9857H54.9795C54.9795 39.8595 54.9865 39.7717 54.9936 39.7169C55.0007 39.6616 55.0064 39.6516 54.9987 39.676L49.546 37.9669ZM53.1301 37.3122L52.2015 36.9622L50.1861 42.3092L51.1147 42.6592L53.1301 37.3122ZM54.0509 39.6357C54.0509 39.295 54.1132 39.1226 54.1513 39.0451L49.0221 36.5263C48.5363 37.5155 48.3367 38.5764 48.3367 39.6357H54.0509ZM54.1557 39.0361C54.1671 39.0126 54.1762 38.9977 54.1818 38.9893C54.1873 38.9811 54.1906 38.9773 54.1913 38.9765C54.192 38.9757 54.1924 38.9754 54.1931 38.9748C54.194 38.9741 54.1977 38.971 54.206 38.9659L51.2244 34.0912C50.249 34.6878 49.508 35.5279 49.0177 36.5353L54.1557 39.0361ZM54.2061 38.9659C54.191 38.9751 54.1929 38.9699 54.2285 38.9609C54.2671 38.9512 54.3509 38.9357 54.4938 38.9357V33.2214C53.3829 33.2214 52.2494 33.4643 51.2244 34.0912L54.2061 38.9659ZM54.4938 38.9357C54.6097 38.9357 54.6723 38.9452 54.6922 38.949C54.7108 38.9526 54.6784 38.9485 54.6136 38.9178L57.0598 33.7536C56.2107 33.3514 55.3164 33.2214 54.4938 33.2214V38.9357ZM54.6136 38.9178C54.6241 38.9228 54.6099 38.9173 54.5813 38.8951C54.5517 38.8723 54.5157 38.8387 54.4805 38.7945L58.95 35.2341C58.4247 34.5747 57.7699 34.09 57.0598 33.7536L54.6136 38.9178ZM54.5141 38.8359C54.5389 38.8659 54.546 38.8827 54.5504 38.8947L59.9229 36.9481C59.6892 36.303 59.3487 35.715 58.9164 35.1927L54.5141 38.8359ZM54.5504 38.8947C54.6075 39.0522 54.6356 39.1769 54.6486 39.2718L60.3105 38.4997C60.2377 37.966 60.104 37.4478 59.9229 36.9481L54.5504 38.8947ZM54.6486 39.2717C54.6793 39.4973 54.6867 39.6396 54.6867 39.7143H60.4009C60.4009 39.3128 60.3654 38.9027 60.3105 38.4997L54.6486 39.2717ZM54.6867 39.7143V44H60.4009V39.7143H54.6867ZM57.5438 41.1429H56.0295V46.8571H57.5438V41.1429ZM53.4652 44V36.2857H47.7509V44H53.4652ZM50.6081 39.1429H51.9438V33.4286H50.6081V39.1429ZM49.0867 36.2857V38.5143H54.8009V36.2857H49.0867ZM51.9438 41.3714H52.1224V35.6571H51.9438V41.3714ZM49.2652 38.5143V44H54.9795V38.5143H49.2652ZM52.1224 41.1429H50.6081V46.8571H52.1224V41.1429ZM60.6543 43.2786L58.4196 45.0588C58.4306 45.0727 58.4418 45.0865 58.4532 45.1002L60.6543 43.2786ZM60.14 42.3643L57.4538 43.3376V43.3376L60.14 42.3643ZM59.8972 41.4L62.7281 41.014L59.8972 41.4ZM59.8329 36.2857V33.4286C58.2549 33.4286 56.9757 34.7078 56.9757 36.2857H59.8329ZM61.3472 36.2857H64.2043C64.2043 34.7078 62.9251 33.4286 61.3472 33.4286V36.2857ZM61.4186 41.0071L58.5927 41.4289C58.5951 41.4449 58.5977 41.4609 58.6003 41.4769L61.4186 41.0071ZM61.7043 41.8857L59.1578 43.1813C59.1638 43.1931 59.1698 43.2048 59.176 43.2164L61.7043 41.8857ZM62.2972 42.5429L60.7227 44.927C60.7295 44.9315 60.7363 44.936 60.7432 44.9404L62.2972 42.5429ZM64.0543 42.6643L65.0221 45.3525C65.0378 45.3469 65.0535 45.341 65.0692 45.3351L64.0543 42.6643ZM64.6757 42.2357L62.5802 40.2935C62.5716 40.3028 62.5631 40.3121 62.5546 40.3215L64.6757 42.2357ZM65.0972 41.4643L62.3826 40.5729C62.3786 40.5852 62.3746 40.5975 62.3708 40.6098L65.0972 41.4643ZM65.2543 40.3L66.262 37.6265C65.3843 37.2957 64.4002 37.4167 63.6289 37.9503C62.8575 38.4839 62.3972 39.3621 62.3972 40.3H65.2543ZM66.1829 40.65H69.04C69.04 39.4608 68.3034 38.3959 67.1906 37.9765L66.1829 40.65ZM65.79 42.5071L68.3546 43.7666L68.359 43.7575L65.79 42.5071ZM64.6614 43.7571L66.1523 46.1945L64.6614 43.7571ZM65.4329 44H62.5757C62.5757 45.578 63.8549 46.8571 65.4329 46.8571V44ZM65.4329 41.7714H68.29C68.29 40.1935 67.0108 38.9143 65.4329 38.9143V41.7714ZM65.2543 41.7714H62.3972C62.3972 43.3494 63.6763 44.6286 65.2543 44.6286V41.7714ZM65.2543 36.2857V33.4286C63.6763 33.4286 62.3972 34.7078 62.3972 36.2857H65.2543ZM66.7614 36.2857H69.6186C69.6186 34.7078 68.3394 33.4286 66.7614 33.4286V36.2857ZM66.7614 44V46.8571C68.3394 46.8571 69.6186 45.578 69.6186 44H66.7614ZM62.8829 41.35C62.7669 41.35 62.7043 41.3405 62.6845 41.3367C62.6658 41.3331 62.6983 41.3372 62.7631 41.3679L60.3169 46.5321C61.166 46.9343 62.0603 47.0643 62.8829 47.0643V41.35ZM62.7631 41.3679C62.7457 41.3596 62.7521 41.3607 62.7732 41.3767C62.7951 41.3933 62.8248 41.4199 62.8554 41.4569L58.4532 45.1002C58.9779 45.7342 59.6218 46.2028 60.3169 46.5321L62.7631 41.3679ZM62.889 41.4984C62.8531 41.4532 62.8367 41.4198 62.8263 41.391L57.4538 43.3376C57.6814 43.966 58.0079 44.542 58.4196 45.0588L62.889 41.4984ZM62.8263 41.391C62.7692 41.2335 62.741 41.1088 62.7281 41.014L57.0662 41.786C57.139 42.3197 57.2727 42.8379 57.4538 43.3376L62.8263 41.391ZM62.7281 41.014C62.6973 40.7884 62.69 40.6461 62.69 40.5714H56.9757C56.9757 40.9729 57.0112 41.383 57.0662 41.786L62.7281 41.014ZM62.69 40.5714V36.2857H56.9757V40.5714H62.69ZM59.8329 39.1429H61.3472V33.4286H59.8329V39.1429ZM58.49 36.2857V40.0786H64.2043V36.2857H58.49ZM58.49 40.0786C58.49 40.5298 58.5258 40.9806 58.5927 41.4289L64.2444 40.5854C64.2161 40.3956 64.2043 40.2273 64.2043 40.0786H58.49ZM58.6003 41.4769C58.6984 42.0653 58.8815 42.6382 59.1578 43.1813L64.2508 40.5901C64.25 40.5886 64.2485 40.5854 64.2464 40.5789C64.2442 40.5723 64.2405 40.5591 64.2369 40.5374L58.6003 41.4769ZM59.176 43.2164C59.5397 43.9074 60.0628 44.4913 60.7227 44.927L63.8716 40.1587C63.9418 40.205 64.0141 40.2655 64.0811 40.3397C64.1479 40.4137 64.1976 40.4885 64.2326 40.555L59.176 43.2164ZM60.7432 44.9404C61.5947 45.4924 62.5173 45.65 63.2972 45.65V39.9357C63.2579 39.9357 63.5139 39.9267 63.8511 40.1453L60.7432 44.9404ZM63.2972 45.65C63.8758 45.65 64.4571 45.5559 65.0221 45.3525L63.0865 39.976C63.1753 39.9441 63.2518 39.9357 63.2972 39.9357V45.65ZM65.0692 45.3351C65.7448 45.0784 66.3273 44.6702 66.7968 44.1499L62.5546 40.3215C62.6717 40.1917 62.84 40.0693 63.0394 39.9935L65.0692 45.3351ZM66.7712 44.1779C67.3047 43.6023 67.6282 42.942 67.8235 42.3188L62.3708 40.6098C62.3661 40.6247 62.4086 40.4786 62.5802 40.2935L66.7712 44.1779ZM67.8117 42.3556C68.0381 41.6661 68.1114 40.9583 68.1114 40.3H62.3972C62.3972 40.4213 62.3901 40.5033 62.3835 40.5518C62.3769 40.6006 62.3725 40.6038 62.3826 40.5729L67.8117 42.3556ZM64.2466 42.9735L65.1752 43.3235L67.1906 37.9765L66.262 37.6265L64.2466 42.9735ZM63.3257 40.65C63.3257 40.9899 63.2637 41.1691 63.221 41.2567L68.359 43.7575C68.8401 42.769 69.04 41.7101 69.04 40.65H63.3257ZM63.2254 41.2477C63.2045 41.2904 63.1911 41.3046 63.1908 41.305C63.1897 41.3061 63.1888 41.307 63.1871 41.3084C63.1854 41.3099 63.1804 41.3138 63.1706 41.3198L66.1523 46.1945C67.1212 45.6019 67.8622 44.7693 68.3546 43.7665L63.2254 41.2477ZM63.1706 41.3198C63.1856 41.3106 63.1837 41.3158 63.1481 41.3248C63.1095 41.3345 63.0258 41.35 62.8829 41.35V47.0643C63.9937 47.0643 65.1272 46.8215 66.1523 46.1945L63.1706 41.3198ZM68.29 44V41.7714H62.5757V44H68.29ZM65.4329 38.9143H65.2543V44.6286H65.4329V38.9143ZM68.1114 41.7714V36.2857H62.3972V41.7714H68.1114ZM65.2543 39.1429H66.7614V33.4286H65.2543V39.1429ZM63.9043 36.2857V44H69.6186V36.2857H63.9043ZM66.7614 41.1429H65.4329V46.8571H66.7614V41.1429ZM78.5791 44L75.7219 43.9958C75.7208 44.7543 76.0213 45.4821 76.5573 46.0188C77.0932 46.5555 77.8206 46.8571 78.5791 46.8571V44ZM78.5862 39.1929L81.4434 39.1971V39.1929H78.5862ZM78.1576 37.8929L76.0435 39.8148C76.0484 39.8201 76.0533 39.8255 76.0582 39.8308L78.1576 37.8929ZM76.2434 37.6214L77.6222 40.1238C77.628 40.1207 77.6337 40.1175 77.6394 40.1143L76.2434 37.6214ZM75.6719 38.2071L73.1829 36.8042C73.18 36.8094 73.1772 36.8145 73.1743 36.8196L75.6719 38.2071ZM75.4576 39.1786L74.1698 41.729C75.0555 42.1763 76.1099 42.1319 76.9549 41.612C77.8 41.092 78.3148 40.1708 78.3148 39.1786H75.4576ZM74.7362 38.8143L71.8795 38.8644C71.8981 39.9244 72.5021 40.8869 73.4484 41.3647L74.7362 38.8143ZM75.0791 37.3857L72.6216 35.9284C72.6174 35.9354 72.6132 35.9425 72.6091 35.9497L75.0791 37.3857ZM76.0648 36.4357L77.4228 38.9495C77.4302 38.9455 77.4376 38.9414 77.445 38.9374L76.0648 36.4357ZM79.3934 36.8429L81.502 34.9149V34.9149L79.3934 36.8429ZM80.0791 38.8357L82.9362 38.8397V38.8357H80.0791ZM80.0719 44V46.8571C81.6483 46.8571 82.9269 45.5804 82.9291 44.004L80.0719 44ZM69.3291 44H66.4719C66.4719 45.578 67.7511 46.8571 69.3291 46.8571V44ZM69.3291 36.2857V33.4286C67.7511 33.4286 66.4719 34.7078 66.4719 36.2857H69.3291ZM70.6576 36.2857H73.5148C73.5148 34.7078 72.2356 33.4286 70.6576 33.4286V36.2857ZM70.6576 38.5143H67.8005C67.8005 40.0922 69.0797 41.3714 70.6576 41.3714V38.5143ZM70.8291 38.5143H73.6862C73.6862 36.9363 72.407 35.6571 70.8291 35.6571V38.5143ZM70.8291 44V46.8571C72.407 46.8571 73.6862 45.578 73.6862 44H70.8291ZM73.9576 44L71.1005 43.9957C71.0994 44.7542 71.3999 45.4821 71.9358 46.0188C72.4718 46.5555 73.1991 46.8571 73.9576 46.8571V44ZM73.9648 39.2214L76.8219 39.2257V39.2214H73.9648ZM73.5362 37.9L71.392 39.7882C71.3972 39.7942 71.4025 39.8001 71.4078 39.8061L73.5362 37.9ZM71.2576 37.9071L69.1308 35.9993C69.1256 36.0051 69.1204 36.0109 69.1152 36.0168L71.2576 37.9071ZM70.8291 39.1786L69.2889 41.5851C70.1684 42.1479 71.2848 42.1862 72.2007 41.6849C73.1167 41.1837 73.6862 40.2227 73.6862 39.1786H70.8291ZM70.1148 38.7214H67.2576C67.2576 39.6957 67.7541 40.6028 68.5746 41.1279L70.1148 38.7214ZM74.2719 36.4429L72.7931 38.8875C72.8005 38.892 72.8079 38.8964 72.8153 38.9008L74.2719 36.4429ZM75.1505 37.4071L72.5775 38.6493C72.5813 38.6572 72.5852 38.6652 72.5891 38.6731L75.1505 37.4071ZM75.4576 38.85L78.3148 38.854V38.85H75.4576ZM75.4505 44V46.8571C77.0269 46.8571 78.3055 45.5804 78.3076 44.004L75.4505 44ZM81.4362 44.0042L81.4434 39.1971L75.7291 39.1886L75.7219 43.9958L81.4362 44.0042ZM81.4434 39.1929C81.4434 38.1547 81.17 36.9439 80.2571 35.9549L76.0582 39.8308C75.9018 39.6613 75.8112 39.4829 75.7656 39.3446C75.7235 39.2169 75.7291 39.1535 75.7291 39.1929H81.4434ZM80.2718 35.9709C79.3876 34.9984 78.212 34.5643 77.0291 34.5643V40.2786C76.9386 40.2786 76.7676 40.2624 76.5599 40.1757C76.346 40.0863 76.1699 39.9538 76.0435 39.8148L80.2718 35.9709ZM77.0291 34.5643C76.2784 34.5643 75.5323 34.745 74.8474 35.1286L77.6394 40.1143C77.4306 40.2312 77.2083 40.2786 77.0291 40.2786V34.5643ZM74.8645 35.119C74.1084 35.5356 73.5569 36.1408 73.1829 36.8042L78.1609 39.61C78.0822 39.7497 77.9116 39.9644 77.6222 40.1238L74.8645 35.119ZM73.1743 36.8196C72.7309 37.6177 72.6005 38.456 72.6005 39.1786H78.3148C78.3148 39.1202 78.3272 39.3109 78.1695 39.5947L73.1743 36.8196ZM76.7455 36.6281L76.0241 36.2638L73.4484 41.3647L74.1698 41.729L76.7455 36.6281ZM77.5929 38.7642C77.5919 38.7082 77.5979 38.6963 77.593 38.7168C77.5907 38.7267 77.5862 38.7421 77.5785 38.7615C77.5707 38.781 77.5609 38.8015 77.5491 38.8218L72.6091 35.9497C72.0724 36.8727 71.8622 37.8778 71.8795 38.8644L77.5929 38.7642ZM77.5366 38.8431C77.533 38.8491 77.5184 38.8713 77.4903 38.8983C77.4622 38.9254 77.4363 38.9422 77.4228 38.9495L74.7068 33.9219C73.8317 34.3947 73.1254 35.0788 72.6216 35.9284L77.5366 38.8431ZM77.445 38.9374C77.4388 38.9408 77.4314 38.9443 77.4236 38.9474C77.4158 38.9504 77.4098 38.9521 77.4066 38.9529C77.4035 38.9537 77.4052 38.953 77.4127 38.9521C77.4203 38.9513 77.435 38.95 77.4576 38.95V33.2357C76.5037 33.2357 75.5577 33.4523 74.6846 33.9341L77.445 38.9374ZM77.4576 38.95C77.5915 38.95 77.6006 38.9702 77.5343 38.9445C77.5008 38.9315 77.4565 38.91 77.4081 38.877C77.3594 38.8439 77.3177 38.8069 77.2847 38.7708L81.502 34.9149C80.3826 33.6906 78.8943 33.2357 77.4576 33.2357V38.95ZM77.2847 38.7708C77.2653 38.7496 77.2468 38.7247 77.2315 38.6986C77.2162 38.6727 77.2086 38.6535 77.206 38.6457C77.2007 38.6305 77.2219 38.6824 77.2219 38.8357H82.9362C82.9362 37.4606 82.5426 36.0531 81.502 34.9149L77.2847 38.7708ZM77.2219 38.8318L77.2148 43.996L82.9291 44.004L82.9362 38.8397L77.2219 38.8318ZM80.0719 41.1429H78.5791V46.8571H80.0719V41.1429ZM72.1862 44V36.2857H66.4719V44H72.1862ZM69.3291 39.1429H70.6576V33.4286H69.3291V39.1429ZM67.8005 36.2857V38.5143H73.5148V36.2857H67.8005ZM70.6576 41.3714H70.8291V35.6571H70.6576V41.3714ZM67.9719 38.5143V44H73.6862V38.5143H67.9719ZM70.8291 41.1429H69.3291V46.8571H70.8291V41.1429ZM76.8148 44.0043L76.8219 39.2257L71.1076 39.2172L71.1005 43.9957L76.8148 44.0043ZM76.8219 39.2214C76.8219 38.1804 76.5503 36.983 75.6646 35.9939L71.4078 39.8061C71.2639 39.6454 71.1812 39.4786 71.1399 39.3511C71.1017 39.2334 71.1076 39.1781 71.1076 39.2214H76.8219ZM75.6805 36.0118C74.7884 34.9987 73.5874 34.5643 72.4005 34.5643V40.2786C72.3175 40.2786 72.1454 40.2639 71.9321 40.174C71.7108 40.0807 71.5257 39.9401 71.392 39.7882L75.6805 36.0118ZM72.4005 34.5643C71.1938 34.5643 70.0122 35.0168 69.1308 35.9993L73.3844 39.815C73.2648 39.9484 73.0931 40.0813 72.8788 40.1724C72.67 40.2611 72.4957 40.2786 72.4005 40.2786V34.5643ZM69.1152 36.0168C68.2757 36.9683 67.9719 38.1138 67.9719 39.1786H73.6862C73.6862 39.1751 73.6867 39.2529 73.6437 39.3805C73.5981 39.5157 73.5177 39.6641 73.4 39.7975L69.1152 36.0168ZM72.3692 36.7721L71.6549 36.3149L68.5746 41.1279L69.2889 41.5851L72.3692 36.7721ZM72.9719 38.7214C72.9719 38.6997 72.9743 38.7128 72.9643 38.7497C72.954 38.7882 72.9362 38.8301 72.9134 38.8672L68.0448 35.8756C67.5012 36.7602 67.2576 37.7368 67.2576 38.7214H72.9719ZM72.9134 38.8672C72.9079 38.8761 72.8949 38.8941 72.8747 38.9132C72.8548 38.9322 72.8415 38.9393 72.845 38.9374L70.0846 33.9341C69.2469 34.3962 68.5515 35.0509 68.0448 35.8756L72.9134 38.8672ZM72.845 38.9374C72.8367 38.9419 72.828 38.946 72.8196 38.9493C72.8113 38.9525 72.8056 38.954 72.8037 38.9545C72.8018 38.9549 72.8056 38.9539 72.8161 38.9527C72.8266 38.9515 72.8449 38.95 72.8719 38.95V33.2357C71.9182 33.2357 70.9654 33.4481 70.0846 33.9341L72.845 38.9374ZM72.8719 38.95C72.9437 38.95 72.9617 38.9577 72.9397 38.9522C72.9147 38.946 72.8602 38.9281 72.7931 38.8875L75.7508 33.9982C74.8319 33.4424 73.8288 33.2357 72.8719 33.2357V38.95ZM72.8153 38.9008C72.7721 38.8752 72.7191 38.8348 72.6689 38.7796C72.619 38.7249 72.5905 38.6762 72.5775 38.6493L77.7235 36.165C77.2858 35.2584 76.6111 34.5079 75.7285 33.9849L72.8153 38.9008ZM72.5891 38.6731C72.5797 38.6539 72.5815 38.6507 72.5863 38.6734C72.5915 38.6977 72.6005 38.7539 72.6005 38.85H78.3148C78.3148 37.9439 78.144 37.0155 77.7119 36.1412L72.5891 38.6731ZM72.6005 38.846L72.5934 43.996L78.3076 44.004L78.3148 38.854L72.6005 38.846ZM75.4505 41.1429H73.9576V46.8571H75.4505V41.1429ZM27.0474 61H24.1903C24.1903 62.578 25.4695 63.8571 27.0474 63.8571V61ZM27.0474 50.7143V47.8571C25.4695 47.8571 24.1903 49.1363 24.1903 50.7143H27.0474ZM31.576 50.7286L31.3921 53.5798C31.4226 53.5818 31.4533 53.5832 31.4839 53.5842L31.576 50.7286ZM31.9974 50.7714L31.4952 53.5841C31.5136 53.5874 31.5321 53.5905 31.5506 53.5934L31.9974 50.7714ZM33.426 51.3571L31.6583 53.6018C31.6628 53.6054 31.6674 53.6089 31.6719 53.6124L33.426 51.3571ZM34.2903 52.4929L36.9277 51.394V51.394L34.2903 52.4929ZM33.426 56.6643L31.6719 54.409C31.6674 54.4125 31.6628 54.4161 31.6583 54.4196L33.426 56.6643ZM31.9974 57.25L32.4015 60.0784C32.4158 60.0764 32.43 60.0742 32.4442 60.072L31.9974 57.25ZM31.5689 57.2929L31.3906 54.4413L31.3849 54.4416L31.5689 57.2929ZM28.5403 57.3071V54.45C26.9623 54.45 25.6831 55.7292 25.6831 57.3071H28.5403ZM28.5403 61V63.8571C30.1182 63.8571 31.3974 62.578 31.3974 61H28.5403ZM28.5403 55.8929H25.6831C25.6831 57.4708 26.9623 58.75 28.5403 58.75V55.8929ZM31.4617 55.8786L31.2339 53.0305L31.2244 53.0313L31.4617 55.8786ZM31.7974 55.8286L32.4306 58.6147C32.4369 58.6132 32.4432 58.6118 32.4494 58.6103L31.7974 55.8286ZM32.5331 55.4357L34.5789 57.4303C34.5871 57.4219 34.5952 57.4134 34.6033 57.4049L32.5331 55.4357ZM32.9331 54.7643L35.6538 55.6369H35.6538L32.9331 54.7643ZM32.9331 53.2571L30.2125 54.1298C30.2142 54.1349 30.2158 54.1399 30.2174 54.145L32.9331 53.2571ZM32.5331 52.5929L30.463 54.562C30.4711 54.5706 30.4792 54.579 30.4874 54.5874L32.5331 52.5929ZM31.7974 52.1929L31.0457 54.9493C31.0788 54.9584 31.112 54.9668 31.1455 54.9746L31.7974 52.1929ZM31.4617 52.1357L31.2244 54.983L31.2339 54.9838L31.4617 52.1357ZM28.5403 52.1214V49.2643C26.9623 49.2643 25.6831 50.5435 25.6831 52.1214H28.5403ZM29.9046 61V50.7143H24.1903V61H29.9046ZM27.0474 53.5714H31.2046V47.8571H27.0474V53.5714ZM31.2046 53.5714C31.2218 53.5714 31.2797 53.5725 31.3921 53.5798L31.76 47.8774C31.5771 47.8656 31.3874 47.8571 31.2046 47.8571V53.5714ZM31.4839 53.5842C31.5061 53.5849 31.5089 53.5865 31.4952 53.5841L32.4997 47.9588C32.2193 47.9087 31.9411 47.8817 31.6681 47.8729L31.4839 53.5842ZM31.5506 53.5934C31.6443 53.6083 31.6894 53.6252 31.6993 53.6293C31.7071 53.6325 31.6886 53.6256 31.6583 53.6018L35.1937 49.1125C34.3612 48.4569 33.4049 48.1015 32.4442 47.9494L31.5506 53.5934ZM31.6719 53.6124C31.6743 53.6143 31.6731 53.6136 31.6696 53.6101C31.6661 53.6065 31.6619 53.6018 31.6577 53.5963C31.6536 53.5909 31.6509 53.5866 31.6497 53.5846C31.6486 53.5826 31.6499 53.5845 31.6529 53.5918L36.9277 51.394C36.5502 50.488 35.9606 49.7089 35.1801 49.1018L31.6719 53.6124ZM31.6529 53.5918C31.6825 53.6626 31.7189 53.7884 31.7189 54.0071H37.4331C37.4331 53.1211 37.2791 52.2374 36.9277 51.394L31.6529 53.5918ZM31.7189 54.0071C31.7189 54.2341 31.6813 54.3617 31.6529 54.4297L36.9277 56.6275C37.2803 55.7812 37.4331 54.8945 37.4331 54.0071H31.7189ZM31.6529 54.4297C31.6499 54.4369 31.6486 54.4389 31.6497 54.4369C31.6509 54.4348 31.6536 54.4305 31.6577 54.4251C31.6619 54.4196 31.6661 54.4149 31.6696 54.4114C31.6731 54.4079 31.6743 54.4071 31.6719 54.409L35.1801 58.9196C35.9606 58.3125 36.5502 57.5334 36.9277 56.6275L31.6529 54.4297ZM31.6583 54.4196C31.6886 54.3958 31.7071 54.3889 31.6993 54.3921C31.6894 54.3962 31.6443 54.4132 31.5506 54.428L32.4442 60.072C33.4049 59.9199 34.3612 59.5646 35.1937 58.909L31.6583 54.4196ZM31.5934 54.4216C31.5441 54.4286 31.4772 54.4359 31.3906 54.4413L31.7471 60.1444C31.9653 60.1308 32.1841 60.1095 32.4015 60.0784L31.5934 54.4216ZM31.3849 54.4416C31.3301 54.4452 31.2873 54.4474 31.2551 54.4486C31.2392 54.4492 31.227 54.4496 31.2181 54.4498C31.2138 54.4499 31.2104 54.4499 31.2081 54.45C31.2069 54.45 31.2061 54.45 31.2055 54.45C31.2052 54.45 31.205 54.45 31.2048 54.45C31.2047 54.45 31.2047 54.45 31.2046 54.45C31.2046 54.45 31.2046 54.45 31.2046 54.45C31.2046 54.45 31.2046 54.45 31.2046 54.45V60.1643C31.3849 60.1643 31.5734 60.1556 31.7528 60.1441L31.3849 54.4416ZM31.2046 54.45H28.5403V60.1643H31.2046V54.45ZM25.6831 57.3071V61H31.3974V57.3071H25.6831ZM28.5403 58.1429H27.0474V63.8571H28.5403V58.1429ZM28.5403 58.75H31.1474V53.0357H28.5403V58.75ZM31.1474 58.75C31.3359 58.75 31.5211 58.7407 31.699 58.7258L31.2244 53.0313C31.1738 53.0355 31.1495 53.0357 31.1474 53.0357V58.75ZM31.6896 58.7266C31.9302 58.7074 32.1786 58.6719 32.4306 58.6147L31.1642 53.0425C31.2067 53.0328 31.2314 53.0307 31.2339 53.0305L31.6896 58.7266ZM32.4494 58.6103C33.1891 58.437 33.9501 58.0751 34.5789 57.4303L30.4874 53.4411C30.7447 53.1772 31.0153 53.0773 31.1455 53.0468L32.4494 58.6103ZM34.6033 57.4049C35.0806 56.9032 35.4391 56.3062 35.6538 55.6369L30.2125 53.8916C30.2653 53.7272 30.3572 53.5778 30.463 53.4665L34.6033 57.4049ZM35.6538 55.6369C35.8206 55.1167 35.9117 54.5703 35.9117 54.0071H30.1974C30.1974 53.9799 30.1997 53.9548 30.2031 53.9333C30.2066 53.9119 30.2106 53.8977 30.2125 53.8916L35.6538 55.6369ZM35.9117 54.0071C35.9117 53.4435 35.8205 52.8942 35.6488 52.3693L30.2174 54.145C30.2077 54.1153 30.1974 54.066 30.1974 54.0071H35.9117ZM35.6538 52.3845C35.4372 51.7093 35.0722 51.1042 34.5789 50.5983L30.4874 54.5874C30.3656 54.4624 30.2672 54.3002 30.2125 54.1298L35.6538 52.3845ZM34.6033 50.6237C33.9752 49.9634 33.2063 49.5885 32.4494 49.4111L31.1455 54.9746C30.9981 54.9401 30.7197 54.8319 30.463 54.562L34.6033 50.6237ZM32.5492 49.4364C32.257 49.3567 31.9684 49.31 31.6896 49.2877L31.2339 54.9838C31.1932 54.9805 31.1283 54.9719 31.0457 54.9493L32.5492 49.4364ZM31.699 49.2884C31.5211 49.2736 31.3359 49.2643 31.1474 49.2643V54.9786C31.1495 54.9786 31.1738 54.9788 31.2244 54.983L31.699 49.2884ZM31.1474 49.2643H28.5403V54.9786H31.1474V49.2643ZM25.6831 52.1214V55.8929H31.3974V52.1214H25.6831ZM36.7182 61H33.861C33.861 62.578 35.1402 63.8571 36.7182 63.8571V61ZM36.7182 50.5V47.6429C35.1402 47.6429 33.861 48.922 33.861 50.5H36.7182ZM38.211 50.5H41.0682C41.0682 48.922 39.789 47.6429 38.211 47.6429V50.5ZM38.211 61V63.8571C39.789 63.8571 41.0682 62.578 41.0682 61H38.211ZM39.5753 61V50.5H33.861V61H39.5753ZM36.7182 53.3571H38.211V47.6429H36.7182V53.3571ZM35.3539 50.5V61H41.0682V50.5H35.3539ZM38.211 58.1429H36.7182V63.8571H38.211V58.1429ZM41.6703 60.9L40.2828 63.3976C40.2907 63.402 40.2986 63.4063 40.3065 63.4106L41.6703 60.9ZM40.7917 60.0571L38.2926 61.4418C38.3 61.4553 38.3076 61.4687 38.3152 61.482L40.7917 60.0571ZM40.706 57.8714L38.118 56.6609V56.6609L40.706 57.8714ZM41.3203 57.1214L43.041 59.4023C43.0494 59.396 43.0578 59.3896 43.0662 59.3831L41.3203 57.1214ZM42.3203 56.6143L41.5203 53.8714C41.4922 53.8796 41.4643 53.8882 41.4365 53.8973L42.3203 56.6143ZM43.4846 56.35L43.9794 59.164L43.9794 59.164L43.4846 56.35ZM44.8489 56.1357L44.4566 53.3056L44.4527 53.3062L44.8489 56.1357ZM46.2775 55.9357L47.6594 58.4364C48.8658 57.7697 49.4242 56.3369 48.9871 55.0297C48.5501 53.7225 47.2421 52.9137 45.8774 53.1067L46.2775 55.9357ZM45.7346 56.2357L42.8778 56.1907C42.8618 57.2098 43.3898 58.1603 44.2636 58.6851C45.1373 59.2098 46.2245 59.2294 47.1166 58.7364L45.7346 56.2357ZM45.3489 54.8929L43.2115 56.7889C43.2223 56.801 43.2332 56.8131 43.2442 56.8251L45.3489 54.8929ZM42.8775 54.7357L44.253 57.2399C44.262 57.235 44.2709 57.23 44.2799 57.225L42.8775 54.7357ZM42.1703 55.6643L41.3301 58.3951C42.0543 58.6179 42.8374 58.5439 43.5071 58.1894C44.1768 57.8348 44.6783 57.2288 44.9011 56.5045L42.1703 55.6643ZM40.7775 55.2357L38.0317 54.4456C37.601 55.9424 38.4485 57.5084 39.9372 57.9665L40.7775 55.2357ZM41.8632 53.6571L40.1851 51.3447L40.1753 51.3518L41.8632 53.6571ZM45.806 53.4286L44.5965 56.017C44.6061 56.0216 44.6158 56.026 44.6255 56.0304L45.806 53.4286ZM46.9346 54.5429L44.3461 55.7524C44.3538 55.7688 44.3615 55.785 44.3695 55.8012L46.9346 54.5429ZM47.1632 55.3429L44.3207 55.6319V55.6319L47.1632 55.3429ZM47.206 61V63.8571C48.784 63.8571 50.0632 62.578 50.0632 61H47.206ZM45.8846 61H43.0275C43.0275 62.578 44.3066 63.8571 45.8846 63.8571V61ZM45.8846 59.2357L47.7828 57.1003C46.9419 56.3528 45.7405 56.1684 44.7142 56.6293C43.6878 57.0902 43.0275 58.1106 43.0275 59.2357H45.8846ZM46.1417 59.4643L48.6554 60.8225C49.2856 59.6562 49.0308 58.2096 48.0399 57.3288L46.1417 59.4643ZM44.9203 60.7857L46.3585 63.2545L46.3658 63.2502L44.9203 60.7857ZM44.4632 59.7714L45.7087 62.3428C45.7195 62.3376 45.7302 62.3323 45.7409 62.3269L44.4632 59.7714ZM45.1989 59.1929L42.9634 57.4136L45.1989 59.1929ZM45.5632 58.4643L42.87 57.5104C42.8325 57.6161 42.8013 57.724 42.7766 57.8334L45.5632 58.4643ZM45.6989 57.6929L42.8453 57.5502C42.8445 57.566 42.8439 57.5818 42.8433 57.5977L45.6989 57.6929ZM45.7203 57.0071L46.7062 54.3255C45.8298 54.0033 44.8511 54.1297 44.0853 54.6641C43.3195 55.1984 42.8632 56.0733 42.8632 57.0071H45.7203ZM46.206 57.1857L46.634 60.0106C47.9236 59.8152 48.9172 58.7713 49.0486 57.4737C49.1801 56.1761 48.4161 54.9541 47.1919 54.5041L46.206 57.1857ZM44.9203 57.3786L45.339 60.2049H45.339L44.9203 57.3786ZM43.8703 57.55L44.347 60.3671C44.3585 60.3651 44.37 60.3631 44.3814 60.3611L43.8703 57.55ZM43.0417 57.7429L42.1865 55.0167C42.1577 55.0257 42.1291 55.0352 42.1007 55.0451L43.0417 57.7429ZM42.4917 58L40.9903 55.5691C40.9794 55.5759 40.9686 55.5827 40.9578 55.5895L42.4917 58ZM42.1132 58.3643L39.7359 56.7794C39.7235 56.798 39.7113 56.8167 39.6994 56.8356L42.1132 58.3643ZM42.1275 59.4429L39.6595 60.8825C39.6654 60.8926 39.6714 60.9028 39.6775 60.9128L42.1275 59.4429ZM42.5846 59.8429L41.3308 62.4102L41.3308 62.4102L42.5846 59.8429ZM43.106 58.3571C42.9927 58.3571 42.9382 58.3466 42.9295 58.3447C42.923 58.3432 42.9649 58.3517 43.0341 58.3894L40.3065 63.4106C41.2183 63.9059 42.1977 64.0714 43.106 64.0714V58.3571ZM43.0579 58.4024C43.0612 58.4042 43.0938 58.4231 43.1393 58.4668C43.1861 58.5116 43.2315 58.5684 43.2682 58.6323L38.3152 61.482C38.7995 62.3238 39.4902 62.9573 40.2828 63.3976L43.0579 58.4024ZM43.2909 58.6725C43.3111 58.7088 43.3296 58.7538 43.3419 58.8026C43.3541 58.8507 43.356 58.8857 43.356 58.9H37.6417C37.6417 59.7833 37.8529 60.6483 38.2926 61.4418L43.2909 58.6725ZM43.356 58.9C43.356 58.8462 43.3648 58.9307 43.2941 59.082L38.118 56.6609C37.771 57.4027 37.6417 58.1728 37.6417 58.9H43.356ZM43.2941 59.082C43.2635 59.1473 43.2228 59.2128 43.1735 59.2729C43.1247 59.3326 43.0772 59.375 43.041 59.4023L39.5996 54.8405C38.9727 55.3135 38.4622 55.925 38.118 56.6609L43.2941 59.082ZM43.0662 59.3831C43.0301 59.411 43.0563 59.3794 43.2042 59.3313L41.4365 53.8973C40.7939 54.1063 40.1534 54.4128 39.5744 54.8597L43.0662 59.3831ZM43.1203 59.3571C43.343 59.2922 43.6264 59.226 43.9794 59.164L42.9898 53.536C42.4761 53.6263 41.9834 53.7364 41.5203 53.8714L43.1203 59.3571ZM43.9794 59.164C44.3771 59.0941 44.7988 59.0277 45.245 58.9653L44.4527 53.3062C43.9466 53.377 43.4588 53.4536 42.9898 53.536L43.9794 59.164ZM45.2412 58.9658C45.7247 58.8988 46.2034 58.8317 46.6775 58.7647L45.8774 53.1067C45.4086 53.173 44.935 53.2393 44.4566 53.3056L45.2412 58.9658ZM44.8955 53.435L44.3526 53.735L47.1166 58.7364L47.6594 58.4364L44.8955 53.435ZM48.5914 56.2807C48.6065 55.3241 48.4223 54.0159 47.4536 52.9607L43.2442 56.8251C43.0283 56.59 42.9352 56.3604 42.8992 56.2352C42.8664 56.1212 42.8794 56.0909 42.8778 56.1907L48.5914 56.2807ZM47.4862 52.9968C46.421 51.796 44.9517 51.5929 43.9917 51.5929V57.3071C44.1105 57.3071 44.0674 57.3228 43.9268 57.2769C43.7699 57.2257 43.4805 57.0921 43.2115 56.7889L47.4862 52.9968ZM43.9917 51.5929C43.1176 51.5929 42.26 51.8042 41.475 52.2464L44.2799 57.225C44.2338 57.2509 44.1786 57.2738 44.1192 57.289C44.0606 57.3041 44.0154 57.3071 43.9917 57.3071V51.5929ZM41.5019 52.2315C40.4001 52.8367 39.7502 53.8144 39.4395 54.824L44.9011 56.5045C44.8849 56.5572 44.8368 56.685 44.7202 56.8382C44.5983 56.9982 44.437 57.1389 44.253 57.2399L41.5019 52.2315ZM43.0106 52.9335L41.6177 52.5049L39.9372 57.9665L41.3301 58.3951L43.0106 52.9335ZM43.5232 56.0258C43.532 55.9951 43.5396 55.9772 43.5433 55.9693C43.5468 55.9616 43.548 55.9606 43.5458 55.9637C43.5436 55.967 43.541 55.97 43.5394 55.9717C43.5378 55.9733 43.5407 55.97 43.551 55.9625L40.1753 51.3518C39.1087 52.1328 38.3894 53.2029 38.0317 54.4456L43.5232 56.0258ZM43.5412 55.9696C43.45 56.0358 43.5163 55.9286 44.006 55.9286V50.2143C42.7148 50.2143 41.3525 50.4976 40.1851 51.3447L43.5412 55.9696ZM44.006 55.9286C44.3716 55.9286 44.5418 55.9915 44.5965 56.017L47.0156 50.8401C46.0512 50.3895 45.0214 50.2143 44.006 50.2143V55.9286ZM44.6255 56.0304C44.5967 56.0174 44.5343 55.9822 44.4665 55.9153C44.3986 55.8482 44.3612 55.7847 44.3461 55.7524L49.5231 53.3333C48.9953 52.2039 48.1183 51.3402 46.9865 50.8267L44.6255 56.0304ZM44.3695 55.8012C44.3578 55.7774 44.3465 55.7488 44.3374 55.7171C44.3283 55.6853 44.3232 55.6561 44.3207 55.6319L50.0057 55.0538C49.943 54.4374 49.7734 53.8424 49.4997 53.2845L44.3695 55.8012ZM44.3207 55.6319C44.3382 55.8041 44.3489 56.0091 44.3489 56.25H50.0632C50.0632 55.8433 50.0453 55.4435 50.0057 55.0538L44.3207 55.6319ZM44.3489 56.25V61H50.0632V56.25H44.3489ZM47.206 58.1429H45.8846V63.8571H47.206V58.1429ZM48.7417 61V59.2357H43.0275V61H48.7417ZM43.9864 61.3712L44.2436 61.5997L48.0399 57.3288L47.7828 57.1003L43.9864 61.3712ZM43.6281 58.1061C43.5689 58.2155 43.5223 58.2729 43.499 58.2981C43.4774 58.3215 43.4696 58.3243 43.4748 58.3212L46.3658 63.2502C47.3829 62.6537 48.1306 61.7937 48.6554 60.8225L43.6281 58.1061ZM43.4822 58.3169C43.5302 58.2889 43.4525 58.3571 43.106 58.3571V64.0714C44.1977 64.0714 45.3294 63.8539 46.3585 63.2545L43.4822 58.3169ZM43.3703 62.85C44.1198 62.85 44.9305 62.7197 45.7087 62.3428L43.2177 57.2001C43.3863 57.1184 43.4684 57.1357 43.3703 57.1357V62.85ZM45.7409 62.3269C46.3646 62.0151 46.9552 61.5742 47.4344 60.9721L42.9634 57.4136C43.0712 57.2782 43.1713 57.223 43.1854 57.2159L45.7409 62.3269ZM47.4344 60.9721C47.8471 60.4536 48.1842 59.8265 48.3498 59.0952L42.7766 57.8334C42.8279 57.6068 42.9221 57.4654 42.9634 57.4136L47.4344 60.9721ZM48.2564 59.4181C48.4508 58.8691 48.5369 58.3156 48.5544 57.788L42.8433 57.5977C42.8419 57.6415 42.8374 57.6023 42.87 57.5104L48.2564 59.4181ZM48.5525 57.8355C48.5678 57.5291 48.5775 57.247 48.5775 57.0071H42.8632C42.8632 57.1101 42.8586 57.2852 42.8453 57.5502L48.5525 57.8355ZM44.7344 59.6888L45.2201 59.8674L47.1919 54.5041L46.7062 54.3255L44.7344 59.6888ZM45.778 54.3608C45.309 54.4319 44.8836 54.4957 44.5016 54.5523L45.339 60.2049C45.7284 60.1472 46.1602 60.0824 46.634 60.0106L45.778 54.3608ZM44.5016 54.5523C44.0915 54.613 43.71 54.6752 43.3592 54.7389L44.3814 60.3611C44.6592 60.3106 44.9777 60.2584 45.339 60.2049L44.5016 54.5523ZM43.3936 54.7329C42.9842 54.8022 42.5779 54.8939 42.1865 55.0167L43.897 60.469C43.9913 60.4394 44.1374 60.4026 44.347 60.3671L43.3936 54.7329ZM42.1007 55.0451C41.7266 55.1756 41.3513 55.3462 40.9903 55.5691L43.9932 60.4309C43.9744 60.4424 43.9629 60.448 43.9608 60.4489C43.9587 60.4499 43.9655 60.4466 43.9828 60.4406L42.1007 55.0451ZM40.9578 55.5895C40.494 55.8847 40.0699 56.2784 39.7359 56.7794L44.4905 59.9491C44.3469 60.1644 44.1752 60.3153 44.0257 60.4105L40.9578 55.5895ZM39.6994 56.8356C39.2634 57.524 39.1203 58.2546 39.1203 58.8857H44.8346C44.8346 59.1073 44.782 59.4903 44.5269 59.893L39.6994 56.8356ZM39.1203 58.8857C39.1203 59.5875 39.3026 60.2706 39.6595 60.8825L44.5954 58.0032C44.7524 58.2723 44.8346 58.584 44.8346 58.8857H39.1203ZM39.6775 60.9128C40.1079 61.6302 40.7168 62.1104 41.3308 62.4102L43.8384 57.2755C44.0428 57.3754 44.347 57.5889 44.5774 57.9729L39.6775 60.9128ZM41.3308 62.4102C42.05 62.7614 42.7798 62.85 43.3703 62.85V57.1357C43.3567 57.1357 43.3943 57.1344 43.4704 57.1489C43.5472 57.1636 43.6784 57.1974 43.8384 57.2755L41.3308 62.4102ZM50.2426 64.4286L47.5607 63.4435C47.2388 64.3199 47.3654 65.2983 47.8998 66.0639C48.4342 66.8295 49.309 67.2857 50.2426 67.2857V64.4286ZM51.7355 60.3643L54.5922 60.3133C54.5676 58.9381 53.5668 57.7757 52.2106 57.5469C50.8544 57.3182 49.5277 58.0882 49.0535 59.3792L51.7355 60.3643ZM51.7569 61.5643L49.11 62.64C49.6281 63.915 50.9816 64.6394 52.3299 64.3634C53.6782 64.0874 54.6382 62.8893 54.6136 61.5133L51.7569 61.5643ZM48.3926 53.2857V50.4286C47.4418 50.4286 46.5532 50.9016 46.0223 51.6904C45.4914 52.4792 45.3877 53.4805 45.7457 54.3614L48.3926 53.2857ZM49.9498 53.2857L52.6087 52.24C52.1789 51.1471 51.1241 50.4286 49.9498 50.4286V53.2857ZM52.4641 59.6786V62.5357C53.4092 62.5357 54.2932 62.0683 54.8253 61.2872C55.3575 60.5061 55.4689 59.5124 55.123 58.6328L52.4641 59.6786ZM52.0069 59.6786L49.3321 58.6744C49.0026 59.5519 49.1245 60.5351 49.6583 61.3056C50.192 62.076 51.0696 62.5357 52.0069 62.5357V59.6786ZM54.4069 53.2857V50.4286C53.2163 50.4286 52.1505 51.1669 51.7321 52.2815L54.4069 53.2857ZM55.9212 53.2857L58.5902 54.3054C58.9257 53.4271 58.8077 52.44 58.2746 51.6655C57.7414 50.8911 56.8614 50.4286 55.9212 50.4286V53.2857ZM51.6641 64.4286V67.2857C52.8486 67.2857 53.9103 66.5548 54.333 65.4483L51.6641 64.4286ZM52.9246 65.4137L54.4174 61.3494L49.0535 59.3792L47.5607 63.4435L52.9246 65.4137ZM48.8788 60.4153L48.9002 61.6153L54.6136 61.5133L54.5922 60.3133L48.8788 60.4153ZM54.4038 60.4886L51.0396 52.21L45.7457 54.3614L49.11 62.64L54.4038 60.4886ZM48.3926 56.1429H49.9498V50.4286H48.3926V56.1429ZM47.2909 54.3314L49.8052 60.7243L55.123 58.6328L52.6087 52.24L47.2909 54.3314ZM52.4641 56.8214H52.0069V62.5357H52.4641V56.8214ZM54.6818 60.6828L57.0818 54.2899L51.7321 52.2815L49.3321 58.6744L54.6818 60.6828ZM54.4069 56.1429H55.9212V50.4286H54.4069V56.1429ZM53.2522 52.266L48.9951 63.4089L54.333 65.4483L58.5902 54.3054L53.2522 52.266ZM51.6641 61.5714H50.2426V67.2857H51.6641V61.5714ZM58.7326 60.7143L57.2866 63.1785C57.2946 63.1832 57.3026 63.1879 57.3107 63.1925L58.7326 60.7143ZM57.3826 59.3071L54.8555 60.6403C54.8597 60.6483 54.864 60.6562 54.8682 60.6641L57.3826 59.3071ZM57.3754 55.0143L54.8358 53.7054C54.8331 53.7105 54.8305 53.7157 54.8278 53.7209L57.3754 55.0143ZM58.704 53.5786L57.2401 51.125L58.704 53.5786ZM62.6897 53.6214L61.1096 56.0019C61.1144 56.005 61.1192 56.0082 61.1239 56.0113L62.6897 53.6214ZM63.9254 55.1714L61.2766 56.2423C61.2787 56.2476 61.2809 56.253 61.2831 56.2583L63.9254 55.1714ZM64.254 57.5643V60.4214C65.7635 60.4214 67.0125 59.2473 67.1057 57.7407L64.254 57.5643ZM62.7612 57.5643H59.904C59.904 59.1422 61.1832 60.4214 62.7612 60.4214V57.5643ZM62.7612 57.0214H65.6183C65.6183 57.0113 65.6182 57.0012 65.6181 56.991L62.7612 57.0214ZM62.2469 55.0357L59.9794 56.7741C59.9835 56.7794 59.9875 56.7846 59.9916 56.7898L62.2469 55.0357ZM59.054 55.1L61.2873 56.8821L59.054 55.1ZM59.054 59.1143L56.8296 60.9074C56.8326 60.9111 56.8356 60.9149 56.8386 60.9186L59.054 59.1143ZM61.8897 59.4929L63.3948 61.9215L63.404 61.9157L61.8897 59.4929ZM62.6897 58.5786L63.5533 55.8551C62.1981 55.4254 60.7331 56.0574 60.1159 57.3382L62.6897 58.5786ZM64.154 59.0429L66.7745 60.1814C67.0968 59.4396 67.0896 58.596 66.7547 57.8598C66.4198 57.1236 65.7885 56.5638 65.0176 56.3193L64.154 59.0429ZM62.7897 60.65L64.2903 63.0814C64.2949 63.0785 64.2995 63.0757 64.304 63.0729L62.7897 60.65ZM58.004 57.5643H55.1469C55.1469 59.1422 56.4261 60.4214 58.004 60.4214V57.5643ZM58.004 56.4V53.5429C56.4261 53.5429 55.1469 54.822 55.1469 56.4H58.004ZM63.5112 56.4H66.3683C66.3683 54.822 65.0891 53.5429 63.5112 53.5429V56.4ZM63.5112 57.5643V60.4214C65.0891 60.4214 66.3683 59.1422 66.3683 57.5643H63.5112ZM60.754 58.3571C60.413 58.3571 60.2433 58.2871 60.1545 58.2361L57.3107 63.1925C58.3838 63.8082 59.5617 64.0714 60.754 64.0714V58.3571ZM60.1785 58.25C60.0627 58.1821 59.9779 58.1003 59.8969 57.9502L54.8682 60.6641C55.4348 61.714 56.2501 62.5703 57.2866 63.1785L60.1785 58.25ZM59.9096 57.974C59.8403 57.8425 59.7612 57.6138 59.7612 57.2071H54.0469C54.0469 58.391 54.2868 59.5623 54.8555 60.6403L59.9096 57.974ZM59.7612 57.2071C59.7612 56.7188 59.8513 56.4491 59.9231 56.3077L54.8278 53.7209C54.271 54.8176 54.0469 56.0098 54.0469 57.2071H59.7612ZM59.9151 56.3232C60.0038 56.1512 60.0856 56.0813 60.1679 56.0322L57.2401 51.125C56.1891 51.7521 55.3852 52.6393 54.8358 53.7054L59.9151 56.3232ZM60.1679 56.0322C60.2327 55.9935 60.372 55.9286 60.6826 55.9286V50.2143C59.4885 50.2143 58.3087 50.4874 57.2401 51.125L60.1679 56.0322ZM60.6826 55.9286C61.0121 55.9286 61.1067 55.9999 61.1096 56.0019L64.2699 51.241C63.168 50.5096 61.9245 50.2143 60.6826 50.2143V55.9286ZM61.1239 56.0113C61.1423 56.0233 61.2013 56.056 61.2766 56.2423L66.5743 54.1006C66.1068 52.944 65.342 51.9433 64.2555 51.2315L61.1239 56.0113ZM61.2831 56.2583C61.356 56.4356 61.4399 56.7807 61.4023 57.3879L67.1057 57.7407C67.1824 56.5002 67.0472 55.2501 66.5678 54.0845L61.2831 56.2583ZM64.254 54.7071H62.7612V60.4214H64.254V54.7071ZM65.6183 57.5643V57.0214H59.904V57.5643H65.6183ZM65.6181 56.991C65.6059 55.8423 65.3975 54.4328 64.5022 53.2816L59.9916 56.7898C59.8657 56.628 59.8471 56.5216 59.8596 56.5699C59.8726 56.6201 59.9012 56.7688 59.9042 57.0518L65.6181 56.991ZM64.5143 53.2973C63.5105 51.988 62.0572 51.5357 60.7397 51.5357V57.25C60.7815 57.25 60.6795 57.257 60.5027 57.1816C60.3069 57.0981 60.1179 56.9547 59.9794 56.7741L64.5143 53.2973ZM60.7397 51.5357C59.352 51.5357 57.8675 52.0062 56.8208 53.3179L61.2873 56.8821C61.1735 57.0246 61.0186 57.139 60.8628 57.2044C60.7241 57.2626 60.6617 57.25 60.7397 57.25V51.5357ZM56.8208 53.3179C55.8877 54.4871 55.6326 55.9021 55.6326 57.1429H61.3469C61.3469 56.8912 61.3743 56.7632 61.3848 56.725C61.3935 56.6937 61.3776 56.7689 61.2873 56.8821L56.8208 53.3179ZM55.6326 57.1429C55.6326 58.3779 55.9039 59.7591 56.8296 60.9074L61.2784 57.3212C61.3613 57.424 61.3813 57.4978 61.3776 57.4852C61.3718 57.4649 61.3469 57.3617 61.3469 57.1429H55.6326ZM56.8386 60.9186C57.8629 62.1762 59.2961 62.6643 60.6826 62.6643V56.95C60.6359 56.95 60.7155 56.9426 60.8618 57.0048C61.0219 57.0729 61.1673 57.1847 61.2694 57.31L56.8386 60.9186ZM60.6826 62.6643C61.5876 62.6643 62.5313 62.4566 63.3948 61.9215L60.3847 57.0643C60.4699 57.0115 60.5512 56.9801 60.6145 56.9636C60.675 56.9478 60.7022 56.95 60.6826 56.95V62.6643ZM63.404 61.9157C64.2436 61.391 64.8595 60.6575 65.2636 59.819L60.1159 57.3382C60.1231 57.3232 60.1471 57.2788 60.1967 57.2221C60.2473 57.1642 60.3091 57.1114 60.3755 57.07L63.404 61.9157ZM61.8262 61.3021L63.2905 61.7664L65.0176 56.3193L63.5533 55.8551L61.8262 61.3021ZM61.5335 57.9043C61.4523 58.0912 61.3708 58.1676 61.2754 58.2271L64.304 63.0729C65.4277 62.3705 66.2557 61.3754 66.7745 60.1814L61.5335 57.9043ZM61.2891 58.2186C61.1509 58.304 60.9959 58.3571 60.754 58.3571V64.0714C62.0073 64.0714 63.2095 63.7484 64.2903 63.0814L61.2891 58.2186ZM60.8612 57.5643V56.4H55.1469V57.5643H60.8612ZM58.004 59.2571H63.5112V53.5429H58.004V59.2571ZM60.654 56.4V57.5643H66.3683V56.4H60.654ZM63.5112 54.7071H58.004V60.4214H63.5112V54.7071ZM66.428 61H63.5709C63.5709 62.578 64.8501 63.8571 66.428 63.8571V61ZM66.428 53.2857V50.4286C64.8501 50.4286 63.5709 51.7078 63.5709 53.2857H66.428ZM67.7566 53.2857H70.6137C70.6137 51.7078 69.3345 50.4286 67.7566 50.4286V53.2857ZM67.7566 55.1571L65.487 56.8927C66.231 57.8657 67.5125 58.2562 68.6727 57.8634C69.833 57.4706 70.6137 56.382 70.6137 55.1571H67.7566ZM67.5709 54.9143L64.9042 53.8886C64.5477 54.8155 64.698 55.861 65.3013 56.6499L67.5709 54.9143ZM67.9423 54.2357L70.2344 55.9415C70.2406 55.9331 70.2468 55.9247 70.253 55.9162L67.9423 54.2357ZM68.4709 53.7214L70.0557 56.0987C70.0903 56.0756 70.1245 56.0518 70.158 56.0272L68.4709 53.7214ZM69.1209 53.3929L69.9917 56.1141C70.0026 56.1106 70.0135 56.107 70.0244 56.1034L69.1209 53.3929ZM69.8637 53.25L70.0252 56.1026C70.0431 56.1016 70.0609 56.1004 70.0788 56.099L69.8637 53.25ZM70.5923 53.2857H73.4494C73.4494 51.9068 72.4646 50.7247 71.1084 50.4756L70.5923 53.2857ZM70.5923 54.6857L69.8626 57.4481C70.7197 57.6745 71.6333 57.4902 72.3356 56.9493C73.038 56.4085 73.4494 55.5722 73.4494 54.6857H70.5923ZM69.7494 54.6286L69.4868 51.7835L69.4828 51.7839L69.7494 54.6286ZM68.9066 54.9214L70.4587 57.3202L70.4606 57.319L68.9066 54.9214ZM68.328 55.4929L65.9197 53.9556C65.9118 53.9679 65.9041 53.9802 65.8965 53.9925L68.328 55.4929ZM68.028 56.2429L70.8136 56.8782L70.816 56.8677L68.028 56.2429ZM67.9352 61V63.8571C69.5131 63.8571 70.7923 62.578 70.7923 61H67.9352ZM69.2852 61V53.2857H63.5709V61H69.2852ZM66.428 56.1429H67.7566V50.4286H66.428V56.1429ZM64.8994 53.2857V55.1571H70.6137V53.2857H64.8994ZM70.0262 53.4216L69.8405 53.1787L65.3013 56.6499L65.487 56.8927L70.0262 53.4216ZM70.2376 55.9399C70.2408 55.9316 70.2424 55.929 70.2414 55.9308C70.2404 55.9326 70.238 55.9366 70.2344 55.9415L65.6502 52.53C65.3366 52.9514 65.0891 53.4079 64.9042 53.8886L70.2376 55.9399ZM70.253 55.9162C70.2221 55.9587 70.1581 56.0304 70.0557 56.0987L66.886 51.3441C66.3836 51.6791 65.9673 52.0937 65.6316 52.5552L70.253 55.9162ZM70.158 56.0272C70.097 56.0719 70.0364 56.0998 69.9917 56.1141L68.2501 50.6716C67.7292 50.8383 67.2352 51.0853 66.7837 51.4156L70.158 56.0272ZM70.0244 56.1034C70.0285 56.102 70.0296 56.1019 70.0283 56.1022C70.0269 56.1024 70.0256 56.1026 70.0252 56.1026L69.7023 50.3974C69.1941 50.4262 68.6971 50.5224 68.2174 50.6823L70.0244 56.1034ZM70.0788 56.099C70.0916 56.0981 70.0968 56.0984 70.0953 56.0984C70.0936 56.0983 70.0869 56.0978 70.0761 56.0958L71.1084 50.4756C70.6185 50.3856 70.1292 50.3647 69.6487 50.401L70.0788 56.099ZM67.7352 53.2857V54.6857H73.4494V53.2857H67.7352ZM71.322 51.9233C70.6911 51.7567 70.0675 51.7299 69.4868 51.7835L70.0121 57.4736C70.0505 57.4701 69.9887 57.4814 69.8626 57.4481L71.322 51.9233ZM69.4828 51.7839C68.7186 51.8555 67.9961 52.1068 67.3526 52.5238L70.4606 57.319C70.4024 57.3567 70.3307 57.3933 70.2479 57.4221C70.1651 57.4509 70.0858 57.4667 70.0161 57.4732L69.4828 51.7839ZM67.3544 52.5227C66.7989 52.8821 66.302 53.3566 65.9197 53.9556L70.7364 57.0301C70.6398 57.1815 70.5286 57.275 70.4587 57.3202L67.3544 52.5227ZM65.8965 53.9925C65.5795 54.5062 65.366 55.0559 65.24 55.618L70.816 56.8677C70.8138 56.8775 70.8003 56.9271 70.7595 56.9932L65.8965 53.9925ZM65.2424 55.6075C65.1287 56.106 65.078 56.6086 65.078 57.1071H70.7923C70.7923 56.9962 70.8035 56.9226 70.8136 56.8782L65.2424 55.6075ZM65.078 57.1071V61H70.7923V57.1071H65.078ZM67.9352 58.1429H66.428V63.8571H67.9352V58.1429Z" fill="#9E9B9B" mask="url(#path-9-outside-1_1117_12244)"/>
<defs>
<filter id="filter0_ii_1117_12244" x="11.3521" y="27.7857" width="74.4413" height="42.3572" filterUnits="userSpaceOnUse" color-interpolation-filters="sRGB">
<feFlood flood-opacity="0" result="BackgroundImageFix"/>
<feBlend mode="normal" in="SourceGraphic" in2="BackgroundImageFix" result="shape"/>
<feColorMatrix in="SourceAlpha" type="matrix" values="0 0 0 0 0 0 0 0 0 0 0 0 0 0 0 0 0 0 127 0" result="hardAlpha"/>
<feOffset dx="5.71429" dy="5.71429"/>
<feGaussianBlur stdDeviation="2.85714"/>
<feComposite in2="hardAlpha" operator="arithmetic" k2="-1" k3="1"/>
<feColorMatrix type="matrix" values="0 0 0 0 0 0 0 0 0 0 0 0 0 0 0 0 0 0 0.25 0"/>
<feBlend mode="normal" in2="shape" result="effect1_innerShadow_1117_12244"/>
<feColorMatrix in="SourceAlpha" type="matrix" values="0 0 0 0 0 0 0 0 0 0 0 0 0 0 0 0 0 0 127 0" result="hardAlpha"/>
<feOffset dx="-5.71429" dy="-5.71429"/>
<feGaussianBlur stdDeviation="5.71429"/>
<feComposite in2="hardAlpha" operator="arithmetic" k2="-1" k3="1"/>
<feColorMatrix type="matrix" values="0 0 0 0 0.983333 0 0 0 0 0.954653 0 0 0 0 0.954653 0 0 0 0.25 0"/>
<feBlend mode="normal" in2="effect1_innerShadow_1117_12244" result="effect2_innerShadow_1117_12244"/>
</filter>
</defs>
</svg>
