<svg width="29" height="28" viewBox="0 0 29 28" fill="none" xmlns="http://www.w3.org/2000/svg">
<path d="M0.666626 6C0.666626 2.68629 3.35292 0 6.66663 0H22.6666C25.9803 0 28.6666 2.68629 28.6666 6V22C28.6666 25.3137 25.9803 28 22.6666 28H6.66663C3.35292 28 0.666626 25.3137 0.666626 22V6Z" fill="#0B281F"/>
<path d="M20.9166 11.4998H10.8899C9.84071 11.4998 9.31611 11.4998 9.18972 11.1873C9.06334 10.8747 9.44052 10.5101 10.1949 9.78085L11.8649 8.1665" stroke="#34B263" stroke-width="1.5" stroke-linecap="round" stroke-linejoin="round"/>
<path d="M8.41663 16.5H18.4433C19.4925 16.5 20.0171 16.5 20.1435 16.8126C20.2699 17.1252 19.8927 17.4898 19.1384 18.219L17.4683 19.8333" stroke="#34B263" stroke-width="1.5" stroke-linecap="round" stroke-linejoin="round"/>
</svg>
