<svg width="96" height="96" viewBox="0 0 96 96" fill="none" xmlns="http://www.w3.org/2000/svg">
<path d="M92 48C92 72.3005 72.3005 92 48 92C23.6995 92 4 72.3005 4 48C4 23.6995 23.6995 4 48 4C72.3005 4 92 23.6995 92 48Z" fill="#FFC8C2"/>
<path fill-rule="evenodd" clip-rule="evenodd" d="M95.2597 48C95.2597 74.1006 74.101 95.2592 48.0005 95.2592C21.8999 95.2592 0.741211 74.1006 0.741211 48C0.741211 21.8994 21.8999 0.740723 48.0005 0.740723C74.101 0.740723 95.2597 21.8994 95.2597 48ZM48.0005 92C72.301 92 92.0005 72.3005 92.0005 48C92.0005 23.6995 72.301 3.99998 48.0005 3.99998C23.6999 3.99998 4.00047 23.6995 4.00047 48C4.00047 72.3005 23.6999 92 48.0005 92Z" fill="#E53935"/>
<path fill-rule="evenodd" clip-rule="evenodd" d="M7.25854 49.6296C6.35852 49.6296 5.62891 48.9 5.62891 48C5.62891 24.5995 24.5988 5.62963 47.9993 5.62963C48.8993 5.62963 49.6289 6.35925 49.6289 7.25927C49.6289 8.15928 48.8993 8.8889 47.9993 8.8889C26.3988 8.88889 8.88817 26.3995 8.88816 48C8.88816 48.9 8.15855 49.6296 7.25854 49.6296Z" fill="#FFE4E3"/>
<path fill-rule="evenodd" clip-rule="evenodd" d="M88.7405 46.3704C89.6405 46.3704 90.3701 47.1 90.3701 48C90.3701 71.4005 71.4003 90.3704 47.9997 90.3704C47.0997 90.3704 46.3701 89.6408 46.3701 88.7407C46.3701 87.8407 47.0997 87.1111 47.9997 87.1111C69.6002 87.1111 87.1109 69.6005 87.1109 48C87.1109 47.1 87.8405 46.3704 88.7405 46.3704Z" fill="#FB625E"/>
<path d="M80.5924 48C80.5924 66.0004 66.0002 80.5926 47.9998 80.5926C29.9994 80.5926 15.4072 66.0004 15.4072 48C15.4072 29.9996 29.9994 15.4074 47.9998 15.4074C66.0002 15.4074 80.5924 29.9996 80.5924 48Z" fill="#FFC8C2"/>
<path fill-rule="evenodd" clip-rule="evenodd" d="M83.8521 48C83.8521 67.8004 67.8007 83.8518 48.0003 83.8518C28.1999 83.8518 12.1484 67.8004 12.1484 48C12.1484 28.1996 28.1999 12.1481 48.0003 12.1481C67.8007 12.1481 83.8521 28.1996 83.8521 48ZM48.0003 80.5926C66.0007 80.5926 80.5929 66.0004 80.5929 48C80.5929 29.9996 66.0007 15.4074 48.0003 15.4074C29.9999 15.4074 15.4077 29.9996 15.4077 48C15.4077 66.0004 29.9999 80.5926 48.0003 80.5926Z" fill="#E53935"/>
<path fill-rule="evenodd" clip-rule="evenodd" d="M47.9989 75.7037C63.2993 75.7037 75.7027 63.3003 75.7027 48C75.7027 47.1 76.4323 46.3704 77.3323 46.3704C78.2323 46.3704 78.9619 47.1 78.9619 48C78.9619 65.1004 65.0993 78.963 47.9989 78.9629C47.0989 78.9629 46.3693 78.2333 46.3693 77.3333C46.3693 76.4333 47.0989 75.7037 47.9989 75.7037Z" fill="#FB625E"/>
<path fill-rule="evenodd" clip-rule="evenodd" d="M48.0001 20.2963C32.6997 20.2963 20.2964 32.6997 20.2964 48C20.2964 48.9 19.5668 49.6296 18.6667 49.6296C17.7667 49.6296 17.0371 48.9 17.0371 48C17.0371 30.8996 30.8997 17.037 48.0001 17.037C48.9001 17.037 49.6297 17.7667 49.6297 18.6667C49.6297 19.5667 48.9001 20.2963 48.0001 20.2963Z" fill="#FAA7A4"/>
<mask id="path-9-outside-1_1117_12283" maskUnits="userSpaceOnUse" x="22" y="30" width="54" height="38" fill="black">
<rect fill="white" x="22" y="30" width="54" height="38"/>
<path d="M31.5739 44V33.7143H35.7311C35.8311 33.7143 35.9549 33.719 36.1025 33.7286C36.2501 33.7333 36.3906 33.7476 36.5239 33.7714C37.0954 33.8619 37.5716 34.0571 37.9525 34.3571C38.3382 34.6571 38.6263 35.0357 38.8168 35.4929C39.0073 35.95 39.1025 36.4548 39.1025 37.0071C39.1025 37.8262 38.893 38.5333 38.4739 39.1286C38.0549 39.719 37.4263 40.0881 36.5882 40.2357L35.9811 40.3071H33.0668V44H31.5739ZM37.5882 44L35.5597 39.8143L37.0668 39.4286L39.2954 44H37.5882ZM33.0668 38.8929H35.6739C35.7692 38.8929 35.8739 38.8881 35.9882 38.8786C36.1073 38.869 36.2192 38.8524 36.3239 38.8286C36.6287 38.7571 36.8739 38.6262 37.0597 38.4357C37.2454 38.2405 37.3787 38.0167 37.4597 37.7643C37.5406 37.5119 37.5811 37.2595 37.5811 37.0071C37.5811 36.7548 37.5406 36.5048 37.4597 36.2571C37.3787 36.0048 37.2454 35.7833 37.0597 35.5929C36.8739 35.3976 36.6287 35.2643 36.3239 35.1929C36.2192 35.1643 36.1073 35.1452 35.9882 35.1357C35.8739 35.1262 35.7692 35.1214 35.6739 35.1214H33.0668V38.8929ZM44.3438 44.2071C43.8105 44.2071 43.3629 44.1214 43.0009 43.95C42.639 43.7786 42.3438 43.5548 42.1152 43.2786C41.8914 42.9976 41.72 42.6929 41.6009 42.3643C41.4819 42.0357 41.4009 41.7143 41.3581 41.4C41.3152 41.0857 41.2938 40.8095 41.2938 40.5714V36.2857H42.8081V40.0786C42.8081 40.3786 42.8319 40.6881 42.8795 41.0071C42.9319 41.3214 43.0271 41.6143 43.1652 41.8857C43.3081 42.1571 43.5057 42.3762 43.7581 42.5429C44.0152 42.7095 44.3486 42.7929 44.7581 42.7929C45.0248 42.7929 45.2771 42.75 45.5152 42.6643C45.7533 42.5738 45.9605 42.431 46.1367 42.2357C46.3176 42.0405 46.4581 41.7833 46.5581 41.4643C46.6629 41.1452 46.7152 40.7571 46.7152 40.3L47.6438 40.65C47.6438 41.35 47.5129 41.969 47.2509 42.5071C46.989 43.0405 46.6129 43.4571 46.1224 43.7571C45.6319 44.0571 45.039 44.2071 44.3438 44.2071ZM46.8938 44V41.7714H46.7152V36.2857H48.2224V44H46.8938ZM54.4186 44.2143C53.6805 44.2143 53.0614 44.0357 52.5614 43.6786C52.0614 43.3167 51.6829 42.8286 51.4257 42.2143C51.1686 41.6 51.04 40.9071 51.04 40.1357C51.04 39.3643 51.1662 38.6714 51.4186 38.0571C51.6757 37.4429 52.0519 36.9595 52.5472 36.6071C53.0472 36.25 53.6614 36.0714 54.39 36.0714C55.1138 36.0714 55.7376 36.25 56.2614 36.6071C56.79 36.9595 57.1972 37.4429 57.4829 38.0571C57.7686 38.6667 57.9114 39.3595 57.9114 40.1357C57.9114 40.9071 57.7686 41.6024 57.4829 42.2214C57.2019 42.8357 56.7995 43.3214 56.2757 43.6786C55.7567 44.0357 55.1376 44.2143 54.4186 44.2143ZM50.79 44V33.7143H52.29V38.45H52.1186V44H50.79ZM54.2114 42.8643C54.6876 42.8643 55.0805 42.7429 55.39 42.5C55.7043 42.2571 55.9376 41.931 56.09 41.5214C56.2472 41.1071 56.3257 40.6452 56.3257 40.1357C56.3257 39.631 56.2472 39.1738 56.09 38.7643C55.9376 38.3548 55.7019 38.0286 55.3829 37.7857C55.0638 37.5429 54.6567 37.4214 54.1614 37.4214C53.6948 37.4214 53.3091 37.5357 53.0043 37.7643C52.7043 37.9929 52.4805 38.3119 52.3329 38.7214C52.19 39.131 52.1186 39.6024 52.1186 40.1357C52.1186 40.669 52.19 41.1405 52.3329 41.55C52.4757 41.9595 52.7019 42.281 53.0114 42.5143C53.321 42.7476 53.721 42.8643 54.2114 42.8643ZM60.6285 47.4286L62.1214 43.3643L62.1428 44.5643L58.7785 36.2857H60.3357L62.8499 42.6786H62.3928L64.7928 36.2857H66.3071L62.0499 47.4286H60.6285ZM25.2129 61V50.7143H29.37C29.47 50.7143 29.5938 50.719 29.7415 50.7286C29.8891 50.7333 30.0296 50.7476 30.1629 50.7714C30.7343 50.8619 31.2105 51.0571 31.5915 51.3571C31.9772 51.6571 32.2653 52.0357 32.4557 52.4929C32.6462 52.95 32.7415 53.4548 32.7415 54.0071C32.7415 54.8262 32.5319 55.5333 32.1129 56.1286C31.6938 56.719 31.0653 57.0881 30.2272 57.2357L29.62 57.3071H26.7057V61H25.2129ZM31.2272 61L29.1986 56.8143L30.7057 56.4286L32.9343 61H31.2272ZM26.7057 55.8929H29.3129C29.4081 55.8929 29.5129 55.8881 29.6272 55.8786C29.7462 55.869 29.8581 55.8524 29.9629 55.8286C30.2677 55.7571 30.5129 55.6262 30.6986 55.4357C30.8843 55.2405 31.0177 55.0167 31.0986 54.7643C31.1796 54.5119 31.22 54.2595 31.22 54.0071C31.22 53.7548 31.1796 53.5048 31.0986 53.2571C31.0177 53.0048 30.8843 52.7833 30.6986 52.5929C30.5129 52.3976 30.2677 52.2643 29.9629 52.1929C29.8581 52.1643 29.7462 52.1452 29.6272 52.1357C29.5129 52.1262 29.4081 52.1214 29.3129 52.1214H26.7057V55.8929ZM38.4256 61.2143C37.6542 61.2143 36.9851 61.0405 36.4185 60.6929C35.8518 60.3452 35.4137 59.8667 35.1042 59.2571C34.7994 58.6429 34.647 57.9357 34.647 57.1357C34.647 56.331 34.8042 55.6238 35.1185 55.0143C35.4328 54.4 35.8732 53.9238 36.4399 53.5857C37.0066 53.2429 37.6685 53.0714 38.4256 53.0714C39.197 53.0714 39.8661 53.2452 40.4328 53.5929C40.9994 53.9405 41.4375 54.419 41.747 55.0286C42.0566 55.6381 42.2113 56.3405 42.2113 57.1357C42.2113 57.9405 42.0542 58.65 41.7399 59.2643C41.4304 59.8738 40.9923 60.3524 40.4256 60.7C39.8589 61.0429 39.1923 61.2143 38.4256 61.2143ZM38.4256 59.8071C39.1637 59.8071 39.7137 59.5595 40.0756 59.0643C40.4423 58.5643 40.6256 57.9214 40.6256 57.1357C40.6256 56.331 40.4399 55.6881 40.0685 55.2071C39.7018 54.7214 39.1542 54.4786 38.4256 54.4786C37.9256 54.4786 37.5137 54.5929 37.1899 54.8214C36.8661 55.0452 36.6256 55.3571 36.4685 55.7571C36.3113 56.1524 36.2328 56.6119 36.2328 57.1357C36.2328 57.9452 36.4185 58.5929 36.7899 59.0786C37.1613 59.5643 37.7066 59.8071 38.4256 59.8071ZM45.1162 64.4286L46.6091 60.3643L46.6305 61.5643L43.2662 53.2857H44.8234L47.3377 59.6786H46.8805L49.2805 53.2857H50.7948L46.5377 64.4286H45.1162ZM54.3848 61.2143C53.8133 61.2143 53.3348 61.1095 52.9491 60.9C52.5633 60.6857 52.2705 60.4048 52.0705 60.0571C51.8752 59.7048 51.7776 59.319 51.7776 58.9C51.7776 58.5095 51.8467 58.1667 51.9848 57.8714C52.1229 57.5762 52.3276 57.3262 52.5991 57.1214C52.8705 56.9119 53.2038 56.7429 53.5991 56.6143C53.9419 56.5143 54.33 56.4262 54.7633 56.35C55.1967 56.2738 55.6514 56.2024 56.1276 56.1357C56.6086 56.069 57.0848 56.0024 57.5562 55.9357L57.0133 56.2357C57.0229 55.631 56.8943 55.1833 56.6276 54.8929C56.3657 54.5976 55.9133 54.45 55.2705 54.45C54.8657 54.45 54.4943 54.5452 54.1562 54.7357C53.8181 54.9214 53.5824 55.231 53.4491 55.6643L52.0562 55.2357C52.2467 54.5738 52.6086 54.0476 53.1419 53.6571C53.68 53.2667 54.3943 53.0714 55.2848 53.0714C55.9752 53.0714 56.5752 53.1905 57.0848 53.4286C57.5991 53.6619 57.9752 54.0333 58.2133 54.5429C58.3371 54.7952 58.4133 55.0619 58.4419 55.3429C58.4705 55.6238 58.4848 55.9262 58.4848 56.25V61H57.1633V59.2357L57.4205 59.4643C57.1014 60.0548 56.6943 60.4952 56.1991 60.7857C55.7086 61.0714 55.1038 61.2143 54.3848 61.2143ZM54.6491 59.9929C55.0729 59.9929 55.4371 59.919 55.7419 59.7714C56.0467 59.619 56.2919 59.4262 56.4776 59.1929C56.6633 58.9595 56.7848 58.7167 56.8419 58.4643C56.9229 58.2357 56.9681 57.9786 56.9776 57.6929C56.9919 57.4071 56.9991 57.1786 56.9991 57.0071L57.4848 57.1857C57.0133 57.2571 56.5848 57.3214 56.1991 57.3786C55.8133 57.4357 55.4633 57.4929 55.1491 57.55C54.8395 57.6024 54.5633 57.6667 54.3205 57.7429C54.1157 57.8143 53.9324 57.9 53.7705 58C53.6133 58.1 53.4871 58.2214 53.3919 58.3643C53.3014 58.5071 53.2562 58.681 53.2562 58.8857C53.2562 59.0857 53.3062 59.2714 53.4062 59.4429C53.5062 59.6095 53.6586 59.7429 53.8633 59.8429C54.0681 59.9429 54.33 59.9929 54.6491 59.9929ZM61.0539 61V50.5H62.5467V61H61.0539ZM68.6845 61.2143C67.9179 61.2143 67.2441 61.0476 66.6631 60.7143C66.0869 60.3762 65.6369 59.9071 65.3131 59.3071C64.9941 58.7024 64.8345 58.0024 64.8345 57.2071C64.8345 56.3643 64.9917 55.6333 65.306 55.0143C65.625 54.3952 66.0679 53.9167 66.6345 53.5786C67.2012 53.2405 67.8607 53.0714 68.6131 53.0714C69.3988 53.0714 70.0679 53.2548 70.6203 53.6214C71.1726 53.9833 71.5845 54.5 71.856 55.1714C72.1322 55.8429 72.2417 56.6405 72.1845 57.5643H70.6917V57.0214C70.6822 56.1262 70.5107 55.4643 70.1774 55.0357C69.8488 54.6071 69.3464 54.3929 68.6703 54.3929C67.9226 54.3929 67.3607 54.6286 66.9845 55.1C66.6084 55.5714 66.4203 56.2524 66.4203 57.1429C66.4203 57.9905 66.6084 58.6476 66.9845 59.1143C67.3607 59.5762 67.9036 59.8071 68.6131 59.8071C69.0798 59.8071 69.4822 59.7024 69.8203 59.4929C70.1631 59.2786 70.4298 58.9738 70.6203 58.5786L72.0845 59.0429C71.7845 59.7333 71.3298 60.269 70.7203 60.65C70.1107 61.0262 69.4322 61.2143 68.6845 61.2143ZM65.9345 57.5643V56.4H71.4417V57.5643H65.9345Z"/>
</mask>
<g filter="url(#filter0_ii_1117_12283)">
<path d="M31.5739 44V33.7143H35.7311C35.8311 33.7143 35.9549 33.719 36.1025 33.7286C36.2501 33.7333 36.3906 33.7476 36.5239 33.7714C37.0954 33.8619 37.5716 34.0571 37.9525 34.3571C38.3382 34.6571 38.6263 35.0357 38.8168 35.4929C39.0073 35.95 39.1025 36.4548 39.1025 37.0071C39.1025 37.8262 38.893 38.5333 38.4739 39.1286C38.0549 39.719 37.4263 40.0881 36.5882 40.2357L35.9811 40.3071H33.0668V44H31.5739ZM37.5882 44L35.5597 39.8143L37.0668 39.4286L39.2954 44H37.5882ZM33.0668 38.8929H35.6739C35.7692 38.8929 35.8739 38.8881 35.9882 38.8786C36.1073 38.869 36.2192 38.8524 36.3239 38.8286C36.6287 38.7571 36.8739 38.6262 37.0597 38.4357C37.2454 38.2405 37.3787 38.0167 37.4597 37.7643C37.5406 37.5119 37.5811 37.2595 37.5811 37.0071C37.5811 36.7548 37.5406 36.5048 37.4597 36.2571C37.3787 36.0048 37.2454 35.7833 37.0597 35.5929C36.8739 35.3976 36.6287 35.2643 36.3239 35.1929C36.2192 35.1643 36.1073 35.1452 35.9882 35.1357C35.8739 35.1262 35.7692 35.1214 35.6739 35.1214H33.0668V38.8929ZM44.3438 44.2071C43.8105 44.2071 43.3629 44.1214 43.0009 43.95C42.639 43.7786 42.3438 43.5548 42.1152 43.2786C41.8914 42.9976 41.72 42.6929 41.6009 42.3643C41.4819 42.0357 41.4009 41.7143 41.3581 41.4C41.3152 41.0857 41.2938 40.8095 41.2938 40.5714V36.2857H42.8081V40.0786C42.8081 40.3786 42.8319 40.6881 42.8795 41.0071C42.9319 41.3214 43.0271 41.6143 43.1652 41.8857C43.3081 42.1571 43.5057 42.3762 43.7581 42.5429C44.0152 42.7095 44.3486 42.7929 44.7581 42.7929C45.0248 42.7929 45.2771 42.75 45.5152 42.6643C45.7533 42.5738 45.9605 42.431 46.1367 42.2357C46.3176 42.0405 46.4581 41.7833 46.5581 41.4643C46.6629 41.1452 46.7152 40.7571 46.7152 40.3L47.6438 40.65C47.6438 41.35 47.5129 41.969 47.2509 42.5071C46.989 43.0405 46.6129 43.4571 46.1224 43.7571C45.6319 44.0571 45.039 44.2071 44.3438 44.2071ZM46.8938 44V41.7714H46.7152V36.2857H48.2224V44H46.8938ZM54.4186 44.2143C53.6805 44.2143 53.0614 44.0357 52.5614 43.6786C52.0614 43.3167 51.6829 42.8286 51.4257 42.2143C51.1686 41.6 51.04 40.9071 51.04 40.1357C51.04 39.3643 51.1662 38.6714 51.4186 38.0571C51.6757 37.4429 52.0519 36.9595 52.5472 36.6071C53.0472 36.25 53.6614 36.0714 54.39 36.0714C55.1138 36.0714 55.7376 36.25 56.2614 36.6071C56.79 36.9595 57.1972 37.4429 57.4829 38.0571C57.7686 38.6667 57.9114 39.3595 57.9114 40.1357C57.9114 40.9071 57.7686 41.6024 57.4829 42.2214C57.2019 42.8357 56.7995 43.3214 56.2757 43.6786C55.7567 44.0357 55.1376 44.2143 54.4186 44.2143ZM50.79 44V33.7143H52.29V38.45H52.1186V44H50.79ZM54.2114 42.8643C54.6876 42.8643 55.0805 42.7429 55.39 42.5C55.7043 42.2571 55.9376 41.931 56.09 41.5214C56.2472 41.1071 56.3257 40.6452 56.3257 40.1357C56.3257 39.631 56.2472 39.1738 56.09 38.7643C55.9376 38.3548 55.7019 38.0286 55.3829 37.7857C55.0638 37.5429 54.6567 37.4214 54.1614 37.4214C53.6948 37.4214 53.3091 37.5357 53.0043 37.7643C52.7043 37.9929 52.4805 38.3119 52.3329 38.7214C52.19 39.131 52.1186 39.6024 52.1186 40.1357C52.1186 40.669 52.19 41.1405 52.3329 41.55C52.4757 41.9595 52.7019 42.281 53.0114 42.5143C53.321 42.7476 53.721 42.8643 54.2114 42.8643ZM60.6285 47.4286L62.1214 43.3643L62.1428 44.5643L58.7785 36.2857H60.3357L62.8499 42.6786H62.3928L64.7928 36.2857H66.3071L62.0499 47.4286H60.6285ZM25.2129 61V50.7143H29.37C29.47 50.7143 29.5938 50.719 29.7415 50.7286C29.8891 50.7333 30.0296 50.7476 30.1629 50.7714C30.7343 50.8619 31.2105 51.0571 31.5915 51.3571C31.9772 51.6571 32.2653 52.0357 32.4557 52.4929C32.6462 52.95 32.7415 53.4548 32.7415 54.0071C32.7415 54.8262 32.5319 55.5333 32.1129 56.1286C31.6938 56.719 31.0653 57.0881 30.2272 57.2357L29.62 57.3071H26.7057V61H25.2129ZM31.2272 61L29.1986 56.8143L30.7057 56.4286L32.9343 61H31.2272ZM26.7057 55.8929H29.3129C29.4081 55.8929 29.5129 55.8881 29.6272 55.8786C29.7462 55.869 29.8581 55.8524 29.9629 55.8286C30.2677 55.7571 30.5129 55.6262 30.6986 55.4357C30.8843 55.2405 31.0177 55.0167 31.0986 54.7643C31.1796 54.5119 31.22 54.2595 31.22 54.0071C31.22 53.7548 31.1796 53.5048 31.0986 53.2571C31.0177 53.0048 30.8843 52.7833 30.6986 52.5929C30.5129 52.3976 30.2677 52.2643 29.9629 52.1929C29.8581 52.1643 29.7462 52.1452 29.6272 52.1357C29.5129 52.1262 29.4081 52.1214 29.3129 52.1214H26.7057V55.8929ZM38.4256 61.2143C37.6542 61.2143 36.9851 61.0405 36.4185 60.6929C35.8518 60.3452 35.4137 59.8667 35.1042 59.2571C34.7994 58.6429 34.647 57.9357 34.647 57.1357C34.647 56.331 34.8042 55.6238 35.1185 55.0143C35.4328 54.4 35.8732 53.9238 36.4399 53.5857C37.0066 53.2429 37.6685 53.0714 38.4256 53.0714C39.197 53.0714 39.8661 53.2452 40.4328 53.5929C40.9994 53.9405 41.4375 54.419 41.747 55.0286C42.0566 55.6381 42.2113 56.3405 42.2113 57.1357C42.2113 57.9405 42.0542 58.65 41.7399 59.2643C41.4304 59.8738 40.9923 60.3524 40.4256 60.7C39.8589 61.0429 39.1923 61.2143 38.4256 61.2143ZM38.4256 59.8071C39.1637 59.8071 39.7137 59.5595 40.0756 59.0643C40.4423 58.5643 40.6256 57.9214 40.6256 57.1357C40.6256 56.331 40.4399 55.6881 40.0685 55.2071C39.7018 54.7214 39.1542 54.4786 38.4256 54.4786C37.9256 54.4786 37.5137 54.5929 37.1899 54.8214C36.8661 55.0452 36.6256 55.3571 36.4685 55.7571C36.3113 56.1524 36.2328 56.6119 36.2328 57.1357C36.2328 57.9452 36.4185 58.5929 36.7899 59.0786C37.1613 59.5643 37.7066 59.8071 38.4256 59.8071ZM45.1162 64.4286L46.6091 60.3643L46.6305 61.5643L43.2662 53.2857H44.8234L47.3377 59.6786H46.8805L49.2805 53.2857H50.7948L46.5377 64.4286H45.1162ZM54.3848 61.2143C53.8133 61.2143 53.3348 61.1095 52.9491 60.9C52.5633 60.6857 52.2705 60.4048 52.0705 60.0571C51.8752 59.7048 51.7776 59.319 51.7776 58.9C51.7776 58.5095 51.8467 58.1667 51.9848 57.8714C52.1229 57.5762 52.3276 57.3262 52.5991 57.1214C52.8705 56.9119 53.2038 56.7429 53.5991 56.6143C53.9419 56.5143 54.33 56.4262 54.7633 56.35C55.1967 56.2738 55.6514 56.2024 56.1276 56.1357C56.6086 56.069 57.0848 56.0024 57.5562 55.9357L57.0133 56.2357C57.0229 55.631 56.8943 55.1833 56.6276 54.8929C56.3657 54.5976 55.9133 54.45 55.2705 54.45C54.8657 54.45 54.4943 54.5452 54.1562 54.7357C53.8181 54.9214 53.5824 55.231 53.4491 55.6643L52.0562 55.2357C52.2467 54.5738 52.6086 54.0476 53.1419 53.6571C53.68 53.2667 54.3943 53.0714 55.2848 53.0714C55.9752 53.0714 56.5752 53.1905 57.0848 53.4286C57.5991 53.6619 57.9752 54.0333 58.2133 54.5429C58.3371 54.7952 58.4133 55.0619 58.4419 55.3429C58.4705 55.6238 58.4848 55.9262 58.4848 56.25V61H57.1633V59.2357L57.4205 59.4643C57.1014 60.0548 56.6943 60.4952 56.1991 60.7857C55.7086 61.0714 55.1038 61.2143 54.3848 61.2143ZM54.6491 59.9929C55.0729 59.9929 55.4371 59.919 55.7419 59.7714C56.0467 59.619 56.2919 59.4262 56.4776 59.1929C56.6633 58.9595 56.7848 58.7167 56.8419 58.4643C56.9229 58.2357 56.9681 57.9786 56.9776 57.6929C56.9919 57.4071 56.9991 57.1786 56.9991 57.0071L57.4848 57.1857C57.0133 57.2571 56.5848 57.3214 56.1991 57.3786C55.8133 57.4357 55.4633 57.4929 55.1491 57.55C54.8395 57.6024 54.5633 57.6667 54.3205 57.7429C54.1157 57.8143 53.9324 57.9 53.7705 58C53.6133 58.1 53.4871 58.2214 53.3919 58.3643C53.3014 58.5071 53.2562 58.681 53.2562 58.8857C53.2562 59.0857 53.3062 59.2714 53.4062 59.4429C53.5062 59.6095 53.6586 59.7429 53.8633 59.8429C54.0681 59.9429 54.33 59.9929 54.6491 59.9929ZM61.0539 61V50.5H62.5467V61H61.0539ZM68.6845 61.2143C67.9179 61.2143 67.2441 61.0476 66.6631 60.7143C66.0869 60.3762 65.6369 59.9071 65.3131 59.3071C64.9941 58.7024 64.8345 58.0024 64.8345 57.2071C64.8345 56.3643 64.9917 55.6333 65.306 55.0143C65.625 54.3952 66.0679 53.9167 66.6345 53.5786C67.2012 53.2405 67.8607 53.0714 68.6131 53.0714C69.3988 53.0714 70.0679 53.2548 70.6203 53.6214C71.1726 53.9833 71.5845 54.5 71.856 55.1714C72.1322 55.8429 72.2417 56.6405 72.1845 57.5643H70.6917V57.0214C70.6822 56.1262 70.5107 55.4643 70.1774 55.0357C69.8488 54.6071 69.3464 54.3929 68.6703 54.3929C67.9226 54.3929 67.3607 54.6286 66.9845 55.1C66.6084 55.5714 66.4203 56.2524 66.4203 57.1429C66.4203 57.9905 66.6084 58.6476 66.9845 59.1143C67.3607 59.5762 67.9036 59.8071 68.6131 59.8071C69.0798 59.8071 69.4822 59.7024 69.8203 59.4929C70.1631 59.2786 70.4298 58.9738 70.6203 58.5786L72.0845 59.0429C71.7845 59.7333 71.3298 60.269 70.7203 60.65C70.1107 61.0262 69.4322 61.2143 68.6845 61.2143ZM65.9345 57.5643V56.4H71.4417V57.5643H65.9345Z" fill="#FFC8C2"/>
</g>
<path d="M31.5739 44H28.7168C28.7168 45.578 29.996 46.8571 31.5739 46.8571V44ZM31.5739 33.7143V30.8571C29.996 30.8571 28.7168 32.1363 28.7168 33.7143H31.5739ZM36.1025 33.7286L35.9186 36.5798C35.9491 36.5818 35.9798 36.5832 36.0104 36.5842L36.1025 33.7286ZM36.5239 33.7714L36.0217 36.5841C36.0401 36.5874 36.0586 36.5905 36.0771 36.5934L36.5239 33.7714ZM37.9525 34.3571L36.1848 36.6018C36.1893 36.6054 36.1939 36.6089 36.1984 36.6124L37.9525 34.3571ZM38.8168 35.4929L41.4542 34.394V34.394L38.8168 35.4929ZM38.4739 39.1286L40.804 40.7821L40.8102 40.7733L38.4739 39.1286ZM36.5882 40.2357L36.9221 43.0733C36.9762 43.0669 37.0302 43.059 37.0838 43.0495L36.5882 40.2357ZM35.9811 40.3071V43.1643C36.0926 43.1643 36.2041 43.1578 36.3149 43.1447L35.9811 40.3071ZM33.0668 40.3071V37.45C31.4888 37.45 30.2097 38.7292 30.2097 40.3071H33.0668ZM33.0668 44V46.8571C34.6448 46.8571 35.9239 45.578 35.9239 44H33.0668ZM37.5882 44L35.0171 45.2461C35.4946 46.2314 36.4933 46.8571 37.5882 46.8571V44ZM35.5597 39.8143L34.8513 37.0464C34.0204 37.259 33.329 37.8336 32.968 38.6116C32.607 39.3896 32.6145 40.2886 32.9885 41.0604L35.5597 39.8143ZM37.0668 39.4286L39.635 38.1766C39.0409 36.9578 37.672 36.3245 36.3584 36.6606L37.0668 39.4286ZM39.2954 44V46.8571C40.2805 46.8571 41.1961 46.3497 41.7182 45.5143C42.2403 44.6789 42.2953 43.6335 41.8636 42.748L39.2954 44ZM33.0668 38.8929H30.2097C30.2097 40.4708 31.4888 41.75 33.0668 41.75V38.8929ZM35.9882 38.8786L35.7604 36.0305L35.751 36.0313L35.9882 38.8786ZM36.3239 38.8286L36.9571 41.6147C36.9634 41.6132 36.9697 41.6118 36.9759 41.6103L36.3239 38.8286ZM37.0597 38.4357L39.1054 40.4303C39.1136 40.4219 39.1217 40.4134 39.1298 40.4049L37.0597 38.4357ZM37.4597 37.7643L40.1803 38.6369H40.1803L37.4597 37.7643ZM37.4597 36.2571L34.739 37.1298C34.7407 37.1349 34.7423 37.1399 34.744 37.145L37.4597 36.2571ZM37.0597 35.5929L34.9895 37.562C34.9976 37.5706 35.0057 37.579 35.0139 37.5874L37.0597 35.5929ZM36.3239 35.1929L35.5722 37.9493C35.6053 37.9584 35.6386 37.9668 35.672 37.9746L36.3239 35.1929ZM35.9882 35.1357L35.751 37.983L35.7604 37.9838L35.9882 35.1357ZM33.0668 35.1214V32.2643C31.4888 32.2643 30.2097 33.5435 30.2097 35.1214H33.0668ZM34.4311 44V33.7143H28.7168V44H34.4311ZM31.5739 36.5714H35.7311V30.8571H31.5739V36.5714ZM35.7311 36.5714C35.7483 36.5714 35.8062 36.5725 35.9186 36.5798L36.2865 30.8774C36.1036 30.8656 35.9139 30.8571 35.7311 30.8571V36.5714ZM36.0104 36.5842C36.0326 36.5849 36.0354 36.5865 36.0217 36.5841L37.0262 30.9588C36.7458 30.9087 36.4676 30.8817 36.1946 30.8729L36.0104 36.5842ZM36.0771 36.5934C36.1709 36.6083 36.2159 36.6252 36.2258 36.6293C36.2336 36.6325 36.2151 36.6256 36.1848 36.6018L39.7202 32.1125C38.8877 31.4569 37.9314 31.1015 36.9708 30.9494L36.0771 36.5934ZM36.1984 36.6124C36.2008 36.6143 36.1996 36.6136 36.1961 36.6101C36.1926 36.6065 36.1884 36.6018 36.1842 36.5963C36.1801 36.5909 36.1774 36.5866 36.1762 36.5846C36.1751 36.5826 36.1764 36.5845 36.1794 36.5918L41.4542 34.394C41.0767 33.488 40.4871 32.7089 39.7066 32.1018L36.1984 36.6124ZM36.1794 36.5918C36.209 36.6626 36.2454 36.7884 36.2454 37.0071H41.9597C41.9597 36.1211 41.8056 35.2374 41.4542 34.394L36.1794 36.5918ZM36.2454 37.0071C36.2454 37.3141 36.1761 37.4292 36.1377 37.4838L40.8102 40.7733C41.6098 39.6375 41.9597 38.3383 41.9597 37.0071H36.2454ZM36.1439 37.475C36.1539 37.461 36.1696 37.4422 36.1906 37.423C36.2115 37.4038 36.2302 37.3911 36.2416 37.3843C36.2656 37.3703 36.2315 37.3974 36.0926 37.4219L37.0838 43.0495C38.5227 42.7961 39.8742 42.0922 40.804 40.7821L36.1439 37.475ZM36.2544 37.3981L35.6473 37.4696L36.3149 43.1447L36.9221 43.0733L36.2544 37.3981ZM35.9811 37.45H33.0668V43.1643H35.9811V37.45ZM30.2097 40.3071V44H35.9239V40.3071H30.2097ZM33.0668 41.1429H31.5739V46.8571H33.0668V41.1429ZM40.1593 42.7539L38.1308 38.5682L32.9885 41.0604L35.0171 45.2461L40.1593 42.7539ZM36.268 42.5822L37.7752 42.1965L36.3584 36.6606L34.8513 37.0464L36.268 42.5822ZM34.4986 40.6806L36.7271 45.252L41.8636 42.748L39.635 38.1766L34.4986 40.6806ZM39.2954 41.1429H37.5882V46.8571H39.2954V41.1429ZM33.0668 41.75H35.6739V36.0357H33.0668V41.75ZM35.6739 41.75C35.8624 41.75 36.0476 41.7407 36.2255 41.7258L35.751 36.0313C35.7003 36.0355 35.676 36.0357 35.6739 36.0357V41.75ZM36.2161 41.7266C36.4567 41.7074 36.7051 41.6719 36.9571 41.6147L35.6907 36.0425C35.7332 36.0328 35.7579 36.0307 35.7604 36.0305L36.2161 41.7266ZM36.9759 41.6103C37.7156 41.437 38.4766 41.0751 39.1054 40.4303L35.0139 36.4411C35.2712 36.1772 35.5418 36.0773 35.672 36.0468L36.9759 41.6103ZM39.1298 40.4049C39.6071 39.9032 39.9656 39.3062 40.1803 38.6369L34.739 36.8916C34.7918 36.7272 34.8837 36.5778 34.9895 36.4665L39.1298 40.4049ZM40.1803 38.6369C40.3471 38.1167 40.4382 37.5703 40.4382 37.0071H34.7239C34.7239 36.9799 34.7262 36.9548 34.7296 36.9333C34.7331 36.9119 34.7371 36.8977 34.739 36.8916L40.1803 38.6369ZM40.4382 37.0071C40.4382 36.4435 40.347 35.8942 40.1754 35.3693L34.744 37.145C34.7343 37.1153 34.7239 37.066 34.7239 37.0071H40.4382ZM40.1803 35.3845C39.9637 34.7093 39.5987 34.1042 39.1054 33.5983L35.0139 37.5874C34.8921 37.4624 34.7937 37.3002 34.739 37.1298L40.1803 35.3845ZM39.1298 33.6237C38.5017 32.9634 37.7328 32.5885 36.9759 32.4111L35.672 37.9746C35.5246 37.9401 35.2462 37.8319 34.9895 37.562L39.1298 33.6237ZM37.0757 32.4364C36.7835 32.3567 36.4949 32.31 36.2161 32.2877L35.7604 37.9838C35.7197 37.9805 35.6548 37.9719 35.5722 37.9493L37.0757 32.4364ZM36.2255 32.2884C36.0476 32.2736 35.8624 32.2643 35.6739 32.2643V37.9786C35.676 37.9786 35.7003 37.9788 35.751 37.983L36.2255 32.2884ZM35.6739 32.2643H33.0668V37.9786H35.6739V32.2643ZM30.2097 35.1214V38.8929H35.9239V35.1214H30.2097ZM42.1152 43.2786L39.8805 45.0588C39.8916 45.0727 39.9028 45.0865 39.9141 45.1002L42.1152 43.2786ZM41.6009 42.3643L38.9147 43.3376V43.3376L41.6009 42.3643ZM41.3581 41.4L44.189 41.014L41.3581 41.4ZM41.2938 36.2857V33.4286C39.7158 33.4286 38.4367 34.7078 38.4367 36.2857H41.2938ZM42.8081 36.2857H45.6652C45.6652 34.7078 44.386 33.4286 42.8081 33.4286V36.2857ZM42.8795 41.0071L40.0537 41.4289C40.0561 41.4449 40.0586 41.4609 40.0612 41.4769L42.8795 41.0071ZM43.1652 41.8857L40.6187 43.1813C40.6247 43.1931 40.6308 43.2048 40.6369 43.2164L43.1652 41.8857ZM43.7581 42.5429L42.1836 44.927C42.1904 44.9315 42.1973 44.936 42.2041 44.9404L43.7581 42.5429ZM45.5152 42.6643L46.483 45.3525C46.4988 45.3469 46.5145 45.341 46.5301 45.3351L45.5152 42.6643ZM46.1367 42.2357L44.0411 40.2935C44.0325 40.3028 44.024 40.3121 44.0155 40.3215L46.1367 42.2357ZM46.5581 41.4643L43.8435 40.5729C43.8395 40.5852 43.8356 40.5975 43.8317 40.6098L46.5581 41.4643ZM46.7152 40.3L47.7229 37.6265C46.8453 37.2957 45.8612 37.4167 45.0898 37.9503C44.3184 38.4839 43.8581 39.3621 43.8581 40.3H46.7152ZM47.6438 40.65H50.5009C50.5009 39.4608 49.7643 38.3959 48.6515 37.9765L47.6438 40.65ZM47.2509 42.5071L49.8156 43.7666L49.8199 43.7575L47.2509 42.5071ZM46.1224 43.7571L47.6132 46.1945L46.1224 43.7571ZM46.8938 44H44.0367C44.0367 45.578 45.3158 46.8571 46.8938 46.8571V44ZM46.8938 41.7714H49.7509C49.7509 40.1935 48.4718 38.9143 46.8938 38.9143V41.7714ZM46.7152 41.7714H43.8581C43.8581 43.3494 45.1373 44.6286 46.7152 44.6286V41.7714ZM46.7152 36.2857V33.4286C45.1373 33.4286 43.8581 34.7078 43.8581 36.2857H46.7152ZM48.2224 36.2857H51.0795C51.0795 34.7078 49.8003 33.4286 48.2224 33.4286V36.2857ZM48.2224 44V46.8571C49.8003 46.8571 51.0795 45.578 51.0795 44H48.2224ZM44.3438 41.35C44.2279 41.35 44.1653 41.3405 44.1454 41.3367C44.1268 41.3331 44.1592 41.3372 44.2241 41.3679L41.7778 46.5321C42.6269 46.9343 43.5212 47.0643 44.3438 47.0643V41.35ZM44.2241 41.3679C44.2066 41.3596 44.213 41.3607 44.2341 41.3767C44.256 41.3933 44.2857 41.4199 44.3164 41.4569L39.9141 45.1002C40.4388 45.7342 41.0827 46.2028 41.7778 46.5321L44.2241 41.3679ZM44.35 41.4984C44.314 41.4532 44.2976 41.4198 44.2872 41.391L38.9147 43.3376C39.1424 43.966 39.4688 44.542 39.8805 45.0588L44.35 41.4984ZM44.2872 41.391C44.2301 41.2335 44.202 41.1088 44.189 41.014L38.5271 41.786C38.5999 42.3197 38.7337 42.8379 38.9147 43.3376L44.2872 41.391ZM44.189 41.014C44.1583 40.7884 44.1509 40.6461 44.1509 40.5714H38.4367C38.4367 40.9729 38.4722 41.383 38.5271 41.786L44.189 41.014ZM44.1509 40.5714V36.2857H38.4367V40.5714H44.1509ZM41.2938 39.1429H42.8081V33.4286H41.2938V39.1429ZM39.9509 36.2857V40.0786H45.6652V36.2857H39.9509ZM39.9509 40.0786C39.9509 40.5298 39.9868 40.9806 40.0537 41.4289L45.7054 40.5854C45.677 40.3956 45.6652 40.2273 45.6652 40.0786H39.9509ZM40.0612 41.4769C40.1593 42.0653 40.3424 42.6382 40.6187 43.1813L45.7117 40.5901C45.7109 40.5886 45.7094 40.5854 45.7073 40.5789C45.7052 40.5723 45.7014 40.5591 45.6978 40.5374L40.0612 41.4769ZM40.6369 43.2164C41.0006 43.9074 41.5237 44.4913 42.1836 44.927L45.3326 40.1587C45.4027 40.205 45.475 40.2655 45.542 40.3397C45.6088 40.4137 45.6586 40.4885 45.6936 40.555L40.6369 43.2164ZM42.2041 44.9404C43.0557 45.4924 43.9782 45.65 44.7581 45.65V39.9357C44.7189 39.9357 44.9748 39.9267 45.3121 40.1453L42.2041 44.9404ZM44.7581 45.65C45.3368 45.65 45.9181 45.5559 46.483 45.3525L44.5475 39.976C44.6362 39.9441 44.7127 39.9357 44.7581 39.9357V45.65ZM46.5301 45.3351C47.2058 45.0784 47.7883 44.6702 48.2578 44.1499L44.0155 40.3215C44.1327 40.1917 44.3009 40.0693 44.5003 39.9935L46.5301 45.3351ZM48.2322 44.1779C48.7656 43.6023 49.0891 42.942 49.2845 42.3188L43.8317 40.6098C43.8271 40.6247 43.8696 40.4786 44.0411 40.2935L48.2322 44.1779ZM49.2726 42.3556C49.4991 41.6661 49.5724 40.9583 49.5724 40.3H43.8581C43.8581 40.4213 43.851 40.5033 43.8445 40.5518C43.8379 40.6006 43.8334 40.6038 43.8435 40.5729L49.2726 42.3556ZM45.7075 42.9735L46.6361 43.3235L48.6515 37.9765L47.7229 37.6265L45.7075 42.9735ZM44.7867 40.65C44.7867 40.9899 44.7246 41.1691 44.6819 41.2567L49.8199 43.7575C50.3011 42.769 50.5009 41.7101 50.5009 40.65H44.7867ZM44.6863 41.2477C44.6654 41.2904 44.652 41.3046 44.6517 41.305C44.6507 41.3061 44.6498 41.307 44.648 41.3084C44.6463 41.3099 44.6414 41.3138 44.6316 41.3198L47.6132 46.1945C48.5821 45.6019 49.3231 44.7693 49.8155 43.7665L44.6863 41.2477ZM44.6316 41.3198C44.6466 41.3106 44.6447 41.3158 44.6091 41.3248C44.5705 41.3345 44.4867 41.35 44.3438 41.35V47.0643C45.4547 47.0643 46.5882 46.8215 47.6132 46.1945L44.6316 41.3198ZM49.7509 44V41.7714H44.0367V44H49.7509ZM46.8938 38.9143H46.7152V44.6286H46.8938V38.9143ZM49.5724 41.7714V36.2857H43.8581V41.7714H49.5724ZM46.7152 39.1429H48.2224V33.4286H46.7152V39.1429ZM45.3652 36.2857V44H51.0795V36.2857H45.3652ZM48.2224 41.1429H46.8938V46.8571H48.2224V41.1429ZM52.5614 43.6786L50.8862 45.9931C50.891 45.9966 50.8959 46 50.9008 46.0035L52.5614 43.6786ZM51.4257 42.2143L54.0613 41.111V41.111L51.4257 42.2143ZM51.4186 38.0571L48.783 36.9539C48.7806 36.9597 48.7782 36.9655 48.7758 36.9713L51.4186 38.0571ZM52.5472 36.6071L54.2036 38.9351L54.2078 38.9321L52.5472 36.6071ZM56.2614 36.6071L54.6519 38.9678C54.6601 38.9734 54.6683 38.9789 54.6766 38.9844L56.2614 36.6071ZM57.4829 38.0571L54.8922 39.2621L54.8958 39.2698L57.4829 38.0571ZM57.4829 42.2214L54.8887 41.0241L54.8846 41.0331L57.4829 42.2214ZM56.2757 43.6786L54.6662 41.3179L54.6562 41.3248L56.2757 43.6786ZM50.79 44H47.9329C47.9329 45.578 49.2121 46.8571 50.79 46.8571V44ZM50.79 33.7143V30.8571C49.2121 30.8571 47.9329 32.1363 47.9329 33.7143H50.79ZM52.29 33.7143H55.1472C55.1472 32.1363 53.868 30.8571 52.29 30.8571V33.7143ZM52.29 38.45V41.3071C53.868 41.3071 55.1472 40.028 55.1472 38.45H52.29ZM52.1186 38.45V35.5929C50.5406 35.5929 49.2614 36.872 49.2614 38.45H52.1186ZM52.1186 44V46.8571C53.6965 46.8571 54.9757 45.578 54.9757 44H52.1186ZM55.39 42.5L53.643 40.2392C53.6374 40.2435 53.6319 40.2478 53.6263 40.2522L55.39 42.5ZM56.09 41.5214L53.4186 40.5081C53.4165 40.5138 53.4143 40.5194 53.4122 40.525L56.09 41.5214ZM56.09 38.7643L53.4122 39.7607C53.4156 39.7697 53.419 39.7788 53.4225 39.7879L56.09 38.7643ZM55.3829 37.7857L57.1134 35.5123L57.1134 35.5123L55.3829 37.7857ZM53.0043 37.7643L51.29 35.4786C51.2842 35.4829 51.2785 35.4873 51.2727 35.4916L53.0043 37.7643ZM52.3329 38.7214L49.645 37.7526C49.6417 37.7618 49.6384 37.7711 49.6352 37.7804L52.3329 38.7214ZM52.3329 41.55L55.0306 40.6089L52.3329 41.55ZM53.0114 42.5143L51.2915 44.7958H51.2915L53.0114 42.5143ZM54.4186 41.3571C54.2793 41.3571 54.2105 41.3403 54.1926 41.3351C54.1792 41.3313 54.1958 41.3348 54.2221 41.3536L50.9008 46.0035C51.9763 46.7718 53.2075 47.0714 54.4186 47.0714V41.3571ZM54.2367 41.3641C54.1955 41.3343 54.1323 41.2807 54.0613 41.111L48.7902 43.3175C49.2335 44.3765 49.9274 45.299 50.8862 45.9931L54.2367 41.3641ZM54.0613 41.111C53.9717 40.8971 53.8972 40.5877 53.8972 40.1357H48.1829C48.1829 41.2266 48.3655 42.3029 48.7902 43.3175L54.0613 41.111ZM53.8972 40.1357C53.8972 39.6773 53.9715 39.3617 54.0614 39.1429L48.7758 36.9713C48.3609 37.9812 48.1829 39.0513 48.1829 40.1357H53.8972ZM54.0541 39.1604C54.1259 38.989 54.1836 38.9493 54.2036 38.9351L50.8907 34.2792C49.9202 34.9697 49.2256 35.8967 48.783 36.9539L54.0541 39.1604ZM54.2078 38.9321C54.1851 38.9483 54.1697 38.9521 54.1804 38.9489C54.1953 38.9446 54.2589 38.9286 54.39 38.9286V33.2143C53.1795 33.2143 51.9559 33.5183 50.8865 34.2822L54.2078 38.9321ZM54.39 38.9286C54.5162 38.9286 54.5858 38.944 54.6144 38.9522C54.64 38.9595 54.648 38.9651 54.6519 38.9678L57.871 34.2465C56.8077 33.5216 55.604 33.2143 54.39 33.2143V38.9286ZM54.6766 38.9844C54.7394 39.0263 54.8125 39.0906 54.8922 39.2621L60.0735 36.8522C59.5818 35.7951 58.8407 34.8928 57.8463 34.2299L54.6766 38.9844ZM54.8958 39.2698C54.9784 39.4459 55.0543 39.7147 55.0543 40.1357H60.7686C60.7686 39.0044 60.5588 37.8875 60.0699 36.8445L54.8958 39.2698ZM55.0543 40.1357C55.0543 40.5482 54.9797 40.8269 54.8887 41.0241L60.077 43.4187C60.5575 42.3778 60.7686 41.2661 60.7686 40.1357H55.0543ZM54.8846 41.0331C54.8055 41.206 54.7313 41.2735 54.6662 41.3179L57.8853 46.0392C58.8677 45.3694 59.5984 44.4654 60.0812 43.4098L54.8846 41.0331ZM54.6562 41.3248C54.6554 41.3253 54.6514 41.329 54.6303 41.3351C54.606 41.3421 54.5408 41.3571 54.4186 41.3571V47.0714C55.6315 47.0714 56.8346 46.7622 57.8953 46.0323L54.6562 41.3248ZM53.6472 44V33.7143H47.9329V44H53.6472ZM50.79 36.5714H52.29V30.8571H50.79V36.5714ZM49.4329 33.7143V38.45H55.1472V33.7143H49.4329ZM52.29 35.5929H52.1186V41.3071H52.29V35.5929ZM49.2614 38.45V44H54.9757V38.45H49.2614ZM52.1186 41.1429H50.79V46.8571H52.1186V41.1429ZM54.2114 45.7214C55.1884 45.7214 56.2418 45.4633 57.1537 44.7478L53.6263 40.2522C53.7585 40.1485 53.8977 40.0811 54.0195 40.0435C54.1356 40.0076 54.2077 40.0071 54.2114 40.0071V45.7214ZM57.137 44.7608C57.9152 44.1595 58.4486 43.3757 58.7678 42.5178L53.4122 40.525C53.4163 40.5142 53.4342 40.4706 53.4769 40.4109C53.5207 40.3497 53.5776 40.2898 53.643 40.2392L57.137 44.7608ZM58.7614 42.5347C59.0583 41.752 59.1829 40.9402 59.1829 40.1357H53.4686C53.4686 40.3502 53.436 40.4622 53.4186 40.5081L58.7614 42.5347ZM59.1829 40.1357C59.1829 39.3331 59.0574 38.5223 58.7575 37.7407L53.4225 39.7879C53.4369 39.8254 53.4686 39.9288 53.4686 40.1357H59.1829ZM58.7678 37.7679C58.4444 36.8989 57.9011 36.1119 57.1134 35.5123L53.6523 40.0592C53.5875 40.0098 53.5292 39.9497 53.4832 39.8859C53.4381 39.8237 53.4181 39.7764 53.4122 39.7607L58.7678 37.7679ZM57.1134 35.5123C56.1894 34.809 55.1318 34.5643 54.1614 34.5643V40.2786C54.1771 40.2786 54.1227 40.2806 54.0216 40.2505C53.9149 40.2186 53.783 40.1586 53.6523 40.0592L57.1134 35.5123ZM54.1614 34.5643C53.2187 34.5643 52.1921 34.802 51.29 35.4786L54.7186 40.05C54.5845 40.1506 54.448 40.2127 54.3338 40.2466C54.225 40.2788 54.16 40.2786 54.1614 40.2786V34.5643ZM51.2727 35.4916C50.4708 36.1027 49.9498 36.9071 49.645 37.7526L55.0207 39.6903C55.0185 39.6966 55 39.7452 54.9505 39.8158C54.8993 39.8888 54.8274 39.9672 54.7358 40.0369L51.2727 35.4916ZM49.6352 37.7804C49.3657 38.5528 49.2614 39.3529 49.2614 40.1357H54.9757C54.9757 39.8519 55.0143 39.7091 55.0306 39.6625L49.6352 37.7804ZM49.2614 40.1357C49.2614 40.9186 49.3657 41.7186 49.6352 42.4911L55.0306 40.6089C55.0143 40.5623 54.9757 40.4195 54.9757 40.1357H49.2614ZM49.6352 42.4911C49.9412 43.3685 50.478 44.1825 51.2915 44.7958L54.7313 40.2328C54.8174 40.2977 54.8906 40.3749 54.9462 40.4539C55.0004 40.5309 55.0237 40.5893 55.0306 40.6089L49.6352 42.4911ZM51.2915 44.7958C52.2149 45.4919 53.2669 45.7214 54.2114 45.7214V40.0071C54.1904 40.0071 54.2425 40.0044 54.3436 40.0339C54.4506 40.0651 54.5898 40.1261 54.7313 40.2328L51.2915 44.7958ZM60.6285 47.4286L57.9466 46.4435C57.6247 47.3199 57.7513 48.2983 58.2857 49.0639C58.8201 49.8295 59.6948 50.2857 60.6285 50.2857V47.4286ZM62.1214 43.3643L64.9781 43.3133C64.9535 41.9381 63.9527 40.7757 62.5965 40.5469C61.2403 40.3182 59.9136 41.0882 59.4394 42.3792L62.1214 43.3643ZM62.1428 44.5643L59.4959 45.64C60.014 46.915 61.3675 47.6394 62.7158 47.3634C64.0641 47.0874 65.0241 45.8893 64.9995 44.5133L62.1428 44.5643ZM58.7785 36.2857V33.4286C57.8277 33.4286 56.9391 33.9016 56.4082 34.6904C55.8773 35.4792 55.7736 36.4805 56.1316 37.3614L58.7785 36.2857ZM60.3357 36.2857L62.9946 35.24C62.5647 34.1471 61.51 33.4286 60.3357 33.4286V36.2857ZM62.8499 42.6786V45.5357C63.7951 45.5357 64.6791 45.0683 65.2112 44.2872C65.7433 43.5061 65.8548 42.5124 65.5088 41.6328L62.8499 42.6786ZM62.3928 42.6786L59.7179 41.6744C59.3885 42.5519 59.5104 43.5351 60.0441 44.3056C60.5779 45.076 61.4555 45.5357 62.3928 45.5357V42.6786ZM64.7928 36.2857V33.4286C63.6022 33.4286 62.5364 34.1669 62.1179 35.2815L64.7928 36.2857ZM66.3071 36.2857L68.9761 37.3054C69.3116 36.4271 69.1936 35.44 68.6605 34.6655C68.1273 33.8911 67.2473 33.4286 66.3071 33.4286V36.2857ZM62.0499 47.4286V50.2857C63.2345 50.2857 64.2962 49.5548 64.7189 48.4483L62.0499 47.4286ZM63.3105 48.4137L64.8033 44.3494L59.4394 42.3792L57.9466 46.4435L63.3105 48.4137ZM59.2647 43.4153L59.2861 44.6153L64.9995 44.5133L64.9781 43.3133L59.2647 43.4153ZM64.7897 43.4886L61.4254 35.21L56.1316 37.3614L59.4959 45.64L64.7897 43.4886ZM58.7785 39.1429H60.3357V33.4286H58.7785V39.1429ZM57.6768 37.3314L60.1911 43.7243L65.5088 41.6328L62.9946 35.24L57.6768 37.3314ZM62.8499 39.8214H62.3928V45.5357H62.8499V39.8214ZM65.0677 43.6828L67.4677 37.2899L62.1179 35.2815L59.7179 41.6744L65.0677 43.6828ZM64.7928 39.1429H66.3071V33.4286H64.7928V39.1429ZM63.6381 35.266L59.381 46.4089L64.7189 48.4483L68.9761 37.3054L63.6381 35.266ZM62.0499 44.5714H60.6285V50.2857H62.0499V44.5714ZM25.2129 61H22.3557C22.3557 62.578 23.6349 63.8571 25.2129 63.8571V61ZM25.2129 50.7143V47.8571C23.6349 47.8571 22.3557 49.1363 22.3557 50.7143H25.2129ZM29.7415 50.7286L29.5575 53.5798C29.5881 53.5818 29.6187 53.5832 29.6493 53.5842L29.7415 50.7286ZM30.1629 50.7714L29.6606 53.5841C29.6791 53.5874 29.6976 53.5905 29.7161 53.5934L30.1629 50.7714ZM31.5915 51.3571L29.8238 53.6018C29.8283 53.6054 29.8328 53.6089 29.8373 53.6124L31.5915 51.3571ZM32.4557 52.4929L35.0931 51.394L35.0931 51.394L32.4557 52.4929ZM32.1129 56.1286L34.4429 57.7821L34.4492 57.7733L32.1129 56.1286ZM30.2272 57.2357L30.561 60.0733C30.6152 60.0669 30.6691 60.059 30.7228 60.0495L30.2272 57.2357ZM29.62 57.3071V60.1643C29.7316 60.1643 29.8431 60.1578 29.9539 60.1447L29.62 57.3071ZM26.7057 57.3071V54.45C25.1278 54.45 23.8486 55.7292 23.8486 57.3071H26.7057ZM26.7057 61V63.8571C28.2837 63.8571 29.5629 62.578 29.5629 61H26.7057ZM31.2272 61L28.6561 62.2461C29.1336 63.2314 30.1322 63.8571 31.2272 63.8571V61ZM29.1986 56.8143L28.4902 54.0464C27.6593 54.259 26.9679 54.8336 26.6069 55.6116C26.2459 56.3896 26.2535 57.2886 26.6275 58.0604L29.1986 56.8143ZM30.7057 56.4286L33.274 55.1766C32.6798 53.9578 31.3109 53.3245 29.9974 53.6606L30.7057 56.4286ZM32.9343 61V63.8571C33.9194 63.8571 34.8351 63.3497 35.3572 62.5143C35.8793 61.6789 35.9342 60.6335 35.5025 59.748L32.9343 61ZM26.7057 55.8929H23.8486C23.8486 57.4708 25.1278 58.75 26.7057 58.75V55.8929ZM29.6272 55.8786L29.3993 53.0305L29.3899 53.0313L29.6272 55.8786ZM29.9629 55.8286L30.5961 58.6147C30.6024 58.6132 30.6086 58.6118 30.6149 58.6103L29.9629 55.8286ZM30.6986 55.4357L32.7443 57.4303C32.7525 57.4219 32.7607 57.4134 32.7688 57.4049L30.6986 55.4357ZM31.0986 54.7643L33.8192 55.6369L31.0986 54.7643ZM31.0986 53.2571L28.378 54.1298C28.3796 54.1349 28.3813 54.1399 28.3829 54.145L31.0986 53.2571ZM30.6986 52.5929L28.6284 54.562C28.6365 54.5706 28.6447 54.579 28.6529 54.5874L30.6986 52.5929ZM29.9629 52.1929L29.2111 54.9493C29.2442 54.9584 29.2775 54.9668 29.3109 54.9746L29.9629 52.1929ZM29.6272 52.1357L29.3899 54.983L29.3993 54.9838L29.6272 52.1357ZM26.7057 52.1214V49.2643C25.1278 49.2643 23.8486 50.5435 23.8486 52.1214H26.7057ZM28.07 61V50.7143H22.3557V61H28.07ZM25.2129 53.5714H29.37V47.8571H25.2129V53.5714ZM29.37 53.5714C29.3872 53.5714 29.4451 53.5725 29.5575 53.5798L29.9254 47.8774C29.7425 47.8656 29.5528 47.8571 29.37 47.8571V53.5714ZM29.6493 53.5842C29.6716 53.5849 29.6743 53.5865 29.6606 53.5841L30.6651 47.9588C30.3848 47.9087 30.1066 47.8817 29.8336 47.8729L29.6493 53.5842ZM29.7161 53.5934C29.8098 53.6083 29.8548 53.6252 29.8647 53.6293C29.8725 53.6325 29.854 53.6256 29.8238 53.6018L33.3591 49.1125C32.5266 48.4569 31.5704 48.1015 30.6097 47.9494L29.7161 53.5934ZM29.8373 53.6124C29.8397 53.6143 29.8385 53.6136 29.835 53.6101C29.8315 53.6065 29.8273 53.6018 29.8232 53.5963C29.819 53.5909 29.8164 53.5866 29.8152 53.5846C29.8141 53.5826 29.8154 53.5845 29.8184 53.5918L35.0931 51.394C34.7156 50.488 34.126 49.7089 33.3456 49.1018L29.8373 53.6124ZM29.8184 53.5918C29.8479 53.6626 29.8843 53.7884 29.8843 54.0071H35.5986C35.5986 53.1211 35.4445 52.2374 35.0931 51.394L29.8184 53.5918ZM29.8843 54.0071C29.8843 54.3141 29.8151 54.4292 29.7766 54.4838L34.4492 57.7733C35.2488 56.6375 35.5986 55.3383 35.5986 54.0071H29.8843ZM29.7829 54.475C29.7928 54.461 29.8085 54.4422 29.8295 54.423C29.8505 54.4038 29.8691 54.3911 29.8806 54.3843C29.9046 54.3703 29.8704 54.3974 29.7316 54.4219L30.7228 60.0495C32.1616 59.7961 33.5132 59.0922 34.4429 57.7821L29.7829 54.475ZM29.8933 54.3981L29.2862 54.4696L29.9539 60.1447L30.561 60.0733L29.8933 54.3981ZM29.62 54.45H26.7057V60.1643H29.62V54.45ZM23.8486 57.3071V61H29.5629V57.3071H23.8486ZM26.7057 58.1429H25.2129V63.8571H26.7057V58.1429ZM33.7983 59.7539L31.7697 55.5682L26.6275 58.0604L28.6561 62.2461L33.7983 59.7539ZM29.907 59.5822L31.4141 59.1965L29.9974 53.6606L28.4902 54.0464L29.907 59.5822ZM28.1375 57.6806L30.3661 62.252L35.5025 59.748L33.274 55.1766L28.1375 57.6806ZM32.9343 58.1429H31.2272V63.8571H32.9343V58.1429ZM26.7057 58.75H29.3129V53.0357H26.7057V58.75ZM29.3129 58.75C29.5013 58.75 29.6866 58.7407 29.8644 58.7258L29.3899 53.0313C29.3392 53.0355 29.3149 53.0357 29.3129 53.0357V58.75ZM29.855 58.7266C30.0956 58.7074 30.3441 58.6719 30.5961 58.6147L29.3297 53.0425C29.3722 53.0328 29.3968 53.0307 29.3993 53.0305L29.855 58.7266ZM30.6149 58.6103C31.3545 58.437 32.1156 58.0751 32.7443 57.4303L28.6529 53.4411C28.9102 53.1772 29.1808 53.0773 29.3109 53.0468L30.6149 58.6103ZM32.7688 57.4049C33.246 56.9032 33.6046 56.3062 33.8192 55.6369L28.378 53.8916C28.4307 53.7272 28.5226 53.5778 28.6284 53.4665L32.7688 57.4049ZM33.8192 55.6369C33.9861 55.1167 34.0772 54.5703 34.0772 54.0071H28.3629C28.3629 53.9799 28.3651 53.9548 28.3686 53.9333C28.372 53.9119 28.376 53.8977 28.378 53.8916L33.8192 55.6369ZM34.0772 54.0071C34.0772 53.4435 33.9859 52.8942 33.8143 52.3693L28.3829 54.145C28.3732 54.1153 28.3629 54.066 28.3629 54.0071H34.0772ZM33.8192 52.3845C33.6027 51.7093 33.2376 51.1042 32.7443 50.5983L28.6529 54.5874C28.531 54.4624 28.4326 54.3002 28.378 54.1298L33.8192 52.3845ZM32.7688 50.6237C32.1407 49.9634 31.3718 49.5885 30.6149 49.4111L29.3109 54.9746C29.1635 54.9401 28.8851 54.8319 28.6284 54.562L32.7688 50.6237ZM30.7147 49.4364C30.4225 49.3567 30.1338 49.31 29.855 49.2877L29.3993 54.9838C29.3586 54.9805 29.2938 54.9719 29.2111 54.9493L30.7147 49.4364ZM29.8644 49.2884C29.6866 49.2736 29.5013 49.2643 29.3129 49.2643V54.9786C29.3149 54.9786 29.3392 54.9788 29.3899 54.983L29.8644 49.2884ZM29.3129 49.2643H26.7057V54.9786H29.3129V49.2643ZM23.8486 52.1214V55.8929H29.5629V52.1214H23.8486ZM36.4185 60.6929L34.9245 63.1283L36.4185 60.6929ZM35.1042 59.2571L32.5447 60.527C32.5487 60.5349 32.5527 60.5429 32.5567 60.5508L35.1042 59.2571ZM35.1185 55.0143L37.6579 56.3237L37.662 56.3156L35.1185 55.0143ZM36.4399 53.5857L37.9038 56.0393C37.9089 56.0363 37.9139 56.0333 37.9189 56.0302L36.4399 53.5857ZM40.4328 53.5929L41.9268 51.1574L41.9267 51.1574L40.4328 53.5929ZM41.747 55.0286L39.1995 56.3222L39.1995 56.3222L41.747 55.0286ZM41.7399 59.2643L39.1963 57.9629L39.1924 57.9706L41.7399 59.2643ZM40.4256 60.7L41.9047 63.1445C41.9096 63.1415 41.9146 63.1385 41.9196 63.1354L40.4256 60.7ZM40.0756 59.0643L37.7716 57.3747L37.7688 57.3785L40.0756 59.0643ZM40.0685 55.2071L37.7881 56.9286C37.7944 56.9369 37.8008 56.9452 37.8072 56.9535L40.0685 55.2071ZM37.1899 54.8214L38.8144 57.1718C38.8222 57.1664 38.8299 57.161 38.8376 57.1556L37.1899 54.8214ZM36.4685 55.7571L39.1235 56.8127L39.1278 56.8019L36.4685 55.7571ZM36.7899 59.0786L39.0595 57.343L36.7899 59.0786ZM38.4256 58.3571C38.0955 58.3571 37.9615 58.2875 37.9125 58.2574L34.9245 63.1283C36.0088 63.7934 37.2128 64.0714 38.4256 64.0714V58.3571ZM37.9125 58.2574C37.8089 58.1939 37.7293 58.1164 37.6517 57.9635L32.5567 60.5508C33.0981 61.6169 33.8947 62.4966 34.9245 63.1283L37.9125 58.2574ZM37.6636 57.9873C37.5848 57.8285 37.5042 57.5684 37.5042 57.1357H31.7899C31.7899 58.303 32.014 59.4573 32.5447 60.527L37.6636 57.9873ZM37.5042 57.1357C37.5042 56.7076 37.5858 56.4635 37.6579 56.3237L32.579 53.7049C32.0226 54.7841 31.7899 55.9543 31.7899 57.1357H37.5042ZM37.662 56.3156C37.7436 56.1563 37.8197 56.0895 37.9038 56.0393L34.976 51.1321C33.9267 51.7581 33.122 52.6437 32.5749 53.7129L37.662 56.3156ZM37.9189 56.0302C37.9785 55.9942 38.1137 55.9286 38.4256 55.9286V50.2143C37.2232 50.2143 36.0346 50.4915 34.9609 51.1412L37.9189 56.0302ZM38.4256 55.9286C38.7557 55.9286 38.8897 55.9982 38.9388 56.0283L41.9267 51.1574C40.8425 50.4923 39.6384 50.2143 38.4256 50.2143V55.9286ZM38.9388 56.0283C39.0423 56.0918 39.1219 56.1693 39.1995 56.3222L44.2945 53.7349C43.7532 52.6688 42.9565 51.7891 41.9268 51.1574L38.9388 56.0283ZM39.1995 56.3222C39.2747 56.4702 39.3542 56.7166 39.3542 57.1357H45.0685C45.0685 55.9643 44.8384 54.806 44.2945 53.7349L39.1995 56.3222ZM39.3542 57.1357C39.3542 57.5632 39.2728 57.8135 39.1963 57.9629L44.2835 60.5656C44.8356 59.4865 45.0685 58.3177 45.0685 57.1357H39.3542ZM39.1924 57.9706C39.1147 58.1236 39.0352 58.201 38.9316 58.2646L41.9196 63.1354C42.9494 62.5037 43.746 61.624 44.2874 60.5579L39.1924 57.9706ZM38.9466 58.2555C38.8924 58.2882 38.7543 58.3571 38.4256 58.3571V64.0714C39.6302 64.0714 40.8255 63.7975 41.9047 63.1445L38.9466 58.2555ZM38.4256 62.6643C39.8663 62.6643 41.37 62.1355 42.3824 60.75L37.7688 57.3785C37.8746 57.2337 38.0346 57.0991 38.2187 57.0161C38.3854 56.9411 38.4786 56.95 38.4256 56.95V62.6643ZM42.3796 60.7539C43.1917 59.6466 43.4828 58.3655 43.4828 57.1357H37.7685C37.7685 57.3087 37.7481 57.397 37.7405 57.4236C37.7345 57.4446 37.7394 57.4186 37.7716 57.3747L42.3796 60.7539ZM43.4828 57.1357C43.4828 55.9037 43.1963 54.5829 42.3298 53.4608L37.8072 56.9535C37.7519 56.882 37.7382 56.832 37.7414 56.843C37.7466 56.8607 37.7685 56.9492 37.7685 57.1357H43.4828ZM42.3488 53.4857C41.3328 52.1399 39.8518 51.6214 38.4256 51.6214V57.3357C38.4753 57.3357 38.3853 57.3439 38.2245 57.2725C38.0474 57.194 37.8923 57.0665 37.7881 56.9286L42.3488 53.4857ZM38.4256 51.6214C37.4906 51.6214 36.4609 51.8387 35.5422 52.4872L38.8376 57.1556C38.7108 57.2451 38.5912 57.2937 38.5056 57.3174C38.4248 57.3398 38.3912 57.3357 38.4256 57.3357V51.6214ZM35.5654 52.4711C34.7318 53.0472 34.154 53.8347 33.8092 54.7124L39.1278 56.8019C39.1167 56.83 39.0879 56.8918 39.0294 56.9677C38.9696 57.0454 38.8954 57.1158 38.8144 57.1718L35.5654 52.4711ZM33.8135 54.7015C33.4958 55.5006 33.3756 56.3315 33.3756 57.1357H39.0899C39.0899 56.8923 39.1269 56.8042 39.1235 56.8127L33.8135 54.7015ZM33.3756 57.1357C33.3756 58.3698 33.6607 59.69 34.5203 60.8141L39.0595 57.343C39.1116 57.4111 39.123 57.4567 39.1185 57.441C39.1121 57.4187 39.0899 57.3258 39.0899 57.1357H33.3756ZM34.5203 60.8141C35.5312 62.1361 36.9932 62.6643 38.4256 62.6643V56.95C38.3862 56.95 38.4797 56.9437 38.6399 57.0151C38.8146 57.0928 38.9624 57.2161 39.0595 57.343L34.5203 60.8141ZM45.1162 64.4286L42.4343 63.4435C42.1124 64.3199 42.239 65.2983 42.7734 66.0639C43.3078 66.8295 44.1826 67.2857 45.1162 67.2857V64.4286ZM46.6091 60.3643L49.4658 60.3133C49.4412 58.9381 48.4404 57.7757 47.0842 57.5469C45.7281 57.3182 44.4014 58.0882 43.9272 59.3792L46.6091 60.3643ZM46.6305 61.5643L43.9836 62.64C44.5017 63.915 45.8552 64.6394 47.2035 64.3634C48.5519 64.0874 49.5118 62.8893 49.4872 61.5133L46.6305 61.5643ZM43.2662 53.2857V50.4286C42.3154 50.4286 41.4268 50.9016 40.8959 51.6904C40.365 52.4792 40.2613 53.4805 40.6193 54.3614L43.2662 53.2857ZM44.8234 53.2857L47.4823 52.24C47.0525 51.1471 45.9977 50.4286 44.8234 50.4286V53.2857ZM47.3377 59.6786V62.5357C48.2828 62.5357 49.1668 62.0683 49.6989 61.2872C50.2311 60.5061 50.3425 59.5124 49.9966 58.6328L47.3377 59.6786ZM46.8805 59.6786L44.2057 58.6744C43.8762 59.5519 43.9981 60.5351 44.5319 61.3056C45.0656 62.076 45.9433 62.5357 46.8805 62.5357V59.6786ZM49.2805 53.2857V50.4286C48.0899 50.4286 47.0241 51.1669 46.6057 52.2815L49.2805 53.2857ZM50.7948 53.2857L53.4638 54.3054C53.7993 53.4271 53.6813 52.44 53.1482 51.6655C52.615 50.8911 51.735 50.4286 50.7948 50.4286V53.2857ZM46.5377 64.4286V67.2857C47.7222 67.2857 48.7839 66.5548 49.2067 65.4483L46.5377 64.4286ZM47.7982 65.4137L49.291 61.3494L43.9272 59.3792L42.4343 63.4435L47.7982 65.4137ZM43.7524 60.4153L43.7738 61.6153L49.4872 61.5133L49.4658 60.3133L43.7524 60.4153ZM49.2774 60.4886L45.9132 52.21L40.6193 54.3614L43.9836 62.64L49.2774 60.4886ZM43.2662 56.1429H44.8234V50.4286H43.2662V56.1429ZM42.1645 54.3314L44.6788 60.7243L49.9966 58.6328L47.4823 52.24L42.1645 54.3314ZM47.3377 56.8214H46.8805V62.5357H47.3377V56.8214ZM49.5554 60.6828L51.9554 54.2899L46.6057 52.2815L44.2057 58.6744L49.5554 60.6828ZM49.2805 56.1429H50.7948V50.4286H49.2805V56.1429ZM48.1258 52.266L43.8687 63.4089L49.2067 65.4483L53.4638 54.3054L48.1258 52.266ZM46.5377 61.5714H45.1162V67.2857H46.5377V61.5714ZM52.9491 60.9L51.5615 63.3976C51.5694 63.402 51.5773 63.4063 51.5852 63.4106L52.9491 60.9ZM52.0705 60.0571L49.5713 61.4418C49.5787 61.4553 49.5863 61.4687 49.594 61.482L52.0705 60.0571ZM51.9848 57.8714L49.3967 56.6609V56.6609L51.9848 57.8714ZM52.5991 57.1214L54.3197 59.4023C54.3282 59.396 54.3366 59.3896 54.3449 59.3831L52.5991 57.1214ZM53.5991 56.6143L52.799 53.8714C52.771 53.8796 52.743 53.8882 52.7152 53.8973L53.5991 56.6143ZM54.7633 56.35L55.2581 59.164L55.2581 59.164L54.7633 56.35ZM56.1276 56.1357L55.7353 53.3056L55.7315 53.3062L56.1276 56.1357ZM57.5562 55.9357L58.9382 58.4364C60.1445 57.7697 60.7029 56.3369 60.2659 55.0297C59.8288 53.7225 58.5209 52.9137 57.1561 53.1067L57.5562 55.9357ZM57.0133 56.2357L54.1565 56.1907C54.1405 57.2098 54.6686 58.1603 55.5423 58.6851C56.4161 59.2098 57.5032 59.2294 58.3953 58.7364L57.0133 56.2357ZM56.6276 54.8929L54.4903 56.7889C54.501 56.801 54.5119 56.8131 54.5229 56.8251L56.6276 54.8929ZM54.1562 54.7357L55.5317 57.2399C55.5407 57.235 55.5497 57.23 55.5586 57.225L54.1562 54.7357ZM53.4491 55.6643L52.6088 58.3951C53.3331 58.6179 54.1162 58.5439 54.7859 58.1894C55.4556 57.8348 55.957 57.2288 56.1798 56.5045L53.4491 55.6643ZM52.0562 55.2357L49.3105 54.4456C48.8797 55.9424 49.7272 57.5084 51.2159 57.9665L52.0562 55.2357ZM53.1419 53.6571L51.4638 51.3447L51.4541 51.3518L53.1419 53.6571ZM57.0848 53.4286L55.8752 56.017C55.8849 56.0216 55.8946 56.026 55.9043 56.0304L57.0848 53.4286ZM58.2133 54.5429L55.6249 55.7524C55.6325 55.7688 55.6403 55.785 55.6482 55.8012L58.2133 54.5429ZM58.4419 55.3429L55.5994 55.6319V55.6319L58.4419 55.3429ZM58.4848 61V63.8571C60.0627 63.8571 61.3419 62.578 61.3419 61H58.4848ZM57.1633 61H54.3062C54.3062 62.578 55.5854 63.8571 57.1633 63.8571V61ZM57.1633 59.2357L59.0615 57.1003C58.2206 56.3528 57.0193 56.1684 55.9929 56.6293C54.9665 57.0902 54.3062 58.1106 54.3062 59.2357H57.1633ZM57.4205 59.4643L59.9342 60.8225C60.5643 59.6562 60.3095 58.2096 59.3187 57.3288L57.4205 59.4643ZM56.1991 60.7857L57.6372 63.2545L57.6446 63.2502L56.1991 60.7857ZM55.7419 59.7714L56.9874 62.3428C56.9982 62.3376 57.0089 62.3323 57.0197 62.3269L55.7419 59.7714ZM56.4776 59.1929L54.2421 57.4136L56.4776 59.1929ZM56.8419 58.4643L54.1487 57.5104C54.1112 57.6161 54.0801 57.724 54.0553 57.8334L56.8419 58.4643ZM56.9776 57.6929L54.124 57.5502C54.1233 57.566 54.1226 57.5818 54.1221 57.5977L56.9776 57.6929ZM56.9991 57.0071L57.985 54.3255C57.1085 54.0033 56.1299 54.1297 55.3641 54.6641C54.5982 55.1984 54.1419 56.0733 54.1419 57.0071H56.9991ZM57.4848 57.1857L57.9128 60.0106C59.2023 59.8152 60.1959 58.7713 60.3274 57.4737C60.4588 56.1761 59.6948 54.9541 58.4707 54.5041L57.4848 57.1857ZM56.1991 57.3786L56.6178 60.2049L56.1991 57.3786ZM55.1491 57.55L55.6258 60.3671C55.6373 60.3651 55.6487 60.3631 55.6602 60.3611L55.1491 57.55ZM54.3205 57.7429L53.4652 55.0167C53.4365 55.0257 53.4079 55.0352 53.3794 55.0451L54.3205 57.7429ZM53.7705 58L52.2691 55.5691C52.2582 55.5759 52.2473 55.5827 52.2366 55.5895L53.7705 58ZM53.3919 58.3643L51.0146 56.7794C51.0022 56.798 50.9901 56.8167 50.9781 56.8356L53.3919 58.3643ZM53.4062 59.4429L50.9383 60.8825C50.9442 60.8926 50.9502 60.9028 50.9562 60.9128L53.4062 59.4429ZM53.8633 59.8429L52.6095 62.4102L52.6095 62.4102L53.8633 59.8429ZM54.3848 58.3571C54.2714 58.3571 54.2169 58.3466 54.2082 58.3447C54.2018 58.3432 54.2436 58.3517 54.3129 58.3894L51.5852 63.4106C52.497 63.9059 53.4764 64.0714 54.3848 64.0714V58.3571ZM54.3366 58.4024C54.3399 58.4042 54.3726 58.4231 54.4181 58.4668C54.4648 58.5116 54.5102 58.5684 54.547 58.6323L49.594 61.482C50.0783 62.3238 50.769 62.9573 51.5615 63.3976L54.3366 58.4024ZM54.5697 58.6725C54.5898 58.7088 54.6083 58.7538 54.6206 58.8026C54.6328 58.8507 54.6348 58.8857 54.6348 58.9H48.9205C48.9205 59.7833 49.1317 60.6483 49.5713 61.4418L54.5697 58.6725ZM54.6348 58.9C54.6348 58.8462 54.6436 58.9307 54.5728 59.082L49.3967 56.6609C49.0498 57.4027 48.9205 58.1728 48.9205 58.9H54.6348ZM54.5728 59.082C54.5422 59.1473 54.5015 59.2128 54.4523 59.2729C54.4034 59.3326 54.3559 59.375 54.3197 59.4023L50.8784 54.8405C50.2515 55.3135 49.7409 55.925 49.3967 56.6609L54.5728 59.082ZM54.3449 59.3831C54.3088 59.411 54.335 59.3794 54.4829 59.3313L52.7152 53.8973C52.0726 54.1063 51.4321 54.4128 50.8532 54.8597L54.3449 59.3831ZM54.3991 59.3571C54.6217 59.2922 54.9052 59.226 55.2581 59.164L54.2686 53.536C53.7548 53.6263 53.2621 53.7364 52.799 53.8714L54.3991 59.3571ZM55.2581 59.164C55.6558 59.0941 56.0775 59.0277 56.5238 58.9653L55.7315 53.3062C55.2253 53.377 54.7375 53.4536 54.2686 53.536L55.2581 59.164ZM56.5199 58.9658C57.0034 58.8988 57.4822 58.8317 57.9563 58.7647L57.1561 53.1067C56.6873 53.173 56.2137 53.2393 55.7353 53.3056L56.5199 58.9658ZM56.1742 53.435L55.6314 53.735L58.3953 58.7364L58.9382 58.4364L56.1742 53.435ZM59.8701 56.2807C59.8852 55.3241 59.7011 54.0159 58.7323 52.9607L54.5229 56.8251C54.3071 56.59 54.2139 56.3604 54.1779 56.2352C54.1452 56.1212 54.1581 56.0909 54.1565 56.1907L59.8701 56.2807ZM58.765 52.9968C57.6997 51.796 56.2304 51.5929 55.2705 51.5929V57.3071C55.3893 57.3071 55.3461 57.3228 55.2056 57.2769C55.0486 57.2257 54.7592 57.0921 54.4903 56.7889L58.765 52.9968ZM55.2705 51.5929C54.3964 51.5929 53.5387 51.8042 52.7538 52.2464L55.5586 57.225C55.5125 57.2509 55.4573 57.2738 55.398 57.289C55.3393 57.3041 55.2942 57.3071 55.2705 57.3071V51.5929ZM52.7806 52.2315C51.6789 52.8367 51.0289 53.8144 50.7183 54.824L56.1798 56.5045C56.1636 56.5572 56.1155 56.685 55.9989 56.8382C55.877 56.9982 55.7157 57.1389 55.5317 57.2399L52.7806 52.2315ZM54.2893 52.9335L52.8964 52.5049L51.2159 57.9665L52.6088 58.3951L54.2893 52.9335ZM54.8019 56.0258C54.8108 55.9951 54.8183 55.9772 54.822 55.9693C54.8256 55.9616 54.8267 55.9606 54.8246 55.9637C54.8224 55.967 54.8198 55.97 54.8181 55.9717C54.8166 55.9733 54.8194 55.97 54.8297 55.9625L51.4541 51.3518C50.3874 52.1328 49.6681 53.2029 49.3105 54.4456L54.8019 56.0258ZM54.82 55.9696C54.7287 56.0358 54.795 55.9286 55.2848 55.9286V50.2143C53.9935 50.2143 52.6313 50.4976 51.4639 51.3447L54.82 55.9696ZM55.2848 55.9286C55.6504 55.9286 55.8205 55.9915 55.8752 56.017L58.2943 50.8401C57.33 50.3895 56.3001 50.2143 55.2848 50.2143V55.9286ZM55.9043 56.0304C55.8755 56.0174 55.813 55.9822 55.7452 55.9153C55.6773 55.8482 55.6399 55.7847 55.6249 55.7524L60.8018 53.3333C60.274 52.2039 59.397 51.3402 58.2652 50.8267L55.9043 56.0304ZM55.6482 55.8012C55.6365 55.7774 55.6252 55.7488 55.6161 55.7171C55.6071 55.6853 55.6019 55.6561 55.5994 55.6319L61.2844 55.0538C61.2217 54.4374 61.0521 53.8424 60.7785 53.2845L55.6482 55.8012ZM55.5994 55.6319C55.6169 55.8041 55.6276 56.0091 55.6276 56.25H61.3419C61.3419 55.8433 61.324 55.4435 61.2844 55.0538L55.5994 55.6319ZM55.6276 56.25V61H61.3419V56.25H55.6276ZM58.4848 58.1429H57.1633V63.8571H58.4848V58.1429ZM60.0205 61V59.2357H54.3062V61H60.0205ZM55.2652 61.3712L55.5223 61.5997L59.3187 57.3288L59.0615 57.1003L55.2652 61.3712ZM54.9068 58.1061C54.8477 58.2155 54.8011 58.2729 54.7777 58.2981C54.7561 58.3215 54.7483 58.3243 54.7535 58.3212L57.6446 63.2502C58.6616 62.6537 59.4094 61.7937 59.9342 60.8225L54.9068 58.1061ZM54.7609 58.3169C54.809 58.2889 54.7312 58.3571 54.3848 58.3571V64.0714C55.4764 64.0714 56.6082 63.8539 57.6372 63.2545L54.7609 58.3169ZM54.6491 62.85C55.3985 62.85 56.2093 62.7197 56.9874 62.3428L54.4964 57.2001C54.665 57.1184 54.7472 57.1357 54.6491 57.1357V62.85ZM57.0197 62.3269C57.6434 62.0151 58.2339 61.5742 58.7131 60.9721L54.2421 57.4136C54.3499 57.2782 54.45 57.223 54.4642 57.2159L57.0197 62.3269ZM58.7131 60.9721C59.1258 60.4536 59.4629 59.8265 59.6285 59.0952L54.0553 57.8334C54.1066 57.6068 54.2009 57.4654 54.2421 57.4136L58.7131 60.9721ZM59.5351 59.4181C59.7296 58.8691 59.8156 58.3156 59.8332 57.788L54.1221 57.5977C54.1206 57.6415 54.1161 57.6023 54.1487 57.5104L59.5351 59.4181ZM59.8312 57.8355C59.8465 57.5291 59.8562 57.247 59.8562 57.0071H54.1419C54.1419 57.1101 54.1373 57.2852 54.124 57.5502L59.8312 57.8355ZM56.0131 59.6888L56.4989 59.8674L58.4707 54.5041L57.985 54.3255L56.0131 59.6888ZM57.0568 54.3608C56.5878 54.4319 56.1624 54.4957 55.7803 54.5523L56.6178 60.2049C57.0072 60.1472 57.4389 60.0824 57.9128 60.0106L57.0568 54.3608ZM55.7803 54.5523C55.3702 54.613 54.9887 54.6752 54.6379 54.7389L55.6602 60.3611C55.9379 60.3106 56.2565 60.2584 56.6178 60.2049L55.7803 54.5523ZM54.6723 54.7329C54.263 54.8022 53.8567 54.8939 53.4652 55.0167L55.1757 60.469C55.27 60.4394 55.4161 60.4026 55.6258 60.3671L54.6723 54.7329ZM53.3794 55.0451C53.0054 55.1756 52.63 55.3462 52.2691 55.5691L55.2719 60.4309C55.2531 60.4424 55.2416 60.448 55.2395 60.4489C55.2374 60.4499 55.2442 60.4466 55.2615 60.4406L53.3794 55.0451ZM52.2366 55.5895C51.7727 55.8847 51.3486 56.2784 51.0146 56.7794L55.7692 59.9491C55.6257 60.1644 55.454 60.3153 55.3044 60.4105L52.2366 55.5895ZM50.9781 56.8356C50.5422 57.524 50.3991 58.2546 50.3991 58.8857H56.1133C56.1133 59.1073 56.0607 59.4903 55.8057 59.893L50.9781 56.8356ZM50.3991 58.8857C50.3991 59.5875 50.5813 60.2706 50.9383 60.8825L55.8741 58.0032C56.0311 58.2723 56.1133 58.584 56.1133 58.8857H50.3991ZM50.9562 60.9128C51.3866 61.6302 51.9956 62.1104 52.6095 62.4102L55.1172 57.2755C55.3216 57.3754 55.6258 57.5889 55.8562 57.9729L50.9562 60.9128ZM52.6095 62.4102C53.3287 62.7614 54.0585 62.85 54.6491 62.85V57.1357C54.6355 57.1357 54.6731 57.1344 54.7491 57.1489C54.826 57.1636 54.9571 57.1974 55.1172 57.2755L52.6095 62.4102ZM61.0539 61H58.1967C58.1967 62.578 59.4759 63.8571 61.0539 63.8571V61ZM61.0539 50.5V47.6429C59.4759 47.6429 58.1967 48.922 58.1967 50.5H61.0539ZM62.5467 50.5H65.4039C65.4039 48.922 64.1247 47.6429 62.5467 47.6429V50.5ZM62.5467 61V63.8571C64.1247 63.8571 65.4039 62.578 65.4039 61H62.5467ZM63.911 61V50.5H58.1967V61H63.911ZM61.0539 53.3571H62.5467V47.6429H61.0539V53.3571ZM59.6896 50.5V61H65.4039V50.5H59.6896ZM62.5467 58.1429H61.0539V63.8571H62.5467V58.1429ZM66.6631 60.7143L65.2172 63.1785C65.2252 63.1832 65.2332 63.1879 65.2412 63.1925L66.6631 60.7143ZM65.3131 59.3071L62.7861 60.6403C62.7903 60.6483 62.7945 60.6562 62.7988 60.6641L65.3131 59.3071ZM65.306 55.0143L62.7663 53.7054C62.7636 53.7105 62.761 53.7157 62.7584 53.7209L65.306 55.0143ZM66.6345 53.5786L65.1706 51.125L66.6345 53.5786ZM70.6203 53.6214L69.0401 56.0019C69.0449 56.005 69.0497 56.0082 69.0545 56.0113L70.6203 53.6214ZM71.856 55.1714L69.2071 56.2423C69.2093 56.2476 69.2114 56.253 69.2136 56.2583L71.856 55.1714ZM72.1845 57.5643V60.4214C73.694 60.4214 74.943 59.2473 75.0362 57.7407L72.1845 57.5643ZM70.6917 57.5643H67.8345C67.8345 59.1422 69.1137 60.4214 70.6917 60.4214V57.5643ZM70.6917 57.0214H73.5488C73.5488 57.0113 73.5488 57.0012 73.5487 56.991L70.6917 57.0214ZM70.1774 55.0357L67.91 56.7741C67.914 56.7794 67.918 56.7846 67.9221 56.7898L70.1774 55.0357ZM66.9845 55.1L69.2178 56.8821L66.9845 55.1ZM66.9845 59.1143L64.7601 60.9074C64.7631 60.9111 64.7662 60.9149 64.7692 60.9186L66.9845 59.1143ZM69.8203 59.4929L71.3253 61.9215L71.3345 61.9157L69.8203 59.4929ZM70.6203 58.5786L71.4838 55.8551C70.1286 55.4254 68.6636 56.0574 68.0464 57.3382L70.6203 58.5786ZM72.0845 59.0429L74.705 60.1814C75.0273 59.4396 75.0201 58.596 74.6852 57.8598C74.3503 57.1236 73.7191 56.5638 72.9481 56.3193L72.0845 59.0429ZM70.7203 60.65L72.2209 63.0814C72.2254 63.0785 72.23 63.0757 72.2345 63.0729L70.7203 60.65ZM65.9345 57.5643H63.0774C63.0774 59.1422 64.3566 60.4214 65.9345 60.4214V57.5643ZM65.9345 56.4V53.5429C64.3566 53.5429 63.0774 54.822 63.0774 56.4H65.9345ZM71.4417 56.4H74.2988C74.2988 54.822 73.0196 53.5429 71.4417 53.5429V56.4ZM71.4417 57.5643V60.4214C73.0196 60.4214 74.2988 59.1422 74.2988 57.5643H71.4417ZM68.6845 58.3571C68.3436 58.3571 68.1738 58.2871 68.085 58.2361L65.2412 63.1925C66.3143 63.8082 67.4922 64.0714 68.6845 64.0714V58.3571ZM68.1091 58.25C67.9932 58.1821 67.9085 58.1003 67.8275 57.9502L62.7988 60.6641C63.3654 61.714 64.1806 62.5703 65.2172 63.1785L68.1091 58.25ZM67.8402 57.974C67.7708 57.8425 67.6917 57.6138 67.6917 57.2071H61.9774C61.9774 58.391 62.2174 59.5623 62.7861 60.6403L67.8402 57.974ZM67.6917 57.2071C67.6917 56.7188 67.7818 56.4491 67.8536 56.3077L62.7584 53.7209C62.2016 54.8176 61.9774 56.0098 61.9774 57.2071H67.6917ZM67.8457 56.3232C67.9343 56.1512 68.0162 56.0813 68.0985 56.0322L65.1706 51.125C64.1196 51.7521 63.3157 52.6393 62.7663 53.7054L67.8457 56.3232ZM68.0985 56.0322C68.1632 55.9935 68.3025 55.9286 68.6131 55.9286V50.2143C67.419 50.2143 66.2392 50.4874 65.1706 51.125L68.0985 56.0322ZM68.6131 55.9286C68.9427 55.9286 69.0372 55.9999 69.0401 56.0019L72.2004 51.241C71.0985 50.5096 69.855 50.2143 68.6131 50.2143V55.9286ZM69.0545 56.0113C69.0728 56.0233 69.1318 56.056 69.2071 56.2423L74.5049 54.1006C74.0373 52.944 73.2725 51.9433 72.186 51.2315L69.0545 56.0113ZM69.2136 56.2583C69.2866 56.4356 69.3704 56.7807 69.3329 57.3879L75.0362 57.7407C75.113 56.5002 74.9778 55.2501 74.4983 54.0845L69.2136 56.2583ZM72.1845 54.7071H70.6917V60.4214H72.1845V54.7071ZM73.5488 57.5643V57.0214H67.8345V57.5643H73.5488ZM73.5487 56.991C73.5364 55.8423 73.3281 54.4328 72.4327 53.2816L67.9221 56.7898C67.7962 56.628 67.7776 56.5216 67.7901 56.5699C67.8031 56.6201 67.8317 56.7688 67.8347 57.0518L73.5487 56.991ZM72.4448 53.2973C71.441 51.988 69.9877 51.5357 68.6703 51.5357V57.25C68.7121 57.25 68.61 57.257 68.4332 57.1816C68.2374 57.0981 68.0484 56.9547 67.91 56.7741L72.4448 53.2973ZM68.6703 51.5357C67.2825 51.5357 65.798 52.0062 64.7513 53.3179L69.2178 56.8821C69.1041 57.0246 68.9491 57.139 68.7934 57.2044C68.6546 57.2626 68.5922 57.25 68.6703 57.25V51.5357ZM64.7513 53.3179C63.8183 54.4871 63.5631 55.9021 63.5631 57.1429H69.2774C69.2774 56.8912 69.3048 56.7632 69.3153 56.725C69.324 56.6937 69.3082 56.7689 69.2178 56.8821L64.7513 53.3179ZM63.5631 57.1429C63.5631 58.3779 63.8344 59.7591 64.7601 60.9074L69.2089 57.3212C69.2919 57.424 69.3118 57.4978 69.3082 57.4852C69.3024 57.4649 69.2774 57.3617 69.2774 57.1429H63.5631ZM64.7692 60.9186C65.7934 62.1762 67.2266 62.6643 68.6131 62.6643V56.95C68.5665 56.95 68.6461 56.9426 68.7924 57.0048C68.9525 57.0729 69.0978 57.1847 69.1999 57.31L64.7692 60.9186ZM68.6131 62.6643C69.5181 62.6643 70.4618 62.4566 71.3253 61.9215L68.3152 57.0643C68.4004 57.0115 68.4818 56.9801 68.545 56.9636C68.6055 56.9478 68.6327 56.95 68.6131 56.95V62.6643ZM71.3345 61.9157C72.1741 61.391 72.79 60.6575 73.1941 59.819L68.0464 57.3382C68.0536 57.3232 68.0776 57.2788 68.1272 57.2221C68.1779 57.1642 68.2397 57.1114 68.306 57.07L71.3345 61.9157ZM69.7567 61.3021L71.221 61.7664L72.9481 56.3193L71.4838 55.8551L69.7567 61.3021ZM69.4641 57.9043C69.3828 58.0912 69.3013 58.1676 69.206 58.2271L72.2345 63.0729C73.3583 62.3705 74.1863 61.3754 74.705 60.1814L69.4641 57.9043ZM69.2197 58.2186C69.0814 58.304 68.9265 58.3571 68.6845 58.3571V64.0714C69.9379 64.0714 71.14 63.7484 72.2209 63.0814L69.2197 58.2186ZM68.7917 57.5643V56.4H63.0774V57.5643H68.7917ZM65.9345 59.2571H71.4417V53.5429H65.9345V59.2571ZM68.5845 56.4V57.5643H74.2988V56.4H68.5845ZM71.4417 54.7071H65.9345V60.4214H71.4417V54.7071Z" fill="#E53935" mask="url(#path-9-outside-1_1117_12283)"/>
<defs>
<filter id="filter0_ii_1117_12283" x="19.4986" y="28" width="58.4862" height="42.1429" filterUnits="userSpaceOnUse" color-interpolation-filters="sRGB">
<feFlood flood-opacity="0" result="BackgroundImageFix"/>
<feBlend mode="normal" in="SourceGraphic" in2="BackgroundImageFix" result="shape"/>
<feColorMatrix in="SourceAlpha" type="matrix" values="0 0 0 0 0 0 0 0 0 0 0 0 0 0 0 0 0 0 127 0" result="hardAlpha"/>
<feOffset dx="5.71429" dy="5.71429"/>
<feGaussianBlur stdDeviation="2.85714"/>
<feComposite in2="hardAlpha" operator="arithmetic" k2="-1" k3="1"/>
<feColorMatrix type="matrix" values="0 0 0 0 0 0 0 0 0 0 0 0 0 0 0 0 0 0 0.25 0"/>
<feBlend mode="normal" in2="shape" result="effect1_innerShadow_1117_12283"/>
<feColorMatrix in="SourceAlpha" type="matrix" values="0 0 0 0 0 0 0 0 0 0 0 0 0 0 0 0 0 0 127 0" result="hardAlpha"/>
<feOffset dx="-5.71429" dy="-5.71429"/>
<feGaussianBlur stdDeviation="5.71429"/>
<feComposite in2="hardAlpha" operator="arithmetic" k2="-1" k3="1"/>
<feColorMatrix type="matrix" values="0 0 0 0 0.983333 0 0 0 0 0.954653 0 0 0 0 0.954653 0 0 0 0.25 0"/>
<feBlend mode="normal" in2="effect1_innerShadow_1117_12283" result="effect2_innerShadow_1117_12283"/>
</filter>
</defs>
</svg>
