<svg width="24" height="24" viewBox="0 0 24 24" fill="none" xmlns="http://www.w3.org/2000/svg">
<path fill-rule="evenodd" clip-rule="evenodd" d="M3.50224 21.5534L3.54345 21.5328L20.941 12.8364L20.9486 12.8326L21.1277 12.7431L21.7237 12.4452C22.0923 12.2609 22.0923 11.735 21.7237 11.5507L21.1276 11.2528L20.9486 11.1633L20.941 11.1595L3.54345 2.46306L3.50224 2.44246L3.17298 2.27787L2.72571 2.0543C2.32727 1.85514 1.88693 2.23712 2.02783 2.65969L2.18599 3.13405L2.30242 3.48326L2.31699 3.52696L5.08869 11.8398C5.12292 11.9425 5.12292 12.0534 5.08869 12.1561L2.31699 20.4689L2.30242 20.5126L2.18599 20.8618L2.02783 21.3362C1.88693 21.7588 2.32727 22.1408 2.72571 21.9416L3.17297 21.718L3.50224 21.5534ZM4.21441 4.47541L19.2636 11.9979L4.21441 19.5205L6.24398 13.4334L7.50057 13.2452L10.8002 12.7509L11.6786 12.6193L12.3926 12.5123L12.5459 12.4893C13.113 12.4044 13.1143 11.5875 12.5474 11.5009L12.3942 11.4774L11.6806 11.3683L10.8026 11.2341L7.50037 10.7293L6.23513 10.5359L4.21441 4.47541Z" fill="white"/>
</svg>
