<svg width="24" height="56" viewBox="0 0 24 56" fill="none" xmlns="http://www.w3.org/2000/svg">
<path fill-rule="evenodd" clip-rule="evenodd" d="M3.50224 37.5534L3.54345 37.5328L20.941 28.8364L20.9486 28.8326L21.1277 28.7431L21.7237 28.4452C22.0923 28.2609 22.0923 27.735 21.7237 27.5507L21.1276 27.2528L20.9486 27.1633L20.941 27.1595L3.54345 18.4631L3.50224 18.4425L3.17298 18.2779L2.72571 18.0543C2.32727 17.8551 1.88693 18.2371 2.02783 18.6597L2.18599 19.134L2.30242 19.4833L2.31699 19.527L5.08869 27.8398C5.12292 27.9425 5.12292 28.0534 5.08869 28.1561L2.31699 36.4689L2.30242 36.5126L2.18599 36.8618L2.02783 37.3362C1.88693 37.7588 2.32727 38.1408 2.72571 37.9416L3.17297 37.718L3.50224 37.5534ZM4.21441 20.4754L19.2636 27.9979L4.21441 35.5205L6.24398 29.4334L7.50057 29.2452L10.8002 28.7509L11.6786 28.6193L12.3926 28.5123L12.5459 28.4893C13.113 28.4044 13.1143 27.5875 12.5474 27.5009L12.3942 27.4774L11.6806 27.3683L10.8026 27.2341L7.50037 26.7293L6.23513 26.5359L4.21441 20.4754Z" fill="#01252C"/>
</svg>
