<svg width="24" height="24" viewBox="0 0 24 24" fill="none" xmlns="http://www.w3.org/2000/svg">
<path fill-rule="evenodd" clip-rule="evenodd" d="M10.2632 3.5L13.7351 3.5L14.1925 5.09597C14.5266 6.26137 15.7239 6.95258 16.9002 6.65906L18.522 6.25436L20.2537 9.24405L19.0998 10.4329C18.2524 11.3058 18.2524 12.6942 19.0998 13.5671L20.2537 14.756L18.522 17.7457L16.9002 17.3409C15.7239 17.0474 14.5266 17.7386 14.1925 18.904L13.7351 20.5L10.2632 20.5L9.80576 18.9041C9.47171 17.7387 8.27438 17.0474 7.09811 17.341L5.47626 17.7457L3.74459 14.756L4.89854 13.5671C5.74587 12.6942 5.74587 11.3058 4.89854 10.4329L3.74458 9.24404L5.47625 6.25434L7.0981 6.65905C8.27437 6.95257 9.4717 6.26136 9.80575 5.09596L10.2632 3.5ZM16.537 5.20369C16.1449 5.30153 15.7458 5.07113 15.6345 4.68266L14.9693 2.36223C14.9079 2.14778 14.7118 2 14.4887 2L9.50958 2C9.2865 2 9.09041 2.14778 9.02894 2.36223L8.36382 4.68265C8.25247 5.07112 7.85335 5.30152 7.46126 5.20368L5.1092 4.61676C4.89299 4.56281 4.66717 4.65845 4.55548 4.85128L2.06735 9.14699C1.95518 9.34065 1.98536 9.58525 2.14123 9.74584L3.82221 11.4776C4.10466 11.7686 4.10466 12.2314 3.82221 12.5224L2.14124 14.2542C1.98536 14.4148 1.95518 14.6594 2.06735 14.853L4.55548 19.1487C4.66717 19.3416 4.89299 19.4372 5.1092 19.3833L7.46127 18.7963C7.85336 18.6985 8.25248 18.9289 8.36383 19.3174L9.02894 21.6378C9.09041 21.8522 9.28651 22 9.50959 22L14.4887 22C14.7118 22 14.9079 21.8522 14.9693 21.6378L15.6345 19.3173C15.7458 18.9289 16.1449 18.6985 16.537 18.7963L18.8891 19.3832C19.1053 19.4372 19.3311 19.3415 19.4428 19.1487L21.9309 14.853C22.0431 14.6594 22.0129 14.4147 21.8571 14.2542L20.1761 12.5224C19.8936 12.2314 19.8936 11.7686 20.1761 11.4776L21.857 9.74585C22.0129 9.58527 22.0431 9.34066 21.9309 9.147L19.4428 4.85129C19.3311 4.65846 19.1053 4.56282 18.8891 4.61677L16.537 5.20369ZM12 9.5C13.3807 9.5 14.5 10.6193 14.5 12C14.5 13.3807 13.3807 14.5 12 14.5C10.6193 14.5 9.5 13.3807 9.5 12C9.5 10.6193 10.6193 9.5 12 9.5ZM12 8C14.2091 8 16 9.79086 16 12C16 14.2091 14.2091 16 12 16C9.79086 16 7.99999 14.2091 7.99999 12C7.99999 9.79086 9.79086 8 12 8Z" fill="#6E6E71"/>
</svg>
