<svg width="24" height="24" viewBox="0 0 24 24" fill="none" xmlns="http://www.w3.org/2000/svg">
<path d="M24 12C24 5.37258 18.6274 0 12 0C5.37259 0 0 5.37258 0 12C0 18.6274 5.37259 24 12 24C18.6274 24 24 18.6274 24 12Z" fill="#0B281F"/>
<path d="M18.0247 8.21521C17.9942 8.08899 17.9478 8.05127 17.8723 8.01355C17.7084 7.93231 17.4095 8.0034 17.4095 8.0034C17.4095 8.0034 6.82912 10.7149 6.20529 11.0674C6.07037 11.1429 6.02394 11.1907 5.99783 11.2488C5.86871 11.5288 6.17191 11.6869 6.17191 11.6869L8.72816 12.7953C8.72816 12.7953 8.82537 12.8185 8.86309 12.7996C9.49853 12.4776 15.2595 9.55717 15.5845 9.47158C15.6353 9.46142 15.6701 9.48172 15.657 9.51509C15.4902 9.94306 10.3719 13.6947 10.3719 13.6947C10.3719 13.6947 10.3516 13.7151 10.3385 13.7412L10.3327 13.7368L9.83945 16.3293C9.83945 16.3293 9.66101 17.1215 10.5373 16.3946C11.1567 15.8825 11.7472 15.4603 12.0432 15.2572C12.8904 15.9696 13.8015 16.7544 14.1888 17.1563C14.3832 17.3579 14.5573 17.4044 14.7039 17.4131C15.1057 17.4363 15.2581 17.0068 15.2581 17.0068C15.2581 17.0068 17.8317 9.67759 17.9884 8.67801C18.0044 8.58081 18.0174 8.51842 18.0247 8.45023C18.0348 8.35593 18.0348 8.26163 18.0247 8.21521Z" fill="#02B0F4"/>
</svg>
