<svg width="24" height="24" viewBox="0 0 24 24" fill="none" xmlns="http://www.w3.org/2000/svg">
<path d="M24 12C24 5.37259 18.6274 0 12 0C5.37259 0 0 5.37259 0 12C0 18.6274 5.37259 24 12 24C18.6274 24 24 18.6274 24 12Z" fill="#0B281F"/>
<path d="M17.9014 8.49489C16.8046 6.55377 14.7329 5.29451 12.4755 5.22197C10.1862 5.14943 7.83165 6.30425 6.62751 8.51086C5.53074 10.5231 5.61778 12.9937 6.84803 14.961C6.6841 15.8575 6.52016 16.7527 6.35622 17.6492C7.31518 17.4925 8.27268 17.3373 9.23164 17.1806C9.57692 17.3678 11.8749 18.5676 14.5574 17.5752C14.894 17.4505 17.4865 16.4422 18.4179 13.5914C19.2666 10.9975 18.0958 8.84018 17.8999 8.49344L17.9014 8.49489ZM17.4792 13.2099C16.7263 15.6196 14.556 16.5017 14.2701 16.6119C11.7618 17.5796 9.59432 16.2565 9.36365 16.11C8.779 16.2347 8.19434 16.3595 7.60968 16.4843L7.88532 14.7027C6.69134 13.0459 6.53612 10.8538 7.48347 9.0607C8.48014 7.1776 10.4546 6.18818 12.3754 6.223C14.2788 6.25782 16.0401 7.29656 16.986 8.91997C17.1543 9.21012 18.1655 11.0149 17.4792 13.2113V13.2099Z" fill="#01E311"/>
<path d="M10.6797 8.62645C10.7508 8.62645 10.8132 8.67143 10.8364 8.73816C10.9553 9.09505 11.4254 10.1904 11.3877 10.3079C11.3441 10.4501 10.803 10.8635 10.7812 11.0652C10.7595 11.2668 11.1614 11.8283 11.5835 12.2679C12.1566 12.867 13.0618 13.2602 13.1358 13.2921C13.2098 13.324 13.7727 12.4942 13.8888 12.442C14.0049 12.3897 15.5006 13.1964 15.5006 13.3342C15.5006 13.472 15.3831 13.945 15.1089 14.3207C14.9174 14.5818 14.4938 14.6965 14.1789 14.7385C14.1717 14.7385 14.1644 14.7385 14.1572 14.7385C13.9193 14.6994 12.2784 14.5137 10.8668 13.1224C9.71928 11.9908 9.374 10.7025 9.26665 10.1889C9.2652 10.1817 9.26374 10.1744 9.26374 10.1672C9.25794 9.99452 9.26374 9.4853 9.62643 9.03846C9.76716 8.86582 10.0123 8.70189 10.1008 8.64531C10.1226 8.63081 10.1473 8.625 10.1734 8.625H10.6797V8.62645Z" fill="#01E311"/>
</svg>
