<svg width="24" height="24" viewBox="0 0 24 24" fill="none" xmlns="http://www.w3.org/2000/svg">
<path d="M24 12C24 5.37259 18.6274 0 12 0C5.37259 0 0 5.37259 0 12C0 18.6274 5.37259 24 12 24C18.6274 24 24 18.6274 24 12Z" fill="#0B281F"/>
<path d="M17.1161 15.7067C15.8728 14.2124 14.628 12.7181 13.3847 11.2224C13.3702 11.205 13.3557 11.1875 13.3412 11.1701L17.5325 6.11423L16.4125 6.00977L12.7116 10.4128L9.22829 6.22738L8.9715 6.24915C8.18954 6.31588 7.40758 6.38116 6.62561 6.44645L5.68262 6.52624L7.69337 8.96208C8.70891 10.1938 9.7259 11.424 10.7414 12.6557C10.7559 12.6731 10.769 12.6905 10.7835 12.7065L6.47183 17.8349L7.69047 17.9902L11.4262 13.4827L12.3489 14.6026C13.0859 15.4963 13.8229 16.39 14.5598 17.2822L14.7267 17.4839L18.3202 17.1502L17.1175 15.7052L17.1161 15.7067ZM15.1561 16.4509C14.4742 15.6254 13.7938 14.7985 13.112 13.973L12.1124 12.7616C11.9093 12.5164 11.7062 12.2713 11.5045 12.0246C10.489 10.7929 9.47346 9.56124 8.45648 8.33099L7.64985 7.35317C8.03286 7.32126 8.4144 7.28934 8.7974 7.25598L12.0224 11.1324C12.2227 11.3732 12.4243 11.6141 12.6245 11.8549C13.8678 13.3492 15.1111 14.8435 16.3544 16.3378L15.1561 16.4495V16.4509Z" fill="black"/>
</svg>
