<svg width="24" height="24" viewBox="0 0 24 24" fill="none" xmlns="http://www.w3.org/2000/svg">
<path d="M24 12C24 5.37258 18.6274 0 12 0C5.37258 0 0 5.37258 0 12C0 18.6274 5.37258 24 12 24C18.6274 24 24 18.6274 24 12Z" fill="#0B281F"/>
<path d="M17.9748 11.4717C17.6527 10.314 17.1957 9.39565 16.804 8.73846C16.5022 8.52519 16.1178 8.29162 15.6492 8.08852C14.9528 7.78676 14.3188 7.65764 13.843 7.60106C13.7719 7.70407 13.7023 7.80707 13.6312 7.91008C13.9518 7.95795 14.3363 8.045 14.7541 8.20313C15.4519 8.46717 15.9713 8.8284 16.3151 9.1142C15.4751 8.70363 13.7676 8.01018 11.5334 8.08997C9.7823 8.1509 8.42439 8.66157 7.62937 9.03297C8.02543 8.79504 8.48532 8.5484 9.01195 8.31773C9.48199 8.11172 9.92448 7.95214 10.3292 7.82882C10.3031 7.691 10.3118 7.73743 10.2857 7.59961C9.89546 7.63008 9.41526 7.70115 8.88283 7.86219C8.14149 8.08706 7.56263 8.40767 7.15932 8.67607C6.7415 9.46383 6.26855 10.549 5.95519 11.8968C5.69115 13.04 5.61571 14.0541 5.61426 14.8578C5.784 15.1131 6.24099 15.7312 7.09404 16.1098C7.94563 16.4885 8.71019 16.4159 9.0134 16.3695C9.23101 16.0735 9.44718 15.779 9.66334 15.4831C9.38625 15.3859 9.06418 15.248 8.72035 15.0522C8.33154 14.8317 8.01818 14.5952 7.77735 14.3848C8.11973 14.5749 8.60573 14.8157 9.2136 15.0232C10.7659 15.5512 12.0803 15.4947 12.752 15.4613C13.2859 15.4337 13.7226 15.412 14.3 15.248C15.1719 15 15.8117 14.5865 16.2034 14.2876C16.0264 14.5009 15.7217 14.8143 15.2604 15.0681C14.8962 15.2683 14.5597 15.3626 14.3174 15.4091C14.5234 15.7297 14.7294 16.0489 14.9354 16.3695C15.3605 16.3724 16.1628 16.3216 17.0332 15.882C17.6861 15.5527 18.1257 15.132 18.3839 14.8404C18.41 14.0062 18.3549 12.8253 17.9777 11.4731L17.9748 11.4717ZM10.116 13.6464C9.42687 13.7146 8.85237 13.1401 8.92055 12.451C8.97133 11.9403 9.38334 11.5283 9.89401 11.4775C10.5831 11.4093 11.1576 11.9838 11.0894 12.6729C11.0387 13.1836 10.6266 13.5956 10.116 13.6464ZM14.1172 13.745C13.4281 13.8132 12.8536 13.2387 12.9218 12.5496C12.9725 12.0389 13.3846 11.6269 13.8952 11.5762C14.5843 11.508 15.1588 12.0825 15.0907 12.7716C15.0399 13.2823 14.6279 13.6943 14.1172 13.745Z" fill="#5765F2"/>
</svg>
