<svg width="86" height="86" viewBox="0 0 86 86" fill="none" xmlns="http://www.w3.org/2000/svg">
<path d="M83 43C83 65.0914 65.0914 83 43 83C20.9086 83 3 65.0914 3 43C3 20.9086 20.9086 3 43 3C65.0914 3 83 20.9086 83 43Z" fill="#BCCCD2"/>
<path fill-rule="evenodd" clip-rule="evenodd" d="M85.963 43C85.963 66.7278 66.7279 85.963 43.0001 85.963C19.2723 85.963 0.0371094 66.7278 0.0371094 43C0.0371094 19.2722 19.2723 0.0370483 43.0001 0.0370483C66.7279 0.0370483 85.963 19.2722 85.963 43ZM43.0001 83C65.0915 83 83.0001 65.0914 83.0001 43C83.0001 20.9086 65.0915 3.00001 43.0001 3.00001C20.9087 3.00001 3.00007 20.9086 3.00007 43C3.00007 65.0914 20.9087 83 43.0001 83Z" fill="#81A5B0"/>
<path fill-rule="evenodd" clip-rule="evenodd" d="M5.96293 44.4815C5.14473 44.4815 4.48145 43.8182 4.48145 43C4.48145 21.7268 21.7268 4.48151 43 4.48151C43.8182 4.48151 44.4814 5.14479 44.4814 5.96299C44.4814 6.78119 43.8182 7.44447 43 7.44447C23.3632 7.44447 7.44441 23.3632 7.44441 43C7.44441 43.8182 6.78113 44.4815 5.96293 44.4815Z" fill="#D0DEE3"/>
<path fill-rule="evenodd" clip-rule="evenodd" d="M80.0371 41.5185C80.8553 41.5185 81.5186 42.1818 81.5186 43C81.5186 64.2732 64.2732 81.5185 43 81.5185C42.1818 81.5185 41.5186 80.8552 41.5186 80.037C41.5186 79.2188 42.1818 78.5555 43 78.5555C62.6368 78.5555 78.5556 62.6368 78.5556 43C78.5556 42.1818 79.2189 41.5185 80.0371 41.5185Z" fill="#A2B9C1"/>
<path d="M72.6299 43C72.6299 59.364 59.3642 72.6296 43.0002 72.6296C26.6362 72.6296 13.3706 59.364 13.3706 43C13.3706 26.636 26.6362 13.3704 43.0002 13.3704C59.3642 13.3704 72.6299 26.636 72.6299 43Z" fill="#C7D4D8"/>
<path fill-rule="evenodd" clip-rule="evenodd" d="M75.5924 43C75.5924 61.0004 61.0002 75.5926 42.9998 75.5926C24.9994 75.5926 10.4072 61.0004 10.4072 43C10.4072 24.9996 24.9994 10.4074 42.9998 10.4074C61.0002 10.4074 75.5924 24.9996 75.5924 43ZM42.9998 72.6296C59.3638 72.6296 72.6294 59.364 72.6294 43C72.6294 26.636 59.3638 13.3704 42.9998 13.3704C26.6358 13.3704 13.3702 26.636 13.3702 43C13.3702 59.364 26.6358 72.6296 42.9998 72.6296Z" fill="#81A5B0"/>
<path fill-rule="evenodd" clip-rule="evenodd" d="M42.9998 68.1852C56.9092 68.1852 68.185 56.9094 68.185 43C68.185 42.1818 68.8483 41.5185 69.6665 41.5185C70.4847 41.5185 71.148 42.1818 71.148 43C71.148 58.5458 58.5456 71.1481 42.9998 71.1481C42.1816 71.1481 41.5183 70.4848 41.5183 69.6666C41.5183 68.8484 42.1816 68.1852 42.9998 68.1852Z" fill="#B5C3C8"/>
<path fill-rule="evenodd" clip-rule="evenodd" d="M43.0002 17.8148C29.0908 17.8148 17.815 29.0906 17.815 43C17.815 43.8182 17.1517 44.4815 16.3335 44.4815C15.5153 44.4815 14.8521 43.8182 14.8521 43C14.8521 27.4542 27.4544 14.8519 43.0002 14.8519C43.8184 14.8519 44.4817 15.5151 44.4817 16.3333C44.4817 17.1515 43.8184 17.8148 43.0002 17.8148Z" fill="#D9EAEF"/>
<mask id="path-9-outside-1_108_19669" maskUnits="userSpaceOnUse" x="19" y="34" width="47" height="18" fill="black">
<rect fill="white" x="19" y="34" width="47" height="18"/>
<path d="M26.7286 48.2143C25.9905 48.2143 25.3238 48.0881 24.7286 47.8357C24.1381 47.5786 23.65 47.2143 23.2643 46.7429C22.8833 46.2667 22.6357 45.7024 22.5214 45.05L24.0786 44.8143C24.2357 45.4429 24.5643 45.9333 25.0643 46.2857C25.5643 46.6333 26.1476 46.8071 26.8143 46.8071C27.2286 46.8071 27.6095 46.7429 27.9571 46.6143C28.3048 46.481 28.5833 46.2929 28.7929 46.05C29.0071 45.8024 29.1143 45.5071 29.1143 45.1643C29.1143 44.9786 29.081 44.8143 29.0143 44.6714C28.9524 44.5286 28.8643 44.4048 28.75 44.3C28.6405 44.1905 28.5048 44.0976 28.3429 44.0214C28.1857 43.9405 28.0119 43.8714 27.8214 43.8143L25.1857 43.0357C24.9286 42.9595 24.6667 42.8619 24.4 42.7429C24.1333 42.619 23.8881 42.4595 23.6643 42.2643C23.4452 42.0643 23.2667 41.819 23.1286 41.5286C22.9905 41.2333 22.9214 40.8762 22.9214 40.4571C22.9214 39.8238 23.0833 39.2881 23.4071 38.85C23.7357 38.4071 24.1786 38.0738 24.7357 37.85C25.2929 37.6214 25.9167 37.5071 26.6071 37.5071C27.3024 37.5167 27.9238 37.6405 28.4714 37.8786C29.0238 38.1167 29.481 38.4595 29.8429 38.9071C30.2095 39.35 30.4619 39.8881 30.6 40.5214L29 40.7929C28.9286 40.4071 28.7762 40.0762 28.5429 39.8C28.3095 39.519 28.0238 39.3048 27.6857 39.1571C27.3476 39.0048 26.981 38.9262 26.5857 38.9214C26.2048 38.9119 25.8548 38.969 25.5357 39.0929C25.2214 39.2167 24.969 39.3905 24.7786 39.6143C24.5929 39.8381 24.5 40.0952 24.5 40.3857C24.5 40.6714 24.5833 40.9024 24.75 41.0786C24.9167 41.2548 25.1214 41.3952 25.3643 41.5C25.6119 41.6 25.8571 41.6833 26.1 41.75L28 42.2857C28.2381 42.3524 28.5071 42.4429 28.8071 42.5571C29.1119 42.6667 29.4048 42.8214 29.6857 43.0214C29.9714 43.2214 30.2071 43.4881 30.3929 43.8214C30.5786 44.15 30.6714 44.5643 30.6714 45.0643C30.6714 45.5833 30.5667 46.0405 30.3571 46.4357C30.1476 46.8262 29.8595 47.1548 29.4929 47.4214C29.131 47.6833 28.7119 47.881 28.2357 48.0143C27.7595 48.1476 27.2571 48.2143 26.7286 48.2143ZM32.9079 39.0214V37.5714H34.4008V39.0214H32.9079ZM32.9079 48V40.2857H34.4008V48H32.9079ZM37.26 48V37.5H38.7529V48H37.26ZM43.555 48L40.755 40.2857H42.2622L44.3122 46.1286L46.3622 40.2857H47.8693L45.0693 48H43.555ZM52.8701 48.2143C52.1034 48.2143 51.4296 48.0476 50.8487 47.7143C50.2725 47.3762 49.8225 46.9071 49.4987 46.3071C49.1796 45.7024 49.0201 45.0024 49.0201 44.2071C49.0201 43.3643 49.1772 42.6333 49.4915 42.0143C49.8106 41.3952 50.2534 40.9167 50.8201 40.5786C51.3868 40.2405 52.0463 40.0714 52.7987 40.0714C53.5844 40.0714 54.2534 40.2548 54.8058 40.6214C55.3582 40.9833 55.7701 41.5 56.0415 42.1714C56.3177 42.8429 56.4272 43.6405 56.3701 44.5643H54.8772V44.0214C54.8677 43.1262 54.6963 42.4643 54.3629 42.0357C54.0344 41.6071 53.532 41.3929 52.8558 41.3929C52.1082 41.3929 51.5463 41.6286 51.1701 42.1C50.7939 42.5714 50.6058 43.2524 50.6058 44.1429C50.6058 44.9905 50.7939 45.6476 51.1701 46.1143C51.5463 46.5762 52.0891 46.8071 52.7987 46.8071C53.2653 46.8071 53.6677 46.7024 54.0058 46.4929C54.3487 46.2786 54.6153 45.9738 54.8058 45.5786L56.2701 46.0429C55.9701 46.7333 55.5153 47.269 54.9058 47.65C54.2963 48.0262 53.6177 48.2143 52.8701 48.2143ZM50.1201 44.5643V43.4H55.6272V44.5643H50.1201ZM58.5441 48V40.2857H59.8727V42.1571L59.6869 41.9143C59.7822 41.6667 59.906 41.4405 60.0584 41.2357C60.2108 41.0262 60.3869 40.8548 60.5869 40.7214C60.7822 40.5786 60.9988 40.469 61.2369 40.3929C61.4798 40.3119 61.7274 40.2643 61.9798 40.25C62.2322 40.231 62.475 40.2429 62.7084 40.2857V41.6857C62.456 41.619 62.175 41.6 61.8655 41.6286C61.5608 41.6571 61.2798 41.7548 61.0227 41.9214C60.7798 42.0786 60.5869 42.269 60.4441 42.4929C60.306 42.7167 60.206 42.9667 60.1441 43.2429C60.0822 43.5143 60.0512 43.8024 60.0512 44.1071V48H58.5441Z"/>
</mask>
<g filter="url(#filter0_ii_108_19669)">
<path d="M26.7286 48.2143C25.9905 48.2143 25.3238 48.0881 24.7286 47.8357C24.1381 47.5786 23.65 47.2143 23.2643 46.7429C22.8833 46.2667 22.6357 45.7024 22.5214 45.05L24.0786 44.8143C24.2357 45.4429 24.5643 45.9333 25.0643 46.2857C25.5643 46.6333 26.1476 46.8071 26.8143 46.8071C27.2286 46.8071 27.6095 46.7429 27.9571 46.6143C28.3048 46.481 28.5833 46.2929 28.7929 46.05C29.0071 45.8024 29.1143 45.5071 29.1143 45.1643C29.1143 44.9786 29.081 44.8143 29.0143 44.6714C28.9524 44.5286 28.8643 44.4048 28.75 44.3C28.6405 44.1905 28.5048 44.0976 28.3429 44.0214C28.1857 43.9405 28.0119 43.8714 27.8214 43.8143L25.1857 43.0357C24.9286 42.9595 24.6667 42.8619 24.4 42.7429C24.1333 42.619 23.8881 42.4595 23.6643 42.2643C23.4452 42.0643 23.2667 41.819 23.1286 41.5286C22.9905 41.2333 22.9214 40.8762 22.9214 40.4571C22.9214 39.8238 23.0833 39.2881 23.4071 38.85C23.7357 38.4071 24.1786 38.0738 24.7357 37.85C25.2929 37.6214 25.9167 37.5071 26.6071 37.5071C27.3024 37.5167 27.9238 37.6405 28.4714 37.8786C29.0238 38.1167 29.481 38.4595 29.8429 38.9071C30.2095 39.35 30.4619 39.8881 30.6 40.5214L29 40.7929C28.9286 40.4071 28.7762 40.0762 28.5429 39.8C28.3095 39.519 28.0238 39.3048 27.6857 39.1571C27.3476 39.0048 26.981 38.9262 26.5857 38.9214C26.2048 38.9119 25.8548 38.969 25.5357 39.0929C25.2214 39.2167 24.969 39.3905 24.7786 39.6143C24.5929 39.8381 24.5 40.0952 24.5 40.3857C24.5 40.6714 24.5833 40.9024 24.75 41.0786C24.9167 41.2548 25.1214 41.3952 25.3643 41.5C25.6119 41.6 25.8571 41.6833 26.1 41.75L28 42.2857C28.2381 42.3524 28.5071 42.4429 28.8071 42.5571C29.1119 42.6667 29.4048 42.8214 29.6857 43.0214C29.9714 43.2214 30.2071 43.4881 30.3929 43.8214C30.5786 44.15 30.6714 44.5643 30.6714 45.0643C30.6714 45.5833 30.5667 46.0405 30.3571 46.4357C30.1476 46.8262 29.8595 47.1548 29.4929 47.4214C29.131 47.6833 28.7119 47.881 28.2357 48.0143C27.7595 48.1476 27.2571 48.2143 26.7286 48.2143ZM32.9079 39.0214V37.5714H34.4008V39.0214H32.9079ZM32.9079 48V40.2857H34.4008V48H32.9079ZM37.26 48V37.5H38.7529V48H37.26ZM43.555 48L40.755 40.2857H42.2622L44.3122 46.1286L46.3622 40.2857H47.8693L45.0693 48H43.555ZM52.8701 48.2143C52.1034 48.2143 51.4296 48.0476 50.8487 47.7143C50.2725 47.3762 49.8225 46.9071 49.4987 46.3071C49.1796 45.7024 49.0201 45.0024 49.0201 44.2071C49.0201 43.3643 49.1772 42.6333 49.4915 42.0143C49.8106 41.3952 50.2534 40.9167 50.8201 40.5786C51.3868 40.2405 52.0463 40.0714 52.7987 40.0714C53.5844 40.0714 54.2534 40.2548 54.8058 40.6214C55.3582 40.9833 55.7701 41.5 56.0415 42.1714C56.3177 42.8429 56.4272 43.6405 56.3701 44.5643H54.8772V44.0214C54.8677 43.1262 54.6963 42.4643 54.3629 42.0357C54.0344 41.6071 53.532 41.3929 52.8558 41.3929C52.1082 41.3929 51.5463 41.6286 51.1701 42.1C50.7939 42.5714 50.6058 43.2524 50.6058 44.1429C50.6058 44.9905 50.7939 45.6476 51.1701 46.1143C51.5463 46.5762 52.0891 46.8071 52.7987 46.8071C53.2653 46.8071 53.6677 46.7024 54.0058 46.4929C54.3487 46.2786 54.6153 45.9738 54.8058 45.5786L56.2701 46.0429C55.9701 46.7333 55.5153 47.269 54.9058 47.65C54.2963 48.0262 53.6177 48.2143 52.8701 48.2143ZM50.1201 44.5643V43.4H55.6272V44.5643H50.1201ZM58.5441 48V40.2857H59.8727V42.1571L59.6869 41.9143C59.7822 41.6667 59.906 41.4405 60.0584 41.2357C60.2108 41.0262 60.3869 40.8548 60.5869 40.7214C60.7822 40.5786 60.9988 40.469 61.2369 40.3929C61.4798 40.3119 61.7274 40.2643 61.9798 40.25C62.2322 40.231 62.475 40.2429 62.7084 40.2857V41.6857C62.456 41.619 62.175 41.6 61.8655 41.6286C61.5608 41.6571 61.2798 41.7548 61.0227 41.9214C60.7798 42.0786 60.5869 42.269 60.4441 42.4929C60.306 42.7167 60.206 42.9667 60.1441 43.2429C60.0822 43.5143 60.0512 43.8024 60.0512 44.1071V48H58.5441Z" fill="#D9EAEF"/>
</g>
<path d="M24.7286 47.8357L23.5878 50.4552C23.5963 50.4589 23.6048 50.4626 23.6133 50.4662L24.7286 47.8357ZM23.2643 46.7429L21.0332 48.5277C21.0398 48.5359 21.0464 48.544 21.053 48.5521L23.2643 46.7429ZM22.5214 45.05L22.0938 42.225C21.3332 42.3402 20.6512 42.7571 20.202 43.3816C19.7528 44.0061 19.5744 44.7853 19.7071 45.543L22.5214 45.05ZM24.0786 44.8143L26.8504 44.1213C26.4931 42.6921 25.1076 41.7688 23.6509 41.9893L24.0786 44.8143ZM25.0643 46.2857L23.4184 48.6211C23.4233 48.6246 23.4283 48.6281 23.4333 48.6316L25.0643 46.2857ZM27.9571 46.6143L28.9483 49.294C28.959 49.29 28.9697 49.286 28.9803 49.2819L27.9571 46.6143ZM28.7929 46.05L26.6324 44.1803L26.6296 44.1836L28.7929 46.05ZM29.0143 44.6714L26.3927 45.8075C26.4032 45.8317 26.414 45.8557 26.4252 45.8797L29.0143 44.6714ZM28.75 44.3L26.7297 46.3203C26.759 46.3496 26.7889 46.3782 26.8194 46.4062L28.75 44.3ZM28.3429 44.0214L27.0344 46.5614C27.0648 46.577 27.0954 46.5921 27.1263 46.6066L28.3429 44.0214ZM27.8214 43.8143L28.6424 41.0776L28.6308 41.0742L27.8214 43.8143ZM25.1857 43.0357L24.374 45.7751L24.3763 45.7758L25.1857 43.0357ZM24.4 42.7429L23.1968 45.3343C23.2096 45.3402 23.2224 45.3461 23.2353 45.3518L24.4 42.7429ZM23.6643 42.2643L21.7378 44.3742C21.7537 44.3888 21.7698 44.4032 21.7861 44.4173L23.6643 42.2643ZM23.1286 41.5286L20.5405 42.7391C20.5431 42.7445 20.5456 42.7499 20.5482 42.7553L23.1286 41.5286ZM23.4071 38.85L21.1126 37.1476L21.1095 37.1517L23.4071 38.85ZM24.7357 37.85L25.8007 40.5012C25.8072 40.4986 25.8137 40.496 25.8202 40.4933L24.7357 37.85ZM26.6071 37.5071L26.6463 34.6503C26.6332 34.6501 26.6202 34.65 26.6071 34.65V37.5071ZM28.4714 37.8786L27.3322 40.4988L27.3405 40.5024L28.4714 37.8786ZM29.8429 38.9071L27.6211 40.7035C27.628 40.7121 27.6351 40.7207 27.6421 40.7292L29.8429 38.9071ZM30.6 40.5214L31.0779 43.3383C31.8477 43.2077 32.5306 42.7677 32.9677 42.1206C33.4047 41.4735 33.5579 40.6757 33.3916 39.9127L30.6 40.5214ZM29 40.7929L26.1906 41.3131C26.4749 42.8482 27.9387 43.8709 29.4779 43.6098L29 40.7929ZM28.5429 39.8L26.3449 41.6254C26.35 41.6316 26.3552 41.6377 26.3603 41.6439L28.5429 39.8ZM27.6857 39.1571L26.5117 41.7619C26.5219 41.7666 26.5322 41.7711 26.5425 41.7756L27.6857 39.1571ZM26.5857 38.9214L26.5143 41.7777C26.5266 41.778 26.539 41.7782 26.5513 41.7784L26.5857 38.9214ZM25.5357 39.0929L24.5021 36.4292C24.4975 36.431 24.493 36.4328 24.4885 36.4345L25.5357 39.0929ZM24.7786 39.6143L22.6027 37.7625C22.595 37.7716 22.5874 37.7807 22.5798 37.7898L24.7786 39.6143ZM25.3643 41.5L24.2326 44.1235C24.2531 44.1323 24.2737 44.1409 24.2944 44.1493L25.3643 41.5ZM26.1 41.75L26.8754 39.0001C26.869 38.9983 26.8627 38.9965 26.8563 38.9948L26.1 41.75ZM28 42.2857L27.2246 45.0356L27.2296 45.037L28 42.2857ZM28.8071 42.5571L27.79 45.2271C27.8069 45.2335 27.8239 45.2398 27.8409 45.2459L28.8071 42.5571ZM29.6857 43.0214L28.0288 45.349C28.0349 45.3534 28.0411 45.3578 28.0473 45.3621L29.6857 43.0214ZM30.3929 43.8214L27.897 45.212C27.8998 45.2171 27.9027 45.2222 27.9055 45.2273L30.3929 43.8214ZM30.3571 46.4357L32.8747 47.7866C32.877 47.7824 32.8793 47.7782 32.8815 47.7739L30.3571 46.4357ZM29.4929 47.4214L31.1679 49.7361L31.1733 49.7321L29.4929 47.4214ZM28.2357 48.0143L27.4653 45.263L27.4653 45.263L28.2357 48.0143ZM26.7286 45.3571C26.3197 45.3571 26.0398 45.2883 25.8439 45.2053L23.6133 50.4662C24.6078 50.8879 25.6612 51.0714 26.7286 51.0714V45.3571ZM25.8693 45.2162C25.6705 45.1296 25.5574 45.0336 25.4756 44.9336L21.053 48.5521C21.7426 49.395 22.6057 50.0276 23.5878 50.4552L25.8693 45.2162ZM25.4953 44.958C25.4396 44.8884 25.3745 44.7784 25.3357 44.557L19.7071 45.543C19.8969 46.6264 20.327 47.6449 21.0332 48.5277L25.4953 44.958ZM22.9491 47.875L24.5062 47.6392L23.6509 41.9893L22.0938 42.225L22.9491 47.875ZM21.3067 45.5072C21.6194 46.7579 22.3232 47.8493 23.4184 48.6211L26.7102 43.9503C26.7359 43.9684 26.779 44.0072 26.8166 44.0634C26.8528 44.1175 26.8568 44.1469 26.8504 44.1213L21.3067 45.5072ZM23.4333 48.6316C24.4575 49.3437 25.6224 49.6643 26.8143 49.6643V43.95C26.7311 43.95 26.6956 43.9395 26.6927 43.9386C26.6902 43.9379 26.6912 43.938 26.694 43.9394C26.6969 43.9407 26.6975 43.9414 26.6952 43.9398L23.4333 48.6316ZM26.8143 49.6643C27.5273 49.6643 28.2483 49.5529 28.9483 49.294L26.966 43.9346C26.9658 43.9346 26.9637 43.9354 26.9591 43.9366C26.9544 43.9379 26.9467 43.9397 26.9353 43.9416C26.9127 43.9454 26.8735 43.95 26.8143 43.95V49.6643ZM28.9803 49.2819C29.6972 49.007 30.3924 48.5699 30.9562 47.9164L26.6296 44.1836C26.7743 44.0158 26.9124 43.9549 26.9339 43.9466L28.9803 49.2819ZM30.9533 47.9196C31.6395 47.1268 31.9714 46.1586 31.9714 45.1643H26.2571C26.2571 45.0338 26.2784 44.8604 26.3482 44.6682C26.4186 44.474 26.5211 44.3089 26.6324 44.1804L30.9533 47.9196ZM31.9714 45.1643C31.9714 44.6347 31.8753 44.0459 31.6034 43.4632L26.4252 45.8797C26.2866 45.5827 26.2571 45.3224 26.2571 45.1643H31.9714ZM31.6359 43.5354C31.4151 43.0258 31.0921 42.571 30.6806 42.1938L26.8194 46.4062C26.6364 46.2385 26.4897 46.0313 26.3927 45.8075L31.6359 43.5354ZM30.7703 42.2797C30.3944 41.9037 29.9743 41.6315 29.5594 41.4362L27.1263 46.6066C27.0352 46.5638 26.8866 46.4772 26.7297 46.3203L30.7703 42.2797ZM29.6513 41.4815C29.3201 41.3109 28.9806 41.1791 28.6424 41.0776L27.0004 46.5509C27.0432 46.5638 27.0513 46.5701 27.0344 46.5614L29.6513 41.4815ZM28.6308 41.0742L25.9951 40.2956L24.3763 45.7758L27.012 46.5544L28.6308 41.0742ZM25.9974 40.2963C25.8707 40.2588 25.7267 40.2062 25.5647 40.1339L23.2353 45.3518C23.6066 45.5176 23.9864 45.6603 24.374 45.7751L25.9974 40.2963ZM25.6032 40.1514C25.5836 40.1423 25.5652 40.131 25.5425 40.1112L21.7861 44.4173C22.211 44.788 22.6831 45.0958 23.1968 45.3343L25.6032 40.1514ZM25.5908 40.1543C25.6262 40.1867 25.6546 40.2195 25.6758 40.2485C25.6966 40.2772 25.7066 40.2969 25.709 40.3018L20.5482 42.7553C20.8316 43.3514 21.2234 43.9046 21.7378 44.3742L25.5908 40.1543ZM25.7166 40.318C25.7579 40.4063 25.7734 40.471 25.7784 40.4969C25.7832 40.5216 25.7786 40.5114 25.7786 40.4571H20.0643C20.0643 41.1794 20.1821 41.9729 20.5405 42.7391L25.7166 40.318ZM25.7786 40.4571C25.7786 40.3843 25.7877 40.3741 25.7778 40.4069C25.773 40.4229 25.7647 40.4455 25.7514 40.4721C25.7381 40.4988 25.7222 40.5247 25.7048 40.5483L21.1095 37.1517C20.3655 38.1583 20.0643 39.3155 20.0643 40.4571H25.7786ZM25.7017 40.5524C25.7018 40.5522 25.7003 40.5533 25.7039 40.5506C25.7088 40.5469 25.7359 40.5273 25.8007 40.5012L23.6707 35.1988C22.669 35.6012 21.7832 36.2436 21.1126 37.1476L25.7017 40.5524ZM25.8202 40.4933C25.9865 40.4251 26.2346 40.3643 26.6071 40.3643V34.65C25.5988 34.65 24.5992 34.8177 23.6513 35.2067L25.8202 40.4933ZM26.568 40.364C26.946 40.3692 27.1843 40.4344 27.3322 40.4988L29.6106 35.2584C28.6634 34.8465 27.6588 34.6641 26.6463 34.6503L26.568 40.364ZM27.3405 40.5024C27.4873 40.5656 27.5636 40.6324 27.6211 40.7035L32.0647 37.1108C31.3983 36.2866 30.5603 35.6677 29.6024 35.2548L27.3405 40.5024ZM27.6421 40.7292C27.6825 40.778 27.755 40.8852 27.8084 41.1301L33.3916 39.9127C33.1688 38.891 32.7366 37.922 32.0436 37.085L27.6421 40.7292ZM30.1221 37.7045L28.5221 37.976L29.4779 43.6098L31.0779 43.3383L30.1221 37.7045ZM31.8094 40.2726C31.6555 39.4414 31.306 38.6434 30.7254 37.9561L26.3603 41.6439C26.3095 41.5837 26.2676 41.5169 26.2369 41.4503C26.2067 41.3849 26.1948 41.3354 26.1906 41.3131L31.8094 40.2726ZM30.7408 37.9746C30.2196 37.347 29.5714 36.8629 28.829 36.5387L26.5425 41.7756C26.5156 41.7639 26.479 41.7441 26.4393 41.7143C26.3995 41.6844 26.3677 41.6529 26.3449 41.6254L30.7408 37.9746ZM28.8597 36.5523C28.1399 36.2279 27.3822 36.0737 26.6201 36.0645L26.5513 41.7784C26.5694 41.7786 26.5704 41.7802 26.5585 41.7776C26.5529 41.7765 26.5456 41.7746 26.537 41.7718C26.5285 41.769 26.5199 41.7656 26.5117 41.7619L28.8597 36.5523ZM26.6571 36.0652C25.9416 36.0473 25.211 36.1541 24.5021 36.4292L26.5694 41.7565C26.5372 41.769 26.5118 41.7747 26.4979 41.777C26.4847 41.7791 26.4887 41.777 26.5143 41.7777L26.6571 36.0652ZM24.4885 36.4345C23.8032 36.7045 23.1402 37.131 22.6027 37.7625L26.9544 41.4661C26.7979 41.6499 26.6396 41.7288 26.5829 41.7512L24.4885 36.4345ZM22.5798 37.7898C21.9692 38.5257 21.6429 39.428 21.6429 40.3857H27.3571C27.3571 40.5505 27.3297 40.7438 27.2569 40.9454C27.1841 41.147 27.0819 41.3127 26.9773 41.4388L22.5798 37.7898ZM21.6429 40.3857C21.6429 41.2629 21.918 42.2423 22.6744 43.042L26.8256 39.1151C27.0159 39.3163 27.16 39.5539 27.25 39.8035C27.3373 40.0453 27.3571 40.251 27.3571 40.3857H21.6429ZM22.6744 43.042C23.1309 43.5246 23.6661 43.8791 24.2326 44.1235L26.496 38.8765C26.5768 38.9114 26.7024 38.9849 26.8256 39.1151L22.6744 43.042ZM24.2944 44.1493C24.6383 44.2881 24.9882 44.4076 25.3437 44.5052L26.8563 38.9948C26.7261 38.959 26.5855 38.9119 26.4342 38.8507L24.2944 44.1493ZM25.3246 44.4999L27.2246 45.0356L28.7754 39.5358L26.8754 39.0001L25.3246 44.4999ZM27.2296 45.037C27.364 45.0747 27.5486 45.1351 27.79 45.2271L29.8243 39.8872C29.4657 39.7506 29.1122 39.6301 28.7704 39.5344L27.2296 45.037ZM27.8409 45.2459C27.8846 45.2616 27.9467 45.2906 28.0288 45.349L31.3427 40.6938C30.8628 40.3522 30.3392 40.0717 29.7734 39.8684L27.8409 45.2459ZM28.0473 45.3621C28.0018 45.3303 27.9643 45.2956 27.9361 45.2637C27.9225 45.2484 27.9127 45.2355 27.9062 45.2261C27.8996 45.2168 27.8968 45.2117 27.897 45.212L32.8888 42.4308C32.5128 41.7561 31.9962 41.1512 31.3242 40.6808L28.0473 45.3621ZM27.9055 45.2273C27.8444 45.1191 27.8212 45.0363 27.8138 45.0035C27.807 44.9731 27.8143 44.9885 27.8143 45.0643H33.5286C33.5286 44.2264 33.3745 43.2902 32.8802 42.4155L27.9055 45.2273ZM27.8143 45.0643C27.8143 45.1316 27.8075 45.1599 27.8079 45.1582C27.8081 45.1575 27.8097 45.1507 27.8139 45.1393C27.8182 45.1277 27.8244 45.1134 27.8328 45.0975L32.8815 47.7739C33.3422 46.9049 33.5286 45.9748 33.5286 45.0643H27.8143ZM27.8395 45.0848C27.8373 45.0889 27.8361 45.0908 27.8359 45.0911C27.8357 45.0913 27.8357 45.0913 27.8356 45.0914C27.8355 45.0915 27.8343 45.0929 27.8312 45.0957C27.8281 45.0986 27.8221 45.1037 27.8124 45.1108L31.1733 49.7321C31.8794 49.2186 32.4571 48.5649 32.8747 47.7866L27.8395 45.0848ZM27.8178 45.1068C27.757 45.1508 27.6512 45.2109 27.4653 45.263L29.0061 50.7656C29.7726 50.551 30.5049 50.2159 31.1679 49.736L27.8178 45.1068ZM27.4653 45.263C27.2566 45.3214 27.0146 45.3571 26.7286 45.3571V51.0714C27.4997 51.0714 28.2625 50.9738 29.0061 50.7656L27.4653 45.263ZM32.9079 39.0214H30.0508C30.0508 40.5994 31.33 41.8786 32.9079 41.8786V39.0214ZM32.9079 37.5714V34.7143C31.33 34.7143 30.0508 35.9935 30.0508 37.5714H32.9079ZM34.4008 37.5714H37.2579C37.2579 35.9935 35.9787 34.7143 34.4008 34.7143V37.5714ZM34.4008 39.0214V41.8786C35.9787 41.8786 37.2579 40.5994 37.2579 39.0214H34.4008ZM32.9079 48H30.0508C30.0508 49.578 31.33 50.8571 32.9079 50.8571V48ZM32.9079 40.2857V37.4286C31.33 37.4286 30.0508 38.7078 30.0508 40.2857H32.9079ZM34.4008 40.2857H37.2579C37.2579 38.7078 35.9787 37.4286 34.4008 37.4286V40.2857ZM34.4008 48V50.8571C35.9787 50.8571 37.2579 49.578 37.2579 48H34.4008ZM35.7651 39.0214V37.5714H30.0508V39.0214H35.7651ZM32.9079 40.4286H34.4008V34.7143H32.9079V40.4286ZM31.5436 37.5714V39.0214H37.2579V37.5714H31.5436ZM34.4008 36.1643H32.9079V41.8786H34.4008V36.1643ZM35.7651 48V40.2857H30.0508V48H35.7651ZM32.9079 43.1429H34.4008V37.4286H32.9079V43.1429ZM31.5436 40.2857V48H37.2579V40.2857H31.5436ZM34.4008 45.1429H32.9079V50.8571H34.4008V45.1429ZM37.26 48H34.4029C34.4029 49.578 35.6821 50.8571 37.26 50.8571V48ZM37.26 37.5V34.6429C35.6821 34.6429 34.4029 35.922 34.4029 37.5H37.26ZM38.7529 37.5H41.61C41.61 35.922 40.3309 34.6429 38.7529 34.6429V37.5ZM38.7529 48V50.8571C40.3309 50.8571 41.61 49.578 41.61 48H38.7529ZM40.1172 48V37.5H34.4029V48H40.1172ZM37.26 40.3571H38.7529V34.6429H37.26V40.3571ZM35.8958 37.5V48H41.61V37.5H35.8958ZM38.7529 45.1429H37.26V50.8571H38.7529V45.1429ZM43.555 48L40.8693 48.9748C41.2794 50.1048 42.353 50.8571 43.555 50.8571V48ZM40.755 40.2857V37.4286C39.8233 37.4286 38.9501 37.8829 38.4153 38.6459C37.8806 39.4089 37.7514 40.3847 38.0693 41.2605L40.755 40.2857ZM42.2622 40.2857L44.9582 39.3398C44.5565 38.1949 43.4755 37.4286 42.2622 37.4286V40.2857ZM44.3122 46.1286L41.6161 47.0745C42.0178 48.2194 43.0988 48.9857 44.3122 48.9857C45.5255 48.9857 46.6065 48.2194 47.0082 47.0745L44.3122 46.1286ZM46.3622 40.2857V37.4286C45.1488 37.4286 44.0678 38.1949 43.6661 39.3398L46.3622 40.2857ZM47.8693 40.2857L50.555 41.2605C50.8729 40.3847 50.7438 39.4089 50.209 38.6459C49.6743 37.8829 48.801 37.4286 47.8693 37.4286V40.2857ZM45.0693 48V50.8571C46.2714 50.8571 47.3449 50.1048 47.755 48.9748L45.0693 48ZM46.2407 47.0252L43.4407 39.3109L38.0693 41.2605L40.8693 48.9748L46.2407 47.0252ZM40.755 43.1429H42.2622V37.4286H40.755V43.1429ZM39.5661 41.2316L41.6161 47.0745L47.0082 45.1827L44.9582 39.3398L39.5661 41.2316ZM47.0082 47.0745L49.0582 41.2316L43.6661 39.3398L41.6161 45.1827L47.0082 47.0745ZM46.3622 43.1429H47.8693V37.4286H46.3622V43.1429ZM45.1836 39.3109L42.3836 47.0252L47.755 48.9748L50.555 41.2605L45.1836 39.3109ZM45.0693 45.1429H43.555V50.8571H45.0693V45.1429ZM50.8487 47.7143L49.4027 50.1785C49.4107 50.1832 49.4187 50.1879 49.4268 50.1925L50.8487 47.7143ZM49.4987 46.3071L46.9716 47.6403C46.9758 47.6483 46.98 47.6562 46.9843 47.6641L49.4987 46.3071ZM49.4915 42.0143L46.9518 40.7054C46.9492 40.7105 46.9465 40.7157 46.9439 40.7209L49.4915 42.0143ZM50.8201 40.5786L49.3562 38.125L50.8201 40.5786ZM54.8058 40.6214L53.2257 43.0019C53.2305 43.005 53.2352 43.0082 53.24 43.0113L54.8058 40.6214ZM56.0415 42.1714L53.3926 43.2423C53.3948 43.2476 53.397 43.253 53.3992 43.2583L56.0415 42.1714ZM56.3701 44.5643V47.4214C57.8796 47.4214 59.1286 46.2473 59.2218 44.7407L56.3701 44.5643ZM54.8772 44.5643H52.0201C52.0201 46.1422 53.2993 47.4214 54.8772 47.4214V44.5643ZM54.8772 44.0214H57.7344C57.7344 44.0113 57.7343 44.0012 57.7342 43.991L54.8772 44.0214ZM54.3629 42.0357L52.0955 43.7741C52.0995 43.7794 52.1036 43.7846 52.1077 43.7898L54.3629 42.0357ZM51.1701 42.1L53.4033 43.8821V43.8821L51.1701 42.1ZM51.1701 46.1143L48.9457 47.9074C48.9487 47.9111 48.9517 47.9149 48.9547 47.9186L51.1701 46.1143ZM54.0058 46.4929L55.5109 48.9215L55.5201 48.9157L54.0058 46.4929ZM54.8058 45.5786L55.6694 42.8551C54.3141 42.4254 52.8492 43.0574 52.232 44.3382L54.8058 45.5786ZM56.2701 46.0429L58.8906 47.1814C59.2129 46.4396 59.2057 45.596 58.8708 44.8598C58.5359 44.1236 57.9046 43.5638 57.1336 43.3193L56.2701 46.0429ZM54.9058 47.65L56.4064 50.0814C56.411 50.0785 56.4155 50.0757 56.4201 50.0729L54.9058 47.65ZM50.1201 44.5643H47.2629C47.2629 46.1422 48.5421 47.4214 50.1201 47.4214V44.5643ZM50.1201 43.4V40.5429C48.5421 40.5429 47.2629 41.822 47.2629 43.4H50.1201ZM55.6272 43.4H58.4844C58.4844 41.822 57.2052 40.5429 55.6272 40.5429V43.4ZM55.6272 44.5643V47.4214C57.2052 47.4214 58.4844 46.1422 58.4844 44.5643H55.6272ZM52.8701 45.3571C52.5291 45.3571 52.3594 45.2871 52.2706 45.2361L49.4268 50.1925C50.4998 50.8082 51.6777 51.0714 52.8701 51.0714V45.3571ZM52.2946 45.25C52.1788 45.1821 52.094 45.1003 52.013 44.9502L46.9843 47.6641C47.5509 48.714 48.3662 49.5703 49.4027 50.1785L52.2946 45.25ZM52.0257 44.974C51.9563 44.8425 51.8772 44.6138 51.8772 44.2071H46.1629C46.1629 45.391 46.4029 46.5623 46.9716 47.6403L52.0257 44.974ZM51.8772 44.2071C51.8772 43.7188 51.9674 43.4491 52.0391 43.3077L46.9439 40.7209C46.3871 41.8176 46.1629 43.0098 46.1629 44.2071H51.8772ZM52.0312 43.3232C52.1198 43.1512 52.2017 43.0813 52.284 43.0322L49.3562 38.125C48.3051 38.752 47.5013 39.6393 46.9518 40.7054L52.0312 43.3232ZM52.284 43.0322C52.3488 42.9935 52.488 42.9286 52.7987 42.9286V37.2143C51.6045 37.2143 50.4247 37.4874 49.3562 38.125L52.284 43.0322ZM52.7987 42.9286C53.1282 42.9286 53.2228 42.9999 53.2257 43.0019L56.3859 38.241C55.2841 37.5096 54.0406 37.2143 52.7987 37.2143V42.9286ZM53.24 43.0113C53.2583 43.0233 53.3173 43.056 53.3926 43.2423L58.6904 41.1006C58.2229 39.944 57.458 38.9433 56.3716 38.2315L53.24 43.0113ZM53.3992 43.2583C53.4721 43.4356 53.556 43.7807 53.5184 44.3879L59.2218 44.7407C59.2985 43.5003 59.1633 42.2501 58.6838 41.0845L53.3992 43.2583ZM56.3701 41.7071H54.8772V47.4214H56.3701V41.7071ZM57.7344 44.5643V44.0214H52.0201V44.5643H57.7344ZM57.7342 43.991C57.722 42.8423 57.5136 41.4328 56.6182 40.2816L52.1077 43.7898C51.9818 43.628 51.9631 43.5216 51.9756 43.5699C51.9886 43.6201 52.0172 43.7688 52.0203 44.0518L57.7342 43.991ZM56.6304 40.2973C55.6265 38.988 54.1733 38.5357 52.8558 38.5357V44.25C52.8976 44.25 52.7956 44.257 52.6188 44.1816C52.423 44.0981 52.234 43.9547 52.0955 43.7741L56.6304 40.2973ZM52.8558 38.5357C51.468 38.5357 49.9835 39.0062 48.9368 40.3179L53.4033 43.8821C53.2896 44.0246 53.1347 44.139 52.9789 44.2044C52.8401 44.2626 52.7778 44.25 52.8558 44.25V38.5357ZM48.9368 40.3179C48.0038 41.4871 47.7487 42.9021 47.7487 44.1429H53.4629C53.4629 43.8912 53.4903 43.7632 53.5009 43.725C53.5095 43.6937 53.4937 43.7689 53.4033 43.8821L48.9368 40.3179ZM47.7487 44.1429C47.7487 45.3779 48.02 46.7591 48.9457 47.9074L53.3945 44.3212C53.4774 44.424 53.4973 44.4978 53.4937 44.4852C53.4879 44.4649 53.4629 44.3617 53.4629 44.1429H47.7487ZM48.9547 47.9186C49.979 49.1762 51.4122 49.6643 52.7987 49.6643V43.95C52.752 43.95 52.8316 43.9426 52.9779 44.0048C53.138 44.0729 53.2834 44.1847 53.3855 44.31L48.9547 47.9186ZM52.7987 49.6643C53.7036 49.6643 54.6474 49.4566 55.5109 48.9215L52.5008 44.0643C52.586 44.0115 52.6673 43.9801 52.7306 43.9636C52.7911 43.9478 52.8183 43.95 52.7987 43.95V49.6643ZM55.5201 48.9157C56.3597 48.391 56.9755 47.6575 57.3796 46.819L52.232 44.3382C52.2392 44.3232 52.2632 44.2788 52.3127 44.2221C52.3634 44.1642 52.4252 44.1114 52.4915 44.07L55.5201 48.9157ZM53.9423 48.3021L55.4065 48.7664L57.1336 43.3193L55.6694 42.8551L53.9423 48.3021ZM53.6496 44.9043C53.5684 45.0912 53.4869 45.1676 53.3915 45.2271L56.4201 50.0729C57.5438 49.3705 58.3718 48.3754 58.8906 47.1814L53.6496 44.9043ZM53.4052 45.2186C53.267 45.304 53.112 45.3571 52.8701 45.3571V51.0714C54.1234 51.0714 55.3256 50.7484 56.4064 50.0814L53.4052 45.2186ZM52.9772 44.5643V43.4H47.2629V44.5643H52.9772ZM50.1201 46.2571H55.6272V40.5429H50.1201V46.2571ZM52.7701 43.4V44.5643H58.4844V43.4H52.7701ZM55.6272 41.7071H50.1201V47.4214H55.6272V41.7071ZM58.5441 48H55.6869C55.6869 49.578 56.9661 50.8571 58.5441 50.8571V48ZM58.5441 40.2857V37.4286C56.9661 37.4286 55.6869 38.7078 55.6869 40.2857H58.5441ZM59.8727 40.2857H62.7298C62.7298 38.7078 61.4506 37.4286 59.8727 37.4286V40.2857ZM59.8727 42.1571L57.6031 43.8927C58.3471 44.8657 59.6286 45.2562 60.7888 44.8634C61.949 44.4706 62.7298 43.382 62.7298 42.1571H59.8727ZM59.6869 41.9143L57.0202 40.8886C56.6638 41.8155 56.8141 42.861 57.4173 43.6499L59.6869 41.9143ZM60.0584 41.2357L62.3505 42.9415C62.3567 42.9331 62.3629 42.9247 62.369 42.9162L60.0584 41.2357ZM60.5869 40.7214L62.1718 43.0987C62.2064 43.0756 62.2405 43.0518 62.2741 43.0272L60.5869 40.7214ZM61.2369 40.3929L62.1077 43.1141C62.1187 43.1106 62.1296 43.107 62.1404 43.1034L61.2369 40.3929ZM61.9798 40.25L62.1413 43.1026C62.1591 43.1016 62.177 43.1004 62.1948 43.099L61.9798 40.25ZM62.7084 40.2857H65.5655C65.5655 38.9068 64.5807 37.7247 63.2245 37.4756L62.7084 40.2857ZM62.7084 41.6857L61.9787 44.4481C62.8358 44.6745 63.7494 44.4902 64.4517 43.9493C65.154 43.4085 65.5655 42.5722 65.5655 41.6857H62.7084ZM61.8655 41.6286L61.6029 38.7835L61.5988 38.7839L61.8655 41.6286ZM61.0227 41.9214L62.5748 44.3202L62.5766 44.319L61.0227 41.9214ZM60.4441 42.4929L58.0357 40.9556C58.0279 40.9679 58.0202 40.9802 58.0126 40.9925L60.4441 42.4929ZM60.1441 43.2429L62.9297 43.8782L62.9321 43.8677L60.1441 43.2429ZM60.0512 48V50.8571C61.6292 50.8571 62.9084 49.578 62.9084 48H60.0512ZM61.4012 48V40.2857H55.6869V48H61.4012ZM58.5441 43.1429H59.8727V37.4286H58.5441V43.1429ZM57.0155 40.2857V42.1571H62.7298V40.2857H57.0155ZM62.1423 40.4216L61.9565 40.1787L57.4173 43.6499L57.6031 43.8927L62.1423 40.4216ZM62.3536 42.9399C62.3569 42.9316 62.3584 42.929 62.3575 42.9308C62.3565 42.9326 62.3541 42.9366 62.3505 42.9415L57.7663 39.53C57.4526 39.9514 57.2051 40.4079 57.0202 40.8886L62.3536 42.9399ZM62.369 42.9162C62.3381 42.9587 62.2742 43.0304 62.1718 43.0987L59.0021 38.3441C58.4997 38.6791 58.0834 39.0937 57.7477 39.5552L62.369 42.9162ZM62.2741 43.0272C62.2131 43.0719 62.1525 43.0998 62.1077 43.1141L60.3662 37.6716C59.8452 37.8383 59.3513 38.0853 58.8998 38.4156L62.2741 43.0272ZM62.1404 43.1034C62.1446 43.102 62.1457 43.1019 62.1444 43.1022C62.143 43.1024 62.1417 43.1026 62.1413 43.1026L61.8183 37.3974C61.3102 37.4262 60.8132 37.5224 60.3334 37.6823L62.1404 43.1034ZM62.1948 43.099C62.2077 43.0981 62.2129 43.0984 62.2113 43.0984C62.2097 43.0983 62.2029 43.0978 62.1922 43.0958L63.2245 37.4756C62.7346 37.3856 62.2453 37.3647 61.7648 37.401L62.1948 43.099ZM59.8512 40.2857V41.6857H65.5655V40.2857H59.8512ZM63.4381 38.9233C62.8072 38.7567 62.1835 38.7299 61.6029 38.7835L62.1281 44.4736C62.1665 44.4701 62.1048 44.4814 61.9787 44.4481L63.4381 38.9233ZM61.5988 38.7839C60.8347 38.8555 60.1121 39.1068 59.4687 39.5238L62.5766 44.319C62.5185 44.3567 62.4468 44.3933 62.364 44.4221C62.2812 44.4509 62.2019 44.4667 62.1322 44.4732L61.5988 38.7839ZM59.4705 39.5227C58.9149 39.8821 58.4181 40.3566 58.0357 40.9556L62.8524 44.0301C62.7558 44.1815 62.6447 44.275 62.5748 44.3202L59.4705 39.5227ZM58.0126 40.9925C57.6956 41.5062 57.4821 42.0559 57.3561 42.618L62.9321 43.8677C62.9299 43.8775 62.9164 43.9271 62.8756 43.9932L58.0126 40.9925ZM57.3585 42.6075C57.2448 43.106 57.1941 43.6086 57.1941 44.1071H62.9084C62.9084 43.9962 62.9196 43.9226 62.9297 43.8782L57.3585 42.6075ZM57.1941 44.1071V48H62.9084V44.1071H57.1941ZM60.0512 45.1429H58.5441V50.8571H60.0512V45.1429Z" fill="#81A5B0" mask="url(#path-9-outside-1_108_19669)"/>
<defs>
<filter id="filter0_ii_108_19669" x="16.8072" y="31.7857" width="51.6156" height="22.1429" filterUnits="userSpaceOnUse" color-interpolation-filters="sRGB">
<feFlood flood-opacity="0" result="BackgroundImageFix"/>
<feBlend mode="normal" in="SourceGraphic" in2="BackgroundImageFix" result="shape"/>
<feColorMatrix in="SourceAlpha" type="matrix" values="0 0 0 0 0 0 0 0 0 0 0 0 0 0 0 0 0 0 127 0" result="hardAlpha"/>
<feOffset dx="5.71429" dy="5.71429"/>
<feGaussianBlur stdDeviation="2.85714"/>
<feComposite in2="hardAlpha" operator="arithmetic" k2="-1" k3="1"/>
<feColorMatrix type="matrix" values="0 0 0 0 0 0 0 0 0 0 0 0 0 0 0 0 0 0 0.25 0"/>
<feBlend mode="normal" in2="shape" result="effect1_innerShadow_108_19669"/>
<feColorMatrix in="SourceAlpha" type="matrix" values="0 0 0 0 0 0 0 0 0 0 0 0 0 0 0 0 0 0 127 0" result="hardAlpha"/>
<feOffset dx="-5.71429" dy="-5.71429"/>
<feGaussianBlur stdDeviation="5.71429"/>
<feComposite in2="hardAlpha" operator="arithmetic" k2="-1" k3="1"/>
<feColorMatrix type="matrix" values="0 0 0 0 0.983333 0 0 0 0 0.954653 0 0 0 0 0.954653 0 0 0 0.25 0"/>
<feBlend mode="normal" in2="effect1_innerShadow_108_19669" result="effect2_innerShadow_108_19669"/>
</filter>
</defs>
</svg>
