<svg width="96" height="96" viewBox="0 0 96 96" fill="none" xmlns="http://www.w3.org/2000/svg">
<path d="M92 48C92 72.3005 72.3005 92 48 92C23.6995 92 4 72.3005 4 48C4 23.6995 23.6995 4 48 4C72.3005 4 92 23.6995 92 48Z" fill="#BCCCD2"/>
<path fill-rule="evenodd" clip-rule="evenodd" d="M95.2597 48C95.2597 74.1006 74.101 95.2592 48.0005 95.2592C21.8999 95.2592 0.741211 74.1006 0.741211 48C0.741211 21.8994 21.8999 0.740723 48.0005 0.740723C74.101 0.740723 95.2597 21.8994 95.2597 48ZM48.0005 92C72.301 92 92.0005 72.3005 92.0005 48C92.0005 23.6995 72.301 3.99998 48.0005 3.99998C23.6999 3.99998 4.00047 23.6995 4.00047 48C4.00047 72.3005 23.6999 92 48.0005 92Z" fill="#81A5B0"/>
<path fill-rule="evenodd" clip-rule="evenodd" d="M7.25951 49.6296C6.35949 49.6296 5.62988 48.9 5.62988 48C5.62989 24.5995 24.5997 5.62964 48.0003 5.62964C48.9003 5.62964 49.6299 6.35925 49.6299 7.25927C49.6299 8.15929 48.9003 8.8889 48.0003 8.8889C26.3998 8.88889 8.88914 26.3995 8.88914 48C8.88914 48.9 8.15953 49.6296 7.25951 49.6296Z" fill="#D0DEE3"/>
<path fill-rule="evenodd" clip-rule="evenodd" d="M88.7405 46.3704C89.6405 46.3704 90.3701 47.1 90.3701 48C90.3701 71.4005 71.4003 90.3704 47.9997 90.3704C47.0997 90.3704 46.3701 89.6408 46.3701 88.7407C46.3701 87.8407 47.0997 87.1111 47.9997 87.1111C69.6002 87.1111 87.1109 69.6005 87.1109 48C87.1109 47.1 87.8405 46.3704 88.7405 46.3704Z" fill="#A2B9C1"/>
<path d="M80.5924 48C80.5924 66.0004 66.0002 80.5926 47.9998 80.5926C29.9994 80.5926 15.4072 66.0004 15.4072 48C15.4072 29.9996 29.9994 15.4074 47.9998 15.4074C66.0002 15.4074 80.5924 29.9996 80.5924 48Z" fill="#C7D4D8"/>
<path fill-rule="evenodd" clip-rule="evenodd" d="M83.8521 48C83.8521 67.8004 67.8007 83.8518 48.0003 83.8518C28.1999 83.8518 12.1484 67.8004 12.1484 48C12.1484 28.1996 28.1999 12.1481 48.0003 12.1481C67.8007 12.1481 83.8521 28.1996 83.8521 48ZM48.0003 80.5926C66.0007 80.5926 80.5929 66.0004 80.5929 48C80.5929 29.9996 66.0007 15.4074 48.0003 15.4074C29.9999 15.4074 15.4077 29.9996 15.4077 48C15.4077 66.0004 29.9999 80.5926 48.0003 80.5926Z" fill="#81A5B0"/>
<path fill-rule="evenodd" clip-rule="evenodd" d="M47.9999 75.7037C63.3003 75.7037 75.7036 63.3003 75.7036 48C75.7036 47.1 76.4332 46.3704 77.3333 46.3704C78.2333 46.3704 78.9629 47.1 78.9629 48C78.9629 65.1004 65.1003 78.963 47.9999 78.9629C47.0999 78.9629 46.3703 78.2333 46.3703 77.3333C46.3703 76.4333 47.0999 75.7037 47.9999 75.7037Z" fill="#B5C3C8"/>
<path fill-rule="evenodd" clip-rule="evenodd" d="M48.0001 20.2963C32.6997 20.2963 20.2964 32.6997 20.2964 48C20.2964 48.9 19.5668 49.6296 18.6667 49.6296C17.7667 49.6296 17.0371 48.9 17.0371 48C17.0371 30.8996 30.8997 17.037 48.0001 17.037C48.9001 17.037 49.6297 17.7667 49.6297 18.6667C49.6297 19.5667 48.9001 20.2963 48.0001 20.2963Z" fill="#D9EAEF"/>
<mask id="path-9-outside-1_1117_12218" maskUnits="userSpaceOnUse" x="17" y="30" width="63" height="38" fill="black">
<rect fill="white" x="17" y="30" width="63" height="38"/>
<path d="M32.6943 44.2143C31.9562 44.2143 31.2895 44.0881 30.6943 43.8357C30.1038 43.5786 29.6157 43.2143 29.23 42.7429C28.849 42.2667 28.6014 41.7024 28.4871 41.05L30.0443 40.8143C30.2014 41.4429 30.53 41.9333 31.03 42.2857C31.53 42.6333 32.1133 42.8071 32.78 42.8071C33.1943 42.8071 33.5752 42.7429 33.9228 42.6143C34.2704 42.481 34.549 42.2929 34.7585 42.05C34.9728 41.8024 35.08 41.5071 35.08 41.1643C35.08 40.9786 35.0466 40.8143 34.98 40.6714C34.9181 40.5286 34.83 40.4048 34.7157 40.3C34.6062 40.1905 34.4704 40.0976 34.3085 40.0214C34.1514 39.9405 33.9776 39.8714 33.7871 39.8143L31.1514 39.0357C30.8943 38.9595 30.6323 38.8619 30.3657 38.7429C30.099 38.619 29.8538 38.4595 29.63 38.2643C29.4109 38.0643 29.2323 37.819 29.0943 37.5286C28.9562 37.2333 28.8871 36.8762 28.8871 36.4571C28.8871 35.8238 29.049 35.2881 29.3728 34.85C29.7014 34.4071 30.1443 34.0738 30.7014 33.85C31.2585 33.6214 31.8823 33.5071 32.5728 33.5071C33.2681 33.5167 33.8895 33.6405 34.4371 33.8786C34.9895 34.1167 35.4466 34.4595 35.8085 34.9071C36.1752 35.35 36.4276 35.8881 36.5657 36.5214L34.9657 36.7929C34.8943 36.4071 34.7419 36.0762 34.5085 35.8C34.2752 35.519 33.9895 35.3048 33.6514 35.1571C33.3133 35.0048 32.9466 34.9262 32.5514 34.9214C32.1704 34.9119 31.8204 34.969 31.5014 35.0929C31.1871 35.2167 30.9347 35.3905 30.7443 35.6143C30.5585 35.8381 30.4657 36.0952 30.4657 36.3857C30.4657 36.6714 30.549 36.9024 30.7157 37.0786C30.8823 37.2548 31.0871 37.3952 31.33 37.5C31.5776 37.6 31.8228 37.6833 32.0657 37.75L33.9657 38.2857C34.2038 38.3524 34.4728 38.4429 34.7728 38.5571C35.0776 38.6667 35.3704 38.8214 35.6514 39.0214C35.9371 39.2214 36.1728 39.4881 36.3585 39.8214C36.5443 40.15 36.6371 40.5643 36.6371 41.0643C36.6371 41.5833 36.5323 42.0405 36.3228 42.4357C36.1133 42.8262 35.8252 43.1548 35.4585 43.4214C35.0966 43.6833 34.6776 43.881 34.2014 44.0143C33.7252 44.1476 33.2228 44.2143 32.6943 44.2143ZM38.8736 35.0214V33.5714H40.3665V35.0214H38.8736ZM38.8736 44V36.2857H40.3665V44H38.8736ZM43.2257 44V33.5H44.7186V44H43.2257ZM49.5207 44L46.7207 36.2857H48.2278L50.2778 42.1286L52.3278 36.2857H53.835L51.035 44H49.5207ZM58.8358 44.2143C58.0691 44.2143 57.3953 44.0476 56.8143 43.7143C56.2382 43.3762 55.7882 42.9071 55.4643 42.3071C55.1453 41.7024 54.9858 41.0024 54.9858 40.2071C54.9858 39.3643 55.1429 38.6333 55.4572 38.0143C55.7762 37.3952 56.2191 36.9167 56.7858 36.5786C57.3524 36.2405 58.012 36.0714 58.7643 36.0714C59.5501 36.0714 60.2191 36.2548 60.7715 36.6214C61.3239 36.9833 61.7358 37.5 62.0072 38.1714C62.2834 38.8429 62.3929 39.6405 62.3358 40.5643H60.8429V40.0214C60.8334 39.1262 60.662 38.4643 60.3286 38.0357C60.0001 37.6071 59.4977 37.3929 58.8215 37.3929C58.0739 37.3929 57.512 37.6286 57.1358 38.1C56.7596 38.5714 56.5715 39.2524 56.5715 40.1429C56.5715 40.9905 56.7596 41.6476 57.1358 42.1143C57.512 42.5762 58.0548 42.8071 58.7643 42.8071C59.231 42.8071 59.6334 42.7024 59.9715 42.4929C60.3143 42.2786 60.581 41.9738 60.7715 41.5786L62.2358 42.0429C61.9358 42.7333 61.481 43.269 60.8715 43.65C60.262 44.0262 59.5834 44.2143 58.8358 44.2143ZM56.0858 40.5643V39.4H61.5929V40.5643H56.0858ZM64.5098 44V36.2857H65.8383V38.1571L65.6526 37.9143C65.7479 37.6667 65.8717 37.4405 66.0241 37.2357C66.1764 37.0262 66.3526 36.8548 66.5526 36.7214C66.7479 36.5786 66.9645 36.469 67.2026 36.3929C67.4455 36.3119 67.6931 36.2643 67.9455 36.25C68.1979 36.231 68.4407 36.2429 68.6741 36.2857V37.6857C68.4217 37.619 68.1407 37.6 67.8312 37.6286C67.5264 37.6571 67.2455 37.7548 66.9883 37.9214C66.7455 38.0786 66.5526 38.269 66.4098 38.4929C66.2717 38.7167 66.1717 38.9667 66.1098 39.2429C66.0479 39.5143 66.0169 39.8024 66.0169 40.1071V44H64.5098ZM24.9169 61.2143C24.1788 61.2143 23.5121 61.0881 22.9169 60.8357C22.3264 60.5786 21.8383 60.2143 21.4526 59.7429C21.0717 59.2667 20.824 58.7024 20.7098 58.05L22.2669 57.8143C22.424 58.4429 22.7526 58.9333 23.2526 59.2857C23.7526 59.6333 24.336 59.8071 25.0026 59.8071C25.4169 59.8071 25.7979 59.7429 26.1455 59.6143C26.4931 59.481 26.7717 59.2929 26.9812 59.05C27.1955 58.8024 27.3026 58.5071 27.3026 58.1643C27.3026 57.9786 27.2693 57.8143 27.2026 57.6714C27.1407 57.5286 27.0526 57.4048 26.9383 57.3C26.8288 57.1905 26.6931 57.0976 26.5312 57.0214C26.3741 56.9405 26.2002 56.8714 26.0098 56.8143L23.374 56.0357C23.1169 55.9595 22.855 55.8619 22.5883 55.7429C22.3217 55.619 22.0764 55.4595 21.8526 55.2643C21.6336 55.0643 21.455 54.819 21.3169 54.5286C21.1788 54.2333 21.1098 53.8762 21.1098 53.4571C21.1098 52.8238 21.2717 52.2881 21.5955 51.85C21.924 51.4071 22.3669 51.0738 22.924 50.85C23.4812 50.6214 24.105 50.5071 24.7955 50.5071C25.4907 50.5167 26.1121 50.6405 26.6598 50.8786C27.2121 51.1167 27.6693 51.4595 28.0312 51.9071C28.3979 52.35 28.6502 52.8881 28.7883 53.5214L27.1883 53.7929C27.1169 53.4071 26.9645 53.0762 26.7312 52.8C26.4979 52.519 26.2121 52.3048 25.8741 52.1571C25.536 52.0048 25.1693 51.9262 24.7741 51.9214C24.3931 51.9119 24.0431 51.969 23.7241 52.0929C23.4098 52.2167 23.1574 52.3905 22.9669 52.6143C22.7812 52.8381 22.6883 53.0952 22.6883 53.3857C22.6883 53.6714 22.7717 53.9024 22.9383 54.0786C23.105 54.2548 23.3098 54.3952 23.5526 54.5C23.8002 54.6 24.0455 54.6833 24.2883 54.75L26.1883 55.2857C26.4264 55.3524 26.6955 55.4429 26.9955 55.5571C27.3002 55.6667 27.5931 55.8214 27.8741 56.0214C28.1598 56.2214 28.3955 56.4881 28.5812 56.8214C28.7669 57.15 28.8598 57.5643 28.8598 58.0643C28.8598 58.5833 28.755 59.0405 28.5455 59.4357C28.336 59.8262 28.0479 60.1548 27.6812 60.4214C27.3193 60.6833 26.9002 60.881 26.4241 61.0143C25.9479 61.1476 25.4455 61.2143 24.9169 61.2143ZM34.5748 61.2143C33.8367 61.2143 33.2177 61.0357 32.7177 60.6786C32.2177 60.3167 31.8391 59.8286 31.582 59.2143C31.3248 58.6 31.1963 57.9071 31.1963 57.1357C31.1963 56.3643 31.3225 55.6714 31.5748 55.0571C31.832 54.4429 32.2082 53.9595 32.7034 53.6071C33.2034 53.25 33.8177 53.0714 34.5463 53.0714C35.2701 53.0714 35.8939 53.25 36.4177 53.6071C36.9463 53.9595 37.3534 54.4429 37.6391 55.0571C37.9248 55.6667 38.0677 56.3595 38.0677 57.1357C38.0677 57.9071 37.9248 58.6024 37.6391 59.2214C37.3582 59.8357 36.9558 60.3214 36.432 60.6786C35.9129 61.0357 35.2939 61.2143 34.5748 61.2143ZM30.9463 64.4286V53.2857H32.2748V58.8357H32.4463V64.4286H30.9463ZM34.3677 59.8643C34.8439 59.8643 35.2367 59.7429 35.5463 59.5C35.8605 59.2571 36.0939 58.931 36.2463 58.5214C36.4034 58.1071 36.482 57.6452 36.482 57.1357C36.482 56.631 36.4034 56.1738 36.2463 55.7643C36.0939 55.3548 35.8582 55.0286 35.5391 54.7857C35.2201 54.5429 34.8129 54.4214 34.3177 54.4214C33.851 54.4214 33.4653 54.5357 33.1605 54.7643C32.8605 54.9929 32.6367 55.3119 32.4891 55.7214C32.3463 56.131 32.2748 56.6024 32.2748 57.1357C32.2748 57.669 32.3463 58.1405 32.4891 58.55C32.632 58.9595 32.8582 59.281 33.1677 59.5143C33.4772 59.7476 33.8772 59.8643 34.3677 59.8643ZM40.3591 52.0214V50.5714H41.852V52.0214H40.3591ZM40.3591 61V53.2857H41.852V61H40.3591ZM49.9826 61V57.2071C49.9826 56.9071 49.9565 56.6 49.9041 56.2857C49.8565 55.9667 49.7612 55.6714 49.6184 55.4C49.4803 55.1286 49.2826 54.9095 49.0255 54.7429C48.7731 54.5762 48.4422 54.4929 48.0326 54.4929C47.766 54.4929 47.5136 54.5381 47.2755 54.6286C47.0374 54.7143 46.8279 54.8548 46.6469 55.05C46.4707 55.2452 46.3303 55.5024 46.2255 55.8214C46.1255 56.1405 46.0755 56.5286 46.0755 56.9857L45.1469 56.6357C45.1469 55.9357 45.2779 55.319 45.5398 54.7857C45.8017 54.2476 46.1779 53.8286 46.6684 53.5286C47.1588 53.2286 47.7517 53.0786 48.4469 53.0786C48.9803 53.0786 49.4279 53.1643 49.7898 53.3357C50.1517 53.5071 50.4446 53.7333 50.6684 54.0143C50.8969 54.2905 51.0707 54.5929 51.1898 54.9214C51.3088 55.25 51.3898 55.5714 51.4326 55.8857C51.4755 56.2 51.4969 56.4762 51.4969 56.7143V61H49.9826ZM44.5612 61V53.2857H45.8969V55.5143H46.0755V61H44.5612ZM59.3431 61V57.2071C59.3431 56.9071 59.3169 56.6 59.2646 56.2857C59.2169 55.9667 59.1217 55.6714 58.9789 55.4C58.8408 55.1286 58.6431 54.9095 58.386 54.7429C58.1336 54.5762 57.8027 54.4929 57.3931 54.4929C57.1265 54.4929 56.8741 54.5381 56.636 54.6286C56.3979 54.7143 56.1884 54.8548 56.0074 55.05C55.8312 55.2452 55.6908 55.5024 55.586 55.8214C55.486 56.1405 55.436 56.5286 55.436 56.9857L54.5074 56.6357C54.5074 55.9357 54.6384 55.319 54.9003 54.7857C55.1622 54.2476 55.5384 53.8286 56.0289 53.5286C56.5193 53.2286 57.1122 53.0786 57.8074 53.0786C58.3408 53.0786 58.7884 53.1643 59.1503 53.3357C59.5122 53.5071 59.805 53.7333 60.0289 54.0143C60.2574 54.2905 60.4312 54.5929 60.5503 54.9214C60.6693 55.25 60.7503 55.5714 60.7931 55.8857C60.836 56.2 60.8574 56.4762 60.8574 56.7143V61H59.3431ZM53.9217 61V53.2857H55.2574V55.5143H55.436V61H53.9217ZM66.6131 61.2143C65.8465 61.2143 65.1726 61.0476 64.5917 60.7143C64.0155 60.3762 63.5655 59.9071 63.2417 59.3071C62.9226 58.7024 62.7631 58.0024 62.7631 57.2071C62.7631 56.3643 62.9203 55.6333 63.2345 55.0143C63.5536 54.3952 63.9965 53.9167 64.5631 53.5786C65.1298 53.2405 65.7893 53.0714 66.5417 53.0714C67.3274 53.0714 67.9965 53.2548 68.5488 53.6214C69.1012 53.9833 69.5131 54.5 69.7845 55.1714C70.0607 55.8429 70.1703 56.6405 70.1131 57.5643H68.6203V57.0214C68.6107 56.1262 68.4393 55.4643 68.106 55.0357C67.7774 54.6071 67.275 54.3929 66.5988 54.3929C65.8512 54.3929 65.2893 54.6286 64.9131 55.1C64.5369 55.5714 64.3488 56.2524 64.3488 57.1429C64.3488 57.9905 64.5369 58.6476 64.9131 59.1143C65.2893 59.5762 65.8322 59.8071 66.5417 59.8071C67.0084 59.8071 67.4107 59.7024 67.7488 59.4929C68.0917 59.2786 68.3584 58.9738 68.5488 58.5786L70.0131 59.0429C69.7131 59.7333 69.2584 60.269 68.6488 60.65C68.0393 61.0262 67.3607 61.2143 66.6131 61.2143ZM63.8631 57.5643V56.4H69.3703V57.5643H63.8631ZM72.2871 61V53.2857H73.6157V55.1571L73.43 54.9143C73.5252 54.6667 73.649 54.4405 73.8014 54.2357C73.9538 54.0262 74.13 53.8548 74.33 53.7214C74.5252 53.5786 74.7419 53.469 74.98 53.3929C75.2228 53.3119 75.4704 53.2643 75.7228 53.25C75.9752 53.231 76.2181 53.2429 76.4514 53.2857V54.6857C76.199 54.619 75.9181 54.6 75.6085 54.6286C75.3038 54.6571 75.0228 54.7548 74.7657 54.9214C74.5228 55.0786 74.33 55.269 74.1871 55.4929C74.049 55.7167 73.949 55.9667 73.8871 56.2429C73.8252 56.5143 73.7943 56.8024 73.7943 57.1071V61H72.2871Z"/>
</mask>
<g filter="url(#filter0_ii_1117_12218)">
<path d="M32.6943 44.2143C31.9562 44.2143 31.2895 44.0881 30.6943 43.8357C30.1038 43.5786 29.6157 43.2143 29.23 42.7429C28.849 42.2667 28.6014 41.7024 28.4871 41.05L30.0443 40.8143C30.2014 41.4429 30.53 41.9333 31.03 42.2857C31.53 42.6333 32.1133 42.8071 32.78 42.8071C33.1943 42.8071 33.5752 42.7429 33.9228 42.6143C34.2704 42.481 34.549 42.2929 34.7585 42.05C34.9728 41.8024 35.08 41.5071 35.08 41.1643C35.08 40.9786 35.0466 40.8143 34.98 40.6714C34.9181 40.5286 34.83 40.4048 34.7157 40.3C34.6062 40.1905 34.4704 40.0976 34.3085 40.0214C34.1514 39.9405 33.9776 39.8714 33.7871 39.8143L31.1514 39.0357C30.8943 38.9595 30.6323 38.8619 30.3657 38.7429C30.099 38.619 29.8538 38.4595 29.63 38.2643C29.4109 38.0643 29.2323 37.819 29.0943 37.5286C28.9562 37.2333 28.8871 36.8762 28.8871 36.4571C28.8871 35.8238 29.049 35.2881 29.3728 34.85C29.7014 34.4071 30.1443 34.0738 30.7014 33.85C31.2585 33.6214 31.8823 33.5071 32.5728 33.5071C33.2681 33.5167 33.8895 33.6405 34.4371 33.8786C34.9895 34.1167 35.4466 34.4595 35.8085 34.9071C36.1752 35.35 36.4276 35.8881 36.5657 36.5214L34.9657 36.7929C34.8943 36.4071 34.7419 36.0762 34.5085 35.8C34.2752 35.519 33.9895 35.3048 33.6514 35.1571C33.3133 35.0048 32.9466 34.9262 32.5514 34.9214C32.1704 34.9119 31.8204 34.969 31.5014 35.0929C31.1871 35.2167 30.9347 35.3905 30.7443 35.6143C30.5585 35.8381 30.4657 36.0952 30.4657 36.3857C30.4657 36.6714 30.549 36.9024 30.7157 37.0786C30.8823 37.2548 31.0871 37.3952 31.33 37.5C31.5776 37.6 31.8228 37.6833 32.0657 37.75L33.9657 38.2857C34.2038 38.3524 34.4728 38.4429 34.7728 38.5571C35.0776 38.6667 35.3704 38.8214 35.6514 39.0214C35.9371 39.2214 36.1728 39.4881 36.3585 39.8214C36.5443 40.15 36.6371 40.5643 36.6371 41.0643C36.6371 41.5833 36.5323 42.0405 36.3228 42.4357C36.1133 42.8262 35.8252 43.1548 35.4585 43.4214C35.0966 43.6833 34.6776 43.881 34.2014 44.0143C33.7252 44.1476 33.2228 44.2143 32.6943 44.2143ZM38.8736 35.0214V33.5714H40.3665V35.0214H38.8736ZM38.8736 44V36.2857H40.3665V44H38.8736ZM43.2257 44V33.5H44.7186V44H43.2257ZM49.5207 44L46.7207 36.2857H48.2278L50.2778 42.1286L52.3278 36.2857H53.835L51.035 44H49.5207ZM58.8358 44.2143C58.0691 44.2143 57.3953 44.0476 56.8143 43.7143C56.2382 43.3762 55.7882 42.9071 55.4643 42.3071C55.1453 41.7024 54.9858 41.0024 54.9858 40.2071C54.9858 39.3643 55.1429 38.6333 55.4572 38.0143C55.7762 37.3952 56.2191 36.9167 56.7858 36.5786C57.3524 36.2405 58.012 36.0714 58.7643 36.0714C59.5501 36.0714 60.2191 36.2548 60.7715 36.6214C61.3239 36.9833 61.7358 37.5 62.0072 38.1714C62.2834 38.8429 62.3929 39.6405 62.3358 40.5643H60.8429V40.0214C60.8334 39.1262 60.662 38.4643 60.3286 38.0357C60.0001 37.6071 59.4977 37.3929 58.8215 37.3929C58.0739 37.3929 57.512 37.6286 57.1358 38.1C56.7596 38.5714 56.5715 39.2524 56.5715 40.1429C56.5715 40.9905 56.7596 41.6476 57.1358 42.1143C57.512 42.5762 58.0548 42.8071 58.7643 42.8071C59.231 42.8071 59.6334 42.7024 59.9715 42.4929C60.3143 42.2786 60.581 41.9738 60.7715 41.5786L62.2358 42.0429C61.9358 42.7333 61.481 43.269 60.8715 43.65C60.262 44.0262 59.5834 44.2143 58.8358 44.2143ZM56.0858 40.5643V39.4H61.5929V40.5643H56.0858ZM64.5098 44V36.2857H65.8383V38.1571L65.6526 37.9143C65.7479 37.6667 65.8717 37.4405 66.0241 37.2357C66.1764 37.0262 66.3526 36.8548 66.5526 36.7214C66.7479 36.5786 66.9645 36.469 67.2026 36.3929C67.4455 36.3119 67.6931 36.2643 67.9455 36.25C68.1979 36.231 68.4407 36.2429 68.6741 36.2857V37.6857C68.4217 37.619 68.1407 37.6 67.8312 37.6286C67.5264 37.6571 67.2455 37.7548 66.9883 37.9214C66.7455 38.0786 66.5526 38.269 66.4098 38.4929C66.2717 38.7167 66.1717 38.9667 66.1098 39.2429C66.0479 39.5143 66.0169 39.8024 66.0169 40.1071V44H64.5098ZM24.9169 61.2143C24.1788 61.2143 23.5121 61.0881 22.9169 60.8357C22.3264 60.5786 21.8383 60.2143 21.4526 59.7429C21.0717 59.2667 20.824 58.7024 20.7098 58.05L22.2669 57.8143C22.424 58.4429 22.7526 58.9333 23.2526 59.2857C23.7526 59.6333 24.336 59.8071 25.0026 59.8071C25.4169 59.8071 25.7979 59.7429 26.1455 59.6143C26.4931 59.481 26.7717 59.2929 26.9812 59.05C27.1955 58.8024 27.3026 58.5071 27.3026 58.1643C27.3026 57.9786 27.2693 57.8143 27.2026 57.6714C27.1407 57.5286 27.0526 57.4048 26.9383 57.3C26.8288 57.1905 26.6931 57.0976 26.5312 57.0214C26.3741 56.9405 26.2002 56.8714 26.0098 56.8143L23.374 56.0357C23.1169 55.9595 22.855 55.8619 22.5883 55.7429C22.3217 55.619 22.0764 55.4595 21.8526 55.2643C21.6336 55.0643 21.455 54.819 21.3169 54.5286C21.1788 54.2333 21.1098 53.8762 21.1098 53.4571C21.1098 52.8238 21.2717 52.2881 21.5955 51.85C21.924 51.4071 22.3669 51.0738 22.924 50.85C23.4812 50.6214 24.105 50.5071 24.7955 50.5071C25.4907 50.5167 26.1121 50.6405 26.6598 50.8786C27.2121 51.1167 27.6693 51.4595 28.0312 51.9071C28.3979 52.35 28.6502 52.8881 28.7883 53.5214L27.1883 53.7929C27.1169 53.4071 26.9645 53.0762 26.7312 52.8C26.4979 52.519 26.2121 52.3048 25.8741 52.1571C25.536 52.0048 25.1693 51.9262 24.7741 51.9214C24.3931 51.9119 24.0431 51.969 23.7241 52.0929C23.4098 52.2167 23.1574 52.3905 22.9669 52.6143C22.7812 52.8381 22.6883 53.0952 22.6883 53.3857C22.6883 53.6714 22.7717 53.9024 22.9383 54.0786C23.105 54.2548 23.3098 54.3952 23.5526 54.5C23.8002 54.6 24.0455 54.6833 24.2883 54.75L26.1883 55.2857C26.4264 55.3524 26.6955 55.4429 26.9955 55.5571C27.3002 55.6667 27.5931 55.8214 27.8741 56.0214C28.1598 56.2214 28.3955 56.4881 28.5812 56.8214C28.7669 57.15 28.8598 57.5643 28.8598 58.0643C28.8598 58.5833 28.755 59.0405 28.5455 59.4357C28.336 59.8262 28.0479 60.1548 27.6812 60.4214C27.3193 60.6833 26.9002 60.881 26.4241 61.0143C25.9479 61.1476 25.4455 61.2143 24.9169 61.2143ZM34.5748 61.2143C33.8367 61.2143 33.2177 61.0357 32.7177 60.6786C32.2177 60.3167 31.8391 59.8286 31.582 59.2143C31.3248 58.6 31.1963 57.9071 31.1963 57.1357C31.1963 56.3643 31.3225 55.6714 31.5748 55.0571C31.832 54.4429 32.2082 53.9595 32.7034 53.6071C33.2034 53.25 33.8177 53.0714 34.5463 53.0714C35.2701 53.0714 35.8939 53.25 36.4177 53.6071C36.9463 53.9595 37.3534 54.4429 37.6391 55.0571C37.9248 55.6667 38.0677 56.3595 38.0677 57.1357C38.0677 57.9071 37.9248 58.6024 37.6391 59.2214C37.3582 59.8357 36.9558 60.3214 36.432 60.6786C35.9129 61.0357 35.2939 61.2143 34.5748 61.2143ZM30.9463 64.4286V53.2857H32.2748V58.8357H32.4463V64.4286H30.9463ZM34.3677 59.8643C34.8439 59.8643 35.2367 59.7429 35.5463 59.5C35.8605 59.2571 36.0939 58.931 36.2463 58.5214C36.4034 58.1071 36.482 57.6452 36.482 57.1357C36.482 56.631 36.4034 56.1738 36.2463 55.7643C36.0939 55.3548 35.8582 55.0286 35.5391 54.7857C35.2201 54.5429 34.8129 54.4214 34.3177 54.4214C33.851 54.4214 33.4653 54.5357 33.1605 54.7643C32.8605 54.9929 32.6367 55.3119 32.4891 55.7214C32.3463 56.131 32.2748 56.6024 32.2748 57.1357C32.2748 57.669 32.3463 58.1405 32.4891 58.55C32.632 58.9595 32.8582 59.281 33.1677 59.5143C33.4772 59.7476 33.8772 59.8643 34.3677 59.8643ZM40.3591 52.0214V50.5714H41.852V52.0214H40.3591ZM40.3591 61V53.2857H41.852V61H40.3591ZM49.9826 61V57.2071C49.9826 56.9071 49.9565 56.6 49.9041 56.2857C49.8565 55.9667 49.7612 55.6714 49.6184 55.4C49.4803 55.1286 49.2826 54.9095 49.0255 54.7429C48.7731 54.5762 48.4422 54.4929 48.0326 54.4929C47.766 54.4929 47.5136 54.5381 47.2755 54.6286C47.0374 54.7143 46.8279 54.8548 46.6469 55.05C46.4707 55.2452 46.3303 55.5024 46.2255 55.8214C46.1255 56.1405 46.0755 56.5286 46.0755 56.9857L45.1469 56.6357C45.1469 55.9357 45.2779 55.319 45.5398 54.7857C45.8017 54.2476 46.1779 53.8286 46.6684 53.5286C47.1588 53.2286 47.7517 53.0786 48.4469 53.0786C48.9803 53.0786 49.4279 53.1643 49.7898 53.3357C50.1517 53.5071 50.4446 53.7333 50.6684 54.0143C50.8969 54.2905 51.0707 54.5929 51.1898 54.9214C51.3088 55.25 51.3898 55.5714 51.4326 55.8857C51.4755 56.2 51.4969 56.4762 51.4969 56.7143V61H49.9826ZM44.5612 61V53.2857H45.8969V55.5143H46.0755V61H44.5612ZM59.3431 61V57.2071C59.3431 56.9071 59.3169 56.6 59.2646 56.2857C59.2169 55.9667 59.1217 55.6714 58.9789 55.4C58.8408 55.1286 58.6431 54.9095 58.386 54.7429C58.1336 54.5762 57.8027 54.4929 57.3931 54.4929C57.1265 54.4929 56.8741 54.5381 56.636 54.6286C56.3979 54.7143 56.1884 54.8548 56.0074 55.05C55.8312 55.2452 55.6908 55.5024 55.586 55.8214C55.486 56.1405 55.436 56.5286 55.436 56.9857L54.5074 56.6357C54.5074 55.9357 54.6384 55.319 54.9003 54.7857C55.1622 54.2476 55.5384 53.8286 56.0289 53.5286C56.5193 53.2286 57.1122 53.0786 57.8074 53.0786C58.3408 53.0786 58.7884 53.1643 59.1503 53.3357C59.5122 53.5071 59.805 53.7333 60.0289 54.0143C60.2574 54.2905 60.4312 54.5929 60.5503 54.9214C60.6693 55.25 60.7503 55.5714 60.7931 55.8857C60.836 56.2 60.8574 56.4762 60.8574 56.7143V61H59.3431ZM53.9217 61V53.2857H55.2574V55.5143H55.436V61H53.9217ZM66.6131 61.2143C65.8465 61.2143 65.1726 61.0476 64.5917 60.7143C64.0155 60.3762 63.5655 59.9071 63.2417 59.3071C62.9226 58.7024 62.7631 58.0024 62.7631 57.2071C62.7631 56.3643 62.9203 55.6333 63.2345 55.0143C63.5536 54.3952 63.9965 53.9167 64.5631 53.5786C65.1298 53.2405 65.7893 53.0714 66.5417 53.0714C67.3274 53.0714 67.9965 53.2548 68.5488 53.6214C69.1012 53.9833 69.5131 54.5 69.7845 55.1714C70.0607 55.8429 70.1703 56.6405 70.1131 57.5643H68.6203V57.0214C68.6107 56.1262 68.4393 55.4643 68.106 55.0357C67.7774 54.6071 67.275 54.3929 66.5988 54.3929C65.8512 54.3929 65.2893 54.6286 64.9131 55.1C64.5369 55.5714 64.3488 56.2524 64.3488 57.1429C64.3488 57.9905 64.5369 58.6476 64.9131 59.1143C65.2893 59.5762 65.8322 59.8071 66.5417 59.8071C67.0084 59.8071 67.4107 59.7024 67.7488 59.4929C68.0917 59.2786 68.3584 58.9738 68.5488 58.5786L70.0131 59.0429C69.7131 59.7333 69.2584 60.269 68.6488 60.65C68.0393 61.0262 67.3607 61.2143 66.6131 61.2143ZM63.8631 57.5643V56.4H69.3703V57.5643H63.8631ZM72.2871 61V53.2857H73.6157V55.1571L73.43 54.9143C73.5252 54.6667 73.649 54.4405 73.8014 54.2357C73.9538 54.0262 74.13 53.8548 74.33 53.7214C74.5252 53.5786 74.7419 53.469 74.98 53.3929C75.2228 53.3119 75.4704 53.2643 75.7228 53.25C75.9752 53.231 76.2181 53.2429 76.4514 53.2857V54.6857C76.199 54.619 75.9181 54.6 75.6085 54.6286C75.3038 54.6571 75.0228 54.7548 74.7657 54.9214C74.5228 55.0786 74.33 55.269 74.1871 55.4929C74.049 55.7167 73.949 55.9667 73.8871 56.2429C73.8252 56.5143 73.7943 56.8024 73.7943 57.1071V61H72.2871Z" fill="#D9EAEF"/>
</g>
<path d="M30.6943 43.8357L29.5535 46.4552C29.562 46.4589 29.5704 46.4626 29.5789 46.4662L30.6943 43.8357ZM29.23 42.7429L26.9989 44.5277C27.0054 44.5359 27.012 44.544 27.0187 44.5521L29.23 42.7429ZM28.4871 41.05L28.0595 38.225C27.2989 38.3402 26.6169 38.7571 26.1677 39.3816C25.7185 40.0061 25.5401 40.7853 25.6728 41.543L28.4871 41.05ZM30.0443 40.8143L32.8161 40.1213C32.4588 38.6921 31.0733 37.7688 29.6166 37.9893L30.0443 40.8143ZM31.03 42.2857L29.384 44.6211C29.389 44.6246 29.394 44.6281 29.399 44.6316L31.03 42.2857ZM33.9228 42.6143L34.914 45.294C34.9247 45.29 34.9354 45.286 34.946 45.2819L33.9228 42.6143ZM34.7585 42.05L32.5981 40.1803L32.5952 40.1836L34.7585 42.05ZM34.98 40.6714L32.3584 41.8075C32.3689 41.8317 32.3797 41.8557 32.3909 41.8797L34.98 40.6714ZM34.7157 40.3L32.6954 42.3203C32.7246 42.3496 32.7545 42.3782 32.785 42.4062L34.7157 40.3ZM34.3085 40.0214L33.0001 42.5614C33.0304 42.577 33.0611 42.5921 33.092 42.6066L34.3085 40.0214ZM33.7871 39.8143L34.6081 37.0776L34.5965 37.0742L33.7871 39.8143ZM31.1514 39.0357L30.3397 41.7751L30.342 41.7758L31.1514 39.0357ZM30.3657 38.7429L29.1625 41.3343C29.1753 41.3402 29.1881 41.3461 29.201 41.3518L30.3657 38.7429ZM29.63 38.2643L27.7035 40.3742C27.7194 40.3888 27.7355 40.4032 27.7518 40.4173L29.63 38.2643ZM29.0943 37.5286L26.5062 38.7391C26.5088 38.7445 26.5113 38.7499 26.5139 38.7553L29.0943 37.5286ZM29.3728 34.85L27.0783 33.1476L27.0752 33.1517L29.3728 34.85ZM30.7014 33.85L31.7664 36.5012C31.7729 36.4986 31.7794 36.496 31.7858 36.4933L30.7014 33.85ZM32.5728 33.5071L32.612 30.6503C32.5989 30.6501 32.5859 30.65 32.5728 30.65V33.5071ZM34.4371 33.8786L33.2979 36.4988L33.3062 36.5024L34.4371 33.8786ZM35.8085 34.9071L33.5867 36.7035C33.5937 36.7121 33.6007 36.7207 33.6078 36.7292L35.8085 34.9071ZM36.5657 36.5214L37.0435 39.3383C37.8134 39.2077 38.4963 38.7677 38.9334 38.1206C39.3704 37.4735 39.5236 36.6757 39.3572 35.9127L36.5657 36.5214ZM34.9657 36.7929L32.1563 37.3131C32.4406 38.8482 33.9044 39.8709 35.4435 39.6098L34.9657 36.7929ZM34.5085 35.8L32.3106 37.6254C32.3157 37.6316 32.3208 37.6377 32.326 37.6439L34.5085 35.8ZM33.6514 35.1571L32.4774 37.7619C32.4876 37.7666 32.4979 37.7711 32.5081 37.7756L33.6514 35.1571ZM32.5514 34.9214L32.48 37.7777C32.4923 37.778 32.5046 37.7782 32.517 37.7784L32.5514 34.9214ZM31.5014 35.0929L30.4678 32.4292C30.4632 32.431 30.4587 32.4328 30.4542 32.4345L31.5014 35.0929ZM30.7443 35.6143L28.5684 33.7625C28.5607 33.7716 28.5531 33.7807 28.5455 33.7898L30.7443 35.6143ZM31.33 37.5L30.1983 40.1235C30.2188 40.1323 30.2394 40.1409 30.2601 40.1493L31.33 37.5ZM32.0657 37.75L32.841 35.0001C32.8347 34.9983 32.8284 34.9965 32.822 34.9948L32.0657 37.75ZM33.9657 38.2857L33.1903 41.0356L33.1953 41.037L33.9657 38.2857ZM34.7728 38.5571L33.7557 41.2271C33.7726 41.2335 33.7895 41.2398 33.8065 41.2459L34.7728 38.5571ZM35.6514 39.0214L33.9944 41.349C34.0006 41.3534 34.0068 41.3578 34.0129 41.3621L35.6514 39.0214ZM36.3585 39.8214L33.8626 41.212C33.8655 41.2171 33.8683 41.2222 33.8712 41.2273L36.3585 39.8214ZM36.3228 42.4357L38.8404 43.7866C38.8427 43.7824 38.8449 43.7782 38.8472 43.7739L36.3228 42.4357ZM35.4585 43.4214L37.1336 45.7361L37.139 45.7321L35.4585 43.4214ZM34.2014 44.0143L33.431 41.263V41.263L34.2014 44.0143ZM32.6943 41.3571C32.2854 41.3571 32.0055 41.2883 31.8096 41.2053L29.5789 46.4662C30.5735 46.8879 31.6269 47.0714 32.6943 47.0714V41.3571ZM31.835 41.2162C31.6361 41.1296 31.5231 41.0336 31.4413 40.9336L27.0187 44.5521C27.7083 45.395 28.5714 46.0276 29.5535 46.4552L31.835 41.2162ZM31.461 40.958C31.4053 40.8884 31.3402 40.7784 31.3014 40.557L25.6728 41.543C25.8626 42.6264 26.2927 43.6449 26.9989 44.5277L31.461 40.958ZM28.9147 43.875L30.4719 43.6392L29.6166 37.9893L28.0595 38.225L28.9147 43.875ZM27.2724 41.5072C27.5851 42.7579 28.2889 43.8493 29.384 44.6211L32.6759 39.9503C32.7016 39.9684 32.7446 40.0072 32.7823 40.0634C32.8185 40.1175 32.8225 40.1469 32.8161 40.1213L27.2724 41.5072ZM29.399 44.6316C30.4232 45.3437 31.5881 45.6643 32.78 45.6643V39.95C32.6968 39.95 32.6613 39.9395 32.6583 39.9386C32.6559 39.9379 32.6569 39.938 32.6597 39.9394C32.6625 39.9407 32.6632 39.9414 32.6609 39.9398L29.399 44.6316ZM32.78 45.6643C33.4929 45.6643 34.2139 45.5529 34.914 45.294L32.9317 39.9346C32.9315 39.9346 32.9293 39.9354 32.9247 39.9366C32.9201 39.9379 32.9123 39.9397 32.901 39.9416C32.8784 39.9454 32.8392 39.95 32.78 39.95V45.6643ZM34.946 45.2819C35.6628 45.007 36.358 44.5699 36.9218 43.9164L32.5952 40.1836C32.74 40.0158 32.8781 39.9549 32.8996 39.9466L34.946 45.2819ZM36.919 43.9196C37.6052 43.1268 37.9371 42.1586 37.9371 41.1643H32.2228C32.2228 41.0338 32.2441 40.8604 32.3139 40.6682C32.3843 40.474 32.4868 40.3089 32.5981 40.1804L36.919 43.9196ZM37.9371 41.1643C37.9371 40.6347 37.841 40.0459 37.5691 39.4632L32.3909 41.8797C32.2523 41.5827 32.2228 41.3224 32.2228 41.1643H37.9371ZM37.6016 39.5354C37.3807 39.0258 37.0578 38.571 36.6463 38.1938L32.785 42.4062C32.6021 42.2385 32.4554 42.0313 32.3584 41.8075L37.6016 39.5354ZM36.736 38.2797C36.36 37.9037 35.94 37.6315 35.5251 37.4362L33.092 42.6066C33.0009 42.5638 32.8523 42.4772 32.6954 42.3203L36.736 38.2797ZM35.617 37.4815C35.2858 37.3109 34.9463 37.1791 34.6081 37.0776L32.9661 42.5509C33.0089 42.5638 33.017 42.5701 33.0001 42.5614L35.617 37.4815ZM34.5965 37.0742L31.9608 36.2956L30.342 41.7758L32.9777 42.5544L34.5965 37.0742ZM31.9631 36.2963C31.8364 36.2588 31.6924 36.2062 31.5304 36.1339L29.201 41.3518C29.5723 41.5176 29.9521 41.6603 30.3397 41.7751L31.9631 36.2963ZM31.5689 36.1514C31.5493 36.1423 31.5309 36.131 31.5082 36.1112L27.7518 40.4173C28.1767 40.788 28.6488 41.0958 29.1625 41.3343L31.5689 36.1514ZM31.5564 36.1543C31.5919 36.1867 31.6203 36.2195 31.6415 36.2485C31.6623 36.2772 31.6723 36.2969 31.6746 36.3018L26.5139 38.7553C26.7972 39.3514 27.1891 39.9046 27.7035 40.3742L31.5564 36.1543ZM31.6823 36.318C31.7236 36.4063 31.7391 36.471 31.7441 36.4969C31.7489 36.5216 31.7443 36.5114 31.7443 36.4571H26.03C26.03 37.1794 26.1478 37.9729 26.5062 38.7391L31.6823 36.318ZM31.7443 36.4571C31.7443 36.3843 31.7534 36.3741 31.7435 36.4069C31.7387 36.4229 31.7303 36.4455 31.7171 36.4721C31.7038 36.4988 31.6879 36.5247 31.6705 36.5483L27.0752 33.1517C26.3312 34.1583 26.03 35.3155 26.03 36.4571H31.7443ZM31.6674 36.5524C31.6675 36.5522 31.666 36.5533 31.6696 36.5506C31.6745 36.5469 31.7016 36.5273 31.7664 36.5012L29.6364 31.1988C28.6347 31.6012 27.7489 32.2436 27.0783 33.1476L31.6674 36.5524ZM31.7858 36.4933C31.9522 36.4251 32.2002 36.3643 32.5728 36.3643V30.65C31.5644 30.65 30.5649 30.8177 29.6169 31.2067L31.7858 36.4933ZM32.5337 36.364C32.9117 36.3692 33.1499 36.4344 33.2979 36.4988L35.5763 31.2584C34.629 30.8465 33.6244 30.6641 32.612 30.6503L32.5337 36.364ZM33.3062 36.5024C33.453 36.5656 33.5293 36.6324 33.5867 36.7035L38.0303 33.1108C37.364 32.2866 36.526 31.6677 35.568 31.2548L33.3062 36.5024ZM33.6078 36.7292C33.6482 36.778 33.7207 36.8852 33.7741 37.1301L39.3572 35.9127C39.1344 34.891 38.7023 33.922 38.0093 33.085L33.6078 36.7292ZM36.0878 33.7045L34.4878 33.976L35.4435 39.6098L37.0435 39.3383L36.0878 33.7045ZM37.7751 36.2726C37.6211 35.4414 37.2717 34.6434 36.6911 33.9561L32.326 37.6439C32.2752 37.5837 32.2332 37.5169 32.2026 37.4503C32.1724 37.3849 32.1604 37.3354 32.1563 37.3131L37.7751 36.2726ZM36.7065 33.9746C36.1853 33.347 35.5371 32.8629 34.7947 32.5387L32.5081 37.7756C32.4813 37.7639 32.4447 37.7441 32.405 37.7143C32.3652 37.6844 32.3333 37.6529 32.3106 37.6254L36.7065 33.9746ZM34.8254 32.5523C34.1056 32.2279 33.3479 32.0737 32.5858 32.0645L32.517 37.7784C32.5351 37.7786 32.5361 37.7802 32.5242 37.7776C32.5186 37.7765 32.5113 37.7746 32.5027 37.7718C32.4942 37.769 32.4856 37.7656 32.4774 37.7619L34.8254 32.5523ZM32.6228 32.0652C31.9073 32.0473 31.1767 32.1541 30.4678 32.4292L32.535 37.7565C32.5028 37.769 32.4775 37.7747 32.4636 37.777C32.4503 37.7791 32.4544 37.777 32.48 37.7777L32.6228 32.0652ZM30.4542 32.4345C29.7689 32.7045 29.1059 33.131 28.5684 33.7625L32.9201 37.4661C32.7636 37.6499 32.6053 37.7288 32.5486 37.7512L30.4542 32.4345ZM28.5455 33.7898C27.9349 34.5257 27.6085 35.428 27.6085 36.3857H33.3228C33.3228 36.5505 33.2954 36.7438 33.2226 36.9454C33.1498 37.147 33.0476 37.3127 32.943 37.4388L28.5455 33.7898ZM27.6085 36.3857C27.6085 37.2629 27.8836 38.2423 28.6401 39.042L32.7913 35.1151C32.9816 35.3163 33.1257 35.5539 33.2157 35.8035C33.303 36.0453 33.3228 36.251 33.3228 36.3857H27.6085ZM28.6401 39.042C29.0966 39.5246 29.6317 39.8791 30.1983 40.1235L32.4617 34.8765C32.5425 34.9114 32.6681 34.9849 32.7913 35.1151L28.6401 39.042ZM30.2601 40.1493C30.604 40.2881 30.9538 40.4076 31.3093 40.5052L32.822 34.9948C32.6918 34.959 32.5512 34.9119 32.3999 34.8507L30.2601 40.1493ZM31.2903 40.4999L33.1903 41.0356L34.741 35.5358L32.841 35.0001L31.2903 40.4999ZM33.1953 41.037C33.3297 41.0747 33.5142 41.1351 33.7557 41.2271L35.79 35.8872C35.4314 35.7506 35.0779 35.6301 34.7361 35.5344L33.1953 41.037ZM33.8065 41.2459C33.8502 41.2616 33.9124 41.2906 33.9944 41.349L37.3083 36.6938C36.8285 36.3522 36.3049 36.0717 35.7391 35.8684L33.8065 41.2459ZM34.0129 41.3621C33.9675 41.3303 33.93 41.2956 33.9017 41.2637C33.8882 41.2484 33.8784 41.2355 33.8718 41.2261C33.8653 41.2168 33.8625 41.2117 33.8626 41.212L38.8544 38.4308C38.4785 37.7561 37.9619 37.1512 37.2899 36.6808L34.0129 41.3621ZM33.8712 41.2273C33.8101 41.1191 33.7869 41.0363 33.7795 41.0035C33.7727 40.9731 33.78 40.9885 33.78 41.0643H39.4943C39.4943 40.2264 39.3402 39.2902 38.8459 38.4155L33.8712 41.2273ZM33.78 41.0643C33.78 41.1316 33.7732 41.1599 33.7736 41.1582C33.7738 41.1575 33.7754 41.1507 33.7796 41.1393C33.7839 41.1277 33.79 41.1134 33.7985 41.0975L38.8472 43.7739C39.3079 42.9049 39.4943 41.9748 39.4943 41.0643H33.78ZM33.8052 41.0848C33.803 41.0889 33.8017 41.0908 33.8015 41.0911C33.8014 41.0913 33.8014 41.0913 33.8013 41.0914C33.8012 41.0915 33.8 41.0929 33.7969 41.0957C33.7938 41.0986 33.7878 41.1037 33.778 41.1108L37.139 45.7321C37.8451 45.2186 38.4228 44.5649 38.8404 43.7866L33.8052 41.0848ZM33.7835 41.1068C33.7227 41.1508 33.6169 41.2109 33.431 41.263L34.9718 46.7656C35.7383 46.551 36.4706 46.2159 37.1336 45.736L33.7835 41.1068ZM33.431 41.263C33.2223 41.3214 32.9803 41.3571 32.6943 41.3571V47.0714C33.4654 47.0714 34.2282 46.9738 34.9718 46.7656L33.431 41.263ZM38.8736 35.0214H36.0165C36.0165 36.5994 37.2956 37.8786 38.8736 37.8786V35.0214ZM38.8736 33.5714V30.7143C37.2956 30.7143 36.0165 31.9935 36.0165 33.5714H38.8736ZM40.3665 33.5714H43.2236C43.2236 31.9935 41.9444 30.7143 40.3665 30.7143V33.5714ZM40.3665 35.0214V37.8786C41.9444 37.8786 43.2236 36.5994 43.2236 35.0214H40.3665ZM38.8736 44H36.0165C36.0165 45.578 37.2956 46.8571 38.8736 46.8571V44ZM38.8736 36.2857V33.4286C37.2956 33.4286 36.0165 34.7078 36.0165 36.2857H38.8736ZM40.3665 36.2857H43.2236C43.2236 34.7078 41.9444 33.4286 40.3665 33.4286V36.2857ZM40.3665 44V46.8571C41.9444 46.8571 43.2236 45.578 43.2236 44H40.3665ZM41.7307 35.0214V33.5714H36.0165V35.0214H41.7307ZM38.8736 36.4286H40.3665V30.7143H38.8736V36.4286ZM37.5093 33.5714V35.0214H43.2236V33.5714H37.5093ZM40.3665 32.1643H38.8736V37.8786H40.3665V32.1643ZM41.7307 44V36.2857H36.0165V44H41.7307ZM38.8736 39.1429H40.3665V33.4286H38.8736V39.1429ZM37.5093 36.2857V44H43.2236V36.2857H37.5093ZM40.3665 41.1429H38.8736V46.8571H40.3665V41.1429ZM43.2257 44H40.3686C40.3686 45.578 41.6478 46.8571 43.2257 46.8571V44ZM43.2257 33.5V30.6429C41.6478 30.6429 40.3686 31.922 40.3686 33.5H43.2257ZM44.7186 33.5H47.5757C47.5757 31.922 46.2965 30.6429 44.7186 30.6429V33.5ZM44.7186 44V46.8571C46.2965 46.8571 47.5757 45.578 47.5757 44H44.7186ZM46.0829 44V33.5H40.3686V44H46.0829ZM43.2257 36.3571H44.7186V30.6429H43.2257V36.3571ZM41.8614 33.5V44H47.5757V33.5H41.8614ZM44.7186 41.1429H43.2257V46.8571H44.7186V41.1429ZM49.5207 44L46.835 44.9748C47.2451 46.1048 48.3186 46.8571 49.5207 46.8571V44ZM46.7207 36.2857V33.4286C45.789 33.4286 44.9158 33.8829 44.381 34.6459C43.8462 35.4089 43.7171 36.3847 44.035 37.2605L46.7207 36.2857ZM48.2278 36.2857L50.9239 35.3398C50.5222 34.1949 49.4412 33.4286 48.2278 33.4286V36.2857ZM50.2778 42.1286L47.5818 43.0745C47.9835 44.2194 49.0645 44.9857 50.2778 44.9857C51.4912 44.9857 52.5722 44.2194 52.9739 43.0745L50.2778 42.1286ZM52.3278 36.2857V33.4286C51.1145 33.4286 50.0335 34.1949 49.6318 35.3398L52.3278 36.2857ZM53.835 36.2857L56.5207 37.2605C56.8386 36.3847 56.7095 35.4089 56.1747 34.6459C55.6399 33.8829 54.7667 33.4286 53.835 33.4286V36.2857ZM51.035 44V46.8571C52.2371 46.8571 53.3106 46.1048 53.7207 44.9748L51.035 44ZM52.2064 43.0252L49.4064 35.3109L44.035 37.2605L46.835 44.9748L52.2064 43.0252ZM46.7207 39.1429H48.2278V33.4286H46.7207V39.1429ZM45.5318 37.2316L47.5818 43.0745L52.9739 41.1827L50.9239 35.3398L45.5318 37.2316ZM52.9739 43.0745L55.0239 37.2316L49.6318 35.3398L47.5818 41.1827L52.9739 43.0745ZM52.3278 39.1429H53.835V33.4286H52.3278V39.1429ZM51.1493 35.3109L48.3493 43.0252L53.7207 44.9748L56.5207 37.2605L51.1493 35.3109ZM51.035 41.1429H49.5207V46.8571H51.035V41.1429ZM56.8143 43.7143L55.3684 46.1785C55.3764 46.1832 55.3844 46.1879 55.3924 46.1925L56.8143 43.7143ZM55.4643 42.3071L52.9373 43.6403C52.9415 43.6483 52.9457 43.6562 52.95 43.6641L55.4643 42.3071ZM55.4572 38.0143L52.9175 36.7054C52.9149 36.7105 52.9122 36.7157 52.9096 36.7209L55.4572 38.0143ZM56.7858 36.5786L55.3218 34.125L56.7858 36.5786ZM60.7715 36.6214L59.1914 39.0019C59.1961 39.005 59.2009 39.0082 59.2057 39.0113L60.7715 36.6214ZM62.0072 38.1714L59.3583 39.2423C59.3605 39.2476 59.3627 39.253 59.3649 39.2583L62.0072 38.1714ZM62.3358 40.5643V43.4214C63.8452 43.4214 65.0943 42.2473 65.1875 40.7407L62.3358 40.5643ZM60.8429 40.5643H57.9858C57.9858 42.1422 59.265 43.4214 60.8429 43.4214V40.5643ZM60.8429 40.0214H63.7001C63.7001 40.0113 63.7 40.0012 63.6999 39.991L60.8429 40.0214ZM60.3286 38.0357L58.0612 39.7741C58.0652 39.7794 58.0693 39.7846 58.0733 39.7898L60.3286 38.0357ZM57.1358 38.1L59.369 39.8821V39.8821L57.1358 38.1ZM57.1358 42.1143L54.9114 43.9074C54.9144 43.9111 54.9174 43.9149 54.9204 43.9186L57.1358 42.1143ZM59.9715 42.4929L61.4765 44.9215L61.4858 44.9157L59.9715 42.4929ZM60.7715 41.5786L61.635 38.8551C60.2798 38.4254 58.8149 39.0574 58.1976 40.3382L60.7715 41.5786ZM62.2358 42.0429L64.8563 43.1814C65.1786 42.4396 65.1714 41.596 64.8364 40.8598C64.5015 40.1236 63.8703 39.5638 63.0993 39.3193L62.2358 42.0429ZM60.8715 43.65L62.3721 46.0814C62.3767 46.0785 62.3812 46.0757 62.3858 46.0729L60.8715 43.65ZM56.0858 40.5643H53.2286C53.2286 42.1422 54.5078 43.4214 56.0858 43.4214V40.5643ZM56.0858 39.4V36.5429C54.5078 36.5429 53.2286 37.822 53.2286 39.4H56.0858ZM61.5929 39.4H64.4501C64.4501 37.822 63.1709 36.5429 61.5929 36.5429V39.4ZM61.5929 40.5643V43.4214C63.1709 43.4214 64.4501 42.1422 64.4501 40.5643H61.5929ZM58.8358 41.3571C58.4948 41.3571 58.3251 41.2871 58.2363 41.2361L55.3924 46.1925C56.4655 46.8082 57.6434 47.0714 58.8358 47.0714V41.3571ZM58.2603 41.25C58.1445 41.1821 58.0597 41.1003 57.9787 40.9502L52.95 43.6641C53.5166 44.714 54.3318 45.5703 55.3684 46.1785L58.2603 41.25ZM57.9914 40.974C57.922 40.8425 57.8429 40.6138 57.8429 40.2071H52.1286C52.1286 41.391 52.3686 42.5623 52.9373 43.6403L57.9914 40.974ZM57.8429 40.2071C57.8429 39.7188 57.933 39.4491 58.0048 39.3077L52.9096 36.7209C52.3528 37.8176 52.1286 39.0098 52.1286 40.2071H57.8429ZM57.9969 39.3232C58.0855 39.1512 58.1674 39.0813 58.2497 39.0322L55.3218 34.125C54.2708 34.752 53.467 35.6393 52.9175 36.7054L57.9969 39.3232ZM58.2497 39.0322C58.3144 38.9935 58.4537 38.9286 58.7643 38.9286V33.2143C57.5702 33.2143 56.3904 33.4874 55.3218 34.125L58.2497 39.0322ZM58.7643 38.9286C59.0939 38.9286 59.1884 38.9999 59.1914 39.0019L62.3516 34.241C61.2498 33.5096 60.0062 33.2143 58.7643 33.2143V38.9286ZM59.2057 39.0113C59.224 39.0233 59.283 39.056 59.3583 39.2423L64.6561 37.1006C64.1885 35.944 63.4237 34.9433 62.3373 34.2315L59.2057 39.0113ZM59.3649 39.2583C59.4378 39.4356 59.5216 39.7807 59.4841 40.3879L65.1875 40.7407C65.2642 39.5003 65.129 38.2501 64.6495 37.0845L59.3649 39.2583ZM62.3358 37.7071H60.8429V43.4214H62.3358V37.7071ZM63.7001 40.5643V40.0214H57.9858V40.5643H63.7001ZM63.6999 39.991C63.6877 38.8423 63.4793 37.4328 62.5839 36.2816L58.0733 39.7898C57.9474 39.628 57.9288 39.5216 57.9413 39.5699C57.9543 39.6201 57.9829 39.7688 57.9859 40.0518L63.6999 39.991ZM62.5961 36.2973C61.5922 34.988 60.139 34.5357 58.8215 34.5357V40.25C58.8633 40.25 58.7612 40.257 58.5844 40.1816C58.3887 40.0981 58.1997 39.9547 58.0612 39.7741L62.5961 36.2973ZM58.8215 34.5357C57.4337 34.5357 55.9492 35.0062 54.9025 36.3179L59.369 39.8821C59.2553 40.0246 59.1004 40.139 58.9446 40.2044C58.8058 40.2626 58.7435 40.25 58.8215 40.25V34.5357ZM54.9025 36.3179C53.9695 37.4871 53.7143 38.9021 53.7143 40.1429H59.4286C59.4286 39.8912 59.456 39.7632 59.4666 39.725C59.4752 39.6937 59.4594 39.7689 59.369 39.8821L54.9025 36.3179ZM53.7143 40.1429C53.7143 41.3779 53.9857 42.7591 54.9114 43.9074L59.3602 40.3212C59.4431 40.424 59.463 40.4978 59.4594 40.4852C59.4536 40.4649 59.4286 40.3617 59.4286 40.1429H53.7143ZM54.9204 43.9186C55.9446 45.1762 57.3779 45.6643 58.7643 45.6643V39.95C58.7177 39.95 58.7973 39.9426 58.9436 40.0048C59.1037 40.0729 59.2491 40.1847 59.3511 40.31L54.9204 43.9186ZM58.7643 45.6643C59.6693 45.6643 60.6131 45.4566 61.4765 44.9215L58.4664 40.0643C58.5516 40.0115 58.633 39.9801 58.6963 39.9636C58.7568 39.9478 58.7839 39.95 58.7643 39.95V45.6643ZM61.4858 44.9157C62.3253 44.391 62.9412 43.6575 63.3453 42.819L58.1976 40.3382C58.2049 40.3232 58.2288 40.2788 58.2784 40.2221C58.3291 40.1642 58.3909 40.1114 58.4572 40.07L61.4858 44.9157ZM59.9079 44.3021L61.3722 44.7664L63.0993 39.3193L61.635 38.8551L59.9079 44.3021ZM59.6153 40.9043C59.5341 41.0912 59.4525 41.1676 59.3572 41.2271L62.3858 46.0729C63.5095 45.3705 64.3375 44.3754 64.8563 43.1814L59.6153 40.9043ZM59.3709 41.2186C59.2326 41.304 59.0777 41.3571 58.8358 41.3571V47.0714C60.0891 47.0714 61.2913 46.7484 62.3721 46.0814L59.3709 41.2186ZM58.9429 40.5643V39.4H53.2286V40.5643H58.9429ZM56.0858 42.2571H61.5929V36.5429H56.0858V42.2571ZM58.7358 39.4V40.5643H64.4501V39.4H58.7358ZM61.5929 37.7071H56.0858V43.4214H61.5929V37.7071ZM64.5098 44H61.6526C61.6526 45.578 62.9318 46.8571 64.5098 46.8571V44ZM64.5098 36.2857V33.4286C62.9318 33.4286 61.6526 34.7078 61.6526 36.2857H64.5098ZM65.8383 36.2857H68.6955C68.6955 34.7078 67.4163 33.4286 65.8383 33.4286V36.2857ZM65.8383 38.1571L63.5687 39.8927C64.3128 40.8657 65.5943 41.2562 66.7545 40.8634C67.9147 40.4706 68.6955 39.382 68.6955 38.1571H65.8383ZM65.6526 37.9143L62.9859 36.8886C62.6294 37.8155 62.7798 38.861 63.383 39.6499L65.6526 37.9143ZM66.0241 37.2357L68.3161 38.9415C68.3224 38.9331 68.3286 38.9247 68.3347 38.9162L66.0241 37.2357ZM66.5526 36.7214L68.1375 39.0987C68.1721 39.0756 68.2062 39.0518 68.2398 39.0272L66.5526 36.7214ZM67.2026 36.3929L68.0734 39.1141C68.0843 39.1106 68.0952 39.107 68.1061 39.1034L67.2026 36.3929ZM67.9455 36.25L68.1069 39.1026C68.1248 39.1016 68.1427 39.1004 68.1605 39.099L67.9455 36.25ZM68.6741 36.2857H71.5312C71.5312 34.9068 70.5464 33.7247 69.1902 33.4756L68.6741 36.2857ZM68.6741 37.6857L67.9444 40.4481C68.8014 40.6745 69.7151 40.4902 70.4174 39.9493C71.1197 39.4085 71.5312 38.5722 71.5312 37.6857H68.6741ZM67.8312 37.6286L67.5686 34.7835L67.5645 34.7839L67.8312 37.6286ZM66.9883 37.9214L68.5405 40.3202L68.5423 40.319L66.9883 37.9214ZM66.4098 38.4929L64.0014 36.9556C63.9936 36.9679 63.9859 36.9802 63.9782 36.9925L66.4098 38.4929ZM66.1098 39.2429L68.8954 39.8782L68.8977 39.8677L66.1098 39.2429ZM66.0169 44V46.8571C67.5949 46.8571 68.8741 45.578 68.8741 44H66.0169ZM67.3669 44V36.2857H61.6526V44H67.3669ZM64.5098 39.1429H65.8383V33.4286H64.5098V39.1429ZM62.9812 36.2857V38.1571H68.6955V36.2857H62.9812ZM68.1079 36.4216L67.9222 36.1787L63.383 39.6499L63.5687 39.8927L68.1079 36.4216ZM68.3193 38.9399C68.3225 38.9316 68.3241 38.929 68.3232 38.9308C68.3222 38.9326 68.3198 38.9366 68.3161 38.9415L63.732 35.53C63.4183 35.9514 63.1708 36.4079 62.9859 36.8886L68.3193 38.9399ZM68.3347 38.9162C68.3038 38.9587 68.2399 39.0304 68.1375 39.0987L64.9678 34.3441C64.4653 34.6791 64.049 35.0937 63.7134 35.5552L68.3347 38.9162ZM68.2398 39.0272C68.1788 39.0719 68.1181 39.0998 68.0734 39.1141L66.3318 33.6716C65.8109 33.8383 65.3169 34.0853 64.8655 34.4156L68.2398 39.0272ZM68.1061 39.1034C68.1103 39.102 68.1114 39.1019 68.11 39.1022C68.1087 39.1024 68.1074 39.1026 68.1069 39.1026L67.784 33.3974C67.2759 33.4262 66.7789 33.5224 66.2991 33.6823L68.1061 39.1034ZM68.1605 39.099C68.1734 39.0981 68.1786 39.0984 68.177 39.0984C68.1753 39.0983 68.1686 39.0978 68.1579 39.0958L69.1902 33.4756C68.7003 33.3856 68.211 33.3647 67.7305 33.401L68.1605 39.099ZM65.8169 36.2857V37.6857H71.5312V36.2857H65.8169ZM69.4037 34.9233C68.7729 34.7567 68.1492 34.7299 67.5686 34.7835L68.0938 40.4736C68.1322 40.4701 68.0705 40.4814 67.9444 40.4481L69.4037 34.9233ZM67.5645 34.7839C66.8003 34.8555 66.0778 35.1068 65.4343 35.5238L68.5423 40.319C68.4842 40.3567 68.4124 40.3933 68.3297 40.4221C68.2469 40.4509 68.1675 40.4667 68.0979 40.4732L67.5645 34.7839ZM65.4362 35.5227C64.8806 35.8821 64.3837 36.3566 64.0014 36.9556L68.8181 40.0301C68.7215 40.1815 68.6103 40.275 68.5405 40.3202L65.4362 35.5227ZM63.9782 36.9925C63.6613 37.5062 63.4478 38.0559 63.3218 38.618L68.8977 39.8677C68.8956 39.8775 68.8821 39.9271 68.8413 39.9932L63.9782 36.9925ZM63.3242 38.6075C63.2105 39.106 63.1598 39.6086 63.1598 40.1071H68.8741C68.8741 39.9962 68.8853 39.9226 68.8954 39.8782L63.3242 38.6075ZM63.1598 40.1071V44H68.8741V40.1071H63.1598ZM66.0169 41.1429H64.5098V46.8571H66.0169V41.1429ZM22.9169 60.8357L21.7761 63.4552C21.7846 63.4589 21.7931 63.4626 21.8016 63.4662L22.9169 60.8357ZM21.4526 59.7429L19.2216 61.5277C19.2281 61.5359 19.2347 61.544 19.2413 61.5521L21.4526 59.7429ZM20.7098 58.05L20.2821 55.225C19.5216 55.3402 18.8395 55.7571 18.3903 56.3816C17.9411 57.0061 17.7627 57.7853 17.8955 58.543L20.7098 58.05ZM22.2669 57.8143L25.0387 57.1213C24.6814 55.6921 23.2959 54.7688 21.8393 54.9893L22.2669 57.8143ZM23.2526 59.2857L21.6067 61.6211C21.6117 61.6246 21.6167 61.6281 21.6217 61.6316L23.2526 59.2857ZM26.1455 59.6143L27.1366 62.294C27.1473 62.29 27.158 62.286 27.1687 62.2819L26.1455 59.6143ZM26.9812 59.05L24.8207 57.1803L24.8179 57.1836L26.9812 59.05ZM27.2026 57.6714L24.581 58.8075C24.5915 58.8317 24.6024 58.8557 24.6135 58.8797L27.2026 57.6714ZM26.9383 57.3L24.918 59.3203C24.9473 59.3496 24.9772 59.3782 25.0077 59.4062L26.9383 57.3ZM26.5312 57.0214L25.2228 59.5614C25.2531 59.577 25.2837 59.5921 25.3146 59.6066L26.5312 57.0214ZM26.0098 56.8143L26.8308 54.0776L26.8192 54.0742L26.0098 56.8143ZM23.374 56.0357L22.5624 58.7751L22.5646 58.7758L23.374 56.0357ZM22.5883 55.7429L21.3852 58.3343C21.3979 58.3402 21.4108 58.3461 21.4236 58.3518L22.5883 55.7429ZM21.8526 55.2643L19.9261 57.3742C19.9421 57.3888 19.9582 57.4032 19.9744 57.4173L21.8526 55.2643ZM21.3169 54.5286L18.7289 55.7391C18.7314 55.7445 18.734 55.7499 18.7365 55.7553L21.3169 54.5286ZM21.5955 51.85L19.3009 50.1476L19.2978 50.1517L21.5955 51.85ZM22.9241 50.85L23.9891 53.5012C23.9956 53.4986 24.002 53.496 24.0085 53.4933L22.9241 50.85ZM24.7955 50.5071L24.8346 47.6503C24.8216 47.6501 24.8085 47.65 24.7955 47.65V50.5071ZM26.6598 50.8786L25.5205 53.4988L25.5288 53.5024L26.6598 50.8786ZM28.0312 51.9071L25.8094 53.7035C25.8164 53.7121 25.8234 53.7207 25.8305 53.7292L28.0312 51.9071ZM28.7883 53.5214L29.2662 56.3383C30.0361 56.2077 30.719 55.7677 31.156 55.1206C31.5931 54.4735 31.7462 53.6757 31.5799 52.9127L28.7883 53.5214ZM27.1883 53.7929L24.379 54.3131C24.6632 55.8482 26.127 56.8709 27.6662 56.6098L27.1883 53.7929ZM26.7312 52.8L24.5332 54.6254C24.5383 54.6316 24.5435 54.6377 24.5487 54.6439L26.7312 52.8ZM25.8741 52.1571L24.7001 54.7619C24.7103 54.7666 24.7205 54.7711 24.7308 54.7756L25.8741 52.1571ZM24.7741 51.9214L24.7026 54.7777C24.715 54.778 24.7273 54.7782 24.7396 54.7784L24.7741 51.9214ZM23.7241 52.0929L22.6904 49.4292C22.6859 49.431 22.6814 49.4328 22.6768 49.4345L23.7241 52.0929ZM22.9669 52.6143L20.7911 50.7625C20.7834 50.7716 20.7757 50.7807 20.7682 50.7898L22.9669 52.6143ZM23.5526 54.5L22.4209 57.1235C22.4414 57.1323 22.462 57.1409 22.4827 57.1493L23.5526 54.5ZM24.2883 54.75L25.0637 52.0001C25.0574 51.9983 25.051 51.9965 25.0447 51.9948L24.2883 54.75ZM26.1883 55.2857L25.413 58.0356L25.418 58.037L26.1883 55.2857ZM26.9955 55.5571L25.9784 58.2271C25.9952 58.2335 26.0122 58.2398 26.0292 58.2459L26.9955 55.5571ZM27.8741 56.0214L26.2171 58.349C26.2232 58.3534 26.2294 58.3578 26.2356 58.3621L27.8741 56.0214ZM28.5812 56.8214L26.0853 58.212C26.0881 58.2171 26.091 58.2222 26.0939 58.2273L28.5812 56.8214ZM28.5455 59.4357L31.0631 60.7866C31.0653 60.7824 31.0676 60.7782 31.0698 60.7739L28.5455 59.4357ZM27.6812 60.4214L29.3563 62.7361L29.3617 62.7321L27.6812 60.4214ZM26.4241 61.0143L25.6537 58.263H25.6537L26.4241 61.0143ZM24.9169 58.3571C24.5081 58.3571 24.2281 58.2883 24.0322 58.2053L21.8016 63.4662C22.7961 63.8879 23.8496 64.0714 24.9169 64.0714V58.3571ZM24.0577 58.2162C23.8588 58.1296 23.7457 58.0336 23.6639 57.9336L19.2413 61.5521C19.9309 62.395 20.7941 63.0276 21.7761 63.4552L24.0577 58.2162ZM23.6837 57.958C23.628 57.8884 23.5628 57.7784 23.524 57.557L17.8955 58.543C18.0853 59.6264 18.5154 60.6449 19.2216 61.5277L23.6837 57.958ZM21.1374 60.875L22.6945 60.6392L21.8393 54.9893L20.2821 55.225L21.1374 60.875ZM19.4951 58.5072C19.8077 59.7579 20.5116 60.8493 21.6067 61.6211L24.8985 56.9503C24.9243 56.9684 24.9673 57.0072 25.0049 57.0634C25.0411 57.1175 25.0451 57.1469 25.0387 57.1213L19.4951 58.5072ZM21.6217 61.6316C22.6458 62.3437 23.8108 62.6643 25.0026 62.6643V56.95C24.9195 56.95 24.884 56.9395 24.881 56.9386C24.8785 56.9379 24.8796 56.938 24.8824 56.9394C24.8852 56.9407 24.8859 56.9414 24.8836 56.9398L21.6217 61.6316ZM25.0026 62.6643C25.7156 62.6643 26.4366 62.5529 27.1366 62.294L25.1543 56.9346C25.1542 56.9346 25.152 56.9354 25.1474 56.9366C25.1428 56.9379 25.135 56.9397 25.1236 56.9416C25.1011 56.9454 25.0618 56.95 25.0026 56.95V62.6643ZM27.1687 62.2819C27.8855 62.007 28.5807 61.5699 29.1445 60.9164L24.8179 57.1836C24.9627 57.0158 25.1007 56.9549 25.1223 56.9466L27.1687 62.2819ZM29.1417 60.9196C29.8278 60.1268 30.1598 59.1586 30.1598 58.1643H24.4455C24.4455 58.0338 24.4668 57.8604 24.5365 57.6682C24.607 57.474 24.7095 57.3089 24.8207 57.1804L29.1417 60.9196ZM30.1598 58.1643C30.1598 57.6347 30.0636 57.0459 29.7917 56.4632L24.6135 58.8797C24.4749 58.5827 24.4455 58.3224 24.4455 58.1643H30.1598ZM29.8242 56.5354C29.6034 56.0258 29.2805 55.571 28.869 55.1938L25.0077 59.4062C24.8248 59.2385 24.678 59.0313 24.581 58.8075L29.8242 56.5354ZM28.9586 55.2797C28.5827 54.9037 28.1626 54.6315 27.7478 54.4362L25.3146 59.6066C25.2236 59.5638 25.0749 59.4772 24.918 59.3203L28.9586 55.2797ZM27.8396 54.4815C27.5085 54.3109 27.1689 54.1791 26.8308 54.0776L25.1888 59.5509C25.2316 59.5638 25.2396 59.5701 25.2228 59.5614L27.8396 54.4815ZM26.8192 54.0742L24.1835 53.2956L22.5646 58.7758L25.2004 59.5544L26.8192 54.0742ZM24.1857 53.2963C24.0591 53.2588 23.915 53.2062 23.7531 53.1339L21.4236 58.3518C21.795 58.5176 22.1747 58.6603 22.5624 58.7751L24.1857 53.2963ZM23.7915 53.1514C23.7719 53.1423 23.7535 53.131 23.7308 53.1112L19.9744 57.4173C20.3993 57.788 20.8714 58.0958 21.3852 58.3343L23.7915 53.1514ZM23.7791 53.1543C23.8146 53.1867 23.8429 53.2195 23.8641 53.2485C23.885 53.2772 23.8949 53.2969 23.8973 53.3018L18.7365 55.7553C19.0199 56.3514 19.4118 56.9046 19.9261 57.3742L23.7791 53.1543ZM23.9049 53.318C23.9462 53.4063 23.9617 53.471 23.9667 53.4969C23.9715 53.5216 23.9669 53.5114 23.9669 53.4571H18.2526C18.2526 54.1794 18.3705 54.9729 18.7289 55.7391L23.9049 53.318ZM23.9669 53.4571C23.9669 53.3843 23.9761 53.3741 23.9662 53.4069C23.9613 53.4229 23.953 53.4455 23.9397 53.4721C23.9264 53.4988 23.9105 53.5247 23.8931 53.5483L19.2978 50.1517C18.5538 51.1583 18.2526 52.3155 18.2526 53.4571H23.9669ZM23.89 53.5524C23.8902 53.5522 23.8886 53.5533 23.8923 53.5506C23.8972 53.5469 23.9242 53.5273 23.9891 53.5012L21.859 48.1988C20.8573 48.6012 19.9716 49.2436 19.3009 50.1476L23.89 53.5524ZM24.0085 53.4933C24.1748 53.4251 24.4229 53.3643 24.7955 53.3643V47.65C23.7871 47.65 22.7876 47.8177 21.8396 48.2067L24.0085 53.4933ZM24.7563 53.364C25.1343 53.3692 25.3726 53.4344 25.5205 53.4988L27.799 48.2584C26.8517 47.8465 25.8471 47.6641 24.8346 47.6503L24.7563 53.364ZM25.5288 53.5024C25.6757 53.5656 25.7519 53.6324 25.8094 53.7035L30.253 50.1108C29.5867 49.2866 28.7486 48.6677 27.7907 48.2548L25.5288 53.5024ZM25.8305 53.7292C25.8708 53.778 25.9434 53.8852 25.9968 54.1301L31.5799 52.9127C31.3571 51.891 30.9249 50.922 30.2319 50.085L25.8305 53.7292ZM28.3105 50.7045L26.7105 50.976L27.6662 56.6098L29.2662 56.3383L28.3105 50.7045ZM29.9977 53.2726C29.8438 52.4414 29.4944 51.6434 28.9137 50.9561L24.5487 54.6439C24.4978 54.5837 24.4559 54.5169 24.4252 54.4503C24.3951 54.3849 24.3831 54.3354 24.379 54.3131L29.9977 53.2726ZM28.9292 50.9746C28.408 50.347 27.7597 49.8629 27.0173 49.5387L24.7308 54.7756C24.704 54.7639 24.6673 54.7441 24.6276 54.7143C24.5878 54.6844 24.556 54.6529 24.5332 54.6254L28.9292 50.9746ZM27.048 49.5523C26.3283 49.2279 25.5706 49.0737 24.8085 49.0645L24.7396 54.7784C24.7577 54.7786 24.7587 54.7802 24.7468 54.7776C24.7413 54.7765 24.7339 54.7746 24.7254 54.7718C24.7168 54.769 24.7082 54.7656 24.7001 54.7619L27.048 49.5523ZM24.8455 49.0652C24.1299 49.0473 23.3994 49.1541 22.6904 49.4292L24.7577 54.7565C24.7255 54.769 24.7001 54.7747 24.6862 54.777C24.673 54.7791 24.6771 54.777 24.7026 54.7777L24.8455 49.0652ZM22.6768 49.4345C21.9915 49.7045 21.3285 50.131 20.7911 50.7625L25.1427 54.4661C24.9863 54.6499 24.828 54.7288 24.7713 54.7512L22.6768 49.4345ZM20.7682 50.7898C20.1575 51.5257 19.8312 52.428 19.8312 53.3857H25.5455C25.5455 53.5505 25.5181 53.7438 25.4453 53.9454C25.3725 54.147 25.2703 54.3127 25.1657 54.4388L20.7682 50.7898ZM19.8312 53.3857C19.8312 54.2629 20.1063 55.2423 20.8627 56.042L25.014 52.1151C25.2042 52.3163 25.3483 52.5539 25.4384 52.8035C25.5256 53.0453 25.5455 53.251 25.5455 53.3857H19.8312ZM20.8627 56.042C21.3193 56.5246 21.8544 56.8791 22.4209 57.1235L24.6843 51.8765C24.7651 51.9114 24.8907 51.9849 25.014 52.1151L20.8627 56.042ZM22.4827 57.1493C22.8266 57.2881 23.1765 57.4076 23.532 57.5052L25.0447 51.9948C24.9145 51.959 24.7739 51.9119 24.6225 51.8507L22.4827 57.1493ZM23.513 57.4999L25.413 58.0356L26.9637 52.5358L25.0637 52.0001L23.513 57.4999ZM25.418 58.037C25.5523 58.0747 25.7369 58.1351 25.9784 58.2271L28.0126 52.8872C27.6541 52.7506 27.3005 52.6301 26.9587 52.5344L25.418 58.037ZM26.0292 58.2459C26.0729 58.2616 26.135 58.2906 26.2171 58.349L29.531 53.6938C29.0512 53.3522 28.5276 53.0717 27.9618 52.8684L26.0292 58.2459ZM26.2356 58.3621C26.1902 58.3303 26.1526 58.2956 26.1244 58.2637C26.1109 58.2484 26.1011 58.2355 26.0945 58.2261C26.088 58.2168 26.0851 58.2117 26.0853 58.212L31.0771 55.4308C30.7012 54.7561 30.1845 54.1512 29.5125 53.6808L26.2356 58.3621ZM26.0939 58.2273C26.0327 58.1191 26.0095 58.0363 26.0022 58.0035C25.9953 57.9731 26.0026 57.9885 26.0026 58.0643H31.7169C31.7169 57.2264 31.5629 56.2902 31.0685 55.4156L26.0939 58.2273ZM26.0026 58.0643C26.0026 58.1316 25.9959 58.1599 25.9962 58.1582C25.9964 58.1575 25.998 58.1507 26.0023 58.1393C26.0065 58.1277 26.0127 58.1134 26.0211 58.0975L31.0698 60.7739C31.5306 59.9049 31.7169 58.9748 31.7169 58.0643H26.0026ZM26.0279 58.0848C26.0257 58.0889 26.0244 58.0908 26.0242 58.0911C26.024 58.0913 26.0241 58.0913 26.024 58.0914C26.0239 58.0915 26.0226 58.0929 26.0195 58.0957C26.0164 58.0986 26.0104 58.1037 26.0007 58.1108L29.3617 62.7321C30.0677 62.2186 30.6455 61.5649 31.0631 60.7866L26.0279 58.0848ZM26.0061 58.1068C25.9453 58.1508 25.8395 58.2109 25.6537 58.263L27.1944 63.7656C27.961 63.551 28.6932 63.2159 29.3562 62.736L26.0061 58.1068ZM25.6537 58.263C25.4449 58.3214 25.2029 58.3571 24.9169 58.3571V64.0714C25.688 64.0714 26.4508 63.9738 27.1944 63.7656L25.6537 58.263ZM32.7177 60.6786L31.0424 62.9931C31.0473 62.9966 31.0521 63 31.057 63.0035L32.7177 60.6786ZM31.582 59.2143L34.2175 58.111L31.582 59.2143ZM31.5748 55.0571L28.9393 53.9539C28.9369 53.9597 28.9344 53.9655 28.932 53.9713L31.5748 55.0571ZM32.7034 53.6071L34.3598 55.9351L34.3641 55.9321L32.7034 53.6071ZM36.4177 53.6071L34.8082 55.9678C34.8164 55.9734 34.8246 55.9789 34.8328 55.9844L36.4177 53.6071ZM37.6391 55.0571L35.0485 56.2621L35.0521 56.2698L37.6391 55.0571ZM37.6391 59.2214L35.0449 58.0241L35.0408 58.0331L37.6391 59.2214ZM36.432 60.6786L34.8224 58.3179L34.8124 58.3248L36.432 60.6786ZM30.9463 64.4286H28.0891C28.0891 66.0065 29.3683 67.2857 30.9463 67.2857V64.4286ZM30.9463 53.2857V50.4286C29.3683 50.4286 28.0891 51.7078 28.0891 53.2857H30.9463ZM32.2748 53.2857H35.132C35.132 51.7078 33.8528 50.4286 32.2748 50.4286V53.2857ZM32.2748 58.8357H29.4177C29.4177 60.4137 30.6969 61.6929 32.2748 61.6929V58.8357ZM32.4463 58.8357H35.3034C35.3034 57.2578 34.0242 55.9786 32.4463 55.9786V58.8357ZM32.4463 64.4286V67.2857C34.0242 67.2857 35.3034 66.0065 35.3034 64.4286H32.4463ZM35.5463 59.5L33.7993 57.2392C33.7937 57.2435 33.7881 57.2478 33.7826 57.2522L35.5463 59.5ZM36.2463 58.5214L33.5748 57.5081C33.5727 57.5138 33.5706 57.5194 33.5685 57.525L36.2463 58.5214ZM36.2463 55.7643L33.5685 56.7607C33.5719 56.7697 33.5753 56.7788 33.5788 56.7879L36.2463 55.7643ZM35.5391 54.7857L37.2696 52.5123L37.2696 52.5123L35.5391 54.7857ZM33.1605 54.7643L31.4463 52.4786C31.4405 52.4829 31.4347 52.4873 31.429 52.4916L33.1605 54.7643ZM32.4891 55.7214L29.8013 54.7526C29.7979 54.7618 29.7946 54.7711 29.7914 54.7804L32.4891 55.7214ZM32.4891 58.55L35.1868 57.6089H35.1868L32.4891 58.55ZM33.1677 59.5143L31.4478 61.7958L31.4478 61.7958L33.1677 59.5143ZM34.5748 58.3571C34.4355 58.3571 34.3667 58.3403 34.3489 58.3351C34.3354 58.3313 34.3521 58.3348 34.3784 58.3536L31.057 63.0035C32.1325 63.7718 33.3637 64.0714 34.5748 64.0714V58.3571ZM34.3929 58.3641C34.3518 58.3343 34.2885 58.2807 34.2175 58.111L28.9464 60.3175C29.3897 61.3765 30.0836 62.299 31.0424 62.9931L34.3929 58.3641ZM34.2175 58.111C34.128 57.8971 34.0534 57.5877 34.0534 57.1357H28.3391C28.3391 58.2266 28.5217 59.3029 28.9464 60.3175L34.2175 58.111ZM34.0534 57.1357C34.0534 56.6773 34.1277 56.3617 34.2176 56.1429L28.932 53.9713C28.5172 54.9812 28.3391 56.0513 28.3391 57.1357H34.0534ZM34.2104 56.1604C34.2821 55.989 34.3399 55.9493 34.3598 55.9351L31.047 51.2792C30.0765 51.9697 29.3818 52.8967 28.9393 53.9539L34.2104 56.1604ZM34.3641 55.9321C34.3413 55.9483 34.3259 55.9521 34.3367 55.9489C34.3516 55.9446 34.4151 55.9286 34.5463 55.9286V50.2143C33.3357 50.2143 32.1121 50.5183 31.0427 51.2822L34.3641 55.9321ZM34.5463 55.9286C34.6725 55.9286 34.742 55.944 34.7707 55.9522C34.7963 55.9595 34.8042 55.9651 34.8082 55.9678L38.0272 51.2465C36.964 50.5216 35.7602 50.2143 34.5463 50.2143V55.9286ZM34.8328 55.9844C34.8956 56.0263 34.9687 56.0906 35.0485 56.2621L40.2297 53.8522C39.7381 52.7951 38.9969 51.8928 38.0025 51.2299L34.8328 55.9844ZM35.0521 56.2698C35.1346 56.4459 35.2105 56.7147 35.2105 57.1357H40.9248C40.9248 56.0044 40.715 54.8875 40.2261 53.8445L35.0521 56.2698ZM35.2105 57.1357C35.2105 57.5482 35.136 57.8269 35.0449 58.0241L40.2333 60.4187C40.7137 59.3778 40.9248 58.2661 40.9248 57.1357H35.2105ZM35.0408 58.0331C34.9617 58.206 34.8876 58.2735 34.8224 58.3179L38.0415 63.0392C39.024 62.3694 39.7546 61.4654 40.2374 60.4098L35.0408 58.0331ZM34.8124 58.3248C34.8117 58.3253 34.8077 58.329 34.7865 58.3351C34.7623 58.3421 34.6971 58.3571 34.5748 58.3571V64.0714C35.7878 64.0714 36.9909 63.7622 38.0515 63.0323L34.8124 58.3248ZM33.8034 64.4286V53.2857H28.0891V64.4286H33.8034ZM30.9463 56.1429H32.2748V50.4286H30.9463V56.1429ZM29.4177 53.2857V58.8357H35.132V53.2857H29.4177ZM32.2748 61.6929H32.4463V55.9786H32.2748V61.6929ZM29.5891 58.8357V64.4286H35.3034V58.8357H29.5891ZM32.4463 61.5714H30.9463V67.2857H32.4463V61.5714ZM34.3677 62.7214C35.3446 62.7214 36.398 62.4633 37.3099 61.7478L33.7826 57.2522C33.9148 57.1485 34.0539 57.0811 34.1757 57.0435C34.2918 57.0076 34.3639 57.0071 34.3677 57.0071V62.7214ZM37.2933 61.7608C38.0715 61.1595 38.6048 60.3757 38.924 59.5178L33.5685 57.525C33.5725 57.5142 33.5905 57.4706 33.6332 57.4109C33.677 57.3497 33.7338 57.2898 33.7993 57.2392L37.2933 61.7608ZM38.9177 59.5347C39.2146 58.752 39.3391 57.9402 39.3391 57.1357H33.6248C33.6248 57.3502 33.5922 57.4622 33.5748 57.5081L38.9177 59.5347ZM39.3391 57.1357C39.3391 56.3331 39.2137 55.5223 38.9138 54.7407L33.5788 56.7879C33.5932 56.8254 33.6248 56.9288 33.6248 57.1357H39.3391ZM38.924 54.7679C38.6007 53.8989 38.0573 53.1119 37.2696 52.5123L33.8086 57.0592C33.7438 57.0098 33.6855 56.9497 33.6394 56.8859C33.5944 56.8237 33.5743 56.7764 33.5685 56.7607L38.924 54.7679ZM37.2696 52.5123C36.3457 51.809 35.288 51.5643 34.3177 51.5643V57.2786C34.3334 57.2786 34.2789 57.2806 34.1779 57.2505C34.0712 57.2186 33.9392 57.1586 33.8086 57.0592L37.2696 52.5123ZM34.3177 51.5643C33.3749 51.5643 32.3483 51.802 31.4463 52.4786L34.8748 57.05C34.7407 57.1506 34.6043 57.2127 34.4901 57.2466C34.3813 57.2788 34.3163 57.2786 34.3177 57.2786V51.5643ZM31.429 52.4916C30.627 53.1027 30.106 53.9071 29.8013 54.7526L35.177 56.6903C35.1747 56.6966 35.1562 56.7452 35.1067 56.8158C35.0555 56.8888 34.9836 56.9672 34.8921 57.0369L31.429 52.4916ZM29.7914 54.7804C29.522 55.5528 29.4177 56.3529 29.4177 57.1357H35.132C35.132 56.8519 35.1706 56.7091 35.1868 56.6625L29.7914 54.7804ZM29.4177 57.1357C29.4177 57.9186 29.522 58.7186 29.7914 59.4911L35.1868 57.6089C35.1706 57.5623 35.132 57.4195 35.132 57.1357H29.4177ZM29.7914 59.4911C30.0975 60.3685 30.6343 61.1825 31.4478 61.7958L34.8876 57.2328C34.9736 57.2977 35.0469 57.3749 35.1025 57.4539C35.1566 57.5309 35.18 57.5893 35.1868 57.6089L29.7914 59.4911ZM31.4478 61.7958C32.3712 62.4919 33.4232 62.7214 34.3677 62.7214V57.0071C34.3466 57.0071 34.3987 57.0044 34.4998 57.0339C34.6068 57.0651 34.7461 57.1261 34.8876 57.2328L31.4478 61.7958ZM40.3591 52.0214H37.502C37.502 53.5994 38.7811 54.8786 40.3591 54.8786V52.0214ZM40.3591 50.5714V47.7143C38.7811 47.7143 37.502 48.9935 37.502 50.5714H40.3591ZM41.852 50.5714H44.7091C44.7091 48.9935 43.4299 47.7143 41.852 47.7143V50.5714ZM41.852 52.0214V54.8786C43.4299 54.8786 44.7091 53.5994 44.7091 52.0214H41.852ZM40.3591 61H37.502C37.502 62.578 38.7811 63.8571 40.3591 63.8571V61ZM40.3591 53.2857V50.4286C38.7811 50.4286 37.502 51.7078 37.502 53.2857H40.3591ZM41.852 53.2857H44.7091C44.7091 51.7078 43.4299 50.4286 41.852 50.4286V53.2857ZM41.852 61V63.8571C43.4299 63.8571 44.7091 62.578 44.7091 61H41.852ZM43.2162 52.0214V50.5714H37.502V52.0214H43.2162ZM40.3591 53.4286H41.852V47.7143H40.3591V53.4286ZM38.9948 50.5714V52.0214H44.7091V50.5714H38.9948ZM41.852 49.1643H40.3591V54.8786H41.852V49.1643ZM43.2162 61V53.2857H37.502V61H43.2162ZM40.3591 56.1429H41.852V50.4286H40.3591V56.1429ZM38.9948 53.2857V61H44.7091V53.2857H38.9948ZM41.852 58.1429H40.3591V63.8571H41.852V58.1429ZM49.9826 61H47.1255C47.1255 62.578 48.4047 63.8571 49.9826 63.8571V61ZM49.9041 56.2857L47.0782 56.7075C47.0806 56.7235 47.0831 56.7395 47.0858 56.7554L49.9041 56.2857ZM49.6184 55.4L47.0719 56.6956C47.0778 56.7073 47.0839 56.719 47.09 56.7307L49.6184 55.4ZM49.0255 54.7429L47.451 57.127C47.4578 57.1315 47.4647 57.136 47.4715 57.1404L49.0255 54.7429ZM47.2755 54.6286L48.2433 57.3168C48.259 57.3111 48.2748 57.3053 48.2904 57.2994L47.2755 54.6286ZM46.6469 55.05L44.5514 53.1078C44.5428 53.1171 44.5343 53.1264 44.5258 53.1358L46.6469 55.05ZM46.2255 55.8214L43.511 54.9301C43.5069 54.9423 43.503 54.9546 43.4991 54.9669L46.2255 55.8214ZM46.0755 56.9857L45.0678 59.6592C45.9454 59.9901 46.9296 59.869 47.7009 59.3354C48.4723 58.8018 48.9326 57.9236 48.9326 56.9857H46.0755ZM45.1469 56.6357H42.2898C42.2898 57.8249 43.0264 58.8898 44.1392 59.3092L45.1469 56.6357ZM45.5398 54.7857L48.1044 56.0451L48.1088 56.0361L45.5398 54.7857ZM46.6684 53.5286L48.1592 55.9659L48.1592 55.9659L46.6684 53.5286ZM49.7898 53.3357L51.0129 50.7536H51.0129L49.7898 53.3357ZM50.6684 54.0143L48.4336 55.7945C48.4447 55.8084 48.4559 55.8222 48.4672 55.8359L50.6684 54.0143ZM51.1898 54.9214L48.5035 55.8947L48.5035 55.8947L51.1898 54.9214ZM51.4326 55.8857L54.2636 55.4997V55.4997L51.4326 55.8857ZM51.4969 61V63.8571C53.0749 63.8571 54.3541 62.578 54.3541 61H51.4969ZM44.5612 61H41.7041C41.7041 62.578 42.9833 63.8571 44.5612 63.8571V61ZM44.5612 53.2857V50.4286C42.9833 50.4286 41.7041 51.7078 41.7041 53.2857H44.5612ZM45.8969 53.2857H48.7541C48.7541 51.7078 47.4749 50.4286 45.8969 50.4286V53.2857ZM45.8969 55.5143H43.0398C43.0398 57.0922 44.319 58.3714 45.8969 58.3714V55.5143ZM46.0755 55.5143H48.9326C48.9326 53.9363 47.6535 52.6571 46.0755 52.6571V55.5143ZM46.0755 61V63.8571C47.6535 63.8571 48.9326 62.578 48.9326 61H46.0755ZM52.8398 61V57.2071H47.1255V61H52.8398ZM52.8398 57.2071C52.8398 56.7404 52.799 56.276 52.7223 55.816L47.0858 56.7554C47.1139 56.924 47.1255 57.0739 47.1255 57.2071H52.8398ZM52.7299 55.8639C52.6374 55.2439 52.4467 54.6393 52.1467 54.0693L47.09 56.7307C47.084 56.7194 47.08 56.7091 47.0778 56.7021C47.0756 56.6954 47.0766 56.6963 47.0782 56.7075L52.7299 55.8639ZM52.1649 54.1044C51.7972 53.3818 51.2559 52.7837 50.5795 52.3453L47.4715 57.1404C47.3988 57.0933 47.3199 57.0289 47.2452 56.946C47.1703 56.8631 47.113 56.7765 47.0719 56.6956L52.1649 54.1044ZM50.6 52.3587C49.7419 51.792 48.809 51.6357 48.0326 51.6357V57.35C48.0754 57.35 47.8044 57.3604 47.451 57.127L50.6 52.3587ZM48.0326 51.6357C47.4357 51.6357 46.838 51.7384 46.2606 51.9578L48.2904 57.2994C48.1892 57.3378 48.0963 57.35 48.0326 57.35V51.6357ZM46.3077 51.9403C45.617 52.189 45.0265 52.5952 44.5514 53.1078L48.7424 56.9922C48.6292 57.1143 48.4578 57.2396 48.2433 57.3168L46.3077 51.9403ZM44.5258 53.1358C44.0196 53.6967 43.7069 54.3334 43.511 54.9301L48.9401 56.7128C48.9536 56.6714 48.9218 56.7938 48.7681 56.9642L44.5258 53.1358ZM43.4991 54.9669C43.2872 55.643 43.2184 56.3373 43.2184 56.9857H48.9326C48.9326 56.8595 48.9397 56.7717 48.9467 56.7169C48.9538 56.6616 48.9595 56.6516 48.9519 56.676L43.4991 54.9669ZM47.0832 54.3122L46.1546 53.9622L44.1392 59.3092L45.0678 59.6592L47.0832 54.3122ZM48.0041 56.6357C48.0041 56.295 48.0664 56.1226 48.1044 56.0451L42.9752 53.5263C42.4894 54.5155 42.2898 55.5764 42.2898 56.6357H48.0041ZM48.1088 56.0361C48.1202 56.0126 48.1293 55.9977 48.1349 55.9893C48.1404 55.9811 48.1437 55.9773 48.1445 55.9765C48.1452 55.9757 48.1455 55.9754 48.1463 55.9748C48.1471 55.9741 48.1508 55.971 48.1592 55.9659L45.1775 51.0912C44.2021 51.6878 43.4611 52.5279 42.9708 53.5353L48.1088 56.0361ZM48.1592 55.9659C48.1442 55.9751 48.1461 55.9699 48.1817 55.9609C48.2203 55.9512 48.304 55.9357 48.4469 55.9357V50.2214C47.3361 50.2214 46.2026 50.4643 45.1775 51.0912L48.1592 55.9659ZM48.4469 55.9357C48.5629 55.9357 48.6255 55.9452 48.6453 55.949C48.664 55.9526 48.6315 55.9485 48.5667 55.9178L51.0129 50.7536C50.1638 50.3514 49.2695 50.2214 48.4469 50.2214V55.9357ZM48.5667 55.9178C48.5772 55.9228 48.5631 55.9173 48.5344 55.8951C48.5048 55.8723 48.4688 55.8387 48.4336 55.7945L52.9031 52.2341C52.3778 51.5747 51.7231 51.09 51.0129 50.7536L48.5667 55.9178ZM48.4672 55.8359C48.4921 55.8659 48.4992 55.8827 48.5035 55.8947L53.876 53.9481C53.6423 53.303 53.3018 52.715 52.8695 52.1927L48.4672 55.8359ZM48.5035 55.8947C48.5606 56.0522 48.5888 56.1769 48.6017 56.2718L54.2636 55.4997C54.1908 54.966 54.0571 54.4478 53.876 53.9481L48.5035 55.8947ZM48.6017 56.2717C48.6325 56.4973 48.6398 56.6396 48.6398 56.7143H54.3541C54.3541 56.3128 54.3186 55.9027 54.2636 55.4997L48.6017 56.2717ZM48.6398 56.7143V61H54.3541V56.7143H48.6398ZM51.4969 58.1429H49.9826V63.8571H51.4969V58.1429ZM47.4184 61V53.2857H41.7041V61H47.4184ZM44.5612 56.1429H45.8969V50.4286H44.5612V56.1429ZM43.0398 53.2857V55.5143H48.7541V53.2857H43.0398ZM45.8969 58.3714H46.0755V52.6571H45.8969V58.3714ZM43.2184 55.5143V61H48.9326V55.5143H43.2184ZM46.0755 58.1429H44.5612V63.8571H46.0755V58.1429ZM59.3431 61H56.486C56.486 62.578 57.7652 63.8571 59.3431 63.8571V61ZM59.2646 56.2857L56.4387 56.7075C56.4411 56.7235 56.4436 56.7395 56.4463 56.7554L59.2646 56.2857ZM58.9789 55.4L56.4323 56.6956C56.4383 56.7073 56.4444 56.719 56.4505 56.7307L58.9789 55.4ZM58.386 54.7429L56.8115 57.127C56.8183 57.1315 56.8252 57.136 56.832 57.1404L58.386 54.7429ZM56.636 54.6286L57.6038 57.3168C57.6195 57.3111 57.6352 57.3053 57.6509 57.2994L56.636 54.6286ZM56.0074 55.05L53.9119 53.1078C53.9033 53.1171 53.8948 53.1264 53.8863 53.1358L56.0074 55.05ZM55.586 55.8214L52.8714 54.9301C52.8674 54.9423 52.8635 54.9546 52.8596 54.9669L55.586 55.8214ZM55.436 56.9857L54.4283 59.6592C55.3059 59.9901 56.2901 59.869 57.0614 59.3354C57.8328 58.8018 58.2931 57.9236 58.2931 56.9857H55.436ZM54.5074 56.6357H51.6503C51.6503 57.8249 52.3869 58.8898 53.4997 59.3092L54.5074 56.6357ZM54.9003 54.7857L57.4649 56.0451L57.4693 56.0361L54.9003 54.7857ZM56.0289 53.5286L57.5197 55.9659L57.5197 55.9659L56.0289 53.5286ZM59.1503 53.3357L60.3734 50.7536L59.1503 53.3357ZM60.0289 54.0143L57.7941 55.7945C57.8052 55.8084 57.8164 55.8222 57.8277 55.8359L60.0289 54.0143ZM60.5503 54.9214L57.864 55.8947V55.8947L60.5503 54.9214ZM60.7931 55.8857L63.6241 55.4997V55.4997L60.7931 55.8857ZM60.8574 61V63.8571C62.4354 63.8571 63.7146 62.578 63.7146 61H60.8574ZM53.9217 61H51.0646C51.0646 62.578 52.3438 63.8571 53.9217 63.8571V61ZM53.9217 53.2857V50.4286C52.3438 50.4286 51.0646 51.7078 51.0646 53.2857H53.9217ZM55.2574 53.2857H58.1146C58.1146 51.7078 56.8354 50.4286 55.2574 50.4286V53.2857ZM55.2574 55.5143H52.4003C52.4003 57.0922 53.6795 58.3714 55.2574 58.3714V55.5143ZM55.436 55.5143H58.2931C58.2931 53.9363 57.014 52.6571 55.436 52.6571V55.5143ZM55.436 61V63.8571C57.014 63.8571 58.2931 62.578 58.2931 61H55.436ZM62.2003 61V57.2071H56.486V61H62.2003ZM62.2003 57.2071C62.2003 56.7404 62.1595 56.276 62.0828 55.816L56.4463 56.7554C56.4744 56.924 56.486 57.0739 56.486 57.2071H62.2003ZM62.0904 55.8639C61.9979 55.2439 61.8072 54.6393 61.5072 54.0693L56.4505 56.7307C56.4445 56.7194 56.4405 56.7091 56.4383 56.7021C56.4361 56.6954 56.4371 56.6963 56.4387 56.7075L62.0904 55.8639ZM61.5254 54.1044C61.1577 53.3818 60.6164 52.7837 59.94 52.3453L56.832 57.1404C56.7593 57.0933 56.6804 57.0289 56.6057 56.946C56.5308 56.8631 56.4735 56.7765 56.4323 56.6956L61.5254 54.1044ZM59.9605 52.3587C59.1024 51.792 58.1695 51.6357 57.3931 51.6357V57.35C57.4359 57.35 57.1648 57.3604 56.8115 57.127L59.9605 52.3587ZM57.3931 51.6357C56.7962 51.6357 56.1984 51.7384 55.6211 51.9578L57.6509 57.2994C57.5497 57.3378 57.4568 57.35 57.3931 57.35V51.6357ZM55.6682 51.9403C54.9775 52.189 54.387 52.5952 53.9119 53.1078L58.1029 56.9922C57.9897 57.1143 57.8183 57.2396 57.6038 57.3168L55.6682 51.9403ZM53.8863 53.1358C53.3801 53.6967 53.0674 54.3334 52.8714 54.9301L58.3005 56.7128C58.3141 56.6714 58.2823 56.7938 58.1285 56.9642L53.8863 53.1358ZM52.8596 54.9669C52.6477 55.643 52.5789 56.3373 52.5789 56.9857H58.2931C58.2931 56.8595 58.3001 56.7717 58.3072 56.7169C58.3143 56.6616 58.32 56.6516 58.3124 56.676L52.8596 54.9669ZM56.4437 54.3122L55.5151 53.9622L53.4997 59.3092L54.4283 59.6592L56.4437 54.3122ZM57.3646 56.6357C57.3646 56.295 57.4268 56.1226 57.4649 56.0451L52.3357 53.5263C51.8499 54.5155 51.6503 55.5764 51.6503 56.6357H57.3646ZM57.4693 56.0361C57.4807 56.0126 57.4898 55.9977 57.4954 55.9893C57.5009 55.9811 57.5042 55.9773 57.505 55.9765C57.5057 55.9757 57.506 55.9754 57.5068 55.9748C57.5076 55.9741 57.5113 55.971 57.5197 55.9659L54.538 51.0912C53.5626 51.6878 52.8216 52.5279 52.3313 53.5353L57.4693 56.0361ZM57.5197 55.9659C57.5046 55.9751 57.5065 55.9699 57.5422 55.9609C57.5808 55.9512 57.6645 55.9357 57.8074 55.9357V50.2214C56.6966 50.2214 55.5631 50.4643 54.538 51.0912L57.5197 55.9659ZM57.8074 55.9357C57.9234 55.9357 57.986 55.9452 58.0058 55.949C58.0245 55.9526 57.992 55.9485 57.9272 55.9178L60.3734 50.7536C59.5243 50.3514 58.63 50.2214 57.8074 50.2214V55.9357ZM57.9272 55.9178C57.9377 55.9228 57.9236 55.9173 57.8949 55.8951C57.8653 55.8723 57.8293 55.8387 57.7941 55.7945L62.2636 52.2341C61.7383 51.5747 61.0835 51.09 60.3734 50.7536L57.9272 55.9178ZM57.8277 55.8359C57.8526 55.8659 57.8597 55.8827 57.864 55.8947L63.2365 53.9481C63.0028 53.303 62.6623 52.715 62.23 52.1927L57.8277 55.8359ZM57.864 55.8947C57.9211 56.0522 57.9493 56.1769 57.9622 56.2718L63.6241 55.4997C63.5513 54.966 63.4176 54.4478 63.2365 53.9481L57.864 55.8947ZM57.9622 56.2717C57.9929 56.4973 58.0003 56.6396 58.0003 56.7143H63.7146C63.7146 56.3128 63.679 55.9027 63.6241 55.4997L57.9622 56.2717ZM58.0003 56.7143V61H63.7146V56.7143H58.0003ZM60.8574 58.1429H59.3431V63.8571H60.8574V58.1429ZM56.7789 61V53.2857H51.0646V61H56.7789ZM53.9217 56.1429H55.2574V50.4286H53.9217V56.1429ZM52.4003 53.2857V55.5143H58.1146V53.2857H52.4003ZM55.2574 58.3714H55.436V52.6571H55.2574V58.3714ZM52.5789 55.5143V61H58.2931V55.5143H52.5789ZM55.436 58.1429H53.9217V63.8571H55.436V58.1429ZM64.5917 60.7143L63.1457 63.1785C63.1537 63.1832 63.1617 63.1879 63.1698 63.1925L64.5917 60.7143ZM63.2417 59.3071L60.7146 60.6403C60.7188 60.6483 60.7231 60.6562 60.7273 60.6641L63.2417 59.3071ZM63.2345 55.0143L60.6949 53.7054C60.6922 53.7105 60.6896 53.7157 60.6869 53.7209L63.2345 55.0143ZM64.5631 53.5786L63.0992 51.125L64.5631 53.5786ZM68.5488 53.6214L66.9687 56.0019C66.9735 56.005 66.9783 56.0082 66.983 56.0113L68.5488 53.6214ZM69.7845 55.1714L67.1357 56.2423C67.1378 56.2476 67.14 56.253 67.1422 56.2583L69.7845 55.1714ZM70.1131 57.5643V60.4214C71.6226 60.4214 72.8716 59.2473 72.9648 57.7407L70.1131 57.5643ZM68.6203 57.5643H65.7631C65.7631 59.1422 67.0423 60.4214 68.6203 60.4214V57.5643ZM68.6203 57.0214H71.4774C71.4774 57.0113 71.4773 57.0012 71.4772 56.991L68.6203 57.0214ZM68.106 55.0357L65.8385 56.7741C65.8426 56.7794 65.8466 56.7846 65.8507 56.7898L68.106 55.0357ZM64.9131 55.1L67.1464 56.8821L64.9131 55.1ZM64.9131 59.1143L62.6887 60.9074C62.6917 60.9111 62.6947 60.9149 62.6977 60.9186L64.9131 59.1143ZM67.7488 59.4929L69.2539 61.9215L69.2631 61.9157L67.7488 59.4929ZM68.5488 58.5786L69.4124 55.8551C68.0572 55.4254 66.5922 56.0574 65.975 57.3382L68.5488 58.5786ZM70.0131 59.0429L72.6336 60.1814C72.9559 59.4396 72.9487 58.596 72.6138 57.8598C72.2789 57.1236 71.6476 56.5638 70.8767 56.3193L70.0131 59.0429ZM68.6488 60.65L70.1494 63.0814C70.154 63.0785 70.1586 63.0757 70.1631 63.0729L68.6488 60.65ZM63.8631 57.5643H61.006C61.006 59.1422 62.2852 60.4214 63.8631 60.4214V57.5643ZM63.8631 56.4V53.5429C62.2852 53.5429 61.006 54.822 61.006 56.4H63.8631ZM69.3703 56.4H72.2274C72.2274 54.822 70.9482 53.5429 69.3703 53.5429V56.4ZM69.3703 57.5643V60.4214C70.9482 60.4214 72.2274 59.1422 72.2274 57.5643H69.3703ZM66.6131 58.3571C66.2721 58.3571 66.1024 58.2871 66.0136 58.2361L63.1698 63.1925C64.2429 63.8082 65.4208 64.0714 66.6131 64.0714V58.3571ZM66.0376 58.25C65.9218 58.1821 65.837 58.1003 65.756 57.9502L60.7273 60.6641C61.2939 61.714 62.1092 62.5703 63.1457 63.1785L66.0376 58.25ZM65.7687 57.974C65.6994 57.8425 65.6203 57.6138 65.6203 57.2071H59.906C59.906 58.391 60.1459 59.5623 60.7146 60.6403L65.7687 57.974ZM65.6203 57.2071C65.6203 56.7188 65.7104 56.4491 65.7822 56.3077L60.6869 53.7209C60.1301 54.8176 59.906 56.0098 59.906 57.2071H65.6203ZM65.7742 56.3232C65.8629 56.1512 65.9447 56.0813 66.027 56.0322L63.0992 51.125C62.0482 51.7521 61.2443 52.6393 60.6949 53.7054L65.7742 56.3232ZM66.027 56.0322C66.0918 55.9935 66.2311 55.9286 66.5417 55.9286V50.2143C65.3476 50.2143 64.1678 50.4874 63.0992 51.125L66.027 56.0322ZM66.5417 55.9286C66.8712 55.9286 66.9658 55.9999 66.9687 56.0019L70.129 51.241C69.0271 50.5096 67.7836 50.2143 66.5417 50.2143V55.9286ZM66.983 56.0113C67.0014 56.0233 67.0604 56.056 67.1357 56.2423L72.4334 54.1006C71.9659 52.944 71.2011 51.9433 70.1146 51.2315L66.983 56.0113ZM67.1422 56.2583C67.2151 56.4356 67.299 56.7807 67.2614 57.3879L72.9648 57.7407C73.0415 56.5002 72.9063 55.2501 72.4269 54.0845L67.1422 56.2583ZM70.1131 54.7071H68.6203V60.4214H70.1131V54.7071ZM71.4774 57.5643V57.0214H65.7631V57.5643H71.4774ZM71.4772 56.991C71.465 55.8423 71.2566 54.4328 70.3613 53.2816L65.8507 56.7898C65.7248 56.628 65.7062 56.5216 65.7187 56.5699C65.7317 56.6201 65.7603 56.7688 65.7633 57.0518L71.4772 56.991ZM70.3734 53.2973C69.3696 51.988 67.9163 51.5357 66.5988 51.5357V57.25C66.6406 57.25 66.5386 57.257 66.3618 57.1816C66.166 57.0981 65.977 56.9547 65.8385 56.7741L70.3734 53.2973ZM66.5988 51.5357C65.2111 51.5357 63.7266 52.0062 62.6799 53.3179L67.1464 56.8821C67.0326 57.0246 66.8777 57.139 66.7219 57.2044C66.5832 57.2626 66.5208 57.25 66.5988 57.25V51.5357ZM62.6799 53.3179C61.7468 54.4871 61.4917 55.9021 61.4917 57.1429H67.206C67.206 56.8912 67.2334 56.7632 67.2439 56.725C67.2526 56.6937 67.2367 56.7689 67.1464 56.8821L62.6799 53.3179ZM61.4917 57.1429C61.4917 58.3779 61.763 59.7591 62.6887 60.9074L67.1375 57.3212C67.2204 57.424 67.2404 57.4978 67.2367 57.4852C67.2309 57.4649 67.206 57.3617 67.206 57.1429H61.4917ZM62.6977 60.9186C63.722 62.1762 65.1552 62.6643 66.5417 62.6643V56.95C66.495 56.95 66.5746 56.9426 66.7209 57.0048C66.881 57.0729 67.0264 57.1847 67.1285 57.31L62.6977 60.9186ZM66.5417 62.6643C67.4467 62.6643 68.3904 62.4566 69.2539 61.9215L66.2438 57.0643C66.329 57.0115 66.4103 56.9801 66.4736 56.9636C66.5341 56.9478 66.5613 56.95 66.5417 56.95V62.6643ZM69.2631 61.9157C70.1027 61.391 70.7186 60.6575 71.1227 59.819L65.975 57.3382C65.9822 57.3232 66.0062 57.2788 66.0558 57.2221C66.1064 57.1642 66.1682 57.1114 66.2346 57.07L69.2631 61.9157ZM67.6853 61.3021L69.1496 61.7664L70.8767 56.3193L69.4124 55.8551L67.6853 61.3021ZM67.3926 57.9043C67.3114 58.0912 67.2299 58.1676 67.1345 58.2271L70.1631 63.0729C71.2868 62.3705 72.1148 61.3754 72.6336 60.1814L67.3926 57.9043ZM67.1482 58.2186C67.01 58.304 66.855 58.3571 66.6131 58.3571V64.0714C67.8664 64.0714 69.0686 63.7484 70.1494 63.0814L67.1482 58.2186ZM66.7203 57.5643V56.4H61.006V57.5643H66.7203ZM63.8631 59.2571H69.3703V53.5429H63.8631V59.2571ZM66.5131 56.4V57.5643H72.2274V56.4H66.5131ZM69.3703 54.7071H63.8631V60.4214H69.3703V54.7071ZM72.2871 61H69.43C69.43 62.578 70.7092 63.8571 72.2871 63.8571V61ZM72.2871 53.2857V50.4286C70.7092 50.4286 69.43 51.7078 69.43 53.2857H72.2871ZM73.6157 53.2857H76.4728C76.4728 51.7078 75.1936 50.4286 73.6157 50.4286V53.2857ZM73.6157 55.1571L71.3461 56.8927C72.0901 57.8657 73.3716 58.2562 74.5318 57.8634C75.6921 57.4706 76.4728 56.382 76.4728 55.1571H73.6157ZM73.43 54.9143L70.7633 53.8886C70.4068 54.8155 70.5571 55.861 71.1604 56.6499L73.43 54.9143ZM73.8014 54.2357L76.0935 55.9415C76.0997 55.9331 76.1059 55.9247 76.1121 55.9162L73.8014 54.2357ZM74.33 53.7214L75.9148 56.0987C75.9494 56.0756 75.9836 56.0518 76.0171 56.0272L74.33 53.7214ZM74.98 53.3929L75.8508 56.1141C75.8617 56.1106 75.8726 56.107 75.8835 56.1034L74.98 53.3929ZM75.7228 53.25L75.8843 56.1026C75.9022 56.1016 75.92 56.1004 75.9379 56.099L75.7228 53.25ZM76.4514 53.2857H79.3085C79.3085 51.9068 78.3237 50.7247 76.9675 50.4756L76.4514 53.2857ZM76.4514 54.6857L75.7217 57.4481C76.5788 57.6745 77.4924 57.4902 78.1947 56.9493C78.8971 56.4085 79.3085 55.5722 79.3085 54.6857H76.4514ZM75.6085 54.6286L75.3459 51.7835L75.3419 51.7839L75.6085 54.6286ZM74.7657 54.9214L76.3178 57.3202L76.3197 57.319L74.7657 54.9214ZM74.1871 55.4929L71.7788 53.9556C71.7709 53.9679 71.7632 53.9802 71.7556 53.9925L74.1871 55.4929ZM73.8871 56.2429L76.6727 56.8782L76.6751 56.8677L73.8871 56.2429ZM73.7943 61V63.8571C75.3722 63.8571 76.6514 62.578 76.6514 61H73.7943ZM75.1443 61V53.2857H69.43V61H75.1443ZM72.2871 56.1429H73.6157V50.4286H72.2871V56.1429ZM70.7585 53.2857V55.1571H76.4728V53.2857H70.7585ZM75.8853 53.4216L75.6996 53.1787L71.1604 56.6499L71.3461 56.8927L75.8853 53.4216ZM76.0967 55.9399C76.0999 55.9316 76.1015 55.929 76.1005 55.9308C76.0995 55.9326 76.0971 55.9366 76.0935 55.9415L71.5093 52.53C71.1957 52.9514 70.9482 53.4079 70.7633 53.8886L76.0967 55.9399ZM76.1121 55.9162C76.0812 55.9587 76.0172 56.0304 75.9148 56.0987L72.7451 51.3441C72.2427 51.6791 71.8264 52.0937 71.4907 52.5552L76.1121 55.9162ZM76.0171 56.0272C75.9561 56.0719 75.8955 56.0998 75.8508 56.1141L74.1092 50.6716C73.5883 50.8383 73.0943 51.0853 72.6428 51.4156L76.0171 56.0272ZM75.8835 56.1034C75.8876 56.102 75.8887 56.1019 75.8874 56.1022C75.886 56.1024 75.8847 56.1026 75.8843 56.1026L75.5614 50.3974C75.0532 50.4262 74.5562 50.5224 74.0765 50.6823L75.8835 56.1034ZM75.9379 56.099C75.9507 56.0981 75.9559 56.0984 75.9544 56.0984C75.9527 56.0983 75.946 56.0978 75.9352 56.0958L76.9675 50.4756C76.4776 50.3856 75.9883 50.3647 75.5078 50.401L75.9379 56.099ZM73.5943 53.2857V54.6857H79.3085V53.2857H73.5943ZM77.1811 51.9233C76.5502 51.7567 75.9266 51.7299 75.3459 51.7835L75.8712 57.4736C75.9096 57.4701 75.8478 57.4814 75.7217 57.4481L77.1811 51.9233ZM75.3419 51.7839C74.5777 51.8555 73.8552 52.1068 73.2117 52.5238L76.3197 57.319C76.2615 57.3567 76.1898 57.3933 76.107 57.4221C76.0242 57.4509 75.9449 57.4667 75.8752 57.4732L75.3419 51.7839ZM73.2135 52.5227C72.658 52.8821 72.1611 53.3566 71.7788 53.9556L76.5955 57.0301C76.4989 57.1815 76.3877 57.275 76.3178 57.3202L73.2135 52.5227ZM71.7556 53.9925C71.4386 54.5062 71.2251 55.0559 71.0991 55.618L76.6751 56.8677C76.6729 56.8775 76.6594 56.9271 76.6186 56.9932L71.7556 53.9925ZM71.1015 55.6075C70.9878 56.106 70.9371 56.6086 70.9371 57.1071H76.6514C76.6514 56.9962 76.6626 56.9226 76.6727 56.8782L71.1015 55.6075ZM70.9371 57.1071V61H76.6514V57.1071H70.9371ZM73.7943 58.1429H72.2871V63.8571H73.7943V58.1429Z" fill="#81A5B0" mask="url(#path-9-outside-1_1117_12218)"/>
<defs>
<filter id="filter0_ii_1117_12218" x="14.9957" y="27.7857" width="67.1698" height="42.3572" filterUnits="userSpaceOnUse" color-interpolation-filters="sRGB">
<feFlood flood-opacity="0" result="BackgroundImageFix"/>
<feBlend mode="normal" in="SourceGraphic" in2="BackgroundImageFix" result="shape"/>
<feColorMatrix in="SourceAlpha" type="matrix" values="0 0 0 0 0 0 0 0 0 0 0 0 0 0 0 0 0 0 127 0" result="hardAlpha"/>
<feOffset dx="5.71429" dy="5.71429"/>
<feGaussianBlur stdDeviation="2.85714"/>
<feComposite in2="hardAlpha" operator="arithmetic" k2="-1" k3="1"/>
<feColorMatrix type="matrix" values="0 0 0 0 0 0 0 0 0 0 0 0 0 0 0 0 0 0 0.25 0"/>
<feBlend mode="normal" in2="shape" result="effect1_innerShadow_1117_12218"/>
<feColorMatrix in="SourceAlpha" type="matrix" values="0 0 0 0 0 0 0 0 0 0 0 0 0 0 0 0 0 0 127 0" result="hardAlpha"/>
<feOffset dx="-5.71429" dy="-5.71429"/>
<feGaussianBlur stdDeviation="5.71429"/>
<feComposite in2="hardAlpha" operator="arithmetic" k2="-1" k3="1"/>
<feColorMatrix type="matrix" values="0 0 0 0 0.983333 0 0 0 0 0.954653 0 0 0 0 0.954653 0 0 0 0.25 0"/>
<feBlend mode="normal" in2="effect1_innerShadow_1117_12218" result="effect2_innerShadow_1117_12218"/>
</filter>
</defs>
</svg>
