<svg width="39" height="41" viewBox="0 0 39 41" fill="none" xmlns="http://www.w3.org/2000/svg">
<path d="M10.0223 25.272C10.0538 25.23 10.1023 25.2031 10.1548 25.1987L15.7166 24.7214C15.7527 24.7182 15.7879 24.7258 15.8184 24.7419C15.8565 24.7617 15.8873 24.7947 15.9044 24.8364C15.9351 24.9116 15.9136 24.998 15.8509 25.0501C15.834 25.0642 14.154 26.4801 14.195 28.4739C14.1991 28.6824 14.3869 29.1097 14.5378 29.4533C14.6511 29.7113 14.7583 29.9553 14.8017 30.1276C14.9499 30.7134 14.8303 31.1697 14.7341 31.5362C14.6076 32.0187 14.538 32.2846 15.022 32.6447C15.6883 33.1401 15.9805 33.8858 15.8675 34.8006C15.7249 35.9555 16.1451 36.3701 16.5516 36.7708C16.8605 37.0755 17.1799 37.3905 17.0929 37.9789C16.9862 38.7011 16.2357 39.7666 15.008 40.4059C13.7872 41.0414 12.437 41.0519 11.2064 40.4359L11.1742 40.4193C10.1363 39.877 9.28318 38.329 8.77118 36.0605C7.98351 32.5693 8.16029 27.7424 10.0223 25.272Z" fill="#88DF95"/>
<path d="M15.7326 24.9062C15.7326 24.9062 13.9661 26.3656 14.0093 28.4774C14.0176 28.8841 14.5216 29.7761 14.6219 30.1728C14.944 31.4459 13.8965 32.0387 14.9115 32.7936C15.5316 33.2546 15.7866 33.9434 15.6835 34.7775C15.4157 36.9454 17.0811 36.7876 16.9092 37.9511C16.7127 39.2808 14.1446 41.6985 11.2896 40.2691C8.43461 38.8398 7.32953 29.1532 10.1708 25.3836L15.7326 24.9062Z" fill="#046846"/>
<path d="M15.4948 38.8745C15.693 37.5782 13.8555 37.7662 14.167 35.3515C14.2869 34.4224 14.0113 33.658 13.3308 33.1491C12.2172 32.3168 13.3767 31.649 13.0312 30.2343C12.9235 29.7936 12.3747 28.8048 12.3685 28.3521C12.35 26.9799 13.0097 25.8514 13.5623 25.1492L15.4816 24.9844C15.4816 24.9844 13.7151 26.4437 13.7583 28.5555C13.7666 28.9623 14.2706 29.8542 14.3709 30.2507C14.693 31.5238 13.6455 32.1168 14.6605 32.8715C15.2807 33.3327 15.5353 34.0215 15.4325 34.8553C15.1647 37.0232 16.8301 36.8655 16.6585 38.0289C16.5571 38.7148 15.8239 39.6888 14.7472 40.2765C15.1654 39.7933 15.4318 39.2864 15.4948 38.8745Z" fill="#046846"/>
<g opacity="0.7">
<path d="M15.7458 38.7981C15.944 37.5018 14.1065 37.6898 14.418 35.2751C14.5379 34.346 14.262 33.5816 13.5818 33.0727C12.4684 32.2404 13.6277 31.5723 13.2822 30.1579C13.1745 29.7172 12.6256 28.7284 12.6195 28.2757C12.601 26.9035 13.2607 25.7747 13.8132 25.0728L15.7326 24.9082C15.7326 24.9082 13.9661 26.3676 14.0093 28.4793C14.0176 28.8861 14.5215 29.778 14.6219 30.1748C14.9439 31.4478 13.8965 32.0406 14.9115 32.7956C15.5316 33.2566 15.7863 33.9454 15.6835 34.7794C15.4157 36.9473 17.0811 36.7896 16.9092 37.953C16.8079 38.6389 16.0747 39.6128 14.9979 40.2005C15.4164 39.7168 15.6828 39.21 15.7458 38.7981Z" fill="#046846"/>
</g>
<path d="M15.17 35.039C15.2899 34.1099 15.0142 33.3454 14.3337 32.8369C13.2203 32.0045 14.3796 31.3365 14.0341 29.9221C13.9265 29.4813 13.3776 28.4925 13.3715 28.0398C13.3544 26.7807 13.9084 25.7279 14.4267 25.0203L15.7323 24.9082C15.7323 24.9082 13.9658 26.3676 14.009 28.4793C14.0173 28.8861 14.5212 29.778 14.6216 30.1748C14.9436 31.4478 13.8962 32.0406 14.9112 32.7956C15.5313 33.2566 15.786 33.9454 15.6832 34.7794C15.4154 36.9473 17.0808 36.7896 16.9089 37.953C16.8581 38.2973 16.6476 38.7143 16.3148 39.1186C16.4081 38.9226 16.4716 38.7338 16.4977 38.5622C16.696 37.2657 14.8584 37.4537 15.17 35.039Z" fill="#046846"/>
<g opacity="0.6">
<path d="M9.03693 31.8022C9.06794 31.7426 9.10408 31.6874 9.14217 31.6345C9.15047 31.623 9.15853 31.6118 9.16707 31.6008C9.18734 31.5742 9.20858 31.5485 9.23055 31.5236L9.2308 31.5234C9.2518 31.4997 9.27279 31.4758 9.29501 31.4538C9.29599 31.4528 9.29697 31.4521 9.29794 31.4511C9.34507 31.4049 9.39561 31.3632 9.4481 31.3244C9.45372 31.3202 9.45885 31.3161 9.46446 31.3122C9.5194 31.2729 9.57629 31.2375 9.63586 31.2067C9.65222 31.1981 9.66882 31.1906 9.68543 31.183C9.68909 31.1813 9.69275 31.1793 9.69666 31.1776C9.7262 31.164 9.75623 31.1518 9.78675 31.1403C9.79506 31.1371 9.80311 31.1342 9.81141 31.1312C9.83998 31.121 9.86879 31.1117 9.89809 31.1032C9.90835 31.1002 9.91885 31.0978 9.92934 31.0949C9.95767 31.0875 9.98599 31.0805 10.0148 31.0748C10.0258 31.0726 10.037 31.0714 10.048 31.0695C10.0983 31.0609 10.1491 31.0551 10.2001 31.0521C10.2165 31.0512 10.2328 31.0494 10.2492 31.049C10.2692 31.0485 10.2892 31.0495 10.3093 31.0499C10.332 31.0504 10.3547 31.0507 10.3774 31.0521C10.3964 31.0534 10.4155 31.0558 10.4345 31.0578C10.4584 31.0602 10.4824 31.0634 10.5063 31.067C10.5246 31.07 10.5424 31.0734 10.5607 31.077C10.5861 31.0822 10.6113 31.0883 10.6364 31.0949C10.653 31.0993 10.6699 31.1034 10.6862 31.1085C10.7141 31.1171 10.7417 31.1268 10.7693 31.1371C10.7829 31.1422 10.7969 31.1466 10.8105 31.1522C10.8515 31.1688 10.8921 31.1872 10.9321 31.2082C11.19 31.3429 11.3885 31.5463 11.5171 31.7844C11.5386 31.8239 11.5579 31.8647 11.5755 31.9062C11.6453 32.072 11.6834 32.2505 11.6863 32.4316C11.69 32.658 11.639 32.8887 11.5266 33.1036C11.492 33.17 11.4514 33.231 11.4082 33.2894C11.4036 33.2957 11.399 33.3023 11.3941 33.3087C11.3101 33.4181 11.2122 33.5123 11.1038 33.5904C11.0994 33.5936 11.0952 33.597 11.0906 33.6002C11.0349 33.6393 10.977 33.6739 10.9167 33.7045C10.9099 33.7079 10.9028 33.7111 10.896 33.7145C10.7751 33.7733 10.6467 33.8143 10.5144 33.8368C10.5036 33.8388 10.4926 33.8405 10.4819 33.8419C10.4174 33.8512 10.3525 33.8568 10.287 33.8571C10.2792 33.8571 10.2714 33.8563 10.2636 33.8563C10.2031 33.8556 10.1423 33.8507 10.0817 33.8419C10.0714 33.8405 10.0612 33.8395 10.0509 33.838C9.98721 33.8273 9.92397 33.8116 9.86098 33.7919C9.84779 33.7877 9.83461 33.7831 9.82143 33.7784C9.75721 33.756 9.69373 33.7306 9.63147 33.6981C9.37363 33.5633 9.17513 33.3599 9.04646 33.1219C9.00348 33.0425 8.96857 32.9593 8.94171 32.8736C8.83404 32.5305 8.85723 32.1467 9.03693 31.8029C9.03669 31.8024 9.03693 31.8022 9.03693 31.8022Z" fill="#046846"/>
<path d="M10.7183 35.6782C10.7298 35.6636 10.7422 35.6506 10.7544 35.6367C10.7566 35.634 10.7588 35.6314 10.7613 35.6289C10.7586 35.6314 10.7556 35.6331 10.753 35.6358C10.7576 35.6306 10.763 35.6267 10.7676 35.6218C10.7884 35.5994 10.8101 35.5781 10.8328 35.5581C10.8484 35.5442 10.8638 35.5308 10.8802 35.5181C10.9065 35.4978 10.9341 35.4795 10.9624 35.4622C10.9734 35.4553 10.9837 35.4473 10.9949 35.4409C11.0022 35.4368 11.0093 35.4329 11.0166 35.4289C11.0181 35.4282 11.0196 35.427 11.0213 35.4263C11.0208 35.4267 11.0206 35.4272 11.0201 35.4277C11.0342 35.4204 11.0494 35.4158 11.064 35.4092C11.0916 35.3965 11.119 35.3838 11.1478 35.3738C11.1714 35.3657 11.1956 35.3599 11.22 35.3535C11.2501 35.3457 11.2801 35.3391 11.3109 35.3342C11.3348 35.3306 11.3585 35.3281 11.3826 35.3264C11.4156 35.324 11.4486 35.3237 11.4818 35.3249C11.5042 35.3257 11.5267 35.3262 11.5492 35.3288C11.5865 35.3328 11.6231 35.3406 11.6603 35.3491C11.6791 35.3535 11.6976 35.3562 11.7162 35.362C11.7714 35.3786 11.826 35.3997 11.879 35.4272C12.3339 35.6648 12.5099 36.2264 12.2724 36.6813C12.2455 36.7328 12.2135 36.7797 12.1786 36.8236C12.1637 36.8424 12.1471 36.859 12.131 36.8766C12.119 36.8895 12.1083 36.9037 12.0956 36.9159C12.0968 36.9154 12.098 36.9149 12.099 36.9144C12.0963 36.9171 12.0934 36.9188 12.0907 36.9215C12.0897 36.9225 12.0888 36.9239 12.0878 36.9249C12.0885 36.9242 12.089 36.9232 12.0897 36.9225C12.0822 36.9298 12.0736 36.9357 12.0658 36.9425C12.0487 36.9576 12.0319 36.9723 12.0138 36.986C11.9862 37.0072 11.9574 37.0258 11.9279 37.0438C11.9105 37.0543 11.8939 37.0656 11.8761 37.0748C11.829 37.0993 11.7806 37.1205 11.7303 37.1364C11.7211 37.1393 11.7113 37.1405 11.7018 37.143C11.6588 37.1554 11.6151 37.1647 11.5704 37.1708C11.5516 37.1732 11.5328 37.174 11.5138 37.1752C11.4774 37.1779 11.4408 37.1786 11.4041 37.1769C11.3841 37.1759 11.3643 37.1745 11.3443 37.1723C11.3065 37.1679 11.2686 37.1608 11.231 37.1515C11.2134 37.1474 11.1961 37.1442 11.1788 37.1388C11.1246 37.1222 11.0709 37.1019 11.0186 37.0746C10.8479 36.9855 10.7166 36.8507 10.6316 36.6932C10.575 36.5882 10.5388 36.473 10.5254 36.3546C10.5054 36.1766 10.5361 35.991 10.6253 35.8206C10.6516 35.7688 10.6839 35.7224 10.7183 35.6782ZM12.0941 36.9164C12.098 36.912 12.1015 36.9069 12.1051 36.9025C12.0997 36.9078 12.0944 36.9135 12.089 36.9188C12.0907 36.9178 12.0924 36.9171 12.0941 36.9164Z" fill="#046846"/>
</g>
<path d="M9.37282 31.5589C9.01366 32.2465 9.27979 33.0949 9.96735 33.4541C10.6547 33.8133 11.5034 33.5471 11.8623 32.8596C12.2214 32.172 11.9553 31.3238 11.2678 30.9646C10.5804 30.6055 9.73198 30.8716 9.37282 31.5589Z" fill="#046846"/>
<path d="M11.1835 31.0531C10.6373 30.7679 9.99051 30.8783 9.56738 31.2797C9.9849 30.8067 10.6844 30.659 11.2689 30.9642C11.9565 31.3234 12.2226 32.1718 11.8635 32.8591C11.7897 33.0005 11.6943 33.1231 11.5846 33.2271C11.6584 33.1436 11.7243 33.0513 11.7783 32.948C12.1369 32.2607 11.8708 31.4122 11.1835 31.0531Z" fill="#046846"/>
<path d="M9.97223 30.9648C9.86969 31.0654 9.78057 31.1829 9.71049 31.3172C9.35133 32.0047 9.61747 32.8529 10.305 33.2124C10.7267 33.4326 11.2087 33.4167 11.6015 33.2136C11.1786 33.6284 10.5216 33.7449 9.96833 33.4558C9.28077 33.0966 9.01463 32.2482 9.37379 31.5606C9.51223 31.2947 9.72465 31.0928 9.97223 30.9648Z" fill="#046846"/>
<path d="M10.9613 35.5774C10.7237 36.0322 10.8997 36.5938 11.3546 36.8314C11.8095 37.0689 12.371 36.8929 12.6086 36.438C12.8462 35.9832 12.6701 35.4216 12.2153 35.184C11.7604 34.9462 11.1991 35.1225 10.9613 35.5774Z" fill="#046846"/>
<path d="M12.1583 35.2425C11.7969 35.0538 11.3689 35.1268 11.0889 35.3924C11.3653 35.0794 11.8282 34.9818 12.2147 35.1837C12.6696 35.4215 12.8459 35.9828 12.608 36.4377C12.5592 36.5312 12.496 36.6123 12.4235 36.6811C12.4723 36.6259 12.516 36.5647 12.5516 36.4965C12.7895 36.0417 12.6134 35.4803 12.1583 35.2425Z" fill="#046846"/>
<path d="M11.3575 35.1836C11.2896 35.25 11.2306 35.3279 11.1842 35.4168C10.9466 35.8716 11.1226 36.4332 11.5775 36.6708C11.8566 36.8165 12.1755 36.806 12.4355 36.6715C12.1557 36.946 11.7208 37.0231 11.3546 36.8319C10.8997 36.5944 10.7237 36.0328 10.9613 35.5777C11.0531 35.4021 11.1937 35.2683 11.3575 35.1836Z" fill="#046846"/>
<g opacity="0.6">
<path d="M10.1705 25.3853L15.7323 24.9082C15.7323 24.9082 14.6037 25.8416 14.173 27.2949L9.07031 27.6948C9.3345 26.8048 9.69756 26.0128 10.1705 25.3853Z" fill="#046846"/>
</g>
<g opacity="0.7">
<path d="M10.1708 25.384L10.5273 25.3535C8.20705 29.4684 9.33971 38.2616 12.0494 39.6182C13.6169 40.4029 15.0968 40.0271 16.1464 39.3095C15.1439 40.386 13.2878 41.2702 11.2896 40.2698C8.43461 38.8405 7.32953 29.1539 10.1708 25.384Z" fill="#046846"/>
</g>
<path d="M0.872413 16.9761C1.17346 16.6558 1.55484 16.4136 2.00557 16.2556C2.782 15.9836 3.53817 16.0351 4.25356 16.4089C5.76199 17.1971 6.83996 19.3237 7.34562 21.0512C7.7043 22.2764 8.1162 24.099 7.55389 25.7752C7.19888 26.8339 6.47274 27.6174 5.56105 27.925C4.84394 28.1672 4.14882 28.1167 3.49495 27.7751C2.8926 27.4604 2.33103 26.8917 1.87152 26.1307C1.35439 25.2739 0.918559 24.2472 0.576245 23.0787C-0.281006 20.1497 -0.181388 18.0963 0.872413 16.9761Z" fill="#88DF95"/>
<path d="M1.00766 17.103C1.27722 16.8166 1.62466 16.5857 2.06684 16.4306C4.81536 15.4674 6.56698 19.0534 7.16713 21.1031C7.59734 22.5725 7.8769 24.2272 7.37759 25.7158C7.07337 26.6231 6.43025 27.4355 5.50146 27.7487C3.96983 28.2656 2.7793 27.2746 2.03046 26.0345C1.46962 25.1054 1.05845 24.0648 0.754468 23.0261C0.259553 21.3356 -0.334248 18.5294 1.00766 17.103Z" fill="#34B263"/>
<path opacity="0.5" d="M6.22334 26.9069C4.86507 27.3046 3.08904 25.3215 2.2567 22.478C1.42411 19.6345 1.85041 17.0069 3.20868 16.6094C4.56695 16.2116 6.34298 18.1945 7.17533 21.0382C8.00792 23.8817 7.58161 26.5091 6.22334 26.9069Z" fill="#34B263"/>
<path d="M1.00769 17.103C1.27724 16.8164 1.62468 16.5856 2.06686 16.4306C2.92533 16.1298 3.68663 16.2726 4.34586 16.674C3.76598 16.4121 3.11553 16.3505 2.39623 16.6027C1.95406 16.7578 1.60662 16.9885 1.33706 17.2752C-0.00460646 18.7016 0.589194 21.5077 1.08387 23.198C1.38785 24.2367 1.79877 25.2773 2.35985 26.2063C2.72243 26.8065 3.18903 27.3466 3.74693 27.6874C3.04106 27.3793 2.46191 26.7491 2.03024 26.0342C1.4694 25.1052 1.05847 24.0646 0.754247 23.0259C0.259576 21.3356 -0.334225 18.5294 1.00769 17.103Z" fill="#34B263"/>
<path d="M3.64849 16.6114L27.1991 2.58093C27.255 2.54748 27.3236 2.54626 27.3803 2.57581C27.3883 2.57996 27.3961 2.5846 27.4034 2.59021C27.4635 2.63392 27.4918 2.70936 27.4755 2.78188C25.991 9.30929 27.717 14.8269 29.4263 18.3064C31.2822 22.0841 33.5204 24.3445 33.5429 24.367C33.5944 24.4182 33.611 24.4947 33.5861 24.5628C33.5607 24.6309 33.4985 24.6783 33.4262 24.6839L6.63165 26.7842C6.33597 26.8647 6.01588 26.8166 5.67942 26.6411C4.64613 26.1013 3.58549 24.4095 2.97704 22.3312C2.14714 19.4969 2.44331 16.9955 3.64849 16.6114Z" fill="#88DF95"/>
<path d="M3.72438 16.7822L27.2943 2.74023C24.3944 15.4899 33.4112 24.4977 33.4112 24.4977L6.5984 26.5995C5.4904 26.9237 3.94876 24.9892 3.15499 22.278C2.36147 19.5671 2.61637 17.1067 3.72438 16.7822Z" fill="#046846"/>
<path d="M3.15518 22.2792C3.94895 24.9901 5.49059 26.9248 6.59859 26.6006L14.9589 25.9452C9.07 20.3386 10.1177 15.7464 10.8939 12.5117L3.72432 16.7831C2.61632 17.1076 2.36142 19.568 3.15518 22.2792Z" fill="#34B263"/>
<g opacity="0.7">
<path d="M5.97438 16.5776L24.0443 5.8125C24.0394 6.10012 23.901 8.11421 23.9071 8.40232L5.76953 17.4094C5.89723 17.0642 5.886 16.9365 5.97438 16.5776Z" fill="#046846"/>
</g>
<path d="M28.2164 1.20042C28.2875 1.17967 28.3592 1.16404 28.4288 1.15208C29.0368 1.03513 29.6953 1.15867 30.3858 1.5193C30.6514 1.65798 30.9239 1.83353 31.183 2.03253C33.2644 3.37493 35.4802 7.21778 36.8282 11.8222L36.6497 11.8744L36.8338 11.8422L36.6556 11.8947L36.8392 11.8603C36.8592 11.9281 36.8778 11.996 36.8968 12.0637L36.9984 12.4248C37.0233 12.5163 37.0467 12.6076 37.0704 12.6987L37.0883 12.7666C37.0883 12.7666 37.1422 12.9729 37.1595 13.0425L37.2091 13.2459C38.0903 16.8504 38.2439 20.2653 37.623 22.3729C37.2594 23.8381 36.6168 24.8519 35.7639 25.3053C35.6956 25.3419 35.626 25.3761 35.5569 25.4046C35.4773 25.4386 35.4018 25.4654 35.3257 25.4879C35.0544 25.5673 34.768 25.5966 34.4745 25.5751C34.0975 25.5475 33.702 25.4359 33.2991 25.2433C33.2515 25.2205 33.2036 25.1966 33.1558 25.1717C33.1048 25.1451 33.0535 25.117 33.0022 25.088C32.8062 24.9764 32.6062 24.8448 32.4079 24.6968C32.2114 24.5503 32.0119 24.3843 31.8146 24.2034C30.4302 22.9345 29.0649 20.8535 27.9708 18.344C27.8128 17.9819 27.6583 17.6054 27.5115 17.225C27.4375 17.0336 27.3653 16.8402 27.2947 16.6449C27.0803 16.0525 26.8806 15.4411 26.7014 14.8283C26.3437 13.6068 26.0656 12.3803 25.8744 11.1827C25.7816 10.6031 25.7091 10.0247 25.6583 9.46407C25.6083 8.91104 25.5787 8.36607 25.5707 7.8443C25.5572 6.9768 25.6024 6.16276 25.705 5.42442C25.746 5.12874 25.7965 4.84234 25.8556 4.57278C26.006 3.88522 26.2143 3.28556 26.4746 2.79016C26.9194 1.94341 27.5049 1.40869 28.2164 1.20042Z" fill="#88DF95"/>
<g opacity="0.6">
<path d="M26.1051 15.0125C24.8376 10.6828 24.6098 6.60238 25.2998 3.92832L27.2944 2.74023C24.3945 15.4899 33.4113 24.4977 33.4113 24.4977L31.283 24.6645C29.3014 22.7566 27.3473 19.2556 26.1051 15.0125Z" fill="#046846"/>
<path d="M15.1872 24.798C20.7473 25.3415 28.7287 24.586 32.3007 23.2151C32.9636 24.0501 33.4112 24.4976 33.4112 24.4976L6.59811 26.5994C5.4901 26.9236 3.94847 24.9891 3.1547 22.278C2.64416 20.5344 2.56969 18.898 2.87464 17.8633C5.73402 21.1722 7.64263 24.0606 15.1872 24.798Z" fill="#046846"/>
</g>
<path d="M35.2739 25.3066C37.9747 24.5158 38.5957 18.5178 36.6609 11.9098C34.726 5.30172 30.9681 0.585912 28.2672 1.37672C25.5664 2.16752 24.9454 8.16548 26.8803 14.7735C28.8151 21.3816 32.5731 26.0974 35.2739 25.3066Z" fill="#34B263"/>
<g opacity="0.5">
<path d="M28.268 1.37794C28.3822 1.34449 28.4989 1.32446 28.6166 1.31055C26.2631 2.56261 25.799 8.27501 27.6329 14.539C29.4856 20.8679 33.0101 25.4574 35.6775 25.14C35.5481 25.2088 35.4146 25.2674 35.2737 25.3084C32.5728 26.0993 28.8149 21.3831 26.8804 14.7748C24.9459 8.1666 25.567 2.16877 28.268 1.37794Z" fill="#34B263"/>
</g>
<path d="M35.8551 24.3741C33.5891 25.0375 30.2709 20.5166 28.4438 14.2761C26.617 8.0356 26.973 2.43893 29.2391 1.77554C31.5054 1.11215 34.8233 5.63305 36.6504 11.8736C38.4774 18.1141 38.1212 23.7108 35.8551 24.3741Z" fill="#046846"/>
<path d="M36.2272 12.2818C34.4004 6.04129 31.0823 1.52039 28.816 2.18378C28.6363 2.23627 28.47 2.3232 28.3145 2.43575C28.575 2.1054 28.8834 1.87955 29.2388 1.77554C31.5052 1.11215 34.8231 5.63305 36.6501 11.8736C38.3322 17.6192 38.1622 22.8159 36.3562 24.1222C37.7559 22.3466 37.7674 17.5432 36.2272 12.2818Z" fill="#046846"/>
<path d="M28.4437 14.2768C27.1347 9.80596 26.9467 5.66596 27.7786 3.43359C29.7028 4.82751 31.8131 8.44818 33.1387 12.9759C34.4476 17.4468 34.6356 21.5868 33.8038 23.8191C31.8798 22.4252 29.7692 18.8045 28.4437 14.2768Z" fill="#046846"/>
<path d="M28.4412 14.275C27.9202 12.4953 27.5774 10.7689 27.4053 9.19354C27.4128 9.19281 27.4197 9.1889 27.4275 9.1889L30.074 9.20697C30.281 9.15472 30.5047 9.19013 30.7388 9.31245C31.5533 9.73802 32.4206 11.1783 32.9487 12.982C33.6539 15.3909 33.4832 17.4171 32.5539 17.7145L30.2185 18.9146C30.217 18.9153 30.2151 18.9153 30.2136 18.9161C29.5463 17.5422 28.9384 15.9732 28.4412 14.275Z" fill="#88DF95"/>
<path d="M28.441 14.2753C27.94 12.5637 27.604 10.9013 27.4258 9.375L30.0974 9.39307C32.4345 12.524 32.4829 17.5417 32.4829 17.5417L30.1326 18.7493C29.4975 17.416 28.9181 15.9051 28.441 14.2753Z" fill="#046846"/>
<path d="M31.2099 11.7696C31.2126 11.6267 31.2097 11.4854 31.2023 11.3457C32.4515 14.2576 32.4837 17.5408 32.4837 17.5408L30.1334 18.7484C29.7122 17.8643 29.3164 16.9011 28.958 15.8781C30.4137 16.539 31.1747 13.6831 31.2099 11.7696Z" fill="#046846"/>
<path d="M30.0458 9.21464C30.2609 9.15165 30.4941 9.18461 30.7388 9.31255C31.5533 9.73813 32.4208 11.1787 32.9487 12.9823C33.2732 14.0905 33.4214 15.1817 33.366 16.0541C33.3064 16.9892 33.0117 17.5808 32.5358 17.7203C32.3207 17.7832 32.0875 17.7503 31.8429 17.6226L31.8426 17.6223C31.0283 17.197 30.1611 15.7565 29.633 13.9528C28.9232 11.5286 29.1009 9.49177 30.0458 9.21464Z" fill="#88DF95"/>
<path d="M32.483 17.5411C31.6658 17.7804 30.4694 16.1501 29.8106 13.8999C29.1519 11.6497 29.2803 9.63173 30.0973 9.39245C30.9145 9.15317 32.1109 10.7834 32.7696 13.0336C33.4284 15.2838 33.2999 17.3018 32.483 17.5411Z" fill="#FFD14B"/>
<path d="M29.8112 13.8997C29.3376 12.2814 29.2729 10.7872 29.5768 9.98438C30.2725 10.4832 31.0367 11.7887 31.5162 13.4268C31.9899 15.0451 32.0546 16.5394 31.7506 17.3422C31.0552 16.8434 30.291 15.5381 29.8112 13.8997Z" fill="#FFD14B"/>
</svg>
