<svg width="24" height="24" viewBox="0 0 24 24" fill="none" xmlns="http://www.w3.org/2000/svg">
<path fill-rule="evenodd" clip-rule="evenodd" d="M14 4.5H6C5.17157 4.5 4.5 5.17157 4.5 6V18C4.5 18.8284 5.17157 19.5 6 19.5H18C18.8284 19.5 19.5 18.8284 19.5 18V12H21V18C21 19.6569 19.6569 21 18 21H6C4.34315 21 3 19.6569 3 18V6C3 4.34315 4.34315 3 6 3H14V4.5ZM6.46967 14.4697L10.4697 10.4697C10.7626 10.1768 11.2374 10.1768 11.5303 10.4697L13 11.9393L15.4697 9.46967L16.5303 10.5303L13.5303 13.5303C13.2374 13.8232 12.7626 13.8232 12.4697 13.5303L11 12.0607L7.53033 15.5303L6.46967 14.4697ZM20.5 6C20.5 6.82843 19.8284 7.5 19 7.5C18.1716 7.5 17.5 6.82843 17.5 6C17.5 5.17157 18.1716 4.5 19 4.5C19.8284 4.5 20.5 5.17157 20.5 6ZM22 6C22 7.65685 20.6569 9 19 9C17.3431 9 16 7.65685 16 6C16 4.34315 17.3431 3 19 3C20.6569 3 22 4.34315 22 6Z" fill="white"/>
</svg>
