<svg width="14" height="14" viewBox="0 0 14 14" fill="none" xmlns="http://www.w3.org/2000/svg">
<path fill-rule="evenodd" clip-rule="evenodd" d="M10.4183 0.643498C10.2804 0.423136 10.0772 0.251254 9.83702 0.151778C9.59685 0.0523023 9.33163 0.0301823 9.0783 0.0884978L7.2803 0.501498C7.09603 0.543849 6.90456 0.543849 6.7203 0.501498L4.9223 0.0884978C4.66896 0.0301823 4.40375 0.0523023 4.16357 0.151778C3.9234 0.251254 3.72021 0.423136 3.5823 0.643498L2.6023 2.2075C2.5023 2.3675 2.3673 2.5025 2.2073 2.6035L0.643297 3.5835C0.423315 3.72129 0.251685 3.92415 0.152231 4.16391C0.0527766 4.40368 0.0304314 4.66846 0.088297 4.9215L0.501297 6.7215C0.543495 6.90544 0.543495 7.09655 0.501297 7.2805L0.088297 9.0795C0.0302065 9.33269 0.0524392 9.59768 0.151904 9.83765C0.251369 10.0776 0.423125 10.2806 0.643297 10.4185L2.2073 11.3985C2.3673 11.4985 2.5023 11.6335 2.6033 11.7935L3.5833 13.3575C3.8653 13.8085 4.4033 14.0315 4.9223 13.9125L6.7203 13.4995C6.90456 13.4571 7.09603 13.4571 7.2803 13.4995L9.0793 13.9125C9.33249 13.9706 9.59748 13.9484 9.83745 13.8489C10.0774 13.7494 10.2804 13.5777 10.4183 13.3575L11.3983 11.7935C11.4983 11.6335 11.6333 11.4985 11.7933 11.3985L13.3583 10.4185C13.5785 10.2804 13.7502 10.0772 13.8494 9.83704C13.9487 9.59687 13.9707 9.33173 13.9123 9.0785L13.5003 7.2805C13.4579 7.09623 13.4579 6.90476 13.5003 6.7205L13.9133 4.9215C13.9715 4.66841 13.9494 4.40349 13.8501 4.16353C13.7508 3.92357 13.5793 3.72049 13.3593 3.5825L11.7943 2.6025C11.6345 2.50231 11.4995 2.36728 11.3993 2.2075L10.4183 0.643498ZM9.9153 4.7705C9.97715 4.65676 9.99247 4.52347 9.95805 4.39867C9.92362 4.27387 9.84213 4.16728 9.73072 4.10134C9.6193 4.0354 9.48666 4.01525 9.36069 4.04512C9.23472 4.07499 9.12524 4.15255 9.0553 4.2615L6.4403 8.6875L4.8613 7.1755C4.81445 7.1274 4.7584 7.08923 4.69649 7.06326C4.63457 7.03729 4.56806 7.02406 4.50092 7.02435C4.43378 7.02465 4.36739 7.03846 4.3057 7.06496C4.24402 7.09147 4.1883 7.13013 4.14188 7.17863C4.09546 7.22714 4.05928 7.2845 4.0355 7.34729C4.01173 7.41008 4.00084 7.47701 4.00349 7.5441C4.00614 7.61119 4.02228 7.67705 4.05094 7.73777C4.0796 7.79849 4.12019 7.85281 4.1703 7.8975L6.2043 9.8465C6.25874 9.89855 6.32423 9.93763 6.39589 9.96082C6.46755 9.98402 6.54353 9.99072 6.61814 9.98043C6.69276 9.97014 6.76408 9.94313 6.82679 9.90141C6.8895 9.85969 6.94198 9.80434 6.9803 9.7395L9.9153 4.7705Z" fill="#34B263"/>
</svg>
