<svg width="211" height="45" viewBox="0 0 211 45" fill="none" xmlns="http://www.w3.org/2000/svg">
<path d="M7.5853 25.9679L0.256546 16.4279C-0.541565 15.389 0.619141 14.1666 2.40376 14.1666L34.5296 14.1666C35.8555 14.1666 36.9303 14.8662 36.9303 15.7291L36.9303 37.6041C36.9303 38.4671 35.8555 39.1666 34.5296 39.1666L2.40376 39.1666C0.619139 39.1666 -0.541566 37.9443 0.256545 36.9054L7.5853 27.3654C7.92325 26.9255 7.92325 26.4077 7.5853 25.9679Z" fill="#0D1513"/>
<path d="M203.415 25.9679L210.743 16.4279C211.542 15.389 210.381 14.1666 208.596 14.1666L176.47 14.1666C175.144 14.1666 174.07 14.8662 174.07 15.7291L174.07 37.6041C174.07 38.4671 175.144 39.1666 176.47 39.1666L208.596 39.1666C210.381 39.1666 211.542 37.9443 210.743 36.9054L203.415 27.3654C203.077 26.9255 203.077 26.4077 203.415 25.9679Z" fill="#0D1513"/>
<path d="M173 34.8332L173 6.83325C173 5.72868 171.925 4.83325 170.6 4.83325C170.6 4.83325 131.106 0.83325 105.8 0.83325C80.494 0.833249 41 4.83325 41 4.83325C39.6745 4.83325 38.6 5.72868 38.6 6.83325L38.6 34.8332C38.6 35.9378 39.6745 35.6666 41 35.6666C91.6329 42.3076 119.958 42.1479 170.6 35.6666C171.925 35.6666 173 35.9378 173 34.8332Z" fill="#0D1513"/>
<path d="M75.3006 26L71.5566 14.48H73.2926L76.4846 24.312L79.7166 14.48H81.4526L77.7086 26H75.3006ZM82.8191 26V14.48H84.4911V26H82.8191ZM86.8934 26V14.48H91.5494C91.6614 14.48 91.8001 14.4853 91.9654 14.496C92.1308 14.5013 92.2881 14.5173 92.4374 14.544C93.0774 14.6453 93.6108 14.864 94.0374 15.2C94.4694 15.536 94.7921 15.96 95.0054 16.472C95.2188 16.984 95.3254 17.5493 95.3254 18.168C95.3254 18.792 95.2188 19.36 95.0054 19.872C94.7921 20.384 94.4694 20.808 94.0374 21.144C93.6108 21.48 93.0774 21.6987 92.4374 21.8C92.2881 21.8213 92.1281 21.8373 91.9574 21.848C91.7921 21.8587 91.6561 21.864 91.5494 21.864H88.5654V26H86.8934ZM88.5654 20.28H91.4854C91.5921 20.28 91.7094 20.2747 91.8374 20.264C91.9708 20.2533 92.0961 20.2347 92.2134 20.208C92.5548 20.128 92.8294 19.9813 93.0374 19.768C93.2454 19.5493 93.3948 19.2987 93.4854 19.016C93.5761 18.7333 93.6214 18.4507 93.6214 18.168C93.6214 17.8853 93.5761 17.6053 93.4854 17.328C93.3948 17.0453 93.2454 16.7973 93.0374 16.584C92.8294 16.3653 92.5548 16.216 92.2134 16.136C92.0961 16.104 91.9708 16.0827 91.8374 16.072C91.7094 16.0613 91.5921 16.056 91.4854 16.056H88.5654V20.28ZM104.936 26.24C103.784 26.24 102.802 25.9893 101.992 25.488C101.181 24.9813 100.56 24.2773 100.128 23.376C99.7011 22.4747 99.4878 21.4293 99.4878 20.24C99.4878 19.0507 99.7011 18.0053 100.128 17.104C100.56 16.2027 101.181 15.5013 101.992 15C102.802 14.4933 103.784 14.24 104.936 14.24C106.264 14.24 107.362 14.576 108.232 15.248C109.106 15.92 109.714 16.824 110.056 17.96L108.36 18.416C108.136 17.6107 107.736 16.9787 107.16 16.52C106.589 16.0613 105.848 15.832 104.936 15.832C104.12 15.832 103.44 16.016 102.896 16.384C102.352 16.752 101.941 17.2667 101.664 17.928C101.392 18.5893 101.256 19.36 101.256 20.24C101.25 21.12 101.384 21.8907 101.656 22.552C101.933 23.2133 102.344 23.728 102.888 24.096C103.437 24.464 104.12 24.648 104.936 24.648C105.848 24.648 106.589 24.4187 107.16 23.96C107.736 23.496 108.136 22.864 108.36 22.064L110.056 22.52C109.714 23.656 109.106 24.56 108.232 25.232C107.362 25.904 106.264 26.24 104.936 26.24ZM111.975 26V14.48H113.647V24.424H118.863V26H111.975ZM124.814 26.24C123.912 26.24 123.115 26.056 122.422 25.688C121.734 25.3147 121.195 24.7947 120.806 24.128C120.416 23.456 120.222 22.6667 120.222 21.76V14.488L121.918 14.48V21.672C121.918 22.1627 122 22.5947 122.166 22.968C122.331 23.3413 122.552 23.6533 122.83 23.904C123.107 24.1547 123.416 24.344 123.758 24.472C124.104 24.6 124.456 24.664 124.814 24.664C125.176 24.664 125.528 24.6 125.87 24.472C126.216 24.3387 126.528 24.1467 126.806 23.896C127.083 23.6453 127.302 23.3333 127.462 22.96C127.627 22.5867 127.71 22.1573 127.71 21.672V14.48H129.406V21.76C129.406 22.6613 129.211 23.448 128.822 24.12C128.432 24.792 127.891 25.3147 127.198 25.688C126.51 26.056 125.715 26.24 124.814 26.24ZM131.643 26V14.48H136.171C136.902 14.48 137.515 14.6293 138.011 14.928C138.507 15.2267 138.881 15.6133 139.131 16.088C139.382 16.5573 139.507 17.0533 139.507 17.576C139.507 18.2107 139.35 18.7547 139.035 19.208C138.726 19.6613 138.307 19.9707 137.779 20.136L137.763 19.744C138.499 19.9253 139.065 20.28 139.459 20.808C139.854 21.3307 140.051 21.9413 140.051 22.64C140.051 23.3173 139.915 23.9067 139.643 24.408C139.377 24.9093 138.985 25.3013 138.467 25.584C137.955 25.8613 137.334 26 136.603 26H131.643ZM133.339 24.408H136.347C136.726 24.408 137.065 24.336 137.363 24.192C137.667 24.048 137.905 23.8427 138.075 23.576C138.251 23.304 138.339 22.9813 138.339 22.608C138.339 22.2613 138.262 21.9493 138.107 21.672C137.958 21.3893 137.739 21.168 137.451 21.008C137.169 20.8427 136.835 20.76 136.451 20.76H133.339V24.408ZM133.339 19.184H136.147C136.457 19.184 136.734 19.1227 136.979 19C137.23 18.872 137.427 18.6907 137.571 18.456C137.721 18.216 137.795 17.928 137.795 17.592C137.795 17.144 137.646 16.776 137.347 16.488C137.049 16.2 136.649 16.056 136.147 16.056H133.339V19.184Z" fill="white"/>
</svg>
