<svg width="24" height="24" viewBox="0 0 24 24" fill="none" xmlns="http://www.w3.org/2000/svg">
<path fill-rule="evenodd" clip-rule="evenodd" d="M8.30798 10.6302L7.11053 9.53287L4.82526 7.43872L6.2206 14.5L17.7785 14.5L19.1957 7.37546L16.7909 9.54072L15.5696 10.6404L14.5857 9.32401L12.012 5.88049L9.30678 9.34941L8.30798 10.6302ZM20.9999 5.99372C21.0272 5.79722 20.9961 5.59675 20.9109 5.41913C20.8258 5.24152 20.6906 5.09523 20.5234 4.99985C20.3562 4.90447 20.165 4.86455 19.9754 4.88543C19.7858 4.90631 19.6069 4.987 19.4626 5.11669L16.9066 7.41812L15.7872 8.426L14.8855 7.2195L12.7603 4.37609C12.6738 4.2604 12.5635 4.1665 12.4374 4.1014C12.3113 4.03629 12.1727 4.00165 12.0319 4.00006C11.8912 3.99847 11.7519 4.02996 11.6245 4.0922C11.497 4.15444 11.3847 4.24581 11.2959 4.35953L9.04929 7.24039L8.12394 8.42697L7.01454 7.41036L4.56365 5.16444C4.4197 5.0324 4.24026 4.94963 4.04963 4.92733C3.85901 4.90503 3.66641 4.9443 3.49792 5.03979C3.32943 5.13529 3.1932 5.28242 3.10767 5.46123C3.02215 5.64005 2.99146 5.84193 3.01977 6.03952L4.98801 16L19.0095 16L20.9999 5.99372ZM6.5 17.5383H5V19H6.5L17.5 19H19V17.5383H17.5L6.5 17.5383Z" fill="#6E6E71"/>
</svg>
