<svg width="20" height="20" viewBox="0 0 20 20" fill="none" xmlns="http://www.w3.org/2000/svg">
<g clip-path="url(#clip0_221_20)">
<path d="M13.3333 11.6666C13.3333 12.357 13.8929 12.9166 14.5833 12.9166C15.2736 12.9166 15.8333 12.357 15.8333 11.6666C15.8333 10.9763 15.2736 10.4166 14.5833 10.4166C13.8929 10.4166 13.3333 10.9763 13.3333 11.6666Z" stroke="white" stroke-width="1.5"/>
<path d="M15.7499 6.66663C15.8046 6.39737 15.8333 6.11868 15.8333 5.83329C15.8333 3.53211 13.9678 1.66663 11.6666 1.66663C9.3654 1.66663 7.49992 3.53211 7.49992 5.83329C7.49992 6.11868 7.52861 6.39737 7.58327 6.66663" stroke="white" stroke-width="1.5"/>
<path d="M5.83329 6.66095H13.3333C15.6903 6.66095 16.8688 6.66095 17.6011 7.39354C18.3333 8.12612 18.3333 9.3052 18.3333 11.6634V13.3308C18.3333 15.689 18.3333 16.8681 17.6011 17.6007C16.8688 18.3333 15.6903 18.3333 13.3333 18.3333H8.33329C5.1906 18.3333 3.61925 18.3333 2.64294 17.3565C1.66663 16.3797 1.66663 14.8076 1.66663 11.6634V9.99589C1.66663 6.85168 1.66663 5.27957 2.64294 4.30279C3.42884 3.5165 4.60032 3.36316 6.66663 3.33325H8.33329" stroke="white" stroke-width="1.5" stroke-linecap="round"/>
</g>
<defs>
<clipPath id="clip0_221_20">
<rect width="20" height="20" fill="white"/>
</clipPath>
</defs>
</svg>
