<svg width="20" height="20" viewBox="0 0 20 20" fill="none" xmlns="http://www.w3.org/2000/svg">
<path d="M4.43475 8.06976C6.44614 4.51064 7.45184 2.73108 8.83187 2.27299C9.59108 2.02098 10.4089 2.02098 11.1681 2.27299C12.5481 2.73108 13.5538 4.51064 15.5652 8.06976C17.5766 11.6289 18.5823 13.4084 18.2806 14.8584C18.1147 15.6561 17.7058 16.3797 17.1125 16.9254C16.0342 17.9173 14.0228 17.9173 9.99999 17.9173C5.9772 17.9173 3.9658 17.9173 2.88746 16.9254C2.29422 16.3797 1.88531 15.6561 1.71934 14.8584C1.41765 13.4084 2.42335 11.6289 4.43475 8.06976Z" stroke="white" stroke-width="1.5"/>
<path d="M10.2018 14.1667V10.8333C10.2018 10.4405 10.2018 10.2441 10.0798 10.122C9.95773 10 9.76131 10 9.36847 10" stroke="white" stroke-width="1.5" stroke-linecap="round" stroke-linejoin="round"/>
<path d="M9.99331 7.5H10.0008" stroke="white" stroke-width="2" stroke-linecap="round" stroke-linejoin="round"/>
</svg>
