<svg width="20" height="20" viewBox="0 0 20 20" fill="none" xmlns="http://www.w3.org/2000/svg">
<path d="M16.6666 17.5H7.49996C4.7501 17.5 3.37517 17.5 2.5209 16.6457C1.66663 15.7915 1.66663 14.4165 1.66663 11.6667V2.5" stroke="#6E6E71" stroke-width="1.25" stroke-linecap="round"/>
<path d="M13.3405 5.83329C13.3405 5.48812 13.6203 5.20829 13.9655 5.20829C14.3107 5.20829 14.5905 5.48811 14.5905 5.83329L13.3405 5.83329ZM5 14.7916C4.65482 14.7916 4.375 14.5118 4.375 14.1666C4.375 13.8214 4.65482 13.5416 5 13.5416L5 14.7916ZM12.5542 7.09348C12.3185 7.34562 11.923 7.3589 11.6708 7.12315C11.4187 6.88741 11.4054 6.4919 11.6412 6.23977L12.5542 7.09348ZM12.9089 5.79902L12.4524 5.37216L12.4524 5.37216L12.9089 5.79902ZM15.0221 5.79902L15.4786 5.37216L15.0221 5.79902ZM16.2899 6.23977C16.5256 6.4919 16.5123 6.88741 16.2602 7.12315C16.0081 7.3589 15.6126 7.34562 15.3768 7.09348L16.2899 6.23977ZM13.9655 4.99996L13.9655 4.37496L13.9655 4.99996ZM14.5905 5.83329C14.5905 8.75885 13.5206 11.0222 11.7467 12.5452C9.98574 14.0571 7.58817 14.7916 5 14.7916L5 13.5416C7.36335 13.5416 9.44854 12.8709 10.9324 11.5968C12.4034 10.3339 13.3405 8.43059 13.3405 5.83329L14.5905 5.83329ZM11.6412 6.23977L12.4524 5.37216L13.3654 6.22588L12.5542 7.09348L11.6412 6.23977ZM15.4786 5.37216L16.2899 6.23977L15.3768 7.09348L14.5656 6.22588L15.4786 5.37216ZM12.4524 5.37216C12.6891 5.11898 12.9092 4.88166 13.1128 4.71549C13.3289 4.53916 13.6059 4.37496 13.9655 4.37496L13.9655 5.62496C14.0157 5.62496 14.0134 5.59394 13.9031 5.68396C13.7803 5.78414 13.6268 5.94635 13.3654 6.22588L12.4524 5.37216ZM14.5656 6.22588C14.3042 5.94635 14.1507 5.78414 14.0279 5.68396C13.9176 5.59394 13.9153 5.62496 13.9655 5.62496L13.9655 4.37496C14.3252 4.37496 14.6021 4.53916 14.8182 4.71549C15.0219 4.88166 15.2419 5.11899 15.4786 5.37216L14.5656 6.22588Z" fill="#6E6E71"/>
</svg>
