<svg width="20" height="20" viewBox="0 0 20 20" fill="none" xmlns="http://www.w3.org/2000/svg">
<path d="M16.6666 17.5H7.49996C4.7501 17.5 3.37517 17.5 2.5209 16.6457C1.66663 15.7915 1.66663 14.4165 1.66663 11.6667V2.5" stroke="url(#paint0_linear_20_12043)" stroke-width="1.25" stroke-linecap="round"/>
<path d="M13.3405 5.83333C13.3405 5.48815 13.6203 5.20833 13.9655 5.20833C14.3107 5.20833 14.5905 5.48815 14.5905 5.83333L13.3405 5.83333ZM5 14.7917C4.65482 14.7917 4.375 14.5118 4.375 14.1667C4.375 13.8215 4.65482 13.5417 5 13.5417L5 14.7917ZM12.5542 7.09352C12.3185 7.34566 11.923 7.35894 11.6708 7.12319C11.4187 6.88745 11.4054 6.49194 11.6412 6.23981L12.5542 7.09352ZM12.9089 5.79906L12.4524 5.3722L12.4524 5.3722L12.9089 5.79906ZM15.0221 5.79906L15.4786 5.3722L15.0221 5.79906ZM16.2899 6.23981C16.5256 6.49194 16.5123 6.88745 16.2602 7.12319C16.0081 7.35894 15.6126 7.34565 15.3768 7.09352L16.2899 6.23981ZM13.9655 5L13.9655 4.375L13.9655 5ZM14.5905 5.83333C14.5905 8.75888 13.5206 11.0222 11.7467 12.5453C9.98574 14.0572 7.58817 14.7917 5 14.7917L5 13.5417C7.36335 13.5417 9.44854 12.8709 10.9324 11.5969C12.4034 10.334 13.3405 8.43062 13.3405 5.83333L14.5905 5.83333ZM11.6412 6.23981L12.4524 5.3722L13.3654 6.22591L12.5542 7.09352L11.6412 6.23981ZM15.4786 5.3722L16.2899 6.23981L15.3768 7.09352L14.5656 6.22592L15.4786 5.3722ZM12.4524 5.3722C12.6891 5.11902 12.9092 4.8817 13.1128 4.71552C13.3289 4.5392 13.6059 4.375 13.9655 4.375L13.9655 5.625C14.0157 5.625 14.0134 5.59398 13.9031 5.684C13.7803 5.78418 13.6268 5.94639 13.3654 6.22591L12.4524 5.3722ZM14.5656 6.22592C14.3042 5.94639 14.1507 5.78418 14.0279 5.684C13.9176 5.59398 13.9153 5.625 13.9655 5.625L13.9655 4.375C14.3252 4.375 14.6021 4.5392 14.8182 4.71553C15.0219 4.8817 15.2419 5.11902 15.4786 5.3722L14.5656 6.22592Z" fill="url(#paint1_linear_20_12043)"/>
<defs>
<linearGradient id="paint0_linear_20_12043" x1="9.16663" y1="2.5" x2="9.16663" y2="17.5" gradientUnits="userSpaceOnUse">
<stop stop-color="#AF33E4"/>
<stop offset="1" stop-color="#2F70E4"/>
</linearGradient>
<linearGradient id="paint1_linear_20_12043" x1="10.4167" y1="14.1667" x2="10.4167" y2="5" gradientUnits="userSpaceOnUse">
<stop stop-color="#AF33E4"/>
<stop offset="1" stop-color="#2F70E4"/>
</linearGradient>
</defs>
</svg>
