<svg width="20" height="20" viewBox="0 0 20 20" fill="none" xmlns="http://www.w3.org/2000/svg">
<g clip-path="url(#clip0_185_13426)">
<path d="M9.99988 19.999C15.5227 19.999 19.9999 15.5219 19.9999 9.99902C19.9999 4.47618 15.5227 -0.000976562 9.99988 -0.000976562C4.47703 -0.000976562 -0.00012207 4.47618 -0.00012207 9.99902C-0.00012207 15.5219 4.47703 19.999 9.99988 19.999Z" fill="#6CDE07"/>
<path fill-rule="evenodd" clip-rule="evenodd" d="M14.0624 11.9703C14.0624 13.5765 12.7586 14.6428 10.8336 14.8034V16.249H9.51488V14.789C8.2128 14.6422 6.97568 14.1421 5.93738 13.3428L6.90738 12.014C7.77175 12.6859 8.58988 13.124 9.5755 13.2703V10.4078C7.36238 9.85277 6.33175 9.04965 6.33175 7.39965C6.33175 5.82277 7.61988 4.74215 9.51488 4.5959V3.74902H10.8336V4.62527C11.8643 4.73976 12.847 5.12248 13.6836 5.73527L12.8343 7.10777C12.1674 6.6259 11.4855 6.31902 10.773 6.1734V8.94777C13.0774 9.50277 14.0624 10.3934 14.0624 11.9703ZM9.57488 8.6409V6.0709C8.6205 6.14402 8.1205 6.65527 8.1205 7.29777C8.1205 7.91027 8.408 8.30527 9.5755 8.64152L9.57488 8.6409ZM12.2736 12.0721C12.2736 11.4159 11.9549 11.0215 10.773 10.6853V13.329C11.728 13.2553 12.2736 12.7734 12.2736 12.0728V12.0721Z" fill="white"/>
</g>
<defs>
<clipPath id="clip0_185_13426">
<rect width="20" height="20" fill="white"/>
</clipPath>
</defs>
</svg>
