<svg width="24" height="24" viewBox="0 0 24 24" fill="none" xmlns="http://www.w3.org/2000/svg">
<path d="M17 10.8045C17 10.4588 17 10.286 17.052 10.132C17.2032 9.68444 17.6018 9.51076 18.0011 9.32888C18.45 9.12442 18.6744 9.02219 18.8968 9.0042C19.1493 8.98378 19.4022 9.03818 19.618 9.15929C19.9041 9.31984 20.1036 9.62493 20.3079 9.87302C21.2513 11.0188 21.7229 11.5918 21.8955 12.2236C22.0348 12.7334 22.0348 13.2666 21.8955 13.7764C21.6438 14.6979 20.8485 15.4704 20.2598 16.1854C19.9587 16.5511 19.8081 16.734 19.618 16.8407C19.4022 16.9618 19.1493 17.0162 18.8968 16.9958C18.6744 16.9778 18.45 16.8756 18.0011 16.6711C17.6018 16.4892 17.2032 16.3156 17.052 15.868C17 15.714 17 15.5412 17 15.1955V10.8045Z" stroke="#6E6E71" stroke-width="1.5"/>
<path d="M7 10.8044C7 10.3691 6.98778 9.97796 6.63591 9.67196C6.50793 9.56065 6.33825 9.48337 5.99891 9.3288C5.55001 9.12434 5.32556 9.02211 5.10316 9.00412C4.43591 8.95016 4.07692 9.40556 3.69213 9.87294C2.74875 11.0188 2.27706 11.5917 2.10446 12.2235C1.96518 12.7333 1.96518 13.2665 2.10446 13.7764C2.3562 14.6979 3.15152 15.4703 3.74021 16.1853C4.11129 16.636 4.46577 17.0473 5.10316 16.9957C5.32556 16.9777 5.55001 16.8755 5.99891 16.671C6.33825 16.5165 6.50793 16.4392 6.63591 16.3279C6.98778 16.0219 7 15.6307 7 15.1955L7 10.8044Z" stroke="#6E6E71" stroke-width="1.5"/>
<path d="M5 9C5 5.68629 8.13401 3 12 3C15.866 3 19 5.68629 19 9" stroke="#6E6E71" stroke-width="1.5" stroke-linecap="square" stroke-linejoin="round"/>
<path d="M19 17V17.8C19 19.5673 17.2091 21 15 21H13" stroke="#6E6E71" stroke-width="1.5" stroke-linecap="round" stroke-linejoin="round"/>
</svg>
