<svg width="20" height="20" viewBox="0 0 20 20" fill="none" xmlns="http://www.w3.org/2000/svg">
<path d="M8.61745 10.9659C8.06828 10.4167 7.18439 10.4167 5.41663 10.4167C3.64886 10.4167 2.76498 10.4167 2.2158 10.9659M8.61745 10.9659C9.16663 11.5151 9.16663 12.399 9.16663 14.1667C9.16663 15.9345 9.16663 16.8184 8.61745 17.3676M8.61745 10.9659V10.9659ZM2.2158 10.9659C1.66663 11.5151 1.66663 12.399 1.66663 14.1667C1.66663 15.9345 1.66663 16.8184 2.2158 17.3676M2.2158 10.9659V10.9659ZM2.2158 17.3676C2.76497 17.9167 3.64886 17.9167 5.41663 17.9167C7.18439 17.9167 8.06828 17.9167 8.61745 17.3676M2.2158 17.3676V17.3676ZM8.61745 17.3676V17.3676Z" stroke="#6E6E71" stroke-width="1.25"/>
<path d="M12.6848 3.98185C13.9505 5.2475 14.5833 5.88033 14.5833 6.66671C14.5833 7.45308 13.9505 8.08591 12.6848 9.35156C11.4192 10.6172 10.7863 11.25 9.99996 11.25C9.21358 11.25 8.58076 10.6172 7.3151 9.35156C6.04945 8.08591 5.41663 7.45308 5.41663 6.66671C5.41663 5.88033 6.04945 5.24751 7.3151 3.98185C8.58076 2.7162 9.21358 2.08337 9.99996 2.08337C10.7863 2.08337 11.4192 2.7162 12.6848 3.98185Z" stroke="#6E6E71" stroke-width="1.25"/>
<path d="M17.7841 10.9659C17.2349 10.4167 16.351 10.4167 14.5833 10.4167C12.8155 10.4167 11.9316 10.4167 11.3824 10.9659M17.7841 10.9659C18.3333 11.5151 18.3333 12.399 18.3333 14.1667C18.3333 15.9345 18.3333 16.8184 17.7841 17.3676M17.7841 10.9659V10.9659ZM11.3824 10.9659C10.8333 11.5151 10.8333 12.399 10.8333 14.1667C10.8333 15.9345 10.8333 16.8184 11.3824 17.3676M11.3824 10.9659V10.9659ZM11.3824 17.3676C11.9316 17.9167 12.8155 17.9167 14.5833 17.9167C16.351 17.9167 17.2349 17.9167 17.7841 17.3676M11.3824 17.3676V17.3676ZM17.7841 17.3676V17.3676Z" stroke="#6E6E71" stroke-width="1.25"/>
<path d="M10.0068 6.66675L9.99927 6.66675" stroke="#6E6E71" stroke-width="1.66667" stroke-linecap="round" stroke-linejoin="round"/>
</svg>
