<svg width="87" height="100" viewBox="0 0 87 100" fill="none" xmlns="http://www.w3.org/2000/svg">
<path d="M86.6025 75V25L43.3013 48V100L86.6025 75Z" fill="#E6F0F5"/>
<path d="M0 75L43.3013 100V48L0 25V75Z" fill="#CDDEE7"/>
<path d="M86.6025 25L43.3013 0L0 25L43.3013 48L86.6025 25Z" fill="white"/>
<path d="M23.9 61.24C23.3186 61.24 22.772 61.12 22.26 60.88C21.7533 60.64 21.316 60.3067 20.948 59.88C20.58 59.4533 20.316 58.9573 20.156 58.392L22.252 57.832C22.3213 58.104 22.444 58.3387 22.62 58.536C22.8013 58.7333 23.0093 58.888 23.244 59C23.484 59.1067 23.7293 59.16 23.98 59.16C24.3106 59.16 24.612 59.08 24.884 58.92C25.1613 58.76 25.38 58.544 25.54 58.272C25.7053 58 25.788 57.6987 25.788 57.368C25.788 57.0373 25.7053 56.736 25.54 56.464C25.38 56.192 25.1613 55.976 24.884 55.816C24.612 55.656 24.3106 55.576 23.98 55.576C23.5746 55.576 23.244 55.6453 22.988 55.784C22.732 55.9173 22.54 56.0453 22.412 56.168L20.572 55.608L20.924 49.48H27.212V51.512H22.124L22.892 50.792L22.652 54.744L22.284 54.296C22.572 54.0613 22.9 53.8907 23.268 53.784C23.636 53.6773 23.98 53.624 24.3 53.624C25.0253 53.624 25.6626 53.7867 26.212 54.112C26.7666 54.432 27.1986 54.8747 27.508 55.44C27.8226 56 27.98 56.6427 27.98 57.368C27.98 58.0933 27.7906 58.7493 27.412 59.336C27.0333 59.9173 26.5346 60.3813 25.916 60.728C25.2973 61.0693 24.6253 61.24 23.9 61.24ZM34.1698 61.24C33.3165 61.24 32.5698 61.0613 31.9298 60.704C31.2898 60.3467 30.7912 59.848 30.4338 59.208C30.0765 58.568 29.8978 57.8213 29.8978 56.968V53.512C29.8978 52.6587 30.0765 51.912 30.4338 51.272C30.7912 50.632 31.2898 50.1333 31.9298 49.776C32.5698 49.4187 33.3165 49.24 34.1698 49.24C35.0232 49.24 35.7698 49.4187 36.4098 49.776C37.0498 50.1333 37.5485 50.632 37.9058 51.272C38.2632 51.912 38.4418 52.6587 38.4418 53.512V56.968C38.4418 57.8213 38.2632 58.568 37.9058 59.208C37.5485 59.848 37.0498 60.3467 36.4098 60.704C35.7698 61.0613 35.0232 61.24 34.1698 61.24ZM34.1698 59.176C34.5538 59.176 34.9005 59.0853 35.2098 58.904C35.5192 58.7227 35.7645 58.4773 35.9458 58.168C36.1272 57.8587 36.2178 57.512 36.2178 57.128V53.336C36.2178 52.952 36.1272 52.6053 35.9458 52.296C35.7645 51.9867 35.5192 51.7413 35.2098 51.56C34.9005 51.3787 34.5538 51.288 34.1698 51.288C33.7858 51.288 33.4392 51.3787 33.1298 51.56C32.8205 51.7413 32.5752 51.9867 32.3938 52.296C32.2125 52.6053 32.1218 52.952 32.1218 53.336V57.128C32.1218 57.512 32.2125 57.8587 32.3938 58.168C32.5752 58.4773 32.8205 58.7227 33.1298 58.904C33.4392 59.0853 33.7858 59.176 34.1698 59.176ZM41.0311 61V58.824H43.2071V61H41.0311ZM50.0761 61.24C49.2227 61.24 48.4761 61.0613 47.8361 60.704C47.1961 60.3467 46.6974 59.848 46.3401 59.208C45.9827 58.568 45.8041 57.8213 45.8041 56.968V53.512C45.8041 52.6587 45.9827 51.912 46.3401 51.272C46.6974 50.632 47.1961 50.1333 47.8361 49.776C48.4761 49.4187 49.2227 49.24 50.0761 49.24C50.9294 49.24 51.6761 49.4187 52.3161 49.776C52.9561 50.1333 53.4547 50.632 53.8121 51.272C54.1694 51.912 54.3481 52.6587 54.3481 53.512V56.968C54.3481 57.8213 54.1694 58.568 53.8121 59.208C53.4547 59.848 52.9561 60.3467 52.3161 60.704C51.6761 61.0613 50.9294 61.24 50.0761 61.24ZM50.0761 59.176C50.4601 59.176 50.8067 59.0853 51.1161 58.904C51.4254 58.7227 51.6707 58.4773 51.8521 58.168C52.0334 57.8587 52.1241 57.512 52.1241 57.128V53.336C52.1241 52.952 52.0334 52.6053 51.8521 52.296C51.6707 51.9867 51.4254 51.7413 51.1161 51.56C50.8067 51.3787 50.4601 51.288 50.0761 51.288C49.6921 51.288 49.3454 51.3787 49.0361 51.56C48.7267 51.7413 48.4814 51.9867 48.3001 52.296C48.1187 52.6053 48.0281 52.952 48.0281 53.336V57.128C48.0281 57.512 48.1187 57.8587 48.3001 58.168C48.4814 58.4773 48.7267 58.7227 49.0361 58.904C49.3454 59.0853 49.6921 59.176 50.0761 59.176ZM60.8573 61.24C60.004 61.24 59.2573 61.0613 58.6173 60.704C57.9773 60.3467 57.4787 59.848 57.1213 59.208C56.764 58.568 56.5853 57.8213 56.5853 56.968V53.512C56.5853 52.6587 56.764 51.912 57.1213 51.272C57.4787 50.632 57.9773 50.1333 58.6173 49.776C59.2573 49.4187 60.004 49.24 60.8573 49.24C61.7107 49.24 62.4573 49.4187 63.0973 49.776C63.7373 50.1333 64.236 50.632 64.5933 51.272C64.9507 51.912 65.1293 52.6587 65.1293 53.512V56.968C65.1293 57.8213 64.9507 58.568 64.5933 59.208C64.236 59.848 63.7373 60.3467 63.0973 60.704C62.4573 61.0613 61.7107 61.24 60.8573 61.24ZM60.8573 59.176C61.2413 59.176 61.588 59.0853 61.8973 58.904C62.2067 58.7227 62.452 58.4773 62.6333 58.168C62.8147 57.8587 62.9053 57.512 62.9053 57.128V53.336C62.9053 52.952 62.8147 52.6053 62.6333 52.296C62.452 51.9867 62.2067 51.7413 61.8973 51.56C61.588 51.3787 61.2413 51.288 60.8573 51.288C60.4733 51.288 60.1267 51.3787 59.8173 51.56C59.508 51.7413 59.2627 51.9867 59.0813 52.296C58.9 52.6053 58.8093 52.952 58.8093 53.336V57.128C58.8093 57.512 58.9 57.8587 59.0813 58.168C59.2627 58.4773 59.508 58.7227 59.8173 58.904C60.1267 59.0853 60.4733 59.176 60.8573 59.176Z" fill="#070C0A"/>
</svg>
