<svg width="20" height="20" viewBox="0 0 20 20" fill="none" xmlns="http://www.w3.org/2000/svg">
<path fill-rule="evenodd" clip-rule="evenodd" d="M15.2002 4.89254L14.4044 4.02421C14.0968 3.68854 13.5767 3.66193 13.2364 3.96446L11.9341 5.12228L13.8492 7.23649L15.1425 6.07576C15.4875 5.76608 15.5135 5.23433 15.2002 4.89254ZM4.58301 11.6577L10.9998 5.95285L12.9189 8.07143L6.58863 13.7529H4.58301V11.6577ZM16.1218 4.04797L15.3259 3.17965C14.5568 2.34046 13.2566 2.27395 12.4058 3.03027L3.61265 10.8478C3.43478 11.006 3.33301 11.2326 3.33301 11.4706V14.1696C3.33301 14.6298 3.7061 15.0029 4.16634 15.0029H6.74819C6.95366 15.0029 7.15189 14.927 7.3048 14.7898L15.9774 7.00603C16.84 6.23184 16.9049 4.90246 16.1218 4.04797ZM16.6663 16.2508H3.33301V17.5008H16.6663V16.2508Z" fill="white"/>
</svg>
