<svg width="144" height="40" viewBox="0 0 144 40" fill="none" xmlns="http://www.w3.org/2000/svg">
<path d="M60.6291 12.1854C61.5182 12.1854 62.2791 12.5639 62.9118 13.3209L61.8217 14.2559C61.4883 13.8819 61.1506 13.588 60.8087 13.3743C60.4667 13.1517 60.0777 13.0403 59.6417 13.0403C59.2484 13.0403 58.868 13.1294 58.5003 13.3075C58.1242 13.4856 57.8207 13.7305 57.5899 14.0422C57.359 14.3628 57.2436 14.7235 57.2436 15.1242C57.2436 15.525 57.3633 15.8901 57.6027 16.2196C57.8421 16.558 58.1498 16.8252 58.526 17.0211C58.9022 17.217 59.2954 17.315 59.7058 17.315C59.8597 17.315 60.0093 17.3061 60.1546 17.2883C60.3085 17.2794 60.4325 17.2437 60.5265 17.1814L60.6932 17.7024C59.6502 18.023 58.7141 18.5395 57.8848 19.2519C57.0641 19.9555 56.6537 20.8059 56.6537 21.8033C56.6537 22.5514 56.8632 23.1659 57.2821 23.6468C57.701 24.1188 58.2738 24.3548 59.0005 24.3548C59.5989 24.3548 60.1888 24.2345 60.7702 23.9941C61.3515 23.7536 61.8645 23.4375 62.309 23.0457C62.7451 22.6627 63.0828 22.2664 63.3221 21.8568L63.7453 22.2308C63.1554 23.2549 62.3689 24.1054 61.3857 24.7822C60.4026 25.459 59.3425 25.7975 58.2054 25.7975C57.5386 25.7975 56.9401 25.6594 56.4101 25.3833C55.8714 25.0984 55.4525 24.7065 55.1533 24.2078C54.8455 23.7002 54.6917 23.1169 54.6917 22.4579C54.6917 21.5584 55.0208 20.7436 55.6791 20.0133C56.3374 19.2831 57.141 18.6998 58.09 18.2634C57.4915 18.112 57.0128 17.8181 56.6537 17.3818C56.2946 16.9365 56.1151 16.42 56.1151 15.8322C56.1151 15.0485 56.3502 14.3806 56.8204 13.8285C57.2906 13.2852 57.8763 12.8756 58.5773 12.5995C59.2783 12.3234 59.9623 12.1854 60.6291 12.1854ZM67.0026 8.31152V24.0208C67.0026 24.1722 67.0453 24.3147 67.1308 24.4483C67.2163 24.5908 67.3617 24.662 67.5668 24.662C67.7293 24.662 67.9045 24.5819 68.0926 24.4216C68.2807 24.2702 68.4218 24.1054 68.5158 23.9273L68.8236 24.2078C68.6184 24.6175 68.3363 24.9692 67.9772 25.2631C67.6181 25.5481 67.2591 25.6906 66.9 25.6906C65.8912 25.6906 65.3868 25.0583 65.3868 23.7937V9.01951L67.0026 8.31152ZM72.3886 9.99466L71.7859 14.3494L71.196 14.5765L70.4522 10.6893L72.3886 9.99466ZM72.3758 16.3131V24.0208C72.3758 24.2078 72.4228 24.3637 72.5169 24.4883C72.6024 24.6041 72.7306 24.662 72.9016 24.662C73.0298 24.662 73.1752 24.5997 73.3376 24.475C73.5 24.3503 73.6625 24.1677 73.8249 23.9273L74.1199 24.2078C73.8463 24.7422 73.5129 25.1251 73.1196 25.3566C72.7349 25.5793 72.3801 25.6906 72.0552 25.6906C71.6192 25.6906 71.2858 25.5481 71.055 25.2631C70.8241 24.9692 70.7087 24.4794 70.7087 23.7937V16.9944L72.3758 16.3131ZM77.8901 11.2637V16.2463H80.3779L79.8393 17.4352H77.8901V24.0208C77.8901 24.2078 77.9414 24.3637 78.044 24.4883C78.1551 24.6041 78.3005 24.662 78.48 24.662C78.7279 24.662 79.0742 24.4171 79.5187 23.9273L79.7752 24.2078C79.5444 24.6798 79.2708 25.0316 78.9545 25.2631C78.6382 25.4947 78.3389 25.6416 78.0568 25.7039C77.7747 25.7574 77.6336 25.7574 77.6336 25.7039C77.6507 25.7039 77.6678 25.7039 77.6849 25.7039C77.7106 25.695 77.749 25.6906 77.8003 25.6906C76.7488 25.6906 76.223 25.0583 76.223 23.7937V17.4352H74.8765L75.4279 16.2463H76.223V11.945L77.8901 11.2637ZM86.4821 16.0727C87.1319 16.0727 87.6705 16.2552 88.0979 16.6203C88.5339 16.9766 88.7519 17.5109 88.7519 18.2233C88.7519 18.8022 88.457 19.4434 87.8671 20.1469C87.2686 20.8505 86.5719 21.4961 85.7768 22.0839C84.9817 22.6627 84.302 23.0724 83.7378 23.3128C84.037 23.8115 84.379 24.1588 84.7637 24.3548C85.1484 24.5418 85.5973 24.6353 86.1102 24.6353C86.683 24.6353 87.2558 24.4839 87.8286 24.1811C88.3929 23.8783 88.8631 23.482 89.2392 22.9922L89.4444 23.393C88.8631 24.1767 88.2433 24.7778 87.585 25.1963C86.9267 25.6149 86.1188 25.8242 85.1612 25.8242C84.426 25.8242 83.772 25.6372 83.1992 25.2631C82.6264 24.8891 82.1776 24.3859 81.8527 23.7536C81.5278 23.1214 81.3654 22.4401 81.3654 21.7098C81.3654 20.7837 81.6047 19.8842 82.0835 19.0115C82.5623 18.1387 83.1992 17.4307 83.9943 16.8875C84.7808 16.3443 85.6101 16.0727 86.4821 16.0727ZM85.5588 17.2482C85.0287 17.2482 84.5585 17.4263 84.1482 17.7825C83.7292 18.1298 83.4044 18.5751 83.1735 19.1183C82.9427 19.6705 82.8273 20.2404 82.8273 20.8282C82.8273 21.603 82.9983 22.262 83.3403 22.8052C83.8447 22.5737 84.3918 22.2174 84.9817 21.7365C85.5631 21.2557 86.0589 20.7347 86.4693 20.1736C86.8797 19.6126 87.0848 19.1005 87.0848 18.6374C87.0848 17.7113 86.5761 17.2482 85.5588 17.2482ZM96.0744 16.1528C96.707 16.1528 97.2927 16.3443 97.8313 16.7272C98.3699 17.1012 98.7973 17.6178 99.1137 18.2768C99.4214 18.9269 99.5753 19.6393 99.5753 20.4141C99.5753 21.5095 99.43 22.4623 99.1393 23.2727C98.8401 24.0742 98.4169 24.6932 97.8697 25.1295C97.3226 25.5659 96.6771 25.7841 95.9333 25.7841C95.7538 25.7841 95.5743 25.7574 95.3947 25.7039C95.2237 25.6416 95.0057 25.5436 94.7407 25.4101L95.2152 24.3414C95.5144 24.5373 95.9461 24.6353 96.5104 24.6353C97.0063 24.6353 97.4123 24.2924 97.7287 23.6067C98.0535 22.9121 98.216 22.0215 98.216 20.9351C98.216 20.3117 98.0963 19.7417 97.8569 19.2252C97.6175 18.7087 97.2884 18.3035 96.8695 18.0096C96.4506 17.7157 95.9803 17.5688 95.4588 17.5688C94.8433 17.5688 94.3645 17.9205 94.0226 18.6241C93.6891 19.3187 93.5224 20.3072 93.5224 21.5896V30.9938L91.9579 31.6884V17.9027C91.9579 17.6801 91.9109 17.502 91.8169 17.3684C91.7228 17.2259 91.5988 17.1547 91.445 17.1547C91.3253 17.1547 91.1928 17.217 91.0474 17.3417C90.9021 17.4664 90.7225 17.6667 90.5088 17.9428L90.2395 17.6623C90.3848 17.2437 90.6371 16.8875 90.9961 16.5936C91.3552 16.2997 91.7143 16.1528 92.0733 16.1528C92.6119 16.1528 93.0009 16.3176 93.2403 16.6471C93.4797 16.9766 93.5994 17.5109 93.5994 18.25H93.6635C93.9456 17.6267 94.3047 17.1191 94.7407 16.7272C95.1767 16.3443 95.6213 16.1528 96.0744 16.1528ZM103.692 8.31152V24.0208C103.692 24.1722 103.73 24.3147 103.807 24.4483C103.893 24.5908 104.038 24.662 104.243 24.662C104.414 24.662 104.589 24.5819 104.769 24.4216C104.957 24.2702 105.098 24.1054 105.192 23.9273L105.5 24.2078C105.295 24.6175 105.013 24.9692 104.654 25.2631C104.295 25.5481 103.935 25.6906 103.576 25.6906C102.576 25.6906 102.076 25.0583 102.076 23.7937V9.01951L103.692 8.31152ZM111.412 16.2463C111.993 16.2463 112.545 16.3754 113.066 16.6337C113.588 16.9009 113.968 17.3016 114.207 17.8359L112.912 18.5573C112.724 18.2723 112.463 18.0141 112.13 17.7825C111.788 17.551 111.429 17.4352 111.053 17.4352C110.437 17.4352 109.903 17.6044 109.45 17.9428C108.997 18.2723 108.65 18.7176 108.411 19.2786C108.172 19.8397 108.052 20.4631 108.052 21.1488C108.052 22.1284 108.214 22.9254 108.539 23.5399C108.856 24.1633 109.364 24.475 110.065 24.475C111.04 24.475 111.715 24.0609 112.091 23.2327C112.459 22.4134 112.643 21.5184 112.643 20.5477V19.7061L114.22 19.0115V23.9273C114.22 24.0876 114.263 24.2434 114.348 24.3948C114.434 24.5462 114.562 24.6219 114.733 24.6219C115.075 24.6219 115.391 24.3726 115.682 23.8739L115.951 24.1677C115.806 24.5952 115.554 24.9559 115.195 25.2498C114.836 25.5436 114.477 25.6906 114.118 25.6906C113.605 25.6906 113.224 25.4902 112.976 25.0895C112.728 24.6887 112.604 24.1588 112.604 23.4998H112.579C112.28 24.1588 111.873 24.711 111.36 25.1563C110.856 25.6015 110.322 25.8242 109.757 25.8242C108.74 25.8242 107.971 25.459 107.449 24.7288C106.928 23.9985 106.667 23.0234 106.667 21.8033C106.667 20.8237 106.876 19.9109 107.295 19.0649C107.714 18.21 108.287 17.5243 109.014 17.0077C109.732 16.5001 110.531 16.2463 111.412 16.2463ZM124.8 15.9792V24.5819C124.8 25.7574 124.578 26.8572 124.133 27.8813C123.68 28.8966 123.082 29.7114 122.338 30.3259C121.594 30.9404 120.803 31.2476 119.965 31.2476C119.649 31.2476 119.345 31.1942 119.055 31.0873C118.764 30.9894 118.465 30.8246 118.157 30.5931L119.414 28.9233C119.662 29.1815 119.957 29.3953 120.299 29.5645C120.641 29.7248 120.961 29.8049 121.261 29.8049C121.637 29.8049 121.974 29.5734 122.274 29.1103C122.573 28.6472 122.808 28.0105 122.979 27.2001C123.15 26.3897 123.235 25.4724 123.235 24.4483C123.235 22.1328 123.244 20.6456 123.261 19.9866V18.8645H123.146C122.162 23.5043 120.889 25.8242 119.324 25.8242C118.974 25.8242 118.717 25.7529 118.555 25.6104C118.384 25.459 118.268 25.1963 118.208 24.8223C118.149 24.4483 118.119 23.8828 118.119 23.1258V17.8493C118.119 17.6534 118.072 17.4842 117.978 17.3417C117.884 17.2081 117.764 17.1413 117.619 17.1413C117.319 17.1413 117.003 17.3951 116.67 17.9027L116.375 17.6089C116.64 17.0211 116.9 16.6203 117.157 16.4066C117.413 16.2018 117.79 16.0994 118.285 16.0994C118.764 16.0994 119.123 16.2552 119.363 16.5669C119.602 16.8875 119.722 17.355 119.722 17.9695V23.0724C119.722 23.5355 119.846 23.767 120.094 23.767C120.393 23.767 120.778 23.3395 121.248 22.4846C121.709 21.6386 122.12 20.659 122.479 19.5458C122.838 18.4326 123.017 17.5243 123.017 16.8207L124.8 15.9792Z" fill="white"/>
<path d="M33.5114 2.46729C33.4502 2.46952 33.3797 2.49291 33.3411 2.54919L24.6757 13.3497C24.5315 13.5376 24.5217 13.5797 24.715 13.5816L42.0722 13.5338C42.3107 13.5135 42.3117 13.526 42.1572 13.3155L33.6424 2.51506C33.6248 2.48664 33.5727 2.46583 33.5114 2.4674V2.46729ZM35.1753 3.42943L42.9892 13.3293C43.0938 13.4616 43.1194 13.4691 43.3036 13.3771L47.4234 11.4121C47.6933 11.2852 47.6559 11.2592 47.4757 11.1323L35.1752 3.42943H35.1753ZM31.5268 3.79106C31.5231 3.78301 31.4597 3.83246 31.3171 3.93428L19.9728 11.7124L23.5229 13.3907C23.7081 13.4544 23.7635 13.4579 23.8831 13.3021L31.3698 3.989C31.4751 3.86178 31.5303 3.79912 31.5268 3.79106ZM48.026 11.8761C47.9907 11.8786 47.9351 11.8998 47.8492 11.9374L43.6179 13.9502C43.4677 14.0212 43.4772 14.1169 43.5328 14.2366L48.4517 27.2342L48.0981 12.0943C48.0873 11.9289 48.0848 11.8716 48.0261 11.8761H48.026ZM19.6518 12.2786L19.2 27.0091L23.3657 14.264C23.4273 14.0758 23.4259 14.0663 23.3002 14.0048L19.6518 12.2786ZM42.3014 14.189L24.551 14.2367C24.2975 14.2328 24.3079 14.233 24.4331 14.4482L33.4458 30.284C33.598 30.5256 33.5817 30.5181 33.7405 30.2705L42.3995 14.4075C42.4755 14.2814 42.5296 14.1933 42.3013 14.189H42.3014ZM43.0087 14.6052C42.9924 14.6124 42.9746 14.6767 42.9235 14.7757L34.2058 30.7547C34.1106 30.9234 34.088 30.9839 34.3171 30.9458L48.157 28.9604C48.3766 28.9082 48.3699 28.8265 48.2946 28.5988L43.0742 14.7825C43.0399 14.6503 43.0253 14.5979 43.0088 14.6052H43.0087ZM23.8699 14.7553C23.853 14.768 23.8377 14.8354 23.8045 14.9327L19.3833 28.4896C19.3081 28.7775 19.2995 28.8857 19.5799 28.9398L32.804 30.9321C33.054 30.9712 33.022 30.8401 32.9611 30.7138L23.9617 14.8986C23.9052 14.7792 23.8869 14.7426 23.8699 14.7553ZM20.4313 29.7314L33.4066 37.4001C33.5746 37.5063 33.6139 37.4677 33.5899 37.2842L33.3149 31.9079C33.3074 31.7343 33.2849 31.6636 33.1119 31.6348L20.4311 29.7315L20.4313 29.7314ZM47.2597 29.7448L34.0879 31.6417C33.9141 31.6683 33.9455 31.7571 33.9437 31.8873L34.2254 37.3591C34.2399 37.525 34.2352 37.5848 34.4284 37.4819L47.2597 29.7448Z" fill="#88DF95"/>
</svg>
