<svg width="22" height="22" viewBox="0 0 22 22" fill="none" xmlns="http://www.w3.org/2000/svg">
<path d="M11 4V21M11 21H8M11 21H14" stroke="#9E9EA2" stroke-width="1.5" stroke-linecap="round" stroke-linejoin="round"/>
<path d="M20 12L17.5 7L15 12" stroke="#9E9EA2" stroke-width="1.5" stroke-linecap="round" stroke-linejoin="round"/>
<path d="M7 12L4.5 7L2 12" stroke="#9E9EA2" stroke-width="1.5" stroke-linecap="round" stroke-linejoin="round"/>
<path d="M3 7H4.0482C5.31166 7 6.5375 6.471 7.5241 5.5C9.55623 3.5 12.4438 3.5 14.4759 5.5C15.4625 6.471 16.6883 7 17.9518 7H19" stroke="#9E9EA2" stroke-width="1.5" stroke-linecap="round" stroke-linejoin="round"/>
<path d="M17.5 16C18.8547 16 20.0344 15.1663 20.6473 13.9349C20.978 13.2702 21.1434 12.9379 20.8415 12.469C20.5396 12 20.04 12 19.0407 12H15.9593C14.96 12 14.4604 12 14.1585 12.469C13.8566 12.9379 14.022 13.2702 14.3527 13.9349C14.9656 15.1663 16.1453 16 17.5 16Z" stroke="#9E9EA2" stroke-width="1.5"/>
<path d="M4.5 16C5.85471 16 7.03442 15.1663 7.64726 13.9349C7.97802 13.2702 8.14339 12.9379 7.84151 12.469C7.53962 12 7.04 12 6.04075 12H2.95925C1.96 12 1.46038 12 1.15849 12.469C0.856609 12.9379 1.02198 13.2702 1.35273 13.9349C1.96558 15.1663 3.14528 16 4.5 16Z" stroke="#9E9EA2" stroke-width="1.5"/>
<path d="M12.5 2.5C12.5 3.32843 11.8284 4 11 4C10.1716 4 9.5 3.32843 9.5 2.5C9.5 1.67157 10.1716 1 11 1C11.8284 1 12.5 1.67157 12.5 2.5Z" stroke="#9E9EA2" stroke-width="1.5"/>
</svg>
