<svg width="120" height="120" viewBox="0 0 120 120" fill="none" xmlns="http://www.w3.org/2000/svg">
<path d="M85 71.5223C85 69.7942 85 68.9301 85.2602 68.1598C86.0162 65.9222 88.0089 65.0538 90.0055 64.1444C92.25 63.1221 93.3722 62.6109 94.4842 62.521C95.7464 62.4189 97.0111 62.6909 98.09 63.2964C99.5203 64.0992 100.518 65.6247 101.539 66.8651C106.256 72.5942 108.615 75.4588 109.478 78.6178C110.174 81.167 110.174 83.833 109.478 86.3822C108.219 90.9897 104.242 94.8518 101.299 98.427C99.7933 100.256 99.0405 101.17 98.09 101.704C97.0111 102.309 95.7464 102.581 94.4842 102.479C93.3722 102.389 92.25 101.878 90.0055 100.856C88.0089 99.9462 86.0162 99.0778 85.2602 96.8402C85 96.0699 85 95.2058 85 93.4777V71.5223Z" stroke="#6E6E71" stroke-width="7.5"/>
<path d="M35 71.5231C35 69.3468 34.9389 67.391 33.1796 65.861C32.5396 65.3045 31.6913 64.9181 29.9945 64.1452C27.75 63.1229 26.6278 62.6118 25.5158 62.5218C22.1796 62.252 20.3846 64.529 18.4606 66.8659C13.7438 72.5951 11.3853 75.4596 10.5223 78.6186C9.82589 81.1679 9.82589 83.8338 10.5223 86.383C11.781 90.9905 15.7576 94.8526 18.7011 98.4278C20.5564 100.681 22.3288 102.738 25.5158 102.48C26.6278 102.39 27.75 101.879 29.9945 100.856C31.6913 100.084 32.5396 99.6972 33.1796 99.1407C34.9389 97.6106 35 95.6548 35 93.4786V71.5231Z" stroke="#6E6E71" stroke-width="7.5"/>
<path d="M95 62.5V52.5C95 33.17 79.33 17.5 60 17.5C40.67 17.5 25 33.17 25 52.5V62.5" stroke="#6E6E71" stroke-width="7.5" stroke-linecap="square" stroke-linejoin="round"/>
</svg>
