<svg width="960" height="360" viewBox="0 0 960 360" fill="none" xmlns="http://www.w3.org/2000/svg">
<g clip-path="url(#clip0_20_12536)">
<path d="M0 12C0 5.37259 5.37258 0 12 0H948C954.628 0 960 5.37258 960 12V348C960 354.627 954.628 360 948 360H12C5.37257 360 0 354.627 0 348V12Z" fill="black"/>
<g filter="url(#filter0_f_20_12536)">
<circle cx="480" cy="180" r="527" fill="url(#paint0_linear_20_12536)"/>
</g>
<g filter="url(#filter1_f_20_12536)">
<circle cx="376.5" cy="242.5" r="403.5" fill="url(#paint1_linear_20_12536)"/>
</g>
<rect width="223.515" height="0.352571" transform="matrix(0.403527 -0.914968 0.145446 0.989366 686.667 43.5092)" fill="url(#paint2_linear_20_12536)"/>
<rect width="223.515" height="0.352571" transform="matrix(-0.403527 -0.914968 -0.145446 0.989366 279.049 43.8595)" fill="url(#paint3_linear_20_12536)"/>
<rect width="240.489" height="0.350943" transform="matrix(0.573234 -0.819392 0.0922815 0.995733 792 49.1699)" fill="url(#paint4_linear_20_12536)"/>
<rect width="240.489" height="0.350943" transform="matrix(-0.573234 -0.819392 -0.0922815 0.995733 168.897 48.8198)" fill="url(#paint5_linear_20_12536)"/>
<rect width="213.316" height="0.361063" transform="matrix(0.208942 -0.977928 0.290379 0.956912 558 76.3046)" fill="url(#paint6_linear_20_12536)"/>
<rect width="213.316" height="0.361063" transform="matrix(-0.208942 -0.977928 -0.290379 0.956912 397.727 76.6545)" fill="url(#paint7_linear_20_12536)"/>
<rect y="41.9181" width="960" height="0.349859" fill="black" fill-opacity="0.1"/>
<g style="mix-blend-mode:luminosity" opacity="0.3">
<path fill-rule="evenodd" clip-rule="evenodd" d="M438.576 642.013C439.723 644.579 438.565 647.585 435.989 648.727C433.414 649.869 430.397 648.715 429.25 646.15C428.104 643.584 429.262 640.578 431.837 639.436C434.412 638.294 437.43 639.448 438.576 642.013ZM495.806 637.462C497.526 641.31 495.789 645.819 491.926 647.533C488.063 649.246 483.537 647.515 481.817 643.667C480.097 639.818 481.834 635.31 485.697 633.596C489.56 631.883 494.086 633.614 495.806 637.462ZM551.508 636.943C553.244 639.156 552.85 642.352 550.629 644.081C548.407 645.81 545.199 645.417 543.464 643.204C541.728 640.991 542.122 637.796 544.343 636.067C546.565 634.338 549.773 634.73 551.508 636.943ZM384.796 626.753C385.53 630.902 382.75 634.858 378.585 635.589C374.421 636.321 370.45 633.551 369.715 629.402C368.981 625.253 371.762 621.297 375.926 620.566C380.09 619.834 384.062 622.604 384.796 626.753ZM451.774 625.134C452.509 629.283 449.728 633.239 445.564 633.97C441.399 634.702 437.428 631.932 436.694 627.783C435.96 623.634 438.74 619.678 442.905 618.947C447.069 618.215 451.04 620.985 451.774 625.134ZM605.933 618.734C608.536 622.054 607.945 626.847 604.613 629.441C601.281 632.034 596.469 631.446 593.866 628.126C591.262 624.807 591.853 620.013 595.185 617.42C598.518 614.826 603.329 615.415 605.933 618.734ZM560.402 619.749C562.122 623.597 560.384 628.106 556.521 629.819C552.658 631.533 548.133 629.802 546.413 625.954C544.693 622.105 546.43 617.596 550.293 615.883C554.156 614.17 558.682 615.9 560.402 619.749ZM328.161 617.376C328.651 620.142 326.797 622.779 324.021 623.267C321.244 623.755 318.597 621.908 318.107 619.142C317.618 616.377 319.472 613.739 322.248 613.252C325.024 612.764 327.672 614.611 328.161 617.376ZM512.89 599.117C514.358 607.415 508.797 615.327 500.468 616.79C492.139 618.253 484.197 612.713 482.729 604.415C481.26 596.118 486.821 588.206 495.15 586.743C503.479 585.28 511.421 590.82 512.89 599.117ZM660.041 607.171C662.262 608.9 662.656 612.095 660.921 614.308C659.185 616.521 655.977 616.914 653.756 615.185C651.534 613.456 651.14 610.26 652.876 608.047C654.612 605.834 657.819 605.442 660.041 607.171ZM341.652 599.742C345.875 599.962 349.118 603.551 348.897 607.758C348.676 611.965 345.073 615.197 340.85 614.976C336.628 614.756 333.384 611.167 333.605 606.96C333.826 602.753 337.429 599.521 341.652 599.742ZM399.83 580.072C408.276 580.513 414.763 587.691 414.321 596.104C413.878 604.518 406.673 610.981 398.227 610.54C389.782 610.099 383.294 602.921 383.736 594.508C384.179 586.094 391.384 579.631 399.83 580.072ZM276.024 586.31C280.247 586.53 283.491 590.119 283.27 594.326C283.048 598.533 279.446 601.764 275.223 601.544C271.072 601.327 267.867 597.856 267.969 593.742C267.107 593.189 266.468 592.29 266.276 591.201C265.909 589.127 267.299 587.149 269.381 586.783C270.301 586.621 271.202 586.801 271.953 587.232C273.156 586.575 274.553 586.233 276.024 586.31ZM613.384 579.776C616.824 587.473 613.349 596.49 605.623 599.917C597.897 603.344 588.845 599.882 585.405 592.186C581.965 584.489 585.44 575.471 593.166 572.044C600.892 568.618 609.944 572.079 613.384 579.776ZM664.308 585.979C666.912 589.299 666.321 594.092 662.989 596.686C659.656 599.279 654.845 598.691 652.241 595.371C649.638 592.052 650.229 587.258 653.561 584.665C656.893 582.071 661.705 582.66 664.308 585.979ZM454.437 554.416C464.994 554.967 473.104 563.94 472.551 574.457C471.997 584.974 462.991 593.052 452.434 592.501C441.877 591.95 433.767 582.978 434.32 572.461C434.874 561.944 443.88 553.865 454.437 554.416ZM708.427 576.386C711.759 578.98 712.35 583.773 709.746 587.093C707.143 590.412 702.331 591.001 698.999 588.407C695.667 585.814 695.076 581.02 697.68 577.701C700.283 574.381 705.095 573.793 708.427 576.386ZM564.739 564.975C566.575 575.347 559.623 585.237 549.212 587.066C538.801 588.894 528.873 581.969 527.038 571.598C525.202 561.226 532.154 551.336 542.564 549.507C552.975 547.678 562.903 554.604 564.739 564.975ZM305.608 547.937C313.695 550.4 318.247 558.928 315.774 566.985C313.302 575.042 304.741 579.577 296.653 577.114C288.566 574.65 284.014 566.122 286.486 558.065C288.959 550.008 297.52 545.473 305.608 547.937ZM225.373 567.154C228.189 567.3 230.351 569.693 230.204 572.498C230.056 575.302 227.654 577.457 224.839 577.31C222.024 577.163 219.861 574.77 220.009 571.965C220.156 569.161 222.558 567.007 225.373 567.154ZM364.823 536.203C374.933 539.283 380.622 549.943 377.532 560.014C374.441 570.086 363.74 575.754 353.63 572.675C343.521 569.596 337.831 558.935 340.922 548.864C344.012 538.793 354.713 533.124 364.823 536.203ZM244.381 553.001C248.425 554.233 250.701 558.497 249.464 562.526C248.228 566.554 243.948 568.821 239.904 567.59C235.86 566.358 233.584 562.094 234.82 558.065C236.057 554.037 240.337 551.77 244.381 553.001ZM655.402 534.152C659.702 543.773 655.358 555.045 645.701 559.328C636.043 563.612 624.728 559.285 620.429 549.664C616.129 540.043 620.472 528.771 630.13 524.488C639.787 520.204 651.102 524.531 655.402 534.152ZM498.278 509.344C512.354 510.079 523.167 522.042 522.429 536.065C521.692 550.088 509.683 560.86 495.607 560.125C481.531 559.39 470.718 547.426 471.456 533.404C472.193 519.381 484.202 508.609 498.278 509.344ZM758.184 550.212C760.759 551.354 761.918 554.36 760.771 556.926C759.624 559.491 756.607 560.645 754.032 559.503C751.457 558.361 750.298 555.355 751.445 552.789C752.591 550.224 755.609 549.07 758.184 550.212ZM706.009 534.425C711.216 541.064 710.034 550.651 703.37 555.838C696.706 561.025 687.082 559.848 681.875 553.209C676.669 546.57 677.85 536.983 684.515 531.796C691.179 526.608 700.802 527.786 706.009 534.425ZM418.307 503.036C431.786 507.142 439.373 521.356 435.252 534.784C431.131 548.213 416.863 555.77 403.383 551.665C389.904 547.56 382.317 533.345 386.439 519.917C390.56 506.489 404.828 498.931 418.307 503.036ZM604.67 516.39C607.118 530.218 597.849 543.405 583.968 545.844C570.087 548.282 556.85 539.048 554.402 525.22C551.954 511.391 561.223 498.204 575.104 495.766C588.986 493.328 602.223 502.561 604.67 516.39ZM757.114 530.535C760.446 533.129 761.037 537.922 758.434 541.242C755.83 544.561 751.018 545.15 747.686 542.556C744.354 539.963 743.763 535.169 746.367 531.85C748.97 528.53 753.782 527.942 757.114 530.535ZM183.965 524.151C188.008 525.383 190.284 529.647 189.048 533.676C187.812 537.704 183.531 539.971 179.488 538.74C175.444 537.508 173.168 533.244 174.404 529.216C175.64 525.187 179.921 522.92 183.965 524.151ZM281.451 500.17C290.513 505.594 293.445 517.309 288 526.336C282.555 535.364 270.795 538.285 261.734 532.861C252.672 527.436 249.74 515.721 255.185 506.694C260.63 497.667 272.389 494.746 281.451 500.17ZM341.401 480.878C353.483 488.11 357.392 503.73 350.132 515.767C342.873 527.803 327.193 531.698 315.111 524.465C303.029 517.233 299.12 501.613 306.379 489.577C313.639 477.541 329.319 473.646 341.401 480.878ZM221.145 497.283C228.394 501.623 230.74 510.995 226.384 518.216C222.028 525.438 212.621 527.775 205.372 523.436C198.122 519.096 195.777 509.724 200.132 502.503C204.488 495.281 213.896 492.944 221.145 497.283ZM797.657 508.681C801.52 510.394 803.257 514.903 801.537 518.751C799.818 522.6 795.292 524.331 791.429 522.617C787.566 520.904 785.828 516.395 787.548 512.547C789.268 508.698 793.794 506.967 797.657 508.681ZM466.83 480.731C476.94 483.81 482.63 494.47 479.539 504.542C476.448 514.613 465.747 520.281 455.637 517.202C445.528 514.123 439.838 503.463 442.929 493.391C446.02 483.32 456.721 477.652 466.83 480.731ZM539.943 476.007C550.5 476.558 558.61 485.53 558.057 496.047C557.503 506.565 548.497 514.643 537.94 514.092C527.383 513.541 519.273 504.568 519.826 494.051C520.38 483.534 529.386 475.455 539.943 476.007ZM682.348 477.386C688.081 490.214 682.29 505.243 669.414 510.954C656.537 516.666 641.451 510.897 635.718 498.069C629.984 485.241 635.776 470.212 648.652 464.5C661.529 458.789 676.615 464.558 682.348 477.386ZM735.7 480.029C742.208 488.328 740.731 500.312 732.401 506.796C724.07 513.28 712.041 511.808 705.533 503.509C699.024 495.21 700.501 483.227 708.832 476.743C717.162 470.259 729.191 471.73 735.7 480.029ZM393.899 470.93C402.961 476.354 405.893 488.069 400.448 497.096C395.003 506.123 383.244 509.044 374.182 503.62C365.12 498.196 362.188 486.481 367.633 477.454C373.078 468.426 384.838 465.505 393.899 470.93ZM139.47 493.357C142.166 494.178 143.683 497.021 142.859 499.707C142.035 502.392 139.181 503.904 136.485 503.083C133.79 502.262 132.272 499.419 133.096 496.733C133.921 494.048 136.774 492.536 139.47 493.357ZM160.507 487.441C164.132 489.611 165.305 494.297 163.127 497.908C160.949 501.519 156.245 502.687 152.62 500.518C148.996 498.348 147.823 493.662 150.001 490.051C152.179 486.44 156.883 485.272 160.507 487.441ZM785.057 470.462C791.721 475.649 792.903 485.236 787.696 491.875C782.489 498.514 772.866 499.692 766.201 494.504C759.537 489.317 758.355 479.73 763.562 473.091C768.769 466.452 778.393 465.275 785.057 470.462ZM630.348 469.414C632.184 479.785 625.232 489.675 614.821 491.504C604.411 493.333 594.483 486.408 592.647 476.036C590.811 465.665 597.763 455.775 608.174 453.946C618.585 452.117 628.512 459.042 630.348 469.414ZM839.516 473.206C842.292 473.694 844.146 476.331 843.656 479.097C843.167 481.863 840.519 483.709 837.743 483.222C834.967 482.734 833.113 480.096 833.602 477.331C834.092 474.565 836.739 472.718 839.516 473.206ZM273.002 437.608C282.969 447.537 282.969 463.635 273.002 473.564C263.035 483.494 246.876 483.494 236.909 473.564C226.942 463.635 226.942 447.537 236.909 437.608C246.876 427.679 263.035 427.679 273.002 437.608ZM210.148 441.878C217.624 449.325 217.624 461.399 210.148 468.846C202.673 476.293 190.554 476.293 183.078 468.846C175.603 461.399 175.603 449.325 183.078 441.878C190.554 434.431 202.673 434.431 210.148 441.878ZM326.357 440.607C333.832 448.054 333.832 460.128 326.357 467.575C318.882 475.021 306.762 475.021 299.287 467.575C291.812 460.128 291.812 448.054 299.287 440.607C306.762 433.16 318.882 433.16 326.357 440.607ZM503.489 443.119C511.577 445.583 516.129 454.111 513.656 462.168C511.184 470.225 502.623 474.76 494.535 472.296C486.447 469.833 481.896 461.305 484.368 453.248C486.841 445.191 495.402 440.656 503.489 443.119ZM438.603 443.27C445.852 447.61 448.198 456.982 443.842 464.203C439.486 471.425 430.079 473.762 422.829 469.423C415.58 465.083 413.234 455.711 417.59 448.49C421.946 441.268 431.354 438.931 438.603 443.27ZM833.764 452.458C837.627 454.171 839.364 458.68 837.644 462.529C835.924 466.377 831.398 468.108 827.535 466.394C823.672 464.681 821.935 460.172 823.655 456.324C825.375 452.475 829.901 450.745 833.764 452.458ZM566.38 430.677C574.826 431.118 581.313 438.296 580.871 446.71C580.428 455.123 573.223 461.587 564.777 461.146C556.331 460.705 549.844 453.527 550.286 445.113C550.729 436.699 557.934 430.236 566.38 430.677ZM748.061 418.455C756.739 429.521 754.769 445.499 743.662 454.144C732.555 462.789 716.516 460.827 707.838 449.762C699.16 438.697 701.129 422.718 712.237 414.073C723.344 405.428 739.383 407.39 748.061 418.455ZM108.892 444.888C112.516 447.058 113.689 451.744 111.511 455.354C109.333 458.965 104.629 460.134 101.005 457.964C97.3802 455.794 96.2074 451.108 98.3853 447.498C100.563 443.887 105.267 442.718 108.892 444.888ZM695.856 425.617C700.156 435.238 695.812 446.51 686.155 450.793C676.497 455.077 665.183 450.75 660.883 441.129C656.583 431.508 660.926 420.236 670.584 415.953C680.241 411.669 691.556 415.996 695.856 425.617ZM376.45 424.543C382.43 430.501 382.43 440.16 376.45 446.117C370.47 452.075 360.774 452.075 354.794 446.117C348.814 440.16 348.814 430.501 354.794 424.543C360.774 418.586 370.47 418.586 376.45 424.543ZM152.335 424.543C158.315 430.501 158.315 440.16 152.335 446.117C146.355 452.075 136.659 452.075 130.679 446.117C124.699 440.16 124.699 430.501 130.679 424.543C136.659 418.586 146.355 418.586 152.335 424.543ZM800.656 410.527C808.986 417.011 810.463 428.994 803.955 437.293C797.447 445.592 785.417 447.064 777.087 440.58C768.756 434.096 767.279 422.112 773.788 413.813C780.296 405.514 792.326 404.043 800.656 410.527ZM867.731 423.395C871.895 424.127 874.676 428.083 873.941 432.231C873.281 435.962 870.003 438.578 866.321 438.535C865.745 438.956 865.042 439.218 864.274 439.259C862.163 439.369 860.362 437.753 860.251 435.65L860.248 435.446C859.042 433.822 858.481 431.728 858.861 429.582C859.595 425.434 863.566 422.664 867.731 423.395ZM641.437 416.228C642.905 424.525 637.344 432.438 629.015 433.901C620.687 435.364 612.744 429.823 611.276 421.526C609.807 413.229 615.368 405.317 623.697 403.854C632.026 402.391 639.968 407.931 641.437 416.228ZM266.862 398.335C272.307 407.363 269.375 419.078 260.313 424.502C251.252 429.926 239.492 427.005 234.047 417.978C228.603 408.951 231.535 397.235 240.596 391.811C249.658 386.387 261.417 389.308 266.862 398.335ZM476.14 403.485C481.577 406.739 483.336 413.768 480.069 419.185C476.802 424.601 469.746 426.354 464.309 423.099C458.872 419.845 457.113 412.816 460.38 407.399C463.647 401.983 470.703 400.23 476.14 403.485ZM215.82 382.566C223.08 394.603 219.171 410.223 207.089 417.455C195.007 424.687 179.327 420.792 172.067 408.756C164.808 396.72 168.717 381.1 180.799 373.867C192.881 366.635 208.561 370.53 215.82 382.566ZM319.368 394.821C323.724 402.043 321.378 411.415 314.129 415.755C306.88 420.094 297.472 417.757 293.116 410.535C288.76 403.314 291.106 393.942 298.355 389.602C305.604 385.263 315.012 387.6 319.368 394.821ZM530.249 395.469C536.315 397.317 539.729 403.713 537.875 409.756C536.02 415.798 529.599 419.199 523.534 417.352C517.468 415.505 514.054 409.108 515.909 403.065C517.763 397.023 524.184 393.622 530.249 395.469ZM846.288 387.435C854.014 390.862 857.489 399.879 854.049 407.576C850.609 415.273 841.557 418.734 833.831 415.307C826.105 411.88 822.631 402.863 826.07 395.166C829.51 387.469 838.562 384.008 846.288 387.435ZM422.533 394.986C427.018 399.454 427.018 406.699 422.533 411.167C418.048 415.635 410.776 415.635 406.291 411.167C401.806 406.699 401.806 399.454 406.291 394.986C410.776 390.518 418.048 390.518 422.533 394.986ZM73.197 404.285C75.6134 405.731 76.3953 408.855 74.9433 411.263C73.4914 413.67 70.3555 414.449 67.9391 413.002C65.5227 411.556 64.7408 408.432 66.1927 406.025C67.6447 403.617 70.7806 402.839 73.197 404.285ZM95.8882 400.38C98.8782 403.359 98.8782 408.188 95.8882 411.167C92.8981 414.146 88.0502 414.146 85.0601 411.167C82.0701 408.188 82.0701 403.359 85.0601 400.38C88.0502 397.401 92.8981 397.401 95.8882 400.38ZM580.774 377.993C587.108 378.324 591.974 383.707 591.642 390.018C591.31 396.328 585.906 401.175 579.571 400.844C573.237 400.514 568.371 395.13 568.703 388.82C569.035 382.51 574.439 377.662 580.774 377.993ZM153.797 371.562C159.241 380.589 156.309 392.304 147.248 397.728C138.186 403.152 126.427 400.232 120.982 391.204C115.537 382.177 118.469 370.462 127.531 365.038C136.592 359.614 148.352 362.535 153.797 371.562ZM748.596 364.969C755.104 373.268 753.627 385.251 745.297 391.735C736.966 398.219 724.937 396.748 718.428 388.449C711.92 380.15 713.397 368.166 721.727 361.682C730.058 355.198 742.087 356.67 748.596 364.969ZM371.26 377.249C374.527 382.665 372.767 389.694 367.331 392.949C361.894 396.203 354.838 394.45 351.571 389.034C348.304 383.618 350.063 376.589 355.5 373.334C360.937 370.08 367.993 371.832 371.26 377.249ZM797.697 347.803C808.805 356.448 810.774 372.426 802.096 383.491C793.418 394.557 777.379 396.518 766.272 387.873C755.164 379.228 753.195 363.25 761.873 352.185C770.551 341.119 786.59 339.158 797.697 347.803ZM693.699 371.339C697.139 379.035 693.665 388.053 685.939 391.48C678.212 394.907 669.161 391.445 665.721 383.748C662.281 376.052 665.756 367.034 673.482 363.607C681.208 360.18 690.259 363.642 693.699 371.339ZM903.26 386.069C903.407 388.873 901.245 391.266 898.43 391.413C895.614 391.56 893.213 389.406 893.065 386.601C892.917 383.797 895.08 381.404 897.895 381.257C900.71 381.11 903.112 383.264 903.26 386.069ZM889.111 360.14C893.276 360.872 896.056 364.828 895.322 368.977C894.588 373.125 890.617 375.895 886.452 375.164C882.288 374.432 879.507 370.476 880.242 366.328C880.976 362.179 884.947 359.409 889.111 360.14ZM639.13 358.575C640.232 364.798 636.061 370.732 629.814 371.829C623.568 372.927 617.611 368.772 616.51 362.549C615.408 356.326 619.579 350.392 625.826 349.294C632.072 348.197 638.029 352.352 639.13 358.575ZM272.522 348.797C274.995 356.854 270.443 365.383 262.355 367.846C254.267 370.309 245.707 365.775 243.234 357.718C240.761 349.661 245.313 341.132 253.401 338.669C261.488 336.206 270.049 340.74 272.522 348.797ZM220.722 339.553C223.813 349.624 218.123 360.284 208.014 363.364C197.904 366.443 187.203 360.774 184.112 350.703C181.022 340.632 186.712 329.971 196.821 326.892C206.931 323.813 217.632 329.481 220.722 339.553ZM101.91 340.808C106.266 348.03 103.92 357.402 96.671 361.742C89.4217 366.081 80.014 363.744 75.6582 356.522C71.3025 349.301 73.6481 339.928 80.8973 335.589C88.1465 331.25 97.5543 333.587 101.91 340.808ZM846.869 325.52C856.527 329.804 860.87 341.076 856.57 350.697C852.27 360.318 840.956 364.645 831.298 360.361C821.641 356.078 817.297 344.806 821.597 335.185C825.897 325.564 837.212 321.237 846.869 325.52ZM503.874 346.781C507.498 348.95 508.671 353.636 506.493 357.247C504.315 360.858 499.611 362.027 495.987 359.857C492.362 357.687 491.189 353.001 493.367 349.39C495.545 345.779 500.249 344.611 503.874 346.781ZM56.1396 346.651C59.1296 349.629 59.1296 354.459 56.1396 357.438C53.1495 360.416 48.3016 360.416 45.3116 357.438C42.3215 354.459 42.3215 349.629 45.3116 346.651C48.3016 343.672 53.1495 343.672 56.1396 346.651ZM463.213 346.651C466.203 349.629 466.203 354.459 463.213 357.438C460.223 360.416 455.375 360.416 452.385 357.438C449.395 354.459 449.395 349.629 452.385 346.651C455.375 343.672 460.223 343.672 463.213 346.651ZM327.14 344.253C328.994 350.296 325.58 356.692 319.515 358.539C313.449 360.387 307.028 356.986 305.174 350.943C303.319 344.9 306.733 338.504 312.799 336.656C318.865 334.809 325.285 338.21 327.14 344.253ZM422.47 340.153C424.647 343.764 423.475 348.45 419.85 350.619C416.225 352.789 411.522 351.621 409.344 348.01C407.166 344.399 408.339 339.713 411.963 337.543C415.588 335.374 420.292 336.542 422.47 340.153ZM543.389 333.765C547.433 334.997 549.709 339.261 548.473 343.29C547.236 347.318 542.956 349.586 538.912 348.354C534.868 347.122 532.592 342.858 533.829 338.83C535.065 334.801 539.346 332.534 543.389 333.765ZM175.026 311.951C179.147 325.379 171.561 339.593 158.082 343.698C144.602 347.804 130.334 340.246 126.213 326.818C122.092 313.389 129.678 299.175 143.158 295.07C156.637 290.964 170.905 298.522 175.026 311.951ZM922.186 333.618C922.407 337.825 919.164 341.414 914.941 341.634C910.718 341.855 907.115 338.623 906.894 334.416C906.673 330.209 909.917 326.62 914.139 326.4C918.362 326.179 921.965 329.411 922.186 333.618ZM733.322 312.823C738.529 319.462 737.347 329.049 730.683 334.236C724.018 339.423 714.395 338.246 709.188 331.606C703.981 324.967 705.163 315.38 711.827 310.193C718.492 305.006 728.115 306.183 733.322 312.823ZM677.461 315.954C680.041 321.727 677.435 328.49 671.64 331.06C665.846 333.63 659.057 331.034 656.477 325.261C653.897 319.489 656.503 312.726 662.298 310.156C668.092 307.585 674.881 310.181 677.461 315.954ZM385.837 320.601C387.073 324.629 384.797 328.893 380.753 330.125C376.71 331.357 372.429 329.089 371.193 325.061C369.957 321.032 372.232 316.768 376.276 315.536C380.32 314.305 384.601 316.572 385.837 320.601ZM578.539 314.955C582.762 315.176 586.006 318.765 585.784 322.972C585.563 327.179 581.96 330.41 577.738 330.19C573.515 329.969 570.271 326.38 570.492 322.173C570.714 317.966 574.316 314.735 578.539 314.955ZM785.227 295.776C793.558 302.26 795.035 314.243 788.526 322.542C782.018 330.841 769.988 332.313 761.658 325.829C753.327 319.345 751.85 307.361 758.359 299.062C764.867 290.763 776.897 289.292 785.227 295.776ZM885.474 294.03C893.802 295.493 899.364 303.405 897.895 311.703C896.426 320 888.484 325.54 880.155 324.077C871.827 322.614 866.265 314.702 867.734 306.405C869.203 298.107 877.145 292.567 885.474 294.03ZM290.505 304.98C290.837 311.29 285.972 316.674 279.637 317.004C273.303 317.335 267.899 312.488 267.567 306.178C267.235 299.867 272.101 294.484 278.435 294.153C284.769 293.822 290.173 298.67 290.505 304.98ZM53.008 303.759C55.1858 307.369 54.013 312.056 50.3884 314.225C46.7638 316.395 42.0599 315.226 39.8821 311.616C37.7042 308.005 38.877 303.319 42.5016 301.149C46.1262 298.979 50.8301 300.148 53.008 303.759ZM828.766 265.373C841.643 271.084 847.434 286.113 841.701 298.941C835.968 311.769 820.882 317.538 808.005 311.827C795.128 306.115 789.337 291.086 795.07 278.258C800.803 265.43 815.89 259.661 828.766 265.373ZM236.406 296.226C236.849 304.64 230.361 311.818 221.915 312.259C213.47 312.7 206.265 306.237 205.822 297.823C205.379 289.409 211.867 282.231 220.313 281.79C228.758 281.35 235.964 287.813 236.406 296.226ZM117.517 286.325C120.608 296.396 114.918 307.057 104.809 310.136C94.699 313.215 83.998 307.547 80.9072 297.475C77.8164 287.404 83.5062 276.744 93.6158 273.664C103.725 270.585 114.426 276.254 117.517 286.325ZM483.102 298.651C485.095 300.637 485.095 303.857 483.102 305.842C481.109 307.828 477.877 307.828 475.883 305.842C473.89 303.857 473.89 300.637 475.883 298.651C477.877 296.665 481.109 296.665 483.102 298.651ZM31.3652 298.651C33.3586 300.637 33.3586 303.857 31.3652 305.842C29.3718 307.828 26.1399 307.828 24.1465 305.842C22.1532 303.857 22.1532 300.637 24.1465 298.651C26.1399 296.665 29.3718 296.665 31.3652 298.651ZM453.424 298.372C454.876 300.78 454.094 303.904 451.678 305.35C449.261 306.797 446.125 306.018 444.673 303.61C443.221 301.203 444.003 298.079 446.42 296.633C448.836 295.186 451.972 295.965 453.424 298.372ZM511.515 295.414C513.932 296.86 514.714 299.984 513.262 302.391C511.81 304.799 508.674 305.578 506.257 304.131C503.841 302.685 503.059 299.561 504.511 297.153C505.963 294.746 509.099 293.967 511.515 295.414ZM353.202 296.177C353.424 300.384 350.18 303.973 345.957 304.193C341.734 304.414 338.132 301.182 337.91 296.975C337.689 292.768 340.933 289.179 345.156 288.959C349.378 288.738 352.981 291.97 353.202 296.177ZM618.284 294.56C619.018 298.709 616.237 302.665 612.073 303.396C607.909 304.128 603.938 301.358 603.203 297.209C602.469 293.061 605.25 289.105 609.414 288.373C613.578 287.642 617.549 290.412 618.284 294.56ZM188.39 274.772C188.944 285.289 180.834 294.262 170.277 294.813C159.72 295.364 150.713 287.285 150.16 276.768C149.607 266.251 157.716 257.279 168.273 256.727C178.83 256.176 187.837 264.255 188.39 274.772ZM426.018 287.522C426.842 290.207 425.325 293.05 422.629 293.871C419.933 294.692 417.079 293.181 416.255 290.495C415.431 287.809 416.948 284.967 419.644 284.145C422.34 283.324 425.194 284.836 426.018 287.522ZM538.33 282.082C541.026 282.904 542.543 285.746 541.719 288.432C540.895 291.118 538.041 292.629 535.345 291.808C532.65 290.987 531.132 288.144 531.956 285.458C532.781 282.773 535.634 281.261 538.33 282.082ZM940.421 278.974C941.245 281.66 939.728 284.503 937.032 285.324C934.336 286.145 931.483 284.634 930.658 281.948C929.834 279.262 931.352 276.419 934.047 275.598C936.743 274.777 939.597 276.289 940.421 278.974ZM704.116 262.997C708.021 267.976 707.135 275.166 702.137 279.056C697.139 282.947 689.921 282.064 686.016 277.085C682.111 272.105 682.997 264.915 687.995 261.025C692.994 257.134 700.211 258.017 704.116 262.997ZM400.223 273.764C400.37 276.569 398.208 278.961 395.393 279.108C392.577 279.255 390.176 277.101 390.028 274.296C389.88 271.492 392.043 269.099 394.858 268.952C397.673 268.805 400.075 270.96 400.223 273.764ZM561.079 266.027C563.895 266.174 566.057 268.567 565.91 271.371C565.762 274.176 563.36 276.33 560.545 276.183C557.73 276.036 555.567 273.643 555.715 270.839C555.862 268.034 558.264 265.88 561.079 266.027ZM757.744 248.86C764.408 254.047 765.59 263.634 760.383 270.273C755.177 276.912 745.553 278.089 738.889 272.902C732.224 267.715 731.043 258.128 736.25 251.489C741.456 244.85 751.08 243.673 757.744 248.86ZM928.736 267.193C928.957 271.4 925.713 274.989 921.49 275.209C917.268 275.43 913.665 272.198 913.444 267.991C913.222 263.784 916.466 260.195 920.689 259.975C924.912 259.754 928.514 262.986 928.736 267.193ZM871.002 233.815C881.413 235.644 888.364 245.534 886.529 255.905C884.693 266.277 874.765 273.202 864.354 271.373C853.943 269.545 846.992 259.654 848.828 249.283C850.663 238.911 860.591 231.986 871.002 233.815ZM471.841 265.062C473.337 266.551 473.337 268.966 471.841 270.456C470.346 271.945 467.923 271.945 466.427 270.456C464.932 268.966 464.932 266.551 466.427 265.062C467.923 263.573 470.346 263.573 471.841 265.062ZM493.925 263.763C495.737 264.847 496.324 267.19 495.235 268.996C494.146 270.801 491.794 271.385 489.981 270.301C488.169 269.216 487.583 266.873 488.672 265.067C489.761 263.262 492.113 262.678 493.925 263.763ZM641.688 258.865C643.408 262.713 641.671 267.222 637.808 268.935C633.945 270.649 629.419 268.918 627.699 265.07C625.979 261.221 627.716 256.713 631.579 254.999C635.442 253.286 639.968 255.016 641.688 258.865ZM323.251 252.294C327.402 253.098 330.113 257.102 329.306 261.237C328.5 265.372 324.48 268.073 320.33 267.269C316.179 266.465 313.468 262.461 314.275 258.326C315.082 254.191 319.101 251.491 323.251 252.294ZM513.544 258.953C515.566 259.569 516.704 261.701 516.086 263.715C515.468 265.73 513.328 266.863 511.306 266.247C509.284 265.632 508.146 263.5 508.764 261.485C509.382 259.471 511.522 258.337 513.544 258.953ZM451.977 259.639C453.066 261.445 452.48 263.788 450.668 264.873C448.855 265.957 446.503 265.373 445.414 263.568C444.325 261.762 444.912 259.419 446.724 258.335C448.536 257.25 450.888 257.834 451.977 259.639ZM257.252 241.254C263.478 242.46 267.544 248.466 266.334 254.668C265.124 260.871 259.095 264.922 252.869 263.716C246.642 262.511 242.576 256.505 243.786 250.302C244.997 244.099 251.025 240.048 257.252 241.254ZM150.755 236.977C151.492 251 140.679 262.963 126.603 263.698C112.527 264.433 100.518 253.661 99.7807 239.638C99.043 225.616 109.856 213.652 123.932 212.917C138.008 212.182 150.017 222.954 150.755 236.977ZM74.6401 243.98C77.1128 252.037 72.5609 260.565 64.4732 263.029C56.3856 265.492 47.8247 260.957 45.3521 252.9C42.8795 244.843 47.4313 236.315 55.519 233.852C63.6066 231.388 72.1675 235.923 74.6401 243.98ZM432.654 250.879C433.272 252.893 432.134 255.026 430.112 255.641C428.09 256.257 425.95 255.123 425.332 253.109C424.714 251.095 425.852 248.963 427.874 248.347C429.896 247.731 432.036 248.865 432.654 250.879ZM376.336 244.861C379.103 245.396 380.911 248.066 380.373 250.822C379.835 253.579 377.155 255.38 374.388 254.844C371.621 254.308 369.814 251.639 370.352 248.882C370.889 246.125 373.569 244.325 376.336 244.861ZM587.267 248.736C587.756 251.502 585.902 254.139 583.126 254.627C580.35 255.115 577.703 253.268 577.213 250.502C576.724 247.736 578.577 245.099 581.353 244.611C584.13 244.124 586.777 245.97 587.267 248.736ZM804.032 217.897C813.69 222.18 818.033 233.452 813.733 243.073C809.434 252.694 798.119 257.021 788.461 252.737C778.804 248.454 774.461 237.182 778.76 227.561C783.06 217.94 794.375 213.613 804.032 217.897ZM528.897 246.728C531.006 246.875 532.596 248.698 532.449 250.799C532.302 252.9 530.472 254.484 528.363 254.337C526.254 254.19 524.664 252.368 524.811 250.267C524.959 248.166 526.788 246.581 528.897 246.728ZM27.4877 242.046C29.6656 245.657 28.4928 250.343 24.8682 252.512C21.2436 254.682 16.5397 253.514 14.3618 249.903C12.184 246.292 13.3568 241.606 16.9814 239.436C20.606 237.266 25.3099 238.435 27.4877 242.046ZM475.379 243.717C476.468 245.522 475.882 247.865 474.069 248.95C472.257 250.035 469.905 249.45 468.816 247.645C467.727 245.84 468.314 243.497 470.126 242.412C471.938 241.327 474.29 241.911 475.379 243.717ZM491.132 240.327C492.627 241.817 492.627 244.231 491.132 245.721C489.637 247.21 487.213 247.21 485.718 245.721C484.223 244.231 484.223 241.817 485.718 240.327C487.213 238.838 489.637 238.838 491.132 240.327ZM203.858 215.251C212.159 216.858 217.581 224.866 215.967 233.137C214.354 241.407 206.316 246.808 198.014 245.201C189.712 243.593 184.29 235.585 185.904 227.315C187.518 219.044 195.556 213.643 203.858 215.251ZM460.594 239.78C461.212 241.795 460.074 243.927 458.052 244.543C456.03 245.158 453.89 244.025 453.272 242.011C452.653 239.996 453.791 237.864 455.813 237.248C457.835 236.633 459.975 237.766 460.594 239.78ZM505.144 236.887C506.956 237.972 507.542 240.315 506.453 242.12C505.365 243.926 503.013 244.51 501.2 243.425C499.388 242.34 498.802 239.997 499.891 238.192C500.979 236.386 503.331 235.802 505.144 236.887ZM547.776 237.09C548.143 239.164 546.753 241.142 544.671 241.508C542.588 241.874 540.603 240.489 540.236 238.415C539.869 236.34 541.259 234.362 543.341 233.997C545.423 233.631 547.409 235.016 547.776 237.09ZM417.398 236.433C417.509 238.537 415.887 240.331 413.775 240.441C411.664 240.552 409.863 238.936 409.752 236.832C409.641 234.729 411.263 232.935 413.375 232.824C415.486 232.714 417.287 234.33 417.398 236.433ZM445.365 235.774C445.476 237.878 443.854 239.672 441.742 239.782C439.631 239.893 437.83 238.277 437.719 236.173C437.608 234.07 439.23 232.275 441.342 232.165C443.453 232.055 445.254 233.671 445.365 235.774ZM517.935 226.83C519.957 227.446 521.095 229.578 520.477 231.592C519.859 233.606 517.719 234.74 515.697 234.124C513.675 233.508 512.537 231.376 513.155 229.362C513.773 227.348 515.913 226.214 517.935 226.83ZM946.048 223.52C947.284 227.548 945.008 231.813 940.965 233.044C936.921 234.276 932.64 232.009 931.404 227.98C930.168 223.952 932.444 219.687 936.487 218.456C940.531 217.224 944.812 219.491 946.048 223.52ZM838.83 179.817C852.712 182.255 861.98 195.442 859.533 209.271C857.085 223.099 843.848 232.333 829.967 229.895C816.086 227.456 806.817 214.269 809.265 200.441C811.712 186.612 824.949 177.378 838.83 179.817ZM311.819 215.077C315.682 216.79 317.419 221.299 315.699 225.148C313.98 228.996 309.454 230.727 305.591 229.013C301.728 227.3 299.99 222.791 301.71 218.943C303.43 215.094 307.956 213.364 311.819 215.077ZM365.222 219.73C367.797 220.872 368.955 223.878 367.809 226.444C366.662 229.009 363.645 230.163 361.07 229.021C358.494 227.878 357.336 224.873 358.483 222.307C359.629 219.741 362.646 218.588 365.222 219.73ZM600.464 221.877C601.611 224.443 600.453 227.449 597.877 228.591C595.302 229.733 592.285 228.579 591.138 226.014C589.992 223.448 591.15 220.442 593.725 219.3C596.3 218.158 599.318 219.312 600.464 221.877ZM655.542 216.225C658.146 219.544 657.555 224.338 654.223 226.931C650.891 229.525 646.079 228.936 643.476 225.617C640.872 222.297 641.463 217.503 644.795 214.91C648.127 212.316 652.939 212.905 655.542 216.225ZM717.306 207.553C722.304 211.443 723.191 218.633 719.285 223.612C715.38 228.592 708.163 229.475 703.165 225.584C698.166 221.694 697.28 214.504 701.185 209.525C705.09 204.545 712.308 203.662 717.306 207.553ZM430.372 220.369C432.448 220.771 433.803 222.773 433.4 224.84C432.996 226.908 430.987 228.258 428.911 227.856C426.836 227.454 425.48 225.453 425.884 223.385C426.287 221.317 428.297 219.967 430.372 220.369ZM400.93 219.997C403.013 220.363 404.403 222.341 404.036 224.415C403.669 226.489 401.683 227.874 399.601 227.509C397.519 227.143 396.128 225.165 396.495 223.09C396.863 221.016 398.848 219.631 400.93 219.997ZM918.31 210.81C918.752 219.224 912.265 226.402 903.819 226.843C895.373 227.284 888.168 220.821 887.726 212.407C887.283 203.993 893.771 196.815 902.216 196.374C910.662 195.933 917.867 202.397 918.31 210.81ZM527.872 217.331C529.984 217.441 531.606 219.236 531.495 221.339C531.385 223.442 529.583 225.058 527.472 224.948C525.36 224.838 523.738 223.043 523.849 220.94C523.96 218.836 525.761 217.221 527.872 217.331ZM561.258 217.424C562.118 219.348 561.249 221.602 559.318 222.459C557.386 223.315 555.123 222.45 554.263 220.526C553.403 218.602 554.272 216.347 556.203 215.491C558.135 214.634 560.398 215.499 561.258 217.424ZM101.177 198.253C101.73 208.77 93.6202 217.742 83.0632 218.293C72.5062 218.845 63.4996 210.766 62.9463 200.249C62.393 189.732 70.5026 180.759 81.0597 180.208C91.6167 179.657 100.623 187.736 101.177 198.253ZM159.451 178.391C169.828 180.4 176.605 190.41 174.588 200.748C172.571 211.086 162.523 217.837 152.146 215.828C141.769 213.818 134.991 203.809 137.008 193.471C139.026 183.133 149.073 176.381 159.451 178.391ZM423.403 207.976C425.335 208.832 426.203 211.087 425.343 213.011C424.483 214.935 422.221 215.8 420.289 214.944C418.357 214.087 417.489 211.833 418.349 209.908C419.209 207.984 421.472 207.119 423.403 207.976ZM542.437 207.699C542.804 209.773 541.414 211.751 539.331 212.117C537.249 212.482 535.264 211.097 534.896 209.023C534.529 206.949 535.92 204.971 538.002 204.605C540.084 204.239 542.07 205.624 542.437 207.699ZM250.004 189.529C255.798 192.099 258.404 198.862 255.824 204.635C253.244 210.408 246.456 213.004 240.661 210.434C234.866 207.864 232.261 201.1 234.84 195.328C237.42 189.555 244.209 186.959 250.004 189.529ZM765.973 178.998C773.699 182.424 777.173 191.442 773.733 199.139C770.294 206.835 761.242 210.297 753.516 206.87C745.79 203.443 742.315 194.426 745.755 186.729C749.195 179.032 758.246 175.571 765.973 178.998ZM394.116 198.823C396.048 199.679 396.916 201.934 396.057 203.858C395.197 205.782 392.934 206.648 391.002 205.791C389.071 204.934 388.202 202.68 389.062 200.756C389.922 198.831 392.185 197.966 394.116 198.823ZM36.1879 196.245C37.4242 200.274 35.1482 204.538 31.1044 205.769C27.0606 207.001 22.7802 204.734 21.5438 200.705C20.3075 196.677 22.5835 192.412 26.6273 191.181C30.6711 189.949 34.9515 192.216 36.1879 196.245ZM567.624 197.763C568.926 199.423 568.63 201.82 566.964 203.116C565.298 204.413 562.892 204.119 561.591 202.459C560.289 200.799 560.584 198.402 562.25 197.106C563.917 195.809 566.322 196.103 567.624 197.763ZM418.841 192.575C420.507 193.871 420.802 196.268 419.501 197.928C418.199 199.588 415.793 199.882 414.127 198.585C412.461 197.288 412.166 194.892 413.467 193.232C414.769 191.572 417.175 191.278 418.841 192.575ZM359.533 189.958C361.755 191.687 362.149 194.882 360.413 197.096C358.677 199.309 355.47 199.701 353.248 197.972C351.027 196.243 350.633 193.047 352.368 190.834C354.104 188.621 357.312 188.229 359.533 189.958ZM606.561 190.271C608.297 192.484 607.903 195.679 605.681 197.409C603.46 199.138 600.252 198.745 598.517 196.532C596.781 194.319 597.175 191.123 599.396 189.394C601.618 187.665 604.826 188.058 606.561 190.271ZM547 192.863C547.86 194.787 546.992 197.041 545.06 197.898C543.129 198.755 540.866 197.89 540.006 195.965C539.146 194.041 540.015 191.787 541.946 190.93C543.878 190.073 546.141 190.939 547 192.863ZM15.1056 189.501C16.5575 191.908 15.7756 195.033 13.3592 196.479C10.9428 197.925 7.80689 197.146 6.35496 194.739C4.90303 192.332 5.6849 189.208 8.10132 187.761C10.5177 186.315 13.6536 187.094 15.1056 189.501ZM658.817 173.876C662.149 176.47 662.74 181.264 660.137 184.583C657.533 187.903 652.721 188.491 649.389 185.898C646.057 183.304 645.466 178.511 648.07 175.191C650.673 171.872 655.485 171.283 658.817 173.876ZM308.847 172.573C312.179 175.166 312.77 179.96 310.166 183.279C307.563 186.599 302.751 187.187 299.419 184.594C296.087 182 295.496 177.207 298.099 173.887C300.703 170.568 305.515 169.979 308.847 172.573ZM415.634 179.172C416.936 180.831 416.641 183.228 414.975 184.525C413.308 185.822 410.903 185.527 409.601 183.868C408.299 182.208 408.595 179.811 410.261 178.514C411.927 177.218 414.333 177.512 415.634 179.172ZM392.119 178.476C393.785 179.773 394.081 182.17 392.779 183.83C391.477 185.49 389.072 185.784 387.405 184.487C385.739 183.19 385.444 180.794 386.746 179.134C388.047 177.474 390.453 177.18 392.119 178.476ZM203.85 152.227C211.576 155.654 215.051 164.671 211.611 172.368C208.171 180.065 199.119 183.526 191.393 180.099C183.667 176.673 180.192 167.655 183.632 159.958C187.072 152.261 196.124 148.8 203.85 152.227ZM547.639 175.004C548.941 176.663 548.646 179.06 546.98 180.357C545.314 181.654 542.908 181.359 541.606 179.7C540.304 178.04 540.6 175.643 542.266 174.346C543.932 173.049 546.338 173.344 547.639 175.004ZM570.831 173.983C572.497 175.28 572.792 177.677 571.49 179.337C570.189 180.996 567.783 181.291 566.117 179.994C564.451 178.697 564.155 176.3 565.457 174.641C566.759 172.981 569.165 172.686 570.831 173.983ZM894.635 158.99C895.189 169.507 887.079 178.48 876.522 179.031C865.965 179.582 856.958 171.503 856.405 160.986C855.852 150.469 863.962 141.497 874.519 140.945C885.076 140.394 894.082 148.473 894.635 158.99ZM803.302 139.712C813.713 141.541 820.664 151.431 818.829 161.802C816.993 172.174 807.065 179.099 796.654 177.27C786.243 175.442 779.292 165.551 781.128 155.18C782.963 144.808 792.891 137.883 803.302 139.712ZM127.065 125.195C140.901 127.875 149.938 141.221 147.248 155.005C144.559 168.789 131.162 177.791 117.325 175.111C103.489 172.432 94.4528 159.086 97.1423 145.302C99.8318 131.518 113.229 122.516 127.065 125.195ZM951.484 164.525C952.936 166.932 952.154 170.056 949.738 171.503C947.322 172.949 944.186 172.17 942.734 169.763C941.282 167.356 942.064 164.232 944.48 162.785C946.897 161.339 950.032 162.118 951.484 164.525ZM716.705 148.663C722.499 151.233 725.105 157.996 722.525 163.769C719.945 169.542 713.156 172.138 707.362 169.568C701.567 166.998 698.961 160.234 701.541 154.462C704.121 148.689 710.91 146.093 716.705 148.663ZM358.724 162.339C360.459 164.552 360.066 167.748 357.844 169.477C355.623 171.206 352.415 170.813 350.679 168.6C348.944 166.387 349.337 163.192 351.559 161.463C353.78 159.734 356.988 160.126 358.724 162.339ZM604.988 160.498C607.209 162.227 607.603 165.423 605.868 167.636C604.132 169.849 600.924 170.242 598.703 168.513C596.481 166.784 596.087 163.588 597.823 161.375C599.559 159.162 602.766 158.769 604.988 160.498ZM418.297 162.754C419.157 164.678 418.289 166.933 416.357 167.789C414.426 168.646 412.163 167.781 411.303 165.856C410.443 163.932 411.312 161.678 413.243 160.821C415.175 159.964 417.438 160.83 418.297 162.754ZM936.272 157.49C937.509 161.518 935.233 165.782 931.189 167.014C927.145 168.246 922.865 165.978 921.628 161.95C920.392 157.921 922.668 153.657 926.712 152.425C930.756 151.194 935.036 153.461 936.272 157.49ZM544.109 159.885C545.775 161.182 546.07 163.579 544.769 165.238C543.467 166.898 541.061 167.193 539.395 165.896C537.729 164.599 537.434 162.202 538.735 160.542C540.037 158.883 542.443 158.588 544.109 159.885ZM69.8562 146.832C70.2989 155.245 63.8112 162.424 55.3655 162.864C46.9199 163.305 39.7146 156.842 39.272 148.429C38.8294 140.015 45.3171 132.837 53.7627 132.396C62.2083 131.955 69.4136 138.418 69.8562 146.832ZM395.65 156.412C396.951 158.072 396.656 160.469 394.99 161.765C393.324 163.062 390.918 162.768 389.616 161.108C388.315 159.448 388.61 157.052 390.276 155.755C391.942 154.458 394.348 154.752 395.65 156.412ZM566.363 153.306C568.295 154.163 569.164 156.417 568.304 158.341C567.444 160.265 565.181 161.131 563.249 160.274C561.318 159.417 560.449 157.163 561.309 155.239C562.169 153.315 564.432 152.449 566.363 153.306ZM422.338 149.59C422.705 151.665 421.315 153.643 419.233 154.008C417.151 154.374 415.165 152.989 414.798 150.915C414.431 148.84 415.821 146.862 417.903 146.497C419.986 146.131 421.971 147.516 422.338 149.59ZM255.072 132.886C260.07 136.776 260.956 143.966 257.051 148.946C253.146 153.925 245.928 154.808 240.93 150.918C235.932 147.027 235.045 139.837 238.951 134.858C242.856 129.878 250.073 128.996 255.072 132.886ZM537.077 144.153C539.008 145.01 539.877 147.264 539.017 149.189C538.157 151.113 535.894 151.978 533.962 151.121C532.031 150.265 531.162 148.01 532.022 146.086C532.882 144.162 535.145 143.297 537.077 144.153ZM857.801 119.6C858.539 133.623 847.726 145.587 833.65 146.322C819.574 147.056 807.565 136.285 806.827 122.262C806.09 108.239 816.902 96.2756 830.978 95.5407C845.054 94.8058 857.063 105.578 857.801 119.6ZM313.765 133.255C316.368 136.574 315.777 141.368 312.445 143.961C309.113 146.555 304.301 145.966 301.698 142.647C299.095 139.327 299.685 134.534 303.017 131.94C306.35 129.346 311.161 129.935 313.765 133.255ZM651.775 130.084C655.638 131.797 657.375 136.306 655.655 140.154C653.935 144.003 649.41 145.733 645.547 144.02C641.683 142.307 639.946 137.798 641.666 133.949C643.386 130.101 647.912 128.37 651.775 130.084ZM404.04 138.193C404.9 140.118 404.032 142.372 402.1 143.229C400.168 144.085 397.906 143.22 397.046 141.296C396.186 139.372 397.054 137.117 398.986 136.261C400.917 135.404 403.18 136.269 404.04 138.193ZM168.904 106.36C178.562 110.643 182.905 121.915 178.605 131.536C174.305 141.157 162.991 145.484 153.333 141.2C143.676 136.917 139.332 125.645 143.632 116.024C147.932 106.403 159.247 102.076 168.904 106.36ZM557.324 135.063C559.399 135.465 560.755 137.467 560.351 139.535C559.948 141.602 557.938 142.953 555.863 142.551C553.787 142.149 552.432 140.147 552.835 138.079C553.239 136.012 555.248 134.661 557.324 135.063ZM756.926 111.141C765.255 112.604 770.816 120.516 769.348 128.813C767.879 137.111 759.937 142.651 751.608 141.188C743.28 139.725 737.718 131.813 739.187 123.515C740.656 115.218 748.598 109.678 756.926 111.141ZM26.4121 130.215C27.6485 134.243 25.3725 138.507 21.3287 139.739C17.2849 140.971 13.0045 138.703 11.7681 134.675C10.5318 130.646 12.8077 126.382 16.8516 125.151C20.8954 123.919 25.1758 126.186 26.4121 130.215ZM526.368 132.497C528.45 132.863 529.841 134.841 529.473 136.915C529.106 138.989 527.121 140.374 525.039 140.009C522.956 139.643 521.566 137.665 521.933 135.591C522.3 133.516 524.286 132.131 526.368 132.497ZM367.165 132.706C368.312 135.271 367.154 138.277 364.578 139.419C362.003 140.562 358.986 139.408 357.839 136.842C356.692 134.277 357.851 131.271 360.426 130.129C363.001 128.986 366.019 130.14 367.165 132.706ZM596.296 130.076C598.871 131.218 600.03 134.224 598.883 136.79C597.736 139.355 594.719 140.509 592.144 139.367C589.568 138.225 588.41 135.219 589.557 132.653C590.703 130.088 593.721 128.934 596.296 130.076ZM428.434 131.596C430.543 131.743 432.133 133.566 431.986 135.667C431.838 137.768 430.009 139.352 427.9 139.205C425.791 139.058 424.201 137.236 424.348 135.135C424.495 133.034 426.325 131.449 428.434 131.596ZM441.654 124.258C443.675 124.874 444.813 127.006 444.195 129.021C443.577 131.035 441.437 132.168 439.415 131.553C437.393 130.937 436.255 128.805 436.873 126.79C437.491 124.776 439.632 123.643 441.654 124.258ZM519.863 123.065C519.973 125.169 518.352 126.963 516.24 127.074C514.129 127.184 512.327 125.568 512.217 123.465C512.106 121.361 513.728 119.567 515.839 119.457C517.951 119.346 519.752 120.962 519.863 123.065ZM547.83 122.406C547.94 124.51 546.318 126.304 544.207 126.415C542.096 126.525 540.294 124.909 540.184 122.806C540.073 120.702 541.695 118.908 543.806 118.797C545.918 118.687 547.719 120.303 547.83 122.406ZM912.464 105.294C914.937 113.351 910.385 121.88 902.297 124.343C894.21 126.806 885.649 122.272 883.176 114.215C880.703 106.158 885.255 97.6293 893.343 95.166C901.431 92.7028 909.991 97.2374 912.464 105.294ZM416.999 120.199C417.366 122.273 415.976 124.251 413.894 124.617C411.811 124.983 409.826 123.598 409.459 121.523C409.092 119.449 410.482 117.471 412.564 117.105C414.646 116.739 416.632 118.124 416.999 120.199ZM456.879 115.743C458.691 116.827 459.278 119.17 458.189 120.976C457.1 122.781 454.748 123.366 452.936 122.281C451.123 121.196 450.537 118.853 451.626 117.047C452.715 115.242 455.067 114.658 456.879 115.743ZM504.545 116.184C505.163 118.199 504.025 120.331 502.003 120.946C499.981 121.562 497.841 120.429 497.223 118.414C496.605 116.4 497.742 114.268 499.764 113.652C501.786 113.036 503.927 114.17 504.545 116.184ZM943.478 109.362C945.655 112.973 944.483 117.659 940.858 119.828C937.233 121.998 932.53 120.83 930.352 117.219C928.174 113.608 929.346 108.922 932.971 106.752C936.596 104.582 941.3 105.751 943.478 109.362ZM93.4095 83.1248C103.787 85.1343 110.564 95.144 108.547 105.482C106.53 115.82 96.4821 122.571 86.1048 120.562C75.7276 118.552 68.9503 108.543 70.9675 98.2049C72.9846 87.8669 83.0323 81.1153 93.4095 83.1248ZM471.841 112.511C473.337 114 473.337 116.415 471.841 117.904C470.346 119.394 467.923 119.394 466.427 117.904C464.932 116.415 464.932 114 466.427 112.511C467.923 111.021 470.346 111.021 471.841 112.511ZM489.023 111.619C490.112 113.425 489.526 115.768 487.713 116.853C485.901 117.937 483.549 117.353 482.46 115.548C481.371 113.742 481.958 111.399 483.77 110.315C485.582 109.23 487.934 109.814 489.023 111.619ZM701.756 93.5816C708.002 94.6789 712.173 100.613 711.072 106.836C709.97 113.059 704.013 117.214 697.767 116.117C691.52 115.019 687.349 109.085 688.451 102.862C689.552 96.6395 695.509 92.4844 701.756 93.5816ZM580.41 104.566C583.186 105.053 585.04 107.691 584.55 110.457C584.061 113.222 581.414 115.069 578.637 114.581C575.861 114.094 574.007 111.456 574.497 108.691C574.986 105.925 577.634 104.078 580.41 104.566ZM380.022 108.111C380.511 110.877 378.658 113.514 375.881 114.002C373.105 114.49 370.458 112.643 369.968 109.877C369.479 107.112 371.332 104.474 374.109 103.986C376.885 103.499 379.532 105.345 380.022 108.111ZM219.347 85.5682C226.012 90.7553 227.193 100.342 221.986 106.981C216.78 113.621 207.156 114.798 200.492 109.611C193.828 104.424 192.646 94.8366 197.853 88.1974C203.059 81.5583 212.683 80.3811 219.347 85.5682ZM425.408 103.963C427.519 104.073 429.141 105.868 429.03 107.971C428.92 110.075 427.118 111.69 425.007 111.58C422.896 111.47 421.274 109.676 421.384 107.572C421.495 105.469 423.296 103.853 425.408 103.963ZM532.484 105.086C533.102 107.1 531.964 109.232 529.943 109.848C527.921 110.464 525.78 109.33 525.162 107.316C524.544 105.301 525.682 103.169 527.704 102.553C529.726 101.938 531.866 103.071 532.484 105.086ZM634.243 91.2024C638.407 91.9339 641.188 95.89 640.453 100.039C639.719 104.187 635.748 106.957 631.584 106.226C627.419 105.494 624.639 101.538 625.373 97.3896C626.107 93.241 630.078 90.4709 634.243 91.2024ZM330.604 93.6497C332.324 97.4981 330.587 102.007 326.724 103.72C322.861 105.434 318.335 103.703 316.615 99.8545C314.895 96.0061 316.633 91.4974 320.496 89.784C324.359 88.0706 328.885 89.8013 330.604 93.6497ZM807.422 82.4706C807.975 92.9876 799.865 101.96 789.308 102.511C778.751 103.063 769.745 94.9836 769.191 84.4666C768.638 73.9495 776.748 64.977 787.305 64.4258C797.862 63.8746 806.868 71.9535 807.422 82.4706ZM512.425 95.6966C513.514 97.502 512.927 99.8451 511.115 100.93C509.303 102.015 506.951 101.431 505.862 99.6251C504.773 97.8196 505.359 95.4766 507.172 94.3918C508.984 93.3069 511.336 93.8911 512.425 95.6966ZM271.224 81.7866C275.13 86.766 274.243 93.9562 269.245 97.8465C264.247 101.737 257.029 100.854 253.124 95.8746C249.219 90.8953 250.105 83.705 255.104 79.8147C260.102 75.9244 267.319 76.8073 271.224 81.7866ZM446.044 92.1349C448.066 92.7507 449.204 94.8829 448.586 96.8971C447.968 98.9114 445.828 100.045 443.806 99.4292C441.784 98.8134 440.646 96.6813 441.264 94.6671C441.882 92.6528 444.022 91.5191 446.044 92.1349ZM44.1382 91.2476C44.3595 95.4544 41.1157 99.0434 36.8929 99.2639C32.6701 99.4843 29.0674 96.2528 28.8461 92.046C28.6248 87.8391 31.8686 84.2501 36.0914 84.0297C40.3142 83.8092 43.9169 87.0408 44.1382 91.2476ZM468.098 88.8671C469.91 89.9519 470.497 92.2949 469.408 94.1004C468.319 95.9058 465.967 96.49 464.155 95.4051C462.342 94.3203 461.756 91.9773 462.845 90.1718C463.934 88.3664 466.286 87.7822 468.098 88.8671ZM149.361 47.2701C162.237 52.9815 168.028 68.0107 162.295 80.8386C156.562 93.6666 141.476 99.4357 128.599 93.7243C115.723 88.0129 109.932 72.9839 115.665 60.1559C121.398 47.3279 136.484 41.5587 149.361 47.2701ZM491.132 87.7758C492.627 89.2652 492.627 91.68 491.132 93.1694C489.637 94.6587 487.213 94.6587 485.718 93.1694C484.223 91.68 484.223 89.2652 485.718 87.7758C487.213 86.2865 489.637 86.2865 491.132 87.7758ZM567.554 84.9424C567.701 87.7469 565.539 90.1396 562.724 90.2866C559.908 90.4336 557.507 88.2792 557.359 85.4746C557.211 82.6701 559.374 80.2774 562.189 80.1304C565.004 79.9834 567.406 82.1378 567.554 84.9424ZM396.263 79.7941C399.076 79.9901 401.196 82.42 400.999 85.2215C400.803 88.023 398.363 90.1353 395.551 89.9394C392.739 89.7435 390.619 87.3136 390.815 84.5121C391.012 81.7105 393.451 79.5982 396.263 79.7941ZM876.909 60.7195C880 70.7907 874.31 81.4513 864.2 84.5304C854.091 87.6095 843.39 81.9412 840.299 71.8699C837.208 61.7986 842.898 51.1381 853.008 48.059C863.117 44.9799 873.818 50.6481 876.909 60.7195ZM27.1577 76.2469C27.9819 78.9326 26.4647 81.7754 23.7688 82.5965C21.0729 83.4175 18.2193 81.906 17.3951 79.2204C16.5708 76.5347 18.0881 73.6918 20.784 72.8708C23.4799 72.0497 26.3335 73.5612 27.1577 76.2469ZM751.76 61.4157C752.202 69.8294 745.715 77.0074 737.269 77.4484C728.823 77.8893 721.618 71.4261 721.176 63.0125C720.733 54.5988 727.221 47.4208 735.666 46.9799C744.112 46.5389 751.317 53.0021 751.76 61.4157ZM422.005 66.5743C424.701 67.3954 426.218 70.2382 425.394 72.9239C424.569 75.6096 421.716 77.1211 419.02 76.3C416.324 75.4789 414.807 72.6361 415.631 69.9505C416.455 67.2648 419.309 65.7532 422.005 66.5743ZM541.561 67.6997C542.385 70.3854 540.868 73.2283 538.172 74.0493C535.476 74.8705 532.623 73.3589 531.798 70.6732C530.974 67.9875 532.492 65.1447 535.187 64.3236C537.883 63.5026 540.737 65.0141 541.561 67.6997ZM354.031 61.4041C354.766 65.5527 351.985 69.5088 347.821 70.2403C343.656 70.9718 339.685 68.2017 338.951 64.0531C338.217 59.9045 340.997 55.9484 345.162 55.2169C349.326 54.4854 353.297 57.2555 354.031 61.4041ZM619.671 62.2636C619.893 66.4704 616.649 70.0594 612.426 70.2799C608.203 70.5004 604.601 67.2688 604.379 63.062C604.158 58.8552 607.402 55.2661 611.625 55.0457C615.847 54.8252 619.45 58.0568 619.671 62.2636ZM196.578 32.6414C204.909 39.1252 206.386 51.109 199.877 59.4079C193.369 67.7068 181.339 69.1783 173.009 62.6945C164.678 56.2106 163.201 44.2268 169.71 35.9279C176.218 27.629 188.248 26.1576 196.578 32.6414ZM690.015 53.0612C690.347 59.3715 685.481 64.755 679.147 65.0857C672.812 65.4164 667.408 60.569 667.076 54.2588C666.744 47.9486 671.61 42.565 677.944 42.2343C684.279 41.9036 689.683 46.751 690.015 53.0612ZM451.822 55.0366C454.238 56.483 455.02 59.607 453.568 62.0143C452.116 64.4215 448.98 65.2004 446.564 63.754C444.148 62.3076 443.366 59.1836 444.818 56.7763C446.27 54.369 449.406 53.5901 451.822 55.0366ZM831.603 31.377C835.724 44.8055 828.138 59.0195 814.658 63.1249C801.179 67.2304 786.911 59.6727 782.79 46.2443C778.669 32.8159 786.255 18.6019 799.735 14.4964C813.214 10.3909 827.482 17.9486 831.603 31.377ZM513.166 55.6538C514.618 58.0611 513.836 61.1852 511.42 62.6316C509.003 64.078 505.867 63.2991 504.415 60.8918C502.963 58.4846 503.745 55.3605 506.162 53.9141C508.578 52.4677 511.714 53.2466 513.166 55.6538ZM933.413 52.389C935.407 54.3748 935.407 57.5945 933.413 59.5803C931.42 61.5662 928.188 61.5662 926.195 59.5803C924.201 57.5945 924.201 54.3748 926.195 52.389C928.188 50.4032 931.42 50.4032 933.413 52.389ZM481.676 52.389C483.67 54.3748 483.67 57.5945 481.676 59.5803C479.683 61.5662 476.451 61.5662 474.458 59.5803C472.464 57.5945 472.464 54.3748 474.458 52.389C476.451 50.4032 479.683 50.4032 481.676 52.389ZM78.5341 30.1545C86.8359 31.7621 92.2577 39.7698 90.644 48.0402C89.0303 56.3106 80.9921 61.7119 72.6903 60.1042C64.3885 58.4966 58.9667 50.489 60.5804 42.2186C62.1941 33.9482 70.2323 28.5469 78.5341 30.1545ZM917.957 47.6488C920.135 51.2597 918.962 55.9458 915.338 58.1154C911.713 60.2851 907.009 59.1167 904.831 55.5058C902.654 51.8949 903.826 47.2088 907.451 45.0392C911.076 42.8695 915.779 44.0379 917.957 47.6488ZM248.052 27.2647C253.259 33.9038 252.077 43.4909 245.413 48.6779C238.749 53.865 229.125 52.6879 223.918 46.0487C218.712 39.4096 219.893 29.8226 226.558 24.6355C233.222 19.4485 242.845 20.6256 248.052 27.2647ZM301.826 33.458C304.406 39.2306 301.8 45.9937 296.006 48.5639C290.211 51.134 283.422 48.5379 280.843 42.7653C278.263 36.9927 280.869 30.2296 286.663 27.6595C292.458 25.0893 299.246 27.6855 301.826 33.458ZM586.623 33.1339C587.86 37.1625 585.584 41.4267 581.54 42.6583C577.496 43.89 573.216 41.6226 571.979 37.5941C570.743 33.5656 573.019 29.3014 577.063 28.0698C581.107 26.8381 585.387 29.1054 586.623 33.1339ZM380.02 25.4969C384.238 25.7908 387.418 29.4356 387.123 33.638C386.828 37.8403 383.17 41.0087 378.951 40.7149C374.733 40.421 371.553 36.7762 371.848 32.5738C372.143 28.3715 375.801 25.2031 380.02 25.4969ZM126.067 -1.26419C135.725 3.01935 140.068 14.2912 135.768 23.9122C131.469 33.5332 120.154 37.86 110.496 33.5765C100.839 29.2929 96.4956 18.0211 100.795 8.40015C105.095 -1.22086 116.41 -5.5477 126.067 -1.26419ZM50.6878 24.8227C50.9091 29.0295 47.6652 32.6185 43.4424 32.839C39.2196 33.0594 35.6169 29.8279 35.3956 25.621C35.1743 21.4142 38.4182 17.8252 42.641 17.6047C46.8638 17.3843 50.4664 20.6158 50.6878 24.8227ZM773.704 7.49179C776.795 17.5631 771.105 28.2236 760.995 31.3027C750.886 34.3818 740.185 28.7135 737.094 18.6422C734.003 8.57089 739.693 -2.0896 749.802 -5.1687C759.912 -8.2478 770.613 -2.57953 773.704 7.49179ZM882.181 2.742C886.537 9.96378 884.191 19.3359 876.942 23.6752C869.693 28.0145 860.285 25.6777 855.929 18.456C851.574 11.2342 853.919 1.86206 861.168 -2.47723C868.418 -6.81653 877.825 -4.4798 882.181 2.742ZM418.438 10.0285C422.482 11.2602 424.758 15.5244 423.521 19.5529C422.285 23.5814 418.005 25.8488 413.961 24.6171C409.917 23.3855 407.641 19.1212 408.877 15.0927C410.114 11.0642 414.394 8.79688 418.438 10.0285ZM548.496 11.2545C550.674 14.8654 549.501 19.5515 545.876 21.7211C542.252 23.8908 537.548 22.7224 535.37 19.1115C533.192 15.5006 534.365 10.8146 537.989 8.64493C541.614 6.47528 546.318 7.64365 548.496 11.2545ZM652.642 7.2518C654.497 13.2946 651.083 19.6909 645.017 21.5384C638.951 23.3858 632.531 19.9849 630.676 13.9421C628.822 7.89929 632.236 1.50299 638.301 -0.344482C644.367 -2.19196 650.788 1.20905 652.642 7.2518ZM714.582 0.477173C717.055 8.53421 712.503 17.0626 704.415 19.5259C696.328 21.9892 687.767 17.4546 685.294 9.39752C682.822 1.34048 687.374 -7.18793 695.461 -9.65121C703.549 -12.1145 712.11 -7.57986 714.582 0.477173ZM191.964 -29.403C203.072 -20.758 205.041 -4.7796 196.363 6.28564C187.685 17.3509 171.646 19.3128 160.539 10.6677C149.432 2.02255 147.462 -13.9558 156.14 -25.0211C164.818 -36.0863 180.857 -38.0482 191.964 -29.403ZM912.248 0.793854C915.238 3.77261 915.238 8.60214 912.248 11.5809C909.258 14.5596 904.41 14.5596 901.42 11.5809C898.43 8.60214 898.43 3.77261 901.42 0.793854C904.41 -2.18491 909.258 -2.18491 912.248 0.793854ZM505.175 0.793854C508.165 3.77261 508.165 8.60214 505.175 11.5809C502.185 14.5596 497.337 14.5596 494.347 11.5809C491.357 8.60214 491.357 3.77261 494.347 0.793854C497.337 -2.18491 502.185 -2.18491 505.175 0.793854ZM462.093 -0.689209C465.717 1.48044 466.89 6.16647 464.712 9.77737C462.534 13.3883 457.83 14.5566 454.206 12.387C450.581 10.2173 449.408 5.53128 451.586 1.92038C453.764 -1.69049 458.468 -2.85886 462.093 -0.689209ZM340.725 -3.93533C341.827 2.28757 337.656 8.22171 331.409 9.31897C325.163 10.4162 319.206 6.26111 318.105 0.038208C317.003 -6.18466 321.174 -12.1188 327.421 -13.2161C333.667 -14.3134 339.624 -10.1582 340.725 -3.93533ZM238.812 -29.5775C245.321 -21.2785 243.844 -9.29477 235.513 -2.81094C227.183 3.67288 215.153 2.20145 208.645 -6.09747C202.136 -14.3964 203.613 -26.3801 211.944 -32.864C220.274 -39.3478 232.304 -37.8764 238.812 -29.5775ZM836.858 -31.9399C842.302 -22.9127 839.37 -11.1976 830.309 -5.77344C821.247 -0.349335 809.488 -3.27026 804.043 -12.2975C798.598 -21.3247 801.53 -33.0399 810.592 -38.464C819.653 -43.8881 831.413 -40.9672 836.858 -31.9399ZM292.582 -25.029C296.022 -17.3322 292.548 -8.31473 284.822 -4.88791C277.096 -1.46106 268.044 -4.92255 264.604 -12.6194C261.164 -20.3161 264.639 -29.3336 272.365 -32.7604C280.091 -36.1873 289.143 -32.7258 292.582 -25.029ZM73.1331 -21.034C77.284 -20.2302 79.9949 -16.2264 79.188 -12.0912C78.3812 -7.95599 74.3621 -5.25534 70.2112 -6.05914C66.0603 -6.86295 63.3494 -10.8668 64.1563 -15.002C64.9631 -19.1372 68.9822 -21.8378 73.1331 -21.034ZM785.772 -49.4918C793.032 -37.4555 789.122 -21.8353 777.04 -14.6031C764.958 -7.371 749.279 -11.2656 742.019 -23.3019C734.759 -35.3382 738.669 -50.9584 750.751 -58.1905C762.833 -65.4227 778.512 -61.5281 785.772 -49.4918ZM606.268 -29.7697C609.535 -24.3534 607.776 -17.3243 602.339 -14.0699C596.902 -10.8154 589.846 -12.5679 586.579 -17.9843C583.313 -23.4006 585.072 -30.4297 590.509 -33.6842C595.946 -36.9386 603.001 -35.1861 606.268 -29.7697ZM64.5168 -27.3624C64.6644 -24.5579 62.5018 -22.1652 59.6866 -22.0182C56.8714 -21.8712 54.4696 -24.0256 54.3221 -26.8301C54.1745 -29.6347 56.3371 -32.0274 59.1523 -32.1743C61.9675 -32.3213 64.3693 -30.167 64.5168 -27.3624ZM379.424 -45.1791C385.751 -44.7383 390.522 -39.271 390.079 -32.9675C389.637 -26.664 384.149 -21.9113 377.821 -22.3521C371.494 -22.7929 366.723 -28.2602 367.166 -34.5637C367.608 -40.8672 373.096 -45.6198 379.424 -45.1791ZM123.534 -56.2104C131.26 -52.7836 134.735 -43.7661 131.295 -36.0693C127.855 -28.3725 118.803 -24.911 111.077 -28.3379C103.351 -31.7647 99.8768 -40.7822 103.317 -48.479C106.756 -56.1757 115.808 -59.6372 123.534 -56.2104ZM664.723 -51.2711C669.079 -44.0493 666.733 -34.6772 659.484 -30.3379C652.235 -25.9986 642.827 -28.3353 638.471 -35.5571C634.116 -42.7789 636.461 -52.151 643.711 -56.4903C650.96 -60.8296 660.367 -58.4928 664.723 -51.2711ZM723.792 -58.7134C729.237 -49.6862 726.305 -37.9711 717.243 -32.5469C708.182 -27.1228 696.422 -30.0437 690.977 -39.071C685.533 -48.0982 688.465 -59.8134 697.526 -65.2375C706.588 -70.6616 718.347 -67.7407 723.792 -58.7134ZM551.269 -52.9354C555.754 -48.4673 555.754 -41.223 551.269 -36.7549C546.784 -32.2867 539.512 -32.2867 535.027 -36.7549C530.542 -41.223 530.542 -48.4673 535.027 -52.9354C539.512 -57.4035 546.784 -57.4035 551.269 -52.9354ZM433.816 -58.9695C439.882 -57.1221 443.296 -50.7258 441.442 -44.683C439.587 -38.6402 433.166 -35.2392 427.101 -37.0867C421.035 -38.9342 417.621 -45.3305 419.476 -51.3733C421.33 -57.416 427.751 -60.817 433.816 -58.9695ZM872.5 -52.9354C875.49 -49.9566 875.49 -45.1271 872.5 -42.1484C869.51 -39.1696 864.662 -39.1696 861.672 -42.1484C858.682 -45.1271 858.682 -49.9566 861.672 -52.9354C864.662 -55.9141 869.51 -55.9141 872.5 -52.9354ZM493.77 -63.9314C499.207 -60.677 500.966 -53.6479 497.699 -48.2316C494.432 -42.8152 487.377 -41.0627 481.94 -44.3171C476.503 -47.5716 474.744 -54.6007 478.01 -60.017C481.277 -65.4334 488.333 -67.1859 493.77 -63.9314ZM890.14 -53.8347C892.557 -52.3883 893.339 -49.2643 891.887 -46.857C890.435 -44.4497 887.299 -43.6708 884.882 -45.1173C882.466 -46.5637 881.684 -49.6877 883.136 -52.095C884.588 -54.5023 887.724 -55.2812 890.14 -53.8347ZM345.959 -62.9129C347.428 -54.6157 341.866 -46.7035 333.538 -45.2405C325.209 -43.7775 317.267 -49.3176 315.798 -57.6148C314.329 -65.912 319.891 -73.8242 328.219 -75.2872C336.548 -76.7502 344.49 -71.2101 345.959 -62.9129ZM181.149 -82.1095C189.48 -75.6256 190.957 -63.6419 184.448 -55.343C177.94 -47.044 165.91 -45.5726 157.58 -52.0564C149.25 -58.5403 147.773 -70.524 154.281 -78.823C160.79 -87.1219 172.819 -88.5933 181.149 -82.1095ZM249.402 -90.8908C258.08 -79.8256 256.111 -63.8473 245.004 -55.2022C233.896 -46.5571 217.857 -48.519 209.179 -59.5842C200.501 -70.6494 202.471 -86.6278 213.578 -95.2729C224.685 -103.918 240.724 -101.956 249.402 -90.8908ZM297.421 -82.4096C301.72 -72.7886 297.377 -61.5168 287.72 -57.2332C278.062 -52.9497 266.747 -57.2766 262.448 -66.8975C258.148 -76.5185 262.491 -87.7904 272.149 -92.0739C281.806 -96.3574 293.121 -92.0306 297.421 -82.4096ZM602.766 -87.886C608.746 -81.9285 608.746 -72.2695 602.766 -66.312C596.786 -60.3545 587.09 -60.3545 581.11 -66.312C575.13 -72.2695 575.13 -81.9285 581.11 -87.886C587.09 -93.8435 596.786 -93.8435 602.766 -87.886ZM826.881 -87.886C832.861 -81.9285 832.861 -72.2695 826.881 -66.312C820.901 -60.3545 811.205 -60.3545 805.225 -66.312C799.245 -72.2695 799.245 -81.9285 805.225 -87.886C811.205 -93.8435 820.901 -93.8435 826.881 -87.886ZM95.6188 -83.9073C99.7697 -83.1035 102.481 -79.0997 101.674 -74.9645C100.867 -70.8293 96.8478 -68.1287 92.6969 -68.9325C88.546 -69.7363 85.8351 -73.7401 86.642 -77.8753C87.4488 -82.0105 91.4679 -84.7111 95.6188 -83.9073ZM720.651 -115.333C730.618 -105.404 730.618 -89.3055 720.651 -79.3763C710.684 -69.4472 694.525 -69.4472 684.558 -79.3763C674.591 -89.3055 674.591 -105.404 684.558 -115.333C694.525 -125.262 710.684 -125.262 720.651 -115.333ZM395.272 -105.214C403.709 -104.626 410.07 -97.3364 409.48 -88.9318C408.89 -80.5271 401.573 -74.1902 393.136 -74.7779C384.699 -75.3656 378.338 -82.6554 378.928 -91.0601C379.518 -99.4647 386.836 -105.802 395.272 -105.214ZM658.273 -109.343C665.748 -101.896 665.748 -89.8226 658.273 -82.3757C650.798 -74.9288 638.678 -74.9288 631.203 -82.3757C623.728 -89.8226 623.728 -101.896 631.203 -109.343C638.678 -116.79 650.798 -116.79 658.273 -109.343ZM774.482 -110.614C781.957 -103.168 781.957 -91.0938 774.482 -83.6469C767.006 -76.2001 754.887 -76.2001 747.412 -83.6469C739.936 -91.0938 739.936 -103.168 747.412 -110.614C754.887 -118.061 767.006 -118.061 774.482 -110.614ZM535.25 -110.255C542.499 -105.916 544.845 -96.5436 540.489 -89.3218C536.133 -82.1 526.726 -79.7633 519.476 -84.1026C512.227 -88.4419 509.882 -97.814 514.237 -105.036C518.593 -112.258 528.001 -114.594 535.25 -110.255ZM462.815 -113.914C470.903 -111.451 475.455 -102.922 472.982 -94.8653C470.509 -86.8083 461.948 -82.2736 453.861 -84.7369C445.773 -87.2002 441.221 -95.7286 443.694 -103.786C446.167 -111.843 454.727 -116.377 462.815 -113.914ZM857.075 -98.7964C860.699 -96.6268 861.872 -91.9407 859.694 -88.3298C857.516 -84.7189 852.812 -83.5505 849.188 -85.7202C845.563 -87.8898 844.39 -92.5759 846.568 -96.1868C848.746 -99.7977 853.45 -100.966 857.075 -98.7964ZM129.83 -107.297C133.693 -105.584 135.431 -101.075 133.711 -97.2268C131.991 -93.3784 127.465 -91.6477 123.602 -93.3611C119.739 -95.0745 118.002 -99.5832 119.722 -103.432C121.441 -107.28 125.967 -109.011 129.83 -107.297ZM364.588 -117.423C366.424 -107.052 359.472 -97.1613 349.061 -95.3325C338.65 -93.5037 328.722 -100.429 326.887 -110.8C325.051 -121.172 332.002 -131.062 342.413 -132.891C352.824 -134.72 362.752 -127.794 364.588 -117.423ZM322.586 -139.349C328.319 -126.521 322.528 -111.492 309.651 -105.781C296.774 -100.07 281.688 -105.839 275.955 -118.667C270.222 -131.495 276.013 -146.524 288.89 -152.235C301.766 -157.947 316.853 -152.177 322.586 -139.349ZM192.035 -136.034C198.699 -130.847 199.881 -121.26 194.674 -114.621C189.467 -107.982 179.844 -106.805 173.179 -111.992C166.515 -117.179 165.333 -126.766 170.54 -133.405C175.747 -140.044 185.37 -141.221 192.035 -136.034ZM583.897 -144.452C592.959 -139.028 595.891 -127.313 590.446 -118.286C585.001 -109.259 573.242 -106.338 564.18 -111.762C555.119 -117.186 552.187 -128.901 557.631 -137.928C563.076 -146.956 574.836 -149.876 583.897 -144.452ZM251.708 -144.638C258.216 -136.339 256.739 -124.355 248.409 -117.872C240.078 -111.388 228.049 -112.859 221.541 -121.158C215.032 -129.457 216.509 -141.441 224.84 -147.925C233.17 -154.409 245.199 -152.937 251.708 -144.638ZM642.968 -165.298C655.05 -158.066 658.96 -142.445 651.7 -130.409C644.44 -118.373 628.761 -114.478 616.679 -121.71C604.597 -128.943 600.687 -144.563 607.947 -156.599C615.207 -168.635 630.886 -172.53 642.968 -165.298ZM123.728 -128.228C126.495 -127.693 128.303 -125.023 127.765 -122.267C127.227 -119.51 124.547 -117.709 121.78 -118.245C119.013 -118.781 117.206 -121.45 117.744 -124.207C118.281 -126.964 120.961 -128.764 123.728 -128.228ZM423.033 -157.686C433.579 -156.951 441.53 -147.839 440.793 -137.333C440.055 -126.827 430.908 -118.906 420.363 -119.641C409.817 -120.375 401.866 -129.488 402.603 -139.993C403.341 -150.499 412.487 -158.42 423.033 -157.686ZM501.713 -158.82C511.822 -155.741 517.512 -145.08 514.421 -135.009C511.331 -124.938 500.63 -119.269 490.52 -122.348C480.41 -125.428 474.721 -136.088 477.811 -146.159C480.902 -156.231 491.603 -161.899 501.713 -158.82ZM805.459 -141.35C809.084 -139.18 810.256 -134.494 808.078 -130.883C805.901 -127.273 801.197 -126.104 797.572 -128.274C793.948 -130.443 792.775 -135.129 794.953 -138.74C797.131 -142.351 801.834 -143.52 805.459 -141.35ZM820.865 -144.7C823.561 -143.879 825.078 -141.036 824.254 -138.351C823.429 -135.665 820.576 -134.154 817.88 -134.975C815.184 -135.796 813.667 -138.639 814.491 -141.324C815.315 -144.01 818.169 -145.521 820.865 -144.7ZM752.708 -164.268C759.957 -159.929 762.303 -150.557 757.947 -143.335C753.591 -136.113 744.183 -133.776 736.934 -138.116C729.685 -142.455 727.339 -151.827 731.695 -159.049C736.051 -166.271 745.459 -168.607 752.708 -164.268ZM402.833 -166.607C405.28 -152.778 396.012 -139.591 382.13 -137.153C368.249 -134.714 355.012 -143.948 352.564 -157.776C350.117 -171.605 359.386 -184.792 373.267 -187.23C387.148 -189.669 400.385 -180.435 402.833 -166.607ZM696.345 -173.693C705.407 -168.269 708.339 -156.554 702.894 -147.526C697.45 -138.499 685.69 -135.578 676.628 -141.002C667.567 -146.426 664.635 -158.142 670.08 -167.169C675.524 -176.196 687.284 -179.117 696.345 -173.693ZM553.967 -193.283C567.446 -189.177 575.033 -174.963 570.912 -161.535C566.791 -148.106 552.522 -140.549 539.043 -144.654C525.564 -148.759 517.977 -162.973 522.098 -176.402C526.219 -189.83 540.487 -197.388 553.967 -193.283ZM168.488 -166.421C170.563 -166.019 171.918 -164.017 171.515 -161.95C171.312 -160.909 170.702 -160.05 169.882 -159.505C170.671 -157.633 170.712 -155.452 169.817 -153.45C168.097 -149.601 163.572 -147.871 159.709 -149.584C155.846 -151.297 154.108 -155.806 155.828 -159.654C157.293 -162.933 160.795 -164.675 164.189 -164.059C164.843 -165.747 166.639 -166.779 168.488 -166.421ZM466.166 -202.975C480.227 -201.996 490.829 -189.846 489.845 -175.838C488.862 -161.831 476.666 -151.269 462.605 -152.249C448.544 -153.228 437.943 -165.378 438.926 -179.386C439.909 -193.393 452.105 -203.955 466.166 -202.975ZM337.875 -190.945C342.175 -181.324 337.831 -170.052 328.174 -165.768C318.516 -161.485 307.201 -165.812 302.902 -175.433C298.602 -185.054 302.945 -196.325 312.603 -200.609C322.26 -204.892 333.575 -200.566 337.875 -190.945ZM777.863 -180.357C780.789 -179.466 782.79 -176.986 783.203 -174.157C784.615 -173.518 785.551 -172.053 785.436 -170.419C785.289 -168.318 783.459 -166.734 781.35 -166.881C781.008 -166.905 780.68 -166.973 780.37 -167.079C778.467 -165.581 775.881 -165.009 773.385 -165.769C769.342 -167.001 767.066 -171.265 768.302 -175.293C769.538 -179.322 773.819 -181.589 777.863 -180.357ZM275.365 -194.338C280.572 -187.698 279.39 -178.111 272.726 -172.924C266.061 -167.737 256.438 -168.914 251.231 -175.554C246.024 -182.193 247.206 -191.78 253.87 -196.967C260.535 -202.154 270.158 -200.977 275.365 -194.338ZM210.55 -184.086C213.882 -181.493 214.473 -176.699 211.869 -173.38C209.266 -170.06 204.454 -169.471 201.122 -172.065C197.79 -174.658 197.199 -179.452 199.802 -182.772C202.406 -186.091 207.217 -186.68 210.55 -184.086ZM603.72 -214.292C613.829 -211.213 619.519 -200.553 616.429 -190.482C613.338 -180.41 602.637 -174.742 592.527 -177.821C582.417 -180.9 576.728 -191.561 579.818 -201.632C582.909 -211.703 593.61 -217.372 603.72 -214.292ZM660.697 -218.731C668.784 -216.268 673.336 -207.74 670.864 -199.683C668.391 -191.626 659.83 -187.091 651.743 -189.554C643.655 -192.017 639.103 -200.546 641.576 -208.603C644.048 -216.66 652.609 -221.195 660.697 -218.731ZM430.197 -212.984C432.033 -202.613 425.081 -192.723 414.67 -190.894C404.259 -189.065 394.332 -195.99 392.496 -206.362C390.66 -216.733 397.612 -226.624 408.023 -228.452C418.433 -230.281 428.361 -223.356 430.197 -212.984ZM203.334 -200.406C205.909 -199.264 207.067 -196.258 205.921 -193.692C204.774 -191.127 201.757 -189.973 199.181 -191.115C196.606 -192.258 195.448 -195.263 196.595 -197.829C197.741 -200.395 200.758 -201.548 203.334 -200.406ZM717.446 -209.207C721.49 -207.976 723.766 -203.712 722.53 -199.683C721.294 -195.654 717.013 -193.387 712.969 -194.619C708.925 -195.85 706.65 -200.115 707.886 -204.143C709.122 -208.172 713.403 -210.439 717.446 -209.207ZM509.9 -234.596C520.446 -233.862 528.397 -224.749 527.659 -214.244C526.922 -203.738 517.775 -195.817 507.229 -196.551C496.684 -197.286 488.732 -206.398 489.47 -216.904C490.207 -227.41 499.354 -235.331 509.9 -234.596ZM737.193 -215.45C740.006 -215.254 742.126 -212.824 741.929 -210.023C741.733 -207.221 739.294 -205.109 736.481 -205.305C733.669 -205.5 731.549 -207.93 731.746 -210.732C731.942 -213.533 734.381 -215.646 737.193 -215.45ZM372.898 -233.466C376.338 -225.769 372.863 -216.752 365.137 -213.325C357.411 -209.898 348.36 -213.36 344.92 -221.057C341.48 -228.753 344.954 -237.771 352.681 -241.198C360.407 -244.624 369.458 -241.163 372.898 -233.466ZM259.237 -229.937C262.569 -227.343 263.16 -222.55 260.557 -219.23C257.953 -215.911 253.141 -215.322 249.809 -217.916C246.477 -220.509 245.886 -225.303 248.49 -228.622C251.093 -231.942 255.905 -232.531 259.237 -229.937ZM564.414 -251.69C572.851 -251.102 579.212 -243.812 578.622 -235.408C578.032 -227.003 570.714 -220.666 562.278 -221.254C553.841 -221.842 547.48 -229.131 548.07 -237.536C548.66 -245.941 555.977 -252.278 564.414 -251.69ZM304.999 -236.5C307.602 -233.18 307.012 -228.387 303.679 -225.793C300.347 -223.2 295.535 -223.788 292.932 -227.108C290.329 -230.428 290.92 -235.221 294.252 -237.815C297.584 -240.408 302.396 -239.82 304.999 -236.5ZM687.242 -240.556C691.46 -240.262 694.641 -236.618 694.346 -232.415C694.051 -228.213 690.392 -225.044 686.174 -225.338C681.956 -225.632 678.775 -229.277 679.07 -233.479C679.365 -237.682 683.024 -240.85 687.242 -240.556ZM474.506 -245.802C475.975 -237.505 470.413 -229.593 462.085 -228.13C453.756 -226.667 445.814 -232.207 444.345 -240.504C442.877 -248.801 448.438 -256.713 456.767 -258.176C465.095 -259.639 473.038 -254.099 474.506 -245.802ZM621.86 -255.128C626.078 -254.834 629.259 -251.189 628.964 -246.987C628.669 -242.784 625.01 -239.616 620.792 -239.91C616.573 -240.203 613.393 -243.848 613.688 -248.051C613.983 -252.253 617.642 -255.421 621.86 -255.128ZM304.48 -256.714C306.702 -254.985 307.096 -251.79 305.36 -249.577C303.624 -247.364 300.417 -246.971 298.195 -248.7C295.974 -250.429 295.58 -253.625 297.315 -255.838C299.051 -258.051 302.259 -258.443 304.48 -256.714ZM639.127 -260.529C639.617 -257.763 637.763 -255.126 634.987 -254.638C632.211 -254.151 629.563 -255.997 629.074 -258.763C628.584 -261.529 630.438 -264.166 633.214 -264.654C635.99 -265.141 638.638 -263.295 639.127 -260.529ZM411.891 -267.234C413.611 -263.386 411.873 -258.877 408.01 -257.164C404.147 -255.45 399.622 -257.181 397.902 -261.029C396.182 -264.878 397.919 -269.387 401.782 -271.1C405.645 -272.813 410.171 -271.083 411.891 -267.234ZM363.375 -269.255C365.978 -265.935 365.387 -261.142 362.055 -258.548C358.723 -255.955 353.911 -256.543 351.308 -259.863C348.704 -263.183 349.295 -267.976 352.627 -270.57C355.959 -273.163 360.771 -272.575 363.375 -269.255ZM520.541 -269.17C521.275 -265.021 518.495 -261.065 514.33 -260.333C510.166 -259.602 506.195 -262.372 505.46 -266.521C504.726 -270.669 507.507 -274.625 511.671 -275.357C515.835 -276.088 519.807 -273.318 520.541 -269.17ZM587.519 -270.789C588.254 -266.64 585.473 -262.684 581.309 -261.952C577.144 -261.221 573.173 -263.991 572.439 -268.14C571.705 -272.288 574.485 -276.244 578.65 -276.976C582.814 -277.707 586.785 -274.937 587.519 -270.789ZM476.487 -284.947C478.207 -281.099 476.469 -276.59 472.606 -274.877C468.743 -273.163 464.217 -274.894 462.497 -278.743C460.777 -282.591 462.515 -287.1 466.378 -288.813C470.241 -290.527 474.767 -288.796 476.487 -284.947ZM413.777 -284.333C415.512 -282.12 415.118 -278.924 412.897 -277.195C410.676 -275.466 407.468 -275.859 405.732 -278.072C403.997 -280.285 404.39 -283.48 406.612 -285.209C408.833 -286.939 412.041 -286.546 413.777 -284.333ZM529.053 -287.43C530.2 -284.865 529.042 -281.859 526.466 -280.717C523.891 -279.574 520.874 -280.728 519.727 -283.294C518.58 -285.859 519.739 -288.865 522.314 -290.008C524.889 -291.15 527.907 -289.996 529.053 -287.43Z" fill="url(#paint8_linear_20_12536)"/>
</g>
</g>
<defs>
<filter id="filter0_f_20_12536" x="-247" y="-547" width="1454" height="1454" filterUnits="userSpaceOnUse" color-interpolation-filters="sRGB">
<feFlood flood-opacity="0" result="BackgroundImageFix"/>
<feBlend mode="normal" in="SourceGraphic" in2="BackgroundImageFix" result="shape"/>
<feGaussianBlur stdDeviation="100" result="effect1_foregroundBlur_20_12536"/>
</filter>
<filter id="filter1_f_20_12536" x="-427" y="-561" width="1607" height="1607" filterUnits="userSpaceOnUse" color-interpolation-filters="sRGB">
<feFlood flood-opacity="0" result="BackgroundImageFix"/>
<feBlend mode="normal" in="SourceGraphic" in2="BackgroundImageFix" result="shape"/>
<feGaussianBlur stdDeviation="200" result="effect1_foregroundBlur_20_12536"/>
</filter>
<linearGradient id="paint0_linear_20_12536" x1="-47" y1="-344.261" x2="1225.21" y2="171.818" gradientUnits="userSpaceOnUse">
<stop stop-color="#24E3A1"/>
<stop offset="1" stop-color="#0B281F"/>
</linearGradient>
<linearGradient id="paint1_linear_20_12536" x1="-27" y1="-158.903" x2="948.663" y2="197.215" gradientUnits="userSpaceOnUse">
<stop stop-color="#0B281F"/>
<stop offset="0.403862" stop-color="#24E3A1"/>
<stop offset="0.692179" stop-color="#0B281F"/>
<stop offset="1" stop-color="#34B263"/>
</linearGradient>
<linearGradient id="paint2_linear_20_12536" x1="223.575" y1="-0.130728" x2="0.00574736" y2="8.35702" gradientUnits="userSpaceOnUse">
<stop stop-opacity="0"/>
<stop offset="0.0001" stop-opacity="0"/>
<stop offset="0.476325" stop-opacity="0.6"/>
<stop offset="1" stop-opacity="0"/>
</linearGradient>
<linearGradient id="paint3_linear_20_12536" x1="223.575" y1="-0.130728" x2="0.00574736" y2="8.35702" gradientUnits="userSpaceOnUse">
<stop stop-opacity="0"/>
<stop offset="0.0001" stop-opacity="0"/>
<stop offset="0.476325" stop-opacity="0.6"/>
<stop offset="1" stop-opacity="0"/>
</linearGradient>
<linearGradient id="paint4_linear_20_12536" x1="240.553" y1="-0.130124" x2="0.0644757" y2="9.73888" gradientUnits="userSpaceOnUse">
<stop stop-opacity="0"/>
<stop offset="0.0001" stop-opacity="0"/>
<stop offset="0.476325" stop-opacity="0.6"/>
<stop offset="1" stop-opacity="0"/>
</linearGradient>
<linearGradient id="paint5_linear_20_12536" x1="240.553" y1="-0.130124" x2="0.0644757" y2="9.73888" gradientUnits="userSpaceOnUse">
<stop stop-opacity="0"/>
<stop offset="0.0001" stop-opacity="0"/>
<stop offset="0.476325" stop-opacity="0.6"/>
<stop offset="1" stop-opacity="0"/>
</linearGradient>
<linearGradient id="paint6_linear_20_12536" x1="213.373" y1="-0.133876" x2="-0.0349088" y2="7.41658" gradientUnits="userSpaceOnUse">
<stop stop-opacity="0"/>
<stop offset="0.0001" stop-opacity="0"/>
<stop offset="0.476325" stop-opacity="0.6"/>
<stop offset="1" stop-opacity="0"/>
</linearGradient>
<linearGradient id="paint7_linear_20_12536" x1="213.373" y1="-0.133876" x2="-0.0349088" y2="7.41658" gradientUnits="userSpaceOnUse">
<stop stop-opacity="0"/>
<stop offset="0.0001" stop-opacity="0"/>
<stop offset="0.476325" stop-opacity="0.6"/>
<stop offset="1" stop-opacity="0"/>
</linearGradient>
<linearGradient id="paint8_linear_20_12536" x1="952.214" y1="179.36" x2="5.62568" y2="179.36" gradientUnits="userSpaceOnUse">
<stop stop-color="#34B263"/>
<stop offset="0.501247" stop-color="#0B281F"/>
<stop offset="1" stop-color="#24E3A1"/>
</linearGradient>
<clipPath id="clip0_20_12536">
<path d="M0 12C0 5.37259 5.37258 0 12 0H948C954.628 0 960 5.37258 960 12V348C960 354.627 954.628 360 948 360H12C5.37257 360 0 354.627 0 348V12Z" fill="white"/>
</clipPath>
</defs>
</svg>
