<svg width="40" height="40" viewBox="0 0 40 40" fill="none" xmlns="http://www.w3.org/2000/svg">
<path d="M13.1584 19.491C13.0849 20.887 13.1694 22.373 11.9221 23.3084C11.3416 23.7438 11 24.427 11 25.1527C11 26.1508 11.7818 27 12.8 27H27.2C28.2182 27 29 26.1508 29 25.1527C29 24.427 28.6584 23.7438 28.0779 23.3084C26.8306 22.373 26.9151 20.887 26.8416 19.491C26.6501 15.8522 23.6438 13 20 13C16.3562 13 13.3499 15.8522 13.1584 19.491Z" stroke="#6E6E71" stroke-width="1.5" stroke-linecap="round" stroke-linejoin="round"/>
<path d="M18.5 11.125C18.5 11.9534 19.1716 13 20 13C20.8284 13 21.5 11.9534 21.5 11.125C21.5 10.2966 20.8284 10 20 10C19.1716 10 18.5 10.2966 18.5 11.125Z" stroke="#6E6E71" stroke-width="1.5"/>
<path d="M23 27C23 28.6569 21.6569 30 20 30C18.3431 30 17 28.6569 17 27" stroke="#6E6E71" stroke-width="1.5" stroke-linecap="round" stroke-linejoin="round"/>
</svg>
