<svg width="32" height="32" viewBox="0 0 32 32" fill="none" xmlns="http://www.w3.org/2000/svg">
<path d="M9.33333 21.3346H4L8.62667 15.1213C8.9108 14.8089 9.1167 14.4336 9.22742 14.0261C9.33814 13.6186 9.35052 13.1907 9.26354 12.7775C9.17656 12.3643 8.9927 11.9777 8.7271 11.6494C8.4615 11.3212 8.12174 11.0607 7.7358 10.8894C7.34986 10.7181 6.92876 10.6409 6.50715 10.6642C6.08555 10.6875 5.6755 10.8105 5.31074 11.0232C4.94598 11.2359 4.63695 11.5322 4.40908 11.8877C4.1812 12.2432 4.041 12.6477 4 13.0679M13.3333 21.3346V10.6679H18.6667M13.3333 16.0013H17.3333M22.6667 21.3346V13.3346C22.6667 12.6273 22.9476 11.9491 23.4477 11.449C23.9478 10.9489 24.6261 10.6679 25.3333 10.6679C26.0406 10.6679 26.7189 10.9489 27.219 11.449C27.719 11.9491 28 12.6273 28 13.3346V21.3346M22.6667 17.3346H28" stroke="#88DF95" stroke-width="2.66667" stroke-linecap="round" stroke-linejoin="round"/>
</svg>
