<svg width="12" height="12" viewBox="0 0 12 12" fill="none" xmlns="http://www.w3.org/2000/svg">
<g clip-path="url(#clip0_18_9995)">
<path d="M6.00004 12C9.12965 12 11.6667 9.46297 11.6667 6.33335C11.6667 3.20374 9.12965 0.666687 6.00004 0.666687C2.87043 0.666687 0.333374 3.20374 0.333374 6.33335C0.333374 9.46297 2.87043 12 6.00004 12Z" fill="#F4900C"/>
<path d="M6.00004 11.3333C9.12965 11.3333 11.6667 8.79628 11.6667 5.66667C11.6667 2.53705 9.12965 0 6.00004 0C2.87043 0 0.333374 2.53705 0.333374 5.66667C0.333374 8.79628 2.87043 11.3333 6.00004 11.3333Z" fill="#FFCC4D"/>
<path d="M6.00004 10.6666C8.57737 10.6666 10.6667 8.57731 10.6667 5.99998C10.6667 3.42265 8.57737 1.33331 6.00004 1.33331C3.42271 1.33331 1.33337 3.42265 1.33337 5.99998C1.33337 8.57731 3.42271 10.6666 6.00004 10.6666Z" fill="#FFE8B6"/>
<path d="M6.00004 10.3333C8.57737 10.3333 10.6667 8.244 10.6667 5.66667C10.6667 3.08934 8.57737 1 6.00004 1C3.42271 1 1.33337 3.08934 1.33337 5.66667C1.33337 8.244 3.42271 10.3333 6.00004 10.3333Z" fill="#FFAC33"/>
<path d="M3.18103 3.61865C3.18103 3.43698 3.35936 3.36431 3.35936 3.36431L5.98536 2.13098L8.63636 3.36431C8.63636 3.36431 8.81903 3.40498 8.81903 3.61998V3.83365H3.18103V3.61865Z" fill="#FFE8B6"/>
<path d="M8.64295 4.27866C8.64295 4.084 8.47461 3.92633 8.26728 3.92633H3.70961C3.50195 3.92633 3.35728 4.084 3.35728 4.27866C3.35728 4.411 3.42528 4.525 3.53361 4.58533V4.80733H4.23828V4.631H4.94295V4.80733H5.64761V4.631H6.35228V4.80733H7.05695V4.631H7.76161V4.80733H8.46661V4.57633C8.57228 4.51366 8.64295 4.404 8.64295 4.27866ZM9.17128 8C9.17128 8.0701 9.14343 8.13734 9.09386 8.18691C9.04429 8.23648 8.97705 8.26433 8.90695 8.26433H3.09295C3.02284 8.26433 2.95561 8.23648 2.90603 8.18691C2.85646 8.13734 2.82861 8.0701 2.82861 8C2.82861 7.92989 2.85646 7.86266 2.90603 7.81309C2.95561 7.76351 3.02284 7.73566 3.09295 7.73566H8.90728C9.05295 7.73566 9.17128 7.854 9.17128 8Z" fill="#F4900C"/>
<path d="M8.81898 4.06665C8.81898 4.11342 8.8004 4.15827 8.76733 4.19134C8.73427 4.22441 8.68941 4.24299 8.64265 4.24299H3.35698C3.31209 4.24023 3.26994 4.22045 3.23913 4.18768C3.20832 4.15491 3.19116 4.11163 3.19116 4.06665C3.19116 4.02168 3.20832 3.97839 3.23913 3.94563C3.26994 3.91286 3.31209 3.89308 3.35698 3.89032L8.64265 3.89132C8.66575 3.89123 8.68863 3.8957 8.71 3.90447C8.73137 3.91324 8.7508 3.92613 8.76718 3.94242C8.78356 3.9587 8.79656 3.97806 8.80545 3.99938C8.81434 4.02069 8.81894 4.04356 8.81898 4.06665ZM4.06198 4.27132H7.93831V4.66665H4.06198V4.27132Z" fill="#F4900C"/>
<path d="M4.23796 6.94298C4.23796 7.13765 4.13263 7.29531 4.00296 7.29531H3.76796C3.63829 7.29531 3.53296 7.13765 3.53296 6.94298V4.27164C3.53296 4.07698 3.63829 3.91931 3.76796 3.91931H4.00296C4.13263 3.91931 4.23796 4.07698 4.23796 4.27164V6.94298ZM8.46663 6.94298C8.46663 7.13765 8.36163 7.29531 8.23163 7.29531H7.99663C7.86696 7.29531 7.76163 7.13765 7.76163 6.94298V4.27164C7.76163 4.07698 7.86663 3.91931 7.99663 3.91931H8.23163C8.36129 3.91931 8.46663 4.07698 8.46663 4.27164V6.94298ZM5.64763 6.94298C5.64763 7.13765 5.54229 7.29531 5.41263 7.29531H5.17763C5.04796 7.29531 4.94263 7.13765 4.94263 6.94298V4.27164C4.94263 4.07698 5.04796 3.91931 5.17763 3.91931H5.41263C5.54229 3.91931 5.64763 4.07698 5.64763 4.27164V6.94298ZM7.05696 6.94298C7.05696 7.13765 6.95163 7.29531 6.82196 7.29531H6.58729C6.45763 7.29531 6.35229 7.13765 6.35229 6.94298V4.27164C6.35229 4.07698 6.45763 3.91931 6.58729 3.91931H6.82196C6.95163 3.91931 7.05696 4.07698 7.05696 4.27164V6.94298Z" fill="#FFD983"/>
<path d="M8.64297 7.119C8.64297 7.31366 8.4853 7.47133 8.29063 7.47133H3.70963C3.61619 7.47133 3.52657 7.43421 3.4605 7.36813C3.39442 7.30206 3.3573 7.21244 3.3573 7.119C3.3573 7.02555 3.39442 6.93593 3.4605 6.86986C3.52657 6.80378 3.61619 6.76666 3.70963 6.76666H8.29063C8.48497 6.76666 8.64297 6.92433 8.64297 7.119Z" fill="#FFCC4D"/>
<path d="M8.99531 7.47135C8.99531 7.66602 8.83764 7.82369 8.64297 7.82369H3.35697C3.26353 7.82369 3.17391 7.78656 3.10783 7.72049C3.04176 7.65441 3.00464 7.5648 3.00464 7.47135C3.00464 7.37791 3.04176 7.28829 3.10783 7.22221C3.17391 7.15614 3.26353 7.11902 3.35697 7.11902H8.64264C8.83731 7.11902 8.99531 7.27668 8.99531 7.47135Z" fill="#FFD983"/>
<path d="M9.17128 7.73565C9.17128 7.80575 9.14343 7.87299 9.09386 7.92256C9.04429 7.97213 8.97705 7.99998 8.90695 7.99998H3.09295C3.05823 7.99998 3.02386 7.99314 2.99179 7.97986C2.95972 7.96658 2.93058 7.9471 2.90603 7.92256C2.88149 7.89801 2.86202 7.86887 2.84873 7.8368C2.83545 7.80473 2.82861 7.77036 2.82861 7.73565C2.82861 7.70093 2.83545 7.66656 2.84873 7.63449C2.86202 7.60242 2.88149 7.57328 2.90603 7.54874C2.93058 7.52419 2.95972 7.50472 2.99179 7.49143C3.02386 7.47815 3.05823 7.47131 3.09295 7.47131H8.90728C9.05295 7.47131 9.17128 7.58965 9.17128 7.73565Z" fill="#FFD983"/>
<path d="M8.64297 4.09531C8.64297 3.90065 8.47463 3.74298 8.2673 3.74298H3.70963C3.50197 3.74298 3.3573 3.90065 3.3573 4.09531C3.3573 4.22765 3.4253 4.34165 3.53363 4.40198V4.62398H4.2383V4.44765H4.94297V4.62398H5.64763V4.44765H6.3523V4.62398H7.05697V4.44765H7.76163V4.62398H8.46663V4.39298C8.5723 4.33031 8.64297 4.22065 8.64297 4.09531Z" fill="#FFCC4D"/>
<path d="M3.18103 3.82098C3.18103 3.63931 3.35936 3.56665 3.35936 3.56665L5.98536 2.33331L8.63636 3.56665C8.63636 3.56665 8.81903 3.60731 8.81903 3.82231V3.91931H3.18103V3.82098Z" fill="#FFD983"/>
<path d="M6 2.78101C6 2.78101 4.18166 3.63801 4.00033 3.71534C3.81866 3.79234 3.87933 3.91901 4.00066 3.91901H7.99066C8.178 3.91901 8.13366 3.77601 7.985 3.69867C7.83633 3.62167 6 2.78101 6 2.78101Z" fill="#FFAC33"/>
<path d="M8.81898 3.91901C8.81898 3.96578 8.8004 4.01063 8.76733 4.0437C8.73427 4.07676 8.68941 4.09534 8.64265 4.09534H3.35698C3.31209 4.09258 3.26994 4.0728 3.23913 4.04004C3.20832 4.00727 3.19116 3.96399 3.19116 3.91901C3.19116 3.87403 3.20832 3.83075 3.23913 3.79798C3.26994 3.76522 3.31209 3.74544 3.35698 3.74268L8.64265 3.74368C8.66575 3.74359 8.68863 3.74806 8.71 3.75682C8.73137 3.76559 8.7508 3.77849 8.76718 3.79477C8.78356 3.81106 8.79656 3.83041 8.80545 3.85173C8.81434 3.87305 8.81894 3.89591 8.81898 3.91901Z" fill="#FFD983"/>
</g>
<defs>
<clipPath id="clip0_18_9995">
<rect width="12" height="12" fill="white"/>
</clipPath>
</defs>
</svg>
